0
SECTION
2
HEADER
9
$INSUNITS
70
4
9
$ACADVER
1
AC1014
9
$HANDSEED
5
FFFF
0
ENDSEC
0
SECTION
2
TABLES
0
TABLE
2
VPORT
5
8
100
AcDbSymbolTable
0
ENDTAB
0
TABLE
2
LTYPE
5
5
100
AcDbSymbolTable
0
LTYPE
5
14
100
AcDbSymbolTableRecord
100
AcDbLinetypeTableRecord
2
BYBLOCK
70
0
0
LTYPE
5
15
100
AcDbSymbolTableRecord
100
AcDbLinetypeTableRecord
2
BYLAYER
70
0
0
ENDTAB
0
TABLE
2
LAYER
5
2
100
AcDbSymbolTable
70
2
0
LAYER
5
50
100
AcDbSymbolTableRecord
100
AcDbLayerTableRecord
2
0
70
0
6
CONTINUOUS
0
ENDTAB
0
TABLE
2
STYLE
5
3
100
AcDbSymbolTable
70
1
0
STYLE
5
11
100
AcDbSymbolTableRecord
100
AcDbTextStyleTableRecord
2
STANDARD
70
0
0
ENDTAB
0
TABLE
2
VIEW
5
6
100
AcDbSymbolTable
70
0
0
ENDTAB
0
TABLE
2
UCS
5
7
100
AcDbSymbolTable
70
0
0
ENDTAB
0
TABLE
2
APPID
5
9
100
AcDbSymbolTable
70
2
0
APPID
5
12
100
AcDbSymbolTableRecord
100
AcDbRegAppTableRecord
2
ACAD
70
0
0
ENDTAB
0
TABLE
2
DIMSTYLE
5
A
100
AcDbSymbolTable
70
1
0
ENDTAB
0
TABLE
2
BLOCK_RECORD
5
1
100
AcDbSymbolTable
70
1
0
BLOCK_RECORD
5
1F
100
AcDbSymbolTableRecord
100
AcDbBlockTableRecord
2
*MODEL_SPACE
0
BLOCK_RECORD
5
1B
100
AcDbSymbolTableRecord
100
AcDbBlockTableRecord
2
*PAPER_SPACE
0
ENDTAB
0
ENDSEC
0
SECTION
2
BLOCKS
0
BLOCK
5
20
100
AcDbEntity
100
AcDbBlockBegin
2
*MODEL_SPACE
0
ENDBLK
5
21
100
AcDbEntity
100
AcDbBlockEnd
0
BLOCK
5
1C
100
AcDbEntity
100
AcDbBlockBegin
2
*PAPER_SPACE
0
ENDBLK
5
1D
100
AcDbEntity
100
AcDbBlockEnd
0
ENDSEC
0
SECTION
2
ENTITIES
0
LWPOLYLINE
5
100
100
AcDbEntity
8
0
100
AcDbPolyline
90
72
70
1
43
0.0
10
-20.000000000000053
20
34.000000000000014
10
-20.000000000000053
20
22.354101959178191
42
0.3316792665682724
10
-22.499999999999996
20
18.999999992928526
10
-22.5
20
16.499999996464261
10
-20
20
13.999999996464263
10
-22.5
20
11.499999996464263
10
-22.5
20
9
42
-0.4142135623730962
10
-25.500000000000004
20
6.0000000000000009
10
-27.000000000000007
20
6.0000000000000009
42
0.41421356237309453
10
-30.000000000000004
20
3.0000000000000004
10
-30
20
-3.0000000000000004
42
0.41421356237309509
10
-27
20
-6.0000000000000009
10
-25.5
20
-5.9999999999999947
42
-0.41421356237309453
10
-22.499999999999996
20
-9.0000000000000018
10
-22.5
20
-11.499999996464268
10
-20
20
-13.999999996464268
10
-22.5
20
-16.499999996464268
10
-22.499999999999993
20
-18.999999992928526
42
0.4142135623730952
10
-18.999999999999993
20
-22.499999992928529
10
-16.500000000000004
20
-22.500000007071467
10
-14.000000000000004
20
-20.000000007071471
10
-11.500000000000004
20
-22.500000007071467
10
-9
20
-22.499999992928537
42
-0.4142135623730962
10
-6.0000000000000009
20
-25.49999999292854
10
-6.0000000000000009
20
-27.000000000000007
42
0.41421356237309453
10
-3.0000000000000004
20
-30.000000000000004
10
3.0000000000000004
20
-30
42
0.41421356237309509
10
6.0000000000000009
20
-27
10
6.0000000000000062
20
-25.49999999292854
42
-0.41421356237309537
10
9
20
-22.49999999292854
10
11.499999992928524
20
-22.500000007071478
10
13.999999992928524
20
-20.000000007071471
10
16.499999992928526
20
-22.500000007071478
10
18.999999999999993
20
-22.499999992928529
42
0.4142135623730952
10
22.499999999999996
20
-18.999999992928529
10
22.499999999999996
20
-16.499999996464261
10
19.999999999999996
20
-13.999999996464263
10
22.499999999999996
20
-11.499999996464263
10
22.5
20
-9
42
-0.4142135623730962
10
25.500000000000004
20
-6.0000000000000009
10
27.000000000000007
20
-6.0000000000000009
42
0.41421356237309453
10
30.000000000000004
20
-3.0000000000000004
10
30
20
3.0000000000000004
42
0.41421356237309509
10
27
20
6.0000000000000009
10
25.5
20
5.9999999999999947
42
-0.41421356237309453
10
22.499999999999996
20
9.0000000000000018
10
22.499999999999996
20
11.499999996464265
10
19.999999999999996
20
13.999999996464265
10
22.499999999999996
20
16.499999996464265
10
22.5
20
18.999999992928526
42
0.33167926656827723
10
19.999999999999996
20
22.354101959178209
10
19.999999999999996
20
34
42
0.4142135623730957
10
18.999999999999993
20
35.000000000000007
10
17.999999999999989
20
35.000000000000007
42
0.4142135623730937
10
16.999999999999993
20
34
10
16.999999999999996
20
25.499999992928526
42
-0.41421356306348939
10
13.999999992928533
20
22.499999992928522
10
11.500000000000002
20
19.999999992928529
10
9.0000000000000018
20
22.499999992928529
42
-0.41421356237309637
10
6.0000000000000009
20
25.499999992928522
10
6.0000000000000009
20
27.000000000000007
42
0.41421356237309453
10
3.0000000000000004
20
30.000000000000004
10
-3.0000000000000004
20
30
42
0.41421356237309509
10
-6.0000000000000009
20
27
10
-5.9999999999999947
20
25.499999992928526
42
-0.4142135623730947
10
-9.0000000000000018
20
22.499999992928522
10
-11.500000000000004
20
19.999999992928529
10
-14
20
22.499999992928529
42
-0.41421356237309936
10
-17.000000000000053
20
25.499999992928526
10
-17.000000000000053
20
34.000000000000014
42
0.41421356237309509
10
-18.000000000000053
20
35.000000000000014
10
-19.000000000000053
20
35.000000000000014
42
0.41421356237309509
0
LWPOLYLINE
5
101
100
AcDbEntity
8
0
100
AcDbPolyline
90
30
70
1
43
0.0
10
-27.499999999999996
20
13.999999999999996
10
-27.499999999999972
20
33.000000000000028
42
-0.41421356237309442
10
-20.499999999999975
20
40.000000000000014
10
20.500000000000004
20
40
42
-0.41421356237309431
10
27.5
20
33.000000000000007
10
27.5
20
14
42
0.41421356237309509
10
30.5
20
11
10
41.999999999999993
20
11.000000000000016
42
-0.41421356237309587
10
45
20
8
10
45.000000000000007
20
-8
42
-0.41421356237309809
10
42
20
-11
10
30.5
20
-11
42
0.41421356237309453
10
27.499999999999996
20
-13.999999999999996
10
27.499999999999993
20
-18.999999992928533
42
-0.41421356237309453
10
19.000000000000004
20
-27.499999992928522
10
11
20
-27.499999992928544
10
11
20
-29.000000000000004
42
-0.41421356237309587
10
5
20
-35.000000000000007
10
-4.9999999999999991
20
-35.000000000000007
42
-0.41421356237309448
10
-11.000000000000005
20
-29.000000000000007
10
-10.999999999999996
20
-27.499999992928533
10
-18.999999999999996
20
-27.499999992928519
42
-0.41421356237309503
10
-27.499999999999982
20
-18.999999992928529
10
-27.499999999999993
20
-14
42
0.41421356237309453
10
-30.499999999999993
20
-11
10
-41.999999999999993
20
-11.000000000000007
42
-0.41421356237309587
10
-44.999999999999993
20
-8
10
-44.999999999999986
20
8
42
-0.41421356237309587
10
-41.999999999999993
20
11
10
-30.5
20
11
42
0.41421356237309453
0
CIRCLE
5
102
100
AcDbEntity
8
0
100
AcDbCircle
10
40.000000000000014
20
-4.8835935010928566e-14
30
0
40
1.599999999999997
0
CIRCLE
5
103
100
AcDbEntity
8
0
100
AcDbCircle
10
-39.999999999999986
20
2.6659230663582078e-14
30
0
40
1.6000000000000014
0
ENDSEC
0
SECTION
2
OBJECTS
0
DICTIONARY
5
C
100
AcDbDictionary
3
ACAD_GROUP
350
D
3
ACAD_MLINESTYLE
350
17
0
DICTIONARY
5
D
100
AcDbDictionary
0
DICTIONARY
5
1A
330
C
100
AcDbDictionary
0
DICTIONARY
5
17
100
AcDbDictionary
0
ENDSEC
0
EOF
