0
SECTION
2
HEADER
9
$INSUNITS
70
4
9
$ACADVER
1
AC1014
9
$HANDSEED
5
FFFF
0
ENDSEC
0
SECTION
2
TABLES
0
TABLE
2
VPORT
5
8
100
AcDbSymbolTable
0
ENDTAB
0
TABLE
2
LTYPE
5
5
100
AcDbSymbolTable
0
LTYPE
5
14
100
AcDbSymbolTableRecord
100
AcDbLinetypeTableRecord
2
BYBLOCK
70
0
0
LTYPE
5
15
100
AcDbSymbolTableRecord
100
AcDbLinetypeTableRecord
2
BYLAYER
70
0
0
ENDTAB
0
TABLE
2
LAYER
5
2
100
AcDbSymbolTable
70
2
0
LAYER
5
50
100
AcDbSymbolTableRecord
100
AcDbLayerTableRecord
2
0
70
0
6
CONTINUOUS
0
ENDTAB
0
TABLE
2
STYLE
5
3
100
AcDbSymbolTable
70
1
0
STYLE
5
11
100
AcDbSymbolTableRecord
100
AcDbTextStyleTableRecord
2
STANDARD
70
0
0
ENDTAB
0
TABLE
2
VIEW
5
6
100
AcDbSymbolTable
70
0
0
ENDTAB
0
TABLE
2
UCS
5
7
100
AcDbSymbolTable
70
0
0
ENDTAB
0
TABLE
2
APPID
5
9
100
AcDbSymbolTable
70
2
0
APPID
5
12
100
AcDbSymbolTableRecord
100
AcDbRegAppTableRecord
2
ACAD
70
0
0
ENDTAB
0
TABLE
2
DIMSTYLE
5
A
100
AcDbSymbolTable
70
1
0
ENDTAB
0
TABLE
2
BLOCK_RECORD
5
1
100
AcDbSymbolTable
70
1
0
BLOCK_RECORD
5
1F
100
AcDbSymbolTableRecord
100
AcDbBlockTableRecord
2
*MODEL_SPACE
0
BLOCK_RECORD
5
1B
100
AcDbSymbolTableRecord
100
AcDbBlockTableRecord
2
*PAPER_SPACE
0
ENDTAB
0
ENDSEC
0
SECTION
2
BLOCKS
0
BLOCK
5
20
100
AcDbEntity
100
AcDbBlockBegin
2
*MODEL_SPACE
0
ENDBLK
5
21
100
AcDbEntity
100
AcDbBlockEnd
0
BLOCK
5
1C
100
AcDbEntity
100
AcDbBlockBegin
2
*PAPER_SPACE
0
ENDBLK
5
1D
100
AcDbEntity
100
AcDbBlockEnd
0
ENDSEC
0
SECTION
2
ENTITIES
0
LWPOLYLINE
5
100
100
AcDbEntity
8
0
100
AcDbPolyline
90
8
70
1
43
0.0
10
-35.949999999999989
20
-37.999999992549341
10
-35.949999999999989
20
-41.999999992549334
42
0.4142135623730957
10
-33.949999999999989
20
-43.999999992549334
10
52.050000000000011
20
-43.999999992549334
42
0.41421356237309509
10
54.050000000000011
20
-41.999999992549334
10
54.050000000000018
20
-37.999999992549341
42
0.41421356237309509
10
52.050000000000018
20
-35.999999992549341
10
-33.949999999999996
20
-35.999999992549341
42
0.41421356237309437
0
LWPOLYLINE
5
101
100
AcDbEntity
8
0
100
AcDbPolyline
90
8
70
1
43
0.0
10
-35.949999999999989
20
-53.999999992549334
10
-35.949999999999989
20
-57.999999992549327
42
0.4142135623730957
10
-33.949999999999989
20
-59.999999992549327
10
52.050000000000011
20
-59.999999992549327
42
0.41421356237309509
10
54.050000000000011
20
-57.999999992549327
10
54.050000000000018
20
-53.999999992549334
42
0.41421356237309509
10
52.050000000000018
20
-51.999999992549334
10
-33.949999999999996
20
-51.999999992549334
42
0.41421356237309437
0
LWPOLYLINE
5
102
100
AcDbEntity
8
0
100
AcDbPolyline
90
8
70
1
43
0.0
10
-35.949999999999989
20
-21.999999992549348
10
-35.949999999999989
20
-25.999999992549338
42
0.4142135623730957
10
-33.949999999999989
20
-27.999999992549341
10
52.050000000000011
20
-27.999999992549334
42
0.41421356237309509
10
54.050000000000011
20
-25.999999992549334
10
54.050000000000018
20
-21.999999992549348
42
0.41421356237309509
10
52.050000000000018
20
-19.999999992549348
10
-33.949999999999996
20
-19.999999992549348
42
0.41421356237309437
0
LWPOLYLINE
5
103
100
AcDbEntity
8
0
100
AcDbPolyline
90
8
70
1
43
0.0
10
-35.949999999999989
20
-69.999999992549334
10
-35.949999999999989
20
-73.99999999254932
42
0.4142135623730957
10
-33.949999999999989
20
-75.99999999254932
10
52.050000000000011
20
-75.99999999254932
42
0.41421356237309509
10
54.050000000000011
20
-73.99999999254932
10
54.050000000000018
20
-69.999999992549334
42
0.41421356237309509
10
52.050000000000018
20
-67.999999992549334
10
-33.949999999999996
20
-67.999999992549334
42
0.41421356237309437
0
LWPOLYLINE
5
104
100
AcDbEntity
8
0
100
AcDbPolyline
90
28
70
1
43
0.0
10
31.704988841958546
20
-2.9999999925493404
10
78.100000000000009
20
-2.9999999925493359
10
78.100000000000009
20
-32.999999992549334
10
73.100000000000009
20
-32.999999992549334
10
73.100000000000009
20
-62.999999992549334
10
78.100000000000009
20
-62.999999992549334
10
78.100000000000009
20
-92.999999992549348
10
31.704988841958546
20
-92.999999992549363
10
31.704988841958546
20
-97.999999992549363
10
6.7049888419585457
20
-97.999999992549363
10
6.7049888419585457
20
-92.999999992549363
10
-13.295011158041463
20
-92.999999992549363
10
-13.295011158041463
20
-97.999999992549363
10
-33.295011158041461
20
-97.999999992549363
10
-33.295011158041461
20
-92.999999992549348
10
-60
20
-92.999999992549334
10
-59.999999999999986
20
-62.999999992549334
10
-54.999999999999972
20
-62.999999992549334
10
-54.999999999999972
20
-32.999999992549334
10
-59.999999999999986
20
-32.999999992549334
10
-60
20
-2.9999999925493448
10
-33.295011158041461
20
-2.9999999925493404
10
-33.295011158041461
20
2.0000000074506579
10
-13.295011158041463
20
2.0000000074506579
10
-13.295011158041463
20
-2.9999999925493404
10
6.7049888419585457
20
-2.9999999925493404
10
6.7049888419585457
20
2.0000000074506579
10
31.704988841958546
20
2.0000000074506579
0
ENDSEC
0
SECTION
2
OBJECTS
0
DICTIONARY
5
C
100
AcDbDictionary
3
ACAD_GROUP
350
D
3
ACAD_MLINESTYLE
350
17
0
DICTIONARY
5
D
100
AcDbDictionary
0
DICTIONARY
5
1A
330
C
100
AcDbDictionary
0
DICTIONARY
5
17
100
AcDbDictionary
0
ENDSEC
0
EOF
