G75*
%MOIN*%
%OFA0B0*%
%FSLAX24Y24*%
%IPPOS*%
%LPD*%
%AMOC8*
5,1,8,0,0,1.08239X$1,22.5*
%
%ADD10C,0.0000*%
%ADD11C,0.0040*%
%ADD12C,0.0120*%
%ADD13C,0.0100*%
%ADD14C,0.0050*%
%ADD15C,0.0060*%
%ADD16C,0.0080*%
D10*
X001306Y002003D02*
X001306Y030743D01*
X032408Y030743D01*
X032408Y002003D01*
X001306Y002003D01*
X001857Y003184D02*
X001859Y003234D01*
X001865Y003284D01*
X001875Y003333D01*
X001889Y003381D01*
X001906Y003428D01*
X001927Y003473D01*
X001952Y003517D01*
X001980Y003558D01*
X002012Y003597D01*
X002046Y003634D01*
X002083Y003668D01*
X002123Y003698D01*
X002165Y003725D01*
X002209Y003749D01*
X002255Y003770D01*
X002302Y003786D01*
X002350Y003799D01*
X002400Y003808D01*
X002449Y003813D01*
X002500Y003814D01*
X002550Y003811D01*
X002599Y003804D01*
X002648Y003793D01*
X002696Y003778D01*
X002742Y003760D01*
X002787Y003738D01*
X002830Y003712D01*
X002871Y003683D01*
X002910Y003651D01*
X002946Y003616D01*
X002978Y003578D01*
X003008Y003538D01*
X003035Y003495D01*
X003058Y003451D01*
X003077Y003405D01*
X003093Y003357D01*
X003105Y003308D01*
X003113Y003259D01*
X003117Y003209D01*
X003117Y003159D01*
X003113Y003109D01*
X003105Y003060D01*
X003093Y003011D01*
X003077Y002963D01*
X003058Y002917D01*
X003035Y002873D01*
X003008Y002830D01*
X002978Y002790D01*
X002946Y002752D01*
X002910Y002717D01*
X002871Y002685D01*
X002830Y002656D01*
X002787Y002630D01*
X002742Y002608D01*
X002696Y002590D01*
X002648Y002575D01*
X002599Y002564D01*
X002550Y002557D01*
X002500Y002554D01*
X002449Y002555D01*
X002400Y002560D01*
X002350Y002569D01*
X002302Y002582D01*
X002255Y002598D01*
X002209Y002619D01*
X002165Y002643D01*
X002123Y002670D01*
X002083Y002700D01*
X002046Y002734D01*
X002012Y002771D01*
X001980Y002810D01*
X001952Y002851D01*
X001927Y002895D01*
X001906Y002940D01*
X001889Y002987D01*
X001875Y003035D01*
X001865Y003084D01*
X001859Y003134D01*
X001857Y003184D01*
X002782Y012633D02*
X002784Y012672D01*
X002790Y012711D01*
X002800Y012749D01*
X002813Y012786D01*
X002830Y012821D01*
X002850Y012855D01*
X002874Y012886D01*
X002901Y012915D01*
X002930Y012941D01*
X002962Y012964D01*
X002996Y012984D01*
X003032Y013000D01*
X003069Y013012D01*
X003108Y013021D01*
X003147Y013026D01*
X003186Y013027D01*
X003225Y013024D01*
X003264Y013017D01*
X003301Y013006D01*
X003338Y012992D01*
X003373Y012974D01*
X003406Y012953D01*
X003437Y012928D01*
X003465Y012901D01*
X003490Y012871D01*
X003512Y012838D01*
X003531Y012804D01*
X003546Y012768D01*
X003558Y012730D01*
X003566Y012692D01*
X003570Y012653D01*
X003570Y012613D01*
X003566Y012574D01*
X003558Y012536D01*
X003546Y012498D01*
X003531Y012462D01*
X003512Y012428D01*
X003490Y012395D01*
X003465Y012365D01*
X003437Y012338D01*
X003406Y012313D01*
X003373Y012292D01*
X003338Y012274D01*
X003301Y012260D01*
X003264Y012249D01*
X003225Y012242D01*
X003186Y012239D01*
X003147Y012240D01*
X003108Y012245D01*
X003069Y012254D01*
X003032Y012266D01*
X002996Y012282D01*
X002962Y012302D01*
X002930Y012325D01*
X002901Y012351D01*
X002874Y012380D01*
X002850Y012411D01*
X002830Y012445D01*
X002813Y012480D01*
X002800Y012517D01*
X002790Y012555D01*
X002784Y012594D01*
X002782Y012633D01*
X002782Y014602D02*
X002784Y014641D01*
X002790Y014680D01*
X002800Y014718D01*
X002813Y014755D01*
X002830Y014790D01*
X002850Y014824D01*
X002874Y014855D01*
X002901Y014884D01*
X002930Y014910D01*
X002962Y014933D01*
X002996Y014953D01*
X003032Y014969D01*
X003069Y014981D01*
X003108Y014990D01*
X003147Y014995D01*
X003186Y014996D01*
X003225Y014993D01*
X003264Y014986D01*
X003301Y014975D01*
X003338Y014961D01*
X003373Y014943D01*
X003406Y014922D01*
X003437Y014897D01*
X003465Y014870D01*
X003490Y014840D01*
X003512Y014807D01*
X003531Y014773D01*
X003546Y014737D01*
X003558Y014699D01*
X003566Y014661D01*
X003570Y014622D01*
X003570Y014582D01*
X003566Y014543D01*
X003558Y014505D01*
X003546Y014467D01*
X003531Y014431D01*
X003512Y014397D01*
X003490Y014364D01*
X003465Y014334D01*
X003437Y014307D01*
X003406Y014282D01*
X003373Y014261D01*
X003338Y014243D01*
X003301Y014229D01*
X003264Y014218D01*
X003225Y014211D01*
X003186Y014208D01*
X003147Y014209D01*
X003108Y014214D01*
X003069Y014223D01*
X003032Y014235D01*
X002996Y014251D01*
X002962Y014271D01*
X002930Y014294D01*
X002901Y014320D01*
X002874Y014349D01*
X002850Y014380D01*
X002830Y014414D01*
X002813Y014449D01*
X002800Y014486D01*
X002790Y014524D01*
X002784Y014563D01*
X002782Y014602D01*
X001857Y029562D02*
X001859Y029612D01*
X001865Y029662D01*
X001875Y029711D01*
X001889Y029759D01*
X001906Y029806D01*
X001927Y029851D01*
X001952Y029895D01*
X001980Y029936D01*
X002012Y029975D01*
X002046Y030012D01*
X002083Y030046D01*
X002123Y030076D01*
X002165Y030103D01*
X002209Y030127D01*
X002255Y030148D01*
X002302Y030164D01*
X002350Y030177D01*
X002400Y030186D01*
X002449Y030191D01*
X002500Y030192D01*
X002550Y030189D01*
X002599Y030182D01*
X002648Y030171D01*
X002696Y030156D01*
X002742Y030138D01*
X002787Y030116D01*
X002830Y030090D01*
X002871Y030061D01*
X002910Y030029D01*
X002946Y029994D01*
X002978Y029956D01*
X003008Y029916D01*
X003035Y029873D01*
X003058Y029829D01*
X003077Y029783D01*
X003093Y029735D01*
X003105Y029686D01*
X003113Y029637D01*
X003117Y029587D01*
X003117Y029537D01*
X003113Y029487D01*
X003105Y029438D01*
X003093Y029389D01*
X003077Y029341D01*
X003058Y029295D01*
X003035Y029251D01*
X003008Y029208D01*
X002978Y029168D01*
X002946Y029130D01*
X002910Y029095D01*
X002871Y029063D01*
X002830Y029034D01*
X002787Y029008D01*
X002742Y028986D01*
X002696Y028968D01*
X002648Y028953D01*
X002599Y028942D01*
X002550Y028935D01*
X002500Y028932D01*
X002449Y028933D01*
X002400Y028938D01*
X002350Y028947D01*
X002302Y028960D01*
X002255Y028976D01*
X002209Y028997D01*
X002165Y029021D01*
X002123Y029048D01*
X002083Y029078D01*
X002046Y029112D01*
X002012Y029149D01*
X001980Y029188D01*
X001952Y029229D01*
X001927Y029273D01*
X001906Y029318D01*
X001889Y029365D01*
X001875Y029413D01*
X001865Y029462D01*
X001859Y029512D01*
X001857Y029562D01*
X030597Y029562D02*
X030599Y029612D01*
X030605Y029662D01*
X030615Y029711D01*
X030629Y029759D01*
X030646Y029806D01*
X030667Y029851D01*
X030692Y029895D01*
X030720Y029936D01*
X030752Y029975D01*
X030786Y030012D01*
X030823Y030046D01*
X030863Y030076D01*
X030905Y030103D01*
X030949Y030127D01*
X030995Y030148D01*
X031042Y030164D01*
X031090Y030177D01*
X031140Y030186D01*
X031189Y030191D01*
X031240Y030192D01*
X031290Y030189D01*
X031339Y030182D01*
X031388Y030171D01*
X031436Y030156D01*
X031482Y030138D01*
X031527Y030116D01*
X031570Y030090D01*
X031611Y030061D01*
X031650Y030029D01*
X031686Y029994D01*
X031718Y029956D01*
X031748Y029916D01*
X031775Y029873D01*
X031798Y029829D01*
X031817Y029783D01*
X031833Y029735D01*
X031845Y029686D01*
X031853Y029637D01*
X031857Y029587D01*
X031857Y029537D01*
X031853Y029487D01*
X031845Y029438D01*
X031833Y029389D01*
X031817Y029341D01*
X031798Y029295D01*
X031775Y029251D01*
X031748Y029208D01*
X031718Y029168D01*
X031686Y029130D01*
X031650Y029095D01*
X031611Y029063D01*
X031570Y029034D01*
X031527Y029008D01*
X031482Y028986D01*
X031436Y028968D01*
X031388Y028953D01*
X031339Y028942D01*
X031290Y028935D01*
X031240Y028932D01*
X031189Y028933D01*
X031140Y028938D01*
X031090Y028947D01*
X031042Y028960D01*
X030995Y028976D01*
X030949Y028997D01*
X030905Y029021D01*
X030863Y029048D01*
X030823Y029078D01*
X030786Y029112D01*
X030752Y029149D01*
X030720Y029188D01*
X030692Y029229D01*
X030667Y029273D01*
X030646Y029318D01*
X030629Y029365D01*
X030615Y029413D01*
X030605Y029462D01*
X030599Y029512D01*
X030597Y029562D01*
X030597Y003184D02*
X030599Y003234D01*
X030605Y003284D01*
X030615Y003333D01*
X030629Y003381D01*
X030646Y003428D01*
X030667Y003473D01*
X030692Y003517D01*
X030720Y003558D01*
X030752Y003597D01*
X030786Y003634D01*
X030823Y003668D01*
X030863Y003698D01*
X030905Y003725D01*
X030949Y003749D01*
X030995Y003770D01*
X031042Y003786D01*
X031090Y003799D01*
X031140Y003808D01*
X031189Y003813D01*
X031240Y003814D01*
X031290Y003811D01*
X031339Y003804D01*
X031388Y003793D01*
X031436Y003778D01*
X031482Y003760D01*
X031527Y003738D01*
X031570Y003712D01*
X031611Y003683D01*
X031650Y003651D01*
X031686Y003616D01*
X031718Y003578D01*
X031748Y003538D01*
X031775Y003495D01*
X031798Y003451D01*
X031817Y003405D01*
X031833Y003357D01*
X031845Y003308D01*
X031853Y003259D01*
X031857Y003209D01*
X031857Y003159D01*
X031853Y003109D01*
X031845Y003060D01*
X031833Y003011D01*
X031817Y002963D01*
X031798Y002917D01*
X031775Y002873D01*
X031748Y002830D01*
X031718Y002790D01*
X031686Y002752D01*
X031650Y002717D01*
X031611Y002685D01*
X031570Y002656D01*
X031527Y002630D01*
X031482Y002608D01*
X031436Y002590D01*
X031388Y002575D01*
X031339Y002564D01*
X031290Y002557D01*
X031240Y002554D01*
X031189Y002555D01*
X031140Y002560D01*
X031090Y002569D01*
X031042Y002582D01*
X030995Y002598D01*
X030949Y002619D01*
X030905Y002643D01*
X030863Y002670D01*
X030823Y002700D01*
X030786Y002734D01*
X030752Y002771D01*
X030720Y002810D01*
X030692Y002851D01*
X030667Y002895D01*
X030646Y002940D01*
X030629Y002987D01*
X030615Y003035D01*
X030605Y003084D01*
X030599Y003134D01*
X030597Y003184D01*
D11*
X030736Y003813D02*
X030889Y003813D01*
X030966Y003890D01*
X031119Y003813D02*
X031273Y003967D01*
X031196Y003967D02*
X031426Y003967D01*
X031426Y003813D02*
X031426Y004274D01*
X031196Y004274D01*
X031119Y004197D01*
X031119Y004044D01*
X031196Y003967D01*
X030966Y004120D02*
X030889Y004044D01*
X030736Y004044D01*
X030659Y003967D01*
X030659Y003890D01*
X030736Y003813D01*
X030966Y004120D02*
X030966Y004197D01*
X030889Y004274D01*
X030736Y004274D01*
X030659Y004197D01*
X030505Y004274D02*
X030198Y004274D01*
X030352Y004274D02*
X030352Y003813D01*
X028896Y003813D02*
X028896Y004274D01*
X028743Y004120D01*
X028589Y004274D01*
X028589Y003813D01*
X028436Y003890D02*
X028359Y003813D01*
X028206Y003813D01*
X028129Y003890D01*
X028129Y004197D01*
X028206Y004274D01*
X028359Y004274D01*
X028436Y004197D01*
X028436Y003890D01*
X027975Y003813D02*
X027745Y003813D01*
X027668Y003890D01*
X027668Y004197D01*
X027745Y004274D01*
X027975Y004274D01*
X027975Y003813D01*
X027515Y003813D02*
X027208Y003813D01*
X027361Y004044D02*
X027515Y004044D01*
X027515Y004274D02*
X027208Y004274D01*
X027515Y004274D02*
X027515Y003813D01*
X025706Y007963D02*
X025706Y008424D01*
X025476Y008424D01*
X025399Y008347D01*
X025399Y008194D01*
X025476Y008117D01*
X025706Y008117D01*
X025553Y008117D02*
X025399Y007963D01*
X024706Y007963D02*
X024706Y008424D01*
X024553Y008270D01*
X024399Y008424D01*
X024399Y007963D01*
X023626Y007963D02*
X023473Y007963D01*
X023549Y007963D02*
X023549Y008424D01*
X023473Y008424D02*
X023626Y008424D01*
X023319Y008347D02*
X023319Y008040D01*
X023242Y007963D01*
X023089Y007963D01*
X023012Y008040D01*
X023012Y008347D01*
X023089Y008424D01*
X023242Y008424D01*
X023319Y008347D01*
X022859Y008347D02*
X022782Y008424D01*
X022629Y008424D01*
X022552Y008347D01*
X022859Y008040D01*
X022782Y007963D01*
X022629Y007963D01*
X022552Y008040D01*
X022552Y008347D01*
X022859Y008347D02*
X022859Y008040D01*
X022026Y008040D02*
X021949Y007963D01*
X021796Y007963D01*
X021719Y008040D01*
X021719Y008117D01*
X021796Y008194D01*
X021949Y008194D01*
X022026Y008270D01*
X022026Y008347D01*
X021949Y008424D01*
X021796Y008424D01*
X021719Y008347D01*
X021566Y008424D02*
X021259Y008424D01*
X021105Y008424D02*
X020875Y008424D01*
X020798Y008347D01*
X020798Y008194D01*
X020875Y008117D01*
X021105Y008117D01*
X020952Y008117D02*
X020798Y007963D01*
X020645Y007963D02*
X020491Y007963D01*
X020568Y007963D02*
X020568Y008424D01*
X020645Y008424D02*
X020491Y008424D01*
X020338Y008270D02*
X020185Y008424D01*
X020031Y008270D01*
X020031Y007963D01*
X019878Y007963D02*
X019571Y007963D01*
X019417Y008040D02*
X019340Y007963D01*
X019187Y007963D01*
X019110Y008040D01*
X019110Y008117D01*
X019187Y008194D01*
X019417Y008194D01*
X019417Y008040D01*
X019417Y008194D02*
X019264Y008347D01*
X019110Y008424D01*
X019878Y008424D02*
X019878Y007963D01*
X020031Y008194D02*
X020338Y008194D01*
X020338Y008270D02*
X020338Y007963D01*
X021105Y007963D02*
X021105Y008424D01*
X021412Y008194D02*
X021566Y008194D01*
X021566Y008424D02*
X021566Y007963D01*
X021259Y007963D01*
X021398Y011083D02*
X021091Y011083D01*
X020937Y011314D02*
X020630Y011314D01*
X020707Y011544D02*
X020937Y011314D01*
X020707Y011083D02*
X020707Y011544D01*
X020605Y011883D02*
X020528Y011883D01*
X020528Y011960D01*
X020605Y011960D01*
X020605Y011883D01*
X020758Y011960D02*
X020758Y012114D01*
X020835Y012190D01*
X021065Y012190D01*
X021219Y012190D02*
X021219Y011883D01*
X021449Y011883D01*
X021525Y011960D01*
X021525Y012190D01*
X021679Y012114D02*
X021679Y011883D01*
X021679Y012114D02*
X021756Y012190D01*
X021909Y012190D01*
X021986Y012114D01*
X022139Y012190D02*
X022293Y012190D01*
X022216Y012267D02*
X022216Y011960D01*
X022139Y011883D01*
X021986Y011883D02*
X021986Y012344D01*
X022446Y011883D02*
X022600Y011883D01*
X022523Y011883D02*
X022523Y012190D01*
X022600Y012190D01*
X022753Y012190D02*
X022983Y012190D01*
X023060Y012114D01*
X023060Y011960D01*
X022983Y011883D01*
X022753Y011883D01*
X022753Y011807D02*
X022753Y012190D01*
X022523Y012344D02*
X022523Y012420D01*
X022753Y011807D02*
X022830Y011730D01*
X022907Y011730D01*
X022779Y011544D02*
X023086Y011544D01*
X023086Y011083D01*
X022779Y011083D01*
X022625Y011083D02*
X022625Y011544D01*
X022395Y011544D01*
X022318Y011467D01*
X022318Y011314D01*
X022395Y011237D01*
X022625Y011237D01*
X022472Y011237D02*
X022318Y011083D01*
X022165Y011083D02*
X022011Y011083D01*
X022088Y011083D02*
X022088Y011544D01*
X022165Y011544D02*
X022011Y011544D01*
X021858Y011390D02*
X021705Y011544D01*
X021551Y011390D01*
X021551Y011083D01*
X021398Y011083D02*
X021398Y011544D01*
X021551Y011314D02*
X021858Y011314D01*
X021858Y011390D02*
X021858Y011083D01*
X022932Y011314D02*
X023086Y011314D01*
X023239Y011237D02*
X023239Y011160D01*
X023316Y011083D01*
X023469Y011083D01*
X023546Y011160D01*
X023469Y011314D02*
X023316Y011314D01*
X023239Y011237D01*
X023239Y011467D02*
X023316Y011544D01*
X023469Y011544D01*
X023546Y011467D01*
X023546Y011390D01*
X023469Y011314D01*
X023520Y011883D02*
X023214Y012344D01*
X023674Y012344D02*
X023981Y011883D01*
X024134Y011883D02*
X024211Y011883D01*
X024211Y011960D01*
X024134Y011960D01*
X024134Y011883D01*
X024134Y012114D02*
X024211Y012114D01*
X024211Y012190D01*
X024134Y012190D01*
X024134Y012114D01*
X024365Y012190D02*
X024595Y012190D01*
X024671Y012114D01*
X024595Y012037D01*
X024441Y012037D01*
X024365Y011960D01*
X024441Y011883D01*
X024671Y011883D01*
X024825Y011960D02*
X024902Y011883D01*
X025132Y011883D01*
X025132Y011730D02*
X025132Y012190D01*
X024902Y012190D01*
X024825Y012114D01*
X024825Y011960D01*
X025285Y011883D02*
X025362Y011960D01*
X025362Y012267D01*
X025439Y012190D02*
X025285Y012190D01*
X025592Y012190D02*
X025746Y012190D01*
X025669Y012267D02*
X025669Y011960D01*
X025592Y011883D01*
X025899Y011883D02*
X025899Y012114D01*
X025976Y012190D01*
X026129Y012190D01*
X026206Y012114D01*
X026206Y012344D02*
X026206Y011883D01*
X021065Y011883D02*
X020835Y011883D01*
X020758Y011960D01*
X021065Y011883D02*
X021065Y012344D01*
X020374Y012114D02*
X020374Y011960D01*
X020298Y011883D01*
X020068Y011883D01*
X019914Y011960D02*
X019837Y011883D01*
X019684Y011883D01*
X019607Y011960D01*
X019607Y012114D01*
X019684Y012190D01*
X019837Y012190D01*
X019914Y012114D01*
X019914Y011960D01*
X020068Y012190D02*
X020298Y012190D01*
X020374Y012114D01*
X019454Y012190D02*
X019377Y012190D01*
X019300Y012114D01*
X019223Y012190D01*
X019147Y012114D01*
X019147Y011883D01*
X019300Y011883D02*
X019300Y012114D01*
X019454Y012190D02*
X019454Y011883D01*
X018993Y011883D02*
X018686Y012344D01*
X018533Y012344D02*
X018533Y011883D01*
X018533Y012114D02*
X018456Y012190D01*
X018303Y012190D01*
X018226Y012114D01*
X018226Y011883D01*
X018073Y011883D02*
X017919Y011883D01*
X017996Y011883D02*
X017996Y012190D01*
X018073Y012190D01*
X017996Y012344D02*
X017996Y012420D01*
X017766Y012114D02*
X017689Y012190D01*
X017459Y012190D01*
X017535Y012037D02*
X017689Y012037D01*
X017766Y012114D01*
X017766Y011883D02*
X017535Y011883D01*
X017459Y011960D01*
X017535Y012037D01*
X017305Y011960D02*
X017228Y012037D01*
X016998Y012037D01*
X016998Y012114D02*
X016998Y011883D01*
X017228Y011883D01*
X017305Y011960D01*
X017228Y012190D02*
X017075Y012190D01*
X016998Y012114D01*
X016845Y012114D02*
X016768Y012190D01*
X016538Y012190D01*
X016615Y012037D02*
X016768Y012037D01*
X016845Y012114D01*
X016845Y011883D02*
X016615Y011883D01*
X016538Y011960D01*
X016615Y012037D01*
X016384Y012114D02*
X016308Y012190D01*
X016154Y012190D01*
X016077Y012114D01*
X016077Y011883D01*
X015924Y011883D02*
X015771Y011883D01*
X015847Y011883D02*
X015847Y012190D01*
X015924Y012190D01*
X015847Y012344D02*
X015847Y012420D01*
X015617Y012190D02*
X015387Y012190D01*
X015310Y012114D01*
X015310Y011883D01*
X015157Y011883D02*
X014850Y012344D01*
X014696Y012344D02*
X014389Y011883D01*
X014389Y012344D01*
X014236Y012190D02*
X014159Y012190D01*
X014159Y011883D01*
X014236Y011883D02*
X014082Y011883D01*
X013929Y011883D02*
X013929Y012190D01*
X013699Y012190D01*
X013622Y012114D01*
X013622Y011883D01*
X013469Y011730D02*
X013392Y011730D01*
X013315Y011807D01*
X013315Y012190D01*
X013315Y012344D02*
X013315Y012420D01*
X013085Y012190D02*
X012931Y012190D01*
X012855Y012114D01*
X012855Y011883D01*
X013085Y011883D01*
X013162Y011960D01*
X013085Y012037D01*
X012855Y012037D01*
X012701Y012037D02*
X012471Y012037D01*
X012394Y012114D01*
X012394Y012267D01*
X012471Y012344D01*
X012701Y012344D01*
X012701Y011883D01*
X012241Y011960D02*
X012241Y012267D01*
X012164Y012344D01*
X012011Y012344D01*
X011934Y012267D01*
X011780Y012344D02*
X011550Y012344D01*
X011474Y012267D01*
X011474Y012114D01*
X011550Y012037D01*
X011780Y012037D01*
X011627Y012037D02*
X011474Y011883D01*
X011780Y011883D02*
X011780Y012344D01*
X011934Y011960D02*
X012011Y011883D01*
X012164Y011883D01*
X012241Y011960D01*
X014159Y012344D02*
X014159Y012420D01*
X014696Y012344D02*
X014696Y011883D01*
X015617Y011883D02*
X015617Y012190D01*
X016384Y012344D02*
X016384Y011883D01*
X011096Y006790D02*
X010943Y006944D01*
X010789Y006790D01*
X010789Y006483D01*
X010789Y006714D02*
X011096Y006714D01*
X011096Y006790D02*
X011096Y006483D01*
X010482Y006483D02*
X010482Y006944D01*
X010329Y006944D02*
X010636Y006944D01*
X010175Y006944D02*
X009868Y006483D01*
X010175Y006483D02*
X009868Y006944D01*
D12*
X009822Y013013D02*
X010743Y013013D01*
X009822Y013934D01*
X009822Y014164D01*
X010052Y014395D01*
X010513Y014395D01*
X010743Y014164D01*
X011203Y013934D02*
X011434Y013934D01*
X011894Y013474D01*
X011894Y013934D02*
X011894Y013013D01*
X012354Y013474D02*
X013275Y013474D01*
X013275Y013244D02*
X013275Y013704D01*
X013045Y013934D01*
X012585Y013934D01*
X012354Y013704D01*
X012354Y013474D01*
X012585Y013013D02*
X013045Y013013D01*
X013275Y013244D01*
X013735Y013934D02*
X014196Y013013D01*
X014656Y013934D01*
X016498Y013934D02*
X016728Y013704D01*
X017419Y013704D01*
X017879Y013244D02*
X018109Y013013D01*
X018570Y013013D01*
X018800Y013244D01*
X018800Y014164D01*
X018570Y014395D01*
X018109Y014395D01*
X017879Y014164D01*
X017419Y014395D02*
X016728Y014395D01*
X016498Y014164D01*
X016498Y013934D01*
X016728Y013704D02*
X016498Y013474D01*
X016498Y013244D01*
X016728Y013013D01*
X017419Y013013D01*
X017419Y014395D01*
X019260Y014164D02*
X019260Y013704D01*
X019490Y013474D01*
X020181Y013474D01*
X020181Y013013D02*
X020181Y014395D01*
X019490Y014395D01*
X019260Y014164D01*
X020641Y013704D02*
X020641Y013013D01*
X021332Y013013D01*
X021562Y013244D01*
X021332Y013474D01*
X020641Y013474D01*
X020641Y013704D02*
X020872Y013934D01*
X021332Y013934D01*
X022023Y013934D02*
X022023Y012783D01*
X022253Y012553D01*
X022483Y012553D01*
X022943Y013013D02*
X022943Y013704D01*
X023174Y013934D01*
X023864Y013934D01*
X023864Y013013D01*
X024325Y013013D02*
X024785Y013013D01*
X024555Y013013D02*
X024555Y013934D01*
X024785Y013934D01*
X024555Y014395D02*
X024555Y014625D01*
X025245Y014395D02*
X025245Y013013D01*
X026166Y014395D01*
X026166Y013013D01*
X022023Y014395D02*
X022023Y014625D01*
X009362Y013244D02*
X009362Y013013D01*
X009132Y013013D01*
X009132Y013244D01*
X009362Y013244D01*
X008671Y013013D02*
X007750Y013013D01*
X008211Y013013D02*
X008211Y014395D01*
X008671Y013934D01*
D13*
X005719Y006185D02*
X005719Y002406D01*
X025955Y002406D01*
X025955Y006185D01*
X005719Y006185D01*
X015168Y002485D02*
X015168Y001894D01*
X016507Y001894D01*
X016507Y002485D01*
D14*
X026857Y004917D02*
X029298Y004917D01*
X029298Y007358D01*
X026857Y007358D01*
X026857Y004917D01*
X029613Y004917D02*
X032054Y004917D01*
X032054Y007358D01*
X029613Y007358D01*
X029613Y004917D01*
X018827Y017682D02*
X018697Y017582D01*
X018037Y018052D01*
X017897Y017972D01*
X017757Y017902D01*
X017637Y017852D01*
X017167Y019202D01*
X017287Y019259D01*
X017397Y019333D01*
X017494Y019423D01*
X017576Y019528D01*
X017641Y019643D01*
X017687Y019768D01*
X017714Y019897D01*
X017720Y020030D01*
X017706Y020162D01*
X017672Y020290D01*
X017618Y020411D01*
X017546Y020523D01*
X017458Y020622D01*
X017356Y020706D01*
X017242Y020774D01*
X017119Y020823D01*
X016990Y020853D01*
X016857Y020862D01*
X016722Y020859D01*
X016590Y020835D01*
X016462Y020790D01*
X016344Y020727D01*
X016236Y020645D01*
X016143Y020547D01*
X016066Y020436D01*
X016008Y020315D01*
X015969Y020186D01*
X015951Y020052D01*
X015954Y019917D01*
X015978Y019785D01*
X016022Y019657D01*
X016086Y019538D01*
X016168Y019431D01*
X016265Y019338D01*
X016376Y019261D01*
X016497Y019202D01*
X015977Y017882D01*
X015847Y017942D01*
X015687Y018032D01*
X015567Y018112D01*
X014907Y017642D01*
X014737Y017792D01*
X014577Y017962D01*
X014467Y018092D01*
X014397Y018182D01*
X014867Y018862D01*
X014787Y019032D01*
X014717Y019222D01*
X014657Y019422D01*
X014627Y019542D01*
X013817Y019692D01*
X013817Y020022D01*
X013827Y020222D01*
X013847Y020432D01*
X014677Y020592D01*
X014737Y020802D01*
X014827Y020992D01*
X014887Y021102D01*
X014947Y021202D01*
X014477Y021862D01*
X014597Y022002D01*
X014707Y022132D01*
X014857Y022262D01*
X015027Y022412D01*
X015727Y021932D01*
X015847Y022002D01*
X016017Y022072D01*
X016177Y022132D01*
X016327Y022182D01*
X016457Y022982D01*
X016647Y023002D01*
X017057Y023002D01*
X017227Y022982D01*
X017267Y022752D01*
X017377Y022172D01*
X017567Y022112D01*
X017727Y022052D01*
X017887Y021972D01*
X018007Y021912D01*
X018677Y022392D01*
X018827Y022262D01*
X018957Y022142D01*
X019087Y022002D01*
X019217Y021862D01*
X018747Y021182D01*
X018847Y021032D01*
X018927Y020862D01*
X018987Y020702D01*
X019047Y020492D01*
X019857Y020372D01*
X019867Y020242D01*
X019867Y019792D01*
X019857Y019632D01*
X019047Y019482D01*
X019007Y019302D01*
X018947Y019152D01*
X018867Y018972D01*
X018757Y018762D01*
X019227Y018092D01*
X019107Y017952D01*
X018987Y017822D01*
X018827Y017682D01*
X018810Y017669D02*
X018576Y017669D01*
X018644Y017620D02*
X018747Y017620D01*
X018867Y017717D02*
X018507Y017717D01*
X018439Y017766D02*
X018923Y017766D01*
X018978Y017814D02*
X018371Y017814D01*
X018303Y017863D02*
X019025Y017863D01*
X019070Y017911D02*
X018235Y017911D01*
X018167Y017960D02*
X019114Y017960D01*
X019155Y018008D02*
X018099Y018008D01*
X017961Y018008D02*
X017583Y018008D01*
X017600Y017960D02*
X017873Y017960D01*
X017776Y017911D02*
X017617Y017911D01*
X017634Y017863D02*
X017663Y017863D01*
X017566Y018057D02*
X019197Y018057D01*
X019218Y018105D02*
X017549Y018105D01*
X017532Y018154D02*
X019184Y018154D01*
X019150Y018202D02*
X017515Y018202D01*
X017498Y018251D02*
X019116Y018251D01*
X019082Y018299D02*
X017482Y018299D01*
X017465Y018348D02*
X019048Y018348D01*
X019014Y018396D02*
X017448Y018396D01*
X017431Y018445D02*
X018980Y018445D01*
X018946Y018493D02*
X017414Y018493D01*
X017397Y018542D02*
X018912Y018542D01*
X018878Y018590D02*
X017380Y018590D01*
X017363Y018639D02*
X018844Y018639D01*
X018810Y018687D02*
X017347Y018687D01*
X017330Y018736D02*
X018776Y018736D01*
X018769Y018784D02*
X017313Y018784D01*
X017296Y018833D02*
X018794Y018833D01*
X018820Y018881D02*
X017279Y018881D01*
X017262Y018930D02*
X018845Y018930D01*
X018870Y018978D02*
X017245Y018978D01*
X017228Y019027D02*
X018892Y019027D01*
X018913Y019075D02*
X017211Y019075D01*
X017195Y019124D02*
X018935Y019124D01*
X018955Y019172D02*
X017178Y019172D01*
X017207Y019221D02*
X018975Y019221D01*
X018994Y019269D02*
X017303Y019269D01*
X017375Y019318D02*
X019011Y019318D01*
X019022Y019366D02*
X017433Y019366D01*
X017485Y019415D02*
X019032Y019415D01*
X019043Y019463D02*
X017526Y019463D01*
X017564Y019512D02*
X019208Y019512D01*
X019470Y019560D02*
X017594Y019560D01*
X017622Y019609D02*
X019731Y019609D01*
X019859Y019657D02*
X017646Y019657D01*
X017664Y019706D02*
X019862Y019706D01*
X019865Y019754D02*
X017682Y019754D01*
X017695Y019803D02*
X019867Y019803D01*
X019867Y019851D02*
X017704Y019851D01*
X017714Y019900D02*
X019867Y019900D01*
X019867Y019948D02*
X017716Y019948D01*
X017719Y019997D02*
X019867Y019997D01*
X019867Y020045D02*
X017719Y020045D01*
X017713Y020094D02*
X019867Y020094D01*
X019867Y020142D02*
X017708Y020142D01*
X017698Y020191D02*
X019867Y020191D01*
X019867Y020239D02*
X017685Y020239D01*
X017672Y020288D02*
X019864Y020288D01*
X019860Y020336D02*
X017651Y020336D01*
X017630Y020385D02*
X019772Y020385D01*
X019444Y020433D02*
X017604Y020433D01*
X017572Y020482D02*
X019117Y020482D01*
X019036Y020530D02*
X017539Y020530D01*
X017496Y020579D02*
X019023Y020579D01*
X019009Y020627D02*
X017451Y020627D01*
X017393Y020676D02*
X018995Y020676D01*
X018979Y020724D02*
X017325Y020724D01*
X017243Y020773D02*
X018961Y020773D01*
X018943Y020821D02*
X017123Y020821D01*
X016551Y020821D02*
X014746Y020821D01*
X014729Y020773D02*
X016430Y020773D01*
X016341Y020724D02*
X014715Y020724D01*
X014701Y020676D02*
X016277Y020676D01*
X016220Y020627D02*
X014687Y020627D01*
X014608Y020579D02*
X016173Y020579D01*
X016132Y020530D02*
X014357Y020530D01*
X014105Y020482D02*
X016098Y020482D01*
X016065Y020433D02*
X013853Y020433D01*
X013843Y020385D02*
X016042Y020385D01*
X016018Y020336D02*
X013838Y020336D01*
X013834Y020288D02*
X016000Y020288D01*
X015985Y020239D02*
X013829Y020239D01*
X013826Y020191D02*
X015971Y020191D01*
X015963Y020142D02*
X013823Y020142D01*
X013821Y020094D02*
X015957Y020094D01*
X015951Y020045D02*
X013818Y020045D01*
X013817Y019997D02*
X015952Y019997D01*
X015953Y019948D02*
X013817Y019948D01*
X013817Y019900D02*
X015957Y019900D01*
X015966Y019851D02*
X013817Y019851D01*
X013817Y019803D02*
X015975Y019803D01*
X015988Y019754D02*
X013817Y019754D01*
X013817Y019706D02*
X016005Y019706D01*
X016022Y019657D02*
X014005Y019657D01*
X014267Y019609D02*
X016048Y019609D01*
X016074Y019560D02*
X014529Y019560D01*
X014635Y019512D02*
X016106Y019512D01*
X016143Y019463D02*
X014647Y019463D01*
X014659Y019415D02*
X016185Y019415D01*
X016235Y019366D02*
X014674Y019366D01*
X014689Y019318D02*
X016294Y019318D01*
X016364Y019269D02*
X014703Y019269D01*
X014718Y019221D02*
X016459Y019221D01*
X016486Y019172D02*
X014736Y019172D01*
X014754Y019124D02*
X016466Y019124D01*
X016447Y019075D02*
X014771Y019075D01*
X014790Y019027D02*
X016428Y019027D01*
X016409Y018978D02*
X014813Y018978D01*
X014835Y018930D02*
X016390Y018930D01*
X016371Y018881D02*
X014858Y018881D01*
X014847Y018833D02*
X016352Y018833D01*
X016333Y018784D02*
X014814Y018784D01*
X014780Y018736D02*
X016314Y018736D01*
X016294Y018687D02*
X014746Y018687D01*
X014713Y018639D02*
X016275Y018639D01*
X016256Y018590D02*
X014679Y018590D01*
X014646Y018542D02*
X016237Y018542D01*
X016218Y018493D02*
X014612Y018493D01*
X014579Y018445D02*
X016199Y018445D01*
X016180Y018396D02*
X014545Y018396D01*
X014512Y018348D02*
X016161Y018348D01*
X016142Y018299D02*
X014478Y018299D01*
X014445Y018251D02*
X016123Y018251D01*
X016103Y018202D02*
X014411Y018202D01*
X014419Y018154D02*
X016084Y018154D01*
X016065Y018105D02*
X015578Y018105D01*
X015558Y018105D02*
X014457Y018105D01*
X014497Y018057D02*
X015490Y018057D01*
X015421Y018008D02*
X014538Y018008D01*
X014579Y017960D02*
X015353Y017960D01*
X015285Y017911D02*
X014625Y017911D01*
X014671Y017863D02*
X015217Y017863D01*
X015149Y017814D02*
X014716Y017814D01*
X014767Y017766D02*
X015081Y017766D01*
X015013Y017717D02*
X014822Y017717D01*
X014877Y017669D02*
X014945Y017669D01*
X015650Y018057D02*
X016046Y018057D01*
X016027Y018008D02*
X015730Y018008D01*
X015816Y017960D02*
X016008Y017960D01*
X015989Y017911D02*
X015914Y017911D01*
X014769Y020870D02*
X018924Y020870D01*
X018901Y020918D02*
X014792Y020918D01*
X014815Y020967D02*
X018878Y020967D01*
X018855Y021015D02*
X014840Y021015D01*
X014866Y021064D02*
X018826Y021064D01*
X018794Y021112D02*
X014893Y021112D01*
X014923Y021161D02*
X018761Y021161D01*
X018766Y021209D02*
X014942Y021209D01*
X014908Y021258D02*
X018800Y021258D01*
X018833Y021306D02*
X014873Y021306D01*
X014839Y021355D02*
X018867Y021355D01*
X018900Y021403D02*
X014804Y021403D01*
X014769Y021452D02*
X018934Y021452D01*
X018967Y021500D02*
X014735Y021500D01*
X014700Y021549D02*
X019001Y021549D01*
X019034Y021597D02*
X014666Y021597D01*
X014631Y021646D02*
X019068Y021646D01*
X019101Y021694D02*
X014597Y021694D01*
X014562Y021743D02*
X019135Y021743D01*
X019168Y021791D02*
X014528Y021791D01*
X014493Y021840D02*
X019202Y021840D01*
X019193Y021888D02*
X014500Y021888D01*
X014541Y021937D02*
X015720Y021937D01*
X015735Y021937D02*
X017958Y021937D01*
X018042Y021937D02*
X019148Y021937D01*
X019103Y021985D02*
X018109Y021985D01*
X018177Y022034D02*
X019058Y022034D01*
X019013Y022082D02*
X018245Y022082D01*
X018313Y022131D02*
X018968Y022131D01*
X018917Y022179D02*
X018380Y022179D01*
X018448Y022228D02*
X018864Y022228D01*
X018811Y022276D02*
X018516Y022276D01*
X018583Y022325D02*
X018755Y022325D01*
X018699Y022373D02*
X018651Y022373D01*
X017861Y021985D02*
X015818Y021985D01*
X015924Y022034D02*
X017764Y022034D01*
X017647Y022082D02*
X016044Y022082D01*
X016174Y022131D02*
X017508Y022131D01*
X017376Y022179D02*
X016319Y022179D01*
X016335Y022228D02*
X017367Y022228D01*
X017358Y022276D02*
X016343Y022276D01*
X016350Y022325D02*
X017348Y022325D01*
X017339Y022373D02*
X016358Y022373D01*
X016366Y022422D02*
X017330Y022422D01*
X017321Y022470D02*
X016374Y022470D01*
X016382Y022519D02*
X017312Y022519D01*
X017302Y022567D02*
X016390Y022567D01*
X016398Y022616D02*
X017293Y022616D01*
X017284Y022664D02*
X016406Y022664D01*
X016414Y022713D02*
X017275Y022713D01*
X017266Y022761D02*
X016421Y022761D01*
X016429Y022810D02*
X017257Y022810D01*
X017249Y022858D02*
X016437Y022858D01*
X016445Y022907D02*
X017240Y022907D01*
X017232Y022955D02*
X016453Y022955D01*
X015650Y021985D02*
X014583Y021985D01*
X014624Y022034D02*
X015579Y022034D01*
X015508Y022082D02*
X014665Y022082D01*
X014706Y022131D02*
X015438Y022131D01*
X015367Y022179D02*
X014762Y022179D01*
X014818Y022228D02*
X015296Y022228D01*
X015225Y022276D02*
X014873Y022276D01*
X014928Y022325D02*
X015155Y022325D01*
X015084Y022373D02*
X014983Y022373D01*
D15*
X019786Y010893D02*
X019536Y010643D01*
X019536Y010143D01*
X019786Y009893D01*
X020286Y009893D01*
X020536Y010143D01*
X020786Y009893D01*
X021286Y009893D01*
X021536Y010143D01*
X021786Y009893D01*
X022286Y009893D01*
X022536Y010143D01*
X022786Y009893D01*
X023286Y009893D01*
X023536Y010143D01*
X023536Y010643D01*
X023286Y010893D01*
X022786Y010893D01*
X022536Y010643D01*
X022286Y010893D01*
X021786Y010893D01*
X021536Y010643D01*
X021536Y010143D01*
X021536Y010643D02*
X021286Y010893D01*
X020786Y010893D01*
X020536Y010643D01*
X020286Y010893D01*
X019786Y010893D01*
X020536Y010643D02*
X020536Y010143D01*
X022536Y010143D02*
X022536Y010643D01*
X022286Y007693D02*
X022036Y007443D01*
X022036Y006943D01*
X022286Y006693D01*
X022786Y006693D01*
X023036Y006943D01*
X023286Y006693D01*
X023786Y006693D01*
X024036Y006943D01*
X024286Y006693D01*
X024786Y006693D01*
X025036Y006943D01*
X025286Y006693D01*
X025786Y006693D01*
X026036Y006943D01*
X026036Y007443D01*
X025786Y007693D01*
X025286Y007693D01*
X025036Y007443D01*
X024786Y007693D01*
X024286Y007693D01*
X024036Y007443D01*
X024036Y006943D01*
X024036Y007443D01*
X023786Y007693D01*
X023286Y007693D01*
X023036Y007443D01*
X022786Y007693D01*
X022286Y007693D01*
X022036Y007443D02*
X021786Y007693D01*
X021286Y007693D01*
X021036Y007443D01*
X020786Y007693D01*
X020286Y007693D01*
X020036Y007443D01*
X020036Y006943D01*
X020286Y006693D01*
X020786Y006693D01*
X021036Y006943D01*
X021286Y006693D01*
X021786Y006693D01*
X022036Y006943D01*
X022036Y007443D01*
X021036Y007443D02*
X021036Y006943D01*
X020036Y006943D02*
X019786Y006693D01*
X019286Y006693D01*
X019036Y006943D01*
X018786Y006693D01*
X018286Y006693D01*
X018036Y006943D01*
X017786Y006693D01*
X017286Y006693D01*
X017036Y006943D01*
X016786Y006693D01*
X016286Y006693D01*
X016036Y006943D01*
X016036Y007443D01*
X016286Y007693D01*
X016786Y007693D01*
X017036Y007443D01*
X017036Y006943D01*
X017036Y007443D02*
X017286Y007693D01*
X017786Y007693D01*
X018036Y007443D01*
X018036Y006943D01*
X018036Y007443D02*
X018286Y007693D01*
X018786Y007693D01*
X019036Y007443D01*
X019036Y006943D01*
X019036Y007443D02*
X019286Y007693D01*
X019786Y007693D01*
X020036Y007443D01*
X023036Y007443D02*
X023036Y006943D01*
X025036Y006943D02*
X025036Y007443D01*
D16*
X021101Y014762D02*
X021101Y015683D01*
X020947Y015376D02*
X020641Y015376D01*
X020487Y015223D01*
X020487Y014762D01*
X020180Y014916D02*
X020027Y015069D01*
X019566Y015069D01*
X019566Y015223D02*
X019566Y014762D01*
X020027Y014762D01*
X020180Y014916D01*
X020027Y015376D02*
X019720Y015376D01*
X019566Y015223D01*
X019259Y015376D02*
X019259Y014762D01*
X019259Y015069D02*
X018952Y015376D01*
X018799Y015376D01*
X018492Y015223D02*
X018492Y014916D01*
X018339Y014762D01*
X017878Y014762D01*
X017878Y015683D01*
X017878Y015376D02*
X018339Y015376D01*
X018492Y015223D01*
X017571Y015376D02*
X017571Y014916D01*
X017418Y014762D01*
X017264Y014916D01*
X017111Y014762D01*
X016957Y014916D01*
X016957Y015376D01*
X016650Y014916D02*
X016497Y015069D01*
X016037Y015069D01*
X016037Y015223D02*
X016037Y014762D01*
X016497Y014762D01*
X016650Y014916D01*
X016497Y015376D02*
X016190Y015376D01*
X016037Y015223D01*
X015730Y015376D02*
X015730Y014762D01*
X015730Y015069D02*
X015423Y015376D01*
X015269Y015376D01*
X014962Y015223D02*
X014962Y014916D01*
X014809Y014762D01*
X014502Y014762D01*
X014348Y015069D02*
X014962Y015069D01*
X014962Y015223D02*
X014809Y015376D01*
X014502Y015376D01*
X014348Y015223D01*
X014348Y015069D01*
X014195Y016262D02*
X014655Y016262D01*
X014809Y016416D01*
X014809Y016723D01*
X014655Y016876D01*
X014195Y016876D01*
X013888Y016723D02*
X013888Y016416D01*
X013735Y016262D01*
X013428Y016262D01*
X013274Y016569D02*
X013888Y016569D01*
X013888Y016723D02*
X013735Y016876D01*
X013428Y016876D01*
X013274Y016723D01*
X013274Y016569D01*
X015116Y016876D02*
X015269Y016876D01*
X015576Y016569D01*
X015576Y016262D02*
X015576Y016876D01*
X015883Y016876D02*
X015883Y016262D01*
X016344Y016262D01*
X016497Y016416D01*
X016497Y016876D01*
X016804Y016723D02*
X016804Y016416D01*
X016957Y016262D01*
X017264Y016262D01*
X017418Y016416D01*
X017418Y016723D01*
X017264Y016876D01*
X016957Y016876D01*
X016804Y016723D01*
X017725Y016876D02*
X018185Y016876D01*
X018339Y016723D01*
X018185Y016569D01*
X017878Y016569D01*
X017725Y016416D01*
X017878Y016262D01*
X018339Y016262D01*
X019566Y016262D02*
X019566Y016723D01*
X019720Y016876D01*
X020180Y016876D01*
X020180Y016262D01*
X020487Y016569D02*
X021101Y016569D01*
X021101Y016416D02*
X021101Y016723D01*
X020947Y016876D01*
X020641Y016876D01*
X020487Y016723D01*
X020487Y016569D01*
X020641Y016262D02*
X020947Y016262D01*
X021101Y016416D01*
X021408Y016416D02*
X021408Y016723D01*
X021561Y016876D01*
X022022Y016876D01*
X022022Y015955D01*
X022022Y016262D02*
X021561Y016262D01*
X021408Y016416D01*
X022329Y016416D02*
X022482Y016262D01*
X022789Y016262D01*
X022942Y016416D01*
X022942Y016723D01*
X022789Y016876D01*
X022482Y016876D01*
X022329Y016723D01*
X022329Y016416D01*
X021101Y015223D02*
X020947Y015376D01*
M02*
