G75*
%MOIN*%
%OFA0B0*%
%FSLAX24Y24*%
%IPPOS*%
%LPD*%
%AMOC8*
5,1,8,0,0,1.08239X$1,22.5*
%
%ADD10C,0.0000*%
%ADD11R,0.0500X0.0900*%
%ADD12R,0.1400X0.0850*%
%ADD13R,0.0450X0.0900*%
%ADD14R,0.0394X0.1850*%
%ADD15R,0.0472X0.0236*%
%ADD16C,0.0088*%
%ADD17R,0.0197X0.0394*%
%ADD18R,0.0709X0.0697*%
%ADD19R,0.0472X0.0787*%
%ADD20R,0.0787X0.0472*%
%ADD21R,0.0900X0.0450*%
%ADD22R,0.0433X0.0728*%
%ADD23R,0.1693X0.1693*%
%ADD24R,0.0450X0.0400*%
D10*
X001306Y002003D02*
X001306Y030743D01*
X032408Y030743D01*
X032408Y002003D01*
X001306Y002003D01*
X001857Y003184D02*
X001859Y003234D01*
X001865Y003284D01*
X001875Y003333D01*
X001889Y003381D01*
X001906Y003428D01*
X001927Y003473D01*
X001952Y003517D01*
X001980Y003558D01*
X002012Y003597D01*
X002046Y003634D01*
X002083Y003668D01*
X002123Y003698D01*
X002165Y003725D01*
X002209Y003749D01*
X002255Y003770D01*
X002302Y003786D01*
X002350Y003799D01*
X002400Y003808D01*
X002449Y003813D01*
X002500Y003814D01*
X002550Y003811D01*
X002599Y003804D01*
X002648Y003793D01*
X002696Y003778D01*
X002742Y003760D01*
X002787Y003738D01*
X002830Y003712D01*
X002871Y003683D01*
X002910Y003651D01*
X002946Y003616D01*
X002978Y003578D01*
X003008Y003538D01*
X003035Y003495D01*
X003058Y003451D01*
X003077Y003405D01*
X003093Y003357D01*
X003105Y003308D01*
X003113Y003259D01*
X003117Y003209D01*
X003117Y003159D01*
X003113Y003109D01*
X003105Y003060D01*
X003093Y003011D01*
X003077Y002963D01*
X003058Y002917D01*
X003035Y002873D01*
X003008Y002830D01*
X002978Y002790D01*
X002946Y002752D01*
X002910Y002717D01*
X002871Y002685D01*
X002830Y002656D01*
X002787Y002630D01*
X002742Y002608D01*
X002696Y002590D01*
X002648Y002575D01*
X002599Y002564D01*
X002550Y002557D01*
X002500Y002554D01*
X002449Y002555D01*
X002400Y002560D01*
X002350Y002569D01*
X002302Y002582D01*
X002255Y002598D01*
X002209Y002619D01*
X002165Y002643D01*
X002123Y002670D01*
X002083Y002700D01*
X002046Y002734D01*
X002012Y002771D01*
X001980Y002810D01*
X001952Y002851D01*
X001927Y002895D01*
X001906Y002940D01*
X001889Y002987D01*
X001875Y003035D01*
X001865Y003084D01*
X001859Y003134D01*
X001857Y003184D01*
X002782Y012633D02*
X002784Y012672D01*
X002790Y012711D01*
X002800Y012749D01*
X002813Y012786D01*
X002830Y012821D01*
X002850Y012855D01*
X002874Y012886D01*
X002901Y012915D01*
X002930Y012941D01*
X002962Y012964D01*
X002996Y012984D01*
X003032Y013000D01*
X003069Y013012D01*
X003108Y013021D01*
X003147Y013026D01*
X003186Y013027D01*
X003225Y013024D01*
X003264Y013017D01*
X003301Y013006D01*
X003338Y012992D01*
X003373Y012974D01*
X003406Y012953D01*
X003437Y012928D01*
X003465Y012901D01*
X003490Y012871D01*
X003512Y012838D01*
X003531Y012804D01*
X003546Y012768D01*
X003558Y012730D01*
X003566Y012692D01*
X003570Y012653D01*
X003570Y012613D01*
X003566Y012574D01*
X003558Y012536D01*
X003546Y012498D01*
X003531Y012462D01*
X003512Y012428D01*
X003490Y012395D01*
X003465Y012365D01*
X003437Y012338D01*
X003406Y012313D01*
X003373Y012292D01*
X003338Y012274D01*
X003301Y012260D01*
X003264Y012249D01*
X003225Y012242D01*
X003186Y012239D01*
X003147Y012240D01*
X003108Y012245D01*
X003069Y012254D01*
X003032Y012266D01*
X002996Y012282D01*
X002962Y012302D01*
X002930Y012325D01*
X002901Y012351D01*
X002874Y012380D01*
X002850Y012411D01*
X002830Y012445D01*
X002813Y012480D01*
X002800Y012517D01*
X002790Y012555D01*
X002784Y012594D01*
X002782Y012633D01*
X002782Y014602D02*
X002784Y014641D01*
X002790Y014680D01*
X002800Y014718D01*
X002813Y014755D01*
X002830Y014790D01*
X002850Y014824D01*
X002874Y014855D01*
X002901Y014884D01*
X002930Y014910D01*
X002962Y014933D01*
X002996Y014953D01*
X003032Y014969D01*
X003069Y014981D01*
X003108Y014990D01*
X003147Y014995D01*
X003186Y014996D01*
X003225Y014993D01*
X003264Y014986D01*
X003301Y014975D01*
X003338Y014961D01*
X003373Y014943D01*
X003406Y014922D01*
X003437Y014897D01*
X003465Y014870D01*
X003490Y014840D01*
X003512Y014807D01*
X003531Y014773D01*
X003546Y014737D01*
X003558Y014699D01*
X003566Y014661D01*
X003570Y014622D01*
X003570Y014582D01*
X003566Y014543D01*
X003558Y014505D01*
X003546Y014467D01*
X003531Y014431D01*
X003512Y014397D01*
X003490Y014364D01*
X003465Y014334D01*
X003437Y014307D01*
X003406Y014282D01*
X003373Y014261D01*
X003338Y014243D01*
X003301Y014229D01*
X003264Y014218D01*
X003225Y014211D01*
X003186Y014208D01*
X003147Y014209D01*
X003108Y014214D01*
X003069Y014223D01*
X003032Y014235D01*
X002996Y014251D01*
X002962Y014271D01*
X002930Y014294D01*
X002901Y014320D01*
X002874Y014349D01*
X002850Y014380D01*
X002830Y014414D01*
X002813Y014449D01*
X002800Y014486D01*
X002790Y014524D01*
X002784Y014563D01*
X002782Y014602D01*
X001857Y029562D02*
X001859Y029612D01*
X001865Y029662D01*
X001875Y029711D01*
X001889Y029759D01*
X001906Y029806D01*
X001927Y029851D01*
X001952Y029895D01*
X001980Y029936D01*
X002012Y029975D01*
X002046Y030012D01*
X002083Y030046D01*
X002123Y030076D01*
X002165Y030103D01*
X002209Y030127D01*
X002255Y030148D01*
X002302Y030164D01*
X002350Y030177D01*
X002400Y030186D01*
X002449Y030191D01*
X002500Y030192D01*
X002550Y030189D01*
X002599Y030182D01*
X002648Y030171D01*
X002696Y030156D01*
X002742Y030138D01*
X002787Y030116D01*
X002830Y030090D01*
X002871Y030061D01*
X002910Y030029D01*
X002946Y029994D01*
X002978Y029956D01*
X003008Y029916D01*
X003035Y029873D01*
X003058Y029829D01*
X003077Y029783D01*
X003093Y029735D01*
X003105Y029686D01*
X003113Y029637D01*
X003117Y029587D01*
X003117Y029537D01*
X003113Y029487D01*
X003105Y029438D01*
X003093Y029389D01*
X003077Y029341D01*
X003058Y029295D01*
X003035Y029251D01*
X003008Y029208D01*
X002978Y029168D01*
X002946Y029130D01*
X002910Y029095D01*
X002871Y029063D01*
X002830Y029034D01*
X002787Y029008D01*
X002742Y028986D01*
X002696Y028968D01*
X002648Y028953D01*
X002599Y028942D01*
X002550Y028935D01*
X002500Y028932D01*
X002449Y028933D01*
X002400Y028938D01*
X002350Y028947D01*
X002302Y028960D01*
X002255Y028976D01*
X002209Y028997D01*
X002165Y029021D01*
X002123Y029048D01*
X002083Y029078D01*
X002046Y029112D01*
X002012Y029149D01*
X001980Y029188D01*
X001952Y029229D01*
X001927Y029273D01*
X001906Y029318D01*
X001889Y029365D01*
X001875Y029413D01*
X001865Y029462D01*
X001859Y029512D01*
X001857Y029562D01*
X030597Y029562D02*
X030599Y029612D01*
X030605Y029662D01*
X030615Y029711D01*
X030629Y029759D01*
X030646Y029806D01*
X030667Y029851D01*
X030692Y029895D01*
X030720Y029936D01*
X030752Y029975D01*
X030786Y030012D01*
X030823Y030046D01*
X030863Y030076D01*
X030905Y030103D01*
X030949Y030127D01*
X030995Y030148D01*
X031042Y030164D01*
X031090Y030177D01*
X031140Y030186D01*
X031189Y030191D01*
X031240Y030192D01*
X031290Y030189D01*
X031339Y030182D01*
X031388Y030171D01*
X031436Y030156D01*
X031482Y030138D01*
X031527Y030116D01*
X031570Y030090D01*
X031611Y030061D01*
X031650Y030029D01*
X031686Y029994D01*
X031718Y029956D01*
X031748Y029916D01*
X031775Y029873D01*
X031798Y029829D01*
X031817Y029783D01*
X031833Y029735D01*
X031845Y029686D01*
X031853Y029637D01*
X031857Y029587D01*
X031857Y029537D01*
X031853Y029487D01*
X031845Y029438D01*
X031833Y029389D01*
X031817Y029341D01*
X031798Y029295D01*
X031775Y029251D01*
X031748Y029208D01*
X031718Y029168D01*
X031686Y029130D01*
X031650Y029095D01*
X031611Y029063D01*
X031570Y029034D01*
X031527Y029008D01*
X031482Y028986D01*
X031436Y028968D01*
X031388Y028953D01*
X031339Y028942D01*
X031290Y028935D01*
X031240Y028932D01*
X031189Y028933D01*
X031140Y028938D01*
X031090Y028947D01*
X031042Y028960D01*
X030995Y028976D01*
X030949Y028997D01*
X030905Y029021D01*
X030863Y029048D01*
X030823Y029078D01*
X030786Y029112D01*
X030752Y029149D01*
X030720Y029188D01*
X030692Y029229D01*
X030667Y029273D01*
X030646Y029318D01*
X030629Y029365D01*
X030615Y029413D01*
X030605Y029462D01*
X030599Y029512D01*
X030597Y029562D01*
X030597Y003184D02*
X030599Y003234D01*
X030605Y003284D01*
X030615Y003333D01*
X030629Y003381D01*
X030646Y003428D01*
X030667Y003473D01*
X030692Y003517D01*
X030720Y003558D01*
X030752Y003597D01*
X030786Y003634D01*
X030823Y003668D01*
X030863Y003698D01*
X030905Y003725D01*
X030949Y003749D01*
X030995Y003770D01*
X031042Y003786D01*
X031090Y003799D01*
X031140Y003808D01*
X031189Y003813D01*
X031240Y003814D01*
X031290Y003811D01*
X031339Y003804D01*
X031388Y003793D01*
X031436Y003778D01*
X031482Y003760D01*
X031527Y003738D01*
X031570Y003712D01*
X031611Y003683D01*
X031650Y003651D01*
X031686Y003616D01*
X031718Y003578D01*
X031748Y003538D01*
X031775Y003495D01*
X031798Y003451D01*
X031817Y003405D01*
X031833Y003357D01*
X031845Y003308D01*
X031853Y003259D01*
X031857Y003209D01*
X031857Y003159D01*
X031853Y003109D01*
X031845Y003060D01*
X031833Y003011D01*
X031817Y002963D01*
X031798Y002917D01*
X031775Y002873D01*
X031748Y002830D01*
X031718Y002790D01*
X031686Y002752D01*
X031650Y002717D01*
X031611Y002685D01*
X031570Y002656D01*
X031527Y002630D01*
X031482Y002608D01*
X031436Y002590D01*
X031388Y002575D01*
X031339Y002564D01*
X031290Y002557D01*
X031240Y002554D01*
X031189Y002555D01*
X031140Y002560D01*
X031090Y002569D01*
X031042Y002582D01*
X030995Y002598D01*
X030949Y002619D01*
X030905Y002643D01*
X030863Y002670D01*
X030823Y002700D01*
X030786Y002734D01*
X030752Y002771D01*
X030720Y002810D01*
X030692Y002851D01*
X030667Y002895D01*
X030646Y002940D01*
X030629Y002987D01*
X030615Y003035D01*
X030605Y003084D01*
X030599Y003134D01*
X030597Y003184D01*
D11*
X019277Y014775D03*
X018377Y014775D03*
X017477Y014775D03*
D12*
X018377Y017275D03*
D13*
X018462Y018437D03*
X017312Y018437D03*
D14*
X016552Y013245D03*
X016552Y009663D03*
D15*
X015347Y019560D03*
X015347Y020060D03*
X015347Y020560D03*
X015347Y021060D03*
X015347Y021560D03*
X015347Y022060D03*
X015347Y022560D03*
X015347Y023060D03*
X013300Y023060D03*
X013300Y022560D03*
X013300Y022060D03*
X013300Y021560D03*
X013300Y021060D03*
X013300Y020560D03*
X013300Y020060D03*
X013300Y019560D03*
D16*
X012798Y019876D02*
X012798Y020138D01*
X012798Y019876D02*
X012536Y019876D01*
X012536Y020138D01*
X012798Y020138D01*
X012798Y019963D02*
X012536Y019963D01*
X012536Y020050D02*
X012798Y020050D01*
X012798Y020137D02*
X012536Y020137D01*
X012798Y020476D02*
X012798Y020738D01*
X012798Y020476D02*
X012536Y020476D01*
X012536Y020738D01*
X012798Y020738D01*
X012798Y020563D02*
X012536Y020563D01*
X012536Y020650D02*
X012798Y020650D01*
X012798Y020737D02*
X012536Y020737D01*
X013975Y023672D02*
X014237Y023672D01*
X013975Y023672D02*
X013975Y023934D01*
X014237Y023934D01*
X014237Y023672D01*
X014237Y023759D02*
X013975Y023759D01*
X013975Y023846D02*
X014237Y023846D01*
X014237Y023933D02*
X013975Y023933D01*
X014575Y023672D02*
X014837Y023672D01*
X014575Y023672D02*
X014575Y023934D01*
X014837Y023934D01*
X014837Y023672D01*
X014837Y023759D02*
X014575Y023759D01*
X014575Y023846D02*
X014837Y023846D01*
X014837Y023933D02*
X014575Y023933D01*
X014575Y024934D02*
X014837Y024934D01*
X014837Y024672D01*
X014575Y024672D01*
X014575Y024934D01*
X014575Y024759D02*
X014837Y024759D01*
X014837Y024846D02*
X014575Y024846D01*
X014575Y024933D02*
X014837Y024933D01*
X014237Y024934D02*
X013975Y024934D01*
X014237Y024934D02*
X014237Y024672D01*
X013975Y024672D01*
X013975Y024934D01*
X013975Y024759D02*
X014237Y024759D01*
X014237Y024846D02*
X013975Y024846D01*
X013975Y024933D02*
X014237Y024933D01*
X014237Y025672D02*
X013975Y025672D01*
X013975Y025934D01*
X014237Y025934D01*
X014237Y025672D01*
X014237Y025759D02*
X013975Y025759D01*
X013975Y025846D02*
X014237Y025846D01*
X014237Y025933D02*
X013975Y025933D01*
X014575Y025672D02*
X014837Y025672D01*
X014575Y025672D02*
X014575Y025934D01*
X014837Y025934D01*
X014837Y025672D01*
X014837Y025759D02*
X014575Y025759D01*
X014575Y025846D02*
X014837Y025846D01*
X014837Y025933D02*
X014575Y025933D01*
X014575Y026672D02*
X014837Y026672D01*
X014575Y026672D02*
X014575Y026934D01*
X014837Y026934D01*
X014837Y026672D01*
X014837Y026759D02*
X014575Y026759D01*
X014575Y026846D02*
X014837Y026846D01*
X014837Y026933D02*
X014575Y026933D01*
X014237Y026672D02*
X013975Y026672D01*
X013975Y026934D01*
X014237Y026934D01*
X014237Y026672D01*
X014237Y026759D02*
X013975Y026759D01*
X013975Y026846D02*
X014237Y026846D01*
X014237Y026933D02*
X013975Y026933D01*
X013975Y027934D02*
X014237Y027934D01*
X014237Y027672D01*
X013975Y027672D01*
X013975Y027934D01*
X013975Y027759D02*
X014237Y027759D01*
X014237Y027846D02*
X013975Y027846D01*
X013975Y027933D02*
X014237Y027933D01*
X014575Y027934D02*
X014837Y027934D01*
X014837Y027672D01*
X014575Y027672D01*
X014575Y027934D01*
X014575Y027759D02*
X014837Y027759D01*
X014837Y027846D02*
X014575Y027846D01*
X014575Y027933D02*
X014837Y027933D01*
X014837Y028672D02*
X014575Y028672D01*
X014575Y028934D01*
X014837Y028934D01*
X014837Y028672D01*
X014837Y028759D02*
X014575Y028759D01*
X014575Y028846D02*
X014837Y028846D01*
X014837Y028933D02*
X014575Y028933D01*
X014237Y028672D02*
X013975Y028672D01*
X013975Y028934D01*
X014237Y028934D01*
X014237Y028672D01*
X014237Y028759D02*
X013975Y028759D01*
X013975Y028846D02*
X014237Y028846D01*
X014237Y028933D02*
X013975Y028933D01*
X008675Y027194D02*
X008675Y026932D01*
X008675Y027194D02*
X008937Y027194D01*
X008937Y026932D01*
X008675Y026932D01*
X008675Y027019D02*
X008937Y027019D01*
X008937Y027106D02*
X008675Y027106D01*
X008675Y027193D02*
X008937Y027193D01*
X008675Y026594D02*
X008675Y026332D01*
X008675Y026594D02*
X008937Y026594D01*
X008937Y026332D01*
X008675Y026332D01*
X008675Y026419D02*
X008937Y026419D01*
X008937Y026506D02*
X008675Y026506D01*
X008675Y026593D02*
X008937Y026593D01*
X007937Y026594D02*
X007937Y026332D01*
X007675Y026332D01*
X007675Y026594D01*
X007937Y026594D01*
X007937Y026419D02*
X007675Y026419D01*
X007675Y026506D02*
X007937Y026506D01*
X007937Y026593D02*
X007675Y026593D01*
X007937Y026932D02*
X007937Y027194D01*
X007937Y026932D02*
X007675Y026932D01*
X007675Y027194D01*
X007937Y027194D01*
X007937Y027019D02*
X007675Y027019D01*
X007675Y027106D02*
X007937Y027106D01*
X007937Y027193D02*
X007675Y027193D01*
X003937Y026672D02*
X003675Y026672D01*
X003675Y026934D01*
X003937Y026934D01*
X003937Y026672D01*
X003937Y026759D02*
X003675Y026759D01*
X003675Y026846D02*
X003937Y026846D01*
X003937Y026933D02*
X003675Y026933D01*
X003337Y026672D02*
X003075Y026672D01*
X003075Y026934D01*
X003337Y026934D01*
X003337Y026672D01*
X003337Y026759D02*
X003075Y026759D01*
X003075Y026846D02*
X003337Y026846D01*
X003337Y026933D02*
X003075Y026933D01*
X003075Y027672D02*
X003337Y027672D01*
X003075Y027672D02*
X003075Y027934D01*
X003337Y027934D01*
X003337Y027672D01*
X003337Y027759D02*
X003075Y027759D01*
X003075Y027846D02*
X003337Y027846D01*
X003337Y027933D02*
X003075Y027933D01*
X003675Y027672D02*
X003937Y027672D01*
X003675Y027672D02*
X003675Y027934D01*
X003937Y027934D01*
X003937Y027672D01*
X003937Y027759D02*
X003675Y027759D01*
X003675Y027846D02*
X003937Y027846D01*
X003937Y027933D02*
X003675Y027933D01*
X003675Y024672D02*
X003937Y024672D01*
X003675Y024672D02*
X003675Y024934D01*
X003937Y024934D01*
X003937Y024672D01*
X003937Y024759D02*
X003675Y024759D01*
X003675Y024846D02*
X003937Y024846D01*
X003937Y024933D02*
X003675Y024933D01*
X003337Y024672D02*
X003075Y024672D01*
X003075Y024934D01*
X003337Y024934D01*
X003337Y024672D01*
X003337Y024759D02*
X003075Y024759D01*
X003075Y024846D02*
X003337Y024846D01*
X003337Y024933D02*
X003075Y024933D01*
X003075Y023672D02*
X003337Y023672D01*
X003075Y023672D02*
X003075Y023934D01*
X003337Y023934D01*
X003337Y023672D01*
X003337Y023759D02*
X003075Y023759D01*
X003075Y023846D02*
X003337Y023846D01*
X003337Y023933D02*
X003075Y023933D01*
X003675Y023672D02*
X003937Y023672D01*
X003675Y023672D02*
X003675Y023934D01*
X003937Y023934D01*
X003937Y023672D01*
X003937Y023759D02*
X003675Y023759D01*
X003675Y023846D02*
X003937Y023846D01*
X003937Y023933D02*
X003675Y023933D01*
X003675Y022672D02*
X003937Y022672D01*
X003675Y022672D02*
X003675Y022934D01*
X003937Y022934D01*
X003937Y022672D01*
X003937Y022759D02*
X003675Y022759D01*
X003675Y022846D02*
X003937Y022846D01*
X003937Y022933D02*
X003675Y022933D01*
X003337Y022672D02*
X003075Y022672D01*
X003075Y022934D01*
X003337Y022934D01*
X003337Y022672D01*
X003337Y022759D02*
X003075Y022759D01*
X003075Y022846D02*
X003337Y022846D01*
X003337Y022933D02*
X003075Y022933D01*
X003075Y021672D02*
X003337Y021672D01*
X003075Y021672D02*
X003075Y021934D01*
X003337Y021934D01*
X003337Y021672D01*
X003337Y021759D02*
X003075Y021759D01*
X003075Y021846D02*
X003337Y021846D01*
X003337Y021933D02*
X003075Y021933D01*
X003675Y021672D02*
X003937Y021672D01*
X003675Y021672D02*
X003675Y021934D01*
X003937Y021934D01*
X003937Y021672D01*
X003937Y021759D02*
X003675Y021759D01*
X003675Y021846D02*
X003937Y021846D01*
X003937Y021933D02*
X003675Y021933D01*
X003675Y020672D02*
X003937Y020672D01*
X003675Y020672D02*
X003675Y020934D01*
X003937Y020934D01*
X003937Y020672D01*
X003937Y020759D02*
X003675Y020759D01*
X003675Y020846D02*
X003937Y020846D01*
X003937Y020933D02*
X003675Y020933D01*
X003337Y020672D02*
X003075Y020672D01*
X003075Y020934D01*
X003337Y020934D01*
X003337Y020672D01*
X003337Y020759D02*
X003075Y020759D01*
X003075Y020846D02*
X003337Y020846D01*
X003337Y020933D02*
X003075Y020933D01*
X002875Y018734D02*
X002875Y018472D01*
X002875Y018734D02*
X003137Y018734D01*
X003137Y018472D01*
X002875Y018472D01*
X002875Y018559D02*
X003137Y018559D01*
X003137Y018646D02*
X002875Y018646D01*
X002875Y018733D02*
X003137Y018733D01*
X002875Y018134D02*
X002875Y017872D01*
X002875Y018134D02*
X003137Y018134D01*
X003137Y017872D01*
X002875Y017872D01*
X002875Y017959D02*
X003137Y017959D01*
X003137Y018046D02*
X002875Y018046D01*
X002875Y018133D02*
X003137Y018133D01*
X013347Y009354D02*
X013347Y009092D01*
X013085Y009092D01*
X013085Y009354D01*
X013347Y009354D01*
X013347Y009179D02*
X013085Y009179D01*
X013085Y009266D02*
X013347Y009266D01*
X013347Y009353D02*
X013085Y009353D01*
X013347Y008754D02*
X013347Y008492D01*
X013085Y008492D01*
X013085Y008754D01*
X013347Y008754D01*
X013347Y008579D02*
X013085Y008579D01*
X013085Y008666D02*
X013347Y008666D01*
X013347Y008753D02*
X013085Y008753D01*
X019775Y021672D02*
X020037Y021672D01*
X019775Y021672D02*
X019775Y021934D01*
X020037Y021934D01*
X020037Y021672D01*
X020037Y021759D02*
X019775Y021759D01*
X019775Y021846D02*
X020037Y021846D01*
X020037Y021933D02*
X019775Y021933D01*
X020375Y021672D02*
X020637Y021672D01*
X020375Y021672D02*
X020375Y021934D01*
X020637Y021934D01*
X020637Y021672D01*
X020637Y021759D02*
X020375Y021759D01*
X020375Y021846D02*
X020637Y021846D01*
X020637Y021933D02*
X020375Y021933D01*
X020375Y022672D02*
X020637Y022672D01*
X020375Y022672D02*
X020375Y022934D01*
X020637Y022934D01*
X020637Y022672D01*
X020637Y022759D02*
X020375Y022759D01*
X020375Y022846D02*
X020637Y022846D01*
X020637Y022933D02*
X020375Y022933D01*
X020037Y022672D02*
X019775Y022672D01*
X019775Y022934D01*
X020037Y022934D01*
X020037Y022672D01*
X020037Y022759D02*
X019775Y022759D01*
X019775Y022846D02*
X020037Y022846D01*
X020037Y022933D02*
X019775Y022933D01*
X019775Y023934D02*
X020037Y023934D01*
X020037Y023672D01*
X019775Y023672D01*
X019775Y023934D01*
X019775Y023759D02*
X020037Y023759D01*
X020037Y023846D02*
X019775Y023846D01*
X019775Y023933D02*
X020037Y023933D01*
X020375Y023934D02*
X020637Y023934D01*
X020637Y023672D01*
X020375Y023672D01*
X020375Y023934D01*
X020375Y023759D02*
X020637Y023759D01*
X020637Y023846D02*
X020375Y023846D01*
X020375Y023933D02*
X020637Y023933D01*
X020637Y024934D02*
X020375Y024934D01*
X020637Y024934D02*
X020637Y024672D01*
X020375Y024672D01*
X020375Y024934D01*
X020375Y024759D02*
X020637Y024759D01*
X020637Y024846D02*
X020375Y024846D01*
X020375Y024933D02*
X020637Y024933D01*
X020037Y024934D02*
X019775Y024934D01*
X020037Y024934D02*
X020037Y024672D01*
X019775Y024672D01*
X019775Y024934D01*
X019775Y024759D02*
X020037Y024759D01*
X020037Y024846D02*
X019775Y024846D01*
X019775Y024933D02*
X020037Y024933D01*
X020037Y025934D02*
X019775Y025934D01*
X020037Y025934D02*
X020037Y025672D01*
X019775Y025672D01*
X019775Y025934D01*
X019775Y025759D02*
X020037Y025759D01*
X020037Y025846D02*
X019775Y025846D01*
X019775Y025933D02*
X020037Y025933D01*
X020375Y025934D02*
X020637Y025934D01*
X020637Y025672D01*
X020375Y025672D01*
X020375Y025934D01*
X020375Y025759D02*
X020637Y025759D01*
X020637Y025846D02*
X020375Y025846D01*
X020375Y025933D02*
X020637Y025933D01*
X020637Y026672D02*
X020375Y026672D01*
X020375Y026934D01*
X020637Y026934D01*
X020637Y026672D01*
X020637Y026759D02*
X020375Y026759D01*
X020375Y026846D02*
X020637Y026846D01*
X020637Y026933D02*
X020375Y026933D01*
X020037Y026672D02*
X019775Y026672D01*
X019775Y026934D01*
X020037Y026934D01*
X020037Y026672D01*
X020037Y026759D02*
X019775Y026759D01*
X019775Y026846D02*
X020037Y026846D01*
X020037Y026933D02*
X019775Y026933D01*
X019775Y027672D02*
X020037Y027672D01*
X019775Y027672D02*
X019775Y027934D01*
X020037Y027934D01*
X020037Y027672D01*
X020037Y027759D02*
X019775Y027759D01*
X019775Y027846D02*
X020037Y027846D01*
X020037Y027933D02*
X019775Y027933D01*
X020375Y027672D02*
X020637Y027672D01*
X020375Y027672D02*
X020375Y027934D01*
X020637Y027934D01*
X020637Y027672D01*
X020637Y027759D02*
X020375Y027759D01*
X020375Y027846D02*
X020637Y027846D01*
X020637Y027933D02*
X020375Y027933D01*
X020375Y028672D02*
X020637Y028672D01*
X020375Y028672D02*
X020375Y028934D01*
X020637Y028934D01*
X020637Y028672D01*
X020637Y028759D02*
X020375Y028759D01*
X020375Y028846D02*
X020637Y028846D01*
X020637Y028933D02*
X020375Y028933D01*
X020037Y028672D02*
X019775Y028672D01*
X019775Y028934D01*
X020037Y028934D01*
X020037Y028672D01*
X020037Y028759D02*
X019775Y028759D01*
X019775Y028846D02*
X020037Y028846D01*
X020037Y028933D02*
X019775Y028933D01*
X022594Y028274D02*
X022856Y028274D01*
X022856Y028012D01*
X022594Y028012D01*
X022594Y028274D01*
X022594Y028099D02*
X022856Y028099D01*
X022856Y028186D02*
X022594Y028186D01*
X022594Y028273D02*
X022856Y028273D01*
X023194Y028274D02*
X023456Y028274D01*
X023456Y028012D01*
X023194Y028012D01*
X023194Y028274D01*
X023194Y028099D02*
X023456Y028099D01*
X023456Y028186D02*
X023194Y028186D01*
X023194Y028273D02*
X023456Y028273D01*
X029841Y018141D02*
X030103Y018141D01*
X029841Y018141D02*
X029841Y018403D01*
X030103Y018403D01*
X030103Y018141D01*
X030103Y018228D02*
X029841Y018228D01*
X029841Y018315D02*
X030103Y018315D01*
X030103Y018402D02*
X029841Y018402D01*
X030441Y018141D02*
X030703Y018141D01*
X030441Y018141D02*
X030441Y018403D01*
X030703Y018403D01*
X030703Y018141D01*
X030703Y018228D02*
X030441Y018228D01*
X030441Y018315D02*
X030703Y018315D01*
X030703Y018402D02*
X030441Y018402D01*
X027925Y003934D02*
X027925Y003672D01*
X027925Y003934D02*
X028187Y003934D01*
X028187Y003672D01*
X027925Y003672D01*
X027925Y003759D02*
X028187Y003759D01*
X028187Y003846D02*
X027925Y003846D01*
X027925Y003933D02*
X028187Y003933D01*
X027925Y003334D02*
X027925Y003072D01*
X027925Y003334D02*
X028187Y003334D01*
X028187Y003072D01*
X027925Y003072D01*
X027925Y003159D02*
X028187Y003159D01*
X028187Y003246D02*
X027925Y003246D01*
X027925Y003333D02*
X028187Y003333D01*
X027187Y003334D02*
X027187Y003072D01*
X026925Y003072D01*
X026925Y003334D01*
X027187Y003334D01*
X027187Y003159D02*
X026925Y003159D01*
X026925Y003246D02*
X027187Y003246D01*
X027187Y003333D02*
X026925Y003333D01*
X027187Y003672D02*
X027187Y003934D01*
X027187Y003672D02*
X026925Y003672D01*
X026925Y003934D01*
X027187Y003934D01*
X027187Y003759D02*
X026925Y003759D01*
X026925Y003846D02*
X027187Y003846D01*
X027187Y003933D02*
X026925Y003933D01*
D17*
X017383Y020877D03*
X017009Y020877D03*
X016635Y020877D03*
X016635Y021743D03*
X017009Y021743D03*
X017383Y021743D03*
D18*
X006844Y018456D03*
X005236Y018456D03*
X009022Y008253D03*
X010630Y008253D03*
D19*
X023314Y020979D03*
X024101Y020979D03*
X024889Y020979D03*
X025676Y020979D03*
X026464Y020979D03*
X027251Y020979D03*
X028038Y020979D03*
X028826Y020979D03*
X028826Y027278D03*
X028038Y027278D03*
X027251Y027278D03*
X026464Y027278D03*
X025676Y027278D03*
X024889Y027278D03*
X024101Y027278D03*
X023314Y027278D03*
D20*
X022731Y026097D03*
X022731Y025310D03*
X022731Y024522D03*
X022731Y023735D03*
X022731Y022947D03*
X022731Y022160D03*
D21*
X011886Y022559D03*
X011886Y021409D03*
D22*
X024919Y017348D03*
X025509Y017348D03*
X026100Y017348D03*
X026690Y017348D03*
X027281Y017348D03*
X027871Y017348D03*
X028462Y017348D03*
X029053Y017348D03*
X029643Y017348D03*
X029643Y010596D03*
X029053Y010596D03*
X028462Y010596D03*
X027871Y010596D03*
X027281Y010596D03*
X026690Y010596D03*
X026100Y010596D03*
X025509Y010596D03*
X024919Y010596D03*
D23*
X027056Y013972D03*
D24*
X012406Y008603D03*
X012406Y007903D03*
X011606Y008253D03*
X003706Y017953D03*
X004506Y018303D03*
X003706Y018653D03*
X003106Y019453D03*
X003106Y020153D03*
X003906Y019803D03*
X003106Y025453D03*
X003106Y026153D03*
X003906Y025803D03*
X011159Y025832D03*
X011159Y025132D03*
X011959Y025482D03*
M02*
