G75*
%MOIN*%
%OFA0B0*%
%FSLAX24Y24*%
%IPPOS*%
%LPD*%
%AMOC8*
5,1,8,0,0,1.08239X$1,22.5*
%
%ADD10C,0.0000*%
%ADD11C,0.0160*%
%ADD12C,0.0040*%
%ADD13C,0.0030*%
%ADD14C,0.0050*%
%ADD15C,0.0100*%
%ADD16C,0.0080*%
%ADD17C,0.0060*%
%ADD18C,0.0300*%
%ADD19R,0.0300X0.0200*%
%ADD20R,0.0300X0.0400*%
%ADD21C,0.0079*%
%ADD22C,0.0200*%
%ADD23R,0.0300X0.4200*%
%ADD24R,0.0200X0.0750*%
%ADD25R,0.0200X0.0300*%
%ADD26C,0.0020*%
D10*
X001306Y002003D02*
X001306Y030743D01*
X032408Y030743D01*
X032408Y002003D01*
X001306Y002003D01*
X001857Y003184D02*
X001859Y003234D01*
X001865Y003284D01*
X001875Y003333D01*
X001889Y003381D01*
X001906Y003428D01*
X001927Y003473D01*
X001952Y003517D01*
X001980Y003558D01*
X002012Y003597D01*
X002046Y003634D01*
X002083Y003668D01*
X002123Y003698D01*
X002165Y003725D01*
X002209Y003749D01*
X002255Y003770D01*
X002302Y003786D01*
X002350Y003799D01*
X002400Y003808D01*
X002449Y003813D01*
X002500Y003814D01*
X002550Y003811D01*
X002599Y003804D01*
X002648Y003793D01*
X002696Y003778D01*
X002742Y003760D01*
X002787Y003738D01*
X002830Y003712D01*
X002871Y003683D01*
X002910Y003651D01*
X002946Y003616D01*
X002978Y003578D01*
X003008Y003538D01*
X003035Y003495D01*
X003058Y003451D01*
X003077Y003405D01*
X003093Y003357D01*
X003105Y003308D01*
X003113Y003259D01*
X003117Y003209D01*
X003117Y003159D01*
X003113Y003109D01*
X003105Y003060D01*
X003093Y003011D01*
X003077Y002963D01*
X003058Y002917D01*
X003035Y002873D01*
X003008Y002830D01*
X002978Y002790D01*
X002946Y002752D01*
X002910Y002717D01*
X002871Y002685D01*
X002830Y002656D01*
X002787Y002630D01*
X002742Y002608D01*
X002696Y002590D01*
X002648Y002575D01*
X002599Y002564D01*
X002550Y002557D01*
X002500Y002554D01*
X002449Y002555D01*
X002400Y002560D01*
X002350Y002569D01*
X002302Y002582D01*
X002255Y002598D01*
X002209Y002619D01*
X002165Y002643D01*
X002123Y002670D01*
X002083Y002700D01*
X002046Y002734D01*
X002012Y002771D01*
X001980Y002810D01*
X001952Y002851D01*
X001927Y002895D01*
X001906Y002940D01*
X001889Y002987D01*
X001875Y003035D01*
X001865Y003084D01*
X001859Y003134D01*
X001857Y003184D01*
X002782Y012633D02*
X002784Y012672D01*
X002790Y012711D01*
X002800Y012749D01*
X002813Y012786D01*
X002830Y012821D01*
X002850Y012855D01*
X002874Y012886D01*
X002901Y012915D01*
X002930Y012941D01*
X002962Y012964D01*
X002996Y012984D01*
X003032Y013000D01*
X003069Y013012D01*
X003108Y013021D01*
X003147Y013026D01*
X003186Y013027D01*
X003225Y013024D01*
X003264Y013017D01*
X003301Y013006D01*
X003338Y012992D01*
X003373Y012974D01*
X003406Y012953D01*
X003437Y012928D01*
X003465Y012901D01*
X003490Y012871D01*
X003512Y012838D01*
X003531Y012804D01*
X003546Y012768D01*
X003558Y012730D01*
X003566Y012692D01*
X003570Y012653D01*
X003570Y012613D01*
X003566Y012574D01*
X003558Y012536D01*
X003546Y012498D01*
X003531Y012462D01*
X003512Y012428D01*
X003490Y012395D01*
X003465Y012365D01*
X003437Y012338D01*
X003406Y012313D01*
X003373Y012292D01*
X003338Y012274D01*
X003301Y012260D01*
X003264Y012249D01*
X003225Y012242D01*
X003186Y012239D01*
X003147Y012240D01*
X003108Y012245D01*
X003069Y012254D01*
X003032Y012266D01*
X002996Y012282D01*
X002962Y012302D01*
X002930Y012325D01*
X002901Y012351D01*
X002874Y012380D01*
X002850Y012411D01*
X002830Y012445D01*
X002813Y012480D01*
X002800Y012517D01*
X002790Y012555D01*
X002784Y012594D01*
X002782Y012633D01*
X002782Y014602D02*
X002784Y014641D01*
X002790Y014680D01*
X002800Y014718D01*
X002813Y014755D01*
X002830Y014790D01*
X002850Y014824D01*
X002874Y014855D01*
X002901Y014884D01*
X002930Y014910D01*
X002962Y014933D01*
X002996Y014953D01*
X003032Y014969D01*
X003069Y014981D01*
X003108Y014990D01*
X003147Y014995D01*
X003186Y014996D01*
X003225Y014993D01*
X003264Y014986D01*
X003301Y014975D01*
X003338Y014961D01*
X003373Y014943D01*
X003406Y014922D01*
X003437Y014897D01*
X003465Y014870D01*
X003490Y014840D01*
X003512Y014807D01*
X003531Y014773D01*
X003546Y014737D01*
X003558Y014699D01*
X003566Y014661D01*
X003570Y014622D01*
X003570Y014582D01*
X003566Y014543D01*
X003558Y014505D01*
X003546Y014467D01*
X003531Y014431D01*
X003512Y014397D01*
X003490Y014364D01*
X003465Y014334D01*
X003437Y014307D01*
X003406Y014282D01*
X003373Y014261D01*
X003338Y014243D01*
X003301Y014229D01*
X003264Y014218D01*
X003225Y014211D01*
X003186Y014208D01*
X003147Y014209D01*
X003108Y014214D01*
X003069Y014223D01*
X003032Y014235D01*
X002996Y014251D01*
X002962Y014271D01*
X002930Y014294D01*
X002901Y014320D01*
X002874Y014349D01*
X002850Y014380D01*
X002830Y014414D01*
X002813Y014449D01*
X002800Y014486D01*
X002790Y014524D01*
X002784Y014563D01*
X002782Y014602D01*
X001857Y029562D02*
X001859Y029612D01*
X001865Y029662D01*
X001875Y029711D01*
X001889Y029759D01*
X001906Y029806D01*
X001927Y029851D01*
X001952Y029895D01*
X001980Y029936D01*
X002012Y029975D01*
X002046Y030012D01*
X002083Y030046D01*
X002123Y030076D01*
X002165Y030103D01*
X002209Y030127D01*
X002255Y030148D01*
X002302Y030164D01*
X002350Y030177D01*
X002400Y030186D01*
X002449Y030191D01*
X002500Y030192D01*
X002550Y030189D01*
X002599Y030182D01*
X002648Y030171D01*
X002696Y030156D01*
X002742Y030138D01*
X002787Y030116D01*
X002830Y030090D01*
X002871Y030061D01*
X002910Y030029D01*
X002946Y029994D01*
X002978Y029956D01*
X003008Y029916D01*
X003035Y029873D01*
X003058Y029829D01*
X003077Y029783D01*
X003093Y029735D01*
X003105Y029686D01*
X003113Y029637D01*
X003117Y029587D01*
X003117Y029537D01*
X003113Y029487D01*
X003105Y029438D01*
X003093Y029389D01*
X003077Y029341D01*
X003058Y029295D01*
X003035Y029251D01*
X003008Y029208D01*
X002978Y029168D01*
X002946Y029130D01*
X002910Y029095D01*
X002871Y029063D01*
X002830Y029034D01*
X002787Y029008D01*
X002742Y028986D01*
X002696Y028968D01*
X002648Y028953D01*
X002599Y028942D01*
X002550Y028935D01*
X002500Y028932D01*
X002449Y028933D01*
X002400Y028938D01*
X002350Y028947D01*
X002302Y028960D01*
X002255Y028976D01*
X002209Y028997D01*
X002165Y029021D01*
X002123Y029048D01*
X002083Y029078D01*
X002046Y029112D01*
X002012Y029149D01*
X001980Y029188D01*
X001952Y029229D01*
X001927Y029273D01*
X001906Y029318D01*
X001889Y029365D01*
X001875Y029413D01*
X001865Y029462D01*
X001859Y029512D01*
X001857Y029562D01*
X030597Y029562D02*
X030599Y029612D01*
X030605Y029662D01*
X030615Y029711D01*
X030629Y029759D01*
X030646Y029806D01*
X030667Y029851D01*
X030692Y029895D01*
X030720Y029936D01*
X030752Y029975D01*
X030786Y030012D01*
X030823Y030046D01*
X030863Y030076D01*
X030905Y030103D01*
X030949Y030127D01*
X030995Y030148D01*
X031042Y030164D01*
X031090Y030177D01*
X031140Y030186D01*
X031189Y030191D01*
X031240Y030192D01*
X031290Y030189D01*
X031339Y030182D01*
X031388Y030171D01*
X031436Y030156D01*
X031482Y030138D01*
X031527Y030116D01*
X031570Y030090D01*
X031611Y030061D01*
X031650Y030029D01*
X031686Y029994D01*
X031718Y029956D01*
X031748Y029916D01*
X031775Y029873D01*
X031798Y029829D01*
X031817Y029783D01*
X031833Y029735D01*
X031845Y029686D01*
X031853Y029637D01*
X031857Y029587D01*
X031857Y029537D01*
X031853Y029487D01*
X031845Y029438D01*
X031833Y029389D01*
X031817Y029341D01*
X031798Y029295D01*
X031775Y029251D01*
X031748Y029208D01*
X031718Y029168D01*
X031686Y029130D01*
X031650Y029095D01*
X031611Y029063D01*
X031570Y029034D01*
X031527Y029008D01*
X031482Y028986D01*
X031436Y028968D01*
X031388Y028953D01*
X031339Y028942D01*
X031290Y028935D01*
X031240Y028932D01*
X031189Y028933D01*
X031140Y028938D01*
X031090Y028947D01*
X031042Y028960D01*
X030995Y028976D01*
X030949Y028997D01*
X030905Y029021D01*
X030863Y029048D01*
X030823Y029078D01*
X030786Y029112D01*
X030752Y029149D01*
X030720Y029188D01*
X030692Y029229D01*
X030667Y029273D01*
X030646Y029318D01*
X030629Y029365D01*
X030615Y029413D01*
X030605Y029462D01*
X030599Y029512D01*
X030597Y029562D01*
X030597Y003184D02*
X030599Y003234D01*
X030605Y003284D01*
X030615Y003333D01*
X030629Y003381D01*
X030646Y003428D01*
X030667Y003473D01*
X030692Y003517D01*
X030720Y003558D01*
X030752Y003597D01*
X030786Y003634D01*
X030823Y003668D01*
X030863Y003698D01*
X030905Y003725D01*
X030949Y003749D01*
X030995Y003770D01*
X031042Y003786D01*
X031090Y003799D01*
X031140Y003808D01*
X031189Y003813D01*
X031240Y003814D01*
X031290Y003811D01*
X031339Y003804D01*
X031388Y003793D01*
X031436Y003778D01*
X031482Y003760D01*
X031527Y003738D01*
X031570Y003712D01*
X031611Y003683D01*
X031650Y003651D01*
X031686Y003616D01*
X031718Y003578D01*
X031748Y003538D01*
X031775Y003495D01*
X031798Y003451D01*
X031817Y003405D01*
X031833Y003357D01*
X031845Y003308D01*
X031853Y003259D01*
X031857Y003209D01*
X031857Y003159D01*
X031853Y003109D01*
X031845Y003060D01*
X031833Y003011D01*
X031817Y002963D01*
X031798Y002917D01*
X031775Y002873D01*
X031748Y002830D01*
X031718Y002790D01*
X031686Y002752D01*
X031650Y002717D01*
X031611Y002685D01*
X031570Y002656D01*
X031527Y002630D01*
X031482Y002608D01*
X031436Y002590D01*
X031388Y002575D01*
X031339Y002564D01*
X031290Y002557D01*
X031240Y002554D01*
X031189Y002555D01*
X031140Y002560D01*
X031090Y002569D01*
X031042Y002582D01*
X030995Y002598D01*
X030949Y002619D01*
X030905Y002643D01*
X030863Y002670D01*
X030823Y002700D01*
X030786Y002734D01*
X030752Y002771D01*
X030720Y002810D01*
X030692Y002851D01*
X030667Y002895D01*
X030646Y002940D01*
X030629Y002987D01*
X030615Y003035D01*
X030605Y003084D01*
X030599Y003134D01*
X030597Y003184D01*
D11*
X013528Y023513D02*
X009591Y023513D01*
X009591Y027450D01*
X013528Y027450D01*
X013528Y023513D01*
D12*
X012436Y022859D02*
X011336Y022859D01*
X011336Y021109D01*
X012436Y021109D01*
X012436Y022859D01*
X011153Y022627D02*
X011076Y022704D01*
X010922Y022704D01*
X010846Y022627D01*
X010692Y022627D02*
X010616Y022704D01*
X010462Y022704D01*
X010385Y022627D01*
X010385Y022320D01*
X010462Y022243D01*
X010616Y022243D01*
X010692Y022320D01*
X010846Y022243D02*
X011153Y022550D01*
X011153Y022627D01*
X011153Y022243D02*
X010846Y022243D01*
X011092Y024283D02*
X011015Y024360D01*
X011015Y024667D01*
X011092Y024744D01*
X011246Y024744D01*
X011322Y024667D01*
X011322Y024360D01*
X011246Y024283D01*
X011092Y024283D01*
X011169Y024437D02*
X011322Y024283D01*
X011476Y024283D02*
X011783Y024590D01*
X011783Y024667D01*
X011706Y024744D01*
X011552Y024744D01*
X011476Y024667D01*
X011476Y024283D02*
X011783Y024283D01*
X013746Y022224D02*
X013900Y022224D01*
X013823Y022224D02*
X013823Y021763D01*
X013746Y021763D02*
X013900Y021763D01*
X014053Y021840D02*
X014130Y021763D01*
X014283Y021763D01*
X014360Y021840D01*
X014513Y021763D02*
X014820Y022070D01*
X014820Y022147D01*
X014744Y022224D01*
X014590Y022224D01*
X014513Y022147D01*
X014360Y022147D02*
X014283Y022224D01*
X014130Y022224D01*
X014053Y022147D01*
X014053Y021840D01*
X014513Y021763D02*
X014820Y021763D01*
X015036Y023573D02*
X015036Y024034D01*
X015266Y024034D01*
X015343Y023957D01*
X015343Y023804D01*
X015266Y023727D01*
X015036Y023727D01*
X015190Y023727D02*
X015343Y023573D01*
X015496Y023573D02*
X015727Y023573D01*
X015803Y023650D01*
X015803Y023957D01*
X015727Y024034D01*
X015496Y024034D01*
X015496Y023573D01*
X015957Y023573D02*
X016264Y023573D01*
X016110Y023573D02*
X016110Y024034D01*
X015957Y023880D01*
X015957Y024573D02*
X016264Y024880D01*
X016264Y024957D01*
X016187Y025034D01*
X016034Y025034D01*
X015957Y024957D01*
X015803Y024957D02*
X015727Y025034D01*
X015496Y025034D01*
X015496Y024573D01*
X015727Y024573D01*
X015803Y024650D01*
X015803Y024957D01*
X015957Y024573D02*
X016264Y024573D01*
X015343Y024573D02*
X015190Y024727D01*
X015266Y024727D02*
X015036Y024727D01*
X015036Y024573D02*
X015036Y025034D01*
X015266Y025034D01*
X015343Y024957D01*
X015343Y024804D01*
X015266Y024727D01*
X015343Y025573D02*
X015190Y025727D01*
X015266Y025727D02*
X015036Y025727D01*
X015036Y025573D02*
X015036Y026034D01*
X015266Y026034D01*
X015343Y025957D01*
X015343Y025804D01*
X015266Y025727D01*
X015496Y025573D02*
X015803Y025573D01*
X015957Y025573D02*
X016264Y025573D01*
X016110Y025573D02*
X016110Y026034D01*
X015957Y025880D01*
X015496Y026034D02*
X015496Y025573D01*
X015496Y026573D02*
X015803Y026573D01*
X015957Y026573D02*
X016264Y026880D01*
X016264Y026957D01*
X016187Y027034D01*
X016034Y027034D01*
X015957Y026957D01*
X015957Y026573D02*
X016264Y026573D01*
X015496Y026573D02*
X015496Y027034D01*
X015343Y026957D02*
X015343Y026804D01*
X015266Y026727D01*
X015036Y026727D01*
X015190Y026727D02*
X015343Y026573D01*
X015036Y026573D02*
X015036Y027034D01*
X015266Y027034D01*
X015343Y026957D01*
X015343Y027573D02*
X015190Y027727D01*
X015266Y027727D02*
X015036Y027727D01*
X015036Y027573D02*
X015036Y028034D01*
X015266Y028034D01*
X015343Y027957D01*
X015343Y027804D01*
X015266Y027727D01*
X015496Y027804D02*
X015803Y027804D01*
X015803Y028034D02*
X015803Y027573D01*
X015496Y027573D02*
X015496Y028034D01*
X016506Y028814D02*
X016813Y028814D01*
X016660Y028814D02*
X016660Y028353D01*
X016966Y028353D02*
X016966Y028814D01*
X017273Y028814D01*
X017427Y028814D02*
X017580Y028660D01*
X017734Y028814D01*
X017734Y028353D01*
X017887Y028353D02*
X017887Y028814D01*
X018117Y028814D01*
X018194Y028737D01*
X018194Y028584D01*
X018117Y028507D01*
X017887Y028507D01*
X017427Y028353D02*
X017427Y028814D01*
X017427Y029103D02*
X017734Y029103D01*
X017887Y029103D02*
X018194Y029103D01*
X017887Y029103D02*
X017887Y029564D01*
X017427Y029564D02*
X017427Y029103D01*
X017273Y029103D02*
X016966Y029103D01*
X016966Y029564D01*
X017273Y029564D01*
X017120Y029334D02*
X016966Y029334D01*
X016813Y029564D02*
X016813Y029103D01*
X016660Y029257D01*
X016506Y029103D01*
X016506Y029564D01*
X016412Y030083D02*
X016412Y030543D01*
X016258Y030543D02*
X016258Y030083D01*
X016028Y030083D01*
X015952Y030160D01*
X015952Y030313D01*
X016028Y030390D01*
X016258Y030390D01*
X016565Y030236D02*
X016412Y030083D01*
X016565Y030236D02*
X016719Y030083D01*
X016719Y030543D01*
X016872Y030543D02*
X017179Y030543D01*
X017179Y030083D01*
X016872Y030083D01*
X017026Y030313D02*
X017179Y030313D01*
X017333Y030083D02*
X017640Y030083D01*
X017793Y030083D02*
X017793Y030543D01*
X017793Y030313D02*
X018100Y030313D01*
X018100Y030543D02*
X018100Y030083D01*
X017486Y030083D02*
X017486Y030543D01*
X015798Y030390D02*
X015798Y030236D01*
X015645Y030083D01*
X015491Y030083D02*
X015261Y030083D01*
X015184Y030160D01*
X015184Y030313D01*
X015261Y030390D01*
X015491Y030390D01*
X015491Y030543D02*
X015491Y030083D01*
X015798Y030390D02*
X015645Y030543D01*
X015031Y030543D02*
X014877Y030543D01*
X014954Y030543D02*
X014954Y030083D01*
X015031Y030083D02*
X014877Y030083D01*
X014724Y030083D02*
X014417Y030543D01*
X014417Y030083D01*
X014263Y030083D02*
X014263Y030543D01*
X014263Y030390D02*
X013957Y030083D01*
X013803Y030083D02*
X013650Y030236D01*
X013650Y030390D01*
X013803Y030543D01*
X013957Y030543D02*
X014187Y030313D01*
X014724Y030543D02*
X014724Y030083D01*
X016966Y028584D02*
X017120Y028584D01*
X016966Y028353D02*
X017273Y028353D01*
X018815Y028583D02*
X018815Y029044D01*
X019046Y029044D01*
X019122Y028967D01*
X019122Y028814D01*
X019046Y028737D01*
X018815Y028737D01*
X018969Y028737D02*
X019122Y028583D01*
X019276Y028583D02*
X019583Y028890D01*
X019583Y028967D01*
X019506Y029044D01*
X019352Y029044D01*
X019276Y028967D01*
X019276Y028583D02*
X019583Y028583D01*
X019506Y028044D02*
X019583Y027967D01*
X019583Y027890D01*
X019506Y027814D01*
X019583Y027737D01*
X019583Y027660D01*
X019506Y027583D01*
X019352Y027583D01*
X019276Y027660D01*
X019122Y027583D02*
X018969Y027737D01*
X019046Y027737D02*
X018815Y027737D01*
X018815Y027583D02*
X018815Y028044D01*
X019046Y028044D01*
X019122Y027967D01*
X019122Y027814D01*
X019046Y027737D01*
X019276Y027967D02*
X019352Y028044D01*
X019506Y028044D01*
X019506Y027814D02*
X019429Y027814D01*
X019506Y027044D02*
X019276Y026814D01*
X019583Y026814D01*
X019506Y027044D02*
X019506Y026583D01*
X019122Y026583D02*
X018969Y026737D01*
X019046Y026737D02*
X018815Y026737D01*
X018815Y026583D02*
X018815Y027044D01*
X019046Y027044D01*
X019122Y026967D01*
X019122Y026814D01*
X019046Y026737D01*
X019046Y026044D02*
X018815Y026044D01*
X018815Y025583D01*
X018815Y025737D02*
X019046Y025737D01*
X019122Y025814D01*
X019122Y025967D01*
X019046Y026044D01*
X019276Y025967D02*
X019276Y025890D01*
X019352Y025814D01*
X019583Y025814D01*
X019583Y025967D02*
X019506Y026044D01*
X019352Y026044D01*
X019276Y025967D01*
X019583Y025967D02*
X019583Y025660D01*
X019506Y025583D01*
X019352Y025583D01*
X019276Y025660D01*
X019122Y025583D02*
X018969Y025737D01*
X018969Y025044D02*
X018969Y024583D01*
X019122Y024583D02*
X018815Y024583D01*
X018662Y024583D02*
X018508Y024737D01*
X018585Y024737D02*
X018355Y024737D01*
X018355Y024583D02*
X018355Y025044D01*
X018585Y025044D01*
X018662Y024967D01*
X018662Y024814D01*
X018585Y024737D01*
X018815Y024890D02*
X018969Y025044D01*
X019276Y024967D02*
X019352Y025044D01*
X019506Y025044D01*
X019583Y024967D01*
X019276Y024660D01*
X019352Y024583D01*
X019506Y024583D01*
X019583Y024660D01*
X019583Y024967D01*
X019276Y024967D02*
X019276Y024660D01*
X019276Y024044D02*
X019276Y023814D01*
X019429Y023890D01*
X019506Y023890D01*
X019583Y023814D01*
X019583Y023660D01*
X019506Y023583D01*
X019352Y023583D01*
X019276Y023660D01*
X019122Y023583D02*
X018969Y023737D01*
X019046Y023737D02*
X018815Y023737D01*
X018815Y023583D02*
X018815Y024044D01*
X019046Y024044D01*
X019122Y023967D01*
X019122Y023814D01*
X019046Y023737D01*
X019276Y024044D02*
X019583Y024044D01*
X019583Y023044D02*
X019429Y022967D01*
X019276Y022814D01*
X019506Y022814D01*
X019583Y022737D01*
X019583Y022660D01*
X019506Y022583D01*
X019352Y022583D01*
X019276Y022660D01*
X019276Y022814D01*
X019122Y022814D02*
X019046Y022737D01*
X018815Y022737D01*
X018815Y022583D02*
X018815Y023044D01*
X019046Y023044D01*
X019122Y022967D01*
X019122Y022814D01*
X018969Y022737D02*
X019122Y022583D01*
X019046Y022044D02*
X018815Y022044D01*
X018815Y021583D01*
X018815Y021737D02*
X019046Y021737D01*
X019122Y021814D01*
X019122Y021967D01*
X019046Y022044D01*
X019276Y022044D02*
X019583Y022044D01*
X019583Y021967D01*
X019276Y021660D01*
X019276Y021583D01*
X019122Y021583D02*
X018969Y021737D01*
X018617Y021164D02*
X018463Y021010D01*
X018310Y021087D02*
X018233Y021164D01*
X018080Y021164D01*
X018003Y021087D01*
X018003Y020780D01*
X018080Y020703D01*
X018233Y020703D01*
X018310Y020780D01*
X018463Y020703D02*
X018770Y020703D01*
X018617Y020703D02*
X018617Y021164D01*
X017850Y021164D02*
X017696Y021164D01*
X017773Y021164D02*
X017773Y020703D01*
X017696Y020703D02*
X017850Y020703D01*
X017766Y019564D02*
X017613Y019564D01*
X017536Y019487D01*
X017536Y019180D01*
X017613Y019103D01*
X017766Y019103D01*
X017843Y019180D01*
X017996Y019334D02*
X018303Y019334D01*
X018227Y019564D02*
X018227Y019103D01*
X017996Y019334D02*
X018227Y019564D01*
X017843Y019487D02*
X017766Y019564D01*
X017012Y018987D02*
X018762Y018987D01*
X018762Y017887D01*
X017012Y017887D01*
X017012Y018987D01*
X016366Y018885D02*
X016289Y018961D01*
X016366Y018885D02*
X016366Y018731D01*
X016289Y018655D01*
X015982Y018655D01*
X015906Y018731D01*
X015906Y018885D01*
X015982Y018961D01*
X015906Y019115D02*
X016366Y019115D01*
X016213Y019115D02*
X015906Y019422D01*
X016136Y019192D02*
X016366Y019422D01*
X016366Y018501D02*
X016059Y018501D01*
X015906Y018348D01*
X016059Y018194D01*
X016366Y018194D01*
X016366Y018041D02*
X016366Y017734D01*
X015906Y017734D01*
X015982Y017580D02*
X015906Y017504D01*
X015906Y017273D01*
X016366Y017273D01*
X016366Y017504D01*
X016289Y017580D01*
X016213Y017580D01*
X016136Y017504D01*
X016136Y017273D01*
X016136Y017504D02*
X016059Y017580D01*
X015982Y017580D01*
X015616Y017734D02*
X015616Y018041D01*
X015616Y018194D02*
X015616Y018501D01*
X015616Y018194D02*
X015156Y018194D01*
X015156Y018041D02*
X015156Y017734D01*
X015616Y017734D01*
X015386Y017734D02*
X015386Y017887D01*
X015386Y017580D02*
X015232Y017580D01*
X015156Y017504D01*
X015156Y017273D01*
X015616Y017273D01*
X015463Y017273D02*
X015463Y017504D01*
X015386Y017580D01*
X014866Y017580D02*
X014713Y017427D01*
X014713Y017504D02*
X014713Y017273D01*
X014866Y017273D02*
X014406Y017273D01*
X014406Y017504D01*
X014482Y017580D01*
X014636Y017580D01*
X014713Y017504D01*
X014636Y017734D02*
X014636Y017887D01*
X014406Y017734D02*
X014866Y017734D01*
X014866Y018041D01*
X014866Y018194D02*
X014866Y018424D01*
X014789Y018501D01*
X014482Y018501D01*
X014406Y018424D01*
X014406Y018194D01*
X014866Y018194D01*
X014406Y018041D02*
X014406Y017734D01*
X015156Y018655D02*
X015156Y018961D01*
X015156Y018808D02*
X015616Y018808D01*
X016136Y018501D02*
X016136Y018194D01*
X017266Y016034D02*
X017496Y016034D01*
X017573Y015957D01*
X017573Y015804D01*
X017496Y015727D01*
X017266Y015727D01*
X017420Y015727D02*
X017573Y015573D01*
X017726Y015573D02*
X017726Y016034D01*
X018033Y016034D01*
X018187Y015957D02*
X018187Y015650D01*
X018264Y015573D01*
X018417Y015573D01*
X018494Y015650D01*
X018494Y015804D01*
X018340Y015804D01*
X018187Y015957D02*
X018264Y016034D01*
X018417Y016034D01*
X018494Y015957D01*
X018033Y015573D02*
X017726Y015573D01*
X017726Y015804D02*
X017880Y015804D01*
X017266Y016034D02*
X017266Y015573D01*
X017120Y013207D02*
X017120Y012900D01*
X016966Y013054D02*
X017273Y013054D01*
X017193Y011694D02*
X017347Y011694D01*
X017423Y011617D01*
X017423Y011540D01*
X017347Y011464D01*
X017423Y011387D01*
X017423Y011310D01*
X017347Y011233D01*
X017193Y011233D01*
X017116Y011310D01*
X016963Y011310D02*
X016886Y011233D01*
X016733Y011233D01*
X016656Y011310D01*
X016656Y011617D01*
X016733Y011694D01*
X016886Y011694D01*
X016963Y011617D01*
X017116Y011617D02*
X017193Y011694D01*
X017270Y011464D02*
X017347Y011464D01*
X014147Y008194D02*
X013994Y008194D01*
X013917Y008117D01*
X014147Y008194D02*
X014224Y008117D01*
X014224Y008040D01*
X013917Y007733D01*
X014224Y007733D01*
X013763Y007733D02*
X013456Y007733D01*
X013303Y007733D02*
X013150Y007887D01*
X013226Y007887D02*
X012996Y007887D01*
X012996Y007733D02*
X012996Y008194D01*
X013226Y008194D01*
X013303Y008117D01*
X013303Y007964D01*
X013226Y007887D01*
X013456Y008040D02*
X013610Y008194D01*
X013610Y007733D01*
X012373Y007484D02*
X012066Y007484D01*
X012066Y007254D01*
X012219Y007330D01*
X012296Y007330D01*
X012373Y007254D01*
X012373Y007100D01*
X012296Y007023D01*
X012142Y007023D01*
X012066Y007100D01*
X011912Y007100D02*
X011836Y007023D01*
X011682Y007023D01*
X011605Y007100D01*
X011605Y007407D01*
X011682Y007484D01*
X011836Y007484D01*
X011912Y007407D01*
X011912Y007100D01*
X011912Y007023D02*
X011759Y007177D01*
X010173Y007073D02*
X009866Y007073D01*
X010173Y007380D01*
X010173Y007457D01*
X010096Y007534D01*
X009942Y007534D01*
X009866Y007457D01*
X009712Y007457D02*
X009712Y007150D01*
X009636Y007073D01*
X009405Y007073D01*
X009405Y007534D01*
X009636Y007534D01*
X009712Y007457D01*
X005354Y011153D02*
X005354Y011614D01*
X005124Y011384D01*
X005431Y011384D01*
X004970Y011153D02*
X004970Y011614D01*
X004663Y011614D02*
X004970Y011153D01*
X004663Y011153D02*
X004663Y011614D01*
X004510Y011614D02*
X004356Y011614D01*
X004433Y011614D02*
X004433Y011153D01*
X004356Y011153D02*
X004510Y011153D01*
X004203Y011230D02*
X004203Y011537D01*
X004126Y011614D01*
X003896Y011614D01*
X003896Y011153D01*
X004126Y011153D01*
X004203Y011230D01*
X004212Y008294D02*
X004135Y008217D01*
X004135Y007910D01*
X004212Y007833D01*
X004366Y007833D01*
X004442Y007910D01*
X004596Y007833D02*
X004596Y008294D01*
X004442Y008217D02*
X004366Y008294D01*
X004212Y008294D01*
X003982Y008140D02*
X003982Y007833D01*
X003982Y008064D02*
X003675Y008064D01*
X003675Y008140D02*
X003828Y008294D01*
X003982Y008140D01*
X003675Y008140D02*
X003675Y007833D01*
X003445Y007910D02*
X003445Y008294D01*
X003521Y008294D02*
X003368Y008294D01*
X003445Y007910D02*
X003368Y007833D01*
X003291Y007833D01*
X003215Y007910D01*
X004596Y007987D02*
X004903Y008294D01*
X004672Y008064D02*
X004903Y007833D01*
X008926Y012043D02*
X008926Y012504D01*
X009156Y012504D01*
X009233Y012427D01*
X009233Y012274D01*
X009156Y012197D01*
X008926Y012197D01*
X009080Y012197D02*
X009233Y012043D01*
X009386Y012043D02*
X009693Y012043D01*
X009847Y012043D02*
X009847Y012504D01*
X009693Y012504D02*
X009386Y012504D01*
X009386Y012043D01*
X009386Y012274D02*
X009540Y012274D01*
X009847Y012043D02*
X010154Y012043D01*
X010307Y012043D02*
X010307Y012350D01*
X010461Y012504D01*
X010614Y012350D01*
X010614Y012043D01*
X010614Y012274D02*
X010307Y012274D01*
X010768Y012427D02*
X010921Y012274D01*
X010921Y012043D01*
X010921Y012274D02*
X011075Y012427D01*
X011075Y012504D01*
X010768Y012504D02*
X010768Y012427D01*
X005793Y017333D02*
X005486Y017333D01*
X005639Y017333D02*
X005639Y017794D01*
X005486Y017640D01*
X005332Y017717D02*
X005332Y017410D01*
X005256Y017333D01*
X005025Y017333D01*
X005025Y017794D01*
X005256Y017794D01*
X005332Y017717D01*
X004443Y017414D02*
X004136Y017414D01*
X004366Y017644D01*
X004366Y017183D01*
X003982Y017183D02*
X003829Y017337D01*
X003982Y017260D02*
X003906Y017183D01*
X003752Y017183D01*
X003675Y017260D01*
X003675Y017567D01*
X003752Y017644D01*
X003906Y017644D01*
X003982Y017567D01*
X003982Y017260D01*
X002703Y017723D02*
X002396Y017723D01*
X002549Y017723D02*
X002549Y018184D01*
X002396Y018030D01*
X002242Y017723D02*
X001935Y017723D01*
X001782Y017723D02*
X001628Y017877D01*
X001705Y017877D02*
X001475Y017877D01*
X001475Y017723D02*
X001475Y018184D01*
X001705Y018184D01*
X001782Y018107D01*
X001782Y017954D01*
X001705Y017877D01*
X001935Y018030D02*
X002089Y018184D01*
X002089Y017723D01*
X002152Y019523D02*
X002075Y019600D01*
X002075Y019907D01*
X002152Y019984D01*
X002306Y019984D01*
X002382Y019907D01*
X002382Y019600D01*
X002306Y019523D01*
X002152Y019523D01*
X002229Y019677D02*
X002382Y019523D01*
X002536Y019600D02*
X002612Y019523D01*
X002766Y019523D01*
X002843Y019600D01*
X002843Y019677D01*
X002766Y019754D01*
X002536Y019754D01*
X002536Y019600D01*
X002536Y019754D02*
X002689Y019907D01*
X002843Y019984D01*
X002766Y022523D02*
X002843Y022600D01*
X002843Y022677D01*
X002766Y022754D01*
X002536Y022754D01*
X002536Y022600D01*
X002612Y022523D01*
X002766Y022523D01*
X002536Y022754D02*
X002689Y022907D01*
X002843Y022984D01*
X002382Y022523D02*
X002075Y022523D01*
X001922Y022523D02*
X001768Y022677D01*
X001845Y022677D02*
X001615Y022677D01*
X001615Y022523D02*
X001615Y022984D01*
X001845Y022984D01*
X001922Y022907D01*
X001922Y022754D01*
X001845Y022677D01*
X002075Y022830D02*
X002229Y022984D01*
X002229Y022523D01*
X002229Y023523D02*
X002229Y023984D01*
X002075Y023830D01*
X001922Y023754D02*
X001845Y023677D01*
X001615Y023677D01*
X001768Y023677D02*
X001922Y023523D01*
X002075Y023523D02*
X002382Y023523D01*
X002536Y023600D02*
X002612Y023523D01*
X002766Y023523D01*
X002843Y023600D01*
X002843Y023754D01*
X002766Y023830D01*
X002689Y023830D01*
X002536Y023754D01*
X002536Y023984D01*
X002843Y023984D01*
X002843Y024523D02*
X002536Y024523D01*
X002689Y024523D02*
X002689Y024984D01*
X002536Y024830D01*
X002382Y024830D02*
X002382Y024907D01*
X002306Y024984D01*
X002152Y024984D01*
X002075Y024907D01*
X001922Y024907D02*
X001922Y024754D01*
X001845Y024677D01*
X001615Y024677D01*
X001768Y024677D02*
X001922Y024523D01*
X002075Y024523D02*
X002382Y024830D01*
X002382Y024523D02*
X002075Y024523D01*
X001922Y024907D02*
X001845Y024984D01*
X001615Y024984D01*
X001615Y024523D01*
X001615Y023984D02*
X001845Y023984D01*
X001922Y023907D01*
X001922Y023754D01*
X001615Y023984D02*
X001615Y023523D01*
X002152Y025523D02*
X002075Y025600D01*
X002075Y025907D01*
X002152Y025984D01*
X002306Y025984D01*
X002382Y025907D01*
X002382Y025600D01*
X002306Y025523D01*
X002152Y025523D01*
X002229Y025677D02*
X002382Y025523D01*
X002536Y025600D02*
X002612Y025523D01*
X002766Y025523D01*
X002843Y025600D01*
X002843Y025677D01*
X002766Y025754D01*
X002689Y025754D01*
X002766Y025754D02*
X002843Y025830D01*
X002843Y025907D01*
X002766Y025984D01*
X002612Y025984D01*
X002536Y025907D01*
X002612Y026523D02*
X002536Y026600D01*
X002843Y026907D01*
X002843Y026600D01*
X002766Y026523D01*
X002612Y026523D01*
X002536Y026600D02*
X002536Y026907D01*
X002612Y026984D01*
X002766Y026984D01*
X002843Y026907D01*
X002382Y026907D02*
X002306Y026984D01*
X002152Y026984D01*
X002075Y026907D01*
X001922Y026907D02*
X001845Y026984D01*
X001615Y026984D01*
X001615Y026523D01*
X001615Y026677D02*
X001845Y026677D01*
X001922Y026754D01*
X001922Y026907D01*
X001768Y026677D02*
X001922Y026523D01*
X002075Y026523D02*
X002382Y026830D01*
X002382Y026907D01*
X002382Y026523D02*
X002075Y026523D01*
X004885Y026414D02*
X004885Y025953D01*
X004885Y026184D02*
X005038Y026184D01*
X004885Y026414D02*
X005192Y026414D01*
X005345Y026260D02*
X005499Y026414D01*
X005652Y026260D01*
X005652Y025953D01*
X005806Y025953D02*
X005806Y026414D01*
X006113Y025953D01*
X006113Y026414D01*
X005652Y026184D02*
X005345Y026184D01*
X005345Y026260D02*
X005345Y025953D01*
X006935Y026074D02*
X006935Y025613D01*
X006935Y025767D02*
X007165Y025767D01*
X007242Y025844D01*
X007242Y025997D01*
X007165Y026074D01*
X006935Y026074D01*
X007088Y025767D02*
X007242Y025613D01*
X007395Y025613D02*
X007702Y025613D01*
X007549Y025613D02*
X007549Y026074D01*
X007395Y025920D01*
X007856Y025920D02*
X007856Y025997D01*
X007932Y026074D01*
X008086Y026074D01*
X008163Y025997D01*
X008163Y025920D01*
X008086Y025844D01*
X007932Y025844D01*
X007856Y025920D01*
X007932Y025844D02*
X007856Y025767D01*
X007856Y025690D01*
X007932Y025613D01*
X008086Y025613D01*
X008163Y025690D01*
X008163Y025767D01*
X008086Y025844D01*
X007310Y023704D02*
X007156Y023550D01*
X007003Y023627D02*
X007003Y023320D01*
X006926Y023243D01*
X006773Y023243D01*
X006696Y023320D01*
X006696Y023627D01*
X006773Y023704D01*
X006926Y023704D01*
X007003Y023627D01*
X006850Y023397D02*
X007003Y023243D01*
X007156Y023243D02*
X007463Y023243D01*
X007310Y023243D02*
X007310Y023704D01*
X011445Y019947D02*
X011445Y019640D01*
X011522Y019563D01*
X011676Y019563D01*
X011752Y019640D01*
X011906Y019563D02*
X012213Y019563D01*
X012059Y019563D02*
X012059Y020024D01*
X011906Y019870D01*
X011752Y019947D02*
X011676Y020024D01*
X011522Y020024D01*
X011445Y019947D01*
X021204Y029820D02*
X021291Y029820D01*
X021378Y029907D01*
X021378Y030340D01*
X021378Y030514D02*
X021378Y030601D01*
X021635Y030340D02*
X021808Y030340D01*
X021895Y030254D01*
X021895Y029993D01*
X021635Y029993D01*
X021548Y030080D01*
X021635Y030167D01*
X021895Y030167D01*
X022063Y030167D02*
X022324Y030167D01*
X022410Y030254D01*
X022410Y030427D01*
X022324Y030514D01*
X022063Y030514D01*
X022063Y029993D01*
X022579Y030080D02*
X022666Y029993D01*
X022839Y029993D01*
X022926Y030080D01*
X023095Y029993D02*
X023355Y029993D01*
X023442Y030080D01*
X023442Y030167D01*
X023355Y030254D01*
X023095Y030254D01*
X022926Y030427D02*
X022839Y030514D01*
X022666Y030514D01*
X022579Y030427D01*
X022579Y030080D01*
X023095Y029993D02*
X023095Y030514D01*
X023355Y030514D01*
X023442Y030427D01*
X023442Y030340D01*
X023355Y030254D01*
X024126Y030340D02*
X024299Y029993D01*
X024473Y030340D01*
X024642Y030254D02*
X024728Y030340D01*
X024902Y030340D01*
X024989Y030254D01*
X024989Y030167D01*
X024642Y030167D01*
X024642Y030080D02*
X024642Y030254D01*
X024642Y030080D02*
X024728Y029993D01*
X024902Y029993D01*
X025157Y029993D02*
X025157Y030340D01*
X025157Y030167D02*
X025331Y030340D01*
X025418Y030340D01*
X025587Y030427D02*
X025674Y030514D01*
X025847Y030514D01*
X025934Y030427D01*
X025934Y030340D01*
X025587Y029993D01*
X025934Y029993D01*
X026103Y029993D02*
X026189Y029993D01*
X026189Y030080D01*
X026103Y030080D01*
X026103Y029993D01*
X026360Y029993D02*
X026707Y029993D01*
X026534Y029993D02*
X026534Y030514D01*
X026360Y030340D01*
X023540Y028974D02*
X023540Y028513D01*
X023387Y028513D02*
X023694Y028513D01*
X023387Y028820D02*
X023540Y028974D01*
X023233Y028897D02*
X023233Y028744D01*
X023157Y028667D01*
X022926Y028667D01*
X022926Y028513D02*
X022926Y028974D01*
X023157Y028974D01*
X023233Y028897D01*
X022773Y028897D02*
X022696Y028974D01*
X022543Y028974D01*
X022466Y028897D01*
X022466Y028590D01*
X022543Y028513D01*
X022696Y028513D01*
X022773Y028590D01*
X021035Y029993D02*
X021035Y030254D01*
X020949Y030340D01*
X020688Y030340D01*
X020688Y029993D01*
X020518Y029993D02*
X020345Y029993D01*
X020431Y029993D02*
X020431Y030340D01*
X020345Y030340D01*
X020431Y030514D02*
X020431Y030601D01*
X020176Y030514D02*
X020176Y029993D01*
X019829Y030514D01*
X019829Y029993D01*
X030466Y025923D02*
X030466Y025770D01*
X030542Y025693D01*
X030466Y025923D02*
X030542Y026000D01*
X030619Y026000D01*
X030926Y025693D01*
X030926Y026000D01*
X030926Y025539D02*
X030926Y025233D01*
X030926Y025386D02*
X030466Y025386D01*
X030619Y025233D01*
X030696Y025079D02*
X030696Y024772D01*
X030696Y024619D02*
X030542Y024619D01*
X030466Y024542D01*
X030466Y024312D01*
X030926Y024312D01*
X030773Y024312D02*
X030773Y024542D01*
X030696Y024619D01*
X030773Y024158D02*
X030849Y024158D01*
X030926Y024082D01*
X030926Y023928D01*
X030849Y023851D01*
X030696Y023928D02*
X030696Y024082D01*
X030773Y024158D01*
X030542Y024158D02*
X030466Y024082D01*
X030466Y023928D01*
X030542Y023851D01*
X030619Y023851D01*
X030696Y023928D01*
X030926Y023698D02*
X030926Y023391D01*
X030466Y023391D01*
X030466Y023698D01*
X030696Y023544D02*
X030696Y023391D01*
X029156Y018534D02*
X029002Y018534D01*
X028926Y018457D01*
X028772Y018457D02*
X028772Y018304D01*
X028696Y018227D01*
X028465Y018227D01*
X028465Y018073D02*
X028465Y018534D01*
X028696Y018534D01*
X028772Y018457D01*
X029156Y018534D02*
X029233Y018457D01*
X029233Y018380D01*
X028926Y018073D01*
X029233Y018073D01*
X028312Y018150D02*
X028235Y018073D01*
X028082Y018073D01*
X028005Y018150D01*
X028005Y018457D01*
X028082Y018534D01*
X028235Y018534D01*
X028312Y018457D01*
X030556Y016863D02*
X030556Y016710D01*
X030632Y016633D01*
X030632Y016479D02*
X030939Y016173D01*
X031016Y016249D01*
X031016Y016403D01*
X030939Y016479D01*
X030632Y016479D01*
X030556Y016403D01*
X030556Y016249D01*
X030632Y016173D01*
X030939Y016173D01*
X030786Y016019D02*
X030786Y015712D01*
X030556Y015559D02*
X031016Y015559D01*
X031016Y015252D02*
X030556Y015252D01*
X030709Y015405D01*
X030556Y015559D01*
X030632Y015098D02*
X030556Y015022D01*
X030556Y014868D01*
X030632Y014791D01*
X030939Y014791D01*
X031016Y014868D01*
X031016Y015022D01*
X030939Y015098D01*
X030632Y015098D01*
X030632Y014638D02*
X030556Y014561D01*
X030556Y014408D01*
X030632Y014331D01*
X030939Y014331D01*
X031016Y014408D01*
X031016Y014561D01*
X030939Y014638D01*
X030632Y014638D01*
X030632Y014178D02*
X030786Y014178D01*
X030863Y014101D01*
X030863Y013871D01*
X030863Y014024D02*
X031016Y014178D01*
X031016Y013871D02*
X030556Y013871D01*
X030556Y014101D01*
X030632Y014178D01*
X030556Y013717D02*
X031016Y013717D01*
X030863Y013564D01*
X031016Y013410D01*
X030556Y013410D01*
X030786Y013257D02*
X030786Y012950D01*
X030786Y012796D02*
X030863Y012720D01*
X030863Y012489D01*
X030863Y012336D02*
X030939Y012336D01*
X031016Y012259D01*
X031016Y012106D01*
X030939Y012029D01*
X030786Y012106D02*
X030786Y012259D01*
X030863Y012336D01*
X031016Y012489D02*
X030556Y012489D01*
X030556Y012720D01*
X030632Y012796D01*
X030786Y012796D01*
X030632Y012336D02*
X030556Y012259D01*
X030556Y012106D01*
X030632Y012029D01*
X030709Y012029D01*
X030786Y012106D01*
X031016Y011876D02*
X031016Y011569D01*
X030556Y011569D01*
X030556Y011876D01*
X030786Y011722D02*
X030786Y011569D01*
X031016Y016633D02*
X030709Y016940D01*
X030632Y016940D01*
X030556Y016863D01*
X031016Y016940D02*
X031016Y016633D01*
X028839Y003951D02*
X028916Y003874D01*
X028916Y003720D01*
X028839Y003644D01*
X028763Y003644D01*
X028686Y003720D01*
X028686Y003874D01*
X028763Y003951D01*
X028839Y003951D01*
X028686Y003874D02*
X028609Y003951D01*
X028532Y003951D01*
X028456Y003874D01*
X028456Y003720D01*
X028532Y003644D01*
X028609Y003644D01*
X028686Y003720D01*
X028686Y003490D02*
X028532Y003490D01*
X028456Y003414D01*
X028456Y003183D01*
X028916Y003183D01*
X028763Y003183D02*
X028763Y003414D01*
X028686Y003490D01*
X028763Y003337D02*
X028916Y003490D01*
X026666Y003490D02*
X026513Y003337D01*
X026513Y003414D02*
X026513Y003183D01*
X026666Y003183D02*
X026206Y003183D01*
X026206Y003414D01*
X026282Y003490D01*
X026436Y003490D01*
X026513Y003414D01*
X026666Y003644D02*
X026666Y003951D01*
X026666Y003797D02*
X026206Y003797D01*
X026359Y003644D01*
X007476Y030083D02*
X007476Y030543D01*
X007476Y030313D02*
X007169Y030313D01*
X007016Y030390D02*
X006786Y030390D01*
X006709Y030313D01*
X006709Y030160D01*
X006786Y030083D01*
X007016Y030083D01*
X007016Y030543D01*
X007169Y030543D02*
X007169Y030083D01*
X006555Y030083D02*
X006555Y030543D01*
X006402Y030390D01*
X006248Y030543D01*
X006248Y030083D01*
X006095Y030083D02*
X005865Y030083D01*
X005788Y030160D01*
X005788Y030313D01*
X005865Y030390D01*
X006095Y030390D01*
X006095Y030543D02*
X006095Y030083D01*
X005941Y030390D02*
X005788Y030543D01*
X005635Y030390D02*
X005635Y030236D01*
X005481Y030083D01*
X005328Y030083D02*
X005328Y030543D01*
X005174Y030390D01*
X005021Y030543D01*
X005021Y030083D01*
X004867Y030083D02*
X004867Y030543D01*
X004867Y030313D02*
X004560Y030313D01*
X004560Y030083D02*
X004560Y030543D01*
X004407Y030543D02*
X004253Y030543D01*
X004330Y030543D02*
X004330Y030083D01*
X004407Y030083D02*
X004253Y030083D01*
X004100Y030083D02*
X003793Y030083D01*
X003946Y030083D02*
X003946Y030543D01*
X003639Y030543D02*
X003333Y030543D01*
X003179Y030543D02*
X003026Y030390D01*
X003026Y030236D01*
X003179Y030083D01*
X003333Y030083D02*
X003639Y030083D01*
X003639Y030543D01*
X003639Y030313D02*
X003486Y030313D01*
X005481Y030543D02*
X005635Y030390D01*
D13*
X002870Y027927D02*
X002623Y027680D01*
X002501Y027680D02*
X002501Y027927D01*
X002440Y027989D01*
X002316Y027989D01*
X002254Y027927D01*
X002254Y027865D01*
X002316Y027803D01*
X002501Y027803D01*
X002623Y027803D02*
X002870Y027803D01*
X002870Y027680D02*
X002623Y027927D01*
X002746Y027927D02*
X002746Y027680D01*
X002501Y027680D02*
X002440Y027618D01*
X002316Y027618D01*
X002254Y027680D01*
X002133Y027618D02*
X001886Y027618D01*
X001765Y027618D02*
X001641Y027742D01*
X001703Y027742D02*
X001518Y027742D01*
X001518Y027618D02*
X001518Y027989D01*
X001703Y027989D01*
X001765Y027927D01*
X001765Y027803D01*
X001703Y027742D01*
X001886Y027865D02*
X002010Y027989D01*
X002010Y027618D01*
X002010Y021989D02*
X001886Y021865D01*
X001765Y021927D02*
X001765Y021803D01*
X001703Y021742D01*
X001518Y021742D01*
X001641Y021742D02*
X001765Y021618D01*
X001886Y021618D02*
X002133Y021618D01*
X002010Y021618D02*
X002010Y021989D01*
X002254Y021927D02*
X002316Y021989D01*
X002440Y021989D01*
X002501Y021927D01*
X002501Y021865D01*
X002440Y021803D01*
X002501Y021742D01*
X002501Y021680D01*
X002440Y021618D01*
X002316Y021618D01*
X002254Y021680D01*
X002378Y021803D02*
X002440Y021803D01*
X002623Y021803D02*
X002870Y021803D01*
X002870Y021680D02*
X002623Y021927D01*
X002746Y021927D02*
X002746Y021680D01*
X002623Y021680D02*
X002870Y021927D01*
X002870Y020927D02*
X002623Y020680D01*
X002746Y020680D02*
X002746Y020927D01*
X002623Y020927D02*
X002870Y020680D01*
X002870Y020803D02*
X002623Y020803D01*
X002501Y020803D02*
X002254Y020803D01*
X002440Y020989D01*
X002440Y020618D01*
X002133Y020618D02*
X001886Y020618D01*
X001765Y020618D02*
X001641Y020742D01*
X001703Y020742D02*
X001518Y020742D01*
X001518Y020618D02*
X001518Y020989D01*
X001703Y020989D01*
X001765Y020927D01*
X001765Y020803D01*
X001703Y020742D01*
X001886Y020865D02*
X002010Y020989D01*
X002010Y020618D01*
X001518Y021618D02*
X001518Y021989D01*
X001703Y021989D01*
X001765Y021927D01*
X009111Y026035D02*
X009111Y026220D01*
X009173Y026282D01*
X009296Y026282D01*
X009358Y026220D01*
X009358Y026035D01*
X009481Y026035D02*
X009111Y026035D01*
X009358Y026159D02*
X009481Y026282D01*
X009481Y026403D02*
X009481Y026650D01*
X009481Y026772D02*
X009419Y026772D01*
X009173Y027019D01*
X009111Y027019D01*
X009111Y026772D01*
X009111Y026527D02*
X009481Y026527D01*
X009234Y026403D02*
X009111Y026527D01*
X009173Y027140D02*
X009419Y027387D01*
X009296Y027387D02*
X009296Y027140D01*
X009419Y027140D02*
X009173Y027387D01*
X009173Y027263D02*
X009419Y027263D01*
X015031Y028568D02*
X015031Y028939D01*
X015216Y028939D01*
X015278Y028877D01*
X015278Y028753D01*
X015216Y028692D01*
X015031Y028692D01*
X015155Y028692D02*
X015278Y028568D01*
X015523Y028568D02*
X015523Y028939D01*
X015646Y028939D02*
X015399Y028939D01*
X015768Y028877D02*
X016015Y028630D01*
X016015Y028753D02*
X015768Y028753D01*
X015768Y028630D02*
X016015Y028877D01*
X015891Y028877D02*
X015891Y028630D01*
D14*
X014956Y028553D02*
X013856Y028553D01*
X013856Y029053D01*
X014956Y029053D01*
X014956Y028553D01*
X014956Y028053D02*
X014956Y027553D01*
X013856Y027553D01*
X013856Y028053D01*
X014956Y028053D01*
X014956Y027053D02*
X013856Y027053D01*
X013856Y026553D01*
X014956Y026553D01*
X014956Y027053D01*
X014956Y026053D02*
X013856Y026053D01*
X013856Y025553D01*
X014956Y025553D01*
X014956Y026053D01*
X014956Y025053D02*
X013856Y025053D01*
X013856Y024553D01*
X014956Y024553D01*
X014956Y025053D01*
X014956Y024053D02*
X013856Y024053D01*
X013856Y023553D01*
X014956Y023553D01*
X014956Y024053D01*
X015091Y023259D02*
X013556Y023259D01*
X013556Y019361D01*
X015091Y019361D01*
X015091Y023259D01*
X013684Y022806D02*
X013686Y022842D01*
X013692Y022877D01*
X013702Y022912D01*
X013715Y022945D01*
X013732Y022976D01*
X013753Y023006D01*
X013776Y023033D01*
X013802Y023057D01*
X013831Y023078D01*
X013862Y023096D01*
X013895Y023110D01*
X013929Y023121D01*
X013964Y023128D01*
X014000Y023131D01*
X014036Y023130D01*
X014071Y023125D01*
X014106Y023116D01*
X014140Y023104D01*
X014171Y023087D01*
X014201Y023068D01*
X014229Y023045D01*
X014254Y023019D01*
X014276Y022991D01*
X014295Y022961D01*
X014310Y022928D01*
X014322Y022894D01*
X014330Y022859D01*
X014334Y022824D01*
X014334Y022788D01*
X014330Y022753D01*
X014322Y022718D01*
X014310Y022684D01*
X014295Y022651D01*
X014276Y022621D01*
X014254Y022593D01*
X014229Y022567D01*
X014201Y022544D01*
X014172Y022525D01*
X014140Y022508D01*
X014106Y022496D01*
X014071Y022487D01*
X014036Y022482D01*
X014000Y022481D01*
X013964Y022484D01*
X013929Y022491D01*
X013895Y022502D01*
X013862Y022516D01*
X013831Y022534D01*
X013802Y022555D01*
X013776Y022579D01*
X013753Y022606D01*
X013732Y022636D01*
X013715Y022667D01*
X013702Y022700D01*
X013692Y022735D01*
X013686Y022770D01*
X013684Y022806D01*
X011986Y022159D02*
X011786Y022159D01*
X011886Y022259D02*
X011886Y022059D01*
X012417Y020857D02*
X012917Y020857D01*
X012917Y019757D01*
X012417Y019757D01*
X012417Y020857D01*
X013739Y019026D02*
X007361Y019026D01*
X007361Y009656D01*
X013739Y009656D01*
X013739Y019026D01*
X013920Y019021D02*
X013922Y019049D01*
X013928Y019076D01*
X013937Y019102D01*
X013950Y019127D01*
X013967Y019150D01*
X013986Y019170D01*
X014008Y019187D01*
X014032Y019201D01*
X014058Y019211D01*
X014085Y019218D01*
X014113Y019221D01*
X014141Y019220D01*
X014168Y019215D01*
X014195Y019206D01*
X014220Y019194D01*
X014243Y019179D01*
X014264Y019160D01*
X014282Y019139D01*
X014297Y019115D01*
X014308Y019089D01*
X014316Y019063D01*
X014320Y019035D01*
X014320Y019007D01*
X014316Y018979D01*
X014308Y018953D01*
X014297Y018927D01*
X014282Y018903D01*
X014264Y018882D01*
X014243Y018863D01*
X014220Y018848D01*
X014195Y018836D01*
X014168Y018827D01*
X014141Y018822D01*
X014113Y018821D01*
X014085Y018824D01*
X014058Y018831D01*
X014032Y018841D01*
X014008Y018855D01*
X013986Y018872D01*
X013967Y018892D01*
X013950Y018915D01*
X013937Y018940D01*
X013928Y018966D01*
X013922Y018993D01*
X013920Y019021D01*
X014013Y017149D02*
X014013Y016598D01*
X016769Y016598D01*
X016769Y014945D01*
X014013Y014945D01*
X014013Y016598D01*
X014601Y016811D02*
X014701Y016711D01*
X014801Y016811D01*
X014601Y016811D01*
X014701Y016711D02*
X014701Y017061D01*
X014013Y017149D02*
X016769Y017149D01*
X016769Y016598D01*
X016181Y016811D02*
X015981Y016811D01*
X016081Y016711D01*
X016181Y016811D01*
X016081Y016711D02*
X016081Y017061D01*
X015481Y015771D02*
X015483Y015819D01*
X015489Y015867D01*
X015499Y015914D01*
X015512Y015960D01*
X015530Y016005D01*
X015550Y016049D01*
X015575Y016091D01*
X015603Y016130D01*
X015633Y016167D01*
X015667Y016201D01*
X015704Y016233D01*
X015742Y016262D01*
X015783Y016287D01*
X015826Y016309D01*
X015871Y016327D01*
X015917Y016341D01*
X015964Y016352D01*
X016012Y016359D01*
X016060Y016362D01*
X016108Y016361D01*
X016156Y016356D01*
X016204Y016347D01*
X016250Y016335D01*
X016295Y016318D01*
X016339Y016298D01*
X016381Y016275D01*
X016421Y016248D01*
X016459Y016218D01*
X016494Y016185D01*
X016526Y016149D01*
X016556Y016111D01*
X016582Y016070D01*
X016604Y016027D01*
X016624Y015983D01*
X016639Y015938D01*
X016651Y015891D01*
X016659Y015843D01*
X016663Y015795D01*
X016663Y015747D01*
X016659Y015699D01*
X016651Y015651D01*
X016639Y015604D01*
X016624Y015559D01*
X016604Y015515D01*
X016582Y015472D01*
X016556Y015431D01*
X016526Y015393D01*
X016494Y015357D01*
X016459Y015324D01*
X016421Y015294D01*
X016381Y015267D01*
X016339Y015244D01*
X016295Y015224D01*
X016250Y015207D01*
X016204Y015195D01*
X016156Y015186D01*
X016108Y015181D01*
X016060Y015180D01*
X016012Y015183D01*
X015964Y015190D01*
X015917Y015201D01*
X015871Y015215D01*
X015826Y015233D01*
X015783Y015255D01*
X015742Y015280D01*
X015704Y015309D01*
X015667Y015341D01*
X015633Y015375D01*
X015603Y015412D01*
X015575Y015451D01*
X015550Y015493D01*
X015530Y015537D01*
X015512Y015582D01*
X015499Y015628D01*
X015489Y015675D01*
X015483Y015723D01*
X015481Y015771D01*
X014119Y015771D02*
X014121Y015819D01*
X014127Y015867D01*
X014137Y015914D01*
X014150Y015960D01*
X014168Y016005D01*
X014188Y016049D01*
X014213Y016091D01*
X014241Y016130D01*
X014271Y016167D01*
X014305Y016201D01*
X014342Y016233D01*
X014380Y016262D01*
X014421Y016287D01*
X014464Y016309D01*
X014509Y016327D01*
X014555Y016341D01*
X014602Y016352D01*
X014650Y016359D01*
X014698Y016362D01*
X014746Y016361D01*
X014794Y016356D01*
X014842Y016347D01*
X014888Y016335D01*
X014933Y016318D01*
X014977Y016298D01*
X015019Y016275D01*
X015059Y016248D01*
X015097Y016218D01*
X015132Y016185D01*
X015164Y016149D01*
X015194Y016111D01*
X015220Y016070D01*
X015242Y016027D01*
X015262Y015983D01*
X015277Y015938D01*
X015289Y015891D01*
X015297Y015843D01*
X015301Y015795D01*
X015301Y015747D01*
X015297Y015699D01*
X015289Y015651D01*
X015277Y015604D01*
X015262Y015559D01*
X015242Y015515D01*
X015220Y015472D01*
X015194Y015431D01*
X015164Y015393D01*
X015132Y015357D01*
X015097Y015324D01*
X015059Y015294D01*
X015019Y015267D01*
X014977Y015244D01*
X014933Y015224D01*
X014888Y015207D01*
X014842Y015195D01*
X014794Y015186D01*
X014746Y015181D01*
X014698Y015180D01*
X014650Y015183D01*
X014602Y015190D01*
X014555Y015201D01*
X014509Y015215D01*
X014464Y015233D01*
X014421Y015255D01*
X014380Y015280D01*
X014342Y015309D01*
X014305Y015341D01*
X014271Y015375D01*
X014241Y015412D01*
X014213Y015451D01*
X014188Y015493D01*
X014168Y015537D01*
X014150Y015582D01*
X014137Y015628D01*
X014127Y015675D01*
X014121Y015723D01*
X014119Y015771D01*
X014013Y014945D02*
X014013Y014393D01*
X016769Y014393D01*
X016769Y014945D01*
X018062Y018337D02*
X018062Y018537D01*
X018162Y018437D02*
X017962Y018437D01*
X017560Y020995D02*
X016457Y020995D01*
X016457Y021625D01*
X017560Y021625D01*
X017560Y020995D01*
X017554Y021704D02*
X017556Y021726D01*
X017561Y021746D01*
X017571Y021766D01*
X017583Y021784D01*
X017598Y021799D01*
X017616Y021811D01*
X017636Y021821D01*
X017656Y021826D01*
X017678Y021828D01*
X017700Y021826D01*
X017720Y021821D01*
X017740Y021811D01*
X017758Y021799D01*
X017773Y021784D01*
X017785Y021766D01*
X017795Y021746D01*
X017800Y021726D01*
X017802Y021704D01*
X017800Y021682D01*
X017795Y021662D01*
X017785Y021642D01*
X017773Y021624D01*
X017758Y021609D01*
X017740Y021597D01*
X017720Y021587D01*
X017700Y021582D01*
X017678Y021580D01*
X017656Y021582D01*
X017636Y021587D01*
X017616Y021597D01*
X017598Y021609D01*
X017583Y021624D01*
X017571Y021642D01*
X017561Y021662D01*
X017556Y021682D01*
X017554Y021704D01*
X019656Y021553D02*
X019656Y022053D01*
X020756Y022053D01*
X020756Y021553D01*
X019656Y021553D01*
X019656Y022553D02*
X019656Y023053D01*
X020756Y023053D01*
X020756Y022553D01*
X019656Y022553D01*
X019656Y023553D02*
X019656Y024053D01*
X020756Y024053D01*
X020756Y023553D01*
X019656Y023553D01*
X019656Y024553D02*
X019656Y025053D01*
X020756Y025053D01*
X020756Y024553D01*
X019656Y024553D01*
X019656Y025553D02*
X019656Y026053D01*
X020756Y026053D01*
X020756Y025553D01*
X019656Y025553D01*
X019656Y026553D02*
X019656Y027053D01*
X020756Y027053D01*
X020756Y026553D01*
X019656Y026553D01*
X019656Y027553D02*
X019656Y028053D01*
X020756Y028053D01*
X020756Y027553D01*
X019656Y027553D01*
X019656Y028553D02*
X019656Y029053D01*
X020756Y029053D01*
X020756Y028553D01*
X019656Y028553D01*
X022475Y028393D02*
X022475Y027893D01*
X023575Y027893D01*
X023575Y028393D01*
X022475Y028393D01*
X013475Y028256D02*
X013475Y027704D01*
X010719Y027704D01*
X010719Y028256D01*
X013475Y028256D01*
X013475Y029909D01*
X010719Y029909D01*
X010719Y030460D01*
X013475Y030460D01*
X013475Y029909D01*
X012887Y030122D02*
X012687Y030122D01*
X012787Y030022D01*
X012887Y030122D01*
X012787Y030022D02*
X012787Y030372D01*
X012187Y029082D02*
X012189Y029130D01*
X012195Y029178D01*
X012205Y029225D01*
X012218Y029271D01*
X012236Y029316D01*
X012256Y029360D01*
X012281Y029402D01*
X012309Y029441D01*
X012339Y029478D01*
X012373Y029512D01*
X012410Y029544D01*
X012448Y029573D01*
X012489Y029598D01*
X012532Y029620D01*
X012577Y029638D01*
X012623Y029652D01*
X012670Y029663D01*
X012718Y029670D01*
X012766Y029673D01*
X012814Y029672D01*
X012862Y029667D01*
X012910Y029658D01*
X012956Y029646D01*
X013001Y029629D01*
X013045Y029609D01*
X013087Y029586D01*
X013127Y029559D01*
X013165Y029529D01*
X013200Y029496D01*
X013232Y029460D01*
X013262Y029422D01*
X013288Y029381D01*
X013310Y029338D01*
X013330Y029294D01*
X013345Y029249D01*
X013357Y029202D01*
X013365Y029154D01*
X013369Y029106D01*
X013369Y029058D01*
X013365Y029010D01*
X013357Y028962D01*
X013345Y028915D01*
X013330Y028870D01*
X013310Y028826D01*
X013288Y028783D01*
X013262Y028742D01*
X013232Y028704D01*
X013200Y028668D01*
X013165Y028635D01*
X013127Y028605D01*
X013087Y028578D01*
X013045Y028555D01*
X013001Y028535D01*
X012956Y028518D01*
X012910Y028506D01*
X012862Y028497D01*
X012814Y028492D01*
X012766Y028491D01*
X012718Y028494D01*
X012670Y028501D01*
X012623Y028512D01*
X012577Y028526D01*
X012532Y028544D01*
X012489Y028566D01*
X012448Y028591D01*
X012410Y028620D01*
X012373Y028652D01*
X012339Y028686D01*
X012309Y028723D01*
X012281Y028762D01*
X012256Y028804D01*
X012236Y028848D01*
X012218Y028893D01*
X012205Y028939D01*
X012195Y028986D01*
X012189Y029034D01*
X012187Y029082D01*
X010824Y029082D02*
X010826Y029130D01*
X010832Y029178D01*
X010842Y029225D01*
X010855Y029271D01*
X010873Y029316D01*
X010893Y029360D01*
X010918Y029402D01*
X010946Y029441D01*
X010976Y029478D01*
X011010Y029512D01*
X011047Y029544D01*
X011085Y029573D01*
X011126Y029598D01*
X011169Y029620D01*
X011214Y029638D01*
X011260Y029652D01*
X011307Y029663D01*
X011355Y029670D01*
X011403Y029673D01*
X011451Y029672D01*
X011499Y029667D01*
X011547Y029658D01*
X011593Y029646D01*
X011638Y029629D01*
X011682Y029609D01*
X011724Y029586D01*
X011764Y029559D01*
X011802Y029529D01*
X011837Y029496D01*
X011869Y029460D01*
X011899Y029422D01*
X011925Y029381D01*
X011947Y029338D01*
X011967Y029294D01*
X011982Y029249D01*
X011994Y029202D01*
X012002Y029154D01*
X012006Y029106D01*
X012006Y029058D01*
X012002Y029010D01*
X011994Y028962D01*
X011982Y028915D01*
X011967Y028870D01*
X011947Y028826D01*
X011925Y028783D01*
X011899Y028742D01*
X011869Y028704D01*
X011837Y028668D01*
X011802Y028635D01*
X011764Y028605D01*
X011724Y028578D01*
X011682Y028555D01*
X011638Y028535D01*
X011593Y028518D01*
X011547Y028506D01*
X011499Y028497D01*
X011451Y028492D01*
X011403Y028491D01*
X011355Y028494D01*
X011307Y028501D01*
X011260Y028512D01*
X011214Y028526D01*
X011169Y028544D01*
X011126Y028566D01*
X011085Y028591D01*
X011047Y028620D01*
X011010Y028652D01*
X010976Y028686D01*
X010946Y028723D01*
X010918Y028762D01*
X010893Y028804D01*
X010873Y028848D01*
X010855Y028893D01*
X010842Y028939D01*
X010832Y028986D01*
X010826Y029034D01*
X010824Y029082D01*
X010719Y028256D02*
X010719Y029909D01*
X010325Y029909D02*
X010325Y030460D01*
X007569Y030460D01*
X007569Y029909D01*
X010325Y029909D01*
X010325Y028256D01*
X007569Y028256D01*
X007569Y029909D01*
X008157Y030122D02*
X008257Y030022D01*
X008357Y030122D01*
X008157Y030122D01*
X008257Y030022D02*
X008257Y030372D01*
X007675Y029082D02*
X007677Y029130D01*
X007683Y029178D01*
X007693Y029225D01*
X007706Y029271D01*
X007724Y029316D01*
X007744Y029360D01*
X007769Y029402D01*
X007797Y029441D01*
X007827Y029478D01*
X007861Y029512D01*
X007898Y029544D01*
X007936Y029573D01*
X007977Y029598D01*
X008020Y029620D01*
X008065Y029638D01*
X008111Y029652D01*
X008158Y029663D01*
X008206Y029670D01*
X008254Y029673D01*
X008302Y029672D01*
X008350Y029667D01*
X008398Y029658D01*
X008444Y029646D01*
X008489Y029629D01*
X008533Y029609D01*
X008575Y029586D01*
X008615Y029559D01*
X008653Y029529D01*
X008688Y029496D01*
X008720Y029460D01*
X008750Y029422D01*
X008776Y029381D01*
X008798Y029338D01*
X008818Y029294D01*
X008833Y029249D01*
X008845Y029202D01*
X008853Y029154D01*
X008857Y029106D01*
X008857Y029058D01*
X008853Y029010D01*
X008845Y028962D01*
X008833Y028915D01*
X008818Y028870D01*
X008798Y028826D01*
X008776Y028783D01*
X008750Y028742D01*
X008720Y028704D01*
X008688Y028668D01*
X008653Y028635D01*
X008615Y028605D01*
X008575Y028578D01*
X008533Y028555D01*
X008489Y028535D01*
X008444Y028518D01*
X008398Y028506D01*
X008350Y028497D01*
X008302Y028492D01*
X008254Y028491D01*
X008206Y028494D01*
X008158Y028501D01*
X008111Y028512D01*
X008065Y028526D01*
X008020Y028544D01*
X007977Y028566D01*
X007936Y028591D01*
X007898Y028620D01*
X007861Y028652D01*
X007827Y028686D01*
X007797Y028723D01*
X007769Y028762D01*
X007744Y028804D01*
X007724Y028848D01*
X007706Y028893D01*
X007693Y028939D01*
X007683Y028986D01*
X007677Y029034D01*
X007675Y029082D01*
X007569Y028256D02*
X007569Y027704D01*
X010325Y027704D01*
X010325Y028256D01*
X009037Y029082D02*
X009039Y029130D01*
X009045Y029178D01*
X009055Y029225D01*
X009068Y029271D01*
X009086Y029316D01*
X009106Y029360D01*
X009131Y029402D01*
X009159Y029441D01*
X009189Y029478D01*
X009223Y029512D01*
X009260Y029544D01*
X009298Y029573D01*
X009339Y029598D01*
X009382Y029620D01*
X009427Y029638D01*
X009473Y029652D01*
X009520Y029663D01*
X009568Y029670D01*
X009616Y029673D01*
X009664Y029672D01*
X009712Y029667D01*
X009760Y029658D01*
X009806Y029646D01*
X009851Y029629D01*
X009895Y029609D01*
X009937Y029586D01*
X009977Y029559D01*
X010015Y029529D01*
X010050Y029496D01*
X010082Y029460D01*
X010112Y029422D01*
X010138Y029381D01*
X010160Y029338D01*
X010180Y029294D01*
X010195Y029249D01*
X010207Y029202D01*
X010215Y029154D01*
X010219Y029106D01*
X010219Y029058D01*
X010215Y029010D01*
X010207Y028962D01*
X010195Y028915D01*
X010180Y028870D01*
X010160Y028826D01*
X010138Y028783D01*
X010112Y028742D01*
X010082Y028704D01*
X010050Y028668D01*
X010015Y028635D01*
X009977Y028605D01*
X009937Y028578D01*
X009895Y028555D01*
X009851Y028535D01*
X009806Y028518D01*
X009760Y028506D01*
X009712Y028497D01*
X009664Y028492D01*
X009616Y028491D01*
X009568Y028494D01*
X009520Y028501D01*
X009473Y028512D01*
X009427Y028526D01*
X009382Y028544D01*
X009339Y028566D01*
X009298Y028591D01*
X009260Y028620D01*
X009223Y028652D01*
X009189Y028686D01*
X009159Y028723D01*
X009131Y028762D01*
X009106Y028804D01*
X009086Y028848D01*
X009068Y028893D01*
X009055Y028939D01*
X009045Y028986D01*
X009039Y029034D01*
X009037Y029082D01*
X009637Y030022D02*
X009537Y030122D01*
X009737Y030122D01*
X009637Y030022D01*
X009637Y030372D01*
X011307Y030122D02*
X011407Y030022D01*
X011507Y030122D01*
X011307Y030122D01*
X011407Y030022D02*
X011407Y030372D01*
X009056Y027313D02*
X008556Y027313D01*
X008556Y026213D01*
X009056Y026213D01*
X009056Y027313D01*
X008056Y027313D02*
X008056Y026213D01*
X007556Y026213D01*
X007556Y027313D01*
X008056Y027313D01*
X008906Y025466D02*
X004575Y025466D01*
X004575Y025072D01*
X006544Y025072D01*
X006544Y019954D01*
X004575Y019954D01*
X004575Y019560D01*
X008906Y019560D01*
X008906Y019954D01*
X007331Y019954D01*
X007331Y020348D01*
X008906Y020348D01*
X008906Y020741D01*
X007331Y020741D01*
X007331Y021135D01*
X008906Y021135D01*
X008906Y021529D01*
X008315Y021529D01*
X008315Y021922D01*
X007725Y021922D01*
X007677Y021924D01*
X007630Y021930D01*
X007584Y021939D01*
X007538Y021952D01*
X007493Y021969D01*
X007450Y021990D01*
X007409Y022013D01*
X007370Y022041D01*
X007333Y022071D01*
X007299Y022104D01*
X007267Y022139D01*
X007239Y022177D01*
X007213Y022218D01*
X007191Y022260D01*
X007172Y022303D01*
X007157Y022349D01*
X007146Y022395D01*
X007138Y022442D01*
X007134Y022489D01*
X007134Y022537D01*
X007138Y022584D01*
X007146Y022631D01*
X007157Y022677D01*
X007172Y022723D01*
X007191Y022766D01*
X007213Y022809D01*
X007239Y022849D01*
X007267Y022887D01*
X007299Y022922D01*
X007333Y022955D01*
X007370Y022985D01*
X007409Y023013D01*
X007450Y023036D01*
X007493Y023057D01*
X007538Y023074D01*
X007584Y023087D01*
X007630Y023096D01*
X007677Y023102D01*
X007725Y023104D01*
X007725Y023103D02*
X008315Y023103D01*
X008315Y023497D01*
X008906Y023497D01*
X008906Y023891D01*
X007528Y023891D01*
X007528Y024285D01*
X008906Y024285D01*
X008906Y024678D01*
X007528Y024678D01*
X007528Y025072D01*
X008906Y025072D01*
X008906Y025466D01*
X011309Y025407D02*
X011309Y025557D01*
X011459Y026057D02*
X011809Y026057D01*
X011809Y025757D01*
X011809Y025207D02*
X011809Y024907D01*
X011459Y024907D01*
X006884Y018988D02*
X005195Y018988D01*
X005193Y018968D02*
X005193Y018850D01*
X005193Y018063D02*
X005193Y017945D01*
X005195Y017925D02*
X006884Y017925D01*
X006886Y017945D02*
X006886Y018063D01*
X006240Y018456D02*
X005890Y018156D01*
X005890Y018756D01*
X006240Y018456D01*
X006226Y018445D02*
X005890Y018445D01*
X005890Y018493D02*
X006197Y018493D01*
X006140Y018542D02*
X005890Y018542D01*
X005890Y018590D02*
X006083Y018590D01*
X006027Y018639D02*
X005890Y018639D01*
X005890Y018687D02*
X005970Y018687D01*
X005914Y018736D02*
X005890Y018736D01*
X005890Y018396D02*
X006170Y018396D01*
X006113Y018348D02*
X005890Y018348D01*
X005890Y018299D02*
X006057Y018299D01*
X006000Y018251D02*
X005890Y018251D01*
X005890Y018202D02*
X005943Y018202D01*
X006886Y018850D02*
X006886Y018968D01*
X006975Y016728D02*
X006975Y010507D01*
X001700Y010507D01*
X001700Y011118D01*
X000125Y011118D01*
X000125Y016118D01*
X001700Y016118D01*
X001700Y011118D01*
X001306Y008460D02*
X005322Y008460D01*
X005322Y004917D01*
X001306Y004917D01*
X008982Y007722D02*
X010671Y007722D01*
X010673Y007742D02*
X010673Y007860D01*
X009976Y007953D02*
X009976Y008553D01*
X009626Y008253D01*
X009976Y007953D01*
X009976Y007969D02*
X009958Y007969D01*
X009976Y008017D02*
X009901Y008017D01*
X009845Y008066D02*
X009976Y008066D01*
X009976Y008114D02*
X009788Y008114D01*
X009732Y008163D02*
X009976Y008163D01*
X009976Y008211D02*
X009675Y008211D01*
X009634Y008260D02*
X009976Y008260D01*
X009976Y008308D02*
X009690Y008308D01*
X009747Y008357D02*
X009976Y008357D01*
X009976Y008405D02*
X009803Y008405D01*
X009860Y008454D02*
X009976Y008454D01*
X009976Y008502D02*
X009917Y008502D01*
X009973Y008551D02*
X009976Y008551D01*
X010673Y008647D02*
X010673Y008765D01*
X010671Y008785D02*
X008982Y008785D01*
X008980Y008765D02*
X008980Y008647D01*
X008980Y007860D02*
X008980Y007742D01*
X011756Y007678D02*
X012106Y007678D01*
X011756Y007678D02*
X011756Y007978D01*
X012256Y008178D02*
X012256Y008328D01*
X011756Y008528D02*
X011756Y008828D01*
X012106Y008828D01*
X012966Y008373D02*
X012966Y009473D01*
X013466Y009473D01*
X013466Y008373D01*
X012966Y008373D01*
X006975Y016728D02*
X001700Y016728D01*
X001700Y016118D01*
X002756Y017753D02*
X002756Y018853D01*
X003256Y018853D01*
X003256Y017753D01*
X002756Y017753D01*
X003856Y018228D02*
X003856Y018378D01*
X004006Y018878D02*
X004356Y018878D01*
X004356Y018578D01*
X004356Y018028D02*
X004356Y017728D01*
X004006Y017728D01*
X003756Y019228D02*
X003406Y019228D01*
X003756Y019228D02*
X003756Y019528D01*
X003256Y019728D02*
X003256Y019878D01*
X003406Y020378D02*
X003756Y020378D01*
X003756Y020078D01*
X004056Y020553D02*
X002956Y020553D01*
X002956Y021053D01*
X004056Y021053D01*
X004056Y020553D01*
X004056Y021553D02*
X002956Y021553D01*
X002956Y022053D01*
X004056Y022053D01*
X004056Y021553D01*
X004056Y022553D02*
X002956Y022553D01*
X002956Y023053D01*
X004056Y023053D01*
X004056Y022553D01*
X004056Y023553D02*
X002956Y023553D01*
X002956Y024053D01*
X004056Y024053D01*
X004056Y023553D01*
X004056Y024553D02*
X002956Y024553D01*
X002956Y025053D01*
X004056Y025053D01*
X004056Y024553D01*
X003756Y025228D02*
X003406Y025228D01*
X003756Y025228D02*
X003756Y025528D01*
X003256Y025728D02*
X003256Y025878D01*
X003406Y026378D02*
X003756Y026378D01*
X003756Y026078D01*
X004056Y026553D02*
X002956Y026553D01*
X002956Y027053D01*
X004056Y027053D01*
X004056Y026553D01*
X004056Y027553D02*
X002956Y027553D01*
X002956Y028053D01*
X004056Y028053D01*
X004056Y027553D01*
X024564Y017515D02*
X024564Y010429D01*
X030155Y010429D01*
X030155Y017515D01*
X024564Y017515D01*
X029722Y018022D02*
X029722Y018522D01*
X030822Y018522D01*
X030822Y018022D01*
X029722Y018022D01*
X030155Y017515D02*
X032438Y017515D01*
X032438Y010429D01*
X030155Y010429D01*
X028306Y004053D02*
X027806Y004053D01*
X027806Y002953D01*
X028306Y002953D01*
X028306Y004053D01*
X027306Y004053D02*
X027306Y002953D01*
X026806Y002953D01*
X026806Y004053D01*
X027306Y004053D01*
X030872Y018160D02*
X030874Y018193D01*
X030880Y018225D01*
X030889Y018257D01*
X030903Y018287D01*
X030919Y018315D01*
X030939Y018341D01*
X030962Y018365D01*
X030988Y018386D01*
X031016Y018403D01*
X031046Y018418D01*
X031077Y018428D01*
X031109Y018435D01*
X031142Y018438D01*
X031175Y018437D01*
X031207Y018432D01*
X031239Y018423D01*
X031270Y018411D01*
X031298Y018395D01*
X031325Y018376D01*
X031349Y018354D01*
X031371Y018329D01*
X031389Y018301D01*
X031404Y018272D01*
X031416Y018241D01*
X031424Y018209D01*
X031428Y018176D01*
X031428Y018144D01*
X031424Y018111D01*
X031416Y018079D01*
X031404Y018048D01*
X031389Y018019D01*
X031371Y017991D01*
X031349Y017966D01*
X031325Y017944D01*
X031298Y017925D01*
X031270Y017909D01*
X031239Y017897D01*
X031207Y017888D01*
X031175Y017883D01*
X031142Y017882D01*
X031109Y017885D01*
X031077Y017892D01*
X031046Y017902D01*
X031016Y017917D01*
X030988Y017934D01*
X030962Y017955D01*
X030939Y017979D01*
X030919Y018005D01*
X030903Y018033D01*
X030889Y018063D01*
X030880Y018095D01*
X030874Y018127D01*
X030872Y018160D01*
D15*
X019112Y013226D02*
X019112Y009289D01*
X016946Y009289D01*
X016946Y008895D02*
X019112Y008895D01*
X019112Y009289D01*
X016159Y009289D02*
X013993Y009289D01*
X013993Y008895D01*
X016159Y008895D01*
X013993Y009289D02*
X013993Y013226D01*
X014781Y014013D01*
X016159Y014013D01*
X016946Y014013D02*
X018324Y014013D01*
X019112Y013226D01*
X007213Y026561D02*
X006463Y026561D01*
X006463Y029561D01*
X007213Y029561D01*
X007213Y026561D01*
X006463Y026561D02*
X004713Y026561D01*
X004713Y029561D01*
X006463Y029561D01*
D16*
X012243Y018574D02*
X012089Y018421D01*
X012089Y018114D01*
X012243Y017961D01*
X012856Y017961D01*
X013010Y018114D01*
X013010Y018421D01*
X012856Y018574D01*
X013010Y017654D02*
X013010Y017040D01*
X012089Y017040D01*
X012089Y017654D01*
X012549Y017347D02*
X012549Y017040D01*
X013010Y016733D02*
X012089Y016733D01*
X012089Y016119D02*
X013010Y016733D01*
X013010Y016119D02*
X012089Y016119D01*
X017086Y016725D02*
X017086Y015325D01*
X019667Y015325D01*
X019667Y016725D01*
X017086Y016725D01*
D17*
X017306Y024482D02*
X016306Y024482D01*
X016306Y025482D01*
X017306Y025482D01*
X018306Y025482D01*
X018306Y024482D01*
X017306Y024482D01*
X017306Y025482D01*
X006094Y024513D02*
X004944Y024463D01*
X004844Y024363D01*
X004844Y020663D01*
X004944Y020563D01*
X006094Y020513D01*
D18*
X016806Y025732D02*
X016806Y027982D01*
X017806Y027982D02*
X017806Y025732D01*
D19*
X017806Y025582D03*
X016806Y025582D03*
D20*
X016806Y024282D03*
X017806Y024282D03*
D21*
X022534Y026491D02*
X022534Y027475D01*
X022928Y027475D01*
X022534Y021766D02*
X022534Y020782D01*
X022928Y020782D01*
X029227Y020782D02*
X032377Y020782D01*
X032377Y027475D01*
X029227Y027475D01*
D22*
X005084Y024283D03*
D23*
X006394Y022513D03*
D24*
X006144Y024238D03*
X006144Y020788D03*
D25*
X006144Y022013D03*
X006144Y023013D03*
D26*
X026574Y028330D02*
X026620Y028283D01*
X026714Y028283D01*
X026760Y028330D01*
X026760Y028423D01*
X026714Y028470D01*
X026620Y028470D01*
X026574Y028423D01*
X026574Y028330D01*
X026850Y028283D02*
X026990Y028283D01*
X027037Y028330D01*
X027037Y028423D01*
X026990Y028470D01*
X026850Y028470D01*
X026850Y028190D01*
X027126Y028114D02*
X027126Y027833D01*
X027126Y027973D02*
X027173Y028020D01*
X027266Y028020D01*
X027313Y027973D01*
X027313Y027833D01*
X027402Y027880D02*
X027449Y027927D01*
X027589Y027927D01*
X027589Y027973D02*
X027589Y027833D01*
X027449Y027833D01*
X027402Y027880D01*
X027449Y028020D02*
X027542Y028020D01*
X027589Y027973D01*
X027678Y027927D02*
X027772Y028020D01*
X027819Y028020D01*
X027909Y027973D02*
X027955Y028020D01*
X028096Y028020D01*
X028185Y028020D02*
X028185Y027880D01*
X028232Y027833D01*
X028278Y027880D01*
X028325Y027833D01*
X028372Y027880D01*
X028372Y028020D01*
X028508Y028020D02*
X028601Y028020D01*
X028648Y027973D01*
X028648Y027833D01*
X028508Y027833D01*
X028461Y027880D01*
X028508Y027927D01*
X028648Y027927D01*
X028737Y027927D02*
X028831Y028020D01*
X028878Y028020D01*
X028968Y027973D02*
X029014Y028020D01*
X029108Y028020D01*
X029154Y027973D01*
X029154Y027927D01*
X028968Y027927D01*
X028968Y027973D02*
X028968Y027880D01*
X029014Y027833D01*
X029108Y027833D01*
X028737Y027833D02*
X028737Y028020D01*
X028694Y028283D02*
X028554Y028283D01*
X028507Y028330D01*
X028507Y028470D01*
X028418Y028423D02*
X028371Y028470D01*
X028278Y028470D01*
X028231Y028423D01*
X028231Y028330D01*
X028278Y028283D01*
X028371Y028283D01*
X028418Y028330D01*
X028418Y028423D01*
X028694Y028470D02*
X028694Y028283D01*
X028783Y028283D02*
X028783Y028470D01*
X028783Y028377D02*
X028877Y028470D01*
X028924Y028470D01*
X029014Y028423D02*
X029014Y028330D01*
X029060Y028283D01*
X029200Y028283D01*
X029290Y028330D02*
X029290Y028423D01*
X029337Y028470D01*
X029430Y028470D01*
X029477Y028423D01*
X029477Y028377D01*
X029290Y028377D01*
X029290Y028330D02*
X029337Y028283D01*
X029430Y028283D01*
X029200Y028470D02*
X029060Y028470D01*
X029014Y028423D01*
X028991Y028668D02*
X029031Y028703D01*
X029066Y028738D01*
X029106Y028783D01*
X029141Y028828D01*
X028996Y029038D01*
X029031Y029098D01*
X029051Y029158D01*
X029071Y029238D01*
X029316Y029283D01*
X029316Y029398D01*
X029311Y029453D01*
X029306Y029503D01*
X029061Y029548D01*
X029041Y029613D01*
X029016Y029668D01*
X028981Y029728D01*
X028976Y029738D01*
X029116Y029933D01*
X029076Y029983D01*
X029026Y030033D01*
X028986Y030068D01*
X028916Y030068D01*
X028942Y030087D02*
X028960Y030087D01*
X028951Y030093D02*
X028746Y029948D01*
X028701Y029973D01*
X028656Y029993D01*
X028611Y030013D01*
X028566Y030023D01*
X028521Y030268D01*
X028461Y030273D01*
X028346Y030273D01*
X028296Y030268D01*
X028256Y030028D01*
X028181Y030003D01*
X028131Y029983D01*
X028061Y029943D01*
X027861Y030088D01*
X027816Y030053D01*
X027766Y030003D01*
X027726Y029958D01*
X027701Y029933D01*
X027841Y029728D01*
X027811Y029678D01*
X027781Y029613D01*
X027766Y029558D01*
X027751Y029523D01*
X027506Y029483D01*
X027506Y029263D01*
X027751Y029223D01*
X027771Y029153D01*
X027786Y029103D01*
X027806Y029063D01*
X027841Y029003D01*
X027696Y028803D01*
X027736Y028758D01*
X027771Y028723D01*
X027816Y028683D01*
X027851Y028653D01*
X028056Y028793D01*
X028171Y028733D01*
X028311Y029133D01*
X028261Y029158D01*
X028218Y029193D01*
X028183Y029237D01*
X028159Y029286D01*
X028145Y029340D01*
X028144Y029396D01*
X028154Y029450D01*
X028176Y029502D01*
X028208Y029547D01*
X028249Y029584D01*
X028298Y029612D01*
X028351Y029628D01*
X028406Y029633D01*
X028460Y029627D01*
X028511Y029609D01*
X028557Y029582D01*
X028597Y029546D01*
X028629Y029502D01*
X028651Y029453D01*
X028663Y029400D01*
X028663Y029346D01*
X028653Y029293D01*
X028632Y029243D01*
X028601Y029199D01*
X028562Y029162D01*
X028516Y029133D01*
X028671Y028743D01*
X028731Y028768D01*
X028791Y028808D01*
X028991Y028668D01*
X029005Y028681D02*
X028973Y028681D01*
X028947Y028699D02*
X029026Y028699D01*
X029045Y028718D02*
X028921Y028718D01*
X028894Y028736D02*
X029064Y028736D01*
X029081Y028755D02*
X028868Y028755D01*
X028841Y028773D02*
X029097Y028773D01*
X029113Y028792D02*
X028815Y028792D01*
X028766Y028792D02*
X028652Y028792D01*
X028645Y028810D02*
X029127Y028810D01*
X029141Y028829D02*
X028637Y028829D01*
X028630Y028847D02*
X029128Y028847D01*
X029115Y028866D02*
X028622Y028866D01*
X028615Y028884D02*
X029103Y028884D01*
X029090Y028903D02*
X028608Y028903D01*
X028600Y028921D02*
X029077Y028921D01*
X029064Y028940D02*
X028593Y028940D01*
X028586Y028958D02*
X029051Y028958D01*
X029039Y028977D02*
X028578Y028977D01*
X028571Y028995D02*
X029026Y028995D01*
X029013Y029014D02*
X028564Y029014D01*
X028556Y029032D02*
X029000Y029032D01*
X029003Y029051D02*
X028549Y029051D01*
X028542Y029069D02*
X029014Y029069D01*
X029025Y029088D02*
X028534Y029088D01*
X028527Y029106D02*
X029034Y029106D01*
X029040Y029125D02*
X028520Y029125D01*
X028532Y029143D02*
X029046Y029143D01*
X029052Y029162D02*
X028562Y029162D01*
X028581Y029180D02*
X029057Y029180D01*
X029061Y029199D02*
X028601Y029199D01*
X028614Y029217D02*
X029066Y029217D01*
X029070Y029236D02*
X028626Y029236D01*
X028636Y029254D02*
X029157Y029254D01*
X029258Y029273D02*
X028644Y029273D01*
X028652Y029291D02*
X029316Y029291D01*
X029316Y029310D02*
X028656Y029310D01*
X028660Y029328D02*
X029316Y029328D01*
X029316Y029347D02*
X028663Y029347D01*
X028663Y029365D02*
X029316Y029365D01*
X029316Y029384D02*
X028663Y029384D01*
X028662Y029402D02*
X029316Y029402D01*
X029314Y029421D02*
X028658Y029421D01*
X028654Y029439D02*
X029312Y029439D01*
X029311Y029458D02*
X028649Y029458D01*
X028640Y029476D02*
X029309Y029476D01*
X029307Y029495D02*
X028632Y029495D01*
X028621Y029513D02*
X029252Y029513D01*
X029152Y029532D02*
X028607Y029532D01*
X028592Y029550D02*
X029061Y029550D01*
X029055Y029569D02*
X028572Y029569D01*
X028548Y029587D02*
X029049Y029587D01*
X029043Y029606D02*
X028517Y029606D01*
X028467Y029624D02*
X029036Y029624D01*
X029028Y029643D02*
X027795Y029643D01*
X027803Y029661D02*
X029019Y029661D01*
X029009Y029680D02*
X027812Y029680D01*
X027823Y029698D02*
X028999Y029698D01*
X028988Y029717D02*
X027834Y029717D01*
X027836Y029735D02*
X028978Y029735D01*
X028987Y029754D02*
X027824Y029754D01*
X027811Y029772D02*
X029000Y029772D01*
X029014Y029791D02*
X027799Y029791D01*
X027786Y029809D02*
X029027Y029809D01*
X029040Y029828D02*
X027773Y029828D01*
X027761Y029846D02*
X029054Y029846D01*
X029067Y029865D02*
X027748Y029865D01*
X027735Y029883D02*
X029080Y029883D01*
X029093Y029902D02*
X027723Y029902D01*
X027710Y029920D02*
X029107Y029920D01*
X029112Y029939D02*
X027706Y029939D01*
X027725Y029957D02*
X028042Y029957D01*
X028016Y029976D02*
X027742Y029976D01*
X027758Y029994D02*
X027991Y029994D01*
X027965Y030013D02*
X027775Y030013D01*
X027794Y030031D02*
X027940Y030031D01*
X027914Y030050D02*
X027812Y030050D01*
X027835Y030068D02*
X027889Y030068D01*
X027863Y030087D02*
X027859Y030087D01*
X028085Y029957D02*
X028730Y029957D01*
X028759Y029957D02*
X029097Y029957D01*
X029082Y029976D02*
X028785Y029976D01*
X028811Y029994D02*
X029065Y029994D01*
X029047Y030013D02*
X028837Y030013D01*
X028863Y030031D02*
X029028Y030031D01*
X029007Y030050D02*
X028889Y030050D01*
X028951Y030093D02*
X028986Y030068D01*
X028696Y029976D02*
X028118Y029976D01*
X028158Y029994D02*
X028654Y029994D01*
X028613Y030013D02*
X028209Y030013D01*
X028257Y030031D02*
X028565Y030031D01*
X028561Y030050D02*
X028260Y030050D01*
X028263Y030068D02*
X028558Y030068D01*
X028554Y030087D02*
X028266Y030087D01*
X028269Y030105D02*
X028551Y030105D01*
X028548Y030124D02*
X028272Y030124D01*
X028275Y030142D02*
X028544Y030142D01*
X028541Y030161D02*
X028278Y030161D01*
X028281Y030179D02*
X028537Y030179D01*
X028534Y030198D02*
X028284Y030198D01*
X028287Y030216D02*
X028531Y030216D01*
X028527Y030235D02*
X028290Y030235D01*
X028294Y030253D02*
X028524Y030253D01*
X028481Y030272D02*
X028330Y030272D01*
X028337Y029624D02*
X027786Y029624D01*
X027779Y029606D02*
X028287Y029606D01*
X028255Y029587D02*
X027774Y029587D01*
X027769Y029569D02*
X028232Y029569D01*
X028212Y029550D02*
X027763Y029550D01*
X027755Y029532D02*
X028197Y029532D01*
X028184Y029513D02*
X027689Y029513D01*
X027576Y029495D02*
X028173Y029495D01*
X028165Y029476D02*
X027506Y029476D01*
X027506Y029458D02*
X028157Y029458D01*
X028152Y029439D02*
X027506Y029439D01*
X027506Y029421D02*
X028148Y029421D01*
X028145Y029402D02*
X027506Y029402D01*
X027506Y029384D02*
X028144Y029384D01*
X028145Y029365D02*
X027506Y029365D01*
X027506Y029347D02*
X028145Y029347D01*
X028148Y029328D02*
X027506Y029328D01*
X027506Y029310D02*
X028153Y029310D01*
X028158Y029291D02*
X027506Y029291D01*
X027506Y029273D02*
X028166Y029273D01*
X028175Y029254D02*
X027562Y029254D01*
X027675Y029236D02*
X028184Y029236D01*
X028199Y029217D02*
X027753Y029217D01*
X027758Y029199D02*
X028214Y029199D01*
X028234Y029180D02*
X027763Y029180D01*
X027769Y029162D02*
X028257Y029162D01*
X028291Y029143D02*
X027774Y029143D01*
X027780Y029125D02*
X028308Y029125D01*
X028302Y029106D02*
X027785Y029106D01*
X027794Y029088D02*
X028295Y029088D01*
X028289Y029069D02*
X027803Y029069D01*
X027813Y029051D02*
X028282Y029051D01*
X028276Y029032D02*
X027824Y029032D01*
X027835Y029014D02*
X028269Y029014D01*
X028263Y028995D02*
X027835Y028995D01*
X027822Y028977D02*
X028256Y028977D01*
X028250Y028958D02*
X027808Y028958D01*
X027795Y028940D02*
X028243Y028940D01*
X028237Y028921D02*
X027782Y028921D01*
X027768Y028903D02*
X028230Y028903D01*
X028224Y028884D02*
X027755Y028884D01*
X027741Y028866D02*
X028217Y028866D01*
X028211Y028847D02*
X027728Y028847D01*
X027714Y028829D02*
X028204Y028829D01*
X028198Y028810D02*
X027701Y028810D01*
X027706Y028792D02*
X028054Y028792D01*
X028059Y028792D02*
X028192Y028792D01*
X028185Y028773D02*
X028095Y028773D01*
X028130Y028755D02*
X028179Y028755D01*
X028172Y028736D02*
X028166Y028736D01*
X028027Y028773D02*
X027723Y028773D01*
X027740Y028755D02*
X028000Y028755D01*
X027972Y028736D02*
X027758Y028736D01*
X027777Y028718D02*
X027945Y028718D01*
X027918Y028699D02*
X027798Y028699D01*
X027819Y028681D02*
X027891Y028681D01*
X027864Y028662D02*
X027841Y028662D01*
X028001Y028470D02*
X028142Y028470D01*
X028095Y028377D02*
X028001Y028377D01*
X027955Y028423D01*
X028001Y028470D01*
X028095Y028377D02*
X028142Y028330D01*
X028095Y028283D01*
X027955Y028283D01*
X028096Y028114D02*
X028096Y027833D01*
X027955Y027833D01*
X027909Y027880D01*
X027909Y027973D01*
X027678Y028020D02*
X027678Y027833D01*
X027589Y028283D02*
X027589Y028423D01*
X027542Y028470D01*
X027402Y028470D01*
X027402Y028283D01*
X027313Y028377D02*
X027126Y028377D01*
X027126Y028423D02*
X027173Y028470D01*
X027266Y028470D01*
X027313Y028423D01*
X027313Y028377D01*
X027266Y028283D02*
X027173Y028283D01*
X027126Y028330D01*
X027126Y028423D01*
X028659Y028773D02*
X028738Y028773D01*
X028698Y028755D02*
X028667Y028755D01*
M02*
