%
M48
M72
T01C0.0236
T02C0.0315
T03C0.0394
T04C0.0400
T05C0.0433
T06C0.0450
T07C0.0551
T08C0.0591
T09C0.0748
T10C0.0787
T11C0.0866
T12C0.1102
T13C0.1181
T14C0.1260
%
T01
X11036Y9163
X13026Y10183
X13656Y11943
X14246Y13893
X13866Y15063
X10876Y15513
X7786Y14883
X4106Y19203
X2026Y21423
X4346Y23473
X2536Y25223
X4926Y27753
X1986Y28423
X8276Y28063
X8806Y27573
X8516Y25793
X11296Y26523
X11176Y28343
X13316Y27923
X15966Y26003
X17156Y26053
X17286Y27293
X18516Y25653
X19716Y25273
X19736Y26293
X21136Y26813
X21196Y27803
X21206Y28803
X21986Y28813
X22246Y27433
X21526Y25613
X21116Y24803
X19436Y23353
X19356Y22313
X21146Y22803
X20196Y20533
X19216Y18433
X20406Y17513
X21306Y17253
X21776Y16153
X20636Y16093
X19326Y15933
X21676Y13593
X23596Y14273
X24186Y14023
X24416Y14543
X24206Y15393
X24606Y15843
X25156Y15543
X25616Y15933
X26146Y15463
X28156Y13983
X29206Y12133
X30666Y9583
X31026Y6223
X28066Y6263
X26436Y7203
X25636Y4313
X29566Y3263
X23936Y11323
X29086Y16033
X29486Y18123
X25666Y19603
X24096Y19873
X23866Y17023
X22786Y16993
X20996Y18303
X17366Y20373
X16666Y18533
X14316Y20043
X14316Y20683
X14326Y21303
X14326Y22673
X12606Y24343
X12196Y20853
X8346Y19433
X16136Y11613
X17896Y12643
X18466Y8313
X26496Y22063
X26486Y22633
X26506Y23213
X26536Y24003
X26756Y24543
X26206Y24633
X26116Y25183
X25276Y25103
X25276Y25723
X25406Y26263
X23916Y24463
X25736Y23763
X25656Y23193
X24856Y22513
X27226Y26453
X26976Y29523
X24426Y28733
X18626Y29523
X16046Y29743
X16196Y24493
X16006Y22413
T02
X23213Y9027
X24213Y9027
X25213Y9027
X26213Y9027
X27213Y9027
X28213Y9027
X29213Y9027
X30213Y9027
X31213Y9027
X30213Y19027
X29213Y19027
X28213Y19027
X27213Y19027
X26213Y19027
X25213Y19027
X24213Y19027
X23213Y19027
X31213Y19027
T03
X5963Y29061
X5963Y28061
X5963Y27061
X8258Y29082
X9636Y29082
X11408Y29082
X12786Y29082
X14702Y15771
X16080Y15771
T04
X5544Y23513
X5544Y22513
X5544Y21513
X16536Y7193
X17536Y7193
X18536Y7193
X19536Y7193
X20536Y7193
X21536Y7193
X22536Y7193
X23536Y7193
X24536Y7193
X25536Y7193
X23036Y10393
X22036Y10393
X21036Y10393
X20036Y10393
X17806Y23732
X16806Y23732
T05
X8404Y17491
X8404Y15719
X12696Y12963
X12696Y11192
T06
X27228Y4687
X28928Y4687
X29984Y4687
X31684Y4687
X29984Y7587
X28928Y7587
X27228Y7587
X31684Y7587
T07
X6743Y5378
X8396Y5378
X10050Y5378
X11703Y5378
X13357Y5378
X15011Y5378
X16664Y5378
X18318Y5378
X19971Y5378
X21625Y5378
X23278Y5378
X24932Y5378
X24932Y3213
X23278Y3213
X21625Y3213
X19971Y3213
X18318Y3213
X16664Y3213
X15011Y3213
X13357Y3213
X11703Y3213
X10050Y3213
X8396Y3213
X6743Y3213
T08
X7725Y22513
X9329Y14341
X13070Y14341
T09
X9684Y18318
X11416Y10365
T10
X3176Y14602
X2369Y13618
X3176Y12633
T11
X4495Y14602
X5971Y14700
X5971Y12535
X4495Y12633
T12
X2999Y16649
X2999Y10586
X6345Y10586
X6345Y16649
T13
X2641Y6767
X3782Y4917
X4964Y6767
T14
X2487Y29562
X2487Y3184
X31227Y3184
X31227Y29562
M30
