G75*
%MOIN*%
%OFA0B0*%
%FSLAX24Y24*%
%IPPOS*%
%LPD*%
%AMOC8*
5,1,8,0,0,1.08239X$1,22.5*
%
%ADD10C,0.0000*%
%ADD11C,0.1300*%
%ADD12R,0.0768X0.0768*%
%ADD13C,0.0768*%
%ADD14C,0.0634*%
%ADD15C,0.0867*%
%ADD16R,0.0540X0.0940*%
%ADD17R,0.1440X0.0890*%
%ADD18R,0.0490X0.0940*%
%ADD19R,0.0434X0.1890*%
%ADD20R,0.0512X0.0276*%
%ADD21C,0.0097*%
%ADD22R,0.0237X0.0434*%
%ADD23R,0.0790X0.0790*%
%ADD24C,0.0790*%
%ADD25C,0.0640*%
%ADD26C,0.1930*%
%ADD27C,0.0926*%
%ADD28C,0.0690*%
%ADD29C,0.1162*%
%ADD30R,0.0749X0.0737*%
%ADD31R,0.0512X0.0827*%
%ADD32R,0.0827X0.0512*%
%ADD33R,0.0940X0.0490*%
%ADD34R,0.0473X0.0768*%
%ADD35R,0.1733X0.1733*%
%ADD36C,0.0050*%
%ADD37R,0.0490X0.0440*%
%ADD38C,0.0555*%
%ADD39C,0.1306*%
%ADD40C,0.1221*%
%ADD41C,0.1542*%
%ADD42C,0.0827*%
D10*
X001306Y002003D02*
X001306Y030743D01*
X032408Y030743D01*
X032408Y002003D01*
X001306Y002003D01*
X001857Y003184D02*
X001859Y003234D01*
X001865Y003284D01*
X001875Y003333D01*
X001889Y003381D01*
X001906Y003428D01*
X001927Y003473D01*
X001952Y003517D01*
X001980Y003558D01*
X002012Y003597D01*
X002046Y003634D01*
X002083Y003668D01*
X002123Y003698D01*
X002165Y003725D01*
X002209Y003749D01*
X002255Y003770D01*
X002302Y003786D01*
X002350Y003799D01*
X002400Y003808D01*
X002449Y003813D01*
X002500Y003814D01*
X002550Y003811D01*
X002599Y003804D01*
X002648Y003793D01*
X002696Y003778D01*
X002742Y003760D01*
X002787Y003738D01*
X002830Y003712D01*
X002871Y003683D01*
X002910Y003651D01*
X002946Y003616D01*
X002978Y003578D01*
X003008Y003538D01*
X003035Y003495D01*
X003058Y003451D01*
X003077Y003405D01*
X003093Y003357D01*
X003105Y003308D01*
X003113Y003259D01*
X003117Y003209D01*
X003117Y003159D01*
X003113Y003109D01*
X003105Y003060D01*
X003093Y003011D01*
X003077Y002963D01*
X003058Y002917D01*
X003035Y002873D01*
X003008Y002830D01*
X002978Y002790D01*
X002946Y002752D01*
X002910Y002717D01*
X002871Y002685D01*
X002830Y002656D01*
X002787Y002630D01*
X002742Y002608D01*
X002696Y002590D01*
X002648Y002575D01*
X002599Y002564D01*
X002550Y002557D01*
X002500Y002554D01*
X002449Y002555D01*
X002400Y002560D01*
X002350Y002569D01*
X002302Y002582D01*
X002255Y002598D01*
X002209Y002619D01*
X002165Y002643D01*
X002123Y002670D01*
X002083Y002700D01*
X002046Y002734D01*
X002012Y002771D01*
X001980Y002810D01*
X001952Y002851D01*
X001927Y002895D01*
X001906Y002940D01*
X001889Y002987D01*
X001875Y003035D01*
X001865Y003084D01*
X001859Y003134D01*
X001857Y003184D01*
X002782Y012633D02*
X002784Y012672D01*
X002790Y012711D01*
X002800Y012749D01*
X002813Y012786D01*
X002830Y012821D01*
X002850Y012855D01*
X002874Y012886D01*
X002901Y012915D01*
X002930Y012941D01*
X002962Y012964D01*
X002996Y012984D01*
X003032Y013000D01*
X003069Y013012D01*
X003108Y013021D01*
X003147Y013026D01*
X003186Y013027D01*
X003225Y013024D01*
X003264Y013017D01*
X003301Y013006D01*
X003338Y012992D01*
X003373Y012974D01*
X003406Y012953D01*
X003437Y012928D01*
X003465Y012901D01*
X003490Y012871D01*
X003512Y012838D01*
X003531Y012804D01*
X003546Y012768D01*
X003558Y012730D01*
X003566Y012692D01*
X003570Y012653D01*
X003570Y012613D01*
X003566Y012574D01*
X003558Y012536D01*
X003546Y012498D01*
X003531Y012462D01*
X003512Y012428D01*
X003490Y012395D01*
X003465Y012365D01*
X003437Y012338D01*
X003406Y012313D01*
X003373Y012292D01*
X003338Y012274D01*
X003301Y012260D01*
X003264Y012249D01*
X003225Y012242D01*
X003186Y012239D01*
X003147Y012240D01*
X003108Y012245D01*
X003069Y012254D01*
X003032Y012266D01*
X002996Y012282D01*
X002962Y012302D01*
X002930Y012325D01*
X002901Y012351D01*
X002874Y012380D01*
X002850Y012411D01*
X002830Y012445D01*
X002813Y012480D01*
X002800Y012517D01*
X002790Y012555D01*
X002784Y012594D01*
X002782Y012633D01*
X002782Y014602D02*
X002784Y014641D01*
X002790Y014680D01*
X002800Y014718D01*
X002813Y014755D01*
X002830Y014790D01*
X002850Y014824D01*
X002874Y014855D01*
X002901Y014884D01*
X002930Y014910D01*
X002962Y014933D01*
X002996Y014953D01*
X003032Y014969D01*
X003069Y014981D01*
X003108Y014990D01*
X003147Y014995D01*
X003186Y014996D01*
X003225Y014993D01*
X003264Y014986D01*
X003301Y014975D01*
X003338Y014961D01*
X003373Y014943D01*
X003406Y014922D01*
X003437Y014897D01*
X003465Y014870D01*
X003490Y014840D01*
X003512Y014807D01*
X003531Y014773D01*
X003546Y014737D01*
X003558Y014699D01*
X003566Y014661D01*
X003570Y014622D01*
X003570Y014582D01*
X003566Y014543D01*
X003558Y014505D01*
X003546Y014467D01*
X003531Y014431D01*
X003512Y014397D01*
X003490Y014364D01*
X003465Y014334D01*
X003437Y014307D01*
X003406Y014282D01*
X003373Y014261D01*
X003338Y014243D01*
X003301Y014229D01*
X003264Y014218D01*
X003225Y014211D01*
X003186Y014208D01*
X003147Y014209D01*
X003108Y014214D01*
X003069Y014223D01*
X003032Y014235D01*
X002996Y014251D01*
X002962Y014271D01*
X002930Y014294D01*
X002901Y014320D01*
X002874Y014349D01*
X002850Y014380D01*
X002830Y014414D01*
X002813Y014449D01*
X002800Y014486D01*
X002790Y014524D01*
X002784Y014563D01*
X002782Y014602D01*
X001857Y029562D02*
X001859Y029612D01*
X001865Y029662D01*
X001875Y029711D01*
X001889Y029759D01*
X001906Y029806D01*
X001927Y029851D01*
X001952Y029895D01*
X001980Y029936D01*
X002012Y029975D01*
X002046Y030012D01*
X002083Y030046D01*
X002123Y030076D01*
X002165Y030103D01*
X002209Y030127D01*
X002255Y030148D01*
X002302Y030164D01*
X002350Y030177D01*
X002400Y030186D01*
X002449Y030191D01*
X002500Y030192D01*
X002550Y030189D01*
X002599Y030182D01*
X002648Y030171D01*
X002696Y030156D01*
X002742Y030138D01*
X002787Y030116D01*
X002830Y030090D01*
X002871Y030061D01*
X002910Y030029D01*
X002946Y029994D01*
X002978Y029956D01*
X003008Y029916D01*
X003035Y029873D01*
X003058Y029829D01*
X003077Y029783D01*
X003093Y029735D01*
X003105Y029686D01*
X003113Y029637D01*
X003117Y029587D01*
X003117Y029537D01*
X003113Y029487D01*
X003105Y029438D01*
X003093Y029389D01*
X003077Y029341D01*
X003058Y029295D01*
X003035Y029251D01*
X003008Y029208D01*
X002978Y029168D01*
X002946Y029130D01*
X002910Y029095D01*
X002871Y029063D01*
X002830Y029034D01*
X002787Y029008D01*
X002742Y028986D01*
X002696Y028968D01*
X002648Y028953D01*
X002599Y028942D01*
X002550Y028935D01*
X002500Y028932D01*
X002449Y028933D01*
X002400Y028938D01*
X002350Y028947D01*
X002302Y028960D01*
X002255Y028976D01*
X002209Y028997D01*
X002165Y029021D01*
X002123Y029048D01*
X002083Y029078D01*
X002046Y029112D01*
X002012Y029149D01*
X001980Y029188D01*
X001952Y029229D01*
X001927Y029273D01*
X001906Y029318D01*
X001889Y029365D01*
X001875Y029413D01*
X001865Y029462D01*
X001859Y029512D01*
X001857Y029562D01*
X030597Y029562D02*
X030599Y029612D01*
X030605Y029662D01*
X030615Y029711D01*
X030629Y029759D01*
X030646Y029806D01*
X030667Y029851D01*
X030692Y029895D01*
X030720Y029936D01*
X030752Y029975D01*
X030786Y030012D01*
X030823Y030046D01*
X030863Y030076D01*
X030905Y030103D01*
X030949Y030127D01*
X030995Y030148D01*
X031042Y030164D01*
X031090Y030177D01*
X031140Y030186D01*
X031189Y030191D01*
X031240Y030192D01*
X031290Y030189D01*
X031339Y030182D01*
X031388Y030171D01*
X031436Y030156D01*
X031482Y030138D01*
X031527Y030116D01*
X031570Y030090D01*
X031611Y030061D01*
X031650Y030029D01*
X031686Y029994D01*
X031718Y029956D01*
X031748Y029916D01*
X031775Y029873D01*
X031798Y029829D01*
X031817Y029783D01*
X031833Y029735D01*
X031845Y029686D01*
X031853Y029637D01*
X031857Y029587D01*
X031857Y029537D01*
X031853Y029487D01*
X031845Y029438D01*
X031833Y029389D01*
X031817Y029341D01*
X031798Y029295D01*
X031775Y029251D01*
X031748Y029208D01*
X031718Y029168D01*
X031686Y029130D01*
X031650Y029095D01*
X031611Y029063D01*
X031570Y029034D01*
X031527Y029008D01*
X031482Y028986D01*
X031436Y028968D01*
X031388Y028953D01*
X031339Y028942D01*
X031290Y028935D01*
X031240Y028932D01*
X031189Y028933D01*
X031140Y028938D01*
X031090Y028947D01*
X031042Y028960D01*
X030995Y028976D01*
X030949Y028997D01*
X030905Y029021D01*
X030863Y029048D01*
X030823Y029078D01*
X030786Y029112D01*
X030752Y029149D01*
X030720Y029188D01*
X030692Y029229D01*
X030667Y029273D01*
X030646Y029318D01*
X030629Y029365D01*
X030615Y029413D01*
X030605Y029462D01*
X030599Y029512D01*
X030597Y029562D01*
X030597Y003184D02*
X030599Y003234D01*
X030605Y003284D01*
X030615Y003333D01*
X030629Y003381D01*
X030646Y003428D01*
X030667Y003473D01*
X030692Y003517D01*
X030720Y003558D01*
X030752Y003597D01*
X030786Y003634D01*
X030823Y003668D01*
X030863Y003698D01*
X030905Y003725D01*
X030949Y003749D01*
X030995Y003770D01*
X031042Y003786D01*
X031090Y003799D01*
X031140Y003808D01*
X031189Y003813D01*
X031240Y003814D01*
X031290Y003811D01*
X031339Y003804D01*
X031388Y003793D01*
X031436Y003778D01*
X031482Y003760D01*
X031527Y003738D01*
X031570Y003712D01*
X031611Y003683D01*
X031650Y003651D01*
X031686Y003616D01*
X031718Y003578D01*
X031748Y003538D01*
X031775Y003495D01*
X031798Y003451D01*
X031817Y003405D01*
X031833Y003357D01*
X031845Y003308D01*
X031853Y003259D01*
X031857Y003209D01*
X031857Y003159D01*
X031853Y003109D01*
X031845Y003060D01*
X031833Y003011D01*
X031817Y002963D01*
X031798Y002917D01*
X031775Y002873D01*
X031748Y002830D01*
X031718Y002790D01*
X031686Y002752D01*
X031650Y002717D01*
X031611Y002685D01*
X031570Y002656D01*
X031527Y002630D01*
X031482Y002608D01*
X031436Y002590D01*
X031388Y002575D01*
X031339Y002564D01*
X031290Y002557D01*
X031240Y002554D01*
X031189Y002555D01*
X031140Y002560D01*
X031090Y002569D01*
X031042Y002582D01*
X030995Y002598D01*
X030949Y002619D01*
X030905Y002643D01*
X030863Y002670D01*
X030823Y002700D01*
X030786Y002734D01*
X030752Y002771D01*
X030720Y002810D01*
X030692Y002851D01*
X030667Y002895D01*
X030646Y002940D01*
X030629Y002987D01*
X030615Y003035D01*
X030605Y003084D01*
X030599Y003134D01*
X030597Y003184D01*
D11*
X031227Y003184D03*
X031227Y029562D03*
X002487Y029562D03*
X002487Y003184D03*
D12*
X014702Y015771D03*
X011408Y029082D03*
X008258Y029082D03*
D13*
X009636Y029082D03*
X012786Y029082D03*
X016080Y015771D03*
D14*
X006259Y027061D02*
X005666Y027061D01*
X005666Y028061D02*
X006259Y028061D01*
X006259Y029061D02*
X005666Y029061D01*
D15*
X006743Y005792D02*
X006743Y004965D01*
X006743Y003626D02*
X006743Y002800D01*
X008396Y002800D02*
X008396Y003626D01*
X008396Y004965D02*
X008396Y005792D01*
X010050Y005792D02*
X010050Y004965D01*
X010050Y003626D02*
X010050Y002800D01*
X011703Y002800D02*
X011703Y003626D01*
X011703Y004965D02*
X011703Y005792D01*
X013357Y005792D02*
X013357Y004965D01*
X013357Y003626D02*
X013357Y002800D01*
X015011Y002800D02*
X015011Y003626D01*
X015011Y004965D02*
X015011Y005792D01*
X016664Y005792D02*
X016664Y004965D01*
X016664Y003626D02*
X016664Y002800D01*
X018318Y002800D02*
X018318Y003626D01*
X018318Y004965D02*
X018318Y005792D01*
X019971Y005792D02*
X019971Y004965D01*
X019971Y003626D02*
X019971Y002800D01*
X021625Y002800D02*
X021625Y003626D01*
X021625Y004965D02*
X021625Y005792D01*
X023278Y005792D02*
X023278Y004965D01*
X023278Y003626D02*
X023278Y002800D01*
X024932Y002800D02*
X024932Y003626D01*
X024932Y004965D02*
X024932Y005792D01*
D16*
X019277Y014775D03*
X018377Y014775D03*
X017477Y014775D03*
D17*
X018377Y017275D03*
D18*
X018462Y018437D03*
X017312Y018437D03*
D19*
X016552Y013245D03*
X016552Y009663D03*
D20*
X015347Y019560D03*
X015347Y020060D03*
X015347Y020560D03*
X015347Y021060D03*
X015347Y021560D03*
X015347Y022060D03*
X015347Y022560D03*
X015347Y023060D03*
X013300Y023060D03*
X013300Y022560D03*
X013300Y022060D03*
X013300Y021560D03*
X013300Y021060D03*
X013300Y020560D03*
X013300Y020060D03*
X013300Y019560D03*
D21*
X012813Y019861D02*
X012813Y020153D01*
X012813Y019861D02*
X012521Y019861D01*
X012521Y020153D01*
X012813Y020153D01*
X012813Y019958D02*
X012521Y019958D01*
X012521Y020055D02*
X012813Y020055D01*
X012813Y020152D02*
X012521Y020152D01*
X012813Y020461D02*
X012813Y020753D01*
X012813Y020461D02*
X012521Y020461D01*
X012521Y020753D01*
X012813Y020753D01*
X012813Y020558D02*
X012521Y020558D01*
X012521Y020655D02*
X012813Y020655D01*
X012813Y020752D02*
X012521Y020752D01*
X013960Y023657D02*
X014252Y023657D01*
X013960Y023657D02*
X013960Y023949D01*
X014252Y023949D01*
X014252Y023657D01*
X014252Y023754D02*
X013960Y023754D01*
X013960Y023851D02*
X014252Y023851D01*
X014252Y023948D02*
X013960Y023948D01*
X014560Y023657D02*
X014852Y023657D01*
X014560Y023657D02*
X014560Y023949D01*
X014852Y023949D01*
X014852Y023657D01*
X014852Y023754D02*
X014560Y023754D01*
X014560Y023851D02*
X014852Y023851D01*
X014852Y023948D02*
X014560Y023948D01*
X014560Y024949D02*
X014852Y024949D01*
X014852Y024657D01*
X014560Y024657D01*
X014560Y024949D01*
X014560Y024754D02*
X014852Y024754D01*
X014852Y024851D02*
X014560Y024851D01*
X014560Y024948D02*
X014852Y024948D01*
X014252Y024949D02*
X013960Y024949D01*
X014252Y024949D02*
X014252Y024657D01*
X013960Y024657D01*
X013960Y024949D01*
X013960Y024754D02*
X014252Y024754D01*
X014252Y024851D02*
X013960Y024851D01*
X013960Y024948D02*
X014252Y024948D01*
X014252Y025657D02*
X013960Y025657D01*
X013960Y025949D01*
X014252Y025949D01*
X014252Y025657D01*
X014252Y025754D02*
X013960Y025754D01*
X013960Y025851D02*
X014252Y025851D01*
X014252Y025948D02*
X013960Y025948D01*
X014560Y025657D02*
X014852Y025657D01*
X014560Y025657D02*
X014560Y025949D01*
X014852Y025949D01*
X014852Y025657D01*
X014852Y025754D02*
X014560Y025754D01*
X014560Y025851D02*
X014852Y025851D01*
X014852Y025948D02*
X014560Y025948D01*
X014560Y026657D02*
X014852Y026657D01*
X014560Y026657D02*
X014560Y026949D01*
X014852Y026949D01*
X014852Y026657D01*
X014852Y026754D02*
X014560Y026754D01*
X014560Y026851D02*
X014852Y026851D01*
X014852Y026948D02*
X014560Y026948D01*
X014252Y026657D02*
X013960Y026657D01*
X013960Y026949D01*
X014252Y026949D01*
X014252Y026657D01*
X014252Y026754D02*
X013960Y026754D01*
X013960Y026851D02*
X014252Y026851D01*
X014252Y026948D02*
X013960Y026948D01*
X013960Y027949D02*
X014252Y027949D01*
X014252Y027657D01*
X013960Y027657D01*
X013960Y027949D01*
X013960Y027754D02*
X014252Y027754D01*
X014252Y027851D02*
X013960Y027851D01*
X013960Y027948D02*
X014252Y027948D01*
X014560Y027949D02*
X014852Y027949D01*
X014852Y027657D01*
X014560Y027657D01*
X014560Y027949D01*
X014560Y027754D02*
X014852Y027754D01*
X014852Y027851D02*
X014560Y027851D01*
X014560Y027948D02*
X014852Y027948D01*
X014852Y028657D02*
X014560Y028657D01*
X014560Y028949D01*
X014852Y028949D01*
X014852Y028657D01*
X014852Y028754D02*
X014560Y028754D01*
X014560Y028851D02*
X014852Y028851D01*
X014852Y028948D02*
X014560Y028948D01*
X014252Y028657D02*
X013960Y028657D01*
X013960Y028949D01*
X014252Y028949D01*
X014252Y028657D01*
X014252Y028754D02*
X013960Y028754D01*
X013960Y028851D02*
X014252Y028851D01*
X014252Y028948D02*
X013960Y028948D01*
X008660Y027209D02*
X008660Y026917D01*
X008660Y027209D02*
X008952Y027209D01*
X008952Y026917D01*
X008660Y026917D01*
X008660Y027014D02*
X008952Y027014D01*
X008952Y027111D02*
X008660Y027111D01*
X008660Y027208D02*
X008952Y027208D01*
X008660Y026609D02*
X008660Y026317D01*
X008660Y026609D02*
X008952Y026609D01*
X008952Y026317D01*
X008660Y026317D01*
X008660Y026414D02*
X008952Y026414D01*
X008952Y026511D02*
X008660Y026511D01*
X008660Y026608D02*
X008952Y026608D01*
X007952Y026609D02*
X007952Y026317D01*
X007660Y026317D01*
X007660Y026609D01*
X007952Y026609D01*
X007952Y026414D02*
X007660Y026414D01*
X007660Y026511D02*
X007952Y026511D01*
X007952Y026608D02*
X007660Y026608D01*
X007952Y026917D02*
X007952Y027209D01*
X007952Y026917D02*
X007660Y026917D01*
X007660Y027209D01*
X007952Y027209D01*
X007952Y027014D02*
X007660Y027014D01*
X007660Y027111D02*
X007952Y027111D01*
X007952Y027208D02*
X007660Y027208D01*
X003952Y026657D02*
X003660Y026657D01*
X003660Y026949D01*
X003952Y026949D01*
X003952Y026657D01*
X003952Y026754D02*
X003660Y026754D01*
X003660Y026851D02*
X003952Y026851D01*
X003952Y026948D02*
X003660Y026948D01*
X003352Y026657D02*
X003060Y026657D01*
X003060Y026949D01*
X003352Y026949D01*
X003352Y026657D01*
X003352Y026754D02*
X003060Y026754D01*
X003060Y026851D02*
X003352Y026851D01*
X003352Y026948D02*
X003060Y026948D01*
X003060Y027657D02*
X003352Y027657D01*
X003060Y027657D02*
X003060Y027949D01*
X003352Y027949D01*
X003352Y027657D01*
X003352Y027754D02*
X003060Y027754D01*
X003060Y027851D02*
X003352Y027851D01*
X003352Y027948D02*
X003060Y027948D01*
X003660Y027657D02*
X003952Y027657D01*
X003660Y027657D02*
X003660Y027949D01*
X003952Y027949D01*
X003952Y027657D01*
X003952Y027754D02*
X003660Y027754D01*
X003660Y027851D02*
X003952Y027851D01*
X003952Y027948D02*
X003660Y027948D01*
X003660Y024657D02*
X003952Y024657D01*
X003660Y024657D02*
X003660Y024949D01*
X003952Y024949D01*
X003952Y024657D01*
X003952Y024754D02*
X003660Y024754D01*
X003660Y024851D02*
X003952Y024851D01*
X003952Y024948D02*
X003660Y024948D01*
X003352Y024657D02*
X003060Y024657D01*
X003060Y024949D01*
X003352Y024949D01*
X003352Y024657D01*
X003352Y024754D02*
X003060Y024754D01*
X003060Y024851D02*
X003352Y024851D01*
X003352Y024948D02*
X003060Y024948D01*
X003060Y023657D02*
X003352Y023657D01*
X003060Y023657D02*
X003060Y023949D01*
X003352Y023949D01*
X003352Y023657D01*
X003352Y023754D02*
X003060Y023754D01*
X003060Y023851D02*
X003352Y023851D01*
X003352Y023948D02*
X003060Y023948D01*
X003660Y023657D02*
X003952Y023657D01*
X003660Y023657D02*
X003660Y023949D01*
X003952Y023949D01*
X003952Y023657D01*
X003952Y023754D02*
X003660Y023754D01*
X003660Y023851D02*
X003952Y023851D01*
X003952Y023948D02*
X003660Y023948D01*
X003660Y022657D02*
X003952Y022657D01*
X003660Y022657D02*
X003660Y022949D01*
X003952Y022949D01*
X003952Y022657D01*
X003952Y022754D02*
X003660Y022754D01*
X003660Y022851D02*
X003952Y022851D01*
X003952Y022948D02*
X003660Y022948D01*
X003352Y022657D02*
X003060Y022657D01*
X003060Y022949D01*
X003352Y022949D01*
X003352Y022657D01*
X003352Y022754D02*
X003060Y022754D01*
X003060Y022851D02*
X003352Y022851D01*
X003352Y022948D02*
X003060Y022948D01*
X003060Y021657D02*
X003352Y021657D01*
X003060Y021657D02*
X003060Y021949D01*
X003352Y021949D01*
X003352Y021657D01*
X003352Y021754D02*
X003060Y021754D01*
X003060Y021851D02*
X003352Y021851D01*
X003352Y021948D02*
X003060Y021948D01*
X003660Y021657D02*
X003952Y021657D01*
X003660Y021657D02*
X003660Y021949D01*
X003952Y021949D01*
X003952Y021657D01*
X003952Y021754D02*
X003660Y021754D01*
X003660Y021851D02*
X003952Y021851D01*
X003952Y021948D02*
X003660Y021948D01*
X003660Y020657D02*
X003952Y020657D01*
X003660Y020657D02*
X003660Y020949D01*
X003952Y020949D01*
X003952Y020657D01*
X003952Y020754D02*
X003660Y020754D01*
X003660Y020851D02*
X003952Y020851D01*
X003952Y020948D02*
X003660Y020948D01*
X003352Y020657D02*
X003060Y020657D01*
X003060Y020949D01*
X003352Y020949D01*
X003352Y020657D01*
X003352Y020754D02*
X003060Y020754D01*
X003060Y020851D02*
X003352Y020851D01*
X003352Y020948D02*
X003060Y020948D01*
X002860Y018749D02*
X002860Y018457D01*
X002860Y018749D02*
X003152Y018749D01*
X003152Y018457D01*
X002860Y018457D01*
X002860Y018554D02*
X003152Y018554D01*
X003152Y018651D02*
X002860Y018651D01*
X002860Y018748D02*
X003152Y018748D01*
X002860Y018149D02*
X002860Y017857D01*
X002860Y018149D02*
X003152Y018149D01*
X003152Y017857D01*
X002860Y017857D01*
X002860Y017954D02*
X003152Y017954D01*
X003152Y018051D02*
X002860Y018051D01*
X002860Y018148D02*
X003152Y018148D01*
X013362Y009369D02*
X013362Y009077D01*
X013070Y009077D01*
X013070Y009369D01*
X013362Y009369D01*
X013362Y009174D02*
X013070Y009174D01*
X013070Y009271D02*
X013362Y009271D01*
X013362Y009368D02*
X013070Y009368D01*
X013362Y008769D02*
X013362Y008477D01*
X013070Y008477D01*
X013070Y008769D01*
X013362Y008769D01*
X013362Y008574D02*
X013070Y008574D01*
X013070Y008671D02*
X013362Y008671D01*
X013362Y008768D02*
X013070Y008768D01*
X019760Y021657D02*
X020052Y021657D01*
X019760Y021657D02*
X019760Y021949D01*
X020052Y021949D01*
X020052Y021657D01*
X020052Y021754D02*
X019760Y021754D01*
X019760Y021851D02*
X020052Y021851D01*
X020052Y021948D02*
X019760Y021948D01*
X020360Y021657D02*
X020652Y021657D01*
X020360Y021657D02*
X020360Y021949D01*
X020652Y021949D01*
X020652Y021657D01*
X020652Y021754D02*
X020360Y021754D01*
X020360Y021851D02*
X020652Y021851D01*
X020652Y021948D02*
X020360Y021948D01*
X020360Y022657D02*
X020652Y022657D01*
X020360Y022657D02*
X020360Y022949D01*
X020652Y022949D01*
X020652Y022657D01*
X020652Y022754D02*
X020360Y022754D01*
X020360Y022851D02*
X020652Y022851D01*
X020652Y022948D02*
X020360Y022948D01*
X020052Y022657D02*
X019760Y022657D01*
X019760Y022949D01*
X020052Y022949D01*
X020052Y022657D01*
X020052Y022754D02*
X019760Y022754D01*
X019760Y022851D02*
X020052Y022851D01*
X020052Y022948D02*
X019760Y022948D01*
X019760Y023949D02*
X020052Y023949D01*
X020052Y023657D01*
X019760Y023657D01*
X019760Y023949D01*
X019760Y023754D02*
X020052Y023754D01*
X020052Y023851D02*
X019760Y023851D01*
X019760Y023948D02*
X020052Y023948D01*
X020360Y023949D02*
X020652Y023949D01*
X020652Y023657D01*
X020360Y023657D01*
X020360Y023949D01*
X020360Y023754D02*
X020652Y023754D01*
X020652Y023851D02*
X020360Y023851D01*
X020360Y023948D02*
X020652Y023948D01*
X020652Y024949D02*
X020360Y024949D01*
X020652Y024949D02*
X020652Y024657D01*
X020360Y024657D01*
X020360Y024949D01*
X020360Y024754D02*
X020652Y024754D01*
X020652Y024851D02*
X020360Y024851D01*
X020360Y024948D02*
X020652Y024948D01*
X020052Y024949D02*
X019760Y024949D01*
X020052Y024949D02*
X020052Y024657D01*
X019760Y024657D01*
X019760Y024949D01*
X019760Y024754D02*
X020052Y024754D01*
X020052Y024851D02*
X019760Y024851D01*
X019760Y024948D02*
X020052Y024948D01*
X020052Y025949D02*
X019760Y025949D01*
X020052Y025949D02*
X020052Y025657D01*
X019760Y025657D01*
X019760Y025949D01*
X019760Y025754D02*
X020052Y025754D01*
X020052Y025851D02*
X019760Y025851D01*
X019760Y025948D02*
X020052Y025948D01*
X020360Y025949D02*
X020652Y025949D01*
X020652Y025657D01*
X020360Y025657D01*
X020360Y025949D01*
X020360Y025754D02*
X020652Y025754D01*
X020652Y025851D02*
X020360Y025851D01*
X020360Y025948D02*
X020652Y025948D01*
X020652Y026657D02*
X020360Y026657D01*
X020360Y026949D01*
X020652Y026949D01*
X020652Y026657D01*
X020652Y026754D02*
X020360Y026754D01*
X020360Y026851D02*
X020652Y026851D01*
X020652Y026948D02*
X020360Y026948D01*
X020052Y026657D02*
X019760Y026657D01*
X019760Y026949D01*
X020052Y026949D01*
X020052Y026657D01*
X020052Y026754D02*
X019760Y026754D01*
X019760Y026851D02*
X020052Y026851D01*
X020052Y026948D02*
X019760Y026948D01*
X019760Y027657D02*
X020052Y027657D01*
X019760Y027657D02*
X019760Y027949D01*
X020052Y027949D01*
X020052Y027657D01*
X020052Y027754D02*
X019760Y027754D01*
X019760Y027851D02*
X020052Y027851D01*
X020052Y027948D02*
X019760Y027948D01*
X020360Y027657D02*
X020652Y027657D01*
X020360Y027657D02*
X020360Y027949D01*
X020652Y027949D01*
X020652Y027657D01*
X020652Y027754D02*
X020360Y027754D01*
X020360Y027851D02*
X020652Y027851D01*
X020652Y027948D02*
X020360Y027948D01*
X020360Y028657D02*
X020652Y028657D01*
X020360Y028657D02*
X020360Y028949D01*
X020652Y028949D01*
X020652Y028657D01*
X020652Y028754D02*
X020360Y028754D01*
X020360Y028851D02*
X020652Y028851D01*
X020652Y028948D02*
X020360Y028948D01*
X020052Y028657D02*
X019760Y028657D01*
X019760Y028949D01*
X020052Y028949D01*
X020052Y028657D01*
X020052Y028754D02*
X019760Y028754D01*
X019760Y028851D02*
X020052Y028851D01*
X020052Y028948D02*
X019760Y028948D01*
X022579Y028289D02*
X022871Y028289D01*
X022871Y027997D01*
X022579Y027997D01*
X022579Y028289D01*
X022579Y028094D02*
X022871Y028094D01*
X022871Y028191D02*
X022579Y028191D01*
X022579Y028288D02*
X022871Y028288D01*
X023179Y028289D02*
X023471Y028289D01*
X023471Y027997D01*
X023179Y027997D01*
X023179Y028289D01*
X023179Y028094D02*
X023471Y028094D01*
X023471Y028191D02*
X023179Y028191D01*
X023179Y028288D02*
X023471Y028288D01*
X029826Y018126D02*
X030118Y018126D01*
X029826Y018126D02*
X029826Y018418D01*
X030118Y018418D01*
X030118Y018126D01*
X030118Y018223D02*
X029826Y018223D01*
X029826Y018320D02*
X030118Y018320D01*
X030118Y018417D02*
X029826Y018417D01*
X030426Y018126D02*
X030718Y018126D01*
X030426Y018126D02*
X030426Y018418D01*
X030718Y018418D01*
X030718Y018126D01*
X030718Y018223D02*
X030426Y018223D01*
X030426Y018320D02*
X030718Y018320D01*
X030718Y018417D02*
X030426Y018417D01*
X027910Y003949D02*
X027910Y003657D01*
X027910Y003949D02*
X028202Y003949D01*
X028202Y003657D01*
X027910Y003657D01*
X027910Y003754D02*
X028202Y003754D01*
X028202Y003851D02*
X027910Y003851D01*
X027910Y003948D02*
X028202Y003948D01*
X027910Y003349D02*
X027910Y003057D01*
X027910Y003349D02*
X028202Y003349D01*
X028202Y003057D01*
X027910Y003057D01*
X027910Y003154D02*
X028202Y003154D01*
X028202Y003251D02*
X027910Y003251D01*
X027910Y003348D02*
X028202Y003348D01*
X027202Y003349D02*
X027202Y003057D01*
X026910Y003057D01*
X026910Y003349D01*
X027202Y003349D01*
X027202Y003154D02*
X026910Y003154D01*
X026910Y003251D02*
X027202Y003251D01*
X027202Y003348D02*
X026910Y003348D01*
X027202Y003657D02*
X027202Y003949D01*
X027202Y003657D02*
X026910Y003657D01*
X026910Y003949D01*
X027202Y003949D01*
X027202Y003754D02*
X026910Y003754D01*
X026910Y003851D02*
X027202Y003851D01*
X027202Y003948D02*
X026910Y003948D01*
D22*
X017383Y020877D03*
X017009Y020877D03*
X016635Y020877D03*
X016635Y021743D03*
X017009Y021743D03*
X017383Y021743D03*
D23*
X027228Y007587D03*
X029984Y007587D03*
D24*
X028928Y007587D03*
X031684Y007587D03*
X031684Y004687D03*
X029984Y004687D03*
X028928Y004687D03*
X027228Y004687D03*
D25*
X025536Y006893D02*
X025536Y007493D01*
X024536Y007493D02*
X024536Y006893D01*
X023536Y006893D02*
X023536Y007493D01*
X022536Y007493D02*
X022536Y006893D01*
X021536Y006893D02*
X021536Y007493D01*
X020536Y007493D02*
X020536Y006893D01*
X019536Y006893D02*
X019536Y007493D01*
X018536Y007493D02*
X018536Y006893D01*
X017536Y006893D02*
X017536Y007493D01*
X016536Y007493D02*
X016536Y006893D01*
X020036Y010093D02*
X020036Y010693D01*
X021036Y010693D02*
X021036Y010093D01*
X022036Y010093D02*
X022036Y010693D01*
X023036Y010693D02*
X023036Y010093D01*
X017806Y023432D02*
X017806Y024032D01*
X016806Y024032D02*
X016806Y023432D01*
X005844Y023513D02*
X005244Y023513D01*
X005244Y022513D02*
X005844Y022513D01*
X005844Y021513D02*
X005244Y021513D01*
D26*
X004964Y006767D03*
X003782Y004917D03*
X002641Y006767D03*
D27*
X009329Y014341D03*
X013070Y014341D03*
X007725Y022513D03*
D28*
X008404Y017491D03*
X008404Y015719D03*
X012696Y012963D03*
X012696Y011192D03*
D29*
X011416Y010365D03*
X009684Y018318D03*
D30*
X006844Y018456D03*
X005236Y018456D03*
X009022Y008253D03*
X010630Y008253D03*
D31*
X023314Y020979D03*
X024101Y020979D03*
X024889Y020979D03*
X025676Y020979D03*
X026464Y020979D03*
X027251Y020979D03*
X028038Y020979D03*
X028826Y020979D03*
X028826Y027278D03*
X028038Y027278D03*
X027251Y027278D03*
X026464Y027278D03*
X025676Y027278D03*
X024889Y027278D03*
X024101Y027278D03*
X023314Y027278D03*
D32*
X022731Y026097D03*
X022731Y025310D03*
X022731Y024522D03*
X022731Y023735D03*
X022731Y022947D03*
X022731Y022160D03*
D33*
X011886Y022559D03*
X011886Y021409D03*
D34*
X024919Y017348D03*
X025509Y017348D03*
X026100Y017348D03*
X026690Y017348D03*
X027281Y017348D03*
X027871Y017348D03*
X028462Y017348D03*
X029053Y017348D03*
X029643Y017348D03*
X029643Y010596D03*
X029053Y010596D03*
X028462Y010596D03*
X027871Y010596D03*
X027281Y010596D03*
X026690Y010596D03*
X026100Y010596D03*
X025509Y010596D03*
X024919Y010596D03*
D35*
X027056Y013972D03*
D36*
X024459Y010805D02*
X024403Y010844D01*
X024341Y010873D01*
X024274Y010891D01*
X024206Y010897D01*
X024138Y010891D01*
X024071Y010873D01*
X024009Y010844D01*
X023953Y010805D01*
X023905Y010756D01*
X023865Y010700D01*
X023836Y010638D01*
X023818Y010572D01*
X023812Y010503D01*
X023818Y010435D01*
X023836Y010369D01*
X023865Y010306D01*
X023905Y010250D01*
X023953Y010202D01*
X024009Y010162D01*
X024071Y010133D01*
X024138Y010116D01*
X024206Y010110D01*
X024274Y010116D01*
X024341Y010133D01*
X024403Y010162D01*
X024459Y010202D01*
X024508Y010250D01*
X024547Y010306D01*
X024576Y010369D01*
X024594Y010435D01*
X024600Y010503D01*
X024594Y010572D01*
X024576Y010638D01*
X024547Y010700D01*
X024508Y010756D01*
X024459Y010805D01*
X024482Y010782D02*
X023930Y010782D01*
X023888Y010733D02*
X024524Y010733D01*
X024554Y010685D02*
X023858Y010685D01*
X023836Y010636D02*
X024576Y010636D01*
X024589Y010588D02*
X023823Y010588D01*
X023816Y010539D02*
X024597Y010539D01*
X024599Y010491D02*
X023813Y010491D01*
X023818Y010442D02*
X024594Y010442D01*
X024583Y010394D02*
X023829Y010394D01*
X023847Y010345D02*
X024565Y010345D01*
X024540Y010297D02*
X023872Y010297D01*
X023906Y010248D02*
X024506Y010248D01*
X024457Y010200D02*
X023956Y010200D01*
X024033Y010151D02*
X024379Y010151D01*
X024423Y010830D02*
X023989Y010830D01*
X024092Y010879D02*
X024320Y010879D01*
X031615Y017756D02*
X031586Y017819D01*
X031568Y017885D01*
X031562Y017953D01*
X031568Y018022D01*
X031586Y018088D01*
X031615Y018150D01*
X031655Y018206D01*
X031703Y018255D01*
X031759Y018294D01*
X031821Y018323D01*
X031888Y018341D01*
X031956Y018347D01*
X032024Y018341D01*
X032091Y018323D01*
X032153Y018294D01*
X032209Y018255D01*
X032258Y018206D01*
X032297Y018150D01*
X032326Y018088D01*
X032344Y018022D01*
X032350Y017953D01*
X032344Y017885D01*
X032326Y017819D01*
X032297Y017756D01*
X032258Y017700D01*
X032209Y017652D01*
X032153Y017612D01*
X032091Y017583D01*
X032024Y017566D01*
X031956Y017560D01*
X031888Y017566D01*
X031821Y017583D01*
X031759Y017612D01*
X031703Y017652D01*
X031655Y017700D01*
X031615Y017756D01*
X031611Y017766D02*
X032301Y017766D01*
X032324Y017814D02*
X031588Y017814D01*
X031574Y017863D02*
X032338Y017863D01*
X032346Y017911D02*
X031566Y017911D01*
X031563Y017960D02*
X032349Y017960D01*
X032345Y018008D02*
X031567Y018008D01*
X031578Y018057D02*
X032334Y018057D01*
X032318Y018105D02*
X031594Y018105D01*
X031618Y018154D02*
X032294Y018154D01*
X032260Y018202D02*
X031652Y018202D01*
X031699Y018251D02*
X032213Y018251D01*
X032142Y018299D02*
X031770Y018299D01*
X031643Y017717D02*
X032270Y017717D01*
X032226Y017669D02*
X031686Y017669D01*
X031748Y017620D02*
X032164Y017620D01*
X032048Y017572D02*
X031864Y017572D01*
X022726Y020219D02*
X022744Y020285D01*
X022750Y020353D01*
X022744Y020422D01*
X022726Y020488D01*
X022697Y020550D01*
X022658Y020606D01*
X022609Y020655D01*
X022553Y020694D01*
X022491Y020723D01*
X022424Y020741D01*
X022356Y020747D01*
X022288Y020741D01*
X022221Y020723D01*
X022159Y020694D01*
X022103Y020655D01*
X022055Y020606D01*
X022015Y020550D01*
X021986Y020488D01*
X021968Y020422D01*
X021962Y020353D01*
X021968Y020285D01*
X021986Y020219D01*
X022015Y020156D01*
X022055Y020100D01*
X022103Y020052D01*
X022159Y020012D01*
X022221Y019983D01*
X022288Y019966D01*
X022356Y019960D01*
X022424Y019966D01*
X022491Y019983D01*
X022553Y020012D01*
X022609Y020052D01*
X022658Y020100D01*
X022697Y020156D01*
X022726Y020219D01*
X022732Y020239D02*
X021981Y020239D01*
X021968Y020288D02*
X022744Y020288D01*
X022748Y020336D02*
X021964Y020336D01*
X021965Y020385D02*
X022747Y020385D01*
X022741Y020433D02*
X021972Y020433D01*
X021985Y020482D02*
X022728Y020482D01*
X022706Y020530D02*
X022006Y020530D01*
X022035Y020579D02*
X022677Y020579D01*
X022637Y020627D02*
X022076Y020627D01*
X022133Y020676D02*
X022579Y020676D01*
X022487Y020724D02*
X022226Y020724D01*
X021999Y020191D02*
X022713Y020191D01*
X022687Y020142D02*
X022025Y020142D01*
X022061Y020094D02*
X022651Y020094D01*
X022600Y020045D02*
X022112Y020045D01*
X022192Y019997D02*
X022520Y019997D01*
X031605Y027700D02*
X031653Y027652D01*
X031709Y027612D01*
X031771Y027583D01*
X031838Y027566D01*
X031906Y027560D01*
X031974Y027566D01*
X032041Y027583D01*
X032103Y027612D01*
X032159Y027652D01*
X032208Y027700D01*
X032247Y027756D01*
X032276Y027819D01*
X032294Y027885D01*
X032300Y027953D01*
X032294Y028022D01*
X032276Y028088D01*
X032247Y028150D01*
X032208Y028206D01*
X032159Y028255D01*
X032103Y028294D01*
X032041Y028323D01*
X031974Y028341D01*
X031906Y028347D01*
X031838Y028341D01*
X031771Y028323D01*
X031709Y028294D01*
X031653Y028255D01*
X031605Y028206D01*
X031565Y028150D01*
X031536Y028088D01*
X031518Y028022D01*
X031512Y027953D01*
X031518Y027885D01*
X031536Y027819D01*
X031565Y027756D01*
X031605Y027700D01*
X031599Y027708D02*
X032213Y027708D01*
X032247Y027757D02*
X031565Y027757D01*
X031542Y027805D02*
X032270Y027805D01*
X032286Y027854D02*
X031527Y027854D01*
X031517Y027902D02*
X032295Y027902D01*
X032300Y027951D02*
X031513Y027951D01*
X031516Y027999D02*
X032296Y027999D01*
X032287Y028048D02*
X031525Y028048D01*
X031540Y028096D02*
X032272Y028096D01*
X032249Y028145D02*
X031563Y028145D01*
X031595Y028193D02*
X032217Y028193D01*
X032172Y028242D02*
X031640Y028242D01*
X031704Y028290D02*
X032108Y028290D01*
X031982Y028339D02*
X031830Y028339D01*
X031645Y027660D02*
X032167Y027660D01*
X032101Y027611D02*
X031711Y027611D01*
X031868Y027563D02*
X031944Y027563D01*
X029724Y002891D02*
X029656Y002897D01*
X029588Y002891D01*
X029521Y002873D01*
X029459Y002844D01*
X029403Y002805D01*
X029355Y002756D01*
X029315Y002700D01*
X029286Y002638D01*
X029268Y002572D01*
X029262Y002503D01*
X029268Y002435D01*
X029286Y002369D01*
X029315Y002306D01*
X029355Y002250D01*
X029403Y002202D01*
X029459Y002162D01*
X029521Y002133D01*
X029588Y002116D01*
X029656Y002110D01*
X029724Y002116D01*
X029791Y002133D01*
X029853Y002162D01*
X029909Y002202D01*
X029958Y002250D01*
X029997Y002306D01*
X030026Y002369D01*
X030044Y002435D01*
X030050Y002503D01*
X030044Y002572D01*
X030026Y002638D01*
X029997Y002700D01*
X029958Y002756D01*
X029909Y002805D01*
X029853Y002844D01*
X029791Y002873D01*
X029724Y002891D01*
X029779Y002876D02*
X029533Y002876D01*
X029436Y002828D02*
X029876Y002828D01*
X029935Y002779D02*
X029377Y002779D01*
X029337Y002731D02*
X029976Y002731D01*
X030005Y002682D02*
X029307Y002682D01*
X029285Y002634D02*
X030027Y002634D01*
X030040Y002585D02*
X029272Y002585D01*
X029265Y002537D02*
X030047Y002537D01*
X030048Y002488D02*
X029264Y002488D01*
X029268Y002440D02*
X030044Y002440D01*
X030032Y002391D02*
X029280Y002391D01*
X029298Y002343D02*
X030014Y002343D01*
X029989Y002294D02*
X029324Y002294D01*
X029359Y002246D02*
X029953Y002246D01*
X029903Y002197D02*
X029409Y002197D01*
X029488Y002149D02*
X029824Y002149D01*
X004380Y002453D02*
X004374Y002522D01*
X004356Y002588D01*
X004327Y002650D01*
X004288Y002706D01*
X004239Y002755D01*
X004183Y002794D01*
X004121Y002823D01*
X004054Y002841D01*
X003986Y002847D01*
X003918Y002841D01*
X003851Y002823D01*
X003789Y002794D01*
X003733Y002755D01*
X003685Y002706D01*
X003645Y002650D01*
X003616Y002588D01*
X003598Y002522D01*
X003592Y002453D01*
X003598Y002385D01*
X003616Y002319D01*
X003645Y002256D01*
X003685Y002200D01*
X003733Y002152D01*
X003789Y002112D01*
X003851Y002083D01*
X003918Y002066D01*
X003986Y002060D01*
X004054Y002066D01*
X004121Y002083D01*
X004183Y002112D01*
X004239Y002152D01*
X004288Y002200D01*
X004327Y002256D01*
X004356Y002319D01*
X004374Y002385D01*
X004380Y002453D01*
X004379Y002440D02*
X003594Y002440D01*
X003595Y002488D02*
X004377Y002488D01*
X004370Y002537D02*
X003602Y002537D01*
X003615Y002585D02*
X004357Y002585D01*
X004335Y002634D02*
X003638Y002634D01*
X003668Y002682D02*
X004305Y002682D01*
X004263Y002731D02*
X003709Y002731D01*
X003768Y002779D02*
X004204Y002779D01*
X004104Y002828D02*
X003868Y002828D01*
X003598Y002391D02*
X004374Y002391D01*
X004363Y002343D02*
X003610Y002343D01*
X003627Y002294D02*
X004345Y002294D01*
X004320Y002246D02*
X003653Y002246D01*
X003687Y002197D02*
X004285Y002197D01*
X004235Y002149D02*
X003737Y002149D01*
X003815Y002100D02*
X004157Y002100D01*
X003986Y029930D02*
X004054Y029936D01*
X004121Y029953D01*
X004183Y029982D01*
X004239Y030022D01*
X004288Y030070D01*
X004327Y030126D01*
X004356Y030189D01*
X004374Y030255D01*
X004380Y030323D01*
X004374Y030392D01*
X004356Y030458D01*
X004327Y030520D01*
X004288Y030576D01*
X004239Y030625D01*
X004183Y030664D01*
X004121Y030693D01*
X004054Y030711D01*
X003986Y030717D01*
X003918Y030711D01*
X003851Y030693D01*
X003789Y030664D01*
X003733Y030625D01*
X003685Y030576D01*
X003645Y030520D01*
X003616Y030458D01*
X003598Y030392D01*
X003592Y030323D01*
X003598Y030255D01*
X003616Y030189D01*
X003645Y030126D01*
X003685Y030070D01*
X003733Y030022D01*
X003789Y029982D01*
X003851Y029953D01*
X003918Y029936D01*
X003986Y029930D01*
X003903Y029939D02*
X004069Y029939D01*
X004191Y029988D02*
X003781Y029988D01*
X003718Y030036D02*
X004254Y030036D01*
X004298Y030085D02*
X003674Y030085D01*
X003642Y030133D02*
X004330Y030133D01*
X004353Y030182D02*
X003619Y030182D01*
X003605Y030230D02*
X004367Y030230D01*
X004376Y030279D02*
X003596Y030279D01*
X003593Y030327D02*
X004379Y030327D01*
X004375Y030376D02*
X003597Y030376D01*
X003607Y030424D02*
X004365Y030424D01*
X004349Y030473D02*
X003623Y030473D01*
X003646Y030521D02*
X004326Y030521D01*
X004292Y030570D02*
X003680Y030570D01*
X003727Y030618D02*
X004246Y030618D01*
X004177Y030667D02*
X003795Y030667D01*
X003968Y030715D02*
X004004Y030715D01*
D37*
X003106Y026153D03*
X003106Y025453D03*
X003906Y025803D03*
X003106Y020153D03*
X003106Y019453D03*
X003906Y019803D03*
X003706Y018653D03*
X004506Y018303D03*
X003706Y017953D03*
X011159Y025132D03*
X011159Y025832D03*
X011959Y025482D03*
X012406Y008603D03*
X012406Y007903D03*
X011606Y008253D03*
D38*
X023213Y009027D03*
X024213Y009027D03*
X025213Y009027D03*
X026213Y009027D03*
X027213Y009027D03*
X028213Y009027D03*
X029213Y009027D03*
X030213Y009027D03*
X031213Y009027D03*
X031213Y019027D03*
X030213Y019027D03*
X029213Y019027D03*
X028213Y019027D03*
X027213Y019027D03*
X026213Y019027D03*
X025213Y019027D03*
X024213Y019027D03*
X023213Y019027D03*
D39*
X005971Y014700D03*
X004495Y014602D03*
X004495Y012633D03*
X005971Y012535D03*
D40*
X002369Y013618D03*
D41*
X002999Y016649D03*
X006345Y016649D03*
X006345Y010586D03*
X002999Y010586D03*
D42*
X003176Y012633D03*
X003176Y014602D03*
M02*
