<?xml version="1.0" encoding="UTF-8" standalone="no"?>
<!-- Created with Inkscape (http://www.inkscape.org/) -->

<svg
   xmlns:dc="http://purl.org/dc/elements/1.1/"
   xmlns:cc="http://creativecommons.org/ns#"
   xmlns:rdf="http://www.w3.org/1999/02/22-rdf-syntax-ns#"
   xmlns:svg="http://www.w3.org/2000/svg"
   xmlns="http://www.w3.org/2000/svg"
   xmlns:sodipodi="http://sodipodi.sourceforge.net/DTD/sodipodi-0.dtd"
   xmlns:inkscape="http://www.inkscape.org/namespaces/inkscape"
   width="800mm"
   height="450mm"
   viewBox="0 0 800 450"
   version="1.1"
   id="svg3377"
   inkscape:version="0.92.2 5c3e80d, 2017-08-06"
   sodipodi:docname="LGA775-kit.svg">
  <defs
     id="defs3371">
    <marker
       style="overflow:visible"
       refY="0.0"
       refX="0.0"
       orient="auto"
       id="DistanceX">
      <path
         id="path3400"
         style="stroke:#000000; stroke-width:0.5"
         d="M 3,-3 L -3,3 M 0,-5 L  0,5" />
    </marker>
    <pattern
       y="0"
       x="0"
       width="8"
       patternUnits="userSpaceOnUse"
       id="Hatch"
       height="8">
      <path
         id="path3403"
         stroke-width="0.25"
         stroke="#000000"
         linecap="square"
         d="M8 4 l-4,4" />
      <path
         id="path3405"
         stroke-width="0.25"
         stroke="#000000"
         linecap="square"
         d="M6 2 l-4,4" />
      <path
         id="path3407"
         stroke-width="0.25"
         stroke="#000000"
         linecap="square"
         d="M4 0 l-4,4" />
    </pattern>
    <symbol
       id="*MODEL_SPACE" />
    <symbol
       id="*PAPER_SPACE" />
    <marker
       style="overflow:visible"
       refY="0.0"
       refX="0.0"
       orient="auto"
       id="DistanceX-9">
      <path
         id="path3460"
         style="stroke:#000000; stroke-width:0.5"
         d="M 3,-3 L -3,3 M 0,-5 L  0,5" />
    </marker>
    <pattern
       y="0"
       x="0"
       width="8"
       patternUnits="userSpaceOnUse"
       id="Hatch-3"
       height="8">
      <path
         id="path3463"
         stroke-width="0.25"
         stroke="#000000"
         linecap="square"
         d="M8 4 l-4,4" />
      <path
         id="path3465"
         stroke-width="0.25"
         stroke="#000000"
         linecap="square"
         d="M6 2 l-4,4" />
      <path
         id="path3467"
         stroke-width="0.25"
         stroke="#000000"
         linecap="square"
         d="M4 0 l-4,4" />
    </pattern>
    <symbol
       id="*MODEL_SPACE-3" />
    <symbol
       id="*PAPER_SPACE-7" />
    <marker
       style="overflow:visible"
       refY="0.0"
       refX="0.0"
       orient="auto"
       id="DistanceX-7">
      <path
         id="path3529"
         style="stroke:#000000; stroke-width:0.5"
         d="M 3,-3 L -3,3 M 0,-5 L  0,5" />
    </marker>
    <pattern
       y="0"
       x="0"
       width="8"
       patternUnits="userSpaceOnUse"
       id="Hatch-32"
       height="8">
      <path
         id="path3532"
         stroke-width="0.25"
         stroke="#000000"
         linecap="square"
         d="M8 4 l-4,4" />
      <path
         id="path3534"
         stroke-width="0.25"
         stroke="#000000"
         linecap="square"
         d="M6 2 l-4,4" />
      <path
         id="path3536"
         stroke-width="0.25"
         stroke="#000000"
         linecap="square"
         d="M4 0 l-4,4" />
    </pattern>
    <symbol
       id="*MODEL_SPACE-5" />
    <symbol
       id="*PAPER_SPACE-6" />
    <marker
       style="overflow:visible"
       refY="0.0"
       refX="0.0"
       orient="auto"
       id="DistanceX-3">
      <path
         id="path3574"
         style="stroke:#000000; stroke-width:0.5"
         d="M 3,-3 L -3,3 M 0,-5 L  0,5" />
    </marker>
    <pattern
       y="0"
       x="0"
       width="8"
       patternUnits="userSpaceOnUse"
       id="Hatch-4"
       height="8">
      <path
         id="path3577"
         stroke-width="0.25"
         stroke="#000000"
         linecap="square"
         d="M8 4 l-4,4" />
      <path
         id="path3579"
         stroke-width="0.25"
         stroke="#000000"
         linecap="square"
         d="M6 2 l-4,4" />
      <path
         id="path3581"
         stroke-width="0.25"
         stroke="#000000"
         linecap="square"
         d="M4 0 l-4,4" />
    </pattern>
    <symbol
       id="*MODEL_SPACE-0" />
    <symbol
       id="*PAPER_SPACE-60" />
    <marker
       style="overflow:visible"
       refY="0.0"
       refX="0.0"
       orient="auto"
       id="DistanceX-4">
      <path
         id="path3616"
         style="stroke:#000000; stroke-width:0.5"
         d="M 3,-3 L -3,3 M 0,-5 L  0,5" />
    </marker>
    <pattern
       y="0"
       x="0"
       width="8"
       patternUnits="userSpaceOnUse"
       id="Hatch-0"
       height="8">
      <path
         id="path3619"
         stroke-width="0.25"
         stroke="#000000"
         linecap="square"
         d="M8 4 l-4,4" />
      <path
         id="path3621"
         stroke-width="0.25"
         stroke="#000000"
         linecap="square"
         d="M6 2 l-4,4" />
      <path
         id="path3623"
         stroke-width="0.25"
         stroke="#000000"
         linecap="square"
         d="M4 0 l-4,4" />
    </pattern>
    <symbol
       id="*MODEL_SPACE-56" />
    <symbol
       id="*PAPER_SPACE-8" />
    <marker
       style="overflow:visible"
       refY="0.0"
       refX="0.0"
       orient="auto"
       id="DistanceX-5">
      <path
         id="path3652"
         style="stroke:#000000; stroke-width:0.5"
         d="M 3,-3 L -3,3 M 0,-5 L  0,5" />
    </marker>
    <pattern
       y="0"
       x="0"
       width="8"
       patternUnits="userSpaceOnUse"
       id="Hatch-37"
       height="8">
      <path
         id="path3655"
         stroke-width="0.25"
         stroke="#000000"
         linecap="square"
         d="M8 4 l-4,4" />
      <path
         id="path3657"
         stroke-width="0.25"
         stroke="#000000"
         linecap="square"
         d="M6 2 l-4,4" />
      <path
         id="path3659"
         stroke-width="0.25"
         stroke="#000000"
         linecap="square"
         d="M4 0 l-4,4" />
    </pattern>
    <symbol
       id="*MODEL_SPACE-6" />
    <symbol
       id="*PAPER_SPACE-86" />
    <marker
       style="overflow:visible"
       refY="0.0"
       refX="0.0"
       orient="auto"
       id="DistanceX-71">
      <path
         id="path3706"
         style="stroke:#000000; stroke-width:0.5"
         d="M 3,-3 L -3,3 M 0,-5 L  0,5" />
    </marker>
    <pattern
       y="0"
       x="0"
       width="8"
       patternUnits="userSpaceOnUse"
       id="Hatch-8"
       height="8">
      <path
         id="path3709"
         stroke-width="0.25"
         stroke="#000000"
         linecap="square"
         d="M8 4 l-4,4" />
      <path
         id="path3711"
         stroke-width="0.25"
         stroke="#000000"
         linecap="square"
         d="M6 2 l-4,4" />
      <path
         id="path3713"
         stroke-width="0.25"
         stroke="#000000"
         linecap="square"
         d="M4 0 l-4,4" />
    </pattern>
    <symbol
       id="*MODEL_SPACE-4" />
    <symbol
       id="*PAPER_SPACE-9" />
    <marker
       style="overflow:visible"
       refY="0.0"
       refX="0.0"
       orient="auto"
       id="DistanceX-73">
      <path
         id="path3775"
         style="stroke:#000000; stroke-width:0.5"
         d="M 3,-3 L -3,3 M 0,-5 L  0,5" />
    </marker>
    <pattern
       y="0"
       x="0"
       width="8"
       patternUnits="userSpaceOnUse"
       id="Hatch-1"
       height="8">
      <path
         id="path3778"
         stroke-width="0.25"
         stroke="#000000"
         linecap="square"
         d="M8 4 l-4,4" />
      <path
         id="path3780"
         stroke-width="0.25"
         stroke="#000000"
         linecap="square"
         d="M6 2 l-4,4" />
      <path
         id="path3782"
         stroke-width="0.25"
         stroke="#000000"
         linecap="square"
         d="M4 0 l-4,4" />
    </pattern>
    <symbol
       id="*MODEL_SPACE-02" />
    <symbol
       id="*PAPER_SPACE-3" />
    <marker
       style="overflow:visible"
       refY="0.0"
       refX="0.0"
       orient="auto"
       id="DistanceX-718">
      <path
         id="path3907"
         style="stroke:#000000; stroke-width:0.5"
         d="M 3,-3 L -3,3 M 0,-5 L  0,5" />
    </marker>
    <pattern
       y="0"
       x="0"
       width="8"
       patternUnits="userSpaceOnUse"
       id="Hatch-9"
       height="8">
      <path
         id="path3910"
         stroke-width="0.25"
         stroke="#000000"
         linecap="square"
         d="M8 4 l-4,4" />
      <path
         id="path3912"
         stroke-width="0.25"
         stroke="#000000"
         linecap="square"
         d="M6 2 l-4,4" />
      <path
         id="path3914"
         stroke-width="0.25"
         stroke="#000000"
         linecap="square"
         d="M4 0 l-4,4" />
    </pattern>
    <symbol
       id="*MODEL_SPACE-37" />
    <symbol
       id="*PAPER_SPACE-4" />
    <marker
       style="overflow:visible"
       refY="0.0"
       refX="0.0"
       orient="auto"
       id="DistanceX-8">
      <path
         id="path3952"
         style="stroke:#000000; stroke-width:0.5"
         d="M 3,-3 L -3,3 M 0,-5 L  0,5" />
    </marker>
    <pattern
       y="0"
       x="0"
       width="8"
       patternUnits="userSpaceOnUse"
       id="Hatch-04"
       height="8">
      <path
         id="path3955"
         stroke-width="0.25"
         stroke="#000000"
         linecap="square"
         d="M8 4 l-4,4" />
      <path
         id="path3957"
         stroke-width="0.25"
         stroke="#000000"
         linecap="square"
         d="M6 2 l-4,4" />
      <path
         id="path3959"
         stroke-width="0.25"
         stroke="#000000"
         linecap="square"
         d="M4 0 l-4,4" />
    </pattern>
    <symbol
       id="*MODEL_SPACE-05" />
    <symbol
       id="*PAPER_SPACE-70" />
    <marker
       style="overflow:visible"
       refY="0.0"
       refX="0.0"
       orient="auto"
       id="DistanceX-0">
      <path
         id="path4006"
         style="stroke:#000000; stroke-width:0.5"
         d="M 3,-3 L -3,3 M 0,-5 L  0,5" />
    </marker>
    <pattern
       y="0"
       x="0"
       width="8"
       patternUnits="userSpaceOnUse"
       id="Hatch-5"
       height="8">
      <path
         id="path4009"
         stroke-width="0.25"
         stroke="#000000"
         linecap="square"
         d="M8 4 l-4,4" />
      <path
         id="path4011"
         stroke-width="0.25"
         stroke="#000000"
         linecap="square"
         d="M6 2 l-4,4" />
      <path
         id="path4013"
         stroke-width="0.25"
         stroke="#000000"
         linecap="square"
         d="M4 0 l-4,4" />
    </pattern>
    <symbol
       id="*MODEL_SPACE-67" />
    <symbol
       id="*PAPER_SPACE-80" />
    <marker
       style="overflow:visible"
       refY="0.0"
       refX="0.0"
       orient="auto"
       id="DistanceX-6">
      <path
         id="path4054"
         style="stroke:#000000; stroke-width:0.5"
         d="M 3,-3 L -3,3 M 0,-5 L  0,5" />
    </marker>
    <pattern
       y="0"
       x="0"
       width="8"
       patternUnits="userSpaceOnUse"
       id="Hatch-57"
       height="8">
      <path
         id="path4057"
         stroke-width="0.25"
         stroke="#000000"
         linecap="square"
         d="M8 4 l-4,4" />
      <path
         id="path4059"
         stroke-width="0.25"
         stroke="#000000"
         linecap="square"
         d="M6 2 l-4,4" />
      <path
         id="path4061"
         stroke-width="0.25"
         stroke="#000000"
         linecap="square"
         d="M4 0 l-4,4" />
    </pattern>
    <symbol
       id="*MODEL_SPACE-34" />
    <symbol
       id="*PAPER_SPACE-30" />
    <marker
       style="overflow:visible"
       refY="0.0"
       refX="0.0"
       orient="auto"
       id="DistanceX-48">
      <path
         id="path4102"
         style="stroke:#000000; stroke-width:0.5"
         d="M 3,-3 L -3,3 M 0,-5 L  0,5" />
    </marker>
    <pattern
       y="0"
       x="0"
       width="8"
       patternUnits="userSpaceOnUse"
       id="Hatch-7"
       height="8">
      <path
         id="path4105"
         stroke-width="0.25"
         stroke="#000000"
         linecap="square"
         d="M8 4 l-4,4" />
      <path
         id="path4107"
         stroke-width="0.25"
         stroke="#000000"
         linecap="square"
         d="M6 2 l-4,4" />
      <path
         id="path4109"
         stroke-width="0.25"
         stroke="#000000"
         linecap="square"
         d="M4 0 l-4,4" />
    </pattern>
    <symbol
       id="*MODEL_SPACE-59" />
    <symbol
       id="*PAPER_SPACE-5" />
    <marker
       style="overflow:visible"
       refY="0.0"
       refX="0.0"
       orient="auto"
       id="DistanceX-32">
      <path
         id="path4156"
         style="stroke:#000000; stroke-width:0.5"
         d="M 3,-3 L -3,3 M 0,-5 L  0,5" />
    </marker>
    <pattern
       y="0"
       x="0"
       width="8"
       patternUnits="userSpaceOnUse"
       id="Hatch-73"
       height="8">
      <path
         id="path4159"
         stroke-width="0.25"
         stroke="#000000"
         linecap="square"
         d="M8 4 l-4,4" />
      <path
         id="path4161"
         stroke-width="0.25"
         stroke="#000000"
         linecap="square"
         d="M6 2 l-4,4" />
      <path
         id="path4163"
         stroke-width="0.25"
         stroke="#000000"
         linecap="square"
         d="M4 0 l-4,4" />
    </pattern>
    <symbol
       id="*MODEL_SPACE-9" />
    <symbol
       id="*PAPER_SPACE-77" />
    <marker
       style="overflow:visible"
       refY="0.0"
       refX="0.0"
       orient="auto"
       id="DistanceX-95">
      <path
         id="path4262"
         style="stroke:#000000; stroke-width:0.5"
         d="M 3,-3 L -3,3 M 0,-5 L  0,5" />
    </marker>
    <pattern
       y="0"
       x="0"
       width="8"
       patternUnits="userSpaceOnUse"
       id="Hatch-33"
       height="8">
      <path
         id="path4265"
         stroke-width="0.25"
         stroke="#000000"
         linecap="square"
         d="M8 4 l-4,4" />
      <path
         id="path4267"
         stroke-width="0.25"
         stroke="#000000"
         linecap="square"
         d="M6 2 l-4,4" />
      <path
         id="path4269"
         stroke-width="0.25"
         stroke="#000000"
         linecap="square"
         d="M4 0 l-4,4" />
    </pattern>
    <symbol
       id="*MODEL_SPACE-38" />
    <symbol
       id="*PAPER_SPACE-58" />
  </defs>
  <sodipodi:namedview
     id="base"
     pagecolor="#ffffff"
     bordercolor="#666666"
     borderopacity="1.0"
     inkscape:pageopacity="0.0"
     inkscape:pageshadow="2"
     inkscape:zoom="0.37747222"
     inkscape:cx="1511.811"
     inkscape:cy="850.3937"
     inkscape:document-units="mm"
     inkscape:current-layer="layer1"
     showgrid="false"
     inkscape:window-width="1440"
     inkscape:window-height="855"
     inkscape:window-x="0"
     inkscape:window-y="1"
     inkscape:window-maximized="1" />
  <metadata
     id="metadata3374">
    <rdf:RDF>
      <cc:Work
         rdf:about="">
        <dc:format>image/svg+xml</dc:format>
        <dc:type
           rdf:resource="http://purl.org/dc/dcmitype/StillImage" />
        <dc:title></dc:title>
      </cc:Work>
    </rdf:RDF>
  </metadata>
  <g
     inkscape:label="Layer 1"
     inkscape:groupmode="layer"
     id="layer1"
     transform="translate(0,153)">
    <g
       id="g3432"
       inkscape:label="0"
       transform="matrix(0.26458333,0,0,0.26458333,363.08412,-306.50793)">
      <path
         id="path3414"
         style="fill:none;stroke:#000000"
         d="m 134.17323,1186.7717 a 13.22835,13.22835 0 1 0 -26.4567,0 13.22835,13.22835 0 1 0 26.4567,0 z"
         inkscape:connector-curvature="0" />
      <path
         id="path3416"
         style="fill:none;stroke:#000000"
         d="m -107.71653,1186.7717 a 13.22835,13.22835 0 1 0 -26.4567,0 13.22835,13.22835 0 1 0 26.4567,0 z"
         inkscape:connector-curvature="0" />
      <path
         id="path3418"
         style="fill:none;stroke:#000000"
         d="m 134.17323,1058.2677 a 13.22835,13.22835 0 1 0 -26.4567,0 13.22835,13.22835 0 1 0 26.4567,0 z"
         inkscape:connector-curvature="0" />
      <path
         id="path3420"
         style="fill:none;stroke:#000000"
         d="m -107.71653,1058.2677 a 13.22835,13.22835 0 1 0 -26.4567,0 13.22835,13.22835 0 1 0 26.4567,0 z"
         inkscape:connector-curvature="0" />
      <path
         id="path3422"
         style="fill:none;stroke:#000000"
         d="m 93.354331,1186.7717 a 6.425197,6.425197 0 1 0 -12.850394,0 6.425197,6.425197 0 1 0 12.850394,0 z"
         inkscape:connector-curvature="0" />
      <path
         id="path3424"
         style="fill:none;stroke:#000000"
         d="m -80.503937,1058.2677 a 6.425197,6.425197 0 1 0 -12.850394,0 6.425197,6.425197 0 1 0 12.850394,0 z"
         inkscape:connector-curvature="0" />
      <path
         id="path3426"
         style="fill:none;stroke:#000000"
         d="m -80.503937,1186.7717 a 6.425197,6.425197 0 1 0 -12.850394,0 6.425197,6.425197 0 1 0 12.850394,0 z"
         inkscape:connector-curvature="0" />
      <path
         id="path3428"
         style="fill:none;stroke:#000000"
         d="m 93.354331,1058.2677 a 6.425197,6.425197 0 1 0 -12.850394,0 6.425197,6.425197 0 1 0 12.850394,0 z"
         inkscape:connector-curvature="0" />
      <path
         id="path3430"
         style="fill:none;stroke:#000000"
         d="m -151.1811,1046.9291 a 18.897638,18.897638 0 0 1 18.89764,-18.8976 h 264.56692 a 18.897638,18.897638 0 0 1 18.89764,18.8976 v 151.1811 a 18.897638,18.897638 0 0 1 -18.89764,18.8977 h -264.56692 a 18.897638,18.897638 0 0 1 -18.89764,-18.8977 z"
         inkscape:connector-curvature="0" />
    </g>
    <g
       id="g3498"
       inkscape:label="0"
       transform="matrix(0.26458333,0,0,0.26458333,357.47664,-58.878497)">
      <path
         id="path3474"
         style="fill:none;stroke:#000000"
         d="m -33.637795,1022.7402 v -21.5433 H -102.4252 v 21.5433 z"
         inkscape:connector-curvature="0" />
      <path
         id="path3476"
         style="fill:none;stroke:#000000"
         d="m 156.47244,1160.6929 h 21.54331 v -76.3464 h -21.54331 z"
         inkscape:connector-curvature="0" />
      <path
         id="path3478"
         style="fill:none;stroke:#000000"
         d="m -156.47244,1084.3465 h -21.54331 v 76.3464 h 21.54331 z"
         inkscape:connector-curvature="0" />
      <path
         id="path3480"
         style="fill:none;stroke:#000000"
         d="m 102.4252,1022.7402 v -21.5433 H 33.637795 v 21.5433 z"
         inkscape:connector-curvature="0" />
      <path
         id="path3482"
         style="fill:none;stroke:#000000"
         d="M 33.637795,1243.8425 H 102.4252 v -21.5433 H 33.637795 Z"
         inkscape:connector-curvature="0" />
      <path
         id="path3484"
         style="fill:none;stroke:#000000"
         d="m -102.4252,1243.8425 h 68.787405 v -21.5433 H -102.4252 Z"
         inkscape:connector-curvature="0" />
      <path
         id="path3486"
         style="fill:none;stroke:#000000"
         d="m 200.31496,1264.252 a 22.677165,22.677165 0 0 1 -22.67717,22.6771 h -355.27558 a 22.677165,22.677165 0 0 1 -22.67717,-22.6771 V 980.7874 a 22.677165,22.677165 0 0 1 22.67717,-22.67716 h 355.27558 a 22.677165,22.677165 0 0 1 22.67717,22.67716 z"
         inkscape:connector-curvature="0" />
      <path
         id="path3488"
         style="fill:none;stroke:#000000"
         d="m -114.89764,1058.2677 a 6.047245,6.047245 0 1 0 -12.09449,0 6.047245,6.047245 0 1 0 12.09449,0 z"
         inkscape:connector-curvature="0" />
      <path
         id="path3490"
         style="fill:none;stroke:#000000"
         d="m 126.99213,1058.2677 a 6.047245,6.047245 0 1 0 -12.09449,0 6.047245,6.047245 0 1 0 12.09449,0 z"
         inkscape:connector-curvature="0" />
      <path
         id="path3492"
         style="fill:none;stroke:#000000"
         d="m -114.89764,1186.7717 a 6.047245,6.047245 0 1 0 -12.09449,0 6.047245,6.047245 0 1 0 12.09449,0 z"
         inkscape:connector-curvature="0" />
      <path
         id="path3494"
         style="fill:none;stroke:#000000"
         d="m 126.99213,1186.7717 a 6.047245,6.047245 0 1 0 -12.09449,0 6.047245,6.047245 0 1 0 12.09449,0 z"
         inkscape:connector-curvature="0" />
      <path
         id="path3496"
         style="fill:none;stroke:#000000"
         d="M 18.897638,1111.6091 0,1100.6986 l -18.897638,10.9105 v 21.8211 L 0,1144.3408 18.897638,1133.4302 Z"
         inkscape:connector-curvature="0" />
    </g>
    <g
       id="g3551"
       inkscape:label="0"
       transform="matrix(0.26458333,0,0,0.26458333,360.28038,-337.78037)">
      <path
         id="path3543"
         style="fill:none;stroke:#000000"
         d="m 139.84252,1094.1732 h -279.68504 v 20.7874 h -37.79527 v -58.5826 h 20.7874 v -37.7953 h -20.7874 v -37.7953 h 75.59055 V 960 h 68.031492 v 20.7874 H 34.015748 V 960 h 68.031492 v 20.7874 h 75.59055 v 37.7953 h -20.7874 v 37.7953 h 20.7874 v 58.5826 h -37.79527 z"
         inkscape:connector-curvature="0" />
      <path
         id="path3545"
         style="fill:none;stroke:#000000"
         d="m -107.71653,1067.7165 a 11.338585,11.338585 0 1 0 -22.67717,0 11.338585,11.338585 0 1 0 22.67717,0 z"
         inkscape:connector-curvature="0" />
      <path
         id="path3547"
         style="fill:none;stroke:#000000"
         d="m -66.141732,1065.8268 a 1.889764,1.889764 0 1 0 -3.779528,0 1.889764,1.889764 0 1 0 3.779528,0 z"
         inkscape:connector-curvature="0" />
      <path
         id="path3549"
         style="fill:none;stroke:#000000"
         d="m 69.92126,1065.8268 a 1.889764,1.889764 0 1 0 -3.779528,0 1.889764,1.889764 0 1 0 3.779528,0 z"
         inkscape:connector-curvature="0" />
    </g>
    <g
       id="g3594"
       inkscape:label="0"
       transform="matrix(0.26458333,0,0,0.26458333,358.87851,-393.1542)">
      <path
         id="path3588"
         style="fill:none;stroke:#000000"
         d="m 42.519685,1055.622 a 1.889764,1.889764 0 1 0 -3.779528,0 1.889764,1.889764 0 1 0 3.779528,0 z"
         inkscape:connector-curvature="0" />
      <path
         id="path3590"
         style="fill:none;stroke:#000000"
         d="m -38.740157,1055.622 a 1.889764,1.889764 0 1 0 -3.779528,0 1.889764,1.889764 0 1 0 3.779528,0 z"
         inkscape:connector-curvature="0" />
      <path
         id="path3592"
         style="fill:none;stroke:#000000"
         d="m 102.04724,1114.9606 h -204.09448 v -20.7874 h -75.59055 v -37.7952 h 20.7874 v -37.7953 h -20.7874 v -37.7953 h 75.59055 V 960 h 68.031492 v 20.7874 H 34.015748 V 960 h 68.031492 v 20.7874 h 75.59055 v 37.7953 h -20.7874 v 37.7953 h 20.7874 v 37.7952 h -75.59055 z"
         inkscape:connector-curvature="0" />
    </g>
    <g
       id="g3632"
       inkscape:label="0"
       transform="matrix(0.26458333,0,0,0.26458333,438.78504,-117.27181)">
      <path
         id="path3630"
         style="fill:none;stroke:#000000"
         d="m -37.795276,1094.1732 h -62.362204 v -37.7952 h -20.7874 v -37.7953 h 20.7874 v -37.7953 h 62.362204 V 960 h 75.590552 v 20.7874 h 62.362204 v 37.7953 h 20.7874 v 37.7953 h -20.7874 v 37.7952 H 37.795276 v 20.7874 h -75.590552 z"
         inkscape:connector-curvature="0" />
    </g>
    <g
       id="g3680"
       inkscape:label="0"
       transform="matrix(0.26458333,0,0,0.26458333,333.64486,-157.7646)">
      <path
         id="path3666"
         style="fill:none;stroke:#000000"
         d="m 156.47244,1160.6929 h 21.54331 v -76.3464 h -21.54331 z"
         inkscape:connector-curvature="0" />
      <path
         id="path3668"
         style="fill:none;stroke:#000000"
         d="m -156.47244,1084.3465 h -21.54331 v 76.3464 h 21.54331 z"
         inkscape:connector-curvature="0" />
      <path
         id="path3670"
         style="fill:none;stroke:#000000"
         d="m 126.99213,1186.7717 a 6.047245,6.047245 0 1 0 -12.09449,0 6.047245,6.047245 0 1 0 12.09449,0 z"
         inkscape:connector-curvature="0" />
      <path
         id="path3672"
         style="fill:none;stroke:#000000"
         d="m -114.89764,1186.7717 a 6.047245,6.047245 0 1 0 -12.09449,0 6.047245,6.047245 0 1 0 12.09449,0 z"
         inkscape:connector-curvature="0" />
      <path
         id="path3674"
         style="fill:none;stroke:#000000"
         d="m -114.89764,1058.2677 a 6.047245,6.047245 0 1 0 -12.09449,0 6.047245,6.047245 0 1 0 12.09449,0 z"
         inkscape:connector-curvature="0" />
      <path
         id="path3676"
         style="fill:none;stroke:#000000"
         d="m 126.99213,1058.2677 a 6.047245,6.047245 0 1 0 -12.09449,0 6.047245,6.047245 0 1 0 12.09449,0 z"
         inkscape:connector-curvature="0" />
      <path
         id="path3678"
         style="fill:none;stroke:#000000"
         d="m -178.01575,1222.2992 v 21.1622 a 22.677165,22.677165 0 0 1 -22.29921,-22.674 V 1024.252 a 22.677165,22.677165 0 0 1 22.67717,-22.6772 h 37.79527 a 20.872125,20.872125 0 0 0 15.92827,-9.91782 22.677165,22.677165 0 0 1 19.35998,-10.86876 l 9.489017,-8e-5 h 8.136119 v 20.40876 H -102.4252 v 21.5433 h 15.496066 v 13.9532 a 26.456693,26.456693 0 0 0 -18.897636,25.3538 v 120.9449 a 26.456693,26.456693 0 0 0 26.456691,26.4567 H 79.370079 a 26.456693,26.456693 0 0 0 26.456691,-26.4567 v -120.9449 a 26.456693,26.456693 0 0 0 -16.395156,-24.4688 v -14.8382 H 102.4252 v -21.5433 H 89.431614 v -20.41019 l 15.118106,-1.2e-4 a 22.677165,22.677165 0 0 1 19.36048,10.86901 20.874121,20.874121 0 0 0 15.93232,9.9192 h 37.79527 a 22.677165,22.677165 0 0 1 22.67717,22.6772 v 196.5354 a 22.677165,22.677165 0 0 1 -22.29921,22.674 v -21.1622 h -38.55118 v 21.1654 h -278.92914 v -21.1654 z"
         inkscape:connector-curvature="0" />
    </g>
    <g
       id="g3744"
       inkscape:label="0"
       transform="matrix(0.26458333,0,0,0.26458333,212.57403,-165.9059)">
      <path
         id="path3720"
         style="fill:none;stroke:#000000"
         d="m 125.76378,1265.0852 10.77165,6.219 10.77166,-6.219 v -12.4381 l -10.77166,-6.219 -10.77165,6.219 z"
         inkscape:connector-curvature="0" />
      <path
         id="path3722"
         style="fill:none;stroke:#000000"
         d="m 125.76378,992.39224 10.77165,6.21902 10.77166,-6.21902 v -12.43803 l -10.77166,-6.21902 -10.77165,6.21902 z"
         inkscape:connector-curvature="0" />
      <path
         id="path3724"
         style="fill:none;stroke:#000000"
         d="m -147.30709,1265.0852 10.77166,6.219 10.77165,-6.219 v -12.4381 l -10.77165,-6.219 -10.77166,6.219 z"
         inkscape:connector-curvature="0" />
      <path
         id="path3726"
         style="fill:none;stroke:#000000"
         d="m -147.30709,992.39224 10.77166,6.21902 10.77165,-6.21902 v -12.43803 l -10.77165,-6.21902 -10.77166,6.21902 z"
         inkscape:connector-curvature="0" />
      <path
         id="path3728"
         style="fill:none;stroke:#000000"
         d="m 157.22835,1122.5197 a 6.047245,6.047245 0 1 0 -12.09449,0 6.047245,6.047245 0 1 0 12.09449,0 z"
         inkscape:connector-curvature="0" />
      <path
         id="path3730"
         style="fill:none;stroke:#000000"
         d="m -145.13386,1122.5197 a 6.047245,6.047245 0 1 0 -12.09449,0 6.047245,6.047245 0 1 0 12.09449,0 z"
         inkscape:connector-curvature="0" />
      <path
         id="path3732"
         style="fill:none;stroke:#000000"
         d="m -166.29921,977.00787 a 9.44882,9.44882 0 1 0 -18.89764,0 9.44882,9.44882 0 1 0 18.89764,0 z"
         inkscape:connector-curvature="0" />
      <path
         id="path3734"
         style="fill:none;stroke:#000000"
         d="m 185.19685,977.00787 a 9.44882,9.44882 0 1 0 -18.89764,0 9.44882,9.44882 0 1 0 18.89764,0 z"
         inkscape:connector-curvature="0" />
      <path
         id="path3736"
         style="fill:none;stroke:#000000"
         d="m 185.19685,1268.0315 a 9.44882,9.44882 0 1 0 -18.89764,0 9.44882,9.44882 0 1 0 18.89764,0 z"
         inkscape:connector-curvature="0" />
      <path
         id="path3738"
         style="fill:none;stroke:#000000"
         d="m -166.29921,1268.0315 a 9.44882,9.44882 0 1 0 -18.89764,0 9.44882,9.44882 0 1 0 18.89764,0 z"
         inkscape:connector-curvature="0" />
      <path
         id="path3740"
         style="fill:none;stroke:#000000"
         d="m 200.31496,1011.2342 a 17.007874,17.007874 0 0 1 -15.11811,16.9026 17.007874,17.007874 0 0 0 -15.11811,16.9026 V 1200 a 17.007874,17.007874 0 0 0 15.11811,16.9026 17.007874,17.007874 0 0 1 15.11811,16.9025 v 39.8957 a 18.897638,18.897638 0 0 1 -18.89764,18.8976 H 96.377953 a 9.448819,9.448819 0 0 1 -9.448819,-9.4488 9.448819,9.448819 0 0 0 -9.448819,-9.4488 H 58.582677 a 9.448819,9.448819 0 0 1 -9.448819,-9.4488 9.448819,9.448819 0 0 0 -9.448819,-9.4488 h -79.370078 a 9.448819,9.448819 0 0 0 -9.448819,9.4488 9.448819,9.448819 0 0 1 -9.448819,9.4488 h -18.897638 a 9.448819,9.448819 0 0 0 -9.448819,9.4488 9.448819,9.448819 0 0 1 -9.448819,9.4488 h -85.039367 a 18.897638,18.897638 0 0 1 -18.89764,-18.8976 v -39.8957 a 17.007874,17.007874 0 0 1 15.11811,-16.9025 17.007874,17.007874 0 0 0 15.11811,-16.9026 v -155.1713 a 17.007874,17.007874 0 0 0 -15.11811,-16.9025 17.007874,17.007874 0 0 1 -15.11811,-16.9026 v -39.68502 a 18.897638,18.897638 0 0 1 18.89764,-18.89763 h 85.039367 a 9.448819,9.448819 0 0 1 9.448819,9.44881 9.448819,9.448819 0 0 0 9.448819,9.44882 h 18.897638 a 9.448819,9.448819 0 0 1 9.448819,9.44882 9.448819,9.448819 0 0 0 9.448819,9.44882 h 79.370078 a 9.448819,9.448819 0 0 0 9.448819,-9.44882 9.448819,9.448819 0 0 1 9.448819,-9.44882 h 18.897638 a 9.448819,9.448819 0 0 0 9.448819,-9.44882 9.448819,9.448819 0 0 1 9.448819,-9.44881 h 85.039367 a 18.897638,18.897638 0 0 1 18.89764,18.89763 z"
         inkscape:connector-curvature="0" />
      <path
         id="path3742"
         style="fill:none;stroke:#000000"
         d="m 64.251969,1009.1339 v 28.3464 H 11.999548 l -1.38e-4,-5.6693 -6.000806,-10.3937 H -6.003008 l -6.000806,10.3937 1.38e-4,5.6693 h -52.248293 v -28.3464 h -11.338582 v 28.8978 a 13.228346,13.228346 0 0 0 -9.448819,12.677 v 59.8114 l -5.669291,2e-4 -10.393699,6.0008 v 12.0016 l 10.393699,6.0008 5.669291,-10e-5 v 59.8073 a 13.228346,13.228346 0 0 0 13.228347,13.2284 h 59.811475 l 1.38e-4,5.6692 6.000806,10.3937 H 6.003008 l 6.000806,-10.3937 -1.38e-4,-5.6692 h 52.248293 v 0 l 7.327378,-2e-4 a 13.228346,13.228346 0 0 0 13.460023,-13.2263 v -59.8115 l 5.669291,-10e-5 10.393699,-6.0008 v -12.0016 l -10.393699,-6.0008 -5.669291,10e-5 v -59.8073 a 13.228346,13.228346 0 0 0 -9.448819,-12.677 v -28.8978 z"
         inkscape:connector-curvature="0" />
    </g>
    <g
       id="g3855"
       inkscape:label="0"
       transform="matrix(0.26458333,0,0,0.26458333,79.205611,-190.71636)">
      <path
         id="path3789"
         style="fill:none;stroke:#000000"
         d="M 71.811024,1039.3701 H -71.811024 a 11.338583,11.338583 0 0 0 -11.338582,11.3386 v 143.622 a 11.338583,11.338583 0 0 0 11.338582,11.3386 H 71.811024 a 11.338583,11.338583 0 0 0 11.338582,-11.3386 v -143.622 a 11.338583,11.338583 0 0 0 -11.338582,-11.3386 z"
         inkscape:connector-curvature="0" />
      <path
         id="path3791"
         style="fill:none;stroke:#000000"
         d="m -66.141732,1292.5984 a 1.889764,1.889764 0 1 0 -3.779528,0 1.889764,1.889764 0 1 0 3.779528,0 z"
         inkscape:connector-curvature="0" />
      <path
         id="path3793"
         style="fill:none;stroke:#000000"
         d="m -35.905512,973.03937 a 1.889764,1.889764 0 1 0 -3.779527,0 1.889764,1.889764 0 1 0 3.779527,0 z"
         inkscape:connector-curvature="0" />
      <path
         id="path3795"
         style="fill:none;stroke:#000000"
         d="m 69.92126,1292.5984 a 1.889764,1.889764 0 1 0 -3.779528,0 1.889764,1.889764 0 1 0 3.779528,0 z"
         inkscape:connector-curvature="0" />
      <path
         id="path3797"
         style="fill:none;stroke:#000000"
         d="m 39.685039,973.03937 a 1.889764,1.889764 0 1 0 -3.779527,0 1.889764,1.889764 0 1 0 3.779527,0 z"
         inkscape:connector-curvature="0" />
      <path
         id="path3799"
         style="fill:none;stroke:#000000"
         d="m 228.66142,1373.8583 h -457.32284 a 22.677165,22.677165 0 0 1 -22.67716,-22.6772 V 825.44882 a 22.677165,22.677165 0 0 1 22.67716,-22.67717 h 457.32284 a 22.677165,22.677165 0 0 1 22.67716,22.67717 v 525.73228 a 22.677165,22.677165 0 0 1 -22.67716,22.6772 z"
         inkscape:connector-curvature="0" />
      <path
         id="path3801"
         style="fill:none;stroke:#000000"
         d="m -130.48819,986.17323 a 6.047245,6.047245 0 1 0 -12.09449,0 6.047245,6.047245 0 1 0 12.09449,0 z"
         inkscape:connector-curvature="0" />
      <path
         id="path3803"
         style="fill:none;stroke:#000000"
         d="m 195.02362,1311.4961 a 6.047245,6.047245 0 1 0 -12.09449,0 6.047245,6.047245 0 1 0 12.09449,0 z"
         inkscape:connector-curvature="0" />
      <path
         id="path3805"
         style="fill:none;stroke:#000000"
         d="m -102.04724,1058.2677 a 18.89764,18.89764 0 1 0 -37.79528,0 18.89764,18.89764 0 1 0 37.79528,0 z"
         inkscape:connector-curvature="0" />
      <path
         id="path3807"
         style="fill:none;stroke:#000000"
         d="m 185.19685,1268.0315 a 9.44882,9.44882 0 1 0 -18.89764,0 9.44882,9.44882 0 1 0 18.89764,0 z"
         inkscape:connector-curvature="0" />
      <path
         id="path3809"
         style="fill:none;stroke:#000000"
         d="m -207.49606,1002.3119 h -21.54331 v 95.244 h 21.54331 z"
         inkscape:connector-curvature="0" />
      <path
         id="path3811"
         style="fill:none;stroke:#000000"
         d="m 185.19685,977.00787 a 9.44882,9.44882 0 1 0 -18.89764,0 9.44882,9.44882 0 1 0 18.89764,0 z"
         inkscape:connector-curvature="0" />
      <path
         id="path3813"
         style="fill:none;stroke:#000000"
         d="m -102.04724,1186.7717 a 18.89764,18.89764 0 1 0 -37.79528,0 18.89764,18.89764 0 1 0 37.79528,0 z"
         inkscape:connector-curvature="0" />
      <path
         id="path3815"
         style="fill:none;stroke:#000000"
         d="m 142.58268,1258.8661 a 6.047245,6.047245 0 1 0 -12.09449,0 6.047245,6.047245 0 1 0 12.09449,0 z"
         inkscape:connector-curvature="0" />
      <path
         id="path3817"
         style="fill:none;stroke:#000000"
         d="m 229.03937,1172.3906 h -21.54331 v 76.3465 h 21.54331 z"
         inkscape:connector-curvature="0" />
      <path
         id="path3819"
         style="fill:none;stroke:#000000"
         d="m 229.03937,1002.3119 h -21.54331 v 95.244 h 21.54331 z"
         inkscape:connector-curvature="0" />
      <path
         id="path3821"
         style="fill:none;stroke:#000000"
         d="m -207.49606,1172.3906 h -21.54331 v 76.3465 h 21.54331 z"
         inkscape:connector-curvature="0" />
      <path
         id="path3823"
         style="fill:none;stroke:#000000"
         d="m -182.92913,939.55284 a 6.047245,6.047245 0 1 0 -12.09449,0 6.047245,6.047245 0 1 0 12.09449,0 z"
         inkscape:connector-curvature="0" />
      <path
         id="path3825"
         style="fill:none;stroke:#000000"
         d="m -166.29921,1268.0315 a 9.44882,9.44882 0 1 0 -18.89764,0 9.44882,9.44882 0 1 0 18.89764,0 z"
         inkscape:connector-curvature="0" />
      <path
         id="path3827"
         style="fill:none;stroke:#000000"
         d="m 195.02362,939.55284 a 6.047245,6.047245 0 1 0 -12.09449,0 6.047245,6.047245 0 1 0 12.09449,0 z"
         inkscape:connector-curvature="0" />
      <path
         id="path3829"
         style="fill:none;stroke:#000000"
         d="m -166.29921,977.00787 a 9.44882,9.44882 0 1 0 -18.89764,0 9.44882,9.44882 0 1 0 18.89764,0 z"
         inkscape:connector-curvature="0" />
      <path
         id="path3831"
         style="fill:none;stroke:#000000"
         d="m 142.58268,986.17323 a 6.047245,6.047245 0 1 0 -12.09449,0 6.047245,6.047245 0 1 0 12.09449,0 z"
         inkscape:connector-curvature="0" />
      <path
         id="path3833"
         style="fill:none;stroke:#000000"
         d="m -125.10236,1330.0157 v 21.5434 h 83.90551 v -21.5434 z"
         inkscape:connector-curvature="0" />
      <path
         id="path3835"
         style="fill:none;stroke:#000000"
         d="m -130.48819,1258.8661 a 6.047245,6.047245 0 1 0 -12.09449,0 6.047245,6.047245 0 1 0 12.09449,0 z"
         inkscape:connector-curvature="0" />
      <path
         id="path3837"
         style="fill:none;stroke:#000000"
         d="m 41.19685,1330.0157 v 21.5434 h 83.90551 v -21.5434 z"
         inkscape:connector-curvature="0" />
      <path
         id="path3839"
         style="fill:none;stroke:#000000"
         d="m -182.92913,1311.4961 a 6.047245,6.047245 0 1 0 -12.09449,0 6.047245,6.047245 0 1 0 12.09449,0 z"
         inkscape:connector-curvature="0" />
      <path
         id="path3841"
         style="fill:none;stroke:#000000"
         d="m 170.07874,1122.5197 a 18.89764,18.89764 0 1 0 -37.79528,0 18.89764,18.89764 0 1 0 37.79528,0 z"
         inkscape:connector-curvature="0" />
      <path
         id="path3843"
         style="fill:none;stroke:#000000"
         d="m -107.71653,1303.937 a 11.338585,11.338585 0 1 0 -22.67717,0 11.338585,11.338585 0 1 0 22.67717,0 z"
         inkscape:connector-curvature="0" />
      <path
         id="path3845"
         style="fill:none;stroke:#000000"
         d="m -132.28346,1122.5197 a 18.89764,18.89764 0 1 0 -37.79528,0 18.89764,18.89764 0 1 0 37.79528,0 z"
         inkscape:connector-curvature="0" />
      <path
         id="path3847"
         style="fill:none;stroke:#000000"
         d="M 125.10236,825.07087 H 41.19685 v 21.5433 h 83.90551 z"
         inkscape:connector-curvature="0" />
      <path
         id="path3849"
         style="fill:none;stroke:#000000"
         d="m -125.10236,825.07087 v 21.5433 h 83.90551 v -21.5433 z"
         inkscape:connector-curvature="0" />
      <path
         id="path3851"
         style="fill:none;stroke:#000000"
         d="m 139.84252,1058.2677 a 18.89764,18.89764 0 1 0 -37.79528,0 18.89764,18.89764 0 1 0 37.79528,0 z"
         inkscape:connector-curvature="0" />
      <path
         id="path3853"
         style="fill:none;stroke:#000000"
         d="m 139.84252,1186.7717 a 18.89764,18.89764 0 1 0 -37.79528,0 18.89764,18.89764 0 1 0 37.79528,0 z"
         inkscape:connector-curvature="0" />
    </g>
    <g
       id="g3929"
       inkscape:label="0"
       transform="matrix(0.26458333,0,0,0.26458333,360.28038,-241.82244)">
      <path
         id="path3921"
         style="fill:none;stroke:#000000"
         d="m -170.07874,1092.2835 a 11.338583,11.338583 0 0 1 11.33858,-11.3386 h 43.46457 a 11.338583,11.338583 0 0 0 11.33858,-11.3386 v -18.8976 a 32.125984,32.125984 0 0 1 32.125986,-32.126 h 30.236221 v -5.6693 a 22.677165,22.677165 0 0 1 22.677165,-22.67718 h 37.795276 a 22.677165,22.677165 0 0 1 22.677165,22.67718 v 5.6693 h 30.236221 a 32.125984,32.125984 0 0 1 32.125986,32.126 v 18.8976 a 11.338583,11.338583 0 0 0 11.33858,11.3386 h 43.46457 a 11.338583,11.338583 0 0 1 11.33858,11.3386 v 60.4724 a 11.338583,11.338583 0 0 1 -11.33858,11.3386 h -43.46457 a 11.338583,11.338583 0 0 0 -11.33858,11.3386 v 18.8976 a 32.125984,32.125984 0 0 1 -32.125986,32.126 H 41.574803 v 5.6693 a 22.677165,22.677165 0 0 1 -22.677165,22.6772 h -37.795276 a 22.677165,22.677165 0 0 1 -22.677165,-22.6772 v -5.6693 h -30.236221 a 32.125984,32.125984 0 0 1 -32.125986,-32.126 v -18.8976 a 11.338583,11.338583 0 0 0 -11.33858,-11.3386 h -43.46457 a 11.338583,11.338583 0 0 1 -11.33858,-11.3386 z"
         inkscape:connector-curvature="0" />
      <path
         id="path3923"
         style="fill:none;stroke:#000000"
         d="m -145.13386,1122.5197 a 6.047245,6.047245 0 1 0 -12.09449,0 6.047245,6.047245 0 1 0 12.09449,0 z"
         inkscape:connector-curvature="0" />
      <path
         id="path3925"
         style="fill:none;stroke:#000000"
         d="m 157.22835,1122.5197 a 6.047245,6.047245 0 1 0 -12.09449,0 6.047245,6.047245 0 1 0 12.09449,0 z"
         inkscape:connector-curvature="0" />
      <path
         id="path3927"
         style="fill:none;stroke:#000000"
         d="m 85.03937,1156.5354 a 11.338583,11.338583 0 0 1 11.338583,-11.3385 h 5.669287 a 11.338583,11.338583 0 0 0 11.33859,-11.3386 v -22.6772 a 11.338583,11.338583 0 0 0 -11.33859,-11.3386 H 96.377953 A 11.338583,11.338583 0 0 1 85.03937,1088.5039 v -9.4488 l -9.448819,-9.4488 9.448819,-9.4488 v -9.4488 a 13.228346,13.228346 0 0 0 -13.228346,-13.2284 h -9.448819 l -9.448819,9.4488 -9.448819,-9.4488 h -9.448819 a 11.338583,11.338583 0 0 1 -11.338583,-11.3386 v -5.6693 a 11.338583,11.338583 0 0 0 -11.338582,-11.3385 h -22.677166 a 11.338583,11.338583 0 0 0 -11.338582,11.3385 v 5.6693 a 11.338583,11.338583 0 0 1 -11.338583,11.3386 h -9.448819 l -9.448819,9.4488 -9.448819,-9.4488 h -9.448819 a 13.228346,13.228346 0 0 0 -13.228346,13.2284 v 9.4488 l 9.448819,9.4488 -9.448819,9.4488 v 9.4488 a 11.338583,11.338583 0 0 1 -11.338583,11.3386 h -5.669287 a 11.338583,11.338583 0 0 0 -11.33859,11.3386 v 22.6772 a 11.338583,11.338583 0 0 0 11.33859,11.3386 h 5.669287 a 11.338583,11.338583 0 0 1 11.338583,11.3385 v 9.4489 l 9.448819,9.4488 -9.448819,9.4488 v 9.4488 a 13.228346,13.228346 0 0 0 13.228346,13.2284 h 9.448819 l 9.448819,-9.4489 9.448819,9.4489 h 9.448819 a 11.338583,11.338583 0 0 1 11.338583,11.3385 v 5.6693 a 11.338583,11.338583 0 0 0 11.338582,11.3386 h 22.677166 a 11.338583,11.338583 0 0 0 11.338582,-11.3386 v -5.6693 a 11.338583,11.338583 0 0 1 11.338583,-11.3385 h 9.448819 l 9.448819,-9.4489 9.448819,9.4489 h 9.448819 a 13.228346,13.228346 0 0 0 13.228346,-13.2284 v -9.4488 l -9.448819,-9.4488 9.448819,-9.4488 z"
         inkscape:connector-curvature="0" />
    </g>
    <g
       id="g3980"
       inkscape:label="0"
       transform="matrix(0.26458333,0,0,0.26458333,228.50468,-111.58411)">
      <path
         id="path3966"
         style="fill:none;stroke:#000000"
         d="m 195.02362,1426.7717 a 6.047245,6.047245 0 1 0 -12.09449,0 6.047245,6.047245 0 1 0 12.09449,0 z"
         inkscape:connector-curvature="0" />
      <path
         id="path3968"
         style="fill:none;stroke:#000000"
         d="m -47.244094,1398.4252 a 9.448819,9.448819 0 1 0 -18.897638,0 9.448819,9.448819 0 1 0 18.897638,0 z"
         inkscape:connector-curvature="0" />
      <path
         id="path3970"
         style="fill:none;stroke:#000000"
         d="m -80.88189,1173.5433 a 6.047244,6.047244 0 1 0 -12.094488,0 6.047244,6.047244 0 1 0 12.094488,0 z"
         inkscape:connector-curvature="0" />
      <path
         id="path3972"
         style="fill:none;stroke:#000000"
         d="m -73.700787,1398.4252 a 9.448819,9.448819 0 1 0 -18.897638,0 9.448819,9.448819 0 1 0 18.897638,0 z"
         inkscape:connector-curvature="0" />
      <path
         id="path3974"
         style="fill:none;stroke:#000000"
         d="m -80.88189,1426.7717 a 6.047244,6.047244 0 1 0 -12.094488,0 6.047244,6.047244 0 1 0 12.094488,0 z"
         inkscape:connector-curvature="0" />
      <path
         id="path3976"
         style="fill:none;stroke:#000000"
         d="m 195.02362,1173.5433 a 6.047245,6.047245 0 1 0 -12.09449,0 6.047245,6.047245 0 1 0 12.09449,0 z"
         inkscape:connector-curvature="0" />
      <path
         id="path3978"
         style="fill:none;stroke:#000000"
         d="m 207.87402,1286.9291 h 20.7874 v 113.3859 h -20.7874 v 75.5905 h -83.14961 v 20.7874 H 41.574803 v -20.7874 h -83.149606 v 20.7874 h -83.149607 v -20.7874 h -83.14961 v -113.3858 h -20.7874 v -113.3858 h 20.7874 V 1135.748 h 83.14961 v -20.7874 h 83.149607 v 20.7874 h 83.149606 v -20.7874 h 83.149607 v 20.7874 h 83.14961 z"
         inkscape:connector-curvature="0" />
    </g>
    <g
       id="g4030"
       inkscape:label="0"
       transform="matrix(0.26458333,0,0,0.26458333,220.85655,-314.85513)">
      <path
         id="path4020"
         style="fill:none;stroke:#000000"
         d="m -135.87402,1264.252 v 15.1181 a 7.559055,7.559055 0 0 0 7.55906,7.559 h 325.03937 a 7.559055,7.559055 0 0 0 7.55905,-7.559 v -15.1181 a 7.559055,7.559055 0 0 0 -7.55905,-7.5591 h -325.03937 a 7.559055,7.559055 0 0 0 -7.55906,7.5591 z"
         inkscape:connector-curvature="0" />
      <path
         id="path4022"
         style="fill:none;stroke:#000000"
         d="m -135.87402,1324.7244 v 15.1181 a 7.559055,7.559055 0 0 0 7.55906,7.5591 h 325.03937 a 7.559055,7.559055 0 0 0 7.55905,-7.5591 v -15.1181 a 7.559055,7.559055 0 0 0 -7.55905,-7.559 h -325.03937 a 7.559055,7.559055 0 0 0 -7.55906,7.559 z"
         inkscape:connector-curvature="0" />
      <path
         id="path4024"
         style="fill:none;stroke:#000000"
         d="m -135.87402,1203.7795 v 15.1181 a 7.559055,7.559055 0 0 0 7.55906,7.5591 h 325.03937 a 7.559055,7.559055 0 0 0 7.55905,-7.5591 v -15.1181 a 7.559055,7.559055 0 0 0 -7.55905,-7.559 h -325.03937 a 7.559055,7.559055 0 0 0 -7.55906,7.559 z"
         inkscape:connector-curvature="0" />
      <path
         id="path4026"
         style="fill:none;stroke:#000000"
         d="m -135.87402,1385.1969 v 15.1181 a 7.559055,7.559055 0 0 0 7.55906,7.559 h 325.03937 a 7.559055,7.559055 0 0 0 7.55905,-7.559 v -15.1181 a 7.559055,7.559055 0 0 0 -7.55905,-7.5591 h -325.03937 a 7.559055,7.559055 0 0 0 -7.55906,7.5591 z"
         inkscape:connector-curvature="0" />
      <path
         id="path4028"
         style="fill:none;stroke:#000000"
         d="m -228.66142,1362.5197 h 20.7874 v -113.3858 h -20.7874 V 1135.748 h 102.82201 v -20.7874 h 75.590549 v 20.7874 H 25.34169 v -20.7874 h 94.48819 v 20.7874 h 177.24099 v 113.3859 h -20.78741 v 113.3858 h 20.78741 v 113.3858 H 119.82988 v 20.7874 H 25.34169 v -20.7874 h -75.590551 v 20.7874 h -75.590549 v -20.7874 h -102.82201 z"
         inkscape:connector-curvature="0" />
    </g>
    <g
       id="g4078"
       inkscape:label="0"
       transform="matrix(0.26458333,0,0,0.26458333,77.803742,-110.88317)">
      <path
         id="path4068"
         style="fill:none;stroke:#000000"
         d="m -143.62205,1286.9291 h 287.2441 a 7.559055,7.559055 0 0 0 7.55905,-7.559 v -15.1181 a 7.559055,7.559055 0 0 0 -7.55905,-7.5591 h -287.2441 a 7.559055,7.559055 0 0 0 -7.55905,7.5591 v 15.1181 a 7.559055,7.559055 0 0 0 7.55905,7.559 z"
         inkscape:connector-curvature="0" />
      <path
         id="path4070"
         style="fill:none;stroke:#000000"
         d="m -143.62205,1347.4016 h 287.2441 a 7.559055,7.559055 0 0 0 7.55905,-7.5591 v -15.1181 a 7.559055,7.559055 0 0 0 -7.55905,-7.559 h -287.2441 a 7.559055,7.559055 0 0 0 -7.55905,7.559 v 15.1181 a 7.559055,7.559055 0 0 0 7.55905,7.5591 z"
         inkscape:connector-curvature="0" />
      <path
         id="path4072"
         style="fill:none;stroke:#000000"
         d="m -143.62205,1226.4567 h 287.2441 a 7.559055,7.559055 0 0 0 7.55905,-7.5591 v -15.1181 a 7.559055,7.559055 0 0 0 -7.55905,-7.559 h -287.2441 a 7.559055,7.559055 0 0 0 -7.55905,7.559 v 15.1181 a 7.559055,7.559055 0 0 0 7.55905,7.5591 z"
         inkscape:connector-curvature="0" />
      <path
         id="path4074"
         style="fill:none;stroke:#000000"
         d="m -143.62205,1407.874 h 287.2441 a 7.559055,7.559055 0 0 0 7.55905,-7.559 v -15.1181 a 7.559055,7.559055 0 0 0 -7.55905,-7.5591 h -287.2441 a 7.559055,7.559055 0 0 0 -7.55905,7.5591 v 15.1181 a 7.559055,7.559055 0 0 0 7.55905,7.559 z"
         inkscape:connector-curvature="0" />
      <path
         id="path4076"
         style="fill:none;stroke:#000000"
         d="m 207.87402,1135.748 v 113.3859 h 20.7874 v 113.3858 h -20.7874 v 113.3858 h -83.14961 v 20.7874 H 41.574803 v -20.7874 h -83.149606 v 20.7874 h -83.149607 v -20.7874 h -83.14961 v -113.3858 h -20.7874 v -113.3858 h 20.7874 V 1135.748 h 83.14961 v -20.7874 h 83.149607 v 20.7874 h 83.149606 v -20.7874 h 83.149607 v 20.7874 z"
         inkscape:connector-curvature="0" />
    </g>
    <g
       id="g4130"
       inkscape:label="0"
       transform="matrix(0.26458333,0,0,0.26458333,236.85374,-433.31308)">
      <path
         id="path4116"
         style="fill:none;stroke:#000000"
         d="m -205.98425,1409.7638 v -34.0158 a 3.779528,3.779528 0 0 0 -3.77953,-3.7795 h -41.5748 a 3.779528,3.779528 0 0 0 -3.77953,3.7795 v 34.0158 a 3.779528,3.779528 0 0 0 3.77953,3.7795 h 41.5748 a 3.779528,3.779528 0 0 0 3.77953,-3.7795 z"
         inkscape:connector-curvature="0" />
      <path
         id="path4118"
         style="fill:none;stroke:#000000"
         d="m -196.53543,1326.6142 a 28.34646,28.34646 0 1 0 -56.69292,0 28.34646,28.34646 0 1 0 56.69292,0 z"
         inkscape:connector-curvature="0" />
      <path
         id="path4120"
         style="fill:none;stroke:#000000"
         d="m -297.07087,1400.315 h 20.78741 v -113.3859 h -20.78741 V 1135.748 h 177.24099 v -20.7874 h 94.48819 v 20.7874 h 75.590551 v -20.7874 h 75.590549 v 20.7874 h 102.82201 v 113.3859 h -20.7874 v 113.3858 h 20.7874 v 113.3858 H 125.83941 v 20.7874 H 50.248861 v -20.7874 H -25.34169 v 20.7874 h -94.48819 v -20.7874 h -177.24099 z"
         inkscape:connector-curvature="0" />
      <path
         id="path4122"
         style="fill:none;stroke:#000000"
         d="m -155.52756,1407.874 h 283.84252 a 7.559055,7.559055 0 0 0 7.55906,-7.559 v -15.1181 a 7.559055,7.559055 0 0 0 -7.55906,-7.5591 h -283.84252 a 7.559055,7.559055 0 0 0 -7.55905,7.5591 v 15.1181 a 7.559055,7.559055 0 0 0 7.55905,7.559 z"
         inkscape:connector-curvature="0" />
      <path
         id="path4124"
         style="fill:none;stroke:#000000"
         d="m -155.52756,1286.9291 h 283.84252 a 7.559055,7.559055 0 0 0 7.55906,-7.559 v -15.1181 a 7.559055,7.559055 0 0 0 -7.55906,-7.5591 h -283.84252 a 7.559055,7.559055 0 0 0 -7.55905,7.5591 v 15.1181 a 7.559055,7.559055 0 0 0 7.55905,7.559 z"
         inkscape:connector-curvature="0" />
      <path
         id="path4126"
         style="fill:none;stroke:#000000"
         d="m -155.52756,1226.4567 h 283.84252 a 7.559055,7.559055 0 0 0 7.55906,-7.5591 v -15.1181 a 7.559055,7.559055 0 0 0 -7.55906,-7.559 h -283.84252 a 7.559055,7.559055 0 0 0 -7.55905,7.559 v 15.1181 a 7.559055,7.559055 0 0 0 7.55905,7.5591 z"
         inkscape:connector-curvature="0" />
      <path
         id="path4128"
         style="fill:none;stroke:#000000"
         d="m -155.52756,1347.4016 h 283.84252 a 7.559055,7.559055 0 0 0 7.55906,-7.5591 v -15.1181 a 7.559055,7.559055 0 0 0 -7.55906,-7.559 h -283.84252 a 7.559055,7.559055 0 0 0 -7.55905,7.559 v 15.1181 a 7.559055,7.559055 0 0 0 7.55905,7.5591 z"
         inkscape:connector-curvature="0" />
    </g>
    <g
       id="g4206"
       inkscape:label="0"
       transform="matrix(0.26458333,0,0,0.26458333,78.504676,-351.23037)">
      <path
         id="path4170"
         style="fill:none;stroke:#000000"
         d="m -125.10236,1330.0157 v 21.5434 h 83.90551 v -21.5434 z"
         inkscape:connector-curvature="0" />
      <path
         id="path4172"
         style="fill:none;stroke:#000000"
         d="m 41.19685,825.07087 v 21.5433 h 83.90551 v -21.5433 z"
         inkscape:connector-curvature="0" />
      <path
         id="path4174"
         style="fill:none;stroke:#000000"
         d="m 207.49606,1097.5559 h 21.54331 v -95.244 h -21.54331 z"
         inkscape:connector-curvature="0" />
      <path
         id="path4176"
         style="fill:none;stroke:#000000"
         d="m -229.03937,1248.7371 h 21.54331 v -76.3465 h -21.54331 z"
         inkscape:connector-curvature="0" />
      <path
         id="path4178"
         style="fill:none;stroke:#000000"
         d="m 41.19685,1330.0157 v 21.5434 h 83.90551 v -21.5434 z"
         inkscape:connector-curvature="0" />
      <path
         id="path4180"
         style="fill:none;stroke:#000000"
         d="m -125.10236,846.61417 h 83.90551 v -21.5433 h -83.90551 z"
         inkscape:connector-curvature="0" />
      <path
         id="path4182"
         style="fill:none;stroke:#000000"
         d="m 207.49606,1248.7371 h 21.54331 v -76.3465 h -21.54331 z"
         inkscape:connector-curvature="0" />
      <path
         id="path4184"
         style="fill:none;stroke:#000000"
         d="m -229.03937,1097.5559 h 21.54331 v -95.244 h -21.54331 z"
         inkscape:connector-curvature="0" />
      <path
         id="path4186"
         style="fill:none;stroke:#000000"
         d="m 142.67716,988.34646 a 8.503937,8.503937 0 1 0 -17.00787,0 8.503937,8.503937 0 1 0 17.00787,0 z"
         inkscape:connector-curvature="0" />
      <path
         id="path4188"
         style="fill:none;stroke:#000000"
         d="m 142.67716,1256.6929 a 8.503937,8.503937 0 1 0 -17.00787,0 8.503937,8.503937 0 1 0 17.00787,0 z"
         inkscape:connector-curvature="0" />
      <path
         id="path4190"
         style="fill:none;stroke:#000000"
         d="m -125.66929,988.34646 a 8.503937,8.503937 0 1 0 -17.00787,0 8.503937,8.503937 0 1 0 17.00787,0 z"
         inkscape:connector-curvature="0" />
      <path
         id="path4192"
         style="fill:none;stroke:#000000"
         d="m -125.66929,1256.6929 a 8.503937,8.503937 0 1 0 -17.00787,0 8.503937,8.503937 0 1 0 17.00787,0 z"
         inkscape:connector-curvature="0" />
      <path
         id="path4194"
         style="fill:none;stroke:#000000"
         d="m 160.62992,1122.5197 a 160.62992,160.62992 0 1 0 -321.25984,0 160.62992,160.62992 0 1 0 321.25984,0 z"
         inkscape:connector-curvature="0" />
      <path
         id="path4196"
         style="fill:none;stroke:#000000"
         d="m -182.92913,1311.4961 a 6.047245,6.047245 0 1 0 -12.09449,0 6.047245,6.047245 0 1 0 12.09449,0 z"
         inkscape:connector-curvature="0" />
      <path
         id="path4198"
         style="fill:none;stroke:#000000"
         d="m 195.02362,939.55284 a 6.047245,6.047245 0 1 0 -12.09449,0 6.047245,6.047245 0 1 0 12.09449,0 z"
         inkscape:connector-curvature="0" />
      <path
         id="path4200"
         style="fill:none;stroke:#000000"
         d="m 195.02362,1311.4961 a 6.047245,6.047245 0 1 0 -12.09449,0 6.047245,6.047245 0 1 0 12.09449,0 z"
         inkscape:connector-curvature="0" />
      <path
         id="path4202"
         style="fill:none;stroke:#000000"
         d="m -182.92913,939.55284 a 6.047245,6.047245 0 1 0 -12.09449,0 6.047245,6.047245 0 1 0 12.09449,0 z"
         inkscape:connector-curvature="0" />
      <path
         id="path4204"
         style="fill:none;stroke:#000000"
         d="m -228.66142,1373.8583 a 22.677165,22.677165 0 0 1 -22.67716,-22.6772 V 825.44882 a 22.677165,22.677165 0 0 1 22.67716,-22.67717 h 457.32284 a 22.677165,22.677165 0 0 1 22.67716,22.67717 v 525.73228 a 22.677165,22.677165 0 0 1 -22.67716,22.6772 z"
         inkscape:connector-curvature="0" />
    </g>
    <g
       id="g4278"
       inkscape:label="0"
       transform="matrix(0.26458333,0,0,0.26458333,438.78504,-168.85514)">
      <path
         id="path4276"
         style="fill:none;stroke:#000000"
         d="m -37.795276,1094.1732 h -62.362204 v -37.7952 h -20.7874 v -37.7953 h 20.7874 v -37.7953 h 62.362204 V 960 h 75.590552 v 20.7874 h 62.362204 v 37.7953 h 20.7874 v 37.7953 h -20.7874 v 37.7952 H 37.795276 v 20.7874 h -75.590552 z"
         inkscape:connector-curvature="0" />
    </g>
  </g>
</svg>
