0
SECTION
2
HEADER
9
$INSUNITS
70
4
9
$ACADVER
1
AC1014
9
$HANDSEED
5
FFFF
0
ENDSEC
0
SECTION
2
TABLES
0
TABLE
2
VPORT
5
8
100
AcDbSymbolTable
0
ENDTAB
0
TABLE
2
LTYPE
5
5
100
AcDbSymbolTable
0
LTYPE
5
14
100
AcDbSymbolTableRecord
100
AcDbLinetypeTableRecord
2
BYBLOCK
70
0
0
LTYPE
5
15
100
AcDbSymbolTableRecord
100
AcDbLinetypeTableRecord
2
BYLAYER
70
0
0
ENDTAB
0
TABLE
2
LAYER
5
2
100
AcDbSymbolTable
70
2
0
LAYER
5
50
100
AcDbSymbolTableRecord
100
AcDbLayerTableRecord
2
0
70
0
6
CONTINUOUS
0
ENDTAB
0
TABLE
2
STYLE
5
3
100
AcDbSymbolTable
70
1
0
STYLE
5
11
100
AcDbSymbolTableRecord
100
AcDbTextStyleTableRecord
2
STANDARD
70
0
0
ENDTAB
0
TABLE
2
VIEW
5
6
100
AcDbSymbolTable
70
0
0
ENDTAB
0
TABLE
2
UCS
5
7
100
AcDbSymbolTable
70
0
0
ENDTAB
0
TABLE
2
APPID
5
9
100
AcDbSymbolTable
70
2
0
APPID
5
12
100
AcDbSymbolTableRecord
100
AcDbRegAppTableRecord
2
ACAD
70
0
0
ENDTAB
0
TABLE
2
DIMSTYLE
5
A
100
AcDbSymbolTable
70
1
0
ENDTAB
0
TABLE
2
BLOCK_RECORD
5
1
100
AcDbSymbolTable
70
1
0
BLOCK_RECORD
5
1F
100
AcDbSymbolTableRecord
100
AcDbBlockTableRecord
2
*MODEL_SPACE
0
BLOCK_RECORD
5
1B
100
AcDbSymbolTableRecord
100
AcDbBlockTableRecord
2
*PAPER_SPACE
0
ENDTAB
0
ENDSEC
0
SECTION
2
BLOCKS
0
BLOCK
5
20
100
AcDbEntity
100
AcDbBlockBegin
2
*MODEL_SPACE
0
ENDBLK
5
21
100
AcDbEntity
100
AcDbBlockEnd
0
BLOCK
5
1C
100
AcDbEntity
100
AcDbBlockBegin
2
*PAPER_SPACE
0
ENDBLK
5
1D
100
AcDbEntity
100
AcDbBlockEnd
0
ENDSEC
0
SECTION
2
ENTITIES
0
LWPOLYLINE
5
100
100
AcDbEntity
8
0
100
AcDbPolyline
90
22
70
1
43
0.0
10
21.795895784854636
20
-71.677399999999935
42
-0.35495603545283783
10
17.880847892427276
20
-68.497399999999942
42
0.35495603545283766
10
13.965799999999909
20
-65.317399999999935
10
1.7958957848546209
20
-65.317399999999935
42
0.35495603545283361
10
-2.1191521075727215
20
-68.497399999999885
42
-0.35495603545283311
10
-6.0342000000001095
20
-71.677399999999835
10
-8.9092000000000926
20
-71.677399999999821
42
0.41421356237309637
10
-10.909200000000101
20
-73.677399999999821
10
-10.909200000000141
20
-81.677399999999807
42
0.41421356237309392
10
-8.909200000000137
20
-83.677399999999835
10
9.0907999999998363
20
-83.677399999999892
42
-0.41421356237308626
10
11.090799999999835
20
-85.677399999999921
10
11.090799999999826
20
-86.027399999999886
42
0.4142135623730957
10
13.090799999999811
20
-88.027399999999915
10
19.090799999999813
20
-88.027399999999929
42
0.41421356237309598
10
21.090799999999827
20
-86.027399999999943
10
21.090799999999817
20
-85.677399999999935
42
-0.41421356237308071
10
23.09079999999982
20
-83.677399999999949
10
41.09079999999981
20
-83.677400000000006
42
0.41421356237309243
10
43.090799999999817
20
-81.67740000000002
10
43.090799999999867
20
-73.67740000000002
42
0.4142135623730937
10
41.090799999999859
20
-71.677400000000006
0
CIRCLE
5
101
100
AcDbEntity
8
0
100
AcDbCircle
10
49.999999999999801
20
-80.499999999999858
30
0
40
1.6000000000000014
0
CIRCLE
5
102
100
AcDbEntity
8
0
100
AcDbCircle
10
-15.000000000000046
20
-72.999999999999957
30
0
40
2.5
0
CIRCLE
5
103
100
AcDbEntity
8
0
100
AcDbCircle
10
-23.000000000000238
20
-13.499999999999869
30
0
40
1.6000000000000014
0
CIRCLE
5
104
100
AcDbEntity
8
0
100
AcDbCircle
10
-22
20
-72.999999999999972
30
0
40
2.5
0
CIRCLE
5
105
100
AcDbEntity
8
0
100
AcDbCircle
10
-23.000000000000249
20
-80.499999999999858
30
0
40
1.6000000000000014
0
CIRCLE
5
106
100
AcDbEntity
8
0
100
AcDbCircle
10
49.999999999999865
20
-13.500000000000403
30
0
40
1.6000000000000014
0
LWPOLYLINE
5
107
100
AcDbEntity
8
0
100
AcDbPolyline
90
28
70
1
43
0.0
10
55
20
-43.500000000000426
10
60.5
20
-43.500000000000426
10
60.5
20
-73.500000000000426
10
55
20
-73.500000000000426
10
55
20
-93.499999999999915
10
33
20
-93.499999999999929
10
33
20
-98.999999999999929
10
11
20
-98.999999999999929
10
11
20
-93.499999999999929
10
-11
20
-93.499999999999929
10
-11
20
-98.999999999999929
10
-33
20
-98.999999999999929
10
-33
20
-93.499999999999929
10
-55
20
-93.499999999999915
10
-55.000000000000007
20
-63.499999999999915
10
-60.500000000000007
20
-63.499999999999915
10
-60.500000000000007
20
-33.499999999999915
10
-55.000000000000007
20
-33.499999999999915
10
-55
20
-3.4999999999999254
10
-33
20
-3.499999999999921
10
-33
20
2.000000000000079
10
-11
20
2.0000000000000795
10
-11
20
-3.499999999999921
10
11
20
-3.499999999999921
10
11
20
2.0000000000000799
10
33
20
2.0000000000000808
10
33
20
-3.4999999999999201
10
55
20
-3.4999999999999165
0
ENDSEC
0
SECTION
2
OBJECTS
0
DICTIONARY
5
C
100
AcDbDictionary
3
ACAD_GROUP
350
D
3
ACAD_MLINESTYLE
350
17
0
DICTIONARY
5
D
100
AcDbDictionary
0
DICTIONARY
5
1A
330
C
100
AcDbDictionary
0
DICTIONARY
5
17
100
AcDbDictionary
0
ENDSEC
0
EOF
