%TF.GenerationSoftware,KiCad,Pcbnew,(5.1.6-0-10_14)*%
%TF.CreationDate,2021-04-16T11:15:05+09:00*%
%TF.ProjectId,NinjaPCB_ver2.2,4e696e6a-6150-4434-925f-766572322e32,rev?*%
%TF.SameCoordinates,Original*%
%TF.FileFunction,Legend,Top*%
%TF.FilePolarity,Positive*%
%FSLAX46Y46*%
G04 Gerber Fmt 4.6, Leading zero omitted, Abs format (unit mm)*
G04 Created by KiCad (PCBNEW (5.1.6-0-10_14)) date 2021-04-16 11:15:05*
%MOMM*%
%LPD*%
G01*
G04 APERTURE LIST*
%ADD10C,0.406400*%
%ADD11C,0.101600*%
%ADD12C,0.081280*%
%ADD13C,0.071120*%
%ADD14C,0.113792*%
%ADD15C,0.127000*%
%ADD16C,0.254000*%
%ADD17C,0.203200*%
%ADD18C,0.100000*%
%ADD19C,0.762000*%
%ADD20C,0.152400*%
%ADD21C,0.200000*%
%ADD22C,0.150000*%
G04 APERTURE END LIST*
D10*
X130044500Y-76868600D02*
X140044500Y-76868600D01*
X140044500Y-76868600D02*
X140044500Y-86868600D01*
X140044500Y-86868600D02*
X130044500Y-86868600D01*
X130044500Y-86868600D02*
X130044500Y-76868600D01*
D11*
X129726774Y-128555647D02*
X129726774Y-127349147D01*
X130014036Y-127349147D01*
X130186393Y-127406600D01*
X130301298Y-127521504D01*
X130358750Y-127636409D01*
X130416202Y-127866219D01*
X130416202Y-128038576D01*
X130358750Y-128268385D01*
X130301298Y-128383290D01*
X130186393Y-128498195D01*
X130014036Y-128555647D01*
X129726774Y-128555647D01*
X130875821Y-127464052D02*
X130933274Y-127406600D01*
X131048179Y-127349147D01*
X131335440Y-127349147D01*
X131450345Y-127406600D01*
X131507798Y-127464052D01*
X131565250Y-127578957D01*
X131565250Y-127693861D01*
X131507798Y-127866219D01*
X130818369Y-128555647D01*
X131565250Y-128555647D01*
X136061655Y-128797552D02*
X135946750Y-128740100D01*
X135831845Y-128625195D01*
X135659488Y-128452838D01*
X135544583Y-128395385D01*
X135429679Y-128395385D01*
X135487131Y-128682647D02*
X135372226Y-128625195D01*
X135257321Y-128510290D01*
X135199869Y-128280480D01*
X135199869Y-127878314D01*
X135257321Y-127648504D01*
X135372226Y-127533600D01*
X135487131Y-127476147D01*
X135716940Y-127476147D01*
X135831845Y-127533600D01*
X135946750Y-127648504D01*
X136004202Y-127878314D01*
X136004202Y-128280480D01*
X135946750Y-128510290D01*
X135831845Y-128625195D01*
X135716940Y-128682647D01*
X135487131Y-128682647D01*
X137095798Y-127476147D02*
X136521274Y-127476147D01*
X136463821Y-128050671D01*
X136521274Y-127993219D01*
X136636179Y-127935766D01*
X136923440Y-127935766D01*
X137038345Y-127993219D01*
X137095798Y-128050671D01*
X137153250Y-128165576D01*
X137153250Y-128452838D01*
X137095798Y-128567742D01*
X137038345Y-128625195D01*
X136923440Y-128682647D01*
X136636179Y-128682647D01*
X136521274Y-128625195D01*
X136463821Y-128567742D01*
X139685630Y-126942747D02*
X139283463Y-126368223D01*
X138996201Y-126942747D02*
X138996201Y-125736247D01*
X139455820Y-125736247D01*
X139570725Y-125793700D01*
X139628178Y-125851152D01*
X139685630Y-125966057D01*
X139685630Y-126138414D01*
X139628178Y-126253319D01*
X139570725Y-126310771D01*
X139455820Y-126368223D01*
X138996201Y-126368223D01*
X140834678Y-126942747D02*
X140145249Y-126942747D01*
X140489963Y-126942747D02*
X140489963Y-125736247D01*
X140375059Y-125908604D01*
X140260154Y-126023509D01*
X140145249Y-126080961D01*
X141294297Y-125851152D02*
X141351749Y-125793700D01*
X141466654Y-125736247D01*
X141753916Y-125736247D01*
X141868820Y-125793700D01*
X141926273Y-125851152D01*
X141983725Y-125966057D01*
X141983725Y-126080961D01*
X141926273Y-126253319D01*
X141236844Y-126942747D01*
X141983725Y-126942747D01*
X148982030Y-117937842D02*
X148924578Y-117995295D01*
X148752220Y-118052747D01*
X148637316Y-118052747D01*
X148464959Y-117995295D01*
X148350054Y-117880390D01*
X148292601Y-117765485D01*
X148235149Y-117535676D01*
X148235149Y-117363319D01*
X148292601Y-117133509D01*
X148350054Y-117018604D01*
X148464959Y-116903700D01*
X148637316Y-116846247D01*
X148752220Y-116846247D01*
X148924578Y-116903700D01*
X148982030Y-116961152D01*
X149384197Y-116846247D02*
X150131078Y-116846247D01*
X149728911Y-117305866D01*
X149901268Y-117305866D01*
X150016173Y-117363319D01*
X150073625Y-117420771D01*
X150131078Y-117535676D01*
X150131078Y-117822938D01*
X150073625Y-117937842D01*
X150016173Y-117995295D01*
X149901268Y-118052747D01*
X149556554Y-118052747D01*
X149441649Y-117995295D01*
X149384197Y-117937842D01*
X149080001Y-113554528D02*
X149999240Y-113554528D01*
X149539620Y-114014147D02*
X149539620Y-113094909D01*
X185262371Y-115478568D02*
X185262371Y-115076401D01*
X185894347Y-114904044D02*
X185894347Y-115478568D01*
X184687847Y-115478568D01*
X184687847Y-114904044D01*
X185836895Y-114444425D02*
X185894347Y-114272068D01*
X185894347Y-113984806D01*
X185836895Y-113869901D01*
X185779442Y-113812449D01*
X185664538Y-113754997D01*
X185549633Y-113754997D01*
X185434728Y-113812449D01*
X185377276Y-113869901D01*
X185319823Y-113984806D01*
X185262371Y-114214616D01*
X185204919Y-114329520D01*
X185147466Y-114386973D01*
X185032561Y-114444425D01*
X184917657Y-114444425D01*
X184802752Y-114386973D01*
X184745300Y-114329520D01*
X184687847Y-114214616D01*
X184687847Y-113927354D01*
X184745300Y-113754997D01*
X185894347Y-113237925D02*
X184687847Y-113237925D01*
X184687847Y-112778306D01*
X184745300Y-112663401D01*
X184802752Y-112605949D01*
X184917657Y-112548497D01*
X185090014Y-112548497D01*
X185204919Y-112605949D01*
X185262371Y-112663401D01*
X185319823Y-112778306D01*
X185319823Y-113237925D01*
X184802752Y-112088878D02*
X184745300Y-112031425D01*
X184687847Y-111916520D01*
X184687847Y-111629259D01*
X184745300Y-111514354D01*
X184802752Y-111456901D01*
X184917657Y-111399449D01*
X185032561Y-111399449D01*
X185204919Y-111456901D01*
X185894347Y-112146330D01*
X185894347Y-111399449D01*
X187173721Y-126107259D02*
X187173721Y-125705092D01*
X187805697Y-125532735D02*
X187805697Y-126107259D01*
X186599197Y-126107259D01*
X186599197Y-125532735D01*
X187748245Y-125073116D02*
X187805697Y-124900759D01*
X187805697Y-124613497D01*
X187748245Y-124498592D01*
X187690792Y-124441140D01*
X187575888Y-124383687D01*
X187460983Y-124383687D01*
X187346078Y-124441140D01*
X187288626Y-124498592D01*
X187231173Y-124613497D01*
X187173721Y-124843306D01*
X187116269Y-124958211D01*
X187058816Y-125015663D01*
X186943911Y-125073116D01*
X186829007Y-125073116D01*
X186714102Y-125015663D01*
X186656650Y-124958211D01*
X186599197Y-124843306D01*
X186599197Y-124556044D01*
X186656650Y-124383687D01*
X187805697Y-123866616D02*
X186599197Y-123866616D01*
X186599197Y-123406997D01*
X186656650Y-123292092D01*
X186714102Y-123234640D01*
X186829007Y-123177187D01*
X187001364Y-123177187D01*
X187116269Y-123234640D01*
X187173721Y-123292092D01*
X187231173Y-123406997D01*
X187231173Y-123866616D01*
X187346078Y-122660116D02*
X187346078Y-121740878D01*
X186599197Y-121281259D02*
X187805697Y-120993997D01*
X186943911Y-120764187D01*
X187805697Y-120534378D01*
X186599197Y-120247116D01*
X187805697Y-119098068D02*
X187231173Y-119500235D01*
X187805697Y-119787497D02*
X186599197Y-119787497D01*
X186599197Y-119327878D01*
X186656650Y-119212973D01*
X186714102Y-119155520D01*
X186829007Y-119098068D01*
X187001364Y-119098068D01*
X187116269Y-119155520D01*
X187173721Y-119212973D01*
X187231173Y-119327878D01*
X187231173Y-119787497D01*
X186599197Y-118351187D02*
X186599197Y-118121378D01*
X186656650Y-118006473D01*
X186771554Y-117891568D01*
X187001364Y-117834116D01*
X187403530Y-117834116D01*
X187633340Y-117891568D01*
X187748245Y-118006473D01*
X187805697Y-118121378D01*
X187805697Y-118351187D01*
X187748245Y-118466092D01*
X187633340Y-118580997D01*
X187403530Y-118638449D01*
X187001364Y-118638449D01*
X186771554Y-118580997D01*
X186656650Y-118466092D01*
X186599197Y-118351187D01*
X186599197Y-117087235D02*
X186599197Y-116857425D01*
X186656650Y-116742520D01*
X186771554Y-116627616D01*
X187001364Y-116570163D01*
X187403530Y-116570163D01*
X187633340Y-116627616D01*
X187748245Y-116742520D01*
X187805697Y-116857425D01*
X187805697Y-117087235D01*
X187748245Y-117202140D01*
X187633340Y-117317044D01*
X187403530Y-117374497D01*
X187001364Y-117374497D01*
X186771554Y-117317044D01*
X186656650Y-117202140D01*
X186599197Y-117087235D01*
X187805697Y-116053092D02*
X186599197Y-116053092D01*
X187460983Y-115650925D01*
X186599197Y-115248759D01*
X187805697Y-115248759D01*
X187346078Y-114674235D02*
X187346078Y-113754997D01*
X186599197Y-112950663D02*
X186599197Y-112835759D01*
X186656650Y-112720854D01*
X186714102Y-112663401D01*
X186829007Y-112605949D01*
X187058816Y-112548497D01*
X187346078Y-112548497D01*
X187575888Y-112605949D01*
X187690792Y-112663401D01*
X187748245Y-112720854D01*
X187805697Y-112835759D01*
X187805697Y-112950663D01*
X187748245Y-113065568D01*
X187690792Y-113123020D01*
X187575888Y-113180473D01*
X187346078Y-113237925D01*
X187058816Y-113237925D01*
X186829007Y-113180473D01*
X186714102Y-113123020D01*
X186656650Y-113065568D01*
X186599197Y-112950663D01*
X186714102Y-112088878D02*
X186656650Y-112031425D01*
X186599197Y-111916520D01*
X186599197Y-111629259D01*
X186656650Y-111514354D01*
X186714102Y-111456901D01*
X186829007Y-111399449D01*
X186943911Y-111399449D01*
X187116269Y-111456901D01*
X187805697Y-112146330D01*
X187805697Y-111399449D01*
X114674855Y-125418747D02*
X114674855Y-126280533D01*
X114617402Y-126452890D01*
X114502498Y-126567795D01*
X114330140Y-126625247D01*
X114215236Y-126625247D01*
X115191926Y-126280533D02*
X115766450Y-126280533D01*
X115077021Y-126625247D02*
X115479188Y-125418747D01*
X115881355Y-126625247D01*
X116972950Y-126510342D02*
X116915498Y-126567795D01*
X116743140Y-126625247D01*
X116628236Y-126625247D01*
X116455879Y-126567795D01*
X116340974Y-126452890D01*
X116283521Y-126337985D01*
X116226069Y-126108176D01*
X116226069Y-125935819D01*
X116283521Y-125706009D01*
X116340974Y-125591104D01*
X116455879Y-125476200D01*
X116628236Y-125418747D01*
X116743140Y-125418747D01*
X116915498Y-125476200D01*
X116972950Y-125533652D01*
X117490021Y-126625247D02*
X117490021Y-125418747D01*
X118179450Y-126625247D02*
X117662379Y-125935819D01*
X118179450Y-125418747D02*
X117490021Y-126108176D01*
X115882201Y-118255947D02*
X115882201Y-117049447D01*
X116169463Y-117049447D01*
X116341820Y-117106900D01*
X116456725Y-117221804D01*
X116514178Y-117336709D01*
X116571630Y-117566519D01*
X116571630Y-117738876D01*
X116514178Y-117968685D01*
X116456725Y-118083590D01*
X116341820Y-118198495D01*
X116169463Y-118255947D01*
X115882201Y-118255947D01*
X117088701Y-118255947D02*
X117088701Y-117049447D01*
X117663225Y-118255947D02*
X117663225Y-117049447D01*
X118352654Y-118255947D01*
X118352654Y-117049447D01*
X119444249Y-117451614D02*
X119444249Y-118255947D01*
X119156987Y-116991995D02*
X118869725Y-117853780D01*
X119616606Y-117853780D01*
X177622102Y-100500742D02*
X177564650Y-100558195D01*
X177392293Y-100615647D01*
X177277388Y-100615647D01*
X177105031Y-100558195D01*
X176990126Y-100443290D01*
X176932674Y-100328385D01*
X176875221Y-100098576D01*
X176875221Y-99926219D01*
X176932674Y-99696409D01*
X176990126Y-99581504D01*
X177105031Y-99466600D01*
X177277388Y-99409147D01*
X177392293Y-99409147D01*
X177564650Y-99466600D01*
X177622102Y-99524052D01*
X178139174Y-100615647D02*
X178139174Y-99409147D01*
X178598793Y-99409147D01*
X178713698Y-99466600D01*
X178771150Y-99524052D01*
X178828602Y-99638957D01*
X178828602Y-99811314D01*
X178771150Y-99926219D01*
X178713698Y-99983671D01*
X178598793Y-100041123D01*
X178139174Y-100041123D01*
X179288221Y-99524052D02*
X179345674Y-99466600D01*
X179460579Y-99409147D01*
X179747840Y-99409147D01*
X179862745Y-99466600D01*
X179920198Y-99524052D01*
X179977650Y-99638957D01*
X179977650Y-99753861D01*
X179920198Y-99926219D01*
X179230769Y-100615647D01*
X179977650Y-100615647D01*
X163739430Y-74046642D02*
X163681978Y-74104095D01*
X163509620Y-74161547D01*
X163394716Y-74161547D01*
X163222359Y-74104095D01*
X163107454Y-73989190D01*
X163050001Y-73874285D01*
X162992549Y-73644476D01*
X162992549Y-73472119D01*
X163050001Y-73242309D01*
X163107454Y-73127404D01*
X163222359Y-73012500D01*
X163394716Y-72955047D01*
X163509620Y-72955047D01*
X163681978Y-73012500D01*
X163739430Y-73069952D01*
X164256501Y-74161547D02*
X164256501Y-72955047D01*
X164716120Y-72955047D01*
X164831025Y-73012500D01*
X164888478Y-73069952D01*
X164945930Y-73184857D01*
X164945930Y-73357214D01*
X164888478Y-73472119D01*
X164831025Y-73529571D01*
X164716120Y-73587023D01*
X164256501Y-73587023D01*
X166094978Y-74161547D02*
X165405549Y-74161547D01*
X165750263Y-74161547D02*
X165750263Y-72955047D01*
X165635359Y-73127404D01*
X165520454Y-73242309D01*
X165405549Y-73299761D01*
X183533771Y-89680568D02*
X183533771Y-89278401D01*
X184165747Y-89106044D02*
X184165747Y-89680568D01*
X182959247Y-89680568D01*
X182959247Y-89106044D01*
X184108295Y-88646425D02*
X184165747Y-88474068D01*
X184165747Y-88186806D01*
X184108295Y-88071901D01*
X184050842Y-88014449D01*
X183935938Y-87956997D01*
X183821033Y-87956997D01*
X183706128Y-88014449D01*
X183648676Y-88071901D01*
X183591223Y-88186806D01*
X183533771Y-88416616D01*
X183476319Y-88531520D01*
X183418866Y-88588973D01*
X183303961Y-88646425D01*
X183189057Y-88646425D01*
X183074152Y-88588973D01*
X183016700Y-88531520D01*
X182959247Y-88416616D01*
X182959247Y-88129354D01*
X183016700Y-87956997D01*
X184165747Y-87439925D02*
X182959247Y-87439925D01*
X182959247Y-86980306D01*
X183016700Y-86865401D01*
X183074152Y-86807949D01*
X183189057Y-86750497D01*
X183361414Y-86750497D01*
X183476319Y-86807949D01*
X183533771Y-86865401D01*
X183591223Y-86980306D01*
X183591223Y-87439925D01*
X184165747Y-85601449D02*
X184165747Y-86290878D01*
X184165747Y-85946163D02*
X182959247Y-85946163D01*
X183131604Y-86061068D01*
X183246509Y-86175973D01*
X183303961Y-86290878D01*
X185445121Y-92323378D02*
X185445121Y-91921211D01*
X186077097Y-91748854D02*
X186077097Y-92323378D01*
X184870597Y-92323378D01*
X184870597Y-91748854D01*
X186019645Y-91289235D02*
X186077097Y-91116878D01*
X186077097Y-90829616D01*
X186019645Y-90714711D01*
X185962192Y-90657259D01*
X185847288Y-90599806D01*
X185732383Y-90599806D01*
X185617478Y-90657259D01*
X185560026Y-90714711D01*
X185502573Y-90829616D01*
X185445121Y-91059425D01*
X185387669Y-91174330D01*
X185330216Y-91231782D01*
X185215311Y-91289235D01*
X185100407Y-91289235D01*
X184985502Y-91231782D01*
X184928050Y-91174330D01*
X184870597Y-91059425D01*
X184870597Y-90772163D01*
X184928050Y-90599806D01*
X186077097Y-90082735D02*
X184870597Y-90082735D01*
X184870597Y-89623116D01*
X184928050Y-89508211D01*
X184985502Y-89450759D01*
X185100407Y-89393306D01*
X185272764Y-89393306D01*
X185387669Y-89450759D01*
X185445121Y-89508211D01*
X185502573Y-89623116D01*
X185502573Y-90082735D01*
X185617478Y-88876235D02*
X185617478Y-87956997D01*
X186077097Y-86750497D02*
X186077097Y-87439925D01*
X186077097Y-87095211D02*
X184870597Y-87095211D01*
X185042954Y-87210116D01*
X185157859Y-87325020D01*
X185215311Y-87439925D01*
X184985502Y-86290878D02*
X184928050Y-86233425D01*
X184870597Y-86118520D01*
X184870597Y-85831259D01*
X184928050Y-85716354D01*
X184985502Y-85658901D01*
X185100407Y-85601449D01*
X185215311Y-85601449D01*
X185387669Y-85658901D01*
X186077097Y-86348330D01*
X186077097Y-85601449D01*
X150531430Y-107029147D02*
X150129263Y-106454623D01*
X149842001Y-107029147D02*
X149842001Y-105822647D01*
X150301620Y-105822647D01*
X150416525Y-105880100D01*
X150473978Y-105937552D01*
X150531430Y-106052457D01*
X150531430Y-106224814D01*
X150473978Y-106339719D01*
X150416525Y-106397171D01*
X150301620Y-106454623D01*
X149842001Y-106454623D01*
X151048501Y-106397171D02*
X151450668Y-106397171D01*
X151623025Y-107029147D02*
X151048501Y-107029147D01*
X151048501Y-105822647D01*
X151623025Y-105822647D01*
X152772073Y-105880100D02*
X152657168Y-105822647D01*
X152484811Y-105822647D01*
X152312454Y-105880100D01*
X152197549Y-105995004D01*
X152140097Y-106109909D01*
X152082644Y-106339719D01*
X152082644Y-106512076D01*
X152140097Y-106741885D01*
X152197549Y-106856790D01*
X152312454Y-106971695D01*
X152484811Y-107029147D01*
X152599716Y-107029147D01*
X152772073Y-106971695D01*
X152829525Y-106914242D01*
X152829525Y-106512076D01*
X152599716Y-106512076D01*
X151217230Y-97948042D02*
X151159778Y-98005495D01*
X150987420Y-98062947D01*
X150872516Y-98062947D01*
X150700159Y-98005495D01*
X150585254Y-97890590D01*
X150527801Y-97775685D01*
X150470349Y-97545876D01*
X150470349Y-97373519D01*
X150527801Y-97143709D01*
X150585254Y-97028804D01*
X150700159Y-96913900D01*
X150872516Y-96856447D01*
X150987420Y-96856447D01*
X151159778Y-96913900D01*
X151217230Y-96971352D01*
X152251373Y-97258614D02*
X152251373Y-98062947D01*
X151964111Y-96798995D02*
X151676849Y-97660780D01*
X152423730Y-97660780D01*
X129347830Y-115995347D02*
X128945663Y-115420823D01*
X128658401Y-115995347D02*
X128658401Y-114788847D01*
X129118020Y-114788847D01*
X129232925Y-114846300D01*
X129290378Y-114903752D01*
X129347830Y-115018657D01*
X129347830Y-115191014D01*
X129290378Y-115305919D01*
X129232925Y-115363371D01*
X129118020Y-115420823D01*
X128658401Y-115420823D01*
X129864901Y-115363371D02*
X130267068Y-115363371D01*
X130439425Y-115995347D02*
X129864901Y-115995347D01*
X129864901Y-114788847D01*
X130439425Y-114788847D01*
X131531020Y-115995347D02*
X130956497Y-115995347D01*
X130956497Y-114788847D01*
X131875735Y-115650633D02*
X132450259Y-115650633D01*
X131760830Y-115995347D02*
X132162997Y-114788847D01*
X132565163Y-115995347D01*
X133197140Y-115420823D02*
X133197140Y-115995347D01*
X132794973Y-114788847D02*
X133197140Y-115420823D01*
X133599306Y-114788847D01*
X143424147Y-101725869D02*
X142849623Y-102128036D01*
X143424147Y-102415298D02*
X142217647Y-102415298D01*
X142217647Y-101955679D01*
X142275100Y-101840774D01*
X142332552Y-101783321D01*
X142447457Y-101725869D01*
X142619814Y-101725869D01*
X142734719Y-101783321D01*
X142792171Y-101840774D01*
X142849623Y-101955679D01*
X142849623Y-102415298D01*
X142792171Y-101208798D02*
X142792171Y-100806631D01*
X143424147Y-100634274D02*
X143424147Y-101208798D01*
X142217647Y-101208798D01*
X142217647Y-100634274D01*
X143424147Y-100117202D02*
X142217647Y-100117202D01*
X142217647Y-99829940D01*
X142275100Y-99657583D01*
X142390004Y-99542679D01*
X142504909Y-99485226D01*
X142734719Y-99427774D01*
X142907076Y-99427774D01*
X143136885Y-99485226D01*
X143251790Y-99542679D01*
X143366695Y-99657583D01*
X143424147Y-99829940D01*
X143424147Y-100117202D01*
X145335497Y-102415298D02*
X144128997Y-102415298D01*
X144128997Y-101955679D01*
X144186450Y-101840774D01*
X144243902Y-101783321D01*
X144358807Y-101725869D01*
X144531164Y-101725869D01*
X144646069Y-101783321D01*
X144703521Y-101840774D01*
X144760973Y-101955679D01*
X144760973Y-102415298D01*
X144703521Y-101208798D02*
X144703521Y-100806631D01*
X145335497Y-100634274D02*
X145335497Y-101208798D01*
X144128997Y-101208798D01*
X144128997Y-100634274D01*
X145335497Y-99542679D02*
X145335497Y-100117202D01*
X144128997Y-100117202D01*
X144128997Y-99312869D02*
X144128997Y-98623440D01*
X145335497Y-98968155D02*
X144128997Y-98968155D01*
X146614871Y-102013131D02*
X146672323Y-101840774D01*
X146729776Y-101783321D01*
X146844680Y-101725869D01*
X147017038Y-101725869D01*
X147131942Y-101783321D01*
X147189395Y-101840774D01*
X147246847Y-101955679D01*
X147246847Y-102415298D01*
X146040347Y-102415298D01*
X146040347Y-102013131D01*
X146097800Y-101898226D01*
X146155252Y-101840774D01*
X146270157Y-101783321D01*
X146385061Y-101783321D01*
X146499966Y-101840774D01*
X146557419Y-101898226D01*
X146614871Y-102013131D01*
X146614871Y-102415298D01*
X147246847Y-100634274D02*
X147246847Y-101208798D01*
X146040347Y-101208798D01*
X146902133Y-100289560D02*
X146902133Y-99715036D01*
X147246847Y-100404464D02*
X146040347Y-100002298D01*
X147246847Y-99600131D01*
X147131942Y-98508536D02*
X147189395Y-98565988D01*
X147246847Y-98738345D01*
X147246847Y-98853250D01*
X147189395Y-99025607D01*
X147074490Y-99140512D01*
X146959585Y-99197964D01*
X146729776Y-99255417D01*
X146557419Y-99255417D01*
X146327609Y-99197964D01*
X146212704Y-99140512D01*
X146097800Y-99025607D01*
X146040347Y-98853250D01*
X146040347Y-98738345D01*
X146097800Y-98565988D01*
X146155252Y-98508536D01*
X147246847Y-97991464D02*
X146040347Y-97991464D01*
X147246847Y-97302036D02*
X146557419Y-97819107D01*
X146040347Y-97302036D02*
X146729776Y-97991464D01*
X135597802Y-96716142D02*
X135540350Y-96773595D01*
X135367993Y-96831047D01*
X135253088Y-96831047D01*
X135080731Y-96773595D01*
X134965826Y-96658690D01*
X134908374Y-96543785D01*
X134850921Y-96313976D01*
X134850921Y-96141619D01*
X134908374Y-95911809D01*
X134965826Y-95796904D01*
X135080731Y-95682000D01*
X135253088Y-95624547D01*
X135367993Y-95624547D01*
X135540350Y-95682000D01*
X135597802Y-95739452D01*
X136746850Y-96831047D02*
X136057421Y-96831047D01*
X136402136Y-96831047D02*
X136402136Y-95624547D01*
X136287231Y-95796904D01*
X136172326Y-95911809D01*
X136057421Y-95969261D01*
X132905402Y-89908942D02*
X132847950Y-89966395D01*
X132675593Y-90023847D01*
X132560688Y-90023847D01*
X132388331Y-89966395D01*
X132273426Y-89851490D01*
X132215974Y-89736585D01*
X132158521Y-89506776D01*
X132158521Y-89334419D01*
X132215974Y-89104609D01*
X132273426Y-88989704D01*
X132388331Y-88874800D01*
X132560688Y-88817347D01*
X132675593Y-88817347D01*
X132847950Y-88874800D01*
X132905402Y-88932252D01*
X133365021Y-88932252D02*
X133422474Y-88874800D01*
X133537379Y-88817347D01*
X133824640Y-88817347D01*
X133939545Y-88874800D01*
X133996998Y-88932252D01*
X134054450Y-89047157D01*
X134054450Y-89162061D01*
X133996998Y-89334419D01*
X133307569Y-90023847D01*
X134054450Y-90023847D01*
X146373450Y-95688047D02*
X146373450Y-94481547D01*
X147637402Y-95573142D02*
X147579950Y-95630595D01*
X147407593Y-95688047D01*
X147292688Y-95688047D01*
X147120331Y-95630595D01*
X147005426Y-95515690D01*
X146947974Y-95400785D01*
X146890521Y-95170976D01*
X146890521Y-94998619D01*
X146947974Y-94768809D01*
X147005426Y-94653904D01*
X147120331Y-94539000D01*
X147292688Y-94481547D01*
X147407593Y-94481547D01*
X147579950Y-94539000D01*
X147637402Y-94596452D01*
X148786450Y-95688047D02*
X148097021Y-95688047D01*
X148441736Y-95688047D02*
X148441736Y-94481547D01*
X148326831Y-94653904D01*
X148211926Y-94768809D01*
X148097021Y-94826261D01*
X140901201Y-91306547D02*
X140901201Y-90100047D01*
X142165154Y-91191642D02*
X142107701Y-91249095D01*
X141935344Y-91306547D01*
X141820440Y-91306547D01*
X141648082Y-91249095D01*
X141533178Y-91134190D01*
X141475725Y-91019285D01*
X141418273Y-90789476D01*
X141418273Y-90617119D01*
X141475725Y-90387309D01*
X141533178Y-90272404D01*
X141648082Y-90157500D01*
X141820440Y-90100047D01*
X141935344Y-90100047D01*
X142107701Y-90157500D01*
X142165154Y-90214952D01*
X142624773Y-90214952D02*
X142682225Y-90157500D01*
X142797130Y-90100047D01*
X143084392Y-90100047D01*
X143199297Y-90157500D01*
X143256749Y-90214952D01*
X143314201Y-90329857D01*
X143314201Y-90444761D01*
X143256749Y-90617119D01*
X142567320Y-91306547D01*
X143314201Y-91306547D01*
X147796697Y-71450097D02*
X148083959Y-72656597D01*
X148313768Y-71794811D01*
X148543578Y-72656597D01*
X148830840Y-71450097D01*
X149290459Y-72024621D02*
X149692625Y-72024621D01*
X149864982Y-72656597D02*
X149290459Y-72656597D01*
X149290459Y-71450097D01*
X149864982Y-71450097D01*
X150956578Y-72656597D02*
X150382054Y-72656597D01*
X150382054Y-71450097D01*
X151933268Y-72656597D02*
X151358744Y-72656597D01*
X151358744Y-71450097D01*
X147739244Y-73361447D02*
X148428673Y-73361447D01*
X148083959Y-74567947D02*
X148083959Y-73361447D01*
X148830840Y-73935971D02*
X149233006Y-73935971D01*
X149405363Y-74567947D02*
X148830840Y-74567947D01*
X148830840Y-73361447D01*
X149405363Y-73361447D01*
X149922435Y-74567947D02*
X149922435Y-73361447D01*
X150324601Y-74223233D01*
X150726768Y-73361447D01*
X150726768Y-74567947D01*
X151301292Y-74567947D02*
X151301292Y-73361447D01*
X151760911Y-73361447D01*
X151875816Y-73418900D01*
X151933268Y-73476352D01*
X151990720Y-73591257D01*
X151990720Y-73763614D01*
X151933268Y-73878519D01*
X151875816Y-73935971D01*
X151760911Y-73993423D01*
X151301292Y-73993423D01*
D12*
X144658684Y-74020638D02*
X144336951Y-73561019D01*
X144107141Y-74020638D02*
X144107141Y-73055438D01*
X144474836Y-73055438D01*
X144566760Y-73101400D01*
X144612722Y-73147361D01*
X144658684Y-73239285D01*
X144658684Y-73377171D01*
X144612722Y-73469095D01*
X144566760Y-73515057D01*
X144474836Y-73561019D01*
X144107141Y-73561019D01*
X144934455Y-73055438D02*
X145485998Y-73055438D01*
X145210227Y-74020638D02*
X145210227Y-73055438D01*
X145945617Y-73055438D02*
X145945617Y-73285247D01*
X145715808Y-73193323D02*
X145945617Y-73285247D01*
X146175427Y-73193323D01*
X145807732Y-73469095D02*
X145945617Y-73285247D01*
X146083503Y-73469095D01*
D11*
X144867230Y-76549147D02*
X144465063Y-75974623D01*
X144177801Y-76549147D02*
X144177801Y-75342647D01*
X144637420Y-75342647D01*
X144752325Y-75400100D01*
X144809778Y-75457552D01*
X144867230Y-75572457D01*
X144867230Y-75744814D01*
X144809778Y-75859719D01*
X144752325Y-75917171D01*
X144637420Y-75974623D01*
X144177801Y-75974623D01*
X145384301Y-76549147D02*
X145384301Y-75342647D01*
X145384301Y-75917171D02*
X146073730Y-75917171D01*
X146073730Y-76549147D02*
X146073730Y-75342647D01*
X144867230Y-79089147D02*
X144465063Y-78514623D01*
X144177801Y-79089147D02*
X144177801Y-77882647D01*
X144637420Y-77882647D01*
X144752325Y-77940100D01*
X144809778Y-77997552D01*
X144867230Y-78112457D01*
X144867230Y-78284814D01*
X144809778Y-78399719D01*
X144752325Y-78457171D01*
X144637420Y-78514623D01*
X144177801Y-78514623D01*
X145958825Y-79089147D02*
X145384301Y-79089147D01*
X145384301Y-77882647D01*
X146303540Y-77997552D02*
X146360992Y-77940100D01*
X146475897Y-77882647D01*
X146763159Y-77882647D01*
X146878063Y-77940100D01*
X146935516Y-77997552D01*
X146992968Y-78112457D01*
X146992968Y-78227361D01*
X146935516Y-78399719D01*
X146246087Y-79089147D01*
X146992968Y-79089147D01*
X144867230Y-81629147D02*
X144465063Y-81054623D01*
X144177801Y-81629147D02*
X144177801Y-80422647D01*
X144637420Y-80422647D01*
X144752325Y-80480100D01*
X144809778Y-80537552D01*
X144867230Y-80652457D01*
X144867230Y-80824814D01*
X144809778Y-80939719D01*
X144752325Y-80997171D01*
X144637420Y-81054623D01*
X144177801Y-81054623D01*
X145958825Y-81629147D02*
X145384301Y-81629147D01*
X145384301Y-80422647D01*
X146992968Y-81629147D02*
X146303540Y-81629147D01*
X146648254Y-81629147D02*
X146648254Y-80422647D01*
X146533349Y-80595004D01*
X146418444Y-80709909D01*
X146303540Y-80767361D01*
X144867230Y-84169147D02*
X144465063Y-83594623D01*
X144177801Y-84169147D02*
X144177801Y-82962647D01*
X144637420Y-82962647D01*
X144752325Y-83020100D01*
X144809778Y-83077552D01*
X144867230Y-83192457D01*
X144867230Y-83364814D01*
X144809778Y-83479719D01*
X144752325Y-83537171D01*
X144637420Y-83594623D01*
X144177801Y-83594623D01*
X145384301Y-84169147D02*
X145384301Y-82962647D01*
X145671563Y-82962647D01*
X145843920Y-83020100D01*
X145958825Y-83135004D01*
X146016278Y-83249909D01*
X146073730Y-83479719D01*
X146073730Y-83652076D01*
X146016278Y-83881885D01*
X145958825Y-83996790D01*
X145843920Y-84111695D01*
X145671563Y-84169147D01*
X145384301Y-84169147D01*
X146533349Y-83077552D02*
X146590801Y-83020100D01*
X146705706Y-82962647D01*
X146992968Y-82962647D01*
X147107873Y-83020100D01*
X147165325Y-83077552D01*
X147222778Y-83192457D01*
X147222778Y-83307361D01*
X147165325Y-83479719D01*
X146475897Y-84169147D01*
X147222778Y-84169147D01*
X144867230Y-86709147D02*
X144465063Y-86134623D01*
X144177801Y-86709147D02*
X144177801Y-85502647D01*
X144637420Y-85502647D01*
X144752325Y-85560100D01*
X144809778Y-85617552D01*
X144867230Y-85732457D01*
X144867230Y-85904814D01*
X144809778Y-86019719D01*
X144752325Y-86077171D01*
X144637420Y-86134623D01*
X144177801Y-86134623D01*
X145384301Y-86709147D02*
X145384301Y-85502647D01*
X145671563Y-85502647D01*
X145843920Y-85560100D01*
X145958825Y-85675004D01*
X146016278Y-85789909D01*
X146073730Y-86019719D01*
X146073730Y-86192076D01*
X146016278Y-86421885D01*
X145958825Y-86536790D01*
X145843920Y-86651695D01*
X145671563Y-86709147D01*
X145384301Y-86709147D01*
X147222778Y-86709147D02*
X146533349Y-86709147D01*
X146878063Y-86709147D02*
X146878063Y-85502647D01*
X146763159Y-85675004D01*
X146648254Y-85789909D01*
X146533349Y-85847361D01*
X154317602Y-73869447D02*
X153915436Y-73294923D01*
X153628174Y-73869447D02*
X153628174Y-72662947D01*
X154087793Y-72662947D01*
X154202698Y-72720400D01*
X154260150Y-72777852D01*
X154317602Y-72892757D01*
X154317602Y-73065114D01*
X154260150Y-73180019D01*
X154202698Y-73237471D01*
X154087793Y-73294923D01*
X153628174Y-73294923D01*
X154777221Y-72777852D02*
X154834674Y-72720400D01*
X154949579Y-72662947D01*
X155236840Y-72662947D01*
X155351745Y-72720400D01*
X155409198Y-72777852D01*
X155466650Y-72892757D01*
X155466650Y-73007661D01*
X155409198Y-73180019D01*
X154719769Y-73869447D01*
X155466650Y-73869447D01*
X154317602Y-76053847D02*
X153915436Y-75479323D01*
X153628174Y-76053847D02*
X153628174Y-74847347D01*
X154087793Y-74847347D01*
X154202698Y-74904800D01*
X154260150Y-74962252D01*
X154317602Y-75077157D01*
X154317602Y-75249514D01*
X154260150Y-75364419D01*
X154202698Y-75421871D01*
X154087793Y-75479323D01*
X153628174Y-75479323D01*
X154719769Y-74847347D02*
X155466650Y-74847347D01*
X155064483Y-75306966D01*
X155236840Y-75306966D01*
X155351745Y-75364419D01*
X155409198Y-75421871D01*
X155466650Y-75536776D01*
X155466650Y-75824038D01*
X155409198Y-75938942D01*
X155351745Y-75996395D01*
X155236840Y-76053847D01*
X154892126Y-76053847D01*
X154777221Y-75996395D01*
X154719769Y-75938942D01*
X154317602Y-78238247D02*
X153915436Y-77663723D01*
X153628174Y-78238247D02*
X153628174Y-77031747D01*
X154087793Y-77031747D01*
X154202698Y-77089200D01*
X154260150Y-77146652D01*
X154317602Y-77261557D01*
X154317602Y-77433914D01*
X154260150Y-77548819D01*
X154202698Y-77606271D01*
X154087793Y-77663723D01*
X153628174Y-77663723D01*
X155351745Y-77433914D02*
X155351745Y-78238247D01*
X155064483Y-76974295D02*
X154777221Y-77836080D01*
X155524102Y-77836080D01*
D12*
X153289410Y-82088161D02*
X153473258Y-81950276D01*
X153657106Y-82088161D01*
X154530382Y-82961438D02*
X154208648Y-82501819D01*
X153978839Y-82961438D02*
X153978839Y-81996238D01*
X154346534Y-81996238D01*
X154438458Y-82042200D01*
X154484420Y-82088161D01*
X154530382Y-82180085D01*
X154530382Y-82317971D01*
X154484420Y-82409895D01*
X154438458Y-82455857D01*
X154346534Y-82501819D01*
X153978839Y-82501819D01*
X154990001Y-82961438D02*
X155173848Y-82961438D01*
X155265772Y-82915476D01*
X155311734Y-82869514D01*
X155403658Y-82731628D01*
X155449620Y-82547780D01*
X155449620Y-82180085D01*
X155403658Y-82088161D01*
X155357696Y-82042200D01*
X155265772Y-81996238D01*
X155081925Y-81996238D01*
X154990001Y-82042200D01*
X154944039Y-82088161D01*
X154898077Y-82180085D01*
X154898077Y-82409895D01*
X154944039Y-82501819D01*
X154990001Y-82547780D01*
X155081925Y-82593742D01*
X155265772Y-82593742D01*
X155357696Y-82547780D01*
X155403658Y-82501819D01*
X155449620Y-82409895D01*
D11*
X153168555Y-84791447D02*
X152766388Y-84216923D01*
X152479126Y-84791447D02*
X152479126Y-83584947D01*
X152938745Y-83584947D01*
X153053650Y-83642400D01*
X153111102Y-83699852D01*
X153168555Y-83814757D01*
X153168555Y-83987114D01*
X153111102Y-84102019D01*
X153053650Y-84159471D01*
X152938745Y-84216923D01*
X152479126Y-84216923D01*
X154317602Y-84791447D02*
X153628174Y-84791447D01*
X153972888Y-84791447D02*
X153972888Y-83584947D01*
X153857983Y-83757304D01*
X153743079Y-83872209D01*
X153628174Y-83929661D01*
X155064483Y-83584947D02*
X155179388Y-83584947D01*
X155294293Y-83642400D01*
X155351745Y-83699852D01*
X155409198Y-83814757D01*
X155466650Y-84044566D01*
X155466650Y-84331828D01*
X155409198Y-84561638D01*
X155351745Y-84676542D01*
X155294293Y-84733995D01*
X155179388Y-84791447D01*
X155064483Y-84791447D01*
X154949579Y-84733995D01*
X154892126Y-84676542D01*
X154834674Y-84561638D01*
X154777221Y-84331828D01*
X154777221Y-84044566D01*
X154834674Y-83814757D01*
X154892126Y-83699852D01*
X154949579Y-83642400D01*
X155064483Y-83584947D01*
X154317602Y-89160247D02*
X153915436Y-88585723D01*
X153628174Y-89160247D02*
X153628174Y-87953747D01*
X154087793Y-87953747D01*
X154202698Y-88011200D01*
X154260150Y-88068652D01*
X154317602Y-88183557D01*
X154317602Y-88355914D01*
X154260150Y-88470819D01*
X154202698Y-88528271D01*
X154087793Y-88585723D01*
X153628174Y-88585723D01*
X155409198Y-87953747D02*
X154834674Y-87953747D01*
X154777221Y-88528271D01*
X154834674Y-88470819D01*
X154949579Y-88413366D01*
X155236840Y-88413366D01*
X155351745Y-88470819D01*
X155409198Y-88528271D01*
X155466650Y-88643176D01*
X155466650Y-88930438D01*
X155409198Y-89045342D01*
X155351745Y-89102795D01*
X155236840Y-89160247D01*
X154949579Y-89160247D01*
X154834674Y-89102795D01*
X154777221Y-89045342D01*
X154317602Y-91344647D02*
X153915436Y-90770123D01*
X153628174Y-91344647D02*
X153628174Y-90138147D01*
X154087793Y-90138147D01*
X154202698Y-90195600D01*
X154260150Y-90253052D01*
X154317602Y-90367957D01*
X154317602Y-90540314D01*
X154260150Y-90655219D01*
X154202698Y-90712671D01*
X154087793Y-90770123D01*
X153628174Y-90770123D01*
X155351745Y-90138147D02*
X155121936Y-90138147D01*
X155007031Y-90195600D01*
X154949579Y-90253052D01*
X154834674Y-90425409D01*
X154777221Y-90655219D01*
X154777221Y-91114838D01*
X154834674Y-91229742D01*
X154892126Y-91287195D01*
X155007031Y-91344647D01*
X155236840Y-91344647D01*
X155351745Y-91287195D01*
X155409198Y-91229742D01*
X155466650Y-91114838D01*
X155466650Y-90827576D01*
X155409198Y-90712671D01*
X155351745Y-90655219D01*
X155236840Y-90597766D01*
X155007031Y-90597766D01*
X154892126Y-90655219D01*
X154834674Y-90712671D01*
X154777221Y-90827576D01*
X154317602Y-93529047D02*
X153915436Y-92954523D01*
X153628174Y-93529047D02*
X153628174Y-92322547D01*
X154087793Y-92322547D01*
X154202698Y-92380000D01*
X154260150Y-92437452D01*
X154317602Y-92552357D01*
X154317602Y-92724714D01*
X154260150Y-92839619D01*
X154202698Y-92897071D01*
X154087793Y-92954523D01*
X153628174Y-92954523D01*
X154719769Y-92322547D02*
X155524102Y-92322547D01*
X155007031Y-93529047D01*
X118601574Y-102495247D02*
X118601574Y-101288747D01*
X118888836Y-101288747D01*
X119061193Y-101346200D01*
X119176098Y-101461104D01*
X119233550Y-101576009D01*
X119291002Y-101805819D01*
X119291002Y-101978176D01*
X119233550Y-102207985D01*
X119176098Y-102322890D01*
X119061193Y-102437795D01*
X118888836Y-102495247D01*
X118601574Y-102495247D01*
X120440050Y-102495247D02*
X119750621Y-102495247D01*
X120095336Y-102495247D02*
X120095336Y-101288747D01*
X119980431Y-101461104D01*
X119865526Y-101576009D01*
X119750621Y-101633461D01*
X115919455Y-102991152D02*
X115804550Y-102933700D01*
X115689645Y-102818795D01*
X115517288Y-102646438D01*
X115402383Y-102588985D01*
X115287479Y-102588985D01*
X115344931Y-102876247D02*
X115230026Y-102818795D01*
X115115121Y-102703890D01*
X115057669Y-102474080D01*
X115057669Y-102071914D01*
X115115121Y-101842104D01*
X115230026Y-101727200D01*
X115344931Y-101669747D01*
X115574740Y-101669747D01*
X115689645Y-101727200D01*
X115804550Y-101842104D01*
X115862002Y-102071914D01*
X115862002Y-102474080D01*
X115804550Y-102703890D01*
X115689645Y-102818795D01*
X115574740Y-102876247D01*
X115344931Y-102876247D01*
X116896145Y-102071914D02*
X116896145Y-102876247D01*
X116608883Y-101612295D02*
X116321621Y-102474080D01*
X117068502Y-102474080D01*
X110293355Y-101504647D02*
X109891188Y-100930123D01*
X109603926Y-101504647D02*
X109603926Y-100298147D01*
X110063545Y-100298147D01*
X110178450Y-100355600D01*
X110235902Y-100413052D01*
X110293355Y-100527957D01*
X110293355Y-100700314D01*
X110235902Y-100815219D01*
X110178450Y-100872671D01*
X110063545Y-100930123D01*
X109603926Y-100930123D01*
X111442402Y-101504647D02*
X110752974Y-101504647D01*
X111097688Y-101504647D02*
X111097688Y-100298147D01*
X110982783Y-100470504D01*
X110867879Y-100585409D01*
X110752974Y-100642861D01*
X112591450Y-101504647D02*
X111902021Y-101504647D01*
X112246736Y-101504647D02*
X112246736Y-100298147D01*
X112131831Y-100470504D01*
X112016926Y-100585409D01*
X111902021Y-100642861D01*
X111855455Y-97047552D02*
X111740550Y-96990100D01*
X111625645Y-96875195D01*
X111453288Y-96702838D01*
X111338383Y-96645385D01*
X111223479Y-96645385D01*
X111280931Y-96932647D02*
X111166026Y-96875195D01*
X111051121Y-96760290D01*
X110993669Y-96530480D01*
X110993669Y-96128314D01*
X111051121Y-95898504D01*
X111166026Y-95783600D01*
X111280931Y-95726147D01*
X111510740Y-95726147D01*
X111625645Y-95783600D01*
X111740550Y-95898504D01*
X111798002Y-96128314D01*
X111798002Y-96530480D01*
X111740550Y-96760290D01*
X111625645Y-96875195D01*
X111510740Y-96932647D01*
X111280931Y-96932647D01*
X112832145Y-95726147D02*
X112602336Y-95726147D01*
X112487431Y-95783600D01*
X112429979Y-95841052D01*
X112315074Y-96013409D01*
X112257621Y-96243219D01*
X112257621Y-96702838D01*
X112315074Y-96817742D01*
X112372526Y-96875195D01*
X112487431Y-96932647D01*
X112717240Y-96932647D01*
X112832145Y-96875195D01*
X112889598Y-96817742D01*
X112947050Y-96702838D01*
X112947050Y-96415576D01*
X112889598Y-96300671D01*
X112832145Y-96243219D01*
X112717240Y-96185766D01*
X112487431Y-96185766D01*
X112372526Y-96243219D01*
X112315074Y-96300671D01*
X112257621Y-96415576D01*
D13*
X110341288Y-93283816D02*
X110502155Y-93163166D01*
X110663022Y-93283816D01*
X111427138Y-94047933D02*
X111145622Y-93645766D01*
X110944538Y-94047933D02*
X110944538Y-93203383D01*
X111266272Y-93203383D01*
X111346705Y-93243600D01*
X111386922Y-93283816D01*
X111427138Y-93364250D01*
X111427138Y-93484900D01*
X111386922Y-93565333D01*
X111346705Y-93605550D01*
X111266272Y-93645766D01*
X110944538Y-93645766D01*
X112231472Y-94047933D02*
X111748872Y-94047933D01*
X111990172Y-94047933D02*
X111990172Y-93203383D01*
X111909738Y-93324033D01*
X111829305Y-93404466D01*
X111748872Y-93444683D01*
X112955372Y-93484900D02*
X112955372Y-94047933D01*
X112754288Y-93163166D02*
X112553205Y-93766416D01*
X113076022Y-93766416D01*
D12*
X110432353Y-91622838D02*
X110110620Y-91163219D01*
X109880810Y-91622838D02*
X109880810Y-90657638D01*
X110248506Y-90657638D01*
X110340429Y-90703600D01*
X110386391Y-90749561D01*
X110432353Y-90841485D01*
X110432353Y-90979371D01*
X110386391Y-91071295D01*
X110340429Y-91117257D01*
X110248506Y-91163219D01*
X109880810Y-91163219D01*
X111351591Y-91622838D02*
X110800048Y-91622838D01*
X111075820Y-91622838D02*
X111075820Y-90657638D01*
X110983896Y-90795523D01*
X110891972Y-90887447D01*
X110800048Y-90933409D01*
X111673325Y-90657638D02*
X112270829Y-90657638D01*
X111949096Y-91025333D01*
X112086982Y-91025333D01*
X112178906Y-91071295D01*
X112224868Y-91117257D01*
X112270829Y-91209180D01*
X112270829Y-91438990D01*
X112224868Y-91530914D01*
X112178906Y-91576876D01*
X112086982Y-91622838D01*
X111811210Y-91622838D01*
X111719287Y-91576876D01*
X111673325Y-91530914D01*
X112822372Y-90657638D02*
X112822372Y-90887447D01*
X112592563Y-90795523D02*
X112822372Y-90887447D01*
X113052182Y-90795523D01*
X112684487Y-91071295D02*
X112822372Y-90887447D01*
X112960258Y-91071295D01*
D11*
X110648955Y-89312647D02*
X110246788Y-88738123D01*
X109959526Y-89312647D02*
X109959526Y-88106147D01*
X110419145Y-88106147D01*
X110534050Y-88163600D01*
X110591502Y-88221052D01*
X110648955Y-88335957D01*
X110648955Y-88508314D01*
X110591502Y-88623219D01*
X110534050Y-88680671D01*
X110419145Y-88738123D01*
X109959526Y-88738123D01*
X111798002Y-89312647D02*
X111108574Y-89312647D01*
X111453288Y-89312647D02*
X111453288Y-88106147D01*
X111338383Y-88278504D01*
X111223479Y-88393409D01*
X111108574Y-88450861D01*
X112832145Y-88106147D02*
X112602336Y-88106147D01*
X112487431Y-88163600D01*
X112429979Y-88221052D01*
X112315074Y-88393409D01*
X112257621Y-88623219D01*
X112257621Y-89082838D01*
X112315074Y-89197742D01*
X112372526Y-89255195D01*
X112487431Y-89312647D01*
X112717240Y-89312647D01*
X112832145Y-89255195D01*
X112889598Y-89197742D01*
X112947050Y-89082838D01*
X112947050Y-88795576D01*
X112889598Y-88680671D01*
X112832145Y-88623219D01*
X112717240Y-88565766D01*
X112487431Y-88565766D01*
X112372526Y-88623219D01*
X112315074Y-88680671D01*
X112257621Y-88795576D01*
X110648955Y-86772647D02*
X110246788Y-86198123D01*
X109959526Y-86772647D02*
X109959526Y-85566147D01*
X110419145Y-85566147D01*
X110534050Y-85623600D01*
X110591502Y-85681052D01*
X110648955Y-85795957D01*
X110648955Y-85968314D01*
X110591502Y-86083219D01*
X110534050Y-86140671D01*
X110419145Y-86198123D01*
X109959526Y-86198123D01*
X111798002Y-86772647D02*
X111108574Y-86772647D01*
X111453288Y-86772647D02*
X111453288Y-85566147D01*
X111338383Y-85738504D01*
X111223479Y-85853409D01*
X111108574Y-85910861D01*
X112889598Y-85566147D02*
X112315074Y-85566147D01*
X112257621Y-86140671D01*
X112315074Y-86083219D01*
X112429979Y-86025766D01*
X112717240Y-86025766D01*
X112832145Y-86083219D01*
X112889598Y-86140671D01*
X112947050Y-86255576D01*
X112947050Y-86542838D01*
X112889598Y-86657742D01*
X112832145Y-86715195D01*
X112717240Y-86772647D01*
X112429979Y-86772647D01*
X112315074Y-86715195D01*
X112257621Y-86657742D01*
D12*
X109926772Y-83154961D02*
X110110620Y-83017076D01*
X110294468Y-83154961D01*
X111167744Y-84028238D02*
X110846010Y-83568619D01*
X110616201Y-84028238D02*
X110616201Y-83063038D01*
X110983896Y-83063038D01*
X111075820Y-83109000D01*
X111121782Y-83154961D01*
X111167744Y-83246885D01*
X111167744Y-83384771D01*
X111121782Y-83476695D01*
X111075820Y-83522657D01*
X110983896Y-83568619D01*
X110616201Y-83568619D01*
X111535439Y-83154961D02*
X111581401Y-83109000D01*
X111673325Y-83063038D01*
X111903134Y-83063038D01*
X111995058Y-83109000D01*
X112041020Y-83154961D01*
X112086982Y-83246885D01*
X112086982Y-83338809D01*
X112041020Y-83476695D01*
X111489477Y-84028238D01*
X112086982Y-84028238D01*
X113006220Y-84028238D02*
X112454677Y-84028238D01*
X112730448Y-84028238D02*
X112730448Y-83063038D01*
X112638525Y-83200923D01*
X112546601Y-83292847D01*
X112454677Y-83338809D01*
D11*
X111855455Y-81807552D02*
X111740550Y-81750100D01*
X111625645Y-81635195D01*
X111453288Y-81462838D01*
X111338383Y-81405385D01*
X111223479Y-81405385D01*
X111280931Y-81692647D02*
X111166026Y-81635195D01*
X111051121Y-81520290D01*
X110993669Y-81290480D01*
X110993669Y-80888314D01*
X111051121Y-80658504D01*
X111166026Y-80543600D01*
X111280931Y-80486147D01*
X111510740Y-80486147D01*
X111625645Y-80543600D01*
X111740550Y-80658504D01*
X111798002Y-80888314D01*
X111798002Y-81290480D01*
X111740550Y-81520290D01*
X111625645Y-81635195D01*
X111510740Y-81692647D01*
X111280931Y-81692647D01*
X112200169Y-80486147D02*
X112947050Y-80486147D01*
X112544883Y-80945766D01*
X112717240Y-80945766D01*
X112832145Y-81003219D01*
X112889598Y-81060671D01*
X112947050Y-81175576D01*
X112947050Y-81462838D01*
X112889598Y-81577742D01*
X112832145Y-81635195D01*
X112717240Y-81692647D01*
X112372526Y-81692647D01*
X112257621Y-81635195D01*
X112200169Y-81577742D01*
X110648955Y-79152647D02*
X110246788Y-78578123D01*
X109959526Y-79152647D02*
X109959526Y-77946147D01*
X110419145Y-77946147D01*
X110534050Y-78003600D01*
X110591502Y-78061052D01*
X110648955Y-78175957D01*
X110648955Y-78348314D01*
X110591502Y-78463219D01*
X110534050Y-78520671D01*
X110419145Y-78578123D01*
X109959526Y-78578123D01*
X111108574Y-78061052D02*
X111166026Y-78003600D01*
X111280931Y-77946147D01*
X111568193Y-77946147D01*
X111683098Y-78003600D01*
X111740550Y-78061052D01*
X111798002Y-78175957D01*
X111798002Y-78290861D01*
X111740550Y-78463219D01*
X111051121Y-79152647D01*
X111798002Y-79152647D01*
X112544883Y-77946147D02*
X112659788Y-77946147D01*
X112774693Y-78003600D01*
X112832145Y-78061052D01*
X112889598Y-78175957D01*
X112947050Y-78405766D01*
X112947050Y-78693028D01*
X112889598Y-78922838D01*
X112832145Y-79037742D01*
X112774693Y-79095195D01*
X112659788Y-79152647D01*
X112544883Y-79152647D01*
X112429979Y-79095195D01*
X112372526Y-79037742D01*
X112315074Y-78922838D01*
X112257621Y-78693028D01*
X112257621Y-78405766D01*
X112315074Y-78175957D01*
X112372526Y-78061052D01*
X112429979Y-78003600D01*
X112544883Y-77946147D01*
D12*
X110457753Y-76967038D02*
X110136020Y-76507419D01*
X109906210Y-76967038D02*
X109906210Y-76001838D01*
X110273906Y-76001838D01*
X110365829Y-76047800D01*
X110411791Y-76093761D01*
X110457753Y-76185685D01*
X110457753Y-76323571D01*
X110411791Y-76415495D01*
X110365829Y-76461457D01*
X110273906Y-76507419D01*
X109906210Y-76507419D01*
X111376991Y-76967038D02*
X110825448Y-76967038D01*
X111101220Y-76967038D02*
X111101220Y-76001838D01*
X111009296Y-76139723D01*
X110917372Y-76231647D01*
X110825448Y-76277609D01*
X111836610Y-76967038D02*
X112020458Y-76967038D01*
X112112382Y-76921076D01*
X112158344Y-76875114D01*
X112250268Y-76737228D01*
X112296229Y-76553380D01*
X112296229Y-76185685D01*
X112250268Y-76093761D01*
X112204306Y-76047800D01*
X112112382Y-76001838D01*
X111928534Y-76001838D01*
X111836610Y-76047800D01*
X111790648Y-76093761D01*
X111744687Y-76185685D01*
X111744687Y-76415495D01*
X111790648Y-76507419D01*
X111836610Y-76553380D01*
X111928534Y-76599342D01*
X112112382Y-76599342D01*
X112204306Y-76553380D01*
X112250268Y-76507419D01*
X112296229Y-76415495D01*
X112847772Y-76001838D02*
X112847772Y-76231647D01*
X112617963Y-76139723D02*
X112847772Y-76231647D01*
X113077582Y-76139723D01*
X112709887Y-76415495D02*
X112847772Y-76231647D01*
X112985658Y-76415495D01*
D11*
X118839850Y-79968471D02*
X118437683Y-79968471D01*
X118437683Y-80600447D02*
X118437683Y-79393947D01*
X119012207Y-79393947D01*
X119414374Y-80255733D02*
X119988898Y-80255733D01*
X119299469Y-80600447D02*
X119701636Y-79393947D01*
X120103802Y-80600447D01*
X120505969Y-80600447D02*
X120505969Y-79393947D01*
X121195398Y-80600447D01*
X121195398Y-79393947D01*
X134563055Y-84957152D02*
X134448150Y-84899700D01*
X134333245Y-84784795D01*
X134160888Y-84612438D01*
X134045983Y-84554985D01*
X133931079Y-84554985D01*
X133988531Y-84842247D02*
X133873626Y-84784795D01*
X133758721Y-84669890D01*
X133701269Y-84440080D01*
X133701269Y-84037914D01*
X133758721Y-83808104D01*
X133873626Y-83693200D01*
X133988531Y-83635747D01*
X134218340Y-83635747D01*
X134333245Y-83693200D01*
X134448150Y-83808104D01*
X134505602Y-84037914D01*
X134505602Y-84440080D01*
X134448150Y-84669890D01*
X134333245Y-84784795D01*
X134218340Y-84842247D01*
X133988531Y-84842247D01*
X134965221Y-83750652D02*
X135022674Y-83693200D01*
X135137579Y-83635747D01*
X135424840Y-83635747D01*
X135539745Y-83693200D01*
X135597198Y-83750652D01*
X135654650Y-83865557D01*
X135654650Y-83980461D01*
X135597198Y-84152819D01*
X134907769Y-84842247D01*
X135654650Y-84842247D01*
D12*
X129706938Y-79569546D02*
X129247319Y-79891279D01*
X129706938Y-80121089D02*
X128741738Y-80121089D01*
X128741738Y-79753393D01*
X128787700Y-79661470D01*
X128833661Y-79615508D01*
X128925585Y-79569546D01*
X129063471Y-79569546D01*
X129155395Y-79615508D01*
X129201357Y-79661470D01*
X129247319Y-79753393D01*
X129247319Y-80121089D01*
X129706938Y-78650308D02*
X129706938Y-79201851D01*
X129706938Y-78926079D02*
X128741738Y-78926079D01*
X128879623Y-79018003D01*
X128971547Y-79109927D01*
X129017509Y-79201851D01*
X128741738Y-78328574D02*
X128741738Y-77685108D01*
X129706938Y-78098765D01*
X128741738Y-77179527D02*
X128971547Y-77179527D01*
X128879623Y-77409336D02*
X128971547Y-77179527D01*
X128879623Y-76949717D01*
X129155395Y-77317412D02*
X128971547Y-77179527D01*
X129155395Y-77041641D01*
D11*
X124161755Y-81464047D02*
X123759588Y-80889523D01*
X123472326Y-81464047D02*
X123472326Y-80257547D01*
X123931945Y-80257547D01*
X124046850Y-80315000D01*
X124104302Y-80372452D01*
X124161755Y-80487357D01*
X124161755Y-80659714D01*
X124104302Y-80774619D01*
X124046850Y-80832071D01*
X123931945Y-80889523D01*
X123472326Y-80889523D01*
X125310802Y-81464047D02*
X124621374Y-81464047D01*
X124966088Y-81464047D02*
X124966088Y-80257547D01*
X124851183Y-80429904D01*
X124736279Y-80544809D01*
X124621374Y-80602261D01*
X126000231Y-80774619D02*
X125885326Y-80717166D01*
X125827874Y-80659714D01*
X125770421Y-80544809D01*
X125770421Y-80487357D01*
X125827874Y-80372452D01*
X125885326Y-80315000D01*
X126000231Y-80257547D01*
X126230040Y-80257547D01*
X126344945Y-80315000D01*
X126402398Y-80372452D01*
X126459850Y-80487357D01*
X126459850Y-80544809D01*
X126402398Y-80659714D01*
X126344945Y-80717166D01*
X126230040Y-80774619D01*
X126000231Y-80774619D01*
X125885326Y-80832071D01*
X125827874Y-80889523D01*
X125770421Y-81004428D01*
X125770421Y-81234238D01*
X125827874Y-81349142D01*
X125885326Y-81406595D01*
X126000231Y-81464047D01*
X126230040Y-81464047D01*
X126344945Y-81406595D01*
X126402398Y-81349142D01*
X126459850Y-81234238D01*
X126459850Y-81004428D01*
X126402398Y-80889523D01*
X126344945Y-80832071D01*
X126230040Y-80774619D01*
X123798535Y-87662252D02*
X123683630Y-87604800D01*
X123568725Y-87489895D01*
X123396368Y-87317538D01*
X123281463Y-87260085D01*
X123166559Y-87260085D01*
X123224011Y-87547347D02*
X123109106Y-87489895D01*
X122994201Y-87374990D01*
X122936749Y-87145180D01*
X122936749Y-86743014D01*
X122994201Y-86513204D01*
X123109106Y-86398300D01*
X123224011Y-86340847D01*
X123453820Y-86340847D01*
X123568725Y-86398300D01*
X123683630Y-86513204D01*
X123741082Y-86743014D01*
X123741082Y-87145180D01*
X123683630Y-87374990D01*
X123568725Y-87489895D01*
X123453820Y-87547347D01*
X123224011Y-87547347D01*
X124890130Y-87547347D02*
X124200701Y-87547347D01*
X124545416Y-87547347D02*
X124545416Y-86340847D01*
X124430511Y-86513204D01*
X124315606Y-86628109D01*
X124200701Y-86685561D01*
X124370398Y-69018652D02*
X124370398Y-70225152D01*
X124370398Y-69650628D02*
X123680969Y-69650628D01*
X123680969Y-69018652D02*
X123680969Y-70225152D01*
X123106445Y-69018652D02*
X123106445Y-70225152D01*
X122646826Y-70225152D01*
X122531921Y-70167700D01*
X122474469Y-70110247D01*
X122417017Y-69995342D01*
X122417017Y-69822985D01*
X122474469Y-69708080D01*
X122531921Y-69650628D01*
X122646826Y-69593176D01*
X123106445Y-69593176D01*
X122014850Y-70225152D02*
X121727588Y-69018652D01*
X121497779Y-69880438D01*
X121267969Y-69018652D01*
X120980707Y-70225152D01*
X119831660Y-69018652D02*
X120233826Y-69593176D01*
X120521088Y-69018652D02*
X120521088Y-70225152D01*
X120061469Y-70225152D01*
X119946564Y-70167700D01*
X119889112Y-70110247D01*
X119831660Y-69995342D01*
X119831660Y-69822985D01*
X119889112Y-69708080D01*
X119946564Y-69650628D01*
X120061469Y-69593176D01*
X120521088Y-69593176D01*
X118969874Y-68559033D02*
X119027326Y-68616485D01*
X119142231Y-68788842D01*
X119199683Y-68903747D01*
X119257136Y-69076104D01*
X119314588Y-69363366D01*
X119314588Y-69593176D01*
X119257136Y-69880438D01*
X119199683Y-70052795D01*
X119142231Y-70167700D01*
X119027326Y-70340057D01*
X118969874Y-70397509D01*
X118625160Y-70225152D02*
X118337898Y-69018652D01*
X118108088Y-69880438D01*
X117878279Y-69018652D01*
X117591017Y-70225152D01*
X117131398Y-69018652D02*
X117131398Y-70225152D01*
X117131398Y-69650628D02*
X116441969Y-69650628D01*
X116441969Y-69018652D02*
X116441969Y-70225152D01*
X115867445Y-69018652D02*
X115867445Y-70225152D01*
X115465279Y-70225152D02*
X114775850Y-70225152D01*
X115120564Y-69018652D02*
X115120564Y-70225152D01*
X114373683Y-69650628D02*
X113971517Y-69650628D01*
X113799160Y-69018652D02*
X114373683Y-69018652D01*
X114373683Y-70225152D01*
X113799160Y-70225152D01*
X113396993Y-68559033D02*
X113339540Y-68616485D01*
X113224636Y-68788842D01*
X113167183Y-68903747D01*
X113109731Y-69076104D01*
X113052279Y-69363366D01*
X113052279Y-69593176D01*
X113109731Y-69880438D01*
X113167183Y-70052795D01*
X113224636Y-70167700D01*
X113339540Y-70340057D01*
X113396993Y-70397509D01*
X151513563Y-69018652D02*
X151513563Y-70225152D01*
X151513563Y-69650628D02*
X150824135Y-69650628D01*
X150824135Y-69018652D02*
X150824135Y-70225152D01*
X150421968Y-70225152D02*
X149732540Y-70225152D01*
X150077254Y-69018652D02*
X150077254Y-70225152D01*
X149330373Y-69650628D02*
X148928206Y-69650628D01*
X148755849Y-69018652D02*
X149330373Y-69018652D01*
X149330373Y-70225152D01*
X148755849Y-70225152D01*
X148238778Y-69018652D02*
X148238778Y-70225152D01*
X147836611Y-69363366D01*
X147434444Y-70225152D01*
X147434444Y-69018652D01*
X146859920Y-69018652D02*
X146859920Y-70225152D01*
X146400301Y-70225152D01*
X146285397Y-70167700D01*
X146227944Y-70110247D01*
X146170492Y-69995342D01*
X146170492Y-69822985D01*
X146227944Y-69708080D01*
X146285397Y-69650628D01*
X146400301Y-69593176D01*
X146859920Y-69593176D01*
X145308706Y-68559033D02*
X145366159Y-68616485D01*
X145481063Y-68788842D01*
X145538516Y-68903747D01*
X145595968Y-69076104D01*
X145653420Y-69363366D01*
X145653420Y-69593176D01*
X145595968Y-69880438D01*
X145538516Y-70052795D01*
X145481063Y-70167700D01*
X145366159Y-70340057D01*
X145308706Y-70397509D01*
X144849087Y-69018652D02*
X144849087Y-70225152D01*
X144389468Y-70225152D01*
X144274563Y-70167700D01*
X144217111Y-70110247D01*
X144159659Y-69995342D01*
X144159659Y-69822985D01*
X144217111Y-69708080D01*
X144274563Y-69650628D01*
X144389468Y-69593176D01*
X144849087Y-69593176D01*
X143642587Y-69018652D02*
X143642587Y-70225152D01*
X143068063Y-69018652D02*
X143068063Y-70225152D01*
X142378635Y-69018652D01*
X142378635Y-70225152D01*
X141804111Y-69018652D02*
X141804111Y-70225152D01*
X141114682Y-69018652D02*
X141631754Y-69708080D01*
X141114682Y-70225152D02*
X141804111Y-69535723D01*
X140712516Y-68559033D02*
X140655063Y-68616485D01*
X140540159Y-68788842D01*
X140482706Y-68903747D01*
X140425254Y-69076104D01*
X140367801Y-69363366D01*
X140367801Y-69593176D01*
X140425254Y-69880438D01*
X140482706Y-70052795D01*
X140540159Y-70167700D01*
X140655063Y-70340057D01*
X140712516Y-70397509D01*
D14*
X157673121Y-70324333D02*
X157673121Y-68973053D01*
X158445281Y-70324333D01*
X158445281Y-68973053D01*
X159088748Y-70324333D02*
X159088748Y-69423480D01*
X159088748Y-68973053D02*
X159024401Y-69037400D01*
X159088748Y-69101746D01*
X159153095Y-69037400D01*
X159088748Y-68973053D01*
X159088748Y-69101746D01*
X159732215Y-69423480D02*
X159732215Y-70324333D01*
X159732215Y-69552173D02*
X159796561Y-69487826D01*
X159925255Y-69423480D01*
X160118295Y-69423480D01*
X160246988Y-69487826D01*
X160311335Y-69616520D01*
X160311335Y-70324333D01*
X160954801Y-69423480D02*
X160954801Y-70581720D01*
X160890455Y-70710413D01*
X160761761Y-70774760D01*
X160697415Y-70774760D01*
X160954801Y-68973053D02*
X160890455Y-69037400D01*
X160954801Y-69101746D01*
X161019148Y-69037400D01*
X160954801Y-68973053D01*
X160954801Y-69101746D01*
X162177388Y-70324333D02*
X162177388Y-69616520D01*
X162113041Y-69487826D01*
X161984348Y-69423480D01*
X161726961Y-69423480D01*
X161598268Y-69487826D01*
X162177388Y-70259986D02*
X162048695Y-70324333D01*
X161726961Y-70324333D01*
X161598268Y-70259986D01*
X161533921Y-70131293D01*
X161533921Y-70002600D01*
X161598268Y-69873906D01*
X161726961Y-69809560D01*
X162048695Y-69809560D01*
X162177388Y-69745213D01*
X162820855Y-70324333D02*
X162820855Y-68973053D01*
X163335628Y-68973053D01*
X163464321Y-69037400D01*
X163528668Y-69101746D01*
X163593015Y-69230440D01*
X163593015Y-69423480D01*
X163528668Y-69552173D01*
X163464321Y-69616520D01*
X163335628Y-69680866D01*
X162820855Y-69680866D01*
X164944295Y-70195640D02*
X164879948Y-70259986D01*
X164686908Y-70324333D01*
X164558215Y-70324333D01*
X164365175Y-70259986D01*
X164236481Y-70131293D01*
X164172135Y-70002600D01*
X164107788Y-69745213D01*
X164107788Y-69552173D01*
X164172135Y-69294786D01*
X164236481Y-69166093D01*
X164365175Y-69037400D01*
X164558215Y-68973053D01*
X164686908Y-68973053D01*
X164879948Y-69037400D01*
X164944295Y-69101746D01*
X165973841Y-69616520D02*
X166166881Y-69680866D01*
X166231228Y-69745213D01*
X166295575Y-69873906D01*
X166295575Y-70066946D01*
X166231228Y-70195640D01*
X166166881Y-70259986D01*
X166038188Y-70324333D01*
X165523415Y-70324333D01*
X165523415Y-68973053D01*
X165973841Y-68973053D01*
X166102535Y-69037400D01*
X166166881Y-69101746D01*
X166231228Y-69230440D01*
X166231228Y-69359133D01*
X166166881Y-69487826D01*
X166102535Y-69552173D01*
X165973841Y-69616520D01*
X165523415Y-69616520D01*
X167775548Y-69423480D02*
X168097281Y-70324333D01*
X168419015Y-69423480D01*
X169448561Y-70259986D02*
X169319868Y-70324333D01*
X169062481Y-70324333D01*
X168933788Y-70259986D01*
X168869441Y-70131293D01*
X168869441Y-69616520D01*
X168933788Y-69487826D01*
X169062481Y-69423480D01*
X169319868Y-69423480D01*
X169448561Y-69487826D01*
X169512908Y-69616520D01*
X169512908Y-69745213D01*
X168869441Y-69873906D01*
X170092028Y-70324333D02*
X170092028Y-69423480D01*
X170092028Y-69680866D02*
X170156375Y-69552173D01*
X170220721Y-69487826D01*
X170349415Y-69423480D01*
X170478108Y-69423480D01*
X170864188Y-69101746D02*
X170928535Y-69037400D01*
X171057228Y-68973053D01*
X171378961Y-68973053D01*
X171507655Y-69037400D01*
X171572001Y-69101746D01*
X171636348Y-69230440D01*
X171636348Y-69359133D01*
X171572001Y-69552173D01*
X170799841Y-70324333D01*
X171636348Y-70324333D01*
X172215468Y-70195640D02*
X172279815Y-70259986D01*
X172215468Y-70324333D01*
X172151121Y-70259986D01*
X172215468Y-70195640D01*
X172215468Y-70324333D01*
X172794588Y-69101746D02*
X172858935Y-69037400D01*
X172987628Y-68973053D01*
X173309361Y-68973053D01*
X173438055Y-69037400D01*
X173502401Y-69101746D01*
X173566748Y-69230440D01*
X173566748Y-69359133D01*
X173502401Y-69552173D01*
X172730241Y-70324333D01*
X173566748Y-70324333D01*
D11*
X154317602Y-80422647D02*
X153915436Y-79848123D01*
X153628174Y-80422647D02*
X153628174Y-79216147D01*
X154087793Y-79216147D01*
X154202698Y-79273600D01*
X154260150Y-79331052D01*
X154317602Y-79445957D01*
X154317602Y-79618314D01*
X154260150Y-79733219D01*
X154202698Y-79790671D01*
X154087793Y-79848123D01*
X153628174Y-79848123D01*
X155466650Y-80422647D02*
X154777221Y-80422647D01*
X155121936Y-80422647D02*
X155121936Y-79216147D01*
X155007031Y-79388504D01*
X154892126Y-79503409D01*
X154777221Y-79560861D01*
X154317602Y-86975847D02*
X153915436Y-86401323D01*
X153628174Y-86975847D02*
X153628174Y-85769347D01*
X154087793Y-85769347D01*
X154202698Y-85826800D01*
X154260150Y-85884252D01*
X154317602Y-85999157D01*
X154317602Y-86171514D01*
X154260150Y-86286419D01*
X154202698Y-86343871D01*
X154087793Y-86401323D01*
X153628174Y-86401323D01*
X155007031Y-86286419D02*
X154892126Y-86228966D01*
X154834674Y-86171514D01*
X154777221Y-86056609D01*
X154777221Y-85999157D01*
X154834674Y-85884252D01*
X154892126Y-85826800D01*
X155007031Y-85769347D01*
X155236840Y-85769347D01*
X155351745Y-85826800D01*
X155409198Y-85884252D01*
X155466650Y-85999157D01*
X155466650Y-86056609D01*
X155409198Y-86171514D01*
X155351745Y-86228966D01*
X155236840Y-86286419D01*
X155007031Y-86286419D01*
X154892126Y-86343871D01*
X154834674Y-86401323D01*
X154777221Y-86516228D01*
X154777221Y-86746038D01*
X154834674Y-86860942D01*
X154892126Y-86918395D01*
X155007031Y-86975847D01*
X155236840Y-86975847D01*
X155351745Y-86918395D01*
X155409198Y-86860942D01*
X155466650Y-86746038D01*
X155466650Y-86516228D01*
X155409198Y-86401323D01*
X155351745Y-86343871D01*
X155236840Y-86286419D01*
D12*
X160186938Y-79455415D02*
X159727319Y-79777148D01*
X160186938Y-80006958D02*
X159221738Y-80006958D01*
X159221738Y-79639263D01*
X159267700Y-79547339D01*
X159313661Y-79501377D01*
X159405585Y-79455415D01*
X159543471Y-79455415D01*
X159635395Y-79501377D01*
X159681357Y-79547339D01*
X159727319Y-79639263D01*
X159727319Y-80006958D01*
X159313661Y-79087720D02*
X159267700Y-79041758D01*
X159221738Y-78949834D01*
X159221738Y-78720025D01*
X159267700Y-78628101D01*
X159313661Y-78582139D01*
X159405585Y-78536177D01*
X159497509Y-78536177D01*
X159635395Y-78582139D01*
X160186938Y-79133682D01*
X160186938Y-78536177D01*
X159313661Y-78168482D02*
X159267700Y-78122520D01*
X159221738Y-78030596D01*
X159221738Y-77800787D01*
X159267700Y-77708863D01*
X159313661Y-77662901D01*
X159405585Y-77616939D01*
X159497509Y-77616939D01*
X159635395Y-77662901D01*
X160186938Y-78214444D01*
X160186938Y-77616939D01*
X159221738Y-77065396D02*
X159451547Y-77065396D01*
X159359623Y-77295206D02*
X159451547Y-77065396D01*
X159359623Y-76835587D01*
X159635395Y-77203282D02*
X159451547Y-77065396D01*
X159635395Y-76927510D01*
D11*
X160060542Y-83183869D02*
X160117995Y-83241321D01*
X160175447Y-83413679D01*
X160175447Y-83528583D01*
X160117995Y-83700940D01*
X160003090Y-83815845D01*
X159888185Y-83873298D01*
X159658376Y-83930750D01*
X159486019Y-83930750D01*
X159256209Y-83873298D01*
X159141304Y-83815845D01*
X159026400Y-83700940D01*
X158968947Y-83528583D01*
X158968947Y-83413679D01*
X159026400Y-83241321D01*
X159083852Y-83183869D01*
X158968947Y-82092274D02*
X158968947Y-82666798D01*
X159543471Y-82724250D01*
X159486019Y-82666798D01*
X159428566Y-82551893D01*
X159428566Y-82264631D01*
X159486019Y-82149726D01*
X159543471Y-82092274D01*
X159658376Y-82034821D01*
X159945638Y-82034821D01*
X160060542Y-82092274D01*
X160117995Y-82149726D01*
X160175447Y-82264631D01*
X160175447Y-82551893D01*
X160117995Y-82666798D01*
X160060542Y-82724250D01*
D15*
%TO.C,HEATER_POWER1*%
X129907500Y-70081200D02*
X130161500Y-70335200D01*
X130415500Y-70081200D02*
X129907500Y-70081200D01*
X130161500Y-70335200D02*
X130415500Y-70081200D01*
X130161500Y-69446200D02*
X130161500Y-70335200D01*
X126402300Y-70081200D02*
X126656300Y-70335200D01*
X126910300Y-70081200D02*
X126402300Y-70081200D01*
X126656300Y-70335200D02*
X126910300Y-70081200D01*
X126656300Y-69446200D02*
X126656300Y-70335200D01*
X131638900Y-72722800D02*
G75*
G03*
X131638900Y-72722800I-1500000J0D01*
G01*
X128178900Y-72722800D02*
G75*
G03*
X128178900Y-72722800I-1500000J0D01*
G01*
X124908900Y-74822800D02*
X131908900Y-74822800D01*
X124908900Y-70622800D02*
X131908900Y-70622800D01*
X124908900Y-70622800D02*
X124908900Y-69222800D01*
X124908900Y-74822800D02*
X124908900Y-70622800D01*
X124908900Y-76222800D02*
X124908900Y-74822800D01*
X131908900Y-76222800D02*
X124908900Y-76222800D01*
X131908900Y-74822800D02*
X131908900Y-76222800D01*
X131908900Y-70622800D02*
X131908900Y-74822800D01*
X131908900Y-69222800D02*
X131908900Y-70622800D01*
X124908900Y-69222800D02*
X131908900Y-69222800D01*
%TO.C,HEATER_TEMP1*%
X137907500Y-70081200D02*
X138161500Y-70335200D01*
X138415500Y-70081200D02*
X137907500Y-70081200D01*
X138161500Y-70335200D02*
X138415500Y-70081200D01*
X138161500Y-69446200D02*
X138161500Y-70335200D01*
X134402300Y-70081200D02*
X134656300Y-70335200D01*
X134910300Y-70081200D02*
X134402300Y-70081200D01*
X134656300Y-70335200D02*
X134910300Y-70081200D01*
X134656300Y-69446200D02*
X134656300Y-70335200D01*
X139638900Y-72722800D02*
G75*
G03*
X139638900Y-72722800I-1500000J0D01*
G01*
X136178900Y-72722800D02*
G75*
G03*
X136178900Y-72722800I-1500000J0D01*
G01*
X132908900Y-74822800D02*
X139908900Y-74822800D01*
X132908900Y-70622800D02*
X139908900Y-70622800D01*
X132908900Y-70622800D02*
X132908900Y-69222800D01*
X132908900Y-74822800D02*
X132908900Y-70622800D01*
X132908900Y-76222800D02*
X132908900Y-74822800D01*
X139908900Y-76222800D02*
X132908900Y-76222800D01*
X139908900Y-74822800D02*
X139908900Y-76222800D01*
X139908900Y-70622800D02*
X139908900Y-74822800D01*
X139908900Y-69222800D02*
X139908900Y-70622800D01*
X132908900Y-69222800D02*
X139908900Y-69222800D01*
D16*
%TO.C,FAN1*%
X122098500Y-71508000D02*
X122098500Y-79128000D01*
X122098500Y-71508000D02*
X124003500Y-71508000D01*
X117653500Y-71508000D02*
X122098500Y-71508000D01*
X117653500Y-79128000D02*
X117653500Y-71508000D01*
X122098500Y-79128000D02*
X117653500Y-79128000D01*
X124003500Y-79128000D02*
X122098500Y-79128000D01*
X124003500Y-71508000D02*
X124003500Y-79128000D01*
D17*
%TO.C,REG1*%
X149083100Y-104110800D02*
X155637100Y-104110800D01*
X149083100Y-107666800D02*
X149083100Y-104110800D01*
X155637100Y-107666800D02*
X149083100Y-107666800D01*
X155637100Y-104110800D02*
X155637100Y-107666800D01*
D15*
%TO.C,C4*%
X151560000Y-99508200D02*
X151560000Y-100016200D01*
X151814000Y-99762200D02*
X151306000Y-99762200D01*
D11*
X153338000Y-98365200D02*
X153338000Y-101159200D01*
X148893000Y-98365200D02*
X153338000Y-98365200D01*
X148893000Y-101159200D02*
X148893000Y-98365200D01*
X153338000Y-101159200D02*
X148893000Y-101159200D01*
D16*
%TO.C,C3*%
X148726900Y-122999200D02*
X154226900Y-122999200D01*
X141226900Y-122999200D02*
X146726900Y-122999200D01*
X146726900Y-123999200D02*
X141226900Y-123999200D01*
X154226900Y-123999200D02*
X148726900Y-123999200D01*
X152226900Y-110999200D02*
X154226900Y-112999200D01*
X148726900Y-110999200D02*
X152226900Y-110999200D01*
X143226900Y-110999200D02*
X146726900Y-110999200D01*
X141226900Y-112999200D02*
X143226900Y-110999200D01*
X141226900Y-122999200D02*
X141226900Y-123999200D01*
X141226900Y-112999200D02*
X141226900Y-122999200D01*
X154226900Y-122999200D02*
X154226900Y-112999200D01*
X154226900Y-123999200D02*
X154226900Y-122999200D01*
D15*
%TO.C,IC2*%
X142089918Y-88664200D02*
G75*
G03*
X142089918Y-88664200I-824618J0D01*
G01*
X140115300Y-87514200D02*
X144015300Y-87514200D01*
X140115300Y-97414200D02*
X140115300Y-87514200D01*
X144015300Y-97414200D02*
X140115300Y-97414200D01*
X144015300Y-87514200D02*
X144015300Y-97414200D01*
%TO.C,RD1*%
X140878100Y-86766600D02*
X140878100Y-85496600D01*
X143672100Y-86766600D02*
X140878100Y-86766600D01*
X143672100Y-85496600D02*
X143672100Y-86766600D01*
X140878100Y-85496600D02*
X143672100Y-85496600D01*
%TO.C,RD2*%
X143672100Y-82956600D02*
X143672100Y-84226600D01*
X140878100Y-82956600D02*
X143672100Y-82956600D01*
X140878100Y-84226600D02*
X140878100Y-82956600D01*
X143672100Y-84226600D02*
X140878100Y-84226600D01*
%TO.C,C1*%
X138492300Y-96409400D02*
X137222300Y-96409400D01*
X138492300Y-93615400D02*
X138492300Y-96409400D01*
X137222300Y-93615400D02*
X138492300Y-93615400D01*
X137222300Y-96409400D02*
X137222300Y-93615400D01*
%TO.C,RT1*%
X140878100Y-74066600D02*
X140878100Y-72796600D01*
X143672100Y-74066600D02*
X140878100Y-74066600D01*
X143672100Y-72796600D02*
X143672100Y-74066600D01*
X140878100Y-72796600D02*
X143672100Y-72796600D01*
%TO.C,RL2*%
X140878100Y-79146600D02*
X140878100Y-77876600D01*
X143672100Y-79146600D02*
X140878100Y-79146600D01*
X143672100Y-77876600D02*
X143672100Y-79146600D01*
X140878100Y-77876600D02*
X143672100Y-77876600D01*
%TO.C,RH1*%
X143672100Y-75336600D02*
X143672100Y-76606600D01*
X140878100Y-75336600D02*
X143672100Y-75336600D01*
X140878100Y-76606600D02*
X140878100Y-75336600D01*
X143672100Y-76606600D02*
X140878100Y-76606600D01*
%TO.C,R1*%
X155610100Y-80569000D02*
X155610100Y-79299000D01*
X158404100Y-80569000D02*
X155610100Y-80569000D01*
X158404100Y-79299000D02*
X158404100Y-80569000D01*
X155610100Y-79299000D02*
X158404100Y-79299000D01*
%TO.C,R19*%
X113192100Y-76606600D02*
X113192100Y-75336600D01*
X115986100Y-76606600D02*
X113192100Y-76606600D01*
X115986100Y-75336600D02*
X115986100Y-76606600D01*
X113192100Y-75336600D02*
X115986100Y-75336600D01*
%TO.C,R17*%
X127416100Y-77216200D02*
X128686100Y-77216200D01*
X127416100Y-80010200D02*
X127416100Y-77216200D01*
X128686100Y-80010200D02*
X127416100Y-80010200D01*
X128686100Y-77216200D02*
X128686100Y-80010200D01*
%TO.C,R8*%
X155610100Y-87122200D02*
X155610100Y-85852200D01*
X158404100Y-87122200D02*
X155610100Y-87122200D01*
X158404100Y-85852200D02*
X158404100Y-87122200D01*
X155610100Y-85852200D02*
X158404100Y-85852200D01*
D18*
%TO.C,WELL_TEMP1*%
G36*
X150530100Y-85424600D02*
G01*
X151292100Y-85424600D01*
X151292100Y-84408600D01*
X150530100Y-84408600D01*
X150530100Y-85424600D01*
G37*
G36*
X147990100Y-85424600D02*
G01*
X148752100Y-85424600D01*
X148752100Y-84408600D01*
X147990100Y-84408600D01*
X147990100Y-85424600D01*
G37*
G36*
X150530100Y-81868600D02*
G01*
X151292100Y-81868600D01*
X151292100Y-81360600D01*
X150530100Y-81360600D01*
X150530100Y-81868600D01*
G37*
G36*
X147990100Y-81868600D02*
G01*
X148752100Y-81868600D01*
X148752100Y-81360600D01*
X147990100Y-81360600D01*
X147990100Y-81868600D01*
G37*
D19*
X150911100Y-75518600D02*
X150911100Y-81233600D01*
D20*
X152181100Y-81868600D02*
X149641100Y-81868600D01*
X152181100Y-84408600D02*
X152181100Y-81868600D01*
X149641100Y-84408600D02*
X152181100Y-84408600D01*
D19*
X148371100Y-75518600D02*
X148371100Y-81233600D01*
D20*
X147101100Y-81868600D02*
X147101100Y-84408600D01*
X149641100Y-81868600D02*
X147101100Y-81868600D01*
X149641100Y-84408600D02*
X149641100Y-81868600D01*
X147101100Y-84408600D02*
X149641100Y-84408600D01*
D15*
%TO.C,JACK1*%
X119201100Y-134103600D02*
X109001100Y-134103600D01*
X119201100Y-125103600D02*
X119201100Y-134103600D01*
X109001100Y-125103600D02*
X119201100Y-125103600D01*
%TO.C,R2*%
X155610100Y-74015800D02*
X155610100Y-72745800D01*
X158404100Y-74015800D02*
X155610100Y-74015800D01*
X158404100Y-72745800D02*
X158404100Y-74015800D01*
X155610100Y-72745800D02*
X158404100Y-72745800D01*
%TO.C,R7*%
X155610100Y-93675400D02*
X155610100Y-92405400D01*
X158404100Y-93675400D02*
X155610100Y-93675400D01*
X158404100Y-92405400D02*
X158404100Y-93675400D01*
X155610100Y-92405400D02*
X158404100Y-92405400D01*
%TO.C,R18*%
X126146100Y-80010200D02*
X124876100Y-80010200D01*
X126146100Y-77216200D02*
X126146100Y-80010200D01*
X124876100Y-77216200D02*
X126146100Y-77216200D01*
X124876100Y-80010200D02*
X124876100Y-77216200D01*
%TO.C,R20*%
X113192100Y-79146600D02*
X113192100Y-77876600D01*
X115986100Y-79146600D02*
X113192100Y-79146600D01*
X115986100Y-77876600D02*
X115986100Y-79146600D01*
X113192100Y-77876600D02*
X115986100Y-77876600D01*
%TO.C,R13*%
X113192100Y-91846600D02*
X113192100Y-90576600D01*
X115986100Y-91846600D02*
X113192100Y-91846600D01*
X115986100Y-90576600D02*
X115986100Y-91846600D01*
X113192100Y-90576600D02*
X115986100Y-90576600D01*
%TO.C,R15*%
X113192100Y-86766600D02*
X113192100Y-85496600D01*
X115986100Y-86766600D02*
X113192100Y-86766600D01*
X115986100Y-85496600D02*
X115986100Y-86766600D01*
X113192100Y-85496600D02*
X115986100Y-85496600D01*
%TO.C,R16*%
X113192100Y-89306600D02*
X113192100Y-88036600D01*
X115986100Y-89306600D02*
X113192100Y-89306600D01*
X115986100Y-88036600D02*
X115986100Y-89306600D01*
X113192100Y-88036600D02*
X115986100Y-88036600D01*
%TO.C,RELAY1*%
X142056100Y-98277800D02*
G75*
G03*
X142056100Y-98277800I-508000J0D01*
G01*
X124380300Y-98265000D02*
X140580300Y-98265000D01*
X124380300Y-122065000D02*
X124380300Y-98265000D01*
X140580300Y-122065000D02*
X124380300Y-122065000D01*
X140580300Y-98265000D02*
X140580300Y-122065000D01*
%TO.C,D1*%
X118874700Y-98412800D02*
X118874700Y-98712800D01*
X118874700Y-101012800D02*
X118874700Y-100712800D01*
X123174700Y-101012800D02*
X123174700Y-100712800D01*
X123174700Y-98412800D02*
X123174700Y-98712800D01*
X123169700Y-101062800D02*
X118879700Y-101062800D01*
X118879700Y-98362800D02*
X123169700Y-98362800D01*
D18*
G36*
X120643700Y-98950800D02*
G01*
X121532700Y-99712800D01*
X120643700Y-100474800D01*
X120643700Y-98950800D01*
G37*
D15*
%TO.C,D2*%
X132791900Y-126928600D02*
X132791900Y-126628600D01*
X132791900Y-124328600D02*
X132791900Y-124628600D01*
X128491900Y-124328600D02*
X128491900Y-124628600D01*
X128491900Y-126928600D02*
X128491900Y-126628600D01*
X128496900Y-124278600D02*
X132786900Y-124278600D01*
X132786900Y-126978600D02*
X128496900Y-126978600D01*
D18*
G36*
X131022900Y-126390600D02*
G01*
X130133900Y-125628600D01*
X131022900Y-124866600D01*
X131022900Y-126390600D01*
G37*
D15*
%TO.C,R11*%
X112684100Y-98704600D02*
X113954100Y-98704600D01*
X112684100Y-101498600D02*
X112684100Y-98704600D01*
X113954100Y-101498600D02*
X112684100Y-101498600D01*
X113954100Y-98704600D02*
X113954100Y-101498600D01*
%TO.C,R12*%
X139887500Y-125323800D02*
X138617500Y-125323800D01*
X139887500Y-122529800D02*
X139887500Y-125323800D01*
X138617500Y-122529800D02*
X139887500Y-122529800D01*
X138617500Y-125323800D02*
X138617500Y-122529800D01*
D21*
%TO.C,ESP1*%
X187921100Y-93805600D02*
X179921100Y-93805600D01*
X187921100Y-76805600D02*
X179921100Y-76805600D01*
X162921100Y-93805600D02*
X163921100Y-93805600D01*
X162921100Y-93805600D02*
X162921100Y-91305600D01*
X162921100Y-76805600D02*
X162921100Y-79305600D01*
X163921100Y-76805600D02*
X162921100Y-76805600D01*
X187921100Y-76805600D02*
X187921100Y-93805600D01*
D15*
%TO.C,R4*%
X155610100Y-78384600D02*
X155610100Y-77114600D01*
X158404100Y-78384600D02*
X155610100Y-78384600D01*
X158404100Y-77114600D02*
X158404100Y-78384600D01*
X155610100Y-77114600D02*
X158404100Y-77114600D01*
%TO.C,R5*%
X158404100Y-88036600D02*
X158404100Y-89306600D01*
X155610100Y-88036600D02*
X158404100Y-88036600D01*
X155610100Y-89306600D02*
X155610100Y-88036600D01*
X158404100Y-89306600D02*
X155610100Y-89306600D01*
%TO.C,R6*%
X155610100Y-91491000D02*
X155610100Y-90221000D01*
X158404100Y-91491000D02*
X155610100Y-91491000D01*
X158404100Y-90221000D02*
X158404100Y-91491000D01*
X155610100Y-90221000D02*
X158404100Y-90221000D01*
%TO.C,R3*%
X155610100Y-76200200D02*
X155610100Y-74930200D01*
X158404100Y-76200200D02*
X155610100Y-76200200D01*
X158404100Y-74930200D02*
X158404100Y-76200200D01*
X155610100Y-74930200D02*
X158404100Y-74930200D01*
%TO.C,CP1*%
X165563100Y-74473200D02*
X165563100Y-75743200D01*
X162769100Y-74473200D02*
X165563100Y-74473200D01*
X162769100Y-75743200D02*
X162769100Y-74473200D01*
X165563100Y-75743200D02*
X162769100Y-75743200D01*
%TO.C,RL1*%
X140878100Y-81686600D02*
X140878100Y-80416600D01*
X143672100Y-81686600D02*
X140878100Y-81686600D01*
X143672100Y-80416600D02*
X143672100Y-81686600D01*
X140878100Y-80416600D02*
X143672100Y-80416600D01*
%TO.C,C2*%
X135620300Y-90307100D02*
X136128300Y-90307100D01*
X135874300Y-90053100D02*
X135874300Y-90561100D01*
D11*
X134477300Y-88529100D02*
X137271300Y-88529100D01*
X134477300Y-92974100D02*
X134477300Y-88529100D01*
X137271300Y-92974100D02*
X134477300Y-92974100D01*
X137271300Y-88529100D02*
X137271300Y-92974100D01*
D15*
%TO.C,ESP2*%
X182277100Y-102103600D02*
X182277100Y-120103600D01*
X182277100Y-102103600D02*
X168077100Y-102103600D01*
X188077100Y-102103600D02*
X182277100Y-102103600D01*
X188077100Y-120103600D02*
X188077100Y-102103600D01*
X182277100Y-120103600D02*
X188077100Y-120103600D01*
X168077100Y-120103600D02*
X182277100Y-120103600D01*
X168077100Y-102103600D02*
X168077100Y-120103600D01*
%TO.C,CP2*%
X181178500Y-100815600D02*
X181178500Y-99545600D01*
X183972500Y-100815600D02*
X181178500Y-100815600D01*
X183972500Y-99545600D02*
X183972500Y-100815600D01*
X181178500Y-99545600D02*
X183972500Y-99545600D01*
%TO.C,R10*%
X158404100Y-83667800D02*
X158404100Y-84937800D01*
X155610100Y-83667800D02*
X158404100Y-83667800D01*
X155610100Y-84937800D02*
X155610100Y-83667800D01*
X158404100Y-84937800D02*
X155610100Y-84937800D01*
%TO.C,Q4*%
X116748100Y-98641100D02*
X115859100Y-98641100D01*
X116748100Y-99403100D02*
X116748100Y-98641100D01*
X116748100Y-101562100D02*
X116748100Y-100800100D01*
X115859100Y-101562100D02*
X116748100Y-101562100D01*
X115478100Y-99911100D02*
X115478100Y-100292100D01*
%TO.C,Q5*%
X135544100Y-127089100D02*
X136433100Y-127089100D01*
X135544100Y-126327100D02*
X135544100Y-127089100D01*
X135544100Y-124168100D02*
X135544100Y-124930100D01*
X136433100Y-124168100D02*
X135544100Y-124168100D01*
X136814100Y-125819100D02*
X136814100Y-125438100D01*
%TO.C,Q6*%
X115224100Y-94831100D02*
X114335100Y-94831100D01*
X115224100Y-95593100D02*
X115224100Y-94831100D01*
X115224100Y-97752100D02*
X115224100Y-96990100D01*
X114335100Y-97752100D02*
X115224100Y-97752100D01*
X113954100Y-96101100D02*
X113954100Y-96482100D01*
%TO.C,Q2*%
X135679500Y-80408100D02*
X134790500Y-80408100D01*
X135679500Y-81170100D02*
X135679500Y-80408100D01*
X135679500Y-83329100D02*
X135679500Y-82567100D01*
X134790500Y-83329100D02*
X135679500Y-83329100D01*
X134409500Y-81678100D02*
X134409500Y-82059100D01*
%TO.C,Q3*%
X115224100Y-79591100D02*
X114335100Y-79591100D01*
X115224100Y-80353100D02*
X115224100Y-79591100D01*
X115224100Y-82512100D02*
X115224100Y-81750100D01*
X114335100Y-82512100D02*
X115224100Y-82512100D01*
X113954100Y-80861100D02*
X113954100Y-81242100D01*
%TO.C,HEATSINK1*%
X125304900Y-90909400D02*
G75*
G02*
X125304900Y-87909400I0J1500000D01*
G01*
X117304900Y-81909400D02*
X128304900Y-81909400D01*
X117304900Y-82909400D02*
X117304900Y-81909400D01*
X122304900Y-82909400D02*
X117304900Y-82909400D01*
X122304900Y-95909400D02*
X122304900Y-82909400D01*
X117304900Y-95909400D02*
X122304900Y-95909400D01*
X117304900Y-96909400D02*
X117304900Y-95909400D01*
X128304900Y-96909400D02*
X117304900Y-96909400D01*
X128304900Y-95909400D02*
X128304900Y-96909400D01*
X124304900Y-95909400D02*
X128304900Y-95909400D01*
X124304900Y-94909400D02*
X124304900Y-95909400D01*
X128304900Y-94909400D02*
X124304900Y-94909400D01*
X128304900Y-93909400D02*
X128304900Y-94909400D01*
X124304900Y-93909400D02*
X128304900Y-93909400D01*
X124304900Y-92909400D02*
X124304900Y-93909400D01*
X128304900Y-92909400D02*
X124304900Y-92909400D01*
X128304900Y-91909400D02*
X128304900Y-92909400D01*
X126804900Y-91909400D02*
X128304900Y-91909400D01*
X126804900Y-90909400D02*
X126804900Y-91909400D01*
X125304900Y-90909400D02*
X126804900Y-90909400D01*
X126804900Y-87909400D02*
X125304900Y-87909400D01*
X126804900Y-86909400D02*
X126804900Y-87909400D01*
X128304900Y-86909400D02*
X126804900Y-86909400D01*
X128304900Y-85909400D02*
X128304900Y-86909400D01*
X124804900Y-85909400D02*
X128304900Y-85909400D01*
X124804900Y-84909400D02*
X124804900Y-85909400D01*
X128304900Y-84909400D02*
X124804900Y-84909400D01*
X128304900Y-83909400D02*
X128304900Y-84909400D01*
X124804900Y-83909400D02*
X128304900Y-83909400D01*
X124804900Y-82909400D02*
X124804900Y-83909400D01*
X128304900Y-82909400D02*
X124804900Y-82909400D01*
X128304900Y-81909400D02*
X128304900Y-82909400D01*
D18*
%TO.C,Q1*%
G36*
X121034900Y-92838400D02*
G01*
X121034900Y-94743400D01*
X121542900Y-94743400D01*
X121542900Y-92838400D01*
X121034900Y-92838400D01*
G37*
G36*
X121034900Y-90298400D02*
G01*
X121034900Y-91060400D01*
X121542900Y-91060400D01*
X121542900Y-90298400D01*
X121034900Y-90298400D01*
G37*
G36*
X121034900Y-87758400D02*
G01*
X121034900Y-88520400D01*
X121542900Y-88520400D01*
X121542900Y-87758400D01*
X121034900Y-87758400D01*
G37*
G36*
X121034900Y-84075400D02*
G01*
X121034900Y-85980400D01*
X121542900Y-85980400D01*
X121542900Y-84075400D01*
X121034900Y-84075400D01*
G37*
G36*
X121542900Y-84075400D02*
G01*
X121542900Y-94743400D01*
X122304900Y-94743400D01*
X122304900Y-84075400D01*
X121542900Y-84075400D01*
G37*
D16*
X118723500Y-84913600D02*
G75*
G03*
X118723500Y-84913600I-127000J0D01*
G01*
D20*
X118240900Y-84456400D02*
X121161900Y-84329400D01*
X121161900Y-94489400D02*
X118240900Y-94362400D01*
X118240900Y-84456400D02*
X117986900Y-84710400D01*
X117986900Y-94108400D02*
X117986900Y-84710400D01*
X117986900Y-94108400D02*
X118240900Y-94362400D01*
D15*
%TO.C,ESP3*%
X185512606Y-100464600D02*
G75*
G03*
X185512606Y-100464600I-707106J0D01*
G01*
%TO.C,R14*%
X113192100Y-94386600D02*
X113192100Y-93116600D01*
X115986100Y-94386600D02*
X113192100Y-94386600D01*
X115986100Y-93116600D02*
X115986100Y-94386600D01*
X113192100Y-93116600D02*
X115986100Y-93116600D01*
%TO.C,R21*%
X113192100Y-84226600D02*
X113192100Y-82956600D01*
X115986100Y-84226600D02*
X113192100Y-84226600D01*
X115986100Y-82956600D02*
X115986100Y-84226600D01*
X113192100Y-82956600D02*
X115986100Y-82956600D01*
%TO.C,PELTIER1*%
X146274700Y-103891200D02*
X146528700Y-104145200D01*
X146782700Y-103891200D02*
X146274700Y-103891200D01*
X146528700Y-104145200D02*
X146782700Y-103891200D01*
X146528700Y-103256200D02*
X146528700Y-104145200D01*
X142769500Y-103891200D02*
X143023500Y-104145200D01*
X143277500Y-103891200D02*
X142769500Y-103891200D01*
X143023500Y-104145200D02*
X143277500Y-103891200D01*
X143023500Y-103256200D02*
X143023500Y-104145200D01*
X148006100Y-106532800D02*
G75*
G03*
X148006100Y-106532800I-1500000J0D01*
G01*
X144546100Y-106532800D02*
G75*
G03*
X144546100Y-106532800I-1500000J0D01*
G01*
X141276100Y-108632800D02*
X148276100Y-108632800D01*
X141276100Y-104432800D02*
X148276100Y-104432800D01*
X141276100Y-104432800D02*
X141276100Y-103032800D01*
X141276100Y-108632800D02*
X141276100Y-104432800D01*
X141276100Y-110032800D02*
X141276100Y-108632800D01*
X148276100Y-110032800D02*
X141276100Y-110032800D01*
X148276100Y-108632800D02*
X148276100Y-110032800D01*
X148276100Y-104432800D02*
X148276100Y-108632800D01*
X148276100Y-103032800D02*
X148276100Y-104432800D01*
X141276100Y-103032800D02*
X148276100Y-103032800D01*
%TO.C,DIN4*%
X106001100Y-118353600D02*
X110001100Y-118353600D01*
X106001100Y-105653600D02*
X106001100Y-118353600D01*
X110001100Y-105653600D02*
X106001100Y-105653600D01*
X123401100Y-119903600D02*
X110001100Y-119903600D01*
X123401100Y-104103600D02*
X123401100Y-119903600D01*
X110001100Y-104103600D02*
X123401100Y-104103600D01*
X110001100Y-118353600D02*
X110001100Y-119903600D01*
X110001100Y-105653600D02*
X110001100Y-118353600D01*
X110001100Y-104103600D02*
X110001100Y-105653600D01*
%TO.C,R9*%
X158404100Y-81483400D02*
X158404100Y-82753400D01*
X155610100Y-81483400D02*
X158404100Y-81483400D01*
X155610100Y-82753400D02*
X155610100Y-81483400D01*
X158404100Y-82753400D02*
X155610100Y-82753400D01*
D18*
%TO.C,U$1*%
G36*
X177593800Y-72593400D02*
G01*
X177432612Y-72506118D01*
X177301887Y-72377625D01*
X177211843Y-72217963D01*
X177169520Y-72039613D01*
X177178225Y-71856518D01*
X177237278Y-71682988D01*
X177342064Y-71532589D01*
X177484390Y-71417078D01*
X177835100Y-71323400D01*
X177835101Y-71323400D01*
X178011010Y-71350522D01*
X178173533Y-71423086D01*
X178311159Y-71535951D01*
X178414136Y-71681124D01*
X178475172Y-71848318D01*
X178489941Y-72025692D01*
X178457398Y-72200678D01*
X178379848Y-72360883D01*
X178114500Y-72593400D01*
X178508200Y-73584000D01*
X178660600Y-73520500D01*
X178813000Y-73418900D01*
X179321000Y-73774500D01*
X179422600Y-73685600D01*
X179511500Y-73596700D01*
X179613100Y-73482400D01*
X179702000Y-73368100D01*
X179333700Y-72834700D01*
X179422600Y-72682300D01*
X179473400Y-72529900D01*
X179524200Y-72326700D01*
X180146500Y-72212400D01*
X180146500Y-72034600D01*
X180146500Y-71920300D01*
X180133800Y-71780600D01*
X180121100Y-71653600D01*
X179498800Y-71539300D01*
X179448000Y-71374200D01*
X179384500Y-71234500D01*
X179295600Y-71082100D01*
X179282900Y-71056700D01*
X179638500Y-70561400D01*
X179536900Y-70434400D01*
X179409900Y-70307400D01*
X179308300Y-70218500D01*
X179219400Y-70155000D01*
X178698700Y-70523300D01*
X178584400Y-70459800D01*
X178470100Y-70409000D01*
X178355800Y-70358200D01*
X178241500Y-70332800D01*
X178127200Y-69710500D01*
X177974800Y-69697800D01*
X177797000Y-69697800D01*
X177682700Y-69697800D01*
X177555700Y-69710500D01*
X177454100Y-70320100D01*
X177263600Y-70383600D01*
X177136600Y-70434400D01*
X176958800Y-70536000D01*
X176450800Y-70167700D01*
X176336500Y-70256600D01*
X176209500Y-70383600D01*
X176107900Y-70497900D01*
X176044400Y-70561400D01*
X176400000Y-71082100D01*
X176323800Y-71209100D01*
X176247600Y-71374200D01*
X176209500Y-71513900D01*
X176171400Y-71602800D01*
X175549100Y-71704400D01*
X175549100Y-72263200D01*
X176171400Y-72364800D01*
X176222200Y-72542600D01*
X176260300Y-72669600D01*
X176311100Y-72771200D01*
X176400000Y-72923600D01*
X176031700Y-73431600D01*
X176133300Y-73545900D01*
X176222200Y-73634800D01*
X176336500Y-73736400D01*
X176425400Y-73812600D01*
X176946100Y-73457000D01*
X177238200Y-73609400D01*
X177593800Y-72593400D01*
G37*
D15*
%TO.C,R22*%
X161680700Y-80238800D02*
X160410700Y-80238800D01*
X161680700Y-77444800D02*
X161680700Y-80238800D01*
X160410700Y-77444800D02*
X161680700Y-77444800D01*
X160410700Y-80238800D02*
X160410700Y-77444800D01*
%TO.C,C5*%
X161680700Y-84175800D02*
X160410700Y-84175800D01*
X161680700Y-81381800D02*
X161680700Y-84175800D01*
X160410700Y-81381800D02*
X161680700Y-81381800D01*
X160410700Y-84175800D02*
X160410700Y-81381800D01*
%TO.C,IC1*%
X151671843Y-90737000D02*
G75*
G03*
X151671843Y-90737000I-602143J0D01*
G01*
D20*
X150383900Y-91600600D02*
X147386700Y-91600600D01*
X150383900Y-93327800D02*
X150383900Y-91600600D01*
X147386700Y-93327800D02*
X150383900Y-93327800D01*
X147386700Y-91600600D02*
X147386700Y-93327800D01*
%TO.C,@HOLE0*%
D22*
%TO.C,@HOLE1*%
%TO.C,@HOLE2*%
%TO.C,@HOLE3*%
%TO.C,RELAY1*%
D17*
X136175395Y-98028396D02*
X133762395Y-98028396D01*
X136175395Y-96649539D01*
X133762395Y-96649539D01*
X134911442Y-95500491D02*
X134911442Y-94696158D01*
X136175395Y-94351443D02*
X136175395Y-95500491D01*
X133762395Y-95500491D01*
X133762395Y-94351443D01*
X135945585Y-91938443D02*
X136060490Y-92053348D01*
X136175395Y-92398062D01*
X136175395Y-92627872D01*
X136060490Y-92972586D01*
X135830680Y-93202396D01*
X135600871Y-93317300D01*
X135141252Y-93432205D01*
X134796538Y-93432205D01*
X134336919Y-93317300D01*
X134107109Y-93202396D01*
X133877300Y-92972586D01*
X133762395Y-92627872D01*
X133762395Y-92398062D01*
X133877300Y-92053348D01*
X133992204Y-91938443D01*
%TD*%
M02*
