%TF.GenerationSoftware,KiCad,Pcbnew,(5.1.6-0-10_14)*%
%TF.CreationDate,2021-04-16T11:15:05+09:00*%
%TF.ProjectId,NinjaPCB_ver2.2,4e696e6a-6150-4434-925f-766572322e32,rev?*%
%TF.SameCoordinates,Original*%
%TF.FileFunction,Soldermask,Bot*%
%TF.FilePolarity,Negative*%
%FSLAX46Y46*%
G04 Gerber Fmt 4.6, Leading zero omitted, Abs format (unit mm)*
G04 Created by KiCad (PCBNEW (5.1.6-0-10_14)) date 2021-04-16 11:15:05*
%MOMM*%
%LPD*%
G01*
G04 APERTURE LIST*
%ADD10C,3.300000*%
%ADD11C,1.951600*%
%ADD12R,1.951600X1.951600*%
%ADD13O,3.117600X1.609600*%
%ADD14O,2.201600X4.301600*%
%ADD15C,2.006600*%
%ADD16R,2.006600X2.006600*%
%ADD17O,1.625600X3.149600*%
%ADD18C,4.901600*%
%ADD19C,2.951600*%
%ADD20C,1.751600*%
%ADD21C,2.351600*%
%ADD22O,3.149600X1.625600*%
%ADD23C,1.409600*%
%ADD24C,2.100000*%
%ADD25C,3.917600*%
%ADD26C,3.101600*%
%ADD27C,3.317600*%
G04 APERTURE END LIST*
D10*
%TO.C,@HOLE0*%
X112001100Y-138503600D03*
%TD*%
%TO.C,@HOLE1*%
X112001100Y-71503600D03*
%TD*%
%TO.C,@HOLE2*%
X185001100Y-71503600D03*
%TD*%
%TO.C,@HOLE3*%
X185001100Y-138503600D03*
%TD*%
D11*
%TO.C,HEATER_POWER1*%
X130158900Y-72722800D03*
D12*
X126658900Y-72722800D03*
%TD*%
D11*
%TO.C,HEATER_TEMP1*%
X138158900Y-72722800D03*
D12*
X134658900Y-72722800D03*
%TD*%
D13*
%TO.C,FAN1*%
X120828500Y-77858000D03*
X120828500Y-75318000D03*
X120828500Y-72778000D03*
%TD*%
D14*
%TO.C,ATX1*%
X122810300Y-138431000D03*
X127010300Y-138431000D03*
X122810300Y-132931000D03*
X131210300Y-138431000D03*
X135410300Y-138431000D03*
X139610300Y-138431000D03*
X143810300Y-138431000D03*
X148010300Y-138431000D03*
X152210300Y-138431000D03*
X156410300Y-138431000D03*
X160610300Y-138431000D03*
X164810300Y-138431000D03*
X169010300Y-138431000D03*
X127010300Y-132931000D03*
X131210300Y-132931000D03*
X135410300Y-132931000D03*
X139610300Y-132931000D03*
X143810300Y-132931000D03*
X148010300Y-132931000D03*
X152210300Y-132931000D03*
X156410300Y-132931000D03*
X160610300Y-132931000D03*
X164810300Y-132931000D03*
X169010300Y-132931000D03*
%TD*%
D15*
%TO.C,RST1*%
X181842100Y-134686600D03*
X186160100Y-134686600D03*
X186160100Y-127320600D03*
D16*
X181842100Y-127320600D03*
%TD*%
D15*
%TO.C,MODE1*%
X174842100Y-134686600D03*
X179160100Y-134686600D03*
X179160100Y-127320600D03*
D16*
X174842100Y-127320600D03*
%TD*%
D17*
%TO.C,WELL_TEMP1*%
X150911100Y-86313600D03*
X148371100Y-86313600D03*
%TD*%
D18*
%TO.C,JACK1*%
X112391100Y-129403600D03*
X118291100Y-129403600D03*
X115291100Y-134103600D03*
%TD*%
D19*
%TO.C,RELAY1*%
X130280300Y-100065000D03*
X134680300Y-120265000D03*
D20*
X137930300Y-118165000D03*
X137930300Y-113665000D03*
X127030300Y-106665000D03*
X127030300Y-102165000D03*
D21*
X129380300Y-110165000D03*
X138880300Y-110165000D03*
%TD*%
D17*
%TO.C,SERIAL6*%
X147685300Y-128321000D03*
X150225300Y-128321000D03*
X152765300Y-128321000D03*
X155305300Y-128321000D03*
X157845300Y-128321000D03*
X160385300Y-128321000D03*
%TD*%
D21*
%TO.C,HEATSINK1*%
X125304900Y-89409400D03*
%TD*%
D22*
%TO.C,Q1*%
X119764900Y-91949400D03*
X119764900Y-89409400D03*
X119764900Y-86869400D03*
%TD*%
D23*
%TO.C,ESP3*%
X184965500Y-123664600D03*
X182425500Y-123664600D03*
X179885500Y-123664600D03*
X177345500Y-123664600D03*
X174805500Y-123664600D03*
X172265500Y-123664600D03*
X169725500Y-123664600D03*
X167185500Y-123664600D03*
X164645500Y-123664600D03*
X164645500Y-98264600D03*
X167185500Y-98264600D03*
X169725500Y-98264600D03*
X172265500Y-98264600D03*
X174805500Y-98264600D03*
X177345500Y-98264600D03*
X179885500Y-98264600D03*
X182425500Y-98264600D03*
X184965500Y-98264600D03*
%TD*%
D11*
%TO.C,PELTIER1*%
X146526100Y-106532800D03*
D12*
X143026100Y-106532800D03*
%TD*%
D24*
%TO.C,DIN4*%
X113751100Y-114503600D03*
X113751100Y-109503600D03*
D25*
X121801100Y-119703600D03*
X113301100Y-119703600D03*
X113301100Y-104303600D03*
X121801100Y-104303600D03*
D26*
X111701100Y-112003600D03*
D27*
X117101100Y-114503600D03*
X117101100Y-109503600D03*
X120851100Y-114753600D03*
X120851100Y-109253600D03*
%TD*%
D17*
%TO.C,IO0*%
X162925300Y-128321000D03*
X165465300Y-128321000D03*
%TD*%
%TO.C,RESET1*%
X168005300Y-128321000D03*
X170545300Y-128321000D03*
%TD*%
%TO.C,SERIAL4*%
X156575300Y-120193000D03*
X159115300Y-120193000D03*
X161655300Y-120193000D03*
X164195300Y-120193000D03*
%TD*%
M02*
