M48
; DRILL file {KiCad (5.1.6-0-10_14)} date Friday, April 16, 2021 at 11:15:10 AM
; FORMAT={-:-/ absolute / inch / decimal}
; #@! TF.CreationDate,2021-04-16T11:15:10+09:00
; #@! TF.GenerationSoftware,Kicad,Pcbnew,(5.1.6-0-10_14)
FMAT,2
INCH
T1C0.0236
T2C0.0315
T3C0.0394
T4C0.0400
T5C0.0433
T6C0.0450
T7C0.0551
T8C0.0591
T9C0.0748
T10C0.0787
T11C0.0866
T12C0.1102
T13C0.1181
T14C0.0787
T15C0.1260
%
G90
G05
T1
X4.3404Y-2.967
X4.3634Y-3.629
X4.4144Y-3.249
X4.5714Y-3.851
X4.5954Y-3.424
X4.6534Y-2.996
X4.9394Y-4.283
X4.9884Y-2.965
X4.9954Y-3.828
X5.0124Y-3.192
X5.0414Y-3.014
X5.2484Y-4.22
X5.2644Y-4.855
X5.2784Y-2.937
X5.2904Y-3.119
X5.3804Y-3.686
X5.4214Y-3.337
X5.4634Y-4.753
X5.4924Y-2.979
X5.5264Y-4.577
X5.5474Y-4.265
X5.5854Y-4.382
X5.5924Y-3.703
X5.5924Y-3.767
X5.5934Y-3.504
X5.5934Y-3.641
X5.7574Y-3.171
X5.7614Y-3.53
X5.7654Y-2.797
X5.7744Y-4.61
X5.7804Y-3.322
X5.8274Y-3.918
X5.8764Y-3.166
X5.8894Y-3.042
X5.8974Y-3.734
X5.9504Y-4.507
X6.0074Y-4.94
X6.0124Y-3.206
X6.0234Y-2.819
X6.0824Y-3.928
X6.0854Y-3.189
X6.0934Y-4.178
X6.0954Y-3.617
X6.1034Y-3.535
X6.1904Y-3.735
X6.2014Y-4.02
X6.2604Y-3.443
X6.2604Y-3.941
X6.2694Y-3.182
X6.2714Y-3.36
X6.2744Y-2.889
X6.2744Y-2.957
X6.2804Y-3.572
X6.2914Y-4.046
X6.3284Y-4.412
X6.3384Y-4.156
X6.3404Y-3.1815
X6.3434Y-3.369
X6.3534Y-2.957
X6.3594Y-2.89
X6.4394Y-4.072
X6.5204Y-4.344
X6.5254Y-4.575
X6.5474Y-4.069
X6.5524Y-3.325
X6.5704Y-3.784
X6.5794Y-4.369
X6.5814Y-4.232
X6.6024Y-4.317
X6.6034Y-2.898
X6.6284Y-4.198
X6.6324Y-3.126
X6.6464Y-3.52
X6.6554Y-3.209
X6.6764Y-4.217
X6.6854Y-3.126
X6.7224Y-4.178
X6.7244Y-5.34
X6.7264Y-3.452
X6.7274Y-3.811
X6.7344Y-3.395
X6.7524Y-3.281
X6.7624Y-3.235
X6.7754Y-4.225
X6.8094Y-3.508
X6.8104Y-3.565
X6.8114Y-3.45
X6.8144Y-3.371
X6.8364Y-3.317
X6.8584Y-2.819
X6.8834Y-3.126
X6.9674Y-5.145
X6.9764Y-4.373
X7.0694Y-4.168
X7.0814Y-4.558
X7.1094Y-3.959
X7.1174Y-5.445
X7.2274Y-4.813
X7.2634Y-5.149
T2
X6.4821Y-3.8687
X6.4821Y-4.8687
X6.5821Y-3.8687
X6.5821Y-4.8687
X6.6821Y-3.8687
X6.6821Y-4.8687
X6.7821Y-3.8687
X6.7821Y-4.8687
X6.8821Y-3.8687
X6.8821Y-4.8687
X6.9821Y-3.8687
X6.9821Y-4.8687
X7.0821Y-3.8687
X7.0821Y-4.8687
X7.1821Y-3.8687
X7.1821Y-4.8687
X7.2821Y-3.8687
X7.2821Y-4.8687
T3
X4.9866Y-2.8631
X5.1244Y-2.8631
X4.757Y-2.8653
X4.757Y-2.9653
X4.757Y-3.0653
X5.3015Y-2.8631
X5.4393Y-2.8631
X5.6309Y-4.1942
X5.7687Y-4.1942
T4
X6.4144Y-5.052
X6.5144Y-5.052
X6.1644Y-4.732
X6.2644Y-4.732
X6.3644Y-4.732
X6.4644Y-4.732
X4.7152Y-3.4201
X4.7152Y-3.5201
X4.7152Y-3.6201
X5.8414Y-3.3982
X5.9414Y-3.3982
X6.6144Y-5.052
X6.7144Y-5.052
X5.8144Y-5.052
X5.9144Y-5.052
X6.0144Y-5.052
X6.1144Y-5.052
X6.2144Y-5.052
X6.3144Y-5.052
T5
X5.0012Y-4.0222
X5.0012Y-4.1994
X5.4303Y-4.475
X5.4303Y-4.6522
T6
X6.8835Y-5.0126
X6.8835Y-5.3026
X7.0535Y-5.0126
X7.0535Y-5.3026
X7.1591Y-5.0126
X7.1591Y-5.3026
X7.3291Y-5.0126
X7.3291Y-5.3026
T7
X4.8351Y-5.2335
X4.8351Y-5.45
X5.0004Y-5.2335
X5.0004Y-5.45
X5.1658Y-5.2335
X5.1658Y-5.45
X5.3311Y-5.2335
X5.3311Y-5.45
X5.4965Y-5.2335
X5.4965Y-5.45
X5.6618Y-5.2335
X5.6618Y-5.45
X5.8272Y-5.2335
X5.8272Y-5.45
X5.9925Y-5.2335
X5.9925Y-5.45
X6.1579Y-5.2335
X6.1579Y-5.45
X6.3232Y-5.2335
X6.3232Y-5.45
X6.4886Y-5.2335
X6.4886Y-5.45
X6.6539Y-5.2335
X6.6539Y-5.45
T8
X5.0937Y-4.3372
X5.4677Y-4.3372
X4.9333Y-3.5201
T9
X5.1291Y-3.9396
X5.3024Y-4.7348
T10
X4.3977Y-4.4096
T11
X4.6103Y-4.3112
X4.6103Y-4.508
X4.7579Y-4.3013
X4.7579Y-4.5179
T12
X4.4607Y-4.1064
X4.4607Y-4.7127
X4.7953Y-4.1064
X4.7953Y-4.7127
T13
X4.4248Y-5.0946
X4.539Y-5.2797
X4.6571Y-5.0946
T14
X4.4784Y-4.3112
X4.4784Y-4.508
T15
X4.4095Y-5.4529
X4.4095Y-2.8151
X7.2835Y-2.8151
X7.2835Y-5.4529
T0
M30
