%TF.GenerationSoftware,KiCad,Pcbnew,(5.1.6-0-10_14)*%
%TF.CreationDate,2021-04-16T11:15:05+09:00*%
%TF.ProjectId,NinjaPCB_ver2.2,4e696e6a-6150-4434-925f-766572322e32,rev?*%
%TF.SameCoordinates,Original*%
%TF.FileFunction,Legend,Bot*%
%TF.FilePolarity,Positive*%
%FSLAX46Y46*%
G04 Gerber Fmt 4.6, Leading zero omitted, Abs format (unit mm)*
G04 Created by KiCad (PCBNEW (5.1.6-0-10_14)) date 2021-04-16 11:15:05*
%MOMM*%
%LPD*%
G01*
G04 APERTURE LIST*
%ADD10C,0.101600*%
%ADD11C,0.203200*%
%ADD12C,0.254000*%
%ADD13C,0.127000*%
%ADD14C,0.152400*%
%ADD15C,0.100000*%
G04 APERTURE END LIST*
D10*
X184513969Y-136899547D02*
X184916136Y-136325023D01*
X185203398Y-136899547D02*
X185203398Y-135693047D01*
X184743779Y-135693047D01*
X184628874Y-135750500D01*
X184571421Y-135807952D01*
X184513969Y-135922857D01*
X184513969Y-136095214D01*
X184571421Y-136210119D01*
X184628874Y-136267571D01*
X184743779Y-136325023D01*
X185203398Y-136325023D01*
X184054350Y-136842095D02*
X183881993Y-136899547D01*
X183594731Y-136899547D01*
X183479826Y-136842095D01*
X183422374Y-136784642D01*
X183364921Y-136669738D01*
X183364921Y-136554833D01*
X183422374Y-136439928D01*
X183479826Y-136382476D01*
X183594731Y-136325023D01*
X183824540Y-136267571D01*
X183939445Y-136210119D01*
X183996898Y-136152666D01*
X184054350Y-136037761D01*
X184054350Y-135922857D01*
X183996898Y-135807952D01*
X183939445Y-135750500D01*
X183824540Y-135693047D01*
X183537279Y-135693047D01*
X183364921Y-135750500D01*
X183020207Y-135693047D02*
X182330779Y-135693047D01*
X182675493Y-136899547D02*
X182675493Y-135693047D01*
X178777198Y-136899547D02*
X178777198Y-135693047D01*
X178375031Y-136554833D01*
X177972864Y-135693047D01*
X177972864Y-136899547D01*
X177168531Y-135693047D02*
X176938721Y-135693047D01*
X176823817Y-135750500D01*
X176708912Y-135865404D01*
X176651460Y-136095214D01*
X176651460Y-136497380D01*
X176708912Y-136727190D01*
X176823817Y-136842095D01*
X176938721Y-136899547D01*
X177168531Y-136899547D01*
X177283436Y-136842095D01*
X177398340Y-136727190D01*
X177455793Y-136497380D01*
X177455793Y-136095214D01*
X177398340Y-135865404D01*
X177283436Y-135750500D01*
X177168531Y-135693047D01*
X176134388Y-136899547D02*
X176134388Y-135693047D01*
X175847126Y-135693047D01*
X175674769Y-135750500D01*
X175559864Y-135865404D01*
X175502412Y-135980309D01*
X175444960Y-136210119D01*
X175444960Y-136382476D01*
X175502412Y-136612285D01*
X175559864Y-136727190D01*
X175674769Y-136842095D01*
X175847126Y-136899547D01*
X176134388Y-136899547D01*
X174927888Y-136267571D02*
X174525721Y-136267571D01*
X174353364Y-136899547D02*
X174927888Y-136899547D01*
X174927888Y-135693047D01*
X174353364Y-135693047D01*
X169985169Y-126358547D02*
X170387336Y-125784023D01*
X170674598Y-126358547D02*
X170674598Y-125152047D01*
X170214979Y-125152047D01*
X170100074Y-125209500D01*
X170042621Y-125266952D01*
X169985169Y-125381857D01*
X169985169Y-125554214D01*
X170042621Y-125669119D01*
X170100074Y-125726571D01*
X170214979Y-125784023D01*
X170674598Y-125784023D01*
X168134598Y-126358547D02*
X168134598Y-125152047D01*
X167732431Y-126013833D01*
X167330264Y-125152047D01*
X167330264Y-126358547D01*
X165391398Y-126358547D02*
X165391398Y-125152047D01*
X164587064Y-125152047D02*
X164357255Y-125152047D01*
X164242350Y-125209500D01*
X164127445Y-125324404D01*
X164069993Y-125554214D01*
X164069993Y-125956380D01*
X164127445Y-126186190D01*
X164242350Y-126301095D01*
X164357255Y-126358547D01*
X164587064Y-126358547D01*
X164701969Y-126301095D01*
X164816874Y-126186190D01*
X164874326Y-125956380D01*
X164874326Y-125554214D01*
X164816874Y-125324404D01*
X164701969Y-125209500D01*
X164587064Y-125152047D01*
X163323112Y-125152047D02*
X163208207Y-125152047D01*
X163093302Y-125209500D01*
X163035850Y-125266952D01*
X162978398Y-125381857D01*
X162920945Y-125611666D01*
X162920945Y-125898928D01*
X162978398Y-126128738D01*
X163035850Y-126243642D01*
X163093302Y-126301095D01*
X163208207Y-126358547D01*
X163323112Y-126358547D01*
X163438017Y-126301095D01*
X163495469Y-126243642D01*
X163552921Y-126128738D01*
X163610374Y-125898928D01*
X163610374Y-125611666D01*
X163552921Y-125381857D01*
X163495469Y-125266952D01*
X163438017Y-125209500D01*
X163323112Y-125152047D01*
X161384850Y-126301095D02*
X161212493Y-126358547D01*
X160925231Y-126358547D01*
X160810326Y-126301095D01*
X160752874Y-126243642D01*
X160695421Y-126128738D01*
X160695421Y-126013833D01*
X160752874Y-125898928D01*
X160810326Y-125841476D01*
X160925231Y-125784023D01*
X161155040Y-125726571D01*
X161269945Y-125669119D01*
X161327398Y-125611666D01*
X161384850Y-125496761D01*
X161384850Y-125381857D01*
X161327398Y-125266952D01*
X161269945Y-125209500D01*
X161155040Y-125152047D01*
X160867779Y-125152047D01*
X160695421Y-125209500D01*
X160178350Y-125726571D02*
X159776183Y-125726571D01*
X159603826Y-126358547D02*
X160178350Y-126358547D01*
X160178350Y-125152047D01*
X159603826Y-125152047D01*
X158397326Y-126358547D02*
X158799493Y-125784023D01*
X159086755Y-126358547D02*
X159086755Y-125152047D01*
X158627136Y-125152047D01*
X158512231Y-125209500D01*
X158454779Y-125266952D01*
X158397326Y-125381857D01*
X158397326Y-125554214D01*
X158454779Y-125669119D01*
X158512231Y-125726571D01*
X158627136Y-125784023D01*
X159086755Y-125784023D01*
X157880255Y-126358547D02*
X157880255Y-125152047D01*
X157363183Y-126013833D02*
X156788660Y-126013833D01*
X157478088Y-126358547D02*
X157075921Y-125152047D01*
X156673755Y-126358547D01*
X155697064Y-126358547D02*
X156271588Y-126358547D01*
X156271588Y-125152047D01*
X154777826Y-125152047D02*
X155007636Y-125152047D01*
X155122540Y-125209500D01*
X155179993Y-125266952D01*
X155294898Y-125439309D01*
X155352350Y-125669119D01*
X155352350Y-126128738D01*
X155294898Y-126243642D01*
X155237445Y-126301095D01*
X155122540Y-126358547D01*
X154892731Y-126358547D01*
X154777826Y-126301095D01*
X154720374Y-126243642D01*
X154662921Y-126128738D01*
X154662921Y-125841476D01*
X154720374Y-125726571D01*
X154777826Y-125669119D01*
X154892731Y-125611666D01*
X155122540Y-125611666D01*
X155237445Y-125669119D01*
X155294898Y-125726571D01*
X155352350Y-125841476D01*
X165245650Y-118376295D02*
X165073293Y-118433747D01*
X164786031Y-118433747D01*
X164671126Y-118376295D01*
X164613674Y-118318842D01*
X164556221Y-118203938D01*
X164556221Y-118089033D01*
X164613674Y-117974128D01*
X164671126Y-117916676D01*
X164786031Y-117859223D01*
X165015840Y-117801771D01*
X165130745Y-117744319D01*
X165188198Y-117686866D01*
X165245650Y-117571961D01*
X165245650Y-117457057D01*
X165188198Y-117342152D01*
X165130745Y-117284700D01*
X165015840Y-117227247D01*
X164728579Y-117227247D01*
X164556221Y-117284700D01*
X164039150Y-117801771D02*
X163636983Y-117801771D01*
X163464626Y-118433747D02*
X164039150Y-118433747D01*
X164039150Y-117227247D01*
X163464626Y-117227247D01*
X162258126Y-118433747D02*
X162660293Y-117859223D01*
X162947555Y-118433747D02*
X162947555Y-117227247D01*
X162487936Y-117227247D01*
X162373031Y-117284700D01*
X162315579Y-117342152D01*
X162258126Y-117457057D01*
X162258126Y-117629414D01*
X162315579Y-117744319D01*
X162373031Y-117801771D01*
X162487936Y-117859223D01*
X162947555Y-117859223D01*
X161741055Y-118433747D02*
X161741055Y-117227247D01*
X161223983Y-118089033D02*
X160649460Y-118089033D01*
X161338888Y-118433747D02*
X160936721Y-117227247D01*
X160534555Y-118433747D01*
X159557864Y-118433747D02*
X160132388Y-118433747D01*
X160132388Y-117227247D01*
X158638626Y-117629414D02*
X158638626Y-118433747D01*
X158925888Y-117169795D02*
X159213150Y-118031580D01*
X158466269Y-118031580D01*
X133622650Y-129773033D02*
X133048126Y-129773033D01*
X133737555Y-130117747D02*
X133335388Y-128911247D01*
X132933221Y-130117747D01*
X132703412Y-128911247D02*
X132013983Y-128911247D01*
X132358698Y-130117747D02*
X132358698Y-128911247D01*
X131726721Y-128911247D02*
X130922388Y-130117747D01*
X130922388Y-128911247D02*
X131726721Y-130117747D01*
D11*
X180738296Y-77677995D02*
X180738296Y-75264995D01*
X179359439Y-77677995D01*
X179359439Y-75264995D01*
X178210391Y-77677995D02*
X178210391Y-76069328D01*
X178210391Y-75264995D02*
X178325296Y-75379900D01*
X178210391Y-75494804D01*
X178095486Y-75379900D01*
X178210391Y-75264995D01*
X178210391Y-75494804D01*
X177061343Y-76069328D02*
X177061343Y-77677995D01*
X177061343Y-76299138D02*
X176946439Y-76184233D01*
X176716629Y-76069328D01*
X176371915Y-76069328D01*
X176142105Y-76184233D01*
X176027200Y-76414042D01*
X176027200Y-77677995D01*
X174878153Y-76069328D02*
X174878153Y-78137614D01*
X174993058Y-78367423D01*
X175222867Y-78482328D01*
X175337772Y-78482328D01*
X174878153Y-75264995D02*
X174993058Y-75379900D01*
X174878153Y-75494804D01*
X174763248Y-75379900D01*
X174878153Y-75264995D01*
X174878153Y-75494804D01*
X172694962Y-77677995D02*
X172694962Y-76414042D01*
X172809867Y-76184233D01*
X173039677Y-76069328D01*
X173499296Y-76069328D01*
X173729105Y-76184233D01*
X172694962Y-77563090D02*
X172924772Y-77677995D01*
X173499296Y-77677995D01*
X173729105Y-77563090D01*
X173844010Y-77333280D01*
X173844010Y-77103471D01*
X173729105Y-76873661D01*
X173499296Y-76758757D01*
X172924772Y-76758757D01*
X172694962Y-76643852D01*
X171545915Y-77677995D02*
X171545915Y-75264995D01*
X170626677Y-75264995D01*
X170396867Y-75379900D01*
X170281962Y-75494804D01*
X170167058Y-75724614D01*
X170167058Y-76069328D01*
X170281962Y-76299138D01*
X170396867Y-76414042D01*
X170626677Y-76528947D01*
X171545915Y-76528947D01*
X167754058Y-77448185D02*
X167868962Y-77563090D01*
X168213677Y-77677995D01*
X168443486Y-77677995D01*
X168788200Y-77563090D01*
X169018010Y-77333280D01*
X169132915Y-77103471D01*
X169247820Y-76643852D01*
X169247820Y-76299138D01*
X169132915Y-75839519D01*
X169018010Y-75609709D01*
X168788200Y-75379900D01*
X168443486Y-75264995D01*
X168213677Y-75264995D01*
X167868962Y-75379900D01*
X167754058Y-75494804D01*
X165915581Y-76414042D02*
X165570867Y-76528947D01*
X165455962Y-76643852D01*
X165341058Y-76873661D01*
X165341058Y-77218376D01*
X165455962Y-77448185D01*
X165570867Y-77563090D01*
X165800677Y-77677995D01*
X166719915Y-77677995D01*
X166719915Y-75264995D01*
X165915581Y-75264995D01*
X165685772Y-75379900D01*
X165570867Y-75494804D01*
X165455962Y-75724614D01*
X165455962Y-75954423D01*
X165570867Y-76184233D01*
X165685772Y-76299138D01*
X165915581Y-76414042D01*
X166719915Y-76414042D01*
D12*
%TO.C,ATX1*%
X147610300Y-141781000D02*
X147610300Y-140281000D01*
X144210300Y-141781000D02*
X144210300Y-140281000D01*
X144210300Y-141781000D02*
X147610300Y-141781000D01*
X120210300Y-130881000D02*
X120210300Y-140481000D01*
X171610300Y-130881000D02*
X120210300Y-130881000D01*
X171610300Y-140481000D02*
X171610300Y-130881000D01*
X120210300Y-140481000D02*
X171610300Y-140481000D01*
D13*
%TO.C,RST1*%
X187101100Y-127903600D02*
X180901100Y-127903600D01*
X187101100Y-134103600D02*
X187101100Y-127903600D01*
X180901100Y-134103600D02*
X187101100Y-134103600D01*
X180901100Y-127903600D02*
X180901100Y-134103600D01*
%TO.C,MODE1*%
X180101100Y-127903600D02*
X173901100Y-127903600D01*
X180101100Y-134103600D02*
X180101100Y-127903600D01*
X173901100Y-134103600D02*
X180101100Y-134103600D01*
X173901100Y-127903600D02*
X173901100Y-134103600D01*
D14*
%TO.C,SERIAL6*%
X147050300Y-129591000D02*
X148320300Y-129591000D01*
X148955300Y-128956000D02*
X148320300Y-129591000D01*
X148320300Y-127051000D02*
X148955300Y-127686000D01*
X146415300Y-128956000D02*
X147050300Y-129591000D01*
X146415300Y-127686000D02*
X146415300Y-128956000D01*
X147050300Y-127051000D02*
X146415300Y-127686000D01*
X148320300Y-127051000D02*
X147050300Y-127051000D01*
X159750300Y-129591000D02*
X161020300Y-129591000D01*
X161655300Y-128956000D02*
X161020300Y-129591000D01*
X161020300Y-127051000D02*
X161655300Y-127686000D01*
X161655300Y-127686000D02*
X161655300Y-128956000D01*
X158480300Y-129591000D02*
X159115300Y-128956000D01*
X157210300Y-129591000D02*
X158480300Y-129591000D01*
X156575300Y-128956000D02*
X157210300Y-129591000D01*
X156575300Y-127686000D02*
X156575300Y-128956000D01*
X157210300Y-127051000D02*
X156575300Y-127686000D01*
X158480300Y-127051000D02*
X157210300Y-127051000D01*
X159115300Y-127686000D02*
X158480300Y-127051000D01*
X159115300Y-128956000D02*
X159750300Y-129591000D01*
X159115300Y-127686000D02*
X159115300Y-128956000D01*
X159750300Y-127051000D02*
X159115300Y-127686000D01*
X161020300Y-127051000D02*
X159750300Y-127051000D01*
X152130300Y-129591000D02*
X153400300Y-129591000D01*
X154035300Y-128956000D02*
X153400300Y-129591000D01*
X153400300Y-127051000D02*
X154035300Y-127686000D01*
X155940300Y-129591000D02*
X156575300Y-128956000D01*
X154670300Y-129591000D02*
X155940300Y-129591000D01*
X154035300Y-128956000D02*
X154670300Y-129591000D01*
X154035300Y-127686000D02*
X154035300Y-128956000D01*
X154670300Y-127051000D02*
X154035300Y-127686000D01*
X155940300Y-127051000D02*
X154670300Y-127051000D01*
X156575300Y-127686000D02*
X155940300Y-127051000D01*
X150860300Y-129591000D02*
X151495300Y-128956000D01*
X149590300Y-129591000D02*
X150860300Y-129591000D01*
X148955300Y-128956000D02*
X149590300Y-129591000D01*
X148955300Y-127686000D02*
X148955300Y-128956000D01*
X149590300Y-127051000D02*
X148955300Y-127686000D01*
X150860300Y-127051000D02*
X149590300Y-127051000D01*
X151495300Y-127686000D02*
X150860300Y-127051000D01*
X151495300Y-128956000D02*
X152130300Y-129591000D01*
X151495300Y-127686000D02*
X151495300Y-128956000D01*
X152130300Y-127051000D02*
X151495300Y-127686000D01*
X153400300Y-127051000D02*
X152130300Y-127051000D01*
%TO.C,IO0*%
X163560300Y-129591000D02*
X164195300Y-128956000D01*
X162290300Y-129591000D02*
X163560300Y-129591000D01*
X161655300Y-128956000D02*
X162290300Y-129591000D01*
X161655300Y-127686000D02*
X161655300Y-128956000D01*
X162290300Y-127051000D02*
X161655300Y-127686000D01*
X163560300Y-127051000D02*
X162290300Y-127051000D01*
X164195300Y-127686000D02*
X163560300Y-127051000D01*
X164830300Y-129591000D02*
X166100300Y-129591000D01*
X166735300Y-128956000D02*
X166100300Y-129591000D01*
X166100300Y-127051000D02*
X166735300Y-127686000D01*
X166735300Y-127686000D02*
X166735300Y-128956000D01*
X164195300Y-128956000D02*
X164830300Y-129591000D01*
X164195300Y-127686000D02*
X164195300Y-128956000D01*
X164830300Y-127051000D02*
X164195300Y-127686000D01*
X166100300Y-127051000D02*
X164830300Y-127051000D01*
%TO.C,RESET1*%
X168640300Y-129591000D02*
X169275300Y-128956000D01*
X167370300Y-129591000D02*
X168640300Y-129591000D01*
X166735300Y-128956000D02*
X167370300Y-129591000D01*
X166735300Y-127686000D02*
X166735300Y-128956000D01*
X167370300Y-127051000D02*
X166735300Y-127686000D01*
X168640300Y-127051000D02*
X167370300Y-127051000D01*
X169275300Y-127686000D02*
X168640300Y-127051000D01*
X169910300Y-129591000D02*
X171180300Y-129591000D01*
X171815300Y-128956000D02*
X171180300Y-129591000D01*
X171180300Y-127051000D02*
X171815300Y-127686000D01*
X171815300Y-127686000D02*
X171815300Y-128956000D01*
X169275300Y-128956000D02*
X169910300Y-129591000D01*
X169275300Y-127686000D02*
X169275300Y-128956000D01*
X169910300Y-127051000D02*
X169275300Y-127686000D01*
X171180300Y-127051000D02*
X169910300Y-127051000D01*
%TO.C,SERIAL4*%
X155940300Y-121463000D02*
X157210300Y-121463000D01*
X157845300Y-120828000D02*
X157210300Y-121463000D01*
X157210300Y-118923000D02*
X157845300Y-119558000D01*
X155305300Y-120828000D02*
X155940300Y-121463000D01*
X155305300Y-119558000D02*
X155305300Y-120828000D01*
X155940300Y-118923000D02*
X155305300Y-119558000D01*
X157210300Y-118923000D02*
X155940300Y-118923000D01*
X163560300Y-121463000D02*
X164830300Y-121463000D01*
X165465300Y-120828000D02*
X164830300Y-121463000D01*
X164830300Y-118923000D02*
X165465300Y-119558000D01*
X165465300Y-119558000D02*
X165465300Y-120828000D01*
X162290300Y-121463000D02*
X162925300Y-120828000D01*
X161020300Y-121463000D02*
X162290300Y-121463000D01*
X160385300Y-120828000D02*
X161020300Y-121463000D01*
X160385300Y-119558000D02*
X160385300Y-120828000D01*
X161020300Y-118923000D02*
X160385300Y-119558000D01*
X162290300Y-118923000D02*
X161020300Y-118923000D01*
X162925300Y-119558000D02*
X162290300Y-118923000D01*
X162925300Y-120828000D02*
X163560300Y-121463000D01*
X162925300Y-119558000D02*
X162925300Y-120828000D01*
X163560300Y-118923000D02*
X162925300Y-119558000D01*
X164830300Y-118923000D02*
X163560300Y-118923000D01*
X159750300Y-121463000D02*
X160385300Y-120828000D01*
X158480300Y-121463000D02*
X159750300Y-121463000D01*
X157845300Y-120828000D02*
X158480300Y-121463000D01*
X157845300Y-119558000D02*
X157845300Y-120828000D01*
X158480300Y-118923000D02*
X157845300Y-119558000D01*
X159750300Y-118923000D02*
X158480300Y-118923000D01*
X160385300Y-119558000D02*
X159750300Y-118923000D01*
D15*
%TO.C,U$2*%
G36*
X184629600Y-77521000D02*
G01*
X184790788Y-77433718D01*
X184921513Y-77305225D01*
X185011557Y-77145563D01*
X185053880Y-76967213D01*
X185045175Y-76784118D01*
X184986122Y-76610588D01*
X184881336Y-76460189D01*
X184739010Y-76344678D01*
X184388300Y-76251000D01*
X184388299Y-76251000D01*
X184212390Y-76278122D01*
X184049867Y-76350686D01*
X183912241Y-76463551D01*
X183809264Y-76608724D01*
X183748228Y-76775918D01*
X183733459Y-76953292D01*
X183766002Y-77128278D01*
X183843552Y-77288483D01*
X184108900Y-77521000D01*
X183715200Y-78511600D01*
X183562800Y-78448100D01*
X183410400Y-78346500D01*
X182902400Y-78702100D01*
X182800800Y-78613200D01*
X182711900Y-78524300D01*
X182610300Y-78410000D01*
X182521400Y-78295700D01*
X182889700Y-77762300D01*
X182800800Y-77609900D01*
X182750000Y-77457500D01*
X182699200Y-77254300D01*
X182076900Y-77140000D01*
X182076900Y-76962200D01*
X182076900Y-76847900D01*
X182089600Y-76708200D01*
X182102300Y-76581200D01*
X182724600Y-76466900D01*
X182775400Y-76301800D01*
X182838900Y-76162100D01*
X182927800Y-76009700D01*
X182940500Y-75984300D01*
X182584900Y-75489000D01*
X182686500Y-75362000D01*
X182813500Y-75235000D01*
X182915100Y-75146100D01*
X183004000Y-75082600D01*
X183524700Y-75450900D01*
X183639000Y-75387400D01*
X183753300Y-75336600D01*
X183867600Y-75285800D01*
X183981900Y-75260400D01*
X184096200Y-74638100D01*
X184248600Y-74625400D01*
X184426400Y-74625400D01*
X184540700Y-74625400D01*
X184667700Y-74638100D01*
X184769300Y-75247700D01*
X184959800Y-75311200D01*
X185086800Y-75362000D01*
X185264600Y-75463600D01*
X185772600Y-75095300D01*
X185886900Y-75184200D01*
X186013900Y-75311200D01*
X186115500Y-75425500D01*
X186179000Y-75489000D01*
X185823400Y-76009700D01*
X185899600Y-76136700D01*
X185975800Y-76301800D01*
X186013900Y-76441500D01*
X186052000Y-76530400D01*
X186674300Y-76632000D01*
X186674300Y-77190800D01*
X186052000Y-77292400D01*
X186001200Y-77470200D01*
X185963100Y-77597200D01*
X185912300Y-77698800D01*
X185823400Y-77851200D01*
X186191700Y-78359200D01*
X186090100Y-78473500D01*
X186001200Y-78562400D01*
X185886900Y-78664000D01*
X185798000Y-78740200D01*
X185277300Y-78384600D01*
X184985200Y-78537000D01*
X184629600Y-77521000D01*
G37*
%TD*%
M02*
