%TF.GenerationSoftware,KiCad,Pcbnew,(5.1.6-0-10_14)*%
%TF.CreationDate,2021-04-16T11:15:05+09:00*%
%TF.ProjectId,NinjaPCB_ver2.2,4e696e6a-6150-4434-925f-766572322e32,rev?*%
%TF.SameCoordinates,Original*%
%TF.FileFunction,Soldermask,Top*%
%TF.FilePolarity,Negative*%
%FSLAX46Y46*%
G04 Gerber Fmt 4.6, Leading zero omitted, Abs format (unit mm)*
G04 Created by KiCad (PCBNEW (5.1.6-0-10_14)) date 2021-04-16 11:15:05*
%MOMM*%
%LPD*%
G01*
G04 APERTURE LIST*
%ADD10C,0.038608*%
%ADD11C,0.060325*%
%ADD12C,0.100000*%
%ADD13C,3.300000*%
%ADD14C,1.951600*%
%ADD15R,1.951600X1.951600*%
%ADD16O,3.117600X1.609600*%
%ADD17O,2.201600X4.301600*%
%ADD18R,3.657600X2.260600*%
%ADD19R,1.371600X2.387600*%
%ADD20R,1.244600X2.387600*%
%ADD21R,1.101600X4.801600*%
%ADD22R,1.301600X0.701600*%
%ADD23C,2.006600*%
%ADD24R,2.006600X2.006600*%
%ADD25O,1.625600X3.149600*%
%ADD26C,4.901600*%
%ADD27C,2.951600*%
%ADD28C,1.751600*%
%ADD29C,2.351600*%
%ADD30R,1.901600X1.871600*%
%ADD31R,2.101600X1.301600*%
%ADD32R,1.301600X2.101600*%
%ADD33R,2.387600X1.244600*%
%ADD34R,4.401600X4.401600*%
%ADD35R,1.201600X1.951600*%
%ADD36R,1.244600X1.117600*%
%ADD37O,3.149600X1.625600*%
%ADD38C,1.409600*%
%ADD39C,2.100000*%
%ADD40C,3.917600*%
%ADD41C,3.101600*%
%ADD42C,3.317600*%
%ADD43R,0.660400X1.422400*%
G04 APERTURE END LIST*
%TO.C,C4*%
D10*
X152088136Y-99707045D02*
X152069751Y-99725430D01*
X152014597Y-99743815D01*
X151977827Y-99743815D01*
X151922673Y-99725430D01*
X151885903Y-99688660D01*
X151867519Y-99651891D01*
X151849134Y-99578352D01*
X151849134Y-99523198D01*
X151867519Y-99449659D01*
X151885903Y-99412889D01*
X151922673Y-99376120D01*
X151977827Y-99357735D01*
X152014597Y-99357735D01*
X152069751Y-99376120D01*
X152088136Y-99394504D01*
X152419061Y-99486428D02*
X152419061Y-99743815D01*
X152327138Y-99339350D02*
X152235214Y-99615121D01*
X152474216Y-99615121D01*
%TO.C,C1*%
D11*
X138628371Y-97011039D02*
X138657097Y-97039766D01*
X138685823Y-97125944D01*
X138685823Y-97183396D01*
X138657097Y-97269575D01*
X138599645Y-97327027D01*
X138542192Y-97355754D01*
X138427288Y-97384480D01*
X138341109Y-97384480D01*
X138226204Y-97355754D01*
X138168752Y-97327027D01*
X138111300Y-97269575D01*
X138082573Y-97183396D01*
X138082573Y-97125944D01*
X138111300Y-97039766D01*
X138140026Y-97011039D01*
X138685823Y-96436516D02*
X138685823Y-96781230D01*
X138685823Y-96608873D02*
X138082573Y-96608873D01*
X138168752Y-96666325D01*
X138226204Y-96723777D01*
X138254930Y-96781230D01*
%TO.C,CP1*%
X164104210Y-75371271D02*
X164075483Y-75399997D01*
X163989305Y-75428723D01*
X163931853Y-75428723D01*
X163845674Y-75399997D01*
X163788222Y-75342545D01*
X163759495Y-75285092D01*
X163730769Y-75170188D01*
X163730769Y-75084009D01*
X163759495Y-74969104D01*
X163788222Y-74911652D01*
X163845674Y-74854200D01*
X163931853Y-74825473D01*
X163989305Y-74825473D01*
X164075483Y-74854200D01*
X164104210Y-74882926D01*
X164362745Y-75428723D02*
X164362745Y-74825473D01*
X164592555Y-74825473D01*
X164650007Y-74854200D01*
X164678733Y-74882926D01*
X164707460Y-74940378D01*
X164707460Y-75026557D01*
X164678733Y-75084009D01*
X164650007Y-75112735D01*
X164592555Y-75141461D01*
X164362745Y-75141461D01*
X165281983Y-75428723D02*
X164937269Y-75428723D01*
X165109626Y-75428723D02*
X165109626Y-74825473D01*
X165052174Y-74911652D01*
X164994722Y-74969104D01*
X164937269Y-74997830D01*
%TO.C,C2*%
D10*
X135819145Y-89778963D02*
X135837530Y-89797348D01*
X135855915Y-89852502D01*
X135855915Y-89889272D01*
X135837530Y-89944426D01*
X135800760Y-89981196D01*
X135763991Y-89999580D01*
X135690452Y-90017965D01*
X135635298Y-90017965D01*
X135561759Y-89999580D01*
X135524989Y-89981196D01*
X135488220Y-89944426D01*
X135469835Y-89889272D01*
X135469835Y-89852502D01*
X135488220Y-89797348D01*
X135506604Y-89778963D01*
X135506604Y-89631885D02*
X135488220Y-89613500D01*
X135469835Y-89576731D01*
X135469835Y-89484807D01*
X135488220Y-89448038D01*
X135506604Y-89429653D01*
X135543374Y-89411268D01*
X135580143Y-89411268D01*
X135635298Y-89429653D01*
X135855915Y-89650270D01*
X135855915Y-89411268D01*
%TO.C,CP2*%
D11*
X179973610Y-100951671D02*
X179944883Y-100980397D01*
X179858705Y-101009123D01*
X179801253Y-101009123D01*
X179715074Y-100980397D01*
X179657622Y-100922945D01*
X179628895Y-100865492D01*
X179600169Y-100750588D01*
X179600169Y-100664409D01*
X179628895Y-100549504D01*
X179657622Y-100492052D01*
X179715074Y-100434600D01*
X179801253Y-100405873D01*
X179858705Y-100405873D01*
X179944883Y-100434600D01*
X179973610Y-100463326D01*
X180232145Y-101009123D02*
X180232145Y-100405873D01*
X180461955Y-100405873D01*
X180519407Y-100434600D01*
X180548133Y-100463326D01*
X180576860Y-100520778D01*
X180576860Y-100606957D01*
X180548133Y-100664409D01*
X180519407Y-100693135D01*
X180461955Y-100721861D01*
X180232145Y-100721861D01*
X180806669Y-100463326D02*
X180835395Y-100434600D01*
X180892848Y-100405873D01*
X181036479Y-100405873D01*
X181093931Y-100434600D01*
X181122657Y-100463326D01*
X181151383Y-100520778D01*
X181151383Y-100578230D01*
X181122657Y-100664409D01*
X180777943Y-101009123D01*
X181151383Y-101009123D01*
%TO.C,C5*%
X161816771Y-84777439D02*
X161845497Y-84806166D01*
X161874223Y-84892344D01*
X161874223Y-84949796D01*
X161845497Y-85035975D01*
X161788045Y-85093427D01*
X161730592Y-85122154D01*
X161615688Y-85150880D01*
X161529509Y-85150880D01*
X161414604Y-85122154D01*
X161357152Y-85093427D01*
X161299700Y-85035975D01*
X161270973Y-84949796D01*
X161270973Y-84892344D01*
X161299700Y-84806166D01*
X161328426Y-84777439D01*
X161270973Y-84231642D02*
X161270973Y-84518904D01*
X161558235Y-84547630D01*
X161529509Y-84518904D01*
X161500783Y-84461451D01*
X161500783Y-84317820D01*
X161529509Y-84260368D01*
X161558235Y-84231642D01*
X161615688Y-84202916D01*
X161759319Y-84202916D01*
X161816771Y-84231642D01*
X161845497Y-84260368D01*
X161874223Y-84317820D01*
X161874223Y-84461451D01*
X161845497Y-84518904D01*
X161816771Y-84547630D01*
D12*
%TO.C,U$3*%
G36*
X186725100Y-74590600D02*
G01*
X186502579Y-74615672D01*
X186291216Y-74689631D01*
X186101610Y-74808769D01*
X185943269Y-74967110D01*
X185824131Y-75156716D01*
X185725100Y-75590600D01*
X185750172Y-75813121D01*
X185824131Y-76024484D01*
X185943269Y-76214090D01*
X186101610Y-76372431D01*
X186291216Y-76491569D01*
X186725100Y-76590600D01*
X186947621Y-76565528D01*
X187158984Y-76491569D01*
X187348590Y-76372431D01*
X187506931Y-76214090D01*
X187626069Y-76024484D01*
X187725100Y-75590600D01*
X187700028Y-75368079D01*
X187626069Y-75156716D01*
X187506931Y-74967110D01*
X187348590Y-74808769D01*
X187158984Y-74689631D01*
X186725100Y-74590600D01*
G37*
%TO.C,U$4*%
G36*
X114808300Y-140360600D02*
G01*
X114833372Y-140583121D01*
X114907331Y-140794484D01*
X115026469Y-140984090D01*
X115184810Y-141142431D01*
X115374416Y-141261569D01*
X115808300Y-141360600D01*
X116030821Y-141335528D01*
X116242184Y-141261569D01*
X116431790Y-141142431D01*
X116590131Y-140984090D01*
X116709269Y-140794484D01*
X116808300Y-140360600D01*
X116783228Y-140138079D01*
X116709269Y-139926716D01*
X116590131Y-139737110D01*
X116431790Y-139578769D01*
X116242184Y-139459631D01*
X115808300Y-139360600D01*
X115585779Y-139385672D01*
X115374416Y-139459631D01*
X115184810Y-139578769D01*
X115026469Y-139737110D01*
X114907331Y-139926716D01*
X114808300Y-140360600D01*
G37*
%TO.C,U$5*%
G36*
X180010100Y-140233600D02*
G01*
X180035172Y-140456121D01*
X180109131Y-140667484D01*
X180228269Y-140857090D01*
X180386610Y-141015431D01*
X180576216Y-141134569D01*
X181010100Y-141233600D01*
X181232621Y-141208528D01*
X181443984Y-141134569D01*
X181633590Y-141015431D01*
X181791931Y-140857090D01*
X181911069Y-140667484D01*
X182010100Y-140233600D01*
X181985028Y-140011079D01*
X181911069Y-139799716D01*
X181791931Y-139610110D01*
X181633590Y-139451769D01*
X181443984Y-139332631D01*
X181010100Y-139233600D01*
X180787579Y-139258672D01*
X180576216Y-139332631D01*
X180386610Y-139451769D01*
X180228269Y-139610110D01*
X180109131Y-139799716D01*
X180010100Y-140233600D01*
G37*
%TO.C,U$7*%
G36*
X109169500Y-73660200D02*
G01*
X109194572Y-73882721D01*
X109268531Y-74094084D01*
X109387669Y-74283690D01*
X109546010Y-74442031D01*
X109735616Y-74561169D01*
X110169500Y-74660200D01*
X110392021Y-74635128D01*
X110603384Y-74561169D01*
X110792990Y-74442031D01*
X110951331Y-74283690D01*
X111070469Y-74094084D01*
X111169500Y-73660200D01*
X111144428Y-73437679D01*
X111070469Y-73226316D01*
X110951331Y-73036710D01*
X110792990Y-72878369D01*
X110603384Y-72759231D01*
X110169500Y-72660200D01*
X109946979Y-72685272D01*
X109735616Y-72759231D01*
X109546010Y-72878369D01*
X109387669Y-73036710D01*
X109268531Y-73226316D01*
X109169500Y-73660200D01*
G37*
%TO.C,U$8*%
G36*
X167167100Y-118913600D02*
G01*
X166944579Y-118938672D01*
X166733216Y-119012631D01*
X166543610Y-119131769D01*
X166385269Y-119290110D01*
X166266131Y-119479716D01*
X166167100Y-119913600D01*
X166192172Y-120136121D01*
X166266131Y-120347484D01*
X166385269Y-120537090D01*
X166543610Y-120695431D01*
X166733216Y-120814569D01*
X167167100Y-120913600D01*
X167389621Y-120888528D01*
X167600984Y-120814569D01*
X167790590Y-120695431D01*
X167948931Y-120537090D01*
X168068069Y-120347484D01*
X168167100Y-119913600D01*
X168142028Y-119691079D01*
X168068069Y-119479716D01*
X167948931Y-119290110D01*
X167790590Y-119131769D01*
X167600984Y-119012631D01*
X167167100Y-118913600D01*
G37*
%TO.C,U$9*%
G36*
X162468100Y-93894600D02*
G01*
X162245579Y-93919672D01*
X162034216Y-93993631D01*
X161844610Y-94112769D01*
X161686269Y-94271110D01*
X161567131Y-94460716D01*
X161468100Y-94894600D01*
X161493172Y-95117121D01*
X161567131Y-95328484D01*
X161686269Y-95518090D01*
X161844610Y-95676431D01*
X162034216Y-95795569D01*
X162468100Y-95894600D01*
X162690621Y-95869528D01*
X162901984Y-95795569D01*
X163091590Y-95676431D01*
X163249931Y-95518090D01*
X163369069Y-95328484D01*
X163468100Y-94894600D01*
X163443028Y-94672079D01*
X163369069Y-94460716D01*
X163249931Y-94271110D01*
X163091590Y-94112769D01*
X162901984Y-93993631D01*
X162468100Y-93894600D01*
G37*
%TO.C,U$10*%
G36*
X186852100Y-99990600D02*
G01*
X186629579Y-100015672D01*
X186418216Y-100089631D01*
X186228610Y-100208769D01*
X186070269Y-100367110D01*
X185951131Y-100556716D01*
X185852100Y-100990600D01*
X185877172Y-101213121D01*
X185951131Y-101424484D01*
X186070269Y-101614090D01*
X186228610Y-101772431D01*
X186418216Y-101891569D01*
X186852100Y-101990600D01*
X187074621Y-101965528D01*
X187285984Y-101891569D01*
X187475590Y-101772431D01*
X187633931Y-101614090D01*
X187753069Y-101424484D01*
X187852100Y-100990600D01*
X187827028Y-100768079D01*
X187753069Y-100556716D01*
X187633931Y-100367110D01*
X187475590Y-100208769D01*
X187285984Y-100089631D01*
X186852100Y-99990600D01*
G37*
%TD*%
D13*
%TO.C,@HOLE0*%
X112001100Y-138503600D03*
%TD*%
%TO.C,@HOLE1*%
X112001100Y-71503600D03*
%TD*%
%TO.C,@HOLE2*%
X185001100Y-71503600D03*
%TD*%
%TO.C,@HOLE3*%
X185001100Y-138503600D03*
%TD*%
D14*
%TO.C,HEATER_POWER1*%
X130158900Y-72722800D03*
D15*
X126658900Y-72722800D03*
%TD*%
D14*
%TO.C,HEATER_TEMP1*%
X138158900Y-72722800D03*
D15*
X134658900Y-72722800D03*
%TD*%
D16*
%TO.C,FAN1*%
X120828500Y-77858000D03*
X120828500Y-75318000D03*
X120828500Y-72778000D03*
%TD*%
D17*
%TO.C,ATX1*%
X122810300Y-138431000D03*
X127010300Y-138431000D03*
X122810300Y-132931000D03*
X131210300Y-138431000D03*
X135410300Y-138431000D03*
X139610300Y-138431000D03*
X143810300Y-138431000D03*
X148010300Y-138431000D03*
X152210300Y-138431000D03*
X156410300Y-138431000D03*
X160610300Y-138431000D03*
X164810300Y-138431000D03*
X169010300Y-138431000D03*
X127010300Y-132931000D03*
X131210300Y-132931000D03*
X135410300Y-132931000D03*
X139610300Y-132931000D03*
X143810300Y-132931000D03*
X148010300Y-132931000D03*
X152210300Y-132931000D03*
X156410300Y-132931000D03*
X160610300Y-132931000D03*
X164810300Y-132931000D03*
X169010300Y-132931000D03*
%TD*%
D18*
%TO.C,REG1*%
X152360100Y-102713800D03*
D19*
X154646100Y-109063800D03*
X152360100Y-109063800D03*
X150074100Y-109063800D03*
%TD*%
D20*
%TO.C,C4*%
X149655000Y-99762200D03*
X152576000Y-99762200D03*
%TD*%
D21*
%TO.C,C3*%
X147726900Y-122049200D03*
X147726900Y-112949200D03*
%TD*%
D22*
%TO.C,IC2*%
X144665300Y-88019200D03*
X144665300Y-89289200D03*
X144665300Y-90559200D03*
X144665300Y-91829200D03*
X144665300Y-93099200D03*
X144665300Y-94369200D03*
X144665300Y-95639200D03*
X144665300Y-96909200D03*
X139465300Y-96909200D03*
X139465300Y-95639200D03*
X139465300Y-94369200D03*
X139465300Y-93099200D03*
X139465300Y-91829200D03*
X139465300Y-90559200D03*
X139465300Y-89289200D03*
X139465300Y-88019200D03*
%TD*%
%TO.C,RD1*%
G36*
G01*
X142541800Y-86503075D02*
X142541800Y-85760125D01*
G75*
G02*
X142665625Y-85636300I123825J0D01*
G01*
X143408575Y-85636300D01*
G75*
G02*
X143532400Y-85760125I0J-123825D01*
G01*
X143532400Y-86503075D01*
G75*
G02*
X143408575Y-86626900I-123825J0D01*
G01*
X142665625Y-86626900D01*
G75*
G02*
X142541800Y-86503075I0J123825D01*
G01*
G37*
G36*
G01*
X141017800Y-86503075D02*
X141017800Y-85760125D01*
G75*
G02*
X141141625Y-85636300I123825J0D01*
G01*
X141884575Y-85636300D01*
G75*
G02*
X142008400Y-85760125I0J-123825D01*
G01*
X142008400Y-86503075D01*
G75*
G02*
X141884575Y-86626900I-123825J0D01*
G01*
X141141625Y-86626900D01*
G75*
G02*
X141017800Y-86503075I0J123825D01*
G01*
G37*
%TD*%
%TO.C,RD2*%
G36*
G01*
X142008400Y-83220125D02*
X142008400Y-83963075D01*
G75*
G02*
X141884575Y-84086900I-123825J0D01*
G01*
X141141625Y-84086900D01*
G75*
G02*
X141017800Y-83963075I0J123825D01*
G01*
X141017800Y-83220125D01*
G75*
G02*
X141141625Y-83096300I123825J0D01*
G01*
X141884575Y-83096300D01*
G75*
G02*
X142008400Y-83220125I0J-123825D01*
G01*
G37*
G36*
G01*
X143532400Y-83220125D02*
X143532400Y-83963075D01*
G75*
G02*
X143408575Y-84086900I-123825J0D01*
G01*
X142665625Y-84086900D01*
G75*
G02*
X142541800Y-83963075I0J123825D01*
G01*
X142541800Y-83220125D01*
G75*
G02*
X142665625Y-83096300I123825J0D01*
G01*
X143408575Y-83096300D01*
G75*
G02*
X143532400Y-83220125I0J-123825D01*
G01*
G37*
%TD*%
%TO.C,C1*%
G36*
G01*
X138228775Y-94745700D02*
X137485825Y-94745700D01*
G75*
G02*
X137362000Y-94621875I0J123825D01*
G01*
X137362000Y-93878925D01*
G75*
G02*
X137485825Y-93755100I123825J0D01*
G01*
X138228775Y-93755100D01*
G75*
G02*
X138352600Y-93878925I0J-123825D01*
G01*
X138352600Y-94621875D01*
G75*
G02*
X138228775Y-94745700I-123825J0D01*
G01*
G37*
G36*
G01*
X138228775Y-96269700D02*
X137485825Y-96269700D01*
G75*
G02*
X137362000Y-96145875I0J123825D01*
G01*
X137362000Y-95402925D01*
G75*
G02*
X137485825Y-95279100I123825J0D01*
G01*
X138228775Y-95279100D01*
G75*
G02*
X138352600Y-95402925I0J-123825D01*
G01*
X138352600Y-96145875D01*
G75*
G02*
X138228775Y-96269700I-123825J0D01*
G01*
G37*
%TD*%
%TO.C,RT1*%
G36*
G01*
X142541800Y-73803075D02*
X142541800Y-73060125D01*
G75*
G02*
X142665625Y-72936300I123825J0D01*
G01*
X143408575Y-72936300D01*
G75*
G02*
X143532400Y-73060125I0J-123825D01*
G01*
X143532400Y-73803075D01*
G75*
G02*
X143408575Y-73926900I-123825J0D01*
G01*
X142665625Y-73926900D01*
G75*
G02*
X142541800Y-73803075I0J123825D01*
G01*
G37*
G36*
G01*
X141017800Y-73803075D02*
X141017800Y-73060125D01*
G75*
G02*
X141141625Y-72936300I123825J0D01*
G01*
X141884575Y-72936300D01*
G75*
G02*
X142008400Y-73060125I0J-123825D01*
G01*
X142008400Y-73803075D01*
G75*
G02*
X141884575Y-73926900I-123825J0D01*
G01*
X141141625Y-73926900D01*
G75*
G02*
X141017800Y-73803075I0J123825D01*
G01*
G37*
%TD*%
%TO.C,RL2*%
G36*
G01*
X142541800Y-78883075D02*
X142541800Y-78140125D01*
G75*
G02*
X142665625Y-78016300I123825J0D01*
G01*
X143408575Y-78016300D01*
G75*
G02*
X143532400Y-78140125I0J-123825D01*
G01*
X143532400Y-78883075D01*
G75*
G02*
X143408575Y-79006900I-123825J0D01*
G01*
X142665625Y-79006900D01*
G75*
G02*
X142541800Y-78883075I0J123825D01*
G01*
G37*
G36*
G01*
X141017800Y-78883075D02*
X141017800Y-78140125D01*
G75*
G02*
X141141625Y-78016300I123825J0D01*
G01*
X141884575Y-78016300D01*
G75*
G02*
X142008400Y-78140125I0J-123825D01*
G01*
X142008400Y-78883075D01*
G75*
G02*
X141884575Y-79006900I-123825J0D01*
G01*
X141141625Y-79006900D01*
G75*
G02*
X141017800Y-78883075I0J123825D01*
G01*
G37*
%TD*%
%TO.C,RH1*%
G36*
G01*
X142008400Y-75600125D02*
X142008400Y-76343075D01*
G75*
G02*
X141884575Y-76466900I-123825J0D01*
G01*
X141141625Y-76466900D01*
G75*
G02*
X141017800Y-76343075I0J123825D01*
G01*
X141017800Y-75600125D01*
G75*
G02*
X141141625Y-75476300I123825J0D01*
G01*
X141884575Y-75476300D01*
G75*
G02*
X142008400Y-75600125I0J-123825D01*
G01*
G37*
G36*
G01*
X143532400Y-75600125D02*
X143532400Y-76343075D01*
G75*
G02*
X143408575Y-76466900I-123825J0D01*
G01*
X142665625Y-76466900D01*
G75*
G02*
X142541800Y-76343075I0J123825D01*
G01*
X142541800Y-75600125D01*
G75*
G02*
X142665625Y-75476300I123825J0D01*
G01*
X143408575Y-75476300D01*
G75*
G02*
X143532400Y-75600125I0J-123825D01*
G01*
G37*
%TD*%
D23*
%TO.C,RST1*%
X181842100Y-134686600D03*
X186160100Y-134686600D03*
X186160100Y-127320600D03*
D24*
X181842100Y-127320600D03*
%TD*%
%TO.C,R1*%
G36*
G01*
X157273800Y-80305475D02*
X157273800Y-79562525D01*
G75*
G02*
X157397625Y-79438700I123825J0D01*
G01*
X158140575Y-79438700D01*
G75*
G02*
X158264400Y-79562525I0J-123825D01*
G01*
X158264400Y-80305475D01*
G75*
G02*
X158140575Y-80429300I-123825J0D01*
G01*
X157397625Y-80429300D01*
G75*
G02*
X157273800Y-80305475I0J123825D01*
G01*
G37*
G36*
G01*
X155749800Y-80305475D02*
X155749800Y-79562525D01*
G75*
G02*
X155873625Y-79438700I123825J0D01*
G01*
X156616575Y-79438700D01*
G75*
G02*
X156740400Y-79562525I0J-123825D01*
G01*
X156740400Y-80305475D01*
G75*
G02*
X156616575Y-80429300I-123825J0D01*
G01*
X155873625Y-80429300D01*
G75*
G02*
X155749800Y-80305475I0J123825D01*
G01*
G37*
%TD*%
%TO.C,R19*%
G36*
G01*
X114855800Y-76343075D02*
X114855800Y-75600125D01*
G75*
G02*
X114979625Y-75476300I123825J0D01*
G01*
X115722575Y-75476300D01*
G75*
G02*
X115846400Y-75600125I0J-123825D01*
G01*
X115846400Y-76343075D01*
G75*
G02*
X115722575Y-76466900I-123825J0D01*
G01*
X114979625Y-76466900D01*
G75*
G02*
X114855800Y-76343075I0J123825D01*
G01*
G37*
G36*
G01*
X113331800Y-76343075D02*
X113331800Y-75600125D01*
G75*
G02*
X113455625Y-75476300I123825J0D01*
G01*
X114198575Y-75476300D01*
G75*
G02*
X114322400Y-75600125I0J-123825D01*
G01*
X114322400Y-76343075D01*
G75*
G02*
X114198575Y-76466900I-123825J0D01*
G01*
X113455625Y-76466900D01*
G75*
G02*
X113331800Y-76343075I0J123825D01*
G01*
G37*
%TD*%
%TO.C,R17*%
G36*
G01*
X127679625Y-78879900D02*
X128422575Y-78879900D01*
G75*
G02*
X128546400Y-79003725I0J-123825D01*
G01*
X128546400Y-79746675D01*
G75*
G02*
X128422575Y-79870500I-123825J0D01*
G01*
X127679625Y-79870500D01*
G75*
G02*
X127555800Y-79746675I0J123825D01*
G01*
X127555800Y-79003725D01*
G75*
G02*
X127679625Y-78879900I123825J0D01*
G01*
G37*
G36*
G01*
X127679625Y-77355900D02*
X128422575Y-77355900D01*
G75*
G02*
X128546400Y-77479725I0J-123825D01*
G01*
X128546400Y-78222675D01*
G75*
G02*
X128422575Y-78346500I-123825J0D01*
G01*
X127679625Y-78346500D01*
G75*
G02*
X127555800Y-78222675I0J123825D01*
G01*
X127555800Y-77479725D01*
G75*
G02*
X127679625Y-77355900I123825J0D01*
G01*
G37*
%TD*%
%TO.C,R8*%
G36*
G01*
X157273800Y-86858675D02*
X157273800Y-86115725D01*
G75*
G02*
X157397625Y-85991900I123825J0D01*
G01*
X158140575Y-85991900D01*
G75*
G02*
X158264400Y-86115725I0J-123825D01*
G01*
X158264400Y-86858675D01*
G75*
G02*
X158140575Y-86982500I-123825J0D01*
G01*
X157397625Y-86982500D01*
G75*
G02*
X157273800Y-86858675I0J123825D01*
G01*
G37*
G36*
G01*
X155749800Y-86858675D02*
X155749800Y-86115725D01*
G75*
G02*
X155873625Y-85991900I123825J0D01*
G01*
X156616575Y-85991900D01*
G75*
G02*
X156740400Y-86115725I0J-123825D01*
G01*
X156740400Y-86858675D01*
G75*
G02*
X156616575Y-86982500I-123825J0D01*
G01*
X155873625Y-86982500D01*
G75*
G02*
X155749800Y-86858675I0J123825D01*
G01*
G37*
%TD*%
D23*
%TO.C,MODE1*%
X174842100Y-134686600D03*
X179160100Y-134686600D03*
X179160100Y-127320600D03*
D24*
X174842100Y-127320600D03*
%TD*%
D25*
%TO.C,WELL_TEMP1*%
X150911100Y-86313600D03*
X148371100Y-86313600D03*
%TD*%
D26*
%TO.C,JACK1*%
X112391100Y-129403600D03*
X118291100Y-129403600D03*
X115291100Y-134103600D03*
%TD*%
%TO.C,R2*%
G36*
G01*
X157273800Y-73752275D02*
X157273800Y-73009325D01*
G75*
G02*
X157397625Y-72885500I123825J0D01*
G01*
X158140575Y-72885500D01*
G75*
G02*
X158264400Y-73009325I0J-123825D01*
G01*
X158264400Y-73752275D01*
G75*
G02*
X158140575Y-73876100I-123825J0D01*
G01*
X157397625Y-73876100D01*
G75*
G02*
X157273800Y-73752275I0J123825D01*
G01*
G37*
G36*
G01*
X155749800Y-73752275D02*
X155749800Y-73009325D01*
G75*
G02*
X155873625Y-72885500I123825J0D01*
G01*
X156616575Y-72885500D01*
G75*
G02*
X156740400Y-73009325I0J-123825D01*
G01*
X156740400Y-73752275D01*
G75*
G02*
X156616575Y-73876100I-123825J0D01*
G01*
X155873625Y-73876100D01*
G75*
G02*
X155749800Y-73752275I0J123825D01*
G01*
G37*
%TD*%
%TO.C,R7*%
G36*
G01*
X157273800Y-93411875D02*
X157273800Y-92668925D01*
G75*
G02*
X157397625Y-92545100I123825J0D01*
G01*
X158140575Y-92545100D01*
G75*
G02*
X158264400Y-92668925I0J-123825D01*
G01*
X158264400Y-93411875D01*
G75*
G02*
X158140575Y-93535700I-123825J0D01*
G01*
X157397625Y-93535700D01*
G75*
G02*
X157273800Y-93411875I0J123825D01*
G01*
G37*
G36*
G01*
X155749800Y-93411875D02*
X155749800Y-92668925D01*
G75*
G02*
X155873625Y-92545100I123825J0D01*
G01*
X156616575Y-92545100D01*
G75*
G02*
X156740400Y-92668925I0J-123825D01*
G01*
X156740400Y-93411875D01*
G75*
G02*
X156616575Y-93535700I-123825J0D01*
G01*
X155873625Y-93535700D01*
G75*
G02*
X155749800Y-93411875I0J123825D01*
G01*
G37*
%TD*%
%TO.C,R18*%
G36*
G01*
X125882575Y-78346500D02*
X125139625Y-78346500D01*
G75*
G02*
X125015800Y-78222675I0J123825D01*
G01*
X125015800Y-77479725D01*
G75*
G02*
X125139625Y-77355900I123825J0D01*
G01*
X125882575Y-77355900D01*
G75*
G02*
X126006400Y-77479725I0J-123825D01*
G01*
X126006400Y-78222675D01*
G75*
G02*
X125882575Y-78346500I-123825J0D01*
G01*
G37*
G36*
G01*
X125882575Y-79870500D02*
X125139625Y-79870500D01*
G75*
G02*
X125015800Y-79746675I0J123825D01*
G01*
X125015800Y-79003725D01*
G75*
G02*
X125139625Y-78879900I123825J0D01*
G01*
X125882575Y-78879900D01*
G75*
G02*
X126006400Y-79003725I0J-123825D01*
G01*
X126006400Y-79746675D01*
G75*
G02*
X125882575Y-79870500I-123825J0D01*
G01*
G37*
%TD*%
%TO.C,R20*%
G36*
G01*
X114855800Y-78883075D02*
X114855800Y-78140125D01*
G75*
G02*
X114979625Y-78016300I123825J0D01*
G01*
X115722575Y-78016300D01*
G75*
G02*
X115846400Y-78140125I0J-123825D01*
G01*
X115846400Y-78883075D01*
G75*
G02*
X115722575Y-79006900I-123825J0D01*
G01*
X114979625Y-79006900D01*
G75*
G02*
X114855800Y-78883075I0J123825D01*
G01*
G37*
G36*
G01*
X113331800Y-78883075D02*
X113331800Y-78140125D01*
G75*
G02*
X113455625Y-78016300I123825J0D01*
G01*
X114198575Y-78016300D01*
G75*
G02*
X114322400Y-78140125I0J-123825D01*
G01*
X114322400Y-78883075D01*
G75*
G02*
X114198575Y-79006900I-123825J0D01*
G01*
X113455625Y-79006900D01*
G75*
G02*
X113331800Y-78883075I0J123825D01*
G01*
G37*
%TD*%
%TO.C,R13*%
G36*
G01*
X114855800Y-91583075D02*
X114855800Y-90840125D01*
G75*
G02*
X114979625Y-90716300I123825J0D01*
G01*
X115722575Y-90716300D01*
G75*
G02*
X115846400Y-90840125I0J-123825D01*
G01*
X115846400Y-91583075D01*
G75*
G02*
X115722575Y-91706900I-123825J0D01*
G01*
X114979625Y-91706900D01*
G75*
G02*
X114855800Y-91583075I0J123825D01*
G01*
G37*
G36*
G01*
X113331800Y-91583075D02*
X113331800Y-90840125D01*
G75*
G02*
X113455625Y-90716300I123825J0D01*
G01*
X114198575Y-90716300D01*
G75*
G02*
X114322400Y-90840125I0J-123825D01*
G01*
X114322400Y-91583075D01*
G75*
G02*
X114198575Y-91706900I-123825J0D01*
G01*
X113455625Y-91706900D01*
G75*
G02*
X113331800Y-91583075I0J123825D01*
G01*
G37*
%TD*%
%TO.C,R15*%
G36*
G01*
X114855800Y-86503075D02*
X114855800Y-85760125D01*
G75*
G02*
X114979625Y-85636300I123825J0D01*
G01*
X115722575Y-85636300D01*
G75*
G02*
X115846400Y-85760125I0J-123825D01*
G01*
X115846400Y-86503075D01*
G75*
G02*
X115722575Y-86626900I-123825J0D01*
G01*
X114979625Y-86626900D01*
G75*
G02*
X114855800Y-86503075I0J123825D01*
G01*
G37*
G36*
G01*
X113331800Y-86503075D02*
X113331800Y-85760125D01*
G75*
G02*
X113455625Y-85636300I123825J0D01*
G01*
X114198575Y-85636300D01*
G75*
G02*
X114322400Y-85760125I0J-123825D01*
G01*
X114322400Y-86503075D01*
G75*
G02*
X114198575Y-86626900I-123825J0D01*
G01*
X113455625Y-86626900D01*
G75*
G02*
X113331800Y-86503075I0J123825D01*
G01*
G37*
%TD*%
%TO.C,R16*%
G36*
G01*
X114855800Y-89043075D02*
X114855800Y-88300125D01*
G75*
G02*
X114979625Y-88176300I123825J0D01*
G01*
X115722575Y-88176300D01*
G75*
G02*
X115846400Y-88300125I0J-123825D01*
G01*
X115846400Y-89043075D01*
G75*
G02*
X115722575Y-89166900I-123825J0D01*
G01*
X114979625Y-89166900D01*
G75*
G02*
X114855800Y-89043075I0J123825D01*
G01*
G37*
G36*
G01*
X113331800Y-89043075D02*
X113331800Y-88300125D01*
G75*
G02*
X113455625Y-88176300I123825J0D01*
G01*
X114198575Y-88176300D01*
G75*
G02*
X114322400Y-88300125I0J-123825D01*
G01*
X114322400Y-89043075D01*
G75*
G02*
X114198575Y-89166900I-123825J0D01*
G01*
X113455625Y-89166900D01*
G75*
G02*
X113331800Y-89043075I0J123825D01*
G01*
G37*
%TD*%
D27*
%TO.C,RELAY1*%
X130280300Y-100065000D03*
X134680300Y-120265000D03*
D28*
X137930300Y-118165000D03*
X137930300Y-113665000D03*
X127030300Y-106665000D03*
X127030300Y-102165000D03*
D29*
X129380300Y-110165000D03*
X138880300Y-110165000D03*
%TD*%
D30*
%TO.C,D1*%
X123066700Y-99712800D03*
X118982700Y-99712800D03*
%TD*%
%TO.C,D2*%
X128599900Y-125628600D03*
X132683900Y-125628600D03*
%TD*%
%TO.C,R11*%
G36*
G01*
X112947625Y-100368300D02*
X113690575Y-100368300D01*
G75*
G02*
X113814400Y-100492125I0J-123825D01*
G01*
X113814400Y-101235075D01*
G75*
G02*
X113690575Y-101358900I-123825J0D01*
G01*
X112947625Y-101358900D01*
G75*
G02*
X112823800Y-101235075I0J123825D01*
G01*
X112823800Y-100492125D01*
G75*
G02*
X112947625Y-100368300I123825J0D01*
G01*
G37*
G36*
G01*
X112947625Y-98844300D02*
X113690575Y-98844300D01*
G75*
G02*
X113814400Y-98968125I0J-123825D01*
G01*
X113814400Y-99711075D01*
G75*
G02*
X113690575Y-99834900I-123825J0D01*
G01*
X112947625Y-99834900D01*
G75*
G02*
X112823800Y-99711075I0J123825D01*
G01*
X112823800Y-98968125D01*
G75*
G02*
X112947625Y-98844300I123825J0D01*
G01*
G37*
%TD*%
%TO.C,R12*%
G36*
G01*
X139623975Y-123660100D02*
X138881025Y-123660100D01*
G75*
G02*
X138757200Y-123536275I0J123825D01*
G01*
X138757200Y-122793325D01*
G75*
G02*
X138881025Y-122669500I123825J0D01*
G01*
X139623975Y-122669500D01*
G75*
G02*
X139747800Y-122793325I0J-123825D01*
G01*
X139747800Y-123536275D01*
G75*
G02*
X139623975Y-123660100I-123825J0D01*
G01*
G37*
G36*
G01*
X139623975Y-125184100D02*
X138881025Y-125184100D01*
G75*
G02*
X138757200Y-125060275I0J123825D01*
G01*
X138757200Y-124317325D01*
G75*
G02*
X138881025Y-124193500I123825J0D01*
G01*
X139623975Y-124193500D01*
G75*
G02*
X139747800Y-124317325I0J-123825D01*
G01*
X139747800Y-125060275D01*
G75*
G02*
X139623975Y-125184100I-123825J0D01*
G01*
G37*
%TD*%
D31*
%TO.C,ESP1*%
X163421100Y-80305600D03*
X163421100Y-82305600D03*
X163421100Y-84305600D03*
X163421100Y-86305600D03*
X163421100Y-88305600D03*
X163421100Y-90305600D03*
D32*
X164901100Y-77305600D03*
X166901100Y-77305600D03*
X168901100Y-77305600D03*
X170901100Y-77305600D03*
X172901100Y-77305600D03*
X176901100Y-77305600D03*
X174901100Y-77305600D03*
X178901100Y-77305600D03*
X178901100Y-93305600D03*
X176901100Y-93305600D03*
X174901100Y-93305600D03*
X172901100Y-93305600D03*
X170901100Y-93305600D03*
X168901100Y-93305600D03*
X166901100Y-93305600D03*
X164901100Y-93305600D03*
%TD*%
%TO.C,R4*%
G36*
G01*
X157273800Y-78121075D02*
X157273800Y-77378125D01*
G75*
G02*
X157397625Y-77254300I123825J0D01*
G01*
X158140575Y-77254300D01*
G75*
G02*
X158264400Y-77378125I0J-123825D01*
G01*
X158264400Y-78121075D01*
G75*
G02*
X158140575Y-78244900I-123825J0D01*
G01*
X157397625Y-78244900D01*
G75*
G02*
X157273800Y-78121075I0J123825D01*
G01*
G37*
G36*
G01*
X155749800Y-78121075D02*
X155749800Y-77378125D01*
G75*
G02*
X155873625Y-77254300I123825J0D01*
G01*
X156616575Y-77254300D01*
G75*
G02*
X156740400Y-77378125I0J-123825D01*
G01*
X156740400Y-78121075D01*
G75*
G02*
X156616575Y-78244900I-123825J0D01*
G01*
X155873625Y-78244900D01*
G75*
G02*
X155749800Y-78121075I0J123825D01*
G01*
G37*
%TD*%
%TO.C,R5*%
G36*
G01*
X156740400Y-88300125D02*
X156740400Y-89043075D01*
G75*
G02*
X156616575Y-89166900I-123825J0D01*
G01*
X155873625Y-89166900D01*
G75*
G02*
X155749800Y-89043075I0J123825D01*
G01*
X155749800Y-88300125D01*
G75*
G02*
X155873625Y-88176300I123825J0D01*
G01*
X156616575Y-88176300D01*
G75*
G02*
X156740400Y-88300125I0J-123825D01*
G01*
G37*
G36*
G01*
X158264400Y-88300125D02*
X158264400Y-89043075D01*
G75*
G02*
X158140575Y-89166900I-123825J0D01*
G01*
X157397625Y-89166900D01*
G75*
G02*
X157273800Y-89043075I0J123825D01*
G01*
X157273800Y-88300125D01*
G75*
G02*
X157397625Y-88176300I123825J0D01*
G01*
X158140575Y-88176300D01*
G75*
G02*
X158264400Y-88300125I0J-123825D01*
G01*
G37*
%TD*%
%TO.C,R6*%
G36*
G01*
X157273800Y-91227475D02*
X157273800Y-90484525D01*
G75*
G02*
X157397625Y-90360700I123825J0D01*
G01*
X158140575Y-90360700D01*
G75*
G02*
X158264400Y-90484525I0J-123825D01*
G01*
X158264400Y-91227475D01*
G75*
G02*
X158140575Y-91351300I-123825J0D01*
G01*
X157397625Y-91351300D01*
G75*
G02*
X157273800Y-91227475I0J123825D01*
G01*
G37*
G36*
G01*
X155749800Y-91227475D02*
X155749800Y-90484525D01*
G75*
G02*
X155873625Y-90360700I123825J0D01*
G01*
X156616575Y-90360700D01*
G75*
G02*
X156740400Y-90484525I0J-123825D01*
G01*
X156740400Y-91227475D01*
G75*
G02*
X156616575Y-91351300I-123825J0D01*
G01*
X155873625Y-91351300D01*
G75*
G02*
X155749800Y-91227475I0J123825D01*
G01*
G37*
%TD*%
%TO.C,R3*%
G36*
G01*
X157273800Y-75936675D02*
X157273800Y-75193725D01*
G75*
G02*
X157397625Y-75069900I123825J0D01*
G01*
X158140575Y-75069900D01*
G75*
G02*
X158264400Y-75193725I0J-123825D01*
G01*
X158264400Y-75936675D01*
G75*
G02*
X158140575Y-76060500I-123825J0D01*
G01*
X157397625Y-76060500D01*
G75*
G02*
X157273800Y-75936675I0J123825D01*
G01*
G37*
G36*
G01*
X155749800Y-75936675D02*
X155749800Y-75193725D01*
G75*
G02*
X155873625Y-75069900I123825J0D01*
G01*
X156616575Y-75069900D01*
G75*
G02*
X156740400Y-75193725I0J-123825D01*
G01*
X156740400Y-75936675D01*
G75*
G02*
X156616575Y-76060500I-123825J0D01*
G01*
X155873625Y-76060500D01*
G75*
G02*
X155749800Y-75936675I0J123825D01*
G01*
G37*
%TD*%
%TO.C,CP1*%
G36*
G01*
X163899400Y-74736725D02*
X163899400Y-75479675D01*
G75*
G02*
X163775575Y-75603500I-123825J0D01*
G01*
X163032625Y-75603500D01*
G75*
G02*
X162908800Y-75479675I0J123825D01*
G01*
X162908800Y-74736725D01*
G75*
G02*
X163032625Y-74612900I123825J0D01*
G01*
X163775575Y-74612900D01*
G75*
G02*
X163899400Y-74736725I0J-123825D01*
G01*
G37*
G36*
G01*
X165423400Y-74736725D02*
X165423400Y-75479675D01*
G75*
G02*
X165299575Y-75603500I-123825J0D01*
G01*
X164556625Y-75603500D01*
G75*
G02*
X164432800Y-75479675I0J123825D01*
G01*
X164432800Y-74736725D01*
G75*
G02*
X164556625Y-74612900I123825J0D01*
G01*
X165299575Y-74612900D01*
G75*
G02*
X165423400Y-74736725I0J-123825D01*
G01*
G37*
%TD*%
%TO.C,RL1*%
G36*
G01*
X142541800Y-81423075D02*
X142541800Y-80680125D01*
G75*
G02*
X142665625Y-80556300I123825J0D01*
G01*
X143408575Y-80556300D01*
G75*
G02*
X143532400Y-80680125I0J-123825D01*
G01*
X143532400Y-81423075D01*
G75*
G02*
X143408575Y-81546900I-123825J0D01*
G01*
X142665625Y-81546900D01*
G75*
G02*
X142541800Y-81423075I0J123825D01*
G01*
G37*
G36*
G01*
X141017800Y-81423075D02*
X141017800Y-80680125D01*
G75*
G02*
X141141625Y-80556300I123825J0D01*
G01*
X141884575Y-80556300D01*
G75*
G02*
X142008400Y-80680125I0J-123825D01*
G01*
X142008400Y-81423075D01*
G75*
G02*
X141884575Y-81546900I-123825J0D01*
G01*
X141141625Y-81546900D01*
G75*
G02*
X141017800Y-81423075I0J123825D01*
G01*
G37*
%TD*%
D33*
%TO.C,C2*%
X135874300Y-92212100D03*
X135874300Y-89291100D03*
%TD*%
D34*
%TO.C,ESP2*%
X174407100Y-111103600D03*
D35*
X180977100Y-119678600D03*
X179477100Y-119678600D03*
X177977100Y-119678600D03*
X176477100Y-119678600D03*
X174977100Y-119678600D03*
X173477100Y-119678600D03*
X171977100Y-119678600D03*
X170477100Y-119678600D03*
X168977100Y-119678600D03*
X168977100Y-102528600D03*
X170477100Y-102528600D03*
X171977100Y-102528600D03*
X173477100Y-102528600D03*
X174977100Y-102528600D03*
X176477100Y-102528600D03*
X177977100Y-102528600D03*
X179477100Y-102528600D03*
X180977100Y-102528600D03*
%TD*%
%TO.C,CP2*%
G36*
G01*
X182842200Y-100552075D02*
X182842200Y-99809125D01*
G75*
G02*
X182966025Y-99685300I123825J0D01*
G01*
X183708975Y-99685300D01*
G75*
G02*
X183832800Y-99809125I0J-123825D01*
G01*
X183832800Y-100552075D01*
G75*
G02*
X183708975Y-100675900I-123825J0D01*
G01*
X182966025Y-100675900D01*
G75*
G02*
X182842200Y-100552075I0J123825D01*
G01*
G37*
G36*
G01*
X181318200Y-100552075D02*
X181318200Y-99809125D01*
G75*
G02*
X181442025Y-99685300I123825J0D01*
G01*
X182184975Y-99685300D01*
G75*
G02*
X182308800Y-99809125I0J-123825D01*
G01*
X182308800Y-100552075D01*
G75*
G02*
X182184975Y-100675900I-123825J0D01*
G01*
X181442025Y-100675900D01*
G75*
G02*
X181318200Y-100552075I0J123825D01*
G01*
G37*
%TD*%
%TO.C,U$3*%
G36*
G01*
X186725100Y-75039800D02*
X186725100Y-75039800D01*
G75*
G02*
X187275900Y-75590600I0J-550800D01*
G01*
X187275900Y-75590600D01*
G75*
G02*
X186725100Y-76141400I-550800J0D01*
G01*
X186725100Y-76141400D01*
G75*
G02*
X186174300Y-75590600I0J550800D01*
G01*
X186174300Y-75590600D01*
G75*
G02*
X186725100Y-75039800I550800J0D01*
G01*
G37*
%TD*%
%TO.C,U$4*%
G36*
G01*
X115257500Y-140360600D02*
X115257500Y-140360600D01*
G75*
G02*
X115808300Y-139809800I550800J0D01*
G01*
X115808300Y-139809800D01*
G75*
G02*
X116359100Y-140360600I0J-550800D01*
G01*
X116359100Y-140360600D01*
G75*
G02*
X115808300Y-140911400I-550800J0D01*
G01*
X115808300Y-140911400D01*
G75*
G02*
X115257500Y-140360600I0J550800D01*
G01*
G37*
%TD*%
%TO.C,U$5*%
G36*
G01*
X180459300Y-140233600D02*
X180459300Y-140233600D01*
G75*
G02*
X181010100Y-139682800I550800J0D01*
G01*
X181010100Y-139682800D01*
G75*
G02*
X181560900Y-140233600I0J-550800D01*
G01*
X181560900Y-140233600D01*
G75*
G02*
X181010100Y-140784400I-550800J0D01*
G01*
X181010100Y-140784400D01*
G75*
G02*
X180459300Y-140233600I0J550800D01*
G01*
G37*
%TD*%
%TO.C,R10*%
G36*
G01*
X156740400Y-83931325D02*
X156740400Y-84674275D01*
G75*
G02*
X156616575Y-84798100I-123825J0D01*
G01*
X155873625Y-84798100D01*
G75*
G02*
X155749800Y-84674275I0J123825D01*
G01*
X155749800Y-83931325D01*
G75*
G02*
X155873625Y-83807500I123825J0D01*
G01*
X156616575Y-83807500D01*
G75*
G02*
X156740400Y-83931325I0J-123825D01*
G01*
G37*
G36*
G01*
X158264400Y-83931325D02*
X158264400Y-84674275D01*
G75*
G02*
X158140575Y-84798100I-123825J0D01*
G01*
X157397625Y-84798100D01*
G75*
G02*
X157273800Y-84674275I0J123825D01*
G01*
X157273800Y-83931325D01*
G75*
G02*
X157397625Y-83807500I123825J0D01*
G01*
X158140575Y-83807500D01*
G75*
G02*
X158264400Y-83931325I0J-123825D01*
G01*
G37*
%TD*%
D36*
%TO.C,Q4*%
X115097100Y-99212600D03*
X115097100Y-100990600D03*
X117129100Y-100101600D03*
%TD*%
%TO.C,Q5*%
X137195100Y-126517600D03*
X137195100Y-124739600D03*
X135163100Y-125628600D03*
%TD*%
%TO.C,Q6*%
X113573100Y-95402600D03*
X113573100Y-97180600D03*
X115605100Y-96291600D03*
%TD*%
%TO.C,Q2*%
X134028500Y-80979600D03*
X134028500Y-82757600D03*
X136060500Y-81868600D03*
%TD*%
%TO.C,Q3*%
X113573100Y-80162600D03*
X113573100Y-81940600D03*
X115605100Y-81051600D03*
%TD*%
D25*
%TO.C,SERIAL6*%
X147685300Y-128321000D03*
X150225300Y-128321000D03*
X152765300Y-128321000D03*
X155305300Y-128321000D03*
X157845300Y-128321000D03*
X160385300Y-128321000D03*
%TD*%
D29*
%TO.C,HEATSINK1*%
X125304900Y-89409400D03*
%TD*%
D37*
%TO.C,Q1*%
X119764900Y-91949400D03*
X119764900Y-89409400D03*
X119764900Y-86869400D03*
%TD*%
D38*
%TO.C,ESP3*%
X184965500Y-123664600D03*
X182425500Y-123664600D03*
X179885500Y-123664600D03*
X177345500Y-123664600D03*
X174805500Y-123664600D03*
X172265500Y-123664600D03*
X169725500Y-123664600D03*
X167185500Y-123664600D03*
X164645500Y-123664600D03*
X164645500Y-98264600D03*
X167185500Y-98264600D03*
X169725500Y-98264600D03*
X172265500Y-98264600D03*
X174805500Y-98264600D03*
X177345500Y-98264600D03*
X179885500Y-98264600D03*
X182425500Y-98264600D03*
X184965500Y-98264600D03*
%TD*%
%TO.C,U$7*%
G36*
G01*
X109618700Y-73660200D02*
X109618700Y-73660200D01*
G75*
G02*
X110169500Y-73109400I550800J0D01*
G01*
X110169500Y-73109400D01*
G75*
G02*
X110720300Y-73660200I0J-550800D01*
G01*
X110720300Y-73660200D01*
G75*
G02*
X110169500Y-74211000I-550800J0D01*
G01*
X110169500Y-74211000D01*
G75*
G02*
X109618700Y-73660200I0J550800D01*
G01*
G37*
%TD*%
%TO.C,U$8*%
G36*
G01*
X167167100Y-119362800D02*
X167167100Y-119362800D01*
G75*
G02*
X167717900Y-119913600I0J-550800D01*
G01*
X167717900Y-119913600D01*
G75*
G02*
X167167100Y-120464400I-550800J0D01*
G01*
X167167100Y-120464400D01*
G75*
G02*
X166616300Y-119913600I0J550800D01*
G01*
X166616300Y-119913600D01*
G75*
G02*
X167167100Y-119362800I550800J0D01*
G01*
G37*
%TD*%
%TO.C,U$9*%
G36*
G01*
X162468100Y-94343800D02*
X162468100Y-94343800D01*
G75*
G02*
X163018900Y-94894600I0J-550800D01*
G01*
X163018900Y-94894600D01*
G75*
G02*
X162468100Y-95445400I-550800J0D01*
G01*
X162468100Y-95445400D01*
G75*
G02*
X161917300Y-94894600I0J550800D01*
G01*
X161917300Y-94894600D01*
G75*
G02*
X162468100Y-94343800I550800J0D01*
G01*
G37*
%TD*%
%TO.C,U$10*%
G36*
G01*
X186852100Y-100439800D02*
X186852100Y-100439800D01*
G75*
G02*
X187402900Y-100990600I0J-550800D01*
G01*
X187402900Y-100990600D01*
G75*
G02*
X186852100Y-101541400I-550800J0D01*
G01*
X186852100Y-101541400D01*
G75*
G02*
X186301300Y-100990600I0J550800D01*
G01*
X186301300Y-100990600D01*
G75*
G02*
X186852100Y-100439800I550800J0D01*
G01*
G37*
%TD*%
%TO.C,R14*%
G36*
G01*
X114855800Y-94123075D02*
X114855800Y-93380125D01*
G75*
G02*
X114979625Y-93256300I123825J0D01*
G01*
X115722575Y-93256300D01*
G75*
G02*
X115846400Y-93380125I0J-123825D01*
G01*
X115846400Y-94123075D01*
G75*
G02*
X115722575Y-94246900I-123825J0D01*
G01*
X114979625Y-94246900D01*
G75*
G02*
X114855800Y-94123075I0J123825D01*
G01*
G37*
G36*
G01*
X113331800Y-94123075D02*
X113331800Y-93380125D01*
G75*
G02*
X113455625Y-93256300I123825J0D01*
G01*
X114198575Y-93256300D01*
G75*
G02*
X114322400Y-93380125I0J-123825D01*
G01*
X114322400Y-94123075D01*
G75*
G02*
X114198575Y-94246900I-123825J0D01*
G01*
X113455625Y-94246900D01*
G75*
G02*
X113331800Y-94123075I0J123825D01*
G01*
G37*
%TD*%
%TO.C,R21*%
G36*
G01*
X114855800Y-83963075D02*
X114855800Y-83220125D01*
G75*
G02*
X114979625Y-83096300I123825J0D01*
G01*
X115722575Y-83096300D01*
G75*
G02*
X115846400Y-83220125I0J-123825D01*
G01*
X115846400Y-83963075D01*
G75*
G02*
X115722575Y-84086900I-123825J0D01*
G01*
X114979625Y-84086900D01*
G75*
G02*
X114855800Y-83963075I0J123825D01*
G01*
G37*
G36*
G01*
X113331800Y-83963075D02*
X113331800Y-83220125D01*
G75*
G02*
X113455625Y-83096300I123825J0D01*
G01*
X114198575Y-83096300D01*
G75*
G02*
X114322400Y-83220125I0J-123825D01*
G01*
X114322400Y-83963075D01*
G75*
G02*
X114198575Y-84086900I-123825J0D01*
G01*
X113455625Y-84086900D01*
G75*
G02*
X113331800Y-83963075I0J123825D01*
G01*
G37*
%TD*%
D14*
%TO.C,PELTIER1*%
X146526100Y-106532800D03*
D15*
X143026100Y-106532800D03*
%TD*%
D39*
%TO.C,DIN4*%
X113751100Y-114503600D03*
X113751100Y-109503600D03*
D40*
X121801100Y-119703600D03*
X113301100Y-119703600D03*
X113301100Y-104303600D03*
X121801100Y-104303600D03*
D41*
X111701100Y-112003600D03*
D42*
X117101100Y-114503600D03*
X117101100Y-109503600D03*
X120851100Y-114753600D03*
X120851100Y-109253600D03*
%TD*%
D25*
%TO.C,IO0*%
X162925300Y-128321000D03*
X165465300Y-128321000D03*
%TD*%
%TO.C,R9*%
G36*
G01*
X156740400Y-81746925D02*
X156740400Y-82489875D01*
G75*
G02*
X156616575Y-82613700I-123825J0D01*
G01*
X155873625Y-82613700D01*
G75*
G02*
X155749800Y-82489875I0J123825D01*
G01*
X155749800Y-81746925D01*
G75*
G02*
X155873625Y-81623100I123825J0D01*
G01*
X156616575Y-81623100D01*
G75*
G02*
X156740400Y-81746925I0J-123825D01*
G01*
G37*
G36*
G01*
X158264400Y-81746925D02*
X158264400Y-82489875D01*
G75*
G02*
X158140575Y-82613700I-123825J0D01*
G01*
X157397625Y-82613700D01*
G75*
G02*
X157273800Y-82489875I0J123825D01*
G01*
X157273800Y-81746925D01*
G75*
G02*
X157397625Y-81623100I123825J0D01*
G01*
X158140575Y-81623100D01*
G75*
G02*
X158264400Y-81746925I0J-123825D01*
G01*
G37*
%TD*%
%TO.C,RESET1*%
X168005300Y-128321000D03*
X170545300Y-128321000D03*
%TD*%
%TO.C,SERIAL4*%
X156575300Y-120193000D03*
X159115300Y-120193000D03*
X161655300Y-120193000D03*
X164195300Y-120193000D03*
%TD*%
%TO.C,R22*%
G36*
G01*
X161417175Y-78575100D02*
X160674225Y-78575100D01*
G75*
G02*
X160550400Y-78451275I0J123825D01*
G01*
X160550400Y-77708325D01*
G75*
G02*
X160674225Y-77584500I123825J0D01*
G01*
X161417175Y-77584500D01*
G75*
G02*
X161541000Y-77708325I0J-123825D01*
G01*
X161541000Y-78451275D01*
G75*
G02*
X161417175Y-78575100I-123825J0D01*
G01*
G37*
G36*
G01*
X161417175Y-80099100D02*
X160674225Y-80099100D01*
G75*
G02*
X160550400Y-79975275I0J123825D01*
G01*
X160550400Y-79232325D01*
G75*
G02*
X160674225Y-79108500I123825J0D01*
G01*
X161417175Y-79108500D01*
G75*
G02*
X161541000Y-79232325I0J-123825D01*
G01*
X161541000Y-79975275D01*
G75*
G02*
X161417175Y-80099100I-123825J0D01*
G01*
G37*
%TD*%
%TO.C,C5*%
G36*
G01*
X161417175Y-82512100D02*
X160674225Y-82512100D01*
G75*
G02*
X160550400Y-82388275I0J123825D01*
G01*
X160550400Y-81645325D01*
G75*
G02*
X160674225Y-81521500I123825J0D01*
G01*
X161417175Y-81521500D01*
G75*
G02*
X161541000Y-81645325I0J-123825D01*
G01*
X161541000Y-82388275D01*
G75*
G02*
X161417175Y-82512100I-123825J0D01*
G01*
G37*
G36*
G01*
X161417175Y-84036100D02*
X160674225Y-84036100D01*
G75*
G02*
X160550400Y-83912275I0J123825D01*
G01*
X160550400Y-83169325D01*
G75*
G02*
X160674225Y-83045500I123825J0D01*
G01*
X161417175Y-83045500D01*
G75*
G02*
X161541000Y-83169325I0J-123825D01*
G01*
X161541000Y-83912275D01*
G75*
G02*
X161417175Y-84036100I-123825J0D01*
G01*
G37*
%TD*%
D43*
%TO.C,IC1*%
X149835300Y-93658000D03*
X147935300Y-93658000D03*
X147935300Y-91270400D03*
X148885300Y-91270400D03*
X149835300Y-91270400D03*
%TD*%
M02*
