0
SECTION
2
HEADER
9
$INSUNITS
70
4
9
$ACADVER
1
AC1014
9
$HANDSEED
5
FFFF
0
ENDSEC
0
SECTION
2
TABLES
0
TABLE
2
VPORT
5
8
100
AcDbSymbolTable
0
ENDTAB
0
TABLE
2
LTYPE
5
5
100
AcDbSymbolTable
0
LTYPE
5
14
100
AcDbSymbolTableRecord
100
AcDbLinetypeTableRecord
2
BYBLOCK
70
0
0
LTYPE
5
15
100
AcDbSymbolTableRecord
100
AcDbLinetypeTableRecord
2
BYLAYER
70
0
0
ENDTAB
0
TABLE
2
LAYER
5
2
100
AcDbSymbolTable
70
2
0
LAYER
5
50
100
AcDbSymbolTableRecord
100
AcDbLayerTableRecord
2
0
70
0
6
CONTINUOUS
0
ENDTAB
0
TABLE
2
STYLE
5
3
100
AcDbSymbolTable
70
1
0
STYLE
5
11
100
AcDbSymbolTableRecord
100
AcDbTextStyleTableRecord
2
STANDARD
70
0
0
ENDTAB
0
TABLE
2
VIEW
5
6
100
AcDbSymbolTable
70
0
0
ENDTAB
0
TABLE
2
UCS
5
7
100
AcDbSymbolTable
70
0
0
ENDTAB
0
TABLE
2
APPID
5
9
100
AcDbSymbolTable
70
2
0
APPID
5
12
100
AcDbSymbolTableRecord
100
AcDbRegAppTableRecord
2
ACAD
70
0
0
ENDTAB
0
TABLE
2
DIMSTYLE
5
A
100
AcDbSymbolTable
70
1
0
ENDTAB
0
TABLE
2
BLOCK_RECORD
5
1
100
AcDbSymbolTable
70
1
0
BLOCK_RECORD
5
1F
100
AcDbSymbolTableRecord
100
AcDbBlockTableRecord
2
*MODEL_SPACE
0
BLOCK_RECORD
5
1B
100
AcDbSymbolTableRecord
100
AcDbBlockTableRecord
2
*PAPER_SPACE
0
ENDTAB
0
ENDSEC
0
SECTION
2
BLOCKS
0
BLOCK
5
20
100
AcDbEntity
100
AcDbBlockBegin
2
*MODEL_SPACE
0
ENDBLK
5
21
100
AcDbEntity
100
AcDbBlockEnd
0
BLOCK
5
1C
100
AcDbEntity
100
AcDbBlockBegin
2
*PAPER_SPACE
0
ENDBLK
5
1D
100
AcDbEntity
100
AcDbBlockEnd
0
ENDSEC
0
SECTION
2
ENTITIES
0
LWPOLYLINE
5
100
100
AcDbEntity
8
0
100
AcDbPolyline
90
4
70
1
43
0.0
10
-46.999999999999972
20
-10.000000000000039
10
-41.499999999999972
20
-10.000000000000039
10
-41.499999999999972
20
9.9999999999999591
10
-46.999999999999972
20
9.9999999999999609
0
LWPOLYLINE
5
101
100
AcDbEntity
8
0
100
AcDbPolyline
90
4
70
1
43
0.0
10
41.499999999999979
20
-10.000000000000039
10
46.999999999999972
20
-10.000000000000039
10
46.999999999999986
20
9.9999999999999591
10
41.499999999999986
20
9.9999999999999609
0
LWPOLYLINE
5
102
100
AcDbEntity
8
0
100
AcDbPolyline
90
8
70
1
43
0.0
10
52.999999999999957
20
-37.499999999999993
42
-0.41421356237309437
10
46.999999999999957
20
-43.5
10
-47.000000000000085
20
-43.500000000000007
42
-0.41421356237309653
10
-53.000000000000085
20
-37.499999999999986
10
-52.999999999999979
20
37.500000000000114
42
-0.41421356237309614
10
-46.999999999999972
20
43.500000000000099
10
47.000000000000064
20
43.499999999999936
42
-0.41421356237309614
10
53.000000000000036
20
37.499999999999943
0
LWPOLYLINE
5
103
100
AcDbEntity
8
0
100
AcDbPolyline
90
4
70
1
43
0.0
10
-27.000000000000014
20
31.999999999999972
10
-27.000000000000014
20
26.499999999999968
10
-9.0000000000000107
20
26.499999999999968
10
-9.0000000000000124
20
31.999999999999972
0
LWPOLYLINE
5
104
100
AcDbEntity
8
0
100
AcDbPolyline
90
4
70
1
43
0.0
10
26.999999999999989
20
26.499999999999968
10
26.999999999999989
20
31.999999999999972
10
8.9999999999999876
20
31.999999999999972
10
8.9999999999999858
20
26.499999999999968
0
LWPOLYLINE
5
105
100
AcDbEntity
8
0
100
AcDbPolyline
90
4
70
1
43
0.0
10
-9.0000000000000373
20
-32.000000000000057
10
-9.0000000000000373
20
-26.500000000000057
10
-27.000000000000043
20
-26.500000000000057
10
-27.000000000000043
20
-32.000000000000057
0
LWPOLYLINE
5
106
100
AcDbEntity
8
0
100
AcDbPolyline
90
4
70
1
43
0.0
10
26.999999999999961
20
-32.000000000000057
10
26.999999999999961
20
-26.500000000000057
10
8.9999999999999645
20
-26.500000000000057
10
8.9999999999999645
20
-32.000000000000057
0
CIRCLE
5
107
100
AcDbEntity
8
0
100
AcDbCircle
10
-32.000000000000007
20
17.000000000000075
30
0
40
1.6000000000000014
0
CIRCLE
5
108
100
AcDbEntity
8
0
100
AcDbCircle
10
31.999999999999989
20
16.999999999999986
30
0
40
1.599999999999997
0
CIRCLE
5
109
100
AcDbEntity
8
0
100
AcDbCircle
10
-32.00000000000005
20
-16.999999999999932
30
0
40
1.6000000000000014
0
CIRCLE
5
110
100
AcDbEntity
8
0
100
AcDbCircle
10
31.999999999999936
20
-17.000000000000025
30
0
40
1.6000000000000014
0
LWPOLYLINE
5
111
100
AcDbEntity
8
0
100
AcDbPolyline
90
6
70
1
43
0.0
10
4.9999999999999662
20
2.8867513459481247
10
-3.4416913763379853e-14
20
5.7735026918963257
10
-5.0000000000000338
20
2.8867513459481255
10
-5.0000000000000338
20
-2.886751345948074
10
-3.3306690738754696e-14
20
-5.7735026918962751
10
4.9999999999999662
20
-2.8867513459480749
0
CIRCLE
5
112
100
AcDbEntity
8
0
100
AcDbCircle
10
22.999999999999989
20
16.999999999999996
30
0
40
3.7000000000000006
0
CIRCLE
5
113
100
AcDbEntity
8
0
100
AcDbCircle
10
-23.00000000000005
20
-16.999999999999943
30
0
40
3.7000000000000046
0
CIRCLE
5
114
100
AcDbEntity
8
0
100
AcDbCircle
10
-23.000000000000007
20
17.00000000000006
30
0
40
3.6999999999999988
0
CIRCLE
5
115
100
AcDbEntity
8
0
100
AcDbCircle
10
22.999999999999936
20
-17.000000000000014
30
0
40
3.7000000000000006
0
ENDSEC
0
SECTION
2
OBJECTS
0
DICTIONARY
5
C
100
AcDbDictionary
3
ACAD_GROUP
350
D
3
ACAD_MLINESTYLE
350
17
0
DICTIONARY
5
D
100
AcDbDictionary
0
DICTIONARY
5
1A
330
C
100
AcDbDictionary
0
DICTIONARY
5
17
100
AcDbDictionary
0
ENDSEC
0
EOF
