0
SECTION
2
HEADER
9
$INSUNITS
70
4
9
$ACADVER
1
AC1014
9
$HANDSEED
5
FFFF
0
ENDSEC
0
SECTION
2
TABLES
0
TABLE
2
VPORT
5
8
100
AcDbSymbolTable
0
ENDTAB
0
TABLE
2
LTYPE
5
5
100
AcDbSymbolTable
0
LTYPE
5
14
100
AcDbSymbolTableRecord
100
AcDbLinetypeTableRecord
2
BYBLOCK
70
0
0
LTYPE
5
15
100
AcDbSymbolTableRecord
100
AcDbLinetypeTableRecord
2
BYLAYER
70
0
0
ENDTAB
0
TABLE
2
LAYER
5
2
100
AcDbSymbolTable
70
2
0
LAYER
5
50
100
AcDbSymbolTableRecord
100
AcDbLayerTableRecord
2
0
70
0
6
CONTINUOUS
0
ENDTAB
0
TABLE
2
STYLE
5
3
100
AcDbSymbolTable
70
1
0
STYLE
5
11
100
AcDbSymbolTableRecord
100
AcDbTextStyleTableRecord
2
STANDARD
70
0
0
ENDTAB
0
TABLE
2
VIEW
5
6
100
AcDbSymbolTable
70
0
0
ENDTAB
0
TABLE
2
UCS
5
7
100
AcDbSymbolTable
70
0
0
ENDTAB
0
TABLE
2
APPID
5
9
100
AcDbSymbolTable
70
2
0
APPID
5
12
100
AcDbSymbolTableRecord
100
AcDbRegAppTableRecord
2
ACAD
70
0
0
ENDTAB
0
TABLE
2
DIMSTYLE
5
A
100
AcDbSymbolTable
70
1
0
ENDTAB
0
TABLE
2
BLOCK_RECORD
5
1
100
AcDbSymbolTable
70
1
0
BLOCK_RECORD
5
1F
100
AcDbSymbolTableRecord
100
AcDbBlockTableRecord
2
*MODEL_SPACE
0
BLOCK_RECORD
5
1B
100
AcDbSymbolTableRecord
100
AcDbBlockTableRecord
2
*PAPER_SPACE
0
ENDTAB
0
ENDSEC
0
SECTION
2
BLOCKS
0
BLOCK
5
20
100
AcDbEntity
100
AcDbBlockBegin
2
*MODEL_SPACE
0
ENDBLK
5
21
100
AcDbEntity
100
AcDbBlockEnd
0
BLOCK
5
1C
100
AcDbEntity
100
AcDbBlockBegin
2
*PAPER_SPACE
0
ENDBLK
5
1D
100
AcDbEntity
100
AcDbBlockEnd
0
ENDSEC
0
SECTION
2
ENTITIES
0
CIRCLE
5
100
100
AcDbEntity
8
0
100
AcDbCircle
10
46.500000000000014
20
38.5
30
0
40
2.5
0
CIRCLE
5
101
100
AcDbEntity
8
0
100
AcDbCircle
10
-46.5
20
38.5
30
0
40
2.5
0
CIRCLE
5
102
100
AcDbEntity
8
0
100
AcDbCircle
10
46.499999999999993
20
-38.499999999999993
30
0
40
2.5
0
CIRCLE
5
103
100
AcDbEntity
8
0
100
AcDbCircle
10
-46.5
20
-38.500000000000021
30
0
40
2.5
0
LWPOLYLINE
5
104
100
AcDbEntity
8
0
100
AcDbPolyline
90
60
70
1
43
0.0
10
53.000000000000007
20
-40
42
-0.41421356237309553
10
48
20
-45
10
25.500000000000114
20
-45
42
-0.41421356237309298
10
23.000000000000114
20
-42.500000000000014
42
0.41421356237309448
10
20.500000000000114
20
-40.000000000000014
10
15.500000000000114
20
-40.000000000000014
42
-0.41421356237309603
10
13.000000000000114
20
-37.500000000000007
42
0.41421356237309553
10
10.50000000000011
20
-35.000000000000007
10
-10.500000000000123
20
-35.000000000000007
42
0.41421356237309603
10
-13.000000000000123
20
-37.500000000000014
42
-0.41421356237309448
10
-15.500000000000117
20
-40.000000000000014
10
-20.500000000000117
20
-40.000000000000014
42
0.41421356237309087
10
-23.000000000000114
20
-42.5
42
-0.41421356237309553
10
-25.500000000000117
20
-45
10
-48.000000000000007
20
-45.000000000000007
42
-0.41421356237309509
10
-53
20
-40.000000000000014
10
-53.000000000000007
20
-28.000000000000121
42
-0.41421356237309476
10
-48
20
-23.000000000000121
10
-42.500000000000007
20
-23.000000000000121
42
0.41421356237309342
10
-40
20
-20.500000000000121
10
-40.000000000000014
20
-15.500000000000121
42
-0.41421356237309603
10
-37.500000000000007
20
-13.000000000000121
42
0.41421356237309553
10
-35.000000000000007
20
-10.500000000000121
10
-34.999999999999993
20
10.500000000000107
42
0.41421356237309581
10
-37.5
20
13.000000000000112
42
-0.41421356237309476
10
-40
20
15.500000000000105
10
-40.000000000000007
20
20.500000000000107
42
0.41421356237309448
10
-42.5
20
23.000000000000107
10
-48.000000000000007
20
23.00000000000011
42
-0.41421356237309426
10
-53
20
28.000000000000107
10
-52.999999999999986
20
39.999999999999993
42
-0.41421356237309509
10
-48
20
44.999999999999993
10
-25.500000000000114
20
44.999999999999993
42
-0.41421356237309404
10
-23.000000000000114
20
42.5
42
0.41421356237309404
10
-20.500000000000117
20
40
10
-15.500000000000114
20
40
42
-0.41421356237309603
10
-13.000000000000114
20
37.499999999999993
42
0.4142135623730937
10
-10.500000000000121
20
34.999999999999993
10
10.500000000000115
20
34.999999999999993
42
0.41421356237309637
10
13.000000000000117
20
37.5
42
-0.41421356237309509
10
15.500000000000117
20
40
10
20.500000000000114
20
40
42
0.41421356237309404
10
23.000000000000107
20
42.499999999999993
42
-0.41421356237309509
10
25.500000000000114
20
45
10
48.000000000000007
20
44.999999999999993
42
-0.41421356237309509
10
53
20
40
10
53.000000000000007
20
28.000000000000107
42
-0.41421356237309476
10
48
20
23.000000000000107
10
42.500000000000007
20
23.000000000000107
42
0.41421356237309342
10
40.000000000000007
20
20.500000000000107
10
40.000000000000014
20
15.500000000000107
42
-0.41421356237309659
10
37.5
20
13.000000000000107
42
0.41421356237309476
10
35
20
10.500000000000105
10
34.999999999999993
20
-10.500000000000117
42
0.41421356237309637
10
37.5
20
-13.000000000000115
42
-0.41421356237309526
10
40.000000000000007
20
-15.500000000000123
10
40.000000000000007
20
-20.500000000000114
42
0.41421356237309448
10
42.500000000000007
20
-23.000000000000114
10
48.000000000000007
20
-23.000000000000117
42
-0.41421356237309426
10
53
20
-28.000000000000114
0
LWPOLYLINE
5
105
100
AcDbEntity
8
0
100
AcDbPolyline
90
24
70
1
43
0.0
10
-1.5882958468492969
20
26.749999992928508
10
-3.1760090871207591
20
23.999999992928522
10
-18.999999999999993
20
23.999999992928522
42
0.41421356237309448
10
-23.999999999999989
20
18.999999992928526
10
-23.999999999999989
20
3.1748438698823911
10
-26.749999992928529
20
1.5871306336936364
10
-26.749999992928529
20
-1.5882958468493058
10
-23.999999999999989
20
-3.1760090830380694
10
-23.999999999999993
20
-18.999999992928529
42
0.41421356237309476
10
-18.999999999999989
20
-23.999999992928529
10
-3.1748438739650986
20
-23.999999992928529
10
-1.5871306336936364
20
-26.749999992928515
10
1.5882958468493058
20
-26.749999992928515
10
3.1760090871207725
20
-23.999999992928529
10
18.999999999999993
20
-23.999999992928526
42
0.41421356237309465
10
23.999999999999993
20
-18.999999992928529
10
23.999999999999993
20
-3.1748438698823822
10
26.749999992928505
20
-1.5871306336936408
10
26.749999992928512
20
1.5882958468493058
10
23.999999999999993
20
3.176009083038065
10
23.999999999999993
20
18.999999992928526
42
0.41421356237309448
10
18.999999999999993
20
23.999999992928522
10
3.174843873965103
20
23.999999992928522
10
1.5871306336936453
20
26.749999992928508
0
CIRCLE
5
106
100
AcDbEntity
8
0
100
AcDbCircle
10
36.125
20
36.075000000000003
30
0
40
2.1499999999999986
0
CIRCLE
5
107
100
AcDbEntity
8
0
100
AcDbCircle
10
-36.125
20
36.075000000000003
30
0
40
2.1499999999999986
0
CIRCLE
5
108
100
AcDbEntity
8
0
100
AcDbCircle
10
-36.125
20
-36.07500000000001
30
0
40
2.1499999999999986
0
CIRCLE
5
109
100
AcDbEntity
8
0
100
AcDbCircle
10
36.125
20
-36.07500000000001
30
0
40
2.1499999999999986
0
ENDSEC
0
SECTION
2
OBJECTS
0
DICTIONARY
5
C
100
AcDbDictionary
3
ACAD_GROUP
350
D
3
ACAD_MLINESTYLE
350
17
0
DICTIONARY
5
D
100
AcDbDictionary
0
DICTIONARY
5
1A
330
C
100
AcDbDictionary
0
DICTIONARY
5
17
100
AcDbDictionary
0
ENDSEC
0
EOF
