0
SECTION
2
HEADER
9
$INSUNITS
70
4
9
$ACADVER
1
AC1014
9
$HANDSEED
5
FFFF
0
ENDSEC
0
SECTION
2
TABLES
0
TABLE
2
VPORT
5
8
100
AcDbSymbolTable
0
ENDTAB
0
TABLE
2
LTYPE
5
5
100
AcDbSymbolTable
0
LTYPE
5
14
100
AcDbSymbolTableRecord
100
AcDbLinetypeTableRecord
2
BYBLOCK
70
0
0
LTYPE
5
15
100
AcDbSymbolTableRecord
100
AcDbLinetypeTableRecord
2
BYLAYER
70
0
0
ENDTAB
0
TABLE
2
LAYER
5
2
100
AcDbSymbolTable
70
2
0
LAYER
5
50
100
AcDbSymbolTableRecord
100
AcDbLayerTableRecord
2
0
70
0
6
CONTINUOUS
0
ENDTAB
0
TABLE
2
STYLE
5
3
100
AcDbSymbolTable
70
1
0
STYLE
5
11
100
AcDbSymbolTableRecord
100
AcDbTextStyleTableRecord
2
STANDARD
70
0
0
ENDTAB
0
TABLE
2
VIEW
5
6
100
AcDbSymbolTable
70
0
0
ENDTAB
0
TABLE
2
UCS
5
7
100
AcDbSymbolTable
70
0
0
ENDTAB
0
TABLE
2
APPID
5
9
100
AcDbSymbolTable
70
2
0
APPID
5
12
100
AcDbSymbolTableRecord
100
AcDbRegAppTableRecord
2
ACAD
70
0
0
ENDTAB
0
TABLE
2
DIMSTYLE
5
A
100
AcDbSymbolTable
70
1
0
ENDTAB
0
TABLE
2
BLOCK_RECORD
5
1
100
AcDbSymbolTable
70
1
0
BLOCK_RECORD
5
1F
100
AcDbSymbolTableRecord
100
AcDbBlockTableRecord
2
*MODEL_SPACE
0
BLOCK_RECORD
5
1B
100
AcDbSymbolTableRecord
100
AcDbBlockTableRecord
2
*PAPER_SPACE
0
ENDTAB
0
ENDSEC
0
SECTION
2
BLOCKS
0
BLOCK
5
20
100
AcDbEntity
100
AcDbBlockBegin
2
*MODEL_SPACE
0
ENDBLK
5
21
100
AcDbEntity
100
AcDbBlockEnd
0
BLOCK
5
1C
100
AcDbEntity
100
AcDbBlockBegin
2
*PAPER_SPACE
0
ENDBLK
5
1D
100
AcDbEntity
100
AcDbBlockEnd
0
ENDSEC
0
SECTION
2
ENTITIES
0
LWPOLYLINE
5
100
100
AcDbEntity
8
0
100
AcDbPolyline
90
32
70
1
43
0.0
10
25.500000000000114
20
45
10
40
20
45
42
-0.41421356237309509
10
45
20
40
10
45.000000000000007
20
-40
42
-0.41421356237309509
10
40
20
-45.000000000000007
10
25.500000000000114
20
-45
42
-0.41421356237309137
10
23.000000000000114
20
-42.500000000000014
42
0.41421356237309509
10
20.500000000000114
20
-40.000000000000014
10
15.500000000000114
20
-40.000000000000014
42
-0.41421356237309603
10
13.000000000000114
20
-37.500000000000007
42
0.41421356237309509
10
10.500000000000114
20
-35.000000000000014
10
-10.500000000000123
20
-35.000000000000007
42
0.41421356237309603
10
-13.000000000000121
20
-37.500000000000014
42
-0.41421356237309426
10
-15.500000000000123
20
-40.000000000000014
10
-20.500000000000117
20
-40.000000000000014
42
0.41421356237309298
10
-23.00000000000011
20
-42.5
42
-0.41421356237309404
10
-25.50000000000011
20
-45.000000000000007
10
-40
20
-45.000000000000007
42
-0.41421356237309404
10
-45
20
-40.000000000000014
10
-45
20
39.999999999999986
42
-0.41421356237309553
10
-40
20
44.999999999999993
10
-25.500000000000114
20
44.999999999999986
42
-0.41421356237309448
10
-23.000000000000114
20
42.5
42
0.41421356237309509
10
-20.500000000000114
20
40
10
-15.500000000000114
20
40
42
-0.41421356237309603
10
-13.000000000000114
20
37.499999999999993
42
0.41421356237309526
10
-10.500000000000112
20
34.999999999999993
10
10.500000000000115
20
34.999999999999993
42
0.41421356237309637
10
13.000000000000115
20
37.5
42
-0.41421356237309426
10
15.500000000000117
20
40
10
20.500000000000114
20
40
42
0.41421356237309509
10
23.00000000000011
20
42.5
42
-0.41421356237309342
0
CIRCLE
5
101
100
AcDbEntity
8
0
100
AcDbCircle
10
37.49970838024872
20
37.500291617483335
30
0
40
2.5
0
CIRCLE
5
102
100
AcDbEntity
8
0
100
AcDbCircle
10
-37.499708380248777
20
-37.500291617483498
30
0
40
2.5
0
CIRCLE
5
103
100
AcDbEntity
8
0
100
AcDbCircle
10
-37.500291617483434
20
37.499708380248691
30
0
40
2.5
0
CIRCLE
5
104
100
AcDbEntity
8
0
100
AcDbCircle
10
37.500291617483377
20
-37.499708380248855
30
0
40
2.5
0
CIRCLE
5
105
100
AcDbEntity
8
0
100
AcDbCircle
10
-39.999999999999986
20
2.6645352587694965e-14
30
0
40
1.6000000000000014
0
CIRCLE
5
106
100
AcDbEntity
8
0
100
AcDbCircle
10
40.000000000000014
20
-4.884981308681568e-14
30
0
40
1.599999999999997
0
LWPOLYLINE
5
107
100
AcDbEntity
8
0
100
AcDbPolyline
90
40
70
1
43
0.0
10
16.999999999999993
20
29.999999999999993
10
16.999999999999993
20
22.499999992928519
10
3.1748802868762271
20
22.499999992928522
10
3.1748438739651013
20
23.999999992928526
10
1.5871306336936464
20
26.749999992928505
10
-1.5882958468492969
20
26.749999992928508
10
-3.17600908712076
20
23.999999992928526
10
-3.1759726742096372
20
22.499999992928522
10
-17.00000000000005
20
22.499999992928519
10
-17.00000000000005
20
30.000000000000036
10
-20.000000000000053
20
30.000000000000036
10
-20.000000000000057
20
22.354101959178191
42
0.3316792665682709
10
-22.499999999999996
20
18.999999992928526
10
-22.5
20
3.1748802827935085
10
-23.999999999999993
20
3.1748438698823933
10
-26.749999992928529
20
1.5871306336936375
10
-26.749999992928537
20
-1.5882958468493036
10
-23.999999999999993
20
-3.1760090830380676
10
-22.499999999999996
20
-3.1759726701269542
10
-22.499999999999996
20
-18.999999992928529
42
0.41421357702955414
10
-18.999999824859014
20
-22.499999992928537
10
-3.1748802868762249
20
-22.499999992928544
10
-3.1748438739650977
20
-23.999999992928526
10
-1.5871306336936355
20
-26.749999992928515
10
1.5882958468493045
20
-26.749999992928522
10
3.1760090871207742
20
-23.999999992928529
10
3.1759726742096483
20
-22.499999992928544
10
17.00000000000006
20
-22.500000004242892
10
17.000000000000057
20
-22.499529203820281
10
18.938702326439355
20
-22.499463179649609
42
0.41935279928822033
10
22.499999999999996
20
-18.999999992928529
10
22.5
20
-3.1748802827934952
10
23.999999999999993
20
-3.1748438698823787
10
26.749999992928505
20
-1.587130633693639
10
26.749999992928512
20
1.5882958468493069
10
23.999999999999993
20
3.1760090830380623
10
22.499999999999996
20
3.1759726701269497
10
22.499999999999996
20
18.999999992928526
42
0.33167926656827756
10
20.000000000000004
20
22.354101959178195
10
19.999999999999996
20
29.999999999999993
0
ENDSEC
0
SECTION
2
OBJECTS
0
DICTIONARY
5
C
100
AcDbDictionary
3
ACAD_GROUP
350
D
3
ACAD_MLINESTYLE
350
17
0
DICTIONARY
5
D
100
AcDbDictionary
0
DICTIONARY
5
1A
330
C
100
AcDbDictionary
0
DICTIONARY
5
17
100
AcDbDictionary
0
ENDSEC
0
EOF
