0
SECTION
2
HEADER
9
$INSUNITS
70
4
9
$ACADVER
1
AC1014
9
$HANDSEED
5
FFFF
0
ENDSEC
0
SECTION
2
TABLES
0
TABLE
2
VPORT
5
8
100
AcDbSymbolTable
0
ENDTAB
0
TABLE
2
LTYPE
5
5
100
AcDbSymbolTable
0
LTYPE
5
14
100
AcDbSymbolTableRecord
100
AcDbLinetypeTableRecord
2
BYBLOCK
70
0
0
LTYPE
5
15
100
AcDbSymbolTableRecord
100
AcDbLinetypeTableRecord
2
BYLAYER
70
0
0
ENDTAB
0
TABLE
2
LAYER
5
2
100
AcDbSymbolTable
70
2
0
LAYER
5
50
100
AcDbSymbolTableRecord
100
AcDbLayerTableRecord
2
0
70
0
6
CONTINUOUS
0
ENDTAB
0
TABLE
2
STYLE
5
3
100
AcDbSymbolTable
70
1
0
STYLE
5
11
100
AcDbSymbolTableRecord
100
AcDbTextStyleTableRecord
2
STANDARD
70
0
0
ENDTAB
0
TABLE
2
VIEW
5
6
100
AcDbSymbolTable
70
0
0
ENDTAB
0
TABLE
2
UCS
5
7
100
AcDbSymbolTable
70
0
0
ENDTAB
0
TABLE
2
APPID
5
9
100
AcDbSymbolTable
70
2
0
APPID
5
12
100
AcDbSymbolTableRecord
100
AcDbRegAppTableRecord
2
ACAD
70
0
0
ENDTAB
0
TABLE
2
DIMSTYLE
5
A
100
AcDbSymbolTable
70
1
0
ENDTAB
0
TABLE
2
BLOCK_RECORD
5
1
100
AcDbSymbolTable
70
1
0
BLOCK_RECORD
5
1F
100
AcDbSymbolTableRecord
100
AcDbBlockTableRecord
2
*MODEL_SPACE
0
BLOCK_RECORD
5
1B
100
AcDbSymbolTableRecord
100
AcDbBlockTableRecord
2
*PAPER_SPACE
0
ENDTAB
0
ENDSEC
0
SECTION
2
BLOCKS
0
BLOCK
5
20
100
AcDbEntity
100
AcDbBlockBegin
2
*MODEL_SPACE
0
ENDBLK
5
21
100
AcDbEntity
100
AcDbBlockEnd
0
BLOCK
5
1C
100
AcDbEntity
100
AcDbBlockBegin
2
*PAPER_SPACE
0
ENDBLK
5
1D
100
AcDbEntity
100
AcDbBlockEnd
0
ENDSEC
0
SECTION
2
ENTITIES
0
LWPOLYLINE
5
100
100
AcDbEntity
8
0
100
AcDbPolyline
90
20
70
1
43
0.0
10
18.339429435896772
20
-71.667427026506076
42
-0.41421356237309537
10
16.339429435896776
20
-69.667427026506061
10
16.339429435896779
20
-67.339234295208527
42
0.41421356237309509
10
14.339429435896779
20
-65.339234295208527
10
-9.035570564103196
20
-65.339234295208527
42
0.41421356237309637
10
-11.035570564103235
20
-67.339234295208541
10
-11.035570564103267
20
-81.667427026505948
42
0.41421356237309392
10
-9.0355705641032635
20
-83.667427026505976
10
8.9644294358967098
20
-83.667427026506047
42
-0.41421356237308365
10
10.964429435896708
20
-85.667427026506061
10
10.964429435896699
20
-86.017427026506041
42
0.41421356237309176
10
12.964429435896685
20
-88.01742702650607
10
18.964429435896687
20
-88.017427026506084
42
0.41421356237309598
10
20.964429435896704
20
-86.017427026506098
10
20.964429435896715
20
-85.667427026506076
42
-0.4142135623730801
10
22.964429435896694
20
-83.667427026506104
10
40.964429435896683
20
-83.667427026506175
42
0.41421356237309509
10
42.96442943589669
20
-81.667427026506161
10
42.96442943589674
20
-73.667427026506161
42
0.4142135623730937
10
40.964429435896733
20
-71.667427026506147
0
CIRCLE
5
101
100
AcDbEntity
8
0
100
AcDbCircle
10
49.873629435896675
20
-80.490027026506027
30
0
40
1.6000000000000014
0
CIRCLE
5
102
100
AcDbEntity
8
0
100
AcDbCircle
10
-15.126370564103173
20
-72.990027026506098
30
0
40
2.5
0
CIRCLE
5
103
100
AcDbEntity
8
0
100
AcDbCircle
10
-23.126370564103361
20
-13.490027026506009
30
0
40
1.6000000000000014
0
CIRCLE
5
104
100
AcDbEntity
8
0
100
AcDbCircle
10
-22.126370564103123
20
-72.990027026506112
30
0
40
2.5
0
CIRCLE
5
105
100
AcDbEntity
8
0
100
AcDbCircle
10
-23.126370564103368
20
-80.490027026506027
30
0
40
1.6000000000000014
0
CIRCLE
5
106
100
AcDbEntity
8
0
100
AcDbCircle
10
49.873629435896738
20
-13.490027026506544
30
0
40
1.6000000000000014
0
LWPOLYLINE
5
107
100
AcDbEntity
8
0
100
AcDbPolyline
90
28
70
1
43
0.0
10
54.873629435896873
20
-43.490027026506567
10
60.373629435896873
20
-43.490027026506567
10
60.373629435896873
20
-73.490027026506567
10
54.873629435896873
20
-73.490027026506581
10
54.873629435896873
20
-93.490027026506056
10
32.873629435896881
20
-93.49002702650607
10
32.873629435896873
20
-98.99002702650607
10
10.873629435896873
20
-98.99002702650607
10
10.873629435896873
20
-93.49002702650607
10
-11.126370564103127
20
-93.49002702650607
10
-11.126370564103123
20
-98.99002702650607
10
-33.126370564103127
20
-98.99002702650607
10
-33.126370564103127
20
-93.490027026506084
10
-55.126370564103127
20
-93.490027026506056
10
-55.126370564103134
20
-63.490027026506056
10
-60.626370564103134
20
-63.490027026506056
10
-60.626370564103134
20
-33.490027026506056
10
-55.126370564103134
20
-33.490027026506056
10
-55.126370564103127
20
-3.4900270265060662
10
-33.126370564103127
20
-3.4900270265060618
10
-33.126370564103127
20
2.0099729734939382
10
-11.126370564103127
20
2.0099729734939387
10
-11.126370564103127
20
-3.4900270265060618
10
10.873629435896873
20
-3.4900270265060618
10
10.873629435896879
20
2.0099729734939391
10
32.873629435896881
20
2.00997297349394
10
32.873629435896873
20
-3.4900270265060609
10
54.873629435896873
20
-3.4900270265060573
0
ENDSEC
0
SECTION
2
OBJECTS
0
DICTIONARY
5
C
100
AcDbDictionary
3
ACAD_GROUP
350
D
3
ACAD_MLINESTYLE
350
17
0
DICTIONARY
5
D
100
AcDbDictionary
0
DICTIONARY
5
1A
330
C
100
AcDbDictionary
0
DICTIONARY
5
17
100
AcDbDictionary
0
ENDSEC
0
EOF
