0
SECTION
2
HEADER
9
$INSUNITS
70
4
9
$ACADVER
1
AC1014
9
$HANDSEED
5
FFFF
0
ENDSEC
0
SECTION
2
TABLES
0
TABLE
2
VPORT
5
8
100
AcDbSymbolTable
0
ENDTAB
0
TABLE
2
LTYPE
5
5
100
AcDbSymbolTable
0
LTYPE
5
14
100
AcDbSymbolTableRecord
100
AcDbLinetypeTableRecord
2
BYBLOCK
70
0
0
LTYPE
5
15
100
AcDbSymbolTableRecord
100
AcDbLinetypeTableRecord
2
BYLAYER
70
0
0
ENDTAB
0
TABLE
2
LAYER
5
2
100
AcDbSymbolTable
70
2
0
LAYER
5
50
100
AcDbSymbolTableRecord
100
AcDbLayerTableRecord
2
0
70
0
6
CONTINUOUS
0
ENDTAB
0
TABLE
2
STYLE
5
3
100
AcDbSymbolTable
70
1
0
STYLE
5
11
100
AcDbSymbolTableRecord
100
AcDbTextStyleTableRecord
2
STANDARD
70
0
0
ENDTAB
0
TABLE
2
VIEW
5
6
100
AcDbSymbolTable
70
0
0
ENDTAB
0
TABLE
2
UCS
5
7
100
AcDbSymbolTable
70
0
0
ENDTAB
0
TABLE
2
APPID
5
9
100
AcDbSymbolTable
70
2
0
APPID
5
12
100
AcDbSymbolTableRecord
100
AcDbRegAppTableRecord
2
ACAD
70
0
0
ENDTAB
0
TABLE
2
DIMSTYLE
5
A
100
AcDbSymbolTable
70
1
0
ENDTAB
0
TABLE
2
BLOCK_RECORD
5
1
100
AcDbSymbolTable
70
1
0
BLOCK_RECORD
5
1F
100
AcDbSymbolTableRecord
100
AcDbBlockTableRecord
2
*MODEL_SPACE
0
BLOCK_RECORD
5
1B
100
AcDbSymbolTableRecord
100
AcDbBlockTableRecord
2
*PAPER_SPACE
0
ENDTAB
0
ENDSEC
0
SECTION
2
BLOCKS
0
BLOCK
5
20
100
AcDbEntity
100
AcDbBlockBegin
2
*MODEL_SPACE
0
ENDBLK
5
21
100
AcDbEntity
100
AcDbBlockEnd
0
BLOCK
5
1C
100
AcDbEntity
100
AcDbBlockBegin
2
*PAPER_SPACE
0
ENDBLK
5
1D
100
AcDbEntity
100
AcDbBlockEnd
0
ENDSEC
0
SECTION
2
ENTITIES
0
LWPOLYLINE
5
100
100
AcDbEntity
8
0
100
AcDbPolyline
90
4
70
1
43
0.0
10
41.899999999999977
20
-10.100000000000041
10
46.599999999999973
20
-10.100000000000037
10
46.59999999999998
20
10.099999999999959
10
41.899999999999984
20
10.099999999999964
0
LWPOLYLINE
5
101
100
AcDbEntity
8
0
100
AcDbPolyline
90
4
70
1
43
0.0
10
-41.89999999999997
20
10.099999999999959
10
-46.599999999999973
20
10.099999999999964
10
-46.599999999999973
20
-10.100000000000041
10
-41.89999999999997
20
-10.100000000000037
0
CIRCLE
5
102
100
AcDbEntity
8
0
100
AcDbCircle
10
31.99999999999994
20
-17.000000000000032
30
0
40
1.6000000000000014
0
CIRCLE
5
103
100
AcDbEntity
8
0
100
AcDbCircle
10
-32.000000000000043
20
-16.999999999999936
30
0
40
1.6000000000000014
0
CIRCLE
5
104
100
AcDbEntity
8
0
100
AcDbCircle
10
-32
20
17.000000000000071
30
0
40
1.6000000000000014
0
CIRCLE
5
105
100
AcDbEntity
8
0
100
AcDbCircle
10
31.999999999999993
20
16.999999999999979
30
0
40
1.599999999999997
0
LWPOLYLINE
5
106
100
AcDbEntity
8
0
100
AcDbPolyline
90
41
70
1
43
0.0
10
-36.900000000000013
20
-32.000000000000057
10
-36.900000000000013
20
-26.900000000000052
10
-46.60000000000008
20
-26.900000000000052
10
-46.60000000000008
20
-31.999166608788279
10
-47.100000000000072
20
-31.99916660878829
42
-0.40934016582996463
10
-53.000000000000071
20
-26.000000000000021
10
-53.000000000000099
20
25.999999999999972
42
-0.4142135623730942
10
-46.999999999999993
20
32.00000000000005
10
-37.000000000000043
20
32.000000000000007
42
0.23741251607985489
10
-32.785644125856784
20
34.624089664215518
42
-0.2615019138018696
10
-27.663316374414208
20
37.499784877451873
10
-25.152681480296167
20
37.499804401395231
10
-23.000000000000007
20
37.499804401395231
10
-23.000000000000007
20
32.099999999999966
10
-27.100000000000009
20
32.099999999999966
10
-27.100000000000009
20
26.89999999999997
10
-23.000000000000007
20
26.89999999999997
10
-23.000000000000007
20
22.708203932499419
42
0.33167926656827856
10
-28.000000000000036
20
16.000000000000043
10
-28.000000000000085
20
-15.999999999999986
42
0.4142135623730952
10
-21.000000000000089
20
-22.999999999999993
10
20.999999999999993
20
-23.000000000000057
42
0.41421356237309515
10
27.999999999999979
20
-16.00000000000006
10
28.000000000000043
20
15.999999999999968
42
0.30405012914746871
10
23.662114631609121
20
22.474036274857635
10
23.662114631609121
20
26.89999999999997
10
27.099999999999991
20
26.89999999999997
10
27.099999999999991
20
32.099999999999966
10
23.662114631609121
20
32.099999999999966
10
23.662114631609121
20
37.500184009484492
10
27.662114631609114
20
37.500215115470354
42
-0.26150937924683254
10
32.784574433853095
20
34.624456397899948
42
0.23744609092781385
10
36.99999999999995
20
31.999999999999972
10
47.000000000000028
20
31.999999999999975
42
-0.41421356237309681
10
53.000000000000028
20
25.999999999999961
10
52.999999999999936
20
-26.00000000000005
42
-0.40934016582996474
10
47.099999999999973
20
-31.999166608788293
10
46.599999999999973
20
-31.999166608788293
10
46.59999999999998
20
-26.900000000000055
10
36.899999999999984
20
-26.900000000000055
10
36.899999999999977
20
-32.000000000000057
0
ENDSEC
0
SECTION
2
OBJECTS
0
DICTIONARY
5
C
100
AcDbDictionary
3
ACAD_GROUP
350
D
3
ACAD_MLINESTYLE
350
17
0
DICTIONARY
5
D
100
AcDbDictionary
0
DICTIONARY
5
1A
330
C
100
AcDbDictionary
0
DICTIONARY
5
17
100
AcDbDictionary
0
ENDSEC
0
EOF
