0
SECTION
2
HEADER
9
$INSUNITS
70
4
9
$ACADVER
1
AC1014
9
$HANDSEED
5
FFFF
0
ENDSEC
0
SECTION
2
TABLES
0
TABLE
2
VPORT
5
8
100
AcDbSymbolTable
0
ENDTAB
0
TABLE
2
LTYPE
5
5
100
AcDbSymbolTable
0
LTYPE
5
14
100
AcDbSymbolTableRecord
100
AcDbLinetypeTableRecord
2
BYBLOCK
70
0
0
LTYPE
5
15
100
AcDbSymbolTableRecord
100
AcDbLinetypeTableRecord
2
BYLAYER
70
0
0
ENDTAB
0
TABLE
2
LAYER
5
2
100
AcDbSymbolTable
70
2
0
LAYER
5
50
100
AcDbSymbolTableRecord
100
AcDbLayerTableRecord
2
0
70
0
6
CONTINUOUS
0
ENDTAB
0
TABLE
2
STYLE
5
3
100
AcDbSymbolTable
70
1
0
STYLE
5
11
100
AcDbSymbolTableRecord
100
AcDbTextStyleTableRecord
2
STANDARD
70
0
0
ENDTAB
0
TABLE
2
VIEW
5
6
100
AcDbSymbolTable
70
0
0
ENDTAB
0
TABLE
2
UCS
5
7
100
AcDbSymbolTable
70
0
0
ENDTAB
0
TABLE
2
APPID
5
9
100
AcDbSymbolTable
70
2
0
APPID
5
12
100
AcDbSymbolTableRecord
100
AcDbRegAppTableRecord
2
ACAD
70
0
0
ENDTAB
0
TABLE
2
DIMSTYLE
5
A
100
AcDbSymbolTable
70
1
0
ENDTAB
0
TABLE
2
BLOCK_RECORD
5
1
100
AcDbSymbolTable
70
1
0
BLOCK_RECORD
5
1F
100
AcDbSymbolTableRecord
100
AcDbBlockTableRecord
2
*MODEL_SPACE
0
BLOCK_RECORD
5
1B
100
AcDbSymbolTableRecord
100
AcDbBlockTableRecord
2
*PAPER_SPACE
0
ENDTAB
0
ENDSEC
0
SECTION
2
BLOCKS
0
BLOCK
5
20
100
AcDbEntity
100
AcDbBlockBegin
2
*MODEL_SPACE
0
ENDBLK
5
21
100
AcDbEntity
100
AcDbBlockEnd
0
BLOCK
5
1C
100
AcDbEntity
100
AcDbBlockBegin
2
*PAPER_SPACE
0
ENDBLK
5
1D
100
AcDbEntity
100
AcDbBlockEnd
0
ENDSEC
0
SECTION
2
ENTITIES
0
LWPOLYLINE
5
100
100
AcDbEntity
8
0
100
AcDbPolyline
90
8
70
1
43
0.0
10
-54.500000000000185
20
-75.999999999999886
10
-54.500000000000185
20
-66.999999999999872
42
0.41421356237309509
10
-55.500000000000185
20
-65.999999999999886
10
-66.500000000000185
20
-65.999999999999886
42
0.41421356237309509
10
-67.500000000000171
20
-66.999999999999872
10
-67.500000000000171
20
-75.999999999999886
42
0.41421356237309509
10
-66.500000000000185
20
-76.999999999999872
10
-55.500000000000185
20
-76.999999999999872
42
0.41421356237309509
0
CIRCLE
5
101
100
AcDbEntity
8
0
100
AcDbCircle
10
-59.500000000000185
20
-53.999999999999901
30
0
40
7.5
0
LWPOLYLINE
5
102
100
AcDbEntity
8
0
100
AcDbPolyline
90
28
70
1
43
0.0
10
-78.600000000000009
20
-73.499999999999915
10
-73.100000000000009
20
-73.499999999999915
10
-73.100000000000009
20
-43.499999999999915
10
-78.600000000000009
20
-43.499999999999915
10
-78.600000000000009
20
-3.4999999999999254
10
-31.704988841958546
20
-3.4999999999999214
10
-31.704988841958546
20
2.000000000000079
10
-6.7049888419585457
20
2.0000000000000782
10
-6.7049888419585457
20
-3.4999999999999218
10
13.295011158041454
20
-3.4999999999999121
10
13.295011158041454
20
2.0000000000000884
10
33.295011158041454
20
2.0000000000000884
10
33.295011158041454
20
-3.4999999999999121
10
60.500000000000014
20
-3.4999999999999165
10
60.499999999999979
20
-33.499999999999915
10
54.999999999999986
20
-33.499999999999915
10
54.999999999999986
20
-63.499999999999915
10
60.499999999999979
20
-63.499999999999915
10
60.500000000000014
20
-93.499999999999915
10
33.295011158041454
20
-93.499999999999929
10
33.295011158041454
20
-98.999999999999915
10
13.295011158041454
20
-98.999999999999915
10
13.295011158041454
20
-93.499999999999929
10
-6.7049888419585457
20
-93.499999999999929
10
-6.7049888419585457
20
-98.999999999999929
10
-31.704988841958546
20
-98.999999999999929
10
-31.704988841958546
20
-93.499999999999929
10
-78.600000000000009
20
-93.499999999999915
0
LWPOLYLINE
5
103
100
AcDbEntity
8
0
100
AcDbPolyline
90
8
70
1
43
0.0
10
-41.150000000000105
20
-75.499999999999915
10
33.949999999999989
20
-75.499999999999915
42
0.41421356237309509
10
35.949999999999989
20
-73.499999999999915
10
35.949999999999989
20
-69.499999999999915
42
0.41421356237309509
10
33.949999999999989
20
-67.499999999999915
10
-41.150000000000098
20
-67.499999999999901
42
0.41421356237309509
10
-43.150000000000105
20
-69.499999999999901
10
-43.150000000000112
20
-73.499999999999915
42
0.41421356237309509
0
LWPOLYLINE
5
104
100
AcDbEntity
8
0
100
AcDbPolyline
90
8
70
1
43
0.0
10
-41.150000000000105
20
-43.499999999999915
10
33.949999999999989
20
-43.499999999999915
42
0.41421356237309509
10
35.949999999999989
20
-41.499999999999915
10
35.949999999999989
20
-37.499999999999922
42
0.41421356237309509
10
33.949999999999989
20
-35.499999999999915
10
-41.150000000000098
20
-35.499999999999915
42
0.41421356237309509
10
-43.150000000000105
20
-37.499999999999922
10
-43.150000000000112
20
-41.499999999999915
42
0.41421356237309509
0
LWPOLYLINE
5
105
100
AcDbEntity
8
0
100
AcDbPolyline
90
8
70
1
43
0.0
10
-41.150000000000105
20
-27.499999999999922
10
33.949999999999989
20
-27.499999999999922
42
0.41421356237309509
10
35.949999999999989
20
-25.499999999999918
10
35.949999999999989
20
-21.499999999999922
42
0.41421356237309509
10
33.949999999999989
20
-19.499999999999922
10
-41.150000000000098
20
-19.499999999999925
42
0.41421356237309509
10
-43.150000000000105
20
-21.499999999999922
10
-43.150000000000112
20
-25.499999999999918
42
0.41421356237309509
0
LWPOLYLINE
5
106
100
AcDbEntity
8
0
100
AcDbPolyline
90
8
70
1
43
0.0
10
-41.150000000000105
20
-59.499999999999915
10
33.949999999999989
20
-59.499999999999915
42
0.41421356237309509
10
35.949999999999989
20
-57.499999999999915
10
35.949999999999989
20
-53.499999999999915
42
0.41421356237309509
10
33.949999999999989
20
-51.499999999999915
10
-41.150000000000098
20
-51.499999999999908
42
0.41421356237309509
10
-43.150000000000105
20
-53.499999999999908
10
-43.150000000000112
20
-57.499999999999915
42
0.41421356237309509
0
ENDSEC
0
SECTION
2
OBJECTS
0
DICTIONARY
5
C
100
AcDbDictionary
3
ACAD_GROUP
350
D
3
ACAD_MLINESTYLE
350
17
0
DICTIONARY
5
D
100
AcDbDictionary
0
DICTIONARY
5
1A
330
C
100
AcDbDictionary
0
DICTIONARY
5
17
100
AcDbDictionary
0
ENDSEC
0
EOF
