0
SECTION
2
HEADER
9
$INSUNITS
70
4
9
$ACADVER
1
AC1014
9
$HANDSEED
5
FFFF
0
ENDSEC
0
SECTION
2
TABLES
0
TABLE
2
VPORT
5
8
100
AcDbSymbolTable
0
ENDTAB
0
TABLE
2
LTYPE
5
5
100
AcDbSymbolTable
0
LTYPE
5
14
100
AcDbSymbolTableRecord
100
AcDbLinetypeTableRecord
2
BYBLOCK
70
0
0
LTYPE
5
15
100
AcDbSymbolTableRecord
100
AcDbLinetypeTableRecord
2
BYLAYER
70
0
0
ENDTAB
0
TABLE
2
LAYER
5
2
100
AcDbSymbolTable
70
2
0
LAYER
5
50
100
AcDbSymbolTableRecord
100
AcDbLayerTableRecord
2
0
70
0
6
CONTINUOUS
0
ENDTAB
0
TABLE
2
STYLE
5
3
100
AcDbSymbolTable
70
1
0
STYLE
5
11
100
AcDbSymbolTableRecord
100
AcDbTextStyleTableRecord
2
STANDARD
70
0
0
ENDTAB
0
TABLE
2
VIEW
5
6
100
AcDbSymbolTable
70
0
0
ENDTAB
0
TABLE
2
UCS
5
7
100
AcDbSymbolTable
70
0
0
ENDTAB
0
TABLE
2
APPID
5
9
100
AcDbSymbolTable
70
2
0
APPID
5
12
100
AcDbSymbolTableRecord
100
AcDbRegAppTableRecord
2
ACAD
70
0
0
ENDTAB
0
TABLE
2
DIMSTYLE
5
A
100
AcDbSymbolTable
70
1
0
ENDTAB
0
TABLE
2
BLOCK_RECORD
5
1
100
AcDbSymbolTable
70
1
0
BLOCK_RECORD
5
1F
100
AcDbSymbolTableRecord
100
AcDbBlockTableRecord
2
*MODEL_SPACE
0
BLOCK_RECORD
5
1B
100
AcDbSymbolTableRecord
100
AcDbBlockTableRecord
2
*PAPER_SPACE
0
ENDTAB
0
ENDSEC
0
SECTION
2
BLOCKS
0
BLOCK
5
20
100
AcDbEntity
100
AcDbBlockBegin
2
*MODEL_SPACE
0
ENDBLK
5
21
100
AcDbEntity
100
AcDbBlockEnd
0
BLOCK
5
1C
100
AcDbEntity
100
AcDbBlockBegin
2
*PAPER_SPACE
0
ENDBLK
5
1D
100
AcDbEntity
100
AcDbBlockEnd
0
ENDSEC
0
SECTION
2
ENTITIES
0
LWPOLYLINE
5
100
100
AcDbEntity
8
0
100
AcDbPolyline
90
4
70
1
43
0.0
10
1.6000000000000263
20
-69
42
-0.99999999999999989
10
-1.599999999999973
20
-69
10
-1.5999999999999708
20
-24.000000000000028
42
-0.99999999999999989
10
1.6000000000000263
20
-24.000000000000004
0
LWPOLYLINE
5
101
100
AcDbEntity
8
0
100
AcDbPolyline
90
27
70
1
43
0.0
10
12.483615778645333
20
2.2999416425746793
42
-0.0035618324381317379
10
12.516384221354723
20
2.2999416425741832
10
14.483615778645287
20
1.1641599734140862
42
-0.0035618324381024276
10
14.50000000000002
20
1.1357816695853424
10
14.499999999999538
20
-1.1357816687345121
42
-0.0035618324381413973
10
14.483615778645325
20
-1.164159972563563
10
12.516384221354723
20
-2.2999416417236267
10
12.516000000000032
20
-5.5159999995747278
10
12.51600000000003
20
-8.4999999978135516
42
-0.41421356254211111
10
9.0000000004322587
20
-12.016000000274722
10
-8.9999999999999574
20
-12.016000000274808
42
-0.41421356240225138
10
-12.515999999999973
20
-8.4999999999248192
10
-12.515999999999984
20
-5.5159999995748299
10
-12.483615778645319
20
-2.2999416417232248
42
-0.0035618324381842524
10
-12.516384221354699
20
-2.29994164172372
10
-14.483615778645202
20
-1.1641599725635849
42
-0.0035618324382232221
10
-14.500000000000004
20
-1.1357816687348701
10
-14.50000000000032
20
1.1357816695854186
42
-0.0035618324382095654
10
-14.483615778645301
20
1.1641599734140275
10
-12.516384221354702
20
2.29994164257409
10
-12.516384221354702
20
5.5160000004251675
10
-12.516000000000025
20
5.5160000004251675
10
-12.51600000000002
20
8.4999999997252154
42
-0.41421356236901807
10
-9.0000000000489564
20
12.015999999725215
10
8.9999999999999378
20
12.015999999725299
42
-0.41421356237309803
10
12.515999999999988
20
8.4999999997253042
10
12.515999999999991
20
5.5160000004252741
0
CIRCLE
5
102
100
AcDbEntity
8
0
100
AcDbCircle
10
24.000000000000004
20
24
30
0
40
1.6000000000000014
0
CIRCLE
5
103
100
AcDbEntity
8
0
100
AcDbCircle
10
-24.000000000000004
20
24
30
0
40
1.6000000000000014
0
CIRCLE
5
104
100
AcDbEntity
8
0
100
AcDbCircle
10
24.000000000000004
20
-24.000000000000007
30
0
40
1.6000000000000014
0
CIRCLE
5
105
100
AcDbEntity
8
0
100
AcDbCircle
10
-24.000000000000004
20
-24.000000000000007
30
0
40
1.6000000000000014
0
CIRCLE
5
106
100
AcDbEntity
8
0
100
AcDbCircle
10
24.000000000000004
20
-72.000000000000014
30
0
40
1.6000000000000014
0
CIRCLE
5
107
100
AcDbEntity
8
0
100
AcDbCircle
10
-24.000000000000004
20
-72.000000000000014
30
0
40
1.6000000000000014
0
CIRCLE
5
108
100
AcDbEntity
8
0
100
AcDbCircle
10
23.000000000000004
20
-48.000000000000043
30
0
40
1.6000000000000014
0
CIRCLE
5
109
100
AcDbEntity
8
0
100
AcDbCircle
10
-23.000000000000011
20
-3.4416913763379853e-14
30
0
40
1.6000000000000014
0
CIRCLE
5
110
100
AcDbEntity
8
0
100
AcDbCircle
10
-23.000000000000011
20
-48.000000000000043
30
0
40
1.6000000000000014
0
CIRCLE
5
111
100
AcDbEntity
8
0
100
AcDbCircle
10
23.000000000000004
20
-3.4416913763379853e-14
30
0
40
1.6000000000000014
0
LWPOLYLINE
5
112
100
AcDbEntity
8
0
100
AcDbPolyline
90
8
70
1
43
0.0
10
29.000000000000021
20
-72.000000000000014
42
-0.41421356237309342
10
24.000000000000021
20
-77.000000000000028
10
-23.999999999999986
20
-76.999999999999972
42
-0.41421356237309509
10
-28.999999999999968
20
-72.000000000000028
10
-29.000000000000004
20
23.999999999999986
42
-0.41421356237309787
10
-23.999999999999968
20
29
10
24.000000000000039
20
29.000000000000036
42
-0.4142135623730932
10
29.000000000000039
20
23.999999999999993
0
ENDSEC
0
SECTION
2
OBJECTS
0
DICTIONARY
5
C
100
AcDbDictionary
3
ACAD_GROUP
350
D
3
ACAD_MLINESTYLE
350
17
0
DICTIONARY
5
D
100
AcDbDictionary
0
DICTIONARY
5
1A
330
C
100
AcDbDictionary
0
DICTIONARY
5
17
100
AcDbDictionary
0
ENDSEC
0
EOF
