0
SECTION
2
HEADER
9
$INSUNITS
70
4
9
$ACADVER
1
AC1014
9
$HANDSEED
5
FFFF
0
ENDSEC
0
SECTION
2
TABLES
0
TABLE
2
VPORT
5
8
100
AcDbSymbolTable
0
ENDTAB
0
TABLE
2
LTYPE
5
5
100
AcDbSymbolTable
0
LTYPE
5
14
100
AcDbSymbolTableRecord
100
AcDbLinetypeTableRecord
2
BYBLOCK
70
0
0
LTYPE
5
15
100
AcDbSymbolTableRecord
100
AcDbLinetypeTableRecord
2
BYLAYER
70
0
0
ENDTAB
0
TABLE
2
LAYER
5
2
100
AcDbSymbolTable
70
2
0
LAYER
5
50
100
AcDbSymbolTableRecord
100
AcDbLayerTableRecord
2
0
70
0
6
CONTINUOUS
0
ENDTAB
0
TABLE
2
STYLE
5
3
100
AcDbSymbolTable
70
1
0
STYLE
5
11
100
AcDbSymbolTableRecord
100
AcDbTextStyleTableRecord
2
STANDARD
70
0
0
ENDTAB
0
TABLE
2
VIEW
5
6
100
AcDbSymbolTable
70
0
0
ENDTAB
0
TABLE
2
UCS
5
7
100
AcDbSymbolTable
70
0
0
ENDTAB
0
TABLE
2
APPID
5
9
100
AcDbSymbolTable
70
2
0
APPID
5
12
100
AcDbSymbolTableRecord
100
AcDbRegAppTableRecord
2
ACAD
70
0
0
ENDTAB
0
TABLE
2
DIMSTYLE
5
A
100
AcDbSymbolTable
70
1
0
ENDTAB
0
TABLE
2
BLOCK_RECORD
5
1
100
AcDbSymbolTable
70
1
0
BLOCK_RECORD
5
1F
100
AcDbSymbolTableRecord
100
AcDbBlockTableRecord
2
*MODEL_SPACE
0
BLOCK_RECORD
5
1B
100
AcDbSymbolTableRecord
100
AcDbBlockTableRecord
2
*PAPER_SPACE
0
ENDTAB
0
ENDSEC
0
SECTION
2
BLOCKS
0
BLOCK
5
20
100
AcDbEntity
100
AcDbBlockBegin
2
*MODEL_SPACE
0
ENDBLK
5
21
100
AcDbEntity
100
AcDbBlockEnd
0
BLOCK
5
1C
100
AcDbEntity
100
AcDbBlockBegin
2
*PAPER_SPACE
0
ENDBLK
5
1D
100
AcDbEntity
100
AcDbBlockEnd
0
ENDSEC
0
SECTION
2
ENTITIES
0
LWPOLYLINE
5
100
100
AcDbEntity
8
0
100
AcDbPolyline
90
24
70
1
43
0.0
10
-5.0000000000004121
20
-68.000001907348803
10
-5.0000000000004547
20
-77.000001907348803
10
-24.000000000000355
20
-77.000001907348704
42
-0.41421356237309509
10
-29.000000000000373
20
-72.000001907348704
10
-29.000000000000341
20
23.999998092651438
42
-0.41421356237309509
10
-24.000000000000327
20
28.999998092651438
10
23.999999999999716
20
28.999998092651435
42
-0.41421356237309553
10
28.999999999999737
20
23.999998092651413
10
28.999999999999705
20
-72.000001907348704
42
-0.41421356237309476
10
23.999999999999684
20
-77.000001907348718
10
4.9999999999995559
20
-77.000001907348789
10
4.9999999999995959
20
-68.000001907348803
10
19.999999999999652
20
-68.000001907348746
10
19.999999999999666
20
-28.000001907348633
10
14.999999999999696
20
-28.000001907348633
10
14.999999999999698
20
-20.000001907348654
10
19.999999999999666
20
-20.000001907348668
10
19.999999999999677
20
19.999998092651413
10
-20.000000000000281
20
19.999998092651431
10
-20.000000000000302
20
-20.000001907348658
10
-15.000000000000339
20
-20.00000190734864
10
-15.000000000000341
20
-28.000001907348619
10
-20.000000000000316
20
-28.000001907348626
10
-20.000000000000327
20
-68.000001907348718
0
CIRCLE
5
101
100
AcDbEntity
8
0
100
AcDbCircle
10
-24.000000000000362
20
-72.00000190734869
30
0
40
1.6000000000000028
0
CIRCLE
5
102
100
AcDbEntity
8
0
100
AcDbCircle
10
23.999999999999687
20
-72.000001907348704
30
0
40
1.6000000000000028
0
CIRCLE
5
103
100
AcDbEntity
8
0
100
AcDbCircle
10
23.999999999999737
20
-24.000001907348668
30
0
40
1.6000000000000028
0
CIRCLE
5
104
100
AcDbEntity
8
0
100
AcDbCircle
10
-24.000000000000323
20
-24.000001907348651
30
0
40
1.6000000000000028
0
CIRCLE
5
105
100
AcDbEntity
8
0
100
AcDbCircle
10
-24.000000000000334
20
23.999998092651431
30
0
40
1.6000000000000028
0
CIRCLE
5
106
100
AcDbEntity
8
0
100
AcDbCircle
10
23.999999999999719
20
23.999998092651417
30
0
40
1.6000000000000028
0
ENDSEC
0
SECTION
2
OBJECTS
0
DICTIONARY
5
C
100
AcDbDictionary
3
ACAD_GROUP
350
D
3
ACAD_MLINESTYLE
350
17
0
DICTIONARY
5
D
100
AcDbDictionary
0
DICTIONARY
5
1A
330
C
100
AcDbDictionary
0
DICTIONARY
5
17
100
AcDbDictionary
0
ENDSEC
0
EOF
