G75*
%MOIN*%
%OFA0B0*%
%FSLAX24Y24*%
%IPPOS*%
%LPD*%
%AMOC8*
5,1,8,0,0,1.08239X$1,22.5*
%
%ADD10C,0.0000*%
%ADD11R,0.0728X0.0728*%
%ADD12C,0.0728*%
%ADD13C,0.0594*%
%ADD14C,0.0827*%
%ADD15R,0.0750X0.0750*%
%ADD16C,0.0750*%
%ADD17C,0.0600*%
%ADD18C,0.1890*%
%ADD19C,0.0886*%
%ADD20C,0.0650*%
%ADD21C,0.1181*%
%ADD22C,0.0768*%
%ADD23C,0.0515*%
%ADD24C,0.2000*%
%ADD25C,0.1000*%
%ADD26C,0.0500*%
%ADD27OC8,0.0356*%
%ADD28C,0.0356*%
%ADD29C,0.0160*%
%ADD30R,0.0356X0.0356*%
%ADD31C,0.0060*%
D10*
X001857Y002453D02*
X001857Y036312D01*
X026660Y036312D01*
X026660Y002453D01*
X001857Y002453D01*
X002408Y003634D02*
X002410Y003684D01*
X002416Y003734D01*
X002426Y003783D01*
X002440Y003831D01*
X002457Y003878D01*
X002478Y003923D01*
X002503Y003967D01*
X002531Y004008D01*
X002563Y004047D01*
X002597Y004084D01*
X002634Y004118D01*
X002674Y004148D01*
X002716Y004175D01*
X002760Y004199D01*
X002806Y004220D01*
X002853Y004236D01*
X002901Y004249D01*
X002951Y004258D01*
X003000Y004263D01*
X003051Y004264D01*
X003101Y004261D01*
X003150Y004254D01*
X003199Y004243D01*
X003247Y004228D01*
X003293Y004210D01*
X003338Y004188D01*
X003381Y004162D01*
X003422Y004133D01*
X003461Y004101D01*
X003497Y004066D01*
X003529Y004028D01*
X003559Y003988D01*
X003586Y003945D01*
X003609Y003901D01*
X003628Y003855D01*
X003644Y003807D01*
X003656Y003758D01*
X003664Y003709D01*
X003668Y003659D01*
X003668Y003609D01*
X003664Y003559D01*
X003656Y003510D01*
X003644Y003461D01*
X003628Y003413D01*
X003609Y003367D01*
X003586Y003323D01*
X003559Y003280D01*
X003529Y003240D01*
X003497Y003202D01*
X003461Y003167D01*
X003422Y003135D01*
X003381Y003106D01*
X003338Y003080D01*
X003293Y003058D01*
X003247Y003040D01*
X003199Y003025D01*
X003150Y003014D01*
X003101Y003007D01*
X003051Y003004D01*
X003000Y003005D01*
X002951Y003010D01*
X002901Y003019D01*
X002853Y003032D01*
X002806Y003048D01*
X002760Y003069D01*
X002716Y003093D01*
X002674Y003120D01*
X002634Y003150D01*
X002597Y003184D01*
X002563Y003221D01*
X002531Y003260D01*
X002503Y003301D01*
X002478Y003345D01*
X002457Y003390D01*
X002440Y003437D01*
X002426Y003485D01*
X002416Y003534D01*
X002410Y003584D01*
X002408Y003634D01*
X024849Y003634D02*
X024851Y003684D01*
X024857Y003734D01*
X024867Y003783D01*
X024881Y003831D01*
X024898Y003878D01*
X024919Y003923D01*
X024944Y003967D01*
X024972Y004008D01*
X025004Y004047D01*
X025038Y004084D01*
X025075Y004118D01*
X025115Y004148D01*
X025157Y004175D01*
X025201Y004199D01*
X025247Y004220D01*
X025294Y004236D01*
X025342Y004249D01*
X025392Y004258D01*
X025441Y004263D01*
X025492Y004264D01*
X025542Y004261D01*
X025591Y004254D01*
X025640Y004243D01*
X025688Y004228D01*
X025734Y004210D01*
X025779Y004188D01*
X025822Y004162D01*
X025863Y004133D01*
X025902Y004101D01*
X025938Y004066D01*
X025970Y004028D01*
X026000Y003988D01*
X026027Y003945D01*
X026050Y003901D01*
X026069Y003855D01*
X026085Y003807D01*
X026097Y003758D01*
X026105Y003709D01*
X026109Y003659D01*
X026109Y003609D01*
X026105Y003559D01*
X026097Y003510D01*
X026085Y003461D01*
X026069Y003413D01*
X026050Y003367D01*
X026027Y003323D01*
X026000Y003280D01*
X025970Y003240D01*
X025938Y003202D01*
X025902Y003167D01*
X025863Y003135D01*
X025822Y003106D01*
X025779Y003080D01*
X025734Y003058D01*
X025688Y003040D01*
X025640Y003025D01*
X025591Y003014D01*
X025542Y003007D01*
X025492Y003004D01*
X025441Y003005D01*
X025392Y003010D01*
X025342Y003019D01*
X025294Y003032D01*
X025247Y003048D01*
X025201Y003069D01*
X025157Y003093D01*
X025115Y003120D01*
X025075Y003150D01*
X025038Y003184D01*
X025004Y003221D01*
X024972Y003260D01*
X024944Y003301D01*
X024919Y003345D01*
X024898Y003390D01*
X024881Y003437D01*
X024867Y003485D01*
X024857Y003534D01*
X024851Y003584D01*
X024849Y003634D01*
X024849Y035130D02*
X024851Y035180D01*
X024857Y035230D01*
X024867Y035279D01*
X024881Y035327D01*
X024898Y035374D01*
X024919Y035419D01*
X024944Y035463D01*
X024972Y035504D01*
X025004Y035543D01*
X025038Y035580D01*
X025075Y035614D01*
X025115Y035644D01*
X025157Y035671D01*
X025201Y035695D01*
X025247Y035716D01*
X025294Y035732D01*
X025342Y035745D01*
X025392Y035754D01*
X025441Y035759D01*
X025492Y035760D01*
X025542Y035757D01*
X025591Y035750D01*
X025640Y035739D01*
X025688Y035724D01*
X025734Y035706D01*
X025779Y035684D01*
X025822Y035658D01*
X025863Y035629D01*
X025902Y035597D01*
X025938Y035562D01*
X025970Y035524D01*
X026000Y035484D01*
X026027Y035441D01*
X026050Y035397D01*
X026069Y035351D01*
X026085Y035303D01*
X026097Y035254D01*
X026105Y035205D01*
X026109Y035155D01*
X026109Y035105D01*
X026105Y035055D01*
X026097Y035006D01*
X026085Y034957D01*
X026069Y034909D01*
X026050Y034863D01*
X026027Y034819D01*
X026000Y034776D01*
X025970Y034736D01*
X025938Y034698D01*
X025902Y034663D01*
X025863Y034631D01*
X025822Y034602D01*
X025779Y034576D01*
X025734Y034554D01*
X025688Y034536D01*
X025640Y034521D01*
X025591Y034510D01*
X025542Y034503D01*
X025492Y034500D01*
X025441Y034501D01*
X025392Y034506D01*
X025342Y034515D01*
X025294Y034528D01*
X025247Y034544D01*
X025201Y034565D01*
X025157Y034589D01*
X025115Y034616D01*
X025075Y034646D01*
X025038Y034680D01*
X025004Y034717D01*
X024972Y034756D01*
X024944Y034797D01*
X024919Y034841D01*
X024898Y034886D01*
X024881Y034933D01*
X024867Y034981D01*
X024857Y035030D01*
X024851Y035080D01*
X024849Y035130D01*
X002408Y035130D02*
X002410Y035180D01*
X002416Y035230D01*
X002426Y035279D01*
X002440Y035327D01*
X002457Y035374D01*
X002478Y035419D01*
X002503Y035463D01*
X002531Y035504D01*
X002563Y035543D01*
X002597Y035580D01*
X002634Y035614D01*
X002674Y035644D01*
X002716Y035671D01*
X002760Y035695D01*
X002806Y035716D01*
X002853Y035732D01*
X002901Y035745D01*
X002951Y035754D01*
X003000Y035759D01*
X003051Y035760D01*
X003101Y035757D01*
X003150Y035750D01*
X003199Y035739D01*
X003247Y035724D01*
X003293Y035706D01*
X003338Y035684D01*
X003381Y035658D01*
X003422Y035629D01*
X003461Y035597D01*
X003497Y035562D01*
X003529Y035524D01*
X003559Y035484D01*
X003586Y035441D01*
X003609Y035397D01*
X003628Y035351D01*
X003644Y035303D01*
X003656Y035254D01*
X003664Y035205D01*
X003668Y035155D01*
X003668Y035105D01*
X003664Y035055D01*
X003656Y035006D01*
X003644Y034957D01*
X003628Y034909D01*
X003609Y034863D01*
X003586Y034819D01*
X003559Y034776D01*
X003529Y034736D01*
X003497Y034698D01*
X003461Y034663D01*
X003422Y034631D01*
X003381Y034602D01*
X003338Y034576D01*
X003293Y034554D01*
X003247Y034536D01*
X003199Y034521D01*
X003150Y034510D01*
X003101Y034503D01*
X003051Y034500D01*
X003000Y034501D01*
X002951Y034506D01*
X002901Y034515D01*
X002853Y034528D01*
X002806Y034544D01*
X002760Y034565D01*
X002716Y034589D01*
X002674Y034616D01*
X002634Y034646D01*
X002597Y034680D01*
X002563Y034717D01*
X002531Y034756D01*
X002503Y034797D01*
X002478Y034841D01*
X002457Y034886D01*
X002440Y034933D01*
X002426Y034981D01*
X002416Y035030D01*
X002410Y035080D01*
X002408Y035130D01*
D11*
X015145Y032375D03*
X009070Y010118D03*
D12*
X009070Y011496D03*
X013767Y032375D03*
D13*
X008567Y007363D02*
X007974Y007363D01*
X007974Y006363D02*
X008567Y006363D01*
X008567Y005363D02*
X007974Y005363D01*
D14*
X005716Y006351D02*
X004889Y006351D01*
X003550Y006351D02*
X002723Y006351D01*
X002723Y008005D02*
X003550Y008005D01*
X003550Y009658D02*
X002723Y009658D01*
X002723Y011312D02*
X003550Y011312D01*
X003550Y012965D02*
X002723Y012965D01*
X002723Y014619D02*
X003550Y014619D01*
X004889Y014619D02*
X005716Y014619D01*
X005716Y012965D02*
X004889Y012965D01*
X004889Y011312D02*
X005716Y011312D01*
X005716Y009658D02*
X004889Y009658D01*
X004889Y008005D02*
X005716Y008005D01*
X005716Y016272D02*
X004889Y016272D01*
X004889Y017926D02*
X005716Y017926D01*
X005716Y019579D02*
X004889Y019579D01*
X003550Y019579D02*
X002723Y019579D01*
X002723Y017926D02*
X003550Y017926D01*
X003550Y016272D02*
X002723Y016272D01*
X002723Y021233D02*
X003550Y021233D01*
X003550Y022886D02*
X002723Y022886D01*
X002723Y024540D02*
X003550Y024540D01*
X004889Y024540D02*
X005716Y024540D01*
X005716Y022886D02*
X004889Y022886D01*
X004889Y021233D02*
X005716Y021233D01*
D15*
X018195Y010553D03*
X020951Y010553D03*
X023707Y010553D03*
D16*
X022651Y010553D03*
X022651Y007653D03*
X023707Y007653D03*
X025407Y007653D03*
X025407Y010553D03*
X020951Y007653D03*
X019895Y007653D03*
X018195Y007653D03*
X019895Y010553D03*
D17*
X020007Y006553D02*
X020007Y005953D01*
X020007Y004753D02*
X020007Y004153D01*
X021007Y004153D02*
X021007Y004753D01*
X022007Y004753D02*
X022007Y004153D01*
X023007Y004153D02*
X023007Y004753D01*
X023007Y005953D02*
X023007Y006553D01*
X022007Y006553D02*
X022007Y005953D01*
X021007Y005953D02*
X021007Y006553D01*
X024007Y006553D02*
X024007Y005953D01*
X025007Y005953D02*
X025007Y006553D01*
X009861Y015614D02*
X009261Y015614D01*
X009261Y016614D02*
X009861Y016614D01*
X009861Y017614D02*
X009261Y017614D01*
X013956Y034830D02*
X013956Y035430D01*
X014956Y035430D02*
X014956Y034830D01*
D18*
X005515Y028871D03*
X004334Y027020D03*
X003192Y028871D03*
D19*
X008596Y027534D03*
X012337Y027534D03*
X011742Y016614D03*
D20*
X011963Y023302D03*
X011963Y025270D03*
X007671Y029798D03*
X007671Y031766D03*
D21*
X008754Y033085D03*
X010880Y021983D03*
D22*
X013758Y022355D02*
X013758Y021588D01*
X009142Y034728D02*
X008374Y034728D01*
D23*
X017122Y021922D03*
X018122Y021922D03*
X019122Y021922D03*
X020122Y021922D03*
X021122Y021922D03*
X022122Y021922D03*
X023122Y021922D03*
X024122Y021922D03*
X025122Y021922D03*
X025122Y011922D03*
X024122Y011922D03*
X023122Y011922D03*
X022122Y011922D03*
X021122Y011922D03*
X020122Y011922D03*
X019122Y011922D03*
X018122Y011922D03*
X017122Y011922D03*
D24*
X009851Y014913D02*
X008377Y014913D01*
X008212Y015078D01*
X008097Y015193D01*
X007267Y015193D01*
X007207Y015253D01*
X007357Y015653D02*
X007357Y009658D01*
X007357Y008773D01*
X007237Y008653D01*
X007357Y009658D02*
X005302Y009658D01*
X003137Y009658D01*
X003137Y012965D02*
X005302Y012965D01*
X007207Y012965D01*
X007207Y013143D01*
X007917Y015123D02*
X007872Y015168D01*
X007357Y015683D01*
X007357Y015653D01*
X007357Y015683D02*
X007357Y016272D01*
X005302Y016272D01*
X003137Y016272D01*
X003137Y014619D01*
X003137Y012965D01*
X007357Y016272D02*
X007357Y025178D01*
X006162Y026373D01*
X004981Y026373D01*
X004334Y027020D01*
X004317Y027004D01*
X004317Y026233D01*
X003137Y025053D01*
X003137Y024540D01*
X004207Y027013D02*
X004407Y027013D01*
X004407Y027103D01*
X004334Y027020D02*
X003192Y028162D01*
X003192Y028871D01*
X003157Y028823D02*
X003257Y028823D01*
X003257Y028943D01*
X003127Y028943D01*
X008754Y033085D02*
X008758Y033089D01*
X008758Y034728D01*
D25*
X012337Y027533D02*
X012097Y027293D01*
X009157Y024353D01*
X009157Y019643D01*
X010887Y017913D01*
X010887Y016613D01*
X011721Y016613D01*
X011721Y016603D01*
X010887Y016613D02*
X009561Y016613D01*
X007397Y015614D02*
X007357Y015653D01*
X007237Y008653D02*
X006767Y008653D01*
X007237Y008653D02*
X010027Y008653D01*
X022907Y019973D02*
X022927Y019973D01*
X022927Y020313D01*
D26*
X023401Y019993D02*
X023136Y019728D01*
X022927Y019728D01*
X020882Y019728D01*
X020882Y018193D01*
X020882Y015213D01*
X020882Y012683D01*
X024361Y012683D01*
X025122Y011922D01*
X020898Y012698D02*
X020882Y012683D01*
X020122Y011922D01*
X020882Y015213D02*
X020831Y015263D01*
X020882Y019728D02*
X017617Y019728D01*
X017122Y020223D01*
X017122Y021922D01*
X013417Y025743D02*
X012687Y025013D01*
X012687Y010283D01*
X013527Y009443D01*
X016627Y009443D01*
X010547Y009173D02*
X010027Y008653D01*
X010547Y009173D02*
X010547Y010413D01*
X009937Y011023D01*
X009937Y011693D01*
X009115Y015168D02*
X007872Y015168D01*
X009115Y015168D02*
X009561Y015614D01*
X007357Y025178D02*
X007357Y025263D01*
X007587Y025493D01*
X008857Y025493D01*
X012117Y028753D01*
X012737Y029373D01*
X012737Y033063D01*
X013177Y033503D01*
X013967Y033503D01*
X015477Y033503D01*
X016087Y032893D01*
X016087Y030763D01*
X016407Y030443D01*
X017337Y029553D02*
X013427Y029553D01*
X013417Y029543D01*
X013417Y025743D01*
X013417Y029543D02*
X013417Y030647D01*
X015145Y032375D01*
X013967Y033503D02*
X013956Y033515D01*
X013956Y035130D01*
X017337Y029553D02*
X018467Y028423D01*
X021427Y028423D01*
X022587Y027263D01*
X022587Y023573D01*
X023037Y023123D01*
X023921Y023123D01*
X025122Y021922D01*
X023401Y020903D02*
X023401Y019993D01*
D27*
X010807Y017943D03*
X010627Y016623D03*
X009207Y019683D03*
X009107Y021883D03*
X009167Y024343D03*
X010757Y025983D03*
X010027Y008653D03*
D28*
X010547Y010413D03*
X009937Y011693D03*
X013557Y010223D03*
X016627Y009443D03*
X016947Y008573D03*
X017161Y012683D03*
X018521Y015163D03*
X018111Y015473D03*
X017891Y015893D03*
X017441Y015933D03*
X017431Y016463D03*
X017021Y016563D03*
X017001Y017153D03*
X019351Y019023D03*
X020291Y018863D03*
X017831Y020403D03*
X018711Y022513D03*
X017936Y022899D03*
X016571Y022983D03*
X019641Y022583D03*
X020421Y025353D03*
X021361Y025253D03*
X021361Y025923D03*
X021591Y026313D03*
X021841Y026683D03*
X021101Y026383D03*
X021191Y027883D03*
X019511Y029193D03*
X018727Y029213D03*
X018457Y031573D03*
X019225Y031573D03*
X020281Y031283D03*
X021511Y031063D03*
X022321Y030943D03*
X022547Y031983D03*
X022947Y032713D03*
X022327Y033303D03*
X022747Y034443D03*
X021557Y035753D03*
X020577Y034633D03*
X020197Y033953D03*
X020157Y033513D03*
X020897Y034173D03*
X018797Y034803D03*
X018787Y035223D03*
X018287Y035663D03*
X018337Y034353D03*
X017487Y031363D03*
X016407Y030443D03*
X015777Y033983D03*
X014527Y034013D03*
X012697Y025833D03*
X020831Y015263D03*
X023401Y020903D03*
X025607Y031683D03*
D29*
X025607Y031183D01*
X025367Y030943D01*
X022321Y030943D01*
X022593Y030623D02*
X022558Y030589D01*
X022405Y030525D01*
X022238Y030525D01*
X022085Y030589D01*
X021967Y030706D01*
X021903Y030860D01*
X021903Y030917D01*
X021866Y030826D01*
X021748Y030709D01*
X021595Y030645D01*
X021428Y030645D01*
X021275Y030709D01*
X021157Y030826D01*
X021093Y030980D01*
X021093Y031146D01*
X021157Y031300D01*
X021191Y031335D01*
X021191Y032141D01*
X021240Y032259D01*
X021655Y032673D01*
X020950Y032673D01*
X020547Y032271D01*
X020547Y031609D01*
X020636Y031520D01*
X020699Y031366D01*
X020699Y031200D01*
X020636Y031046D01*
X020518Y030929D01*
X020365Y030865D01*
X020277Y030865D01*
X020277Y029576D01*
X020229Y029458D01*
X019929Y029159D01*
X019929Y029110D01*
X019866Y028956D01*
X019823Y028913D01*
X021525Y028913D01*
X021705Y028839D01*
X021843Y028701D01*
X022920Y027623D01*
X022920Y030406D01*
X026420Y030406D01*
X026420Y036072D01*
X021830Y036072D01*
X021912Y035990D01*
X021975Y035836D01*
X021975Y035670D01*
X021912Y035516D01*
X021829Y035434D01*
X021829Y035432D01*
X021739Y035342D01*
X020995Y034599D01*
X020995Y034585D01*
X021134Y034528D01*
X021252Y034410D01*
X021315Y034256D01*
X021315Y034090D01*
X021252Y033936D01*
X021217Y033902D01*
X021217Y033803D01*
X022211Y033803D01*
X022329Y033755D01*
X022362Y033721D01*
X022410Y033721D01*
X022427Y033714D01*
X022427Y034172D01*
X022393Y034206D01*
X022329Y034360D01*
X022329Y034526D01*
X022393Y034680D01*
X022510Y034798D01*
X022664Y034861D01*
X022830Y034861D01*
X022984Y034798D01*
X023102Y034680D01*
X023165Y034526D01*
X023165Y034360D01*
X023102Y034206D01*
X023067Y034172D01*
X023067Y033116D01*
X023184Y033068D01*
X023302Y032950D01*
X023365Y032796D01*
X023365Y032630D01*
X023302Y032476D01*
X023184Y032359D01*
X023030Y032295D01*
X022982Y032295D01*
X022919Y032232D01*
X022801Y032183D01*
X022070Y032183D01*
X021831Y031945D01*
X021831Y031335D01*
X021866Y031300D01*
X021929Y031146D01*
X021929Y031090D01*
X021967Y031180D01*
X022085Y031298D01*
X022238Y031361D01*
X022405Y031361D01*
X022558Y031298D01*
X022593Y031263D01*
X025235Y031263D01*
X025287Y031316D01*
X025287Y031412D01*
X025253Y031446D01*
X025189Y031600D01*
X025189Y031766D01*
X025253Y031920D01*
X025370Y032038D01*
X025524Y032101D01*
X025690Y032101D01*
X025844Y032038D01*
X025962Y031920D01*
X026025Y031766D01*
X026025Y031600D01*
X025962Y031446D01*
X025927Y031412D01*
X025927Y031120D01*
X025879Y031002D01*
X025789Y030912D01*
X025789Y030912D01*
X025639Y030762D01*
X025639Y030762D01*
X025549Y030672D01*
X025431Y030623D01*
X022593Y030623D01*
X022920Y030349D02*
X020277Y030349D01*
X020277Y030191D02*
X022920Y030191D01*
X022920Y030032D02*
X020277Y030032D01*
X020277Y029874D02*
X022920Y029874D01*
X022920Y029715D02*
X020277Y029715D01*
X020270Y029557D02*
X022920Y029557D01*
X022920Y029398D02*
X020169Y029398D01*
X020010Y029240D02*
X022920Y029240D01*
X022920Y029081D02*
X019918Y029081D01*
X019832Y028923D02*
X022920Y028923D01*
X022920Y028764D02*
X021779Y028764D01*
X021938Y028606D02*
X022920Y028606D01*
X022920Y028447D02*
X022096Y028447D01*
X022255Y028289D02*
X022920Y028289D01*
X022920Y028130D02*
X022413Y028130D01*
X022572Y027972D02*
X022920Y027972D01*
X022920Y027813D02*
X022730Y027813D01*
X022889Y027655D02*
X022920Y027655D01*
X022171Y027033D02*
X021321Y027883D01*
X021191Y027883D01*
X020955Y027529D02*
X020837Y027646D01*
X020773Y027800D01*
X020773Y027933D01*
X018370Y027933D01*
X018190Y028008D01*
X017134Y029063D01*
X013907Y029063D01*
X013907Y025646D01*
X013833Y025466D01*
X013177Y024810D01*
X013177Y022583D01*
X013177Y022583D01*
X013230Y022709D01*
X013405Y022884D01*
X013634Y022979D01*
X013882Y022979D01*
X014112Y022884D01*
X014287Y022709D01*
X014382Y022479D01*
X014382Y021464D01*
X014287Y021234D01*
X014112Y021059D01*
X013882Y020964D01*
X013634Y020964D01*
X013405Y021059D01*
X013230Y021234D01*
X013177Y021360D01*
X013177Y010486D01*
X013203Y010460D01*
X013320Y010578D01*
X013474Y010641D01*
X013640Y010641D01*
X013794Y010578D01*
X013912Y010460D01*
X013975Y010306D01*
X013975Y010258D01*
X014060Y010173D01*
X015297Y010173D01*
X015297Y011867D01*
X015346Y011985D01*
X015436Y012075D01*
X018227Y014866D01*
X018167Y014926D01*
X018114Y015055D01*
X018028Y015055D01*
X017875Y015119D01*
X017757Y015236D01*
X017693Y015390D01*
X017693Y015523D01*
X017655Y015539D01*
X017633Y015560D01*
X017525Y015515D01*
X017358Y015515D01*
X017205Y015579D01*
X017087Y015696D01*
X017023Y015850D01*
X017023Y016016D01*
X017077Y016145D01*
X016938Y016145D01*
X016785Y016209D01*
X016667Y016326D01*
X016603Y016480D01*
X016603Y016646D01*
X016667Y016800D01*
X016715Y016848D01*
X016647Y016916D01*
X016583Y017070D01*
X016583Y017236D01*
X016607Y017295D01*
X014990Y018912D01*
X014941Y019030D01*
X014941Y021381D01*
X014490Y021832D01*
X014441Y021950D01*
X014441Y024437D01*
X014490Y024555D01*
X014580Y024645D01*
X015460Y025525D01*
X015578Y025573D01*
X020060Y025573D01*
X020067Y025590D01*
X020185Y025708D01*
X020338Y025771D01*
X020471Y025771D01*
X020471Y026137D01*
X020520Y026255D01*
X020683Y026418D01*
X020683Y026466D01*
X020747Y026620D01*
X020865Y026738D01*
X021018Y026801D01*
X021185Y026801D01*
X021338Y026738D01*
X021392Y026684D01*
X021423Y026696D01*
X021423Y026766D01*
X021487Y026920D01*
X021605Y027038D01*
X021682Y027070D01*
X021283Y027469D01*
X021275Y027465D01*
X021108Y027465D01*
X020955Y027529D01*
X021033Y027496D02*
X013907Y027496D01*
X013907Y027338D02*
X021414Y027338D01*
X021573Y027179D02*
X013907Y027179D01*
X013907Y027021D02*
X021588Y027021D01*
X021463Y026862D02*
X013907Y026862D01*
X013907Y026704D02*
X020831Y026704D01*
X020716Y026545D02*
X013907Y026545D01*
X013907Y026387D02*
X020652Y026387D01*
X020509Y026228D02*
X013907Y026228D01*
X013907Y026070D02*
X020471Y026070D01*
X020471Y025911D02*
X013907Y025911D01*
X013907Y025753D02*
X020293Y025753D01*
X020071Y025594D02*
X013886Y025594D01*
X013803Y025436D02*
X015371Y025436D01*
X015213Y025277D02*
X013644Y025277D01*
X013486Y025119D02*
X015054Y025119D01*
X014896Y024960D02*
X013327Y024960D01*
X013177Y024802D02*
X014737Y024802D01*
X014579Y024643D02*
X013177Y024643D01*
X013177Y024485D02*
X014461Y024485D01*
X014441Y024326D02*
X013177Y024326D01*
X013177Y024168D02*
X014441Y024168D01*
X014441Y024009D02*
X013177Y024009D01*
X013177Y023851D02*
X014441Y023851D01*
X014441Y023692D02*
X013177Y023692D01*
X013177Y023534D02*
X014441Y023534D01*
X014441Y023375D02*
X013177Y023375D01*
X013177Y023217D02*
X014441Y023217D01*
X014441Y023058D02*
X013177Y023058D01*
X013177Y022900D02*
X013443Y022900D01*
X013262Y022741D02*
X013177Y022741D01*
X014074Y022900D02*
X014441Y022900D01*
X014441Y022741D02*
X014255Y022741D01*
X014339Y022583D02*
X014441Y022583D01*
X014441Y022424D02*
X014382Y022424D01*
X014382Y022266D02*
X014441Y022266D01*
X014441Y022107D02*
X014382Y022107D01*
X014382Y021949D02*
X014442Y021949D01*
X014382Y021790D02*
X014532Y021790D01*
X014382Y021632D02*
X014690Y021632D01*
X014849Y021473D02*
X014382Y021473D01*
X014321Y021315D02*
X014941Y021315D01*
X014941Y021156D02*
X014209Y021156D01*
X013965Y020998D02*
X014941Y020998D01*
X014941Y020839D02*
X013177Y020839D01*
X013177Y020681D02*
X014941Y020681D01*
X014941Y020522D02*
X013177Y020522D01*
X013177Y020364D02*
X014941Y020364D01*
X014941Y020205D02*
X013177Y020205D01*
X013177Y020047D02*
X014941Y020047D01*
X014941Y019888D02*
X013177Y019888D01*
X013177Y019730D02*
X014941Y019730D01*
X014941Y019571D02*
X013177Y019571D01*
X013177Y019413D02*
X014941Y019413D01*
X014941Y019254D02*
X013177Y019254D01*
X013177Y019096D02*
X014941Y019096D01*
X014980Y018937D02*
X013177Y018937D01*
X013177Y018779D02*
X015123Y018779D01*
X015282Y018620D02*
X013177Y018620D01*
X013177Y018462D02*
X015440Y018462D01*
X015599Y018303D02*
X013177Y018303D01*
X013177Y018145D02*
X015757Y018145D01*
X015916Y017986D02*
X013177Y017986D01*
X013177Y017828D02*
X016074Y017828D01*
X016233Y017669D02*
X013177Y017669D01*
X013177Y017511D02*
X016391Y017511D01*
X016550Y017352D02*
X013177Y017352D01*
X013177Y017194D02*
X016583Y017194D01*
X016598Y017035D02*
X013177Y017035D01*
X013177Y016877D02*
X016687Y016877D01*
X016633Y016718D02*
X013177Y016718D01*
X013177Y016560D02*
X016603Y016560D01*
X016636Y016401D02*
X013177Y016401D01*
X013177Y016243D02*
X016751Y016243D01*
X017051Y016084D02*
X013177Y016084D01*
X013177Y015926D02*
X017023Y015926D01*
X017058Y015767D02*
X013177Y015767D01*
X013177Y015609D02*
X017175Y015609D01*
X017441Y015933D02*
X017821Y016313D01*
X017821Y017803D01*
X015981Y019643D01*
X015981Y021953D01*
X015481Y022453D01*
X015481Y023993D01*
X016021Y024533D01*
X021181Y024533D01*
X021361Y024713D01*
X021361Y025253D01*
X021031Y024973D02*
X021031Y025593D01*
X021361Y025923D01*
X021691Y026213D02*
X021691Y024423D01*
X021561Y024293D01*
X016131Y024293D01*
X015721Y023883D01*
X015721Y022613D01*
X016221Y022113D01*
X016221Y019813D01*
X018061Y017973D01*
X018061Y016063D01*
X017891Y015893D01*
X018281Y015643D02*
X018111Y015473D01*
X018281Y015643D02*
X018281Y018133D01*
X016461Y019953D01*
X016461Y022273D01*
X015961Y022773D01*
X015961Y023753D01*
X016261Y024053D01*
X021741Y024053D01*
X021931Y024243D01*
X021931Y026593D01*
X021841Y026683D01*
X021591Y026313D02*
X021691Y026213D01*
X021423Y026704D02*
X021372Y026704D01*
X021101Y026383D02*
X021001Y026283D01*
X021101Y026383D02*
X020791Y026073D01*
X020791Y025143D01*
X020661Y025013D01*
X015771Y025013D01*
X015001Y024243D01*
X015001Y022163D01*
X015501Y021663D01*
X015501Y019293D01*
X017341Y017453D01*
X017341Y016883D01*
X017021Y016563D01*
X017431Y016463D02*
X017581Y016613D01*
X017581Y017643D01*
X015741Y019483D01*
X015741Y021813D01*
X015241Y022313D01*
X015241Y024113D01*
X015901Y024773D01*
X020831Y024773D01*
X021031Y024973D01*
X020421Y025353D02*
X020321Y025253D01*
X015641Y025253D01*
X014761Y024373D01*
X014761Y022013D01*
X015261Y021513D01*
X015261Y019093D01*
X017001Y017353D01*
X017001Y017153D01*
X017693Y015450D02*
X013177Y015450D01*
X013177Y015292D02*
X017734Y015292D01*
X017860Y015133D02*
X013177Y015133D01*
X013177Y014975D02*
X018147Y014975D01*
X018178Y014816D02*
X013177Y014816D01*
X013177Y014658D02*
X018019Y014658D01*
X017861Y014499D02*
X013177Y014499D01*
X013177Y014341D02*
X017702Y014341D01*
X017544Y014182D02*
X013177Y014182D01*
X013177Y014024D02*
X017385Y014024D01*
X017227Y013865D02*
X013177Y013865D01*
X013177Y013707D02*
X017068Y013707D01*
X016910Y013548D02*
X013177Y013548D01*
X013177Y013390D02*
X016751Y013390D01*
X016593Y013231D02*
X013177Y013231D01*
X013177Y013073D02*
X016434Y013073D01*
X016276Y012914D02*
X013177Y012914D01*
X013177Y012756D02*
X016117Y012756D01*
X015959Y012597D02*
X013177Y012597D01*
X013177Y012439D02*
X015800Y012439D01*
X015642Y012280D02*
X013177Y012280D01*
X013177Y012122D02*
X015483Y012122D01*
X015436Y012075D02*
X015436Y012075D01*
X015337Y011963D02*
X013177Y011963D01*
X013177Y011805D02*
X015297Y011805D01*
X015297Y011646D02*
X013177Y011646D01*
X013177Y011488D02*
X015297Y011488D01*
X015297Y011329D02*
X013177Y011329D01*
X013177Y011171D02*
X015297Y011171D01*
X015297Y011012D02*
X013177Y011012D01*
X013177Y010854D02*
X015297Y010854D01*
X015297Y010695D02*
X013177Y010695D01*
X013177Y010537D02*
X013280Y010537D01*
X013557Y010223D02*
X013927Y009853D01*
X015617Y009853D01*
X015617Y011803D01*
X018847Y015033D01*
X018847Y015323D01*
X018767Y015403D01*
X018767Y018439D01*
X019351Y019023D01*
X019727Y018863D02*
X019007Y018143D01*
X019007Y015533D01*
X019107Y015433D01*
X019107Y014933D01*
X017161Y012987D01*
X017161Y012683D01*
X016779Y012513D02*
X016807Y012446D01*
X016889Y012364D01*
X016840Y012344D01*
X016700Y012204D01*
X016624Y012021D01*
X016624Y011823D01*
X016700Y011640D01*
X016840Y011500D01*
X017023Y011425D01*
X017221Y011425D01*
X017404Y011500D01*
X017544Y011640D01*
X017619Y011823D01*
X017619Y012021D01*
X017544Y012204D01*
X017408Y012339D01*
X017516Y012446D01*
X017579Y012600D01*
X017579Y012766D01*
X017525Y012898D01*
X019379Y014752D01*
X019427Y014870D01*
X019427Y015497D01*
X019379Y015615D01*
X019327Y015666D01*
X019327Y018011D01*
X019860Y018543D01*
X020020Y018543D01*
X020055Y018509D01*
X020208Y018445D01*
X020375Y018445D01*
X020528Y018509D01*
X020646Y018626D01*
X020709Y018780D01*
X020709Y018946D01*
X020646Y019100D01*
X020528Y019218D01*
X020375Y019281D01*
X020208Y019281D01*
X020055Y019218D01*
X020020Y019183D01*
X019738Y019183D01*
X019706Y019260D01*
X019588Y019378D01*
X019435Y019441D01*
X019268Y019441D01*
X019115Y019378D01*
X018997Y019260D01*
X018933Y019106D01*
X018933Y019058D01*
X018586Y018711D01*
X018551Y018676D01*
X017021Y020206D01*
X017021Y021495D01*
X017087Y021485D01*
X017122Y021485D01*
X017156Y021485D01*
X017224Y021496D01*
X017290Y021517D01*
X017351Y021548D01*
X017381Y021570D01*
X017381Y021550D01*
X017430Y021432D01*
X017520Y021342D01*
X017520Y021342D01*
X018030Y020832D01*
X018148Y020783D01*
X020625Y020783D01*
X020743Y020832D01*
X020833Y020922D01*
X021393Y021482D01*
X021400Y021499D01*
X021404Y021500D01*
X021544Y021640D01*
X021619Y021823D01*
X021619Y022021D01*
X021610Y022043D01*
X021633Y022043D01*
X021624Y022021D01*
X021624Y021823D01*
X021700Y021640D01*
X021711Y021629D01*
X021711Y020723D01*
X018103Y020723D01*
X018068Y020758D01*
X017915Y020821D01*
X017748Y020821D01*
X017595Y020758D01*
X017477Y020640D01*
X017413Y020486D01*
X017413Y020320D01*
X017477Y020166D01*
X017595Y020049D01*
X017748Y019985D01*
X017915Y019985D01*
X018068Y020049D01*
X018103Y020083D01*
X021935Y020083D01*
X022053Y020132D01*
X022213Y020292D01*
X022303Y020382D01*
X022351Y020500D01*
X022351Y021479D01*
X022404Y021500D01*
X022544Y021640D01*
X022619Y021823D01*
X022619Y021972D01*
X022624Y021967D01*
X022624Y021823D01*
X022700Y021640D01*
X022840Y021500D01*
X023023Y021425D01*
X023221Y021425D01*
X023404Y021500D01*
X023544Y021640D01*
X023619Y021823D01*
X023619Y022021D01*
X023544Y022204D01*
X023404Y022344D01*
X023221Y022420D01*
X023077Y022420D01*
X022862Y022635D01*
X022744Y022683D01*
X020778Y022683D01*
X020660Y022635D01*
X020442Y022416D01*
X020442Y023027D01*
X020393Y023144D01*
X020303Y023234D01*
X020073Y023465D01*
X019979Y023503D01*
X022035Y023503D01*
X022097Y023529D01*
X022097Y023476D01*
X022172Y023296D01*
X022310Y023158D01*
X022760Y022708D01*
X022940Y022633D01*
X023718Y022633D01*
X023958Y022393D01*
X023840Y022344D01*
X023700Y022204D01*
X023624Y022021D01*
X023624Y021823D01*
X023700Y021640D01*
X023840Y021500D01*
X024023Y021425D01*
X024221Y021425D01*
X024404Y021500D01*
X024544Y021640D01*
X024592Y021759D01*
X024693Y021658D01*
X024700Y021640D01*
X024840Y021500D01*
X025023Y021425D01*
X025221Y021425D01*
X025404Y021500D01*
X025544Y021640D01*
X025619Y021823D01*
X025619Y022021D01*
X025544Y022204D01*
X025404Y022344D01*
X025386Y022351D01*
X024336Y023401D01*
X024198Y023539D01*
X024018Y023613D01*
X023240Y023613D01*
X023140Y023713D01*
X026420Y023713D01*
X026420Y020564D01*
X022723Y020564D01*
X022723Y012690D01*
X026420Y012690D01*
X026420Y002693D01*
X002097Y002693D01*
X002097Y006155D01*
X002170Y005981D01*
X002353Y005797D01*
X002593Y005698D01*
X003680Y005698D01*
X003920Y005797D01*
X004104Y005981D01*
X004204Y006221D01*
X004204Y006481D01*
X004104Y006721D01*
X003920Y006905D01*
X003680Y007004D01*
X002593Y007004D01*
X002353Y006905D01*
X002170Y006721D01*
X002097Y006547D01*
X002097Y007809D01*
X002170Y007634D01*
X002353Y007451D01*
X002593Y007351D01*
X003680Y007351D01*
X003920Y007451D01*
X004104Y007634D01*
X004204Y007875D01*
X004204Y008134D01*
X004104Y008375D01*
X003920Y008558D01*
X003680Y008658D01*
X002593Y008658D01*
X002353Y008558D01*
X002170Y008375D01*
X002097Y008200D01*
X002097Y011116D01*
X002170Y010941D01*
X002353Y010758D01*
X002593Y010658D01*
X003680Y010658D01*
X003920Y010758D01*
X004104Y010941D01*
X004204Y011182D01*
X004204Y011442D01*
X004104Y011682D01*
X003920Y011866D01*
X003680Y011965D01*
X002593Y011965D01*
X002353Y011866D01*
X002170Y011682D01*
X002097Y011507D01*
X002097Y017730D01*
X002170Y017556D01*
X002353Y017372D01*
X002593Y017272D01*
X003680Y017272D01*
X003920Y017372D01*
X004104Y017556D01*
X004204Y017796D01*
X004204Y018056D01*
X004104Y018296D01*
X003920Y018480D01*
X003680Y018579D01*
X002593Y018579D01*
X002353Y018480D01*
X002170Y018296D01*
X002097Y018122D01*
X002097Y019384D01*
X002170Y019209D01*
X002353Y019025D01*
X002593Y018926D01*
X003680Y018926D01*
X003920Y019025D01*
X004104Y019209D01*
X004204Y019449D01*
X004204Y019709D01*
X004104Y019949D01*
X003920Y020133D01*
X003680Y020233D01*
X002593Y020233D01*
X002353Y020133D01*
X002170Y019949D01*
X002097Y019775D01*
X002097Y021037D01*
X002170Y020863D01*
X002353Y020679D01*
X002593Y020579D01*
X003680Y020579D01*
X003920Y020679D01*
X004104Y020863D01*
X004204Y021103D01*
X004204Y021363D01*
X004104Y021603D01*
X003920Y021787D01*
X003680Y021886D01*
X002593Y021886D01*
X002353Y021787D01*
X002170Y021603D01*
X002097Y021429D01*
X002097Y022691D01*
X002170Y022516D01*
X002353Y022332D01*
X002593Y022233D01*
X003680Y022233D01*
X003920Y022332D01*
X004104Y022516D01*
X004204Y022756D01*
X004204Y023016D01*
X004104Y023257D01*
X003920Y023440D01*
X003680Y023540D01*
X002593Y023540D01*
X002353Y023440D01*
X002170Y023257D01*
X002097Y023082D01*
X002097Y028611D01*
X002109Y028559D01*
X002151Y028440D01*
X002206Y028326D01*
X002273Y028219D01*
X002352Y028120D01*
X002441Y028031D01*
X002540Y027952D01*
X002647Y027885D01*
X002761Y027830D01*
X002880Y027788D01*
X003003Y027760D01*
X003112Y027748D01*
X003112Y028791D01*
X003272Y028791D01*
X003272Y028951D01*
X003112Y028951D01*
X003112Y029994D01*
X003003Y029981D01*
X002880Y029953D01*
X002761Y029912D01*
X002647Y029857D01*
X002540Y029790D01*
X002441Y029711D01*
X002352Y029621D01*
X002273Y029523D01*
X002206Y029416D01*
X002151Y029302D01*
X002109Y029183D01*
X002097Y029130D01*
X002097Y036072D01*
X017253Y036072D01*
X016525Y035343D01*
X015496Y035343D01*
X015496Y035538D01*
X015413Y035736D01*
X015262Y035888D01*
X015063Y035970D01*
X014848Y035970D01*
X014650Y035888D01*
X014498Y035736D01*
X014421Y035551D01*
X014401Y035615D01*
X014366Y035682D01*
X014322Y035743D01*
X014268Y035797D01*
X014207Y035841D01*
X014140Y035875D01*
X014068Y035899D01*
X013993Y035910D01*
X013976Y035910D01*
X013976Y035151D01*
X013936Y035151D01*
X013936Y035910D01*
X013918Y035910D01*
X013843Y035899D01*
X013771Y035875D01*
X013704Y035841D01*
X013643Y035797D01*
X013590Y035743D01*
X013545Y035682D01*
X013511Y035615D01*
X013488Y035543D01*
X013476Y035468D01*
X013476Y035150D01*
X013936Y035150D01*
X013936Y035110D01*
X013976Y035110D01*
X013976Y034350D01*
X013993Y034350D01*
X014068Y034362D01*
X014140Y034386D01*
X014207Y034420D01*
X014268Y034464D01*
X014322Y034518D01*
X014366Y034579D01*
X014401Y034646D01*
X014421Y034710D01*
X014498Y034525D01*
X014591Y034431D01*
X014444Y034431D01*
X014290Y034368D01*
X014173Y034250D01*
X014109Y034096D01*
X014109Y033930D01*
X014173Y033776D01*
X014290Y033659D01*
X014444Y033595D01*
X014610Y033595D01*
X014764Y033659D01*
X014799Y033693D01*
X015371Y033693D01*
X015445Y033724D01*
X015540Y033629D01*
X015694Y033565D01*
X015743Y033565D01*
X016237Y033071D01*
X016237Y030970D01*
X016286Y030852D01*
X016376Y030762D01*
X017095Y030043D01*
X013907Y030043D01*
X013907Y030444D01*
X015233Y031770D01*
X015557Y031770D01*
X015645Y031807D01*
X015712Y031874D01*
X015749Y031963D01*
X015749Y032787D01*
X015712Y032875D01*
X015645Y032942D01*
X015557Y032979D01*
X014733Y032979D01*
X014645Y032942D01*
X014577Y032875D01*
X014541Y032787D01*
X014541Y032463D01*
X014371Y032294D01*
X014371Y032495D01*
X014279Y032717D01*
X014109Y032887D01*
X013887Y032979D01*
X013647Y032979D01*
X013424Y032887D01*
X013255Y032717D01*
X013163Y032495D01*
X013163Y032254D01*
X013255Y032032D01*
X013424Y031862D01*
X013647Y031770D01*
X013848Y031770D01*
X013140Y031063D01*
X013002Y030925D01*
X012927Y030745D01*
X012927Y027990D01*
X012756Y028161D01*
X012484Y028273D01*
X012190Y028273D01*
X011918Y028161D01*
X011470Y027713D01*
X011470Y027713D01*
X008530Y024773D01*
X008417Y024501D01*
X008417Y019496D01*
X008530Y019224D01*
X008738Y019016D01*
X009600Y018154D01*
X009153Y018154D01*
X008955Y018072D01*
X008803Y017920D01*
X008721Y017721D01*
X008721Y017507D01*
X008803Y017308D01*
X008955Y017156D01*
X009027Y017126D01*
X008986Y017085D01*
X008955Y017072D01*
X008803Y016920D01*
X008721Y016721D01*
X008721Y016507D01*
X008803Y016308D01*
X008955Y016156D01*
X008984Y016144D01*
X009071Y016056D01*
X009009Y016024D01*
X008948Y015980D01*
X008894Y015927D01*
X008850Y015866D01*
X008816Y015798D01*
X008792Y015726D01*
X008781Y015652D01*
X008781Y015634D01*
X009541Y015634D01*
X009541Y015594D01*
X009581Y015594D01*
X009581Y015634D01*
X010341Y015634D01*
X010341Y015652D01*
X010329Y015726D01*
X010305Y015798D01*
X010271Y015866D01*
X010265Y015873D01*
X011550Y015873D01*
X011574Y015863D01*
X011868Y015863D01*
X012140Y015976D01*
X012197Y016033D01*
X012197Y010186D01*
X012272Y010006D01*
X013112Y009166D01*
X013250Y009028D01*
X013430Y008953D01*
X016725Y008953D01*
X016844Y009003D01*
X016811Y008969D01*
X016710Y008928D01*
X016593Y008810D01*
X016529Y008656D01*
X016529Y008490D01*
X016593Y008336D01*
X016710Y008219D01*
X016864Y008155D01*
X017030Y008155D01*
X017184Y008219D01*
X017302Y008336D01*
X017365Y008490D01*
X017365Y008619D01*
X017469Y008722D01*
X017559Y008812D01*
X017607Y008930D01*
X017607Y009417D01*
X017559Y009535D01*
X017059Y010035D01*
X016969Y010125D01*
X016851Y010173D01*
X015937Y010173D01*
X015937Y011671D01*
X016779Y012513D01*
X016815Y012439D02*
X016705Y012439D01*
X016776Y012280D02*
X016547Y012280D01*
X016666Y012122D02*
X016388Y012122D01*
X016230Y011963D02*
X016624Y011963D01*
X016632Y011805D02*
X016071Y011805D01*
X015937Y011646D02*
X016698Y011646D01*
X016870Y011488D02*
X015937Y011488D01*
X015937Y011329D02*
X018262Y011329D01*
X018167Y011425D02*
X018424Y011168D01*
X017772Y011168D01*
X017684Y011131D01*
X017616Y011063D01*
X017580Y010975D01*
X017580Y010130D01*
X017616Y010042D01*
X017684Y009974D01*
X017772Y009938D01*
X018357Y009938D01*
X018597Y009698D01*
X018597Y008507D01*
X018346Y008256D01*
X018317Y008268D01*
X018073Y008268D01*
X017847Y008174D01*
X017674Y008001D01*
X017580Y007775D01*
X017580Y007530D01*
X017674Y007304D01*
X017847Y007131D01*
X018073Y007038D01*
X018317Y007038D01*
X018543Y007131D01*
X018716Y007304D01*
X018810Y007530D01*
X018810Y007775D01*
X018798Y007803D01*
X019099Y008104D01*
X019189Y008194D01*
X019237Y008311D01*
X019237Y009894D01*
X019189Y010011D01*
X018810Y010390D01*
X018810Y010799D01*
X018897Y010763D01*
X019380Y010763D01*
X019354Y010683D01*
X019340Y010596D01*
X019340Y010585D01*
X019862Y010585D01*
X019862Y010520D01*
X019340Y010520D01*
X019340Y010509D01*
X019354Y010423D01*
X019381Y010339D01*
X019420Y010262D01*
X019472Y010191D01*
X019533Y010129D01*
X019604Y010078D01*
X019682Y010038D01*
X019765Y010011D01*
X019851Y009998D01*
X019862Y009998D01*
X019862Y010520D01*
X019927Y010520D01*
X019927Y009998D01*
X019939Y009998D01*
X020025Y010011D01*
X020108Y010038D01*
X020186Y010078D01*
X020256Y010129D01*
X020318Y010191D01*
X020336Y010215D01*
X020336Y010130D01*
X020372Y010042D01*
X020440Y009974D01*
X020528Y009938D01*
X021113Y009938D01*
X021237Y009814D01*
X021237Y008392D01*
X021102Y008256D01*
X021073Y008268D01*
X020828Y008268D01*
X020602Y008174D01*
X020429Y008001D01*
X020328Y008001D01*
X020318Y008014D02*
X020256Y008076D01*
X020186Y008127D01*
X020108Y008167D01*
X020025Y008194D01*
X019939Y008208D01*
X019927Y008208D01*
X019927Y007685D01*
X019862Y007685D01*
X019862Y007620D01*
X019340Y007620D01*
X019340Y007609D01*
X019354Y007523D01*
X019381Y007439D01*
X019420Y007362D01*
X019472Y007291D01*
X019533Y007229D01*
X019604Y007178D01*
X019682Y007138D01*
X019765Y007111D01*
X019851Y007098D01*
X019862Y007098D01*
X019862Y007620D01*
X019927Y007620D01*
X019927Y007098D01*
X019939Y007098D01*
X020025Y007111D01*
X020108Y007138D01*
X020186Y007178D01*
X020256Y007229D01*
X020318Y007291D01*
X020370Y007362D01*
X020389Y007401D01*
X020429Y007304D01*
X020602Y007131D01*
X020797Y007051D01*
X020701Y007011D01*
X020549Y006859D01*
X020473Y006674D01*
X020452Y006738D01*
X020418Y006805D01*
X020373Y006866D01*
X020320Y006919D01*
X020259Y006964D01*
X020192Y006998D01*
X020120Y007022D01*
X020045Y007033D01*
X020027Y007033D01*
X020027Y006273D01*
X019987Y006273D01*
X019987Y006233D01*
X020027Y006233D01*
X020027Y005473D01*
X020045Y005473D01*
X020120Y005485D01*
X020192Y005508D01*
X020259Y005543D01*
X020320Y005587D01*
X020373Y005641D01*
X020418Y005702D01*
X020452Y005769D01*
X020473Y005833D01*
X020549Y005647D01*
X020701Y005496D01*
X020900Y005413D01*
X021115Y005413D01*
X021187Y005443D01*
X021187Y005263D01*
X021115Y005293D01*
X020900Y005293D01*
X020701Y005211D01*
X020549Y005059D01*
X020473Y004874D01*
X020452Y004938D01*
X020418Y005005D01*
X020373Y005066D01*
X020320Y005119D01*
X020259Y005164D01*
X020192Y005198D01*
X020120Y005222D01*
X020045Y005233D01*
X020027Y005233D01*
X020027Y004473D01*
X019987Y004473D01*
X019987Y004433D01*
X020027Y004433D01*
X020027Y003673D01*
X020045Y003673D01*
X020120Y003685D01*
X020192Y003708D01*
X020259Y003743D01*
X020320Y003787D01*
X020373Y003841D01*
X020418Y003902D01*
X020452Y003969D01*
X020473Y004033D01*
X020549Y003847D01*
X020701Y003696D01*
X020900Y003613D01*
X021115Y003613D01*
X021232Y003662D01*
X021236Y003652D01*
X021326Y003562D01*
X021526Y003362D01*
X021644Y003313D01*
X022251Y003313D01*
X022369Y003362D01*
X022459Y003452D01*
X022702Y003695D01*
X022900Y003613D01*
X023115Y003613D01*
X023313Y003696D01*
X023465Y003847D01*
X023547Y004046D01*
X023547Y004861D01*
X023465Y005059D01*
X023313Y005211D01*
X023115Y005293D01*
X022900Y005293D01*
X022701Y005211D01*
X022549Y005059D01*
X022507Y004957D01*
X022465Y005059D01*
X022365Y005159D01*
X022702Y005495D01*
X022900Y005413D01*
X023115Y005413D01*
X023313Y005496D01*
X023465Y005647D01*
X023507Y005749D01*
X023549Y005647D01*
X023701Y005496D01*
X023900Y005413D01*
X024115Y005413D01*
X024313Y005496D01*
X024465Y005647D01*
X024507Y005749D01*
X024549Y005647D01*
X024701Y005496D01*
X024900Y005413D01*
X025115Y005413D01*
X025313Y005496D01*
X025465Y005647D01*
X025547Y005846D01*
X025547Y006661D01*
X025465Y006859D01*
X025313Y007011D01*
X025115Y007093D01*
X024900Y007093D01*
X024877Y007084D01*
X024877Y007486D01*
X024892Y007439D01*
X024932Y007362D01*
X024983Y007291D01*
X025045Y007229D01*
X025116Y007178D01*
X025194Y007138D01*
X025277Y007111D01*
X025363Y007098D01*
X025374Y007098D01*
X025374Y007620D01*
X025439Y007620D01*
X025439Y007098D01*
X025450Y007098D01*
X025537Y007111D01*
X025620Y007138D01*
X025698Y007178D01*
X025768Y007229D01*
X025830Y007291D01*
X025881Y007362D01*
X025921Y007439D01*
X025948Y007523D01*
X025962Y007609D01*
X025962Y007620D01*
X025439Y007620D01*
X025439Y007685D01*
X025374Y007685D01*
X025374Y008208D01*
X025363Y008208D01*
X025277Y008194D01*
X025194Y008167D01*
X025116Y008127D01*
X025045Y008076D01*
X024983Y008014D01*
X024932Y007943D01*
X024892Y007866D01*
X024877Y007819D01*
X024877Y010386D01*
X024892Y010339D01*
X024932Y010262D01*
X024983Y010191D01*
X025045Y010129D01*
X025116Y010078D01*
X025194Y010038D01*
X025277Y010011D01*
X025363Y009998D01*
X025374Y009998D01*
X025374Y010520D01*
X025439Y010520D01*
X025439Y009998D01*
X025450Y009998D01*
X025537Y010011D01*
X025620Y010038D01*
X025698Y010078D01*
X025768Y010129D01*
X025830Y010191D01*
X025881Y010262D01*
X025921Y010339D01*
X025948Y010423D01*
X025962Y010509D01*
X025962Y010520D01*
X025439Y010520D01*
X025439Y010585D01*
X025374Y010585D01*
X025374Y011108D01*
X025363Y011108D01*
X025277Y011094D01*
X025194Y011067D01*
X025116Y011027D01*
X025045Y010976D01*
X024983Y010914D01*
X024932Y010843D01*
X024892Y010766D01*
X024877Y010719D01*
X024877Y011067D01*
X024829Y011185D01*
X024458Y011555D01*
X024544Y011640D01*
X024619Y011823D01*
X024619Y012021D01*
X024544Y012204D01*
X024404Y012344D01*
X024221Y012420D01*
X024023Y012420D01*
X023840Y012344D01*
X023700Y012204D01*
X023624Y012021D01*
X023624Y011823D01*
X023678Y011693D01*
X023565Y011693D01*
X023619Y011823D01*
X023619Y012021D01*
X023544Y012204D01*
X023404Y012344D01*
X023221Y012420D01*
X023023Y012420D01*
X022840Y012344D01*
X022700Y012204D01*
X022624Y012021D01*
X022624Y011823D01*
X022678Y011693D01*
X022565Y011693D01*
X022619Y011823D01*
X022619Y012021D01*
X022544Y012204D01*
X022404Y012344D01*
X022221Y012420D01*
X022023Y012420D01*
X021840Y012344D01*
X021700Y012204D01*
X021624Y012021D01*
X021624Y011823D01*
X021678Y011693D01*
X021565Y011693D01*
X021619Y011823D01*
X021619Y012021D01*
X021544Y012204D01*
X021404Y012344D01*
X021221Y012420D01*
X021023Y012420D01*
X020840Y012344D01*
X020700Y012204D01*
X020624Y012021D01*
X020624Y011823D01*
X020678Y011693D01*
X020496Y011693D01*
X020527Y011754D01*
X020548Y011820D01*
X020559Y011888D01*
X020559Y011922D01*
X020122Y011922D01*
X020122Y011922D01*
X020559Y011922D01*
X020559Y011957D01*
X020548Y012025D01*
X020527Y012090D01*
X020496Y012152D01*
X020455Y012207D01*
X020407Y012256D01*
X020351Y012296D01*
X020290Y012328D01*
X020224Y012349D01*
X020156Y012360D01*
X020122Y012360D01*
X020122Y011922D01*
X019684Y011922D01*
X019684Y011888D01*
X019695Y011820D01*
X019716Y011754D01*
X019745Y011698D01*
X019619Y011824D01*
X019619Y012021D01*
X019544Y012204D01*
X019404Y012344D01*
X019221Y012420D01*
X019023Y012420D01*
X018840Y012344D01*
X018700Y012204D01*
X018624Y012021D01*
X018624Y011872D01*
X018619Y011877D01*
X018619Y012021D01*
X018544Y012204D01*
X018404Y012344D01*
X018221Y012420D01*
X018023Y012420D01*
X017840Y012344D01*
X017700Y012204D01*
X017624Y012021D01*
X017624Y011823D01*
X017700Y011640D01*
X017840Y011500D01*
X018023Y011425D01*
X018167Y011425D01*
X017870Y011488D02*
X017373Y011488D01*
X017546Y011646D02*
X017698Y011646D01*
X017632Y011805D02*
X017612Y011805D01*
X017619Y011963D02*
X017624Y011963D01*
X017666Y012122D02*
X017578Y012122D01*
X017467Y012280D02*
X017776Y012280D01*
X017508Y012439D02*
X026420Y012439D01*
X026420Y012597D02*
X017578Y012597D01*
X017579Y012756D02*
X022723Y012756D01*
X022723Y012914D02*
X017541Y012914D01*
X017699Y013073D02*
X022723Y013073D01*
X022723Y013231D02*
X017858Y013231D01*
X018016Y013390D02*
X022723Y013390D01*
X022723Y013548D02*
X018175Y013548D01*
X018333Y013707D02*
X022723Y013707D01*
X022723Y013865D02*
X018492Y013865D01*
X018650Y014024D02*
X022723Y014024D01*
X022723Y014182D02*
X018809Y014182D01*
X018967Y014341D02*
X022723Y014341D01*
X022723Y014499D02*
X019126Y014499D01*
X019284Y014658D02*
X022723Y014658D01*
X022723Y014816D02*
X019405Y014816D01*
X019427Y014975D02*
X022723Y014975D01*
X022723Y015133D02*
X019427Y015133D01*
X019427Y015292D02*
X022723Y015292D01*
X022723Y015450D02*
X019427Y015450D01*
X019381Y015609D02*
X022723Y015609D01*
X022723Y015767D02*
X019327Y015767D01*
X019327Y015926D02*
X022723Y015926D01*
X022723Y016084D02*
X019327Y016084D01*
X019327Y016243D02*
X022723Y016243D01*
X022723Y016401D02*
X019327Y016401D01*
X019327Y016560D02*
X022723Y016560D01*
X022723Y016718D02*
X019327Y016718D01*
X019327Y016877D02*
X022723Y016877D01*
X022723Y017035D02*
X019327Y017035D01*
X019327Y017194D02*
X022723Y017194D01*
X022723Y017352D02*
X019327Y017352D01*
X019327Y017511D02*
X022723Y017511D01*
X022723Y017669D02*
X019327Y017669D01*
X019327Y017828D02*
X022723Y017828D01*
X022723Y017986D02*
X019327Y017986D01*
X019461Y018145D02*
X022723Y018145D01*
X022723Y018303D02*
X019620Y018303D01*
X019778Y018462D02*
X020168Y018462D01*
X020415Y018462D02*
X022723Y018462D01*
X022723Y018620D02*
X020640Y018620D01*
X020709Y018779D02*
X022723Y018779D01*
X022723Y018937D02*
X020709Y018937D01*
X020648Y019096D02*
X022723Y019096D01*
X022723Y019254D02*
X020440Y019254D01*
X020143Y019254D02*
X019708Y019254D01*
X019504Y019413D02*
X022723Y019413D01*
X022723Y019571D02*
X017656Y019571D01*
X017814Y019413D02*
X019199Y019413D01*
X018995Y019254D02*
X017973Y019254D01*
X018131Y019096D02*
X018933Y019096D01*
X018813Y018937D02*
X018290Y018937D01*
X018448Y018779D02*
X018654Y018779D01*
X018521Y018253D02*
X018521Y015163D01*
X018467Y012280D02*
X018776Y012280D01*
X018666Y012122D02*
X018578Y012122D01*
X018619Y011963D02*
X018624Y011963D01*
X018122Y011922D02*
X018961Y011083D01*
X021557Y011083D01*
X021797Y010843D01*
X021797Y007463D01*
X023007Y006253D01*
X022007Y005253D01*
X022007Y004453D01*
X021507Y003833D02*
X021507Y005753D01*
X022007Y006253D01*
X022513Y005306D02*
X026420Y005306D01*
X026420Y005148D02*
X023376Y005148D01*
X023494Y004989D02*
X026420Y004989D01*
X026420Y004831D02*
X023547Y004831D01*
X023547Y004672D02*
X026420Y004672D01*
X026420Y004514D02*
X023547Y004514D01*
X023547Y004355D02*
X024970Y004355D01*
X024987Y004372D02*
X024742Y004127D01*
X024609Y003807D01*
X024609Y003461D01*
X024742Y003142D01*
X024987Y002897D01*
X025306Y002765D01*
X025652Y002765D01*
X025972Y002897D01*
X026217Y003142D01*
X026349Y003461D01*
X026349Y003807D01*
X026217Y004127D01*
X025972Y004372D01*
X025652Y004504D01*
X025306Y004504D01*
X024987Y004372D01*
X024811Y004197D02*
X023547Y004197D01*
X023544Y004038D02*
X024705Y004038D01*
X024639Y003880D02*
X023478Y003880D01*
X023339Y003721D02*
X024609Y003721D01*
X024609Y003563D02*
X022569Y003563D01*
X022411Y003404D02*
X024633Y003404D01*
X024699Y003246D02*
X003819Y003246D01*
X003776Y003142D02*
X003908Y003461D01*
X003908Y003807D01*
X003776Y004127D01*
X003531Y004372D01*
X003211Y004504D01*
X002865Y004504D01*
X002546Y004372D01*
X002301Y004127D01*
X002168Y003807D01*
X002168Y003461D01*
X002301Y003142D01*
X002546Y002897D01*
X002865Y002765D01*
X003211Y002765D01*
X003531Y002897D01*
X003776Y003142D01*
X003722Y003087D02*
X024796Y003087D01*
X024955Y002929D02*
X003563Y002929D01*
X003225Y002770D02*
X025292Y002770D01*
X025666Y002770D02*
X026420Y002770D01*
X026420Y002929D02*
X026004Y002929D01*
X026162Y003087D02*
X026420Y003087D01*
X026420Y003246D02*
X026260Y003246D01*
X026326Y003404D02*
X026420Y003404D01*
X026420Y003563D02*
X026349Y003563D01*
X026349Y003721D02*
X026420Y003721D01*
X026420Y003880D02*
X026319Y003880D01*
X026254Y004038D02*
X026420Y004038D01*
X026420Y004197D02*
X026147Y004197D01*
X025989Y004355D02*
X026420Y004355D01*
X026420Y005465D02*
X025239Y005465D01*
X025441Y005623D02*
X026420Y005623D01*
X026420Y005782D02*
X025521Y005782D01*
X025547Y005940D02*
X026420Y005940D01*
X026420Y006099D02*
X025547Y006099D01*
X025547Y006257D02*
X026420Y006257D01*
X026420Y006416D02*
X025547Y006416D01*
X025547Y006574D02*
X026420Y006574D01*
X026420Y006733D02*
X025517Y006733D01*
X025433Y006891D02*
X026420Y006891D01*
X026420Y007050D02*
X025220Y007050D01*
X025074Y007208D02*
X024877Y007208D01*
X024877Y007367D02*
X024929Y007367D01*
X025374Y007367D02*
X025439Y007367D01*
X025439Y007525D02*
X025374Y007525D01*
X025407Y007653D02*
X024797Y008262D01*
X024797Y010543D01*
X024806Y010553D01*
X025407Y010553D01*
X025439Y010537D02*
X026420Y010537D01*
X026420Y010695D02*
X025944Y010695D01*
X025948Y010683D02*
X025921Y010766D01*
X025881Y010843D01*
X025830Y010914D01*
X025768Y010976D01*
X025698Y011027D01*
X025620Y011067D01*
X025537Y011094D01*
X025450Y011108D01*
X025439Y011108D01*
X025439Y010585D01*
X025962Y010585D01*
X025962Y010596D01*
X025948Y010683D01*
X025874Y010854D02*
X026420Y010854D01*
X026420Y011012D02*
X025718Y011012D01*
X025439Y011012D02*
X025374Y011012D01*
X025374Y010854D02*
X025439Y010854D01*
X025439Y010695D02*
X025374Y010695D01*
X025374Y010378D02*
X025439Y010378D01*
X025439Y010220D02*
X025374Y010220D01*
X025374Y010061D02*
X025439Y010061D01*
X025665Y010061D02*
X026420Y010061D01*
X026420Y009903D02*
X024877Y009903D01*
X024877Y010061D02*
X025148Y010061D01*
X024962Y010220D02*
X024877Y010220D01*
X024877Y010378D02*
X024880Y010378D01*
X024797Y010543D02*
X024797Y011598D01*
X025122Y011922D01*
X025122Y011922D01*
X025559Y011922D01*
X025559Y011888D01*
X025548Y011820D01*
X025527Y011754D01*
X025496Y011693D01*
X025455Y011637D01*
X025407Y011589D01*
X025351Y011548D01*
X025290Y011517D01*
X025224Y011496D01*
X025156Y011485D01*
X025122Y011485D01*
X025122Y011922D01*
X025122Y011922D01*
X025559Y011922D01*
X025559Y011957D01*
X025548Y012025D01*
X025527Y012090D01*
X025496Y012152D01*
X025455Y012207D01*
X025407Y012256D01*
X025351Y012296D01*
X025290Y012328D01*
X025224Y012349D01*
X025156Y012360D01*
X025122Y012360D01*
X025122Y011922D01*
X025122Y011485D01*
X025087Y011485D01*
X025019Y011496D01*
X024954Y011517D01*
X024892Y011548D01*
X024837Y011589D01*
X024788Y011637D01*
X024748Y011693D01*
X024716Y011754D01*
X024695Y011820D01*
X024684Y011888D01*
X024684Y011922D01*
X025122Y011922D01*
X025122Y011922D01*
X025122Y011922D01*
X024684Y011922D01*
X024684Y011957D01*
X024695Y012025D01*
X024716Y012090D01*
X024748Y012152D01*
X024788Y012207D01*
X024837Y012256D01*
X024892Y012296D01*
X024954Y012328D01*
X025019Y012349D01*
X025087Y012360D01*
X025122Y012360D01*
X025122Y011922D01*
X025122Y011963D02*
X025122Y011963D01*
X025122Y011805D02*
X025122Y011805D01*
X025122Y011646D02*
X025122Y011646D01*
X025122Y011488D02*
X025122Y011488D01*
X025176Y011488D02*
X026420Y011488D01*
X026420Y011646D02*
X025462Y011646D01*
X025544Y011805D02*
X026420Y011805D01*
X026420Y011963D02*
X025558Y011963D01*
X025511Y012122D02*
X026420Y012122D01*
X026420Y012280D02*
X025373Y012280D01*
X025122Y012280D02*
X025122Y012280D01*
X025122Y012122D02*
X025122Y012122D01*
X024870Y012280D02*
X024467Y012280D01*
X024578Y012122D02*
X024732Y012122D01*
X024685Y011963D02*
X024619Y011963D01*
X024612Y011805D02*
X024700Y011805D01*
X024781Y011646D02*
X024546Y011646D01*
X024525Y011488D02*
X025068Y011488D01*
X024834Y011171D02*
X026420Y011171D01*
X026420Y011329D02*
X024684Y011329D01*
X024557Y011003D02*
X024187Y011373D01*
X019617Y011373D01*
X019122Y011869D01*
X019122Y011922D01*
X019467Y012280D02*
X019870Y012280D01*
X019892Y012296D02*
X019837Y012256D01*
X019788Y012207D01*
X019748Y012152D01*
X019716Y012090D01*
X019695Y012025D01*
X019684Y011957D01*
X019684Y011922D01*
X020122Y011922D01*
X020122Y011922D01*
X020122Y011922D01*
X020122Y012360D01*
X020087Y012360D01*
X020019Y012349D01*
X019954Y012328D01*
X019892Y012296D01*
X020122Y012280D02*
X020122Y012280D01*
X020122Y012122D02*
X020122Y012122D01*
X020122Y011963D02*
X020122Y011963D01*
X020373Y012280D02*
X020776Y012280D01*
X020666Y012122D02*
X020511Y012122D01*
X020558Y011963D02*
X020624Y011963D01*
X020632Y011805D02*
X020544Y011805D01*
X019700Y011805D02*
X019638Y011805D01*
X019619Y011963D02*
X019685Y011963D01*
X019732Y012122D02*
X019578Y012122D01*
X019358Y010695D02*
X018810Y010695D01*
X018810Y010537D02*
X019862Y010537D01*
X019895Y010553D02*
X019167Y009825D01*
X019167Y008380D01*
X019895Y007653D01*
X019895Y006366D01*
X020007Y006253D01*
X019868Y006114D01*
X013917Y006114D01*
X011378Y008653D01*
X010027Y008653D01*
X009570Y009551D02*
X009638Y009618D01*
X009675Y009706D01*
X009675Y010530D01*
X009638Y010618D01*
X009570Y010686D01*
X009482Y010722D01*
X008658Y010722D01*
X008570Y010686D01*
X008503Y010618D01*
X008466Y010530D01*
X008466Y009706D01*
X008503Y009618D01*
X008570Y009551D01*
X008658Y009514D01*
X009482Y009514D01*
X009570Y009551D01*
X009606Y009586D02*
X012692Y009586D01*
X012850Y009427D02*
X006264Y009427D01*
X006265Y009430D02*
X006294Y009519D01*
X006307Y009600D01*
X005360Y009600D01*
X005360Y009065D01*
X005762Y009065D01*
X005855Y009079D01*
X005943Y009108D01*
X006027Y009151D01*
X006102Y009205D01*
X006168Y009271D01*
X006223Y009347D01*
X006265Y009430D01*
X006305Y009586D02*
X008535Y009586D01*
X008466Y009744D02*
X006303Y009744D01*
X006307Y009716D02*
X006294Y009797D01*
X006265Y009886D01*
X006223Y009969D01*
X006168Y010045D01*
X006102Y010111D01*
X006027Y010166D01*
X005943Y010208D01*
X005855Y010237D01*
X005762Y010251D01*
X005360Y010251D01*
X005360Y009716D01*
X005244Y009716D01*
X005244Y009600D01*
X004297Y009600D01*
X004310Y009519D01*
X004339Y009430D01*
X004381Y009347D01*
X004436Y009271D01*
X004502Y009205D01*
X004578Y009151D01*
X004661Y009108D01*
X004750Y009079D01*
X004842Y009065D01*
X005244Y009065D01*
X005244Y009600D01*
X005360Y009600D01*
X005360Y009716D01*
X006307Y009716D01*
X006257Y009903D02*
X008466Y009903D01*
X008466Y010061D02*
X006151Y010061D01*
X005907Y010220D02*
X008466Y010220D01*
X008466Y010378D02*
X002097Y010378D01*
X002097Y010220D02*
X002532Y010220D01*
X002496Y010208D02*
X002412Y010166D01*
X002337Y010111D01*
X002271Y010045D01*
X002216Y009969D01*
X002174Y009886D01*
X002145Y009797D01*
X002132Y009716D01*
X003079Y009716D01*
X003079Y010251D01*
X002677Y010251D01*
X002584Y010237D01*
X002496Y010208D01*
X002288Y010061D02*
X002097Y010061D01*
X002097Y009903D02*
X002182Y009903D01*
X002136Y009744D02*
X002097Y009744D01*
X002132Y009600D02*
X002145Y009519D01*
X002174Y009430D01*
X002216Y009347D01*
X002271Y009271D01*
X002337Y009205D01*
X002412Y009151D01*
X002496Y009108D01*
X002584Y009079D01*
X002677Y009065D01*
X003079Y009065D01*
X003079Y009600D01*
X003195Y009600D01*
X003195Y009716D01*
X004142Y009716D01*
X004129Y009797D01*
X004100Y009886D01*
X004058Y009969D01*
X004003Y010045D01*
X003937Y010111D01*
X003861Y010166D01*
X003778Y010208D01*
X003689Y010237D01*
X003597Y010251D01*
X003195Y010251D01*
X003195Y009716D01*
X003079Y009716D01*
X003079Y009600D01*
X002132Y009600D01*
X002134Y009586D02*
X002097Y009586D01*
X002097Y009427D02*
X002175Y009427D01*
X002097Y009269D02*
X002273Y009269D01*
X002097Y009110D02*
X002491Y009110D01*
X002097Y008952D02*
X016769Y008952D01*
X016586Y008793D02*
X002097Y008793D01*
X002097Y008635D02*
X002538Y008635D01*
X002271Y008476D02*
X002097Y008476D01*
X002097Y008318D02*
X002146Y008318D01*
X002149Y007684D02*
X002097Y007684D01*
X002097Y007525D02*
X002279Y007525D01*
X002097Y007367D02*
X002556Y007367D01*
X002340Y006891D02*
X002097Y006891D01*
X002097Y006733D02*
X002181Y006733D01*
X002109Y006574D02*
X002097Y006574D01*
X002097Y006099D02*
X002121Y006099D01*
X002097Y005940D02*
X002210Y005940D01*
X002097Y005782D02*
X002390Y005782D01*
X002097Y005623D02*
X007500Y005623D01*
X007518Y005667D02*
X007437Y005470D01*
X007437Y005256D01*
X007518Y005059D01*
X007669Y004908D01*
X007867Y004826D01*
X008674Y004826D01*
X008871Y004908D01*
X009022Y005059D01*
X009104Y005256D01*
X009104Y005470D01*
X009022Y005667D01*
X008871Y005818D01*
X008763Y005863D01*
X008871Y005908D01*
X009022Y006059D01*
X009104Y006256D01*
X009104Y006470D01*
X009022Y006667D01*
X008871Y006818D01*
X008763Y006863D01*
X008871Y006908D01*
X009022Y007059D01*
X009104Y007256D01*
X009104Y007470D01*
X009022Y007667D01*
X008871Y007818D01*
X008674Y007900D01*
X007867Y007900D01*
X007669Y007818D01*
X007518Y007667D01*
X007437Y007470D01*
X007437Y007256D01*
X007518Y007059D01*
X007669Y006908D01*
X007778Y006863D01*
X007669Y006818D01*
X007518Y006667D01*
X007437Y006470D01*
X007437Y006256D01*
X007518Y006059D01*
X007669Y005908D01*
X007778Y005863D01*
X007669Y005818D01*
X007518Y005667D01*
X007633Y005782D02*
X006049Y005782D01*
X006086Y005797D02*
X006269Y005981D01*
X006369Y006221D01*
X006369Y006481D01*
X006269Y006721D01*
X006086Y006905D01*
X005846Y007004D01*
X004759Y007004D01*
X004519Y006905D01*
X004335Y006721D01*
X004235Y006481D01*
X004235Y006221D01*
X004335Y005981D01*
X004519Y005797D01*
X004759Y005698D01*
X005846Y005698D01*
X006086Y005797D01*
X006229Y005940D02*
X007637Y005940D01*
X007502Y006099D02*
X006318Y006099D01*
X006369Y006257D02*
X007437Y006257D01*
X007437Y006416D02*
X006369Y006416D01*
X006330Y006574D02*
X007480Y006574D01*
X007584Y006733D02*
X006258Y006733D01*
X006099Y006891D02*
X007709Y006891D01*
X007527Y007050D02*
X002097Y007050D01*
X002097Y007208D02*
X007456Y007208D01*
X007437Y007367D02*
X005883Y007367D01*
X005846Y007351D02*
X006086Y007451D01*
X006269Y007634D01*
X006369Y007875D01*
X006369Y008134D01*
X006269Y008375D01*
X006086Y008558D01*
X005846Y008658D01*
X004759Y008658D01*
X004519Y008558D01*
X004335Y008375D01*
X004235Y008134D01*
X004235Y007875D01*
X004335Y007634D01*
X004519Y007451D01*
X004759Y007351D01*
X005846Y007351D01*
X006160Y007525D02*
X007460Y007525D01*
X007535Y007684D02*
X006290Y007684D01*
X006356Y007842D02*
X007728Y007842D01*
X008813Y007842D02*
X017608Y007842D01*
X017580Y007684D02*
X009006Y007684D01*
X009081Y007525D02*
X017582Y007525D01*
X017648Y007367D02*
X009104Y007367D01*
X009084Y007208D02*
X017769Y007208D01*
X018043Y007050D02*
X009013Y007050D01*
X008831Y006891D02*
X019666Y006891D01*
X019641Y006866D02*
X019597Y006805D01*
X019562Y006738D01*
X019539Y006666D01*
X019527Y006591D01*
X019527Y006273D01*
X019987Y006273D01*
X019987Y007033D01*
X019970Y007033D01*
X019895Y007022D01*
X019823Y006998D01*
X019756Y006964D01*
X019695Y006919D01*
X019641Y006866D01*
X019561Y006733D02*
X008957Y006733D01*
X009061Y006574D02*
X019527Y006574D01*
X019527Y006416D02*
X009104Y006416D01*
X009104Y006257D02*
X019987Y006257D01*
X020007Y006253D02*
X020007Y004453D01*
X019987Y004433D02*
X019987Y003673D01*
X019970Y003673D01*
X019895Y003685D01*
X019823Y003708D01*
X019756Y003743D01*
X019695Y003787D01*
X019641Y003841D01*
X019597Y003902D01*
X019562Y003969D01*
X019539Y004041D01*
X019527Y004116D01*
X019527Y004433D01*
X019987Y004433D01*
X019987Y004473D02*
X019527Y004473D01*
X019527Y004791D01*
X019539Y004866D01*
X019562Y004938D01*
X019597Y005005D01*
X019641Y005066D01*
X019695Y005119D01*
X019756Y005164D01*
X019823Y005198D01*
X019895Y005222D01*
X019970Y005233D01*
X019987Y005233D01*
X019987Y004473D01*
X019987Y004514D02*
X020027Y004514D01*
X020027Y004672D02*
X019987Y004672D01*
X019987Y004831D02*
X020027Y004831D01*
X020027Y004989D02*
X019987Y004989D01*
X019987Y005148D02*
X020027Y005148D01*
X020281Y005148D02*
X020638Y005148D01*
X020521Y004989D02*
X020426Y004989D01*
X020776Y005465D02*
X009104Y005465D01*
X009104Y005306D02*
X021187Y005306D01*
X020574Y005623D02*
X020356Y005623D01*
X020456Y005782D02*
X020494Y005782D01*
X020027Y005782D02*
X019987Y005782D01*
X019987Y005940D02*
X020027Y005940D01*
X020027Y006099D02*
X019987Y006099D01*
X019987Y006233D02*
X019987Y005473D01*
X019970Y005473D01*
X019895Y005485D01*
X019823Y005508D01*
X019756Y005543D01*
X019695Y005587D01*
X019641Y005641D01*
X019597Y005702D01*
X019562Y005769D01*
X019539Y005841D01*
X019527Y005916D01*
X019527Y006233D01*
X019987Y006233D01*
X019987Y006416D02*
X020027Y006416D01*
X020027Y006574D02*
X019987Y006574D01*
X019987Y006733D02*
X020027Y006733D01*
X020027Y006891D02*
X019987Y006891D01*
X019927Y007208D02*
X019862Y007208D01*
X019862Y007367D02*
X019927Y007367D01*
X019927Y007525D02*
X019862Y007525D01*
X019862Y007684D02*
X018810Y007684D01*
X018808Y007525D02*
X019353Y007525D01*
X019340Y007685D02*
X019862Y007685D01*
X019862Y008208D01*
X019851Y008208D01*
X019765Y008194D01*
X019682Y008167D01*
X019604Y008127D01*
X019533Y008076D01*
X019472Y008014D01*
X019420Y007943D01*
X019381Y007866D01*
X019354Y007783D01*
X019340Y007696D01*
X019340Y007685D01*
X019373Y007842D02*
X018837Y007842D01*
X018996Y008001D02*
X019462Y008001D01*
X019667Y008159D02*
X019154Y008159D01*
X019237Y008318D02*
X021164Y008318D01*
X021237Y008476D02*
X019237Y008476D01*
X019237Y008635D02*
X021237Y008635D01*
X021237Y008793D02*
X019237Y008793D01*
X019237Y008952D02*
X021237Y008952D01*
X021237Y009110D02*
X019237Y009110D01*
X019237Y009269D02*
X021237Y009269D01*
X021237Y009427D02*
X019237Y009427D01*
X019237Y009586D02*
X021237Y009586D01*
X021237Y009744D02*
X019237Y009744D01*
X019234Y009903D02*
X021148Y009903D01*
X021557Y009946D02*
X020951Y010553D01*
X020364Y010061D02*
X020153Y010061D01*
X019927Y010061D02*
X019862Y010061D01*
X019862Y010220D02*
X019927Y010220D01*
X019927Y010378D02*
X019862Y010378D01*
X019636Y010061D02*
X019139Y010061D01*
X018980Y010220D02*
X019451Y010220D01*
X019368Y010378D02*
X018822Y010378D01*
X018917Y009830D02*
X018195Y010553D01*
X018421Y011171D02*
X015937Y011171D01*
X015937Y011012D02*
X017595Y011012D01*
X017580Y010854D02*
X015937Y010854D01*
X015937Y010695D02*
X017580Y010695D01*
X017580Y010537D02*
X015937Y010537D01*
X015937Y010378D02*
X017580Y010378D01*
X017580Y010220D02*
X015937Y010220D01*
X015617Y009853D02*
X016787Y009853D01*
X017287Y009353D01*
X017287Y008993D01*
X016947Y008653D01*
X016947Y008573D01*
X017283Y008318D02*
X018408Y008318D01*
X018566Y008476D02*
X017360Y008476D01*
X017381Y008635D02*
X018597Y008635D01*
X018597Y008793D02*
X017540Y008793D01*
X017607Y008952D02*
X018597Y008952D01*
X018597Y009110D02*
X017607Y009110D01*
X017607Y009269D02*
X018597Y009269D01*
X018597Y009427D02*
X017603Y009427D01*
X017507Y009586D02*
X018597Y009586D01*
X018551Y009744D02*
X017349Y009744D01*
X017190Y009903D02*
X018392Y009903D01*
X018917Y009830D02*
X018917Y008375D01*
X018195Y007653D01*
X018620Y007208D02*
X019562Y007208D01*
X019418Y007367D02*
X018742Y007367D01*
X018347Y007050D02*
X020795Y007050D01*
X020582Y006891D02*
X020348Y006891D01*
X020454Y006733D02*
X020497Y006733D01*
X020525Y007208D02*
X020228Y007208D01*
X020372Y007367D02*
X020403Y007367D01*
X020389Y007904D02*
X020370Y007943D01*
X020318Y008014D01*
X020429Y008001D02*
X020389Y007904D01*
X020588Y008159D02*
X020123Y008159D01*
X019927Y008159D02*
X019862Y008159D01*
X019862Y008001D02*
X019927Y008001D01*
X019927Y007842D02*
X019862Y007842D01*
X020951Y007653D02*
X021557Y008259D01*
X021557Y009946D01*
X022037Y009939D02*
X022037Y008266D01*
X022651Y007653D01*
X023707Y007653D02*
X024317Y008263D01*
X024317Y009942D01*
X023707Y010553D01*
X024557Y011003D02*
X024557Y006803D01*
X024007Y006253D01*
X023574Y005623D02*
X023441Y005623D01*
X023239Y005465D02*
X023776Y005465D01*
X024239Y005465D02*
X024776Y005465D01*
X024574Y005623D02*
X024441Y005623D01*
X025374Y007208D02*
X025439Y007208D01*
X025740Y007208D02*
X026420Y007208D01*
X026420Y007367D02*
X025884Y007367D01*
X025949Y007525D02*
X026420Y007525D01*
X026420Y007684D02*
X025439Y007684D01*
X025439Y007685D02*
X025962Y007685D01*
X025962Y007696D01*
X025948Y007783D01*
X025921Y007866D01*
X025881Y007943D01*
X025830Y008014D01*
X025768Y008076D01*
X025698Y008127D01*
X025620Y008167D01*
X025537Y008194D01*
X025450Y008208D01*
X025439Y008208D01*
X025439Y007685D01*
X025439Y007842D02*
X025374Y007842D01*
X025374Y008001D02*
X025439Y008001D01*
X025439Y008159D02*
X025374Y008159D01*
X025179Y008159D02*
X024877Y008159D01*
X024877Y008001D02*
X024974Y008001D01*
X024885Y007842D02*
X024877Y007842D01*
X024877Y008318D02*
X026420Y008318D01*
X026420Y008476D02*
X024877Y008476D01*
X024877Y008635D02*
X026420Y008635D01*
X026420Y008793D02*
X024877Y008793D01*
X024877Y008952D02*
X026420Y008952D01*
X026420Y009110D02*
X024877Y009110D01*
X024877Y009269D02*
X026420Y009269D01*
X026420Y009427D02*
X024877Y009427D01*
X024877Y009586D02*
X026420Y009586D01*
X026420Y009744D02*
X024877Y009744D01*
X025851Y010220D02*
X026420Y010220D01*
X026420Y010378D02*
X025934Y010378D01*
X025095Y011012D02*
X024877Y011012D01*
X024877Y010854D02*
X024940Y010854D01*
X023776Y012280D02*
X023467Y012280D01*
X023578Y012122D02*
X023666Y012122D01*
X023624Y011963D02*
X023619Y011963D01*
X023612Y011805D02*
X023632Y011805D01*
X022776Y012280D02*
X022467Y012280D01*
X022578Y012122D02*
X022666Y012122D01*
X022624Y011963D02*
X022619Y011963D01*
X022612Y011805D02*
X022632Y011805D01*
X021776Y012280D02*
X021467Y012280D01*
X021578Y012122D02*
X021666Y012122D01*
X021624Y011963D02*
X021619Y011963D01*
X021612Y011805D02*
X021632Y011805D01*
X022651Y010553D02*
X022037Y009939D01*
X019527Y006099D02*
X009039Y006099D01*
X008904Y005940D02*
X019527Y005940D01*
X019558Y005782D02*
X008908Y005782D01*
X009040Y005623D02*
X019658Y005623D01*
X019987Y005623D02*
X020027Y005623D01*
X019734Y005148D02*
X009059Y005148D01*
X008953Y004989D02*
X019589Y004989D01*
X019534Y004831D02*
X008685Y004831D01*
X007855Y004831D02*
X002097Y004831D01*
X002097Y004989D02*
X007588Y004989D01*
X007482Y005148D02*
X002097Y005148D01*
X002097Y005306D02*
X007437Y005306D01*
X007437Y005465D02*
X002097Y005465D01*
X002097Y004672D02*
X019527Y004672D01*
X019527Y004514D02*
X002097Y004514D01*
X002097Y004355D02*
X002529Y004355D01*
X002371Y004197D02*
X002097Y004197D01*
X002097Y004038D02*
X002264Y004038D01*
X002198Y003880D02*
X002097Y003880D01*
X002097Y003721D02*
X002168Y003721D01*
X002168Y003563D02*
X002097Y003563D01*
X002097Y003404D02*
X002192Y003404D01*
X002258Y003246D02*
X002097Y003246D01*
X002097Y003087D02*
X002355Y003087D01*
X002514Y002929D02*
X002097Y002929D01*
X002097Y002770D02*
X002851Y002770D01*
X003885Y003404D02*
X021484Y003404D01*
X021325Y003563D02*
X003908Y003563D01*
X003908Y003721D02*
X019798Y003721D01*
X019987Y003721D02*
X020027Y003721D01*
X020027Y003880D02*
X019987Y003880D01*
X019987Y004038D02*
X020027Y004038D01*
X020027Y004197D02*
X019987Y004197D01*
X019987Y004355D02*
X020027Y004355D01*
X019527Y004355D02*
X003548Y004355D01*
X003706Y004197D02*
X019527Y004197D01*
X019540Y004038D02*
X003813Y004038D01*
X003878Y003880D02*
X019613Y003880D01*
X020217Y003721D02*
X020676Y003721D01*
X020536Y003880D02*
X020402Y003880D01*
X021507Y003833D02*
X021707Y003633D01*
X022187Y003633D01*
X023007Y004453D01*
X022521Y004989D02*
X022494Y004989D01*
X022376Y005148D02*
X022638Y005148D01*
X022671Y005465D02*
X022776Y005465D01*
X024037Y003043D02*
X017987Y003043D01*
X017727Y003613D01*
X017674Y008001D02*
X006369Y008001D01*
X006359Y008159D02*
X016854Y008159D01*
X017040Y008159D02*
X017832Y008159D01*
X016611Y008318D02*
X006293Y008318D01*
X006168Y008476D02*
X016535Y008476D01*
X016529Y008635D02*
X005901Y008635D01*
X005948Y009110D02*
X013167Y009110D01*
X013009Y009269D02*
X006166Y009269D01*
X005360Y009269D02*
X005244Y009269D01*
X005244Y009427D02*
X005360Y009427D01*
X005360Y009586D02*
X005244Y009586D01*
X005244Y009716D02*
X004297Y009716D01*
X004310Y009797D01*
X004339Y009886D01*
X004381Y009969D01*
X004436Y010045D01*
X004502Y010111D01*
X004578Y010166D01*
X004661Y010208D01*
X004750Y010237D01*
X004842Y010251D01*
X005244Y010251D01*
X005244Y009716D01*
X005244Y009744D02*
X005360Y009744D01*
X005360Y009903D02*
X005244Y009903D01*
X005244Y010061D02*
X005360Y010061D01*
X005360Y010220D02*
X005244Y010220D01*
X004698Y010220D02*
X003741Y010220D01*
X003986Y010061D02*
X004453Y010061D01*
X004348Y009903D02*
X004091Y009903D01*
X004137Y009744D02*
X004302Y009744D01*
X004299Y009586D02*
X004140Y009586D01*
X004142Y009600D02*
X003195Y009600D01*
X003195Y009065D01*
X003597Y009065D01*
X003689Y009079D01*
X003778Y009108D01*
X003861Y009151D01*
X003937Y009205D01*
X004003Y009271D01*
X004058Y009347D01*
X004100Y009430D01*
X004129Y009519D01*
X004142Y009600D01*
X004099Y009427D02*
X004340Y009427D01*
X004439Y009269D02*
X004000Y009269D01*
X003782Y009110D02*
X004657Y009110D01*
X004703Y008635D02*
X003736Y008635D01*
X004002Y008476D02*
X004437Y008476D01*
X004311Y008318D02*
X004128Y008318D01*
X004193Y008159D02*
X004246Y008159D01*
X004235Y008001D02*
X004204Y008001D01*
X004190Y007842D02*
X004249Y007842D01*
X004314Y007684D02*
X004125Y007684D01*
X003995Y007525D02*
X004444Y007525D01*
X004721Y007367D02*
X003718Y007367D01*
X003934Y006891D02*
X004505Y006891D01*
X004347Y006733D02*
X004092Y006733D01*
X004165Y006574D02*
X004274Y006574D01*
X004235Y006416D02*
X004204Y006416D01*
X004204Y006257D02*
X004235Y006257D01*
X004286Y006099D02*
X004153Y006099D01*
X004064Y005940D02*
X004375Y005940D01*
X004555Y005782D02*
X003884Y005782D01*
X003195Y009110D02*
X003079Y009110D01*
X003079Y009269D02*
X003195Y009269D01*
X003195Y009427D02*
X003079Y009427D01*
X003079Y009586D02*
X003195Y009586D01*
X003195Y009744D02*
X003079Y009744D01*
X003079Y009903D02*
X003195Y009903D01*
X003195Y010061D02*
X003079Y010061D01*
X003079Y010220D02*
X003195Y010220D01*
X003770Y010695D02*
X004669Y010695D01*
X004759Y010658D02*
X004519Y010758D01*
X004335Y010941D01*
X004235Y011182D01*
X004235Y011442D01*
X004335Y011682D01*
X004519Y011866D01*
X004759Y011965D01*
X005846Y011965D01*
X006086Y011866D01*
X006269Y011682D01*
X006369Y011442D01*
X006369Y011182D01*
X006269Y010941D01*
X006086Y010758D01*
X005846Y010658D01*
X004759Y010658D01*
X004423Y010854D02*
X004016Y010854D01*
X004133Y011012D02*
X004306Y011012D01*
X004240Y011171D02*
X004199Y011171D01*
X004204Y011329D02*
X004235Y011329D01*
X004255Y011488D02*
X004184Y011488D01*
X004119Y011646D02*
X004320Y011646D01*
X004458Y011805D02*
X003981Y011805D01*
X003684Y011963D02*
X004755Y011963D01*
X004842Y012372D02*
X004750Y012386D01*
X004661Y012415D01*
X004578Y012458D01*
X004502Y012513D01*
X004436Y012579D01*
X004381Y012654D01*
X004339Y012737D01*
X004310Y012826D01*
X004297Y012907D01*
X005244Y012907D01*
X005360Y012907D01*
X005360Y012372D01*
X005762Y012372D01*
X005855Y012386D01*
X005943Y012415D01*
X006027Y012458D01*
X006102Y012513D01*
X006168Y012579D01*
X006223Y012654D01*
X006265Y012737D01*
X006294Y012826D01*
X006307Y012907D01*
X005360Y012907D01*
X005360Y013023D01*
X005244Y013023D01*
X005244Y012907D01*
X005244Y012372D01*
X004842Y012372D01*
X004615Y012439D02*
X003824Y012439D01*
X003861Y012458D02*
X003937Y012513D01*
X004003Y012579D01*
X004058Y012654D01*
X004100Y012737D01*
X004129Y012826D01*
X004142Y012907D01*
X003195Y012907D01*
X003195Y013023D01*
X004142Y013023D01*
X004129Y013104D01*
X004100Y013193D01*
X004058Y013276D01*
X004003Y013352D01*
X003937Y013418D01*
X003861Y013473D01*
X003778Y013515D01*
X003689Y013544D01*
X003597Y013559D01*
X003195Y013559D01*
X003195Y013023D01*
X003079Y013023D01*
X003079Y013559D01*
X002677Y013559D01*
X002584Y013544D01*
X002496Y013515D01*
X002412Y013473D01*
X002337Y013418D01*
X002271Y013352D01*
X002216Y013276D01*
X002174Y013193D01*
X002145Y013104D01*
X002132Y013023D01*
X003079Y013023D01*
X003079Y012907D01*
X003195Y012907D01*
X003195Y012372D01*
X003597Y012372D01*
X003689Y012386D01*
X003778Y012415D01*
X003861Y012458D01*
X004016Y012597D02*
X004423Y012597D01*
X004333Y012756D02*
X004106Y012756D01*
X004134Y013073D02*
X004305Y013073D01*
X004310Y013104D02*
X004339Y013193D01*
X004381Y013276D01*
X004436Y013352D01*
X004502Y013418D01*
X004578Y013473D01*
X004661Y013515D01*
X004750Y013544D01*
X004842Y013559D01*
X005244Y013559D01*
X005244Y013023D01*
X004297Y013023D01*
X004310Y013104D01*
X004358Y013231D02*
X004081Y013231D01*
X003965Y013390D02*
X004474Y013390D01*
X004778Y013548D02*
X003661Y013548D01*
X003195Y013548D02*
X003079Y013548D01*
X003079Y013390D02*
X003195Y013390D01*
X003195Y013231D02*
X003079Y013231D01*
X003079Y013073D02*
X003195Y013073D01*
X003195Y012914D02*
X005244Y012914D01*
X005360Y012914D02*
X012197Y012914D01*
X012197Y012756D02*
X006271Y012756D01*
X006182Y012597D02*
X012197Y012597D01*
X012197Y012439D02*
X005990Y012439D01*
X006307Y013023D02*
X006294Y013104D01*
X006265Y013193D01*
X006223Y013276D01*
X006168Y013352D01*
X006102Y013418D01*
X006027Y013473D01*
X005943Y013515D01*
X005855Y013544D01*
X005762Y013559D01*
X005360Y013559D01*
X005360Y013023D01*
X006307Y013023D01*
X006299Y013073D02*
X012197Y013073D01*
X012197Y013231D02*
X006246Y013231D01*
X006130Y013390D02*
X012197Y013390D01*
X012197Y013548D02*
X005827Y013548D01*
X005846Y013965D02*
X006086Y014065D01*
X006269Y014249D01*
X006369Y014489D01*
X006369Y014749D01*
X006269Y014989D01*
X006086Y015173D01*
X005846Y015272D01*
X004759Y015272D01*
X004519Y015173D01*
X004335Y014989D01*
X004235Y014749D01*
X004235Y014489D01*
X004335Y014249D01*
X004519Y014065D01*
X004759Y013965D01*
X005846Y013965D01*
X005987Y014024D02*
X012197Y014024D01*
X012197Y014182D02*
X006203Y014182D01*
X006308Y014341D02*
X012197Y014341D01*
X012197Y014499D02*
X006369Y014499D01*
X006369Y014658D02*
X012197Y014658D01*
X012197Y014816D02*
X006341Y014816D01*
X006275Y014975D02*
X012197Y014975D01*
X012197Y015133D02*
X006125Y015133D01*
X005943Y015722D02*
X005855Y015693D01*
X005762Y015679D01*
X005360Y015679D01*
X005360Y016214D01*
X005244Y016214D01*
X005244Y015679D01*
X004842Y015679D01*
X004750Y015693D01*
X004661Y015722D01*
X004578Y015765D01*
X004502Y015820D01*
X004436Y015886D01*
X004381Y015961D01*
X004339Y016044D01*
X004310Y016133D01*
X004297Y016214D01*
X005244Y016214D01*
X005244Y016330D01*
X004297Y016330D01*
X004310Y016411D01*
X004339Y016500D01*
X004381Y016583D01*
X004436Y016659D01*
X004502Y016725D01*
X004578Y016780D01*
X004661Y016822D01*
X004750Y016851D01*
X004842Y016866D01*
X005244Y016866D01*
X005244Y016330D01*
X005360Y016330D01*
X006307Y016330D01*
X006294Y016411D01*
X006265Y016500D01*
X006223Y016583D01*
X006168Y016659D01*
X006102Y016725D01*
X006027Y016780D01*
X005943Y016822D01*
X005855Y016851D01*
X005762Y016866D01*
X005360Y016866D01*
X005360Y016330D01*
X005360Y016214D01*
X006307Y016214D01*
X006294Y016133D01*
X006265Y016044D01*
X006223Y015961D01*
X006168Y015886D01*
X006102Y015820D01*
X006027Y015765D01*
X005943Y015722D01*
X006030Y015767D02*
X008806Y015767D01*
X008781Y015594D02*
X008781Y015576D01*
X008792Y015502D01*
X008816Y015430D01*
X008850Y015362D01*
X008894Y015301D01*
X008948Y015248D01*
X009009Y015203D01*
X009076Y015169D01*
X009148Y015146D01*
X009223Y015134D01*
X009541Y015134D01*
X009541Y015594D01*
X008781Y015594D01*
X008809Y015450D02*
X002097Y015450D01*
X002097Y015292D02*
X008904Y015292D01*
X008894Y015926D02*
X006197Y015926D01*
X006278Y016084D02*
X009043Y016084D01*
X008868Y016243D02*
X005360Y016243D01*
X005244Y016243D02*
X003195Y016243D01*
X003195Y016214D02*
X003195Y016330D01*
X004142Y016330D01*
X004129Y016411D01*
X004100Y016500D01*
X004058Y016583D01*
X004003Y016659D01*
X003937Y016725D01*
X003861Y016780D01*
X003778Y016822D01*
X003689Y016851D01*
X003597Y016866D01*
X003195Y016866D01*
X003195Y016330D01*
X003079Y016330D01*
X003079Y016214D01*
X003195Y016214D01*
X004142Y016214D01*
X004129Y016133D01*
X004100Y016044D01*
X004058Y015961D01*
X004003Y015886D01*
X003937Y015820D01*
X003861Y015765D01*
X003778Y015722D01*
X003689Y015693D01*
X003597Y015679D01*
X003195Y015679D01*
X003195Y016214D01*
X003079Y016214D02*
X003079Y015679D01*
X002677Y015679D01*
X002584Y015693D01*
X002496Y015722D01*
X002412Y015765D01*
X002337Y015820D01*
X002271Y015886D01*
X002216Y015961D01*
X002174Y016044D01*
X002145Y016133D01*
X002132Y016214D01*
X003079Y016214D01*
X003079Y016243D02*
X002097Y016243D01*
X002132Y016330D02*
X003079Y016330D01*
X003079Y016866D01*
X002677Y016866D01*
X002584Y016851D01*
X002496Y016822D01*
X002412Y016780D01*
X002337Y016725D01*
X002271Y016659D01*
X002216Y016583D01*
X002174Y016500D01*
X002145Y016411D01*
X002132Y016330D01*
X002143Y016401D02*
X002097Y016401D01*
X002097Y016560D02*
X002204Y016560D01*
X002097Y016718D02*
X002330Y016718D01*
X002097Y016877D02*
X008785Y016877D01*
X008721Y016718D02*
X006109Y016718D01*
X006235Y016560D02*
X008721Y016560D01*
X008764Y016401D02*
X006296Y016401D01*
X005846Y017272D02*
X006086Y017372D01*
X006269Y017556D01*
X006369Y017796D01*
X006369Y018056D01*
X006269Y018296D01*
X006086Y018480D01*
X005846Y018579D01*
X004759Y018579D01*
X004519Y018480D01*
X004335Y018296D01*
X004235Y018056D01*
X004235Y017796D01*
X004335Y017556D01*
X004519Y017372D01*
X004759Y017272D01*
X005846Y017272D01*
X006039Y017352D02*
X008784Y017352D01*
X008721Y017511D02*
X006225Y017511D01*
X006317Y017669D02*
X008721Y017669D01*
X008765Y017828D02*
X006369Y017828D01*
X006369Y017986D02*
X008869Y017986D01*
X009131Y018145D02*
X006332Y018145D01*
X006262Y018303D02*
X009451Y018303D01*
X009292Y018462D02*
X006103Y018462D01*
X005873Y018937D02*
X008817Y018937D01*
X008975Y018779D02*
X002097Y018779D01*
X002097Y018937D02*
X002566Y018937D01*
X002283Y019096D02*
X002097Y019096D01*
X002097Y019254D02*
X002151Y019254D01*
X002144Y019888D02*
X002097Y019888D01*
X002097Y020047D02*
X002267Y020047D01*
X002097Y020205D02*
X002527Y020205D01*
X002097Y020364D02*
X008417Y020364D01*
X008417Y020522D02*
X002097Y020522D01*
X002097Y020681D02*
X002351Y020681D01*
X002193Y020839D02*
X002097Y020839D01*
X002097Y020998D02*
X002114Y020998D01*
X002097Y021473D02*
X002116Y021473D01*
X002097Y021632D02*
X002198Y021632D01*
X002097Y021790D02*
X002362Y021790D01*
X002097Y021949D02*
X008417Y021949D01*
X008417Y022107D02*
X002097Y022107D01*
X002097Y022266D02*
X002514Y022266D01*
X002261Y022424D02*
X002097Y022424D01*
X002097Y022583D02*
X002142Y022583D01*
X002153Y023217D02*
X002097Y023217D01*
X002097Y023375D02*
X002288Y023375D01*
X002097Y023534D02*
X002579Y023534D01*
X002677Y023947D02*
X003079Y023947D01*
X003079Y024482D01*
X003195Y024482D01*
X003195Y024598D01*
X004142Y024598D01*
X004129Y024679D01*
X004100Y024768D01*
X004058Y024851D01*
X004003Y024927D01*
X003937Y024993D01*
X003861Y025047D01*
X003778Y025090D01*
X003689Y025119D01*
X003597Y025133D01*
X003195Y025133D01*
X003195Y024598D01*
X003079Y024598D01*
X003079Y025133D01*
X002677Y025133D01*
X002584Y025119D01*
X002496Y025090D01*
X002412Y025047D01*
X002337Y024993D01*
X002271Y024927D01*
X002216Y024851D01*
X002174Y024768D01*
X002145Y024679D01*
X002132Y024598D01*
X003079Y024598D01*
X003079Y024482D01*
X002132Y024482D01*
X002145Y024401D01*
X002174Y024312D01*
X002216Y024229D01*
X002271Y024153D01*
X002337Y024087D01*
X002412Y024032D01*
X002496Y023990D01*
X002584Y023961D01*
X002677Y023947D01*
X002458Y024009D02*
X002097Y024009D01*
X002097Y023851D02*
X008417Y023851D01*
X008417Y024009D02*
X006109Y024009D01*
X006086Y023986D02*
X006269Y024170D01*
X006369Y024410D01*
X006369Y024670D01*
X006269Y024910D01*
X006086Y025094D01*
X005846Y025193D01*
X004759Y025193D01*
X004519Y025094D01*
X004335Y024910D01*
X004235Y024670D01*
X004235Y024410D01*
X004335Y024170D01*
X004519Y023986D01*
X004759Y023887D01*
X005846Y023887D01*
X006086Y023986D01*
X006267Y024168D02*
X008417Y024168D01*
X008417Y024326D02*
X006334Y024326D01*
X006369Y024485D02*
X008417Y024485D01*
X008476Y024643D02*
X006369Y024643D01*
X006314Y024802D02*
X008559Y024802D01*
X008718Y024960D02*
X006219Y024960D01*
X006025Y025119D02*
X008876Y025119D01*
X009035Y025277D02*
X002097Y025277D01*
X002097Y025119D02*
X002585Y025119D01*
X002305Y024960D02*
X002097Y024960D01*
X002097Y024802D02*
X002191Y024802D01*
X002139Y024643D02*
X002097Y024643D01*
X002097Y024485D02*
X003079Y024485D01*
X003195Y024485D02*
X004235Y024485D01*
X004142Y024482D02*
X003195Y024482D01*
X003195Y023947D01*
X003597Y023947D01*
X003689Y023961D01*
X003778Y023990D01*
X003861Y024032D01*
X003937Y024087D01*
X004003Y024153D01*
X004058Y024229D01*
X004100Y024312D01*
X004129Y024401D01*
X004142Y024482D01*
X004105Y024326D02*
X004270Y024326D01*
X004337Y024168D02*
X004013Y024168D01*
X003816Y024009D02*
X004495Y024009D01*
X004745Y023534D02*
X003694Y023534D01*
X003985Y023375D02*
X004454Y023375D01*
X004519Y023440D02*
X004335Y023257D01*
X004235Y023016D01*
X004235Y022756D01*
X004335Y022516D01*
X004519Y022332D01*
X004759Y022233D01*
X005846Y022233D01*
X006086Y022332D01*
X006269Y022516D01*
X006369Y022756D01*
X006369Y023016D01*
X006269Y023257D01*
X006086Y023440D01*
X005846Y023540D01*
X004759Y023540D01*
X004519Y023440D01*
X004318Y023217D02*
X004121Y023217D01*
X004186Y023058D02*
X004253Y023058D01*
X004235Y022900D02*
X004204Y022900D01*
X004197Y022741D02*
X004242Y022741D01*
X004307Y022583D02*
X004132Y022583D01*
X004012Y022424D02*
X004427Y022424D01*
X004680Y022266D02*
X003759Y022266D01*
X003912Y021790D02*
X004527Y021790D01*
X004519Y021787D02*
X004335Y021603D01*
X004235Y021363D01*
X004235Y021103D01*
X004335Y020863D01*
X004519Y020679D01*
X004759Y020579D01*
X005846Y020579D01*
X006086Y020679D01*
X006269Y020863D01*
X006369Y021103D01*
X006369Y021363D01*
X006269Y021603D01*
X006086Y021787D01*
X005846Y021886D01*
X004759Y021886D01*
X004519Y021787D01*
X004364Y021632D02*
X004075Y021632D01*
X004158Y021473D02*
X004281Y021473D01*
X004235Y021315D02*
X004204Y021315D01*
X004204Y021156D02*
X004235Y021156D01*
X004279Y020998D02*
X004160Y020998D01*
X004081Y020839D02*
X004358Y020839D01*
X004517Y020681D02*
X003922Y020681D01*
X003746Y020205D02*
X004693Y020205D01*
X004759Y020233D02*
X004519Y020133D01*
X004335Y019949D01*
X004235Y019709D01*
X004235Y019449D01*
X004335Y019209D01*
X004519Y019025D01*
X004759Y018926D01*
X005846Y018926D01*
X006086Y019025D01*
X006269Y019209D01*
X006369Y019449D01*
X006369Y019709D01*
X006269Y019949D01*
X006086Y020133D01*
X005846Y020233D01*
X004759Y020233D01*
X004432Y020047D02*
X004007Y020047D01*
X004129Y019888D02*
X004310Y019888D01*
X004244Y019730D02*
X004195Y019730D01*
X004204Y019571D02*
X004235Y019571D01*
X004251Y019413D02*
X004188Y019413D01*
X004123Y019254D02*
X004316Y019254D01*
X004448Y019096D02*
X003991Y019096D01*
X003708Y018937D02*
X004731Y018937D01*
X004501Y018462D02*
X003938Y018462D01*
X004097Y018303D02*
X004342Y018303D01*
X004272Y018145D02*
X004167Y018145D01*
X004204Y017986D02*
X004235Y017986D01*
X004235Y017828D02*
X004204Y017828D01*
X004151Y017669D02*
X004288Y017669D01*
X004380Y017511D02*
X004059Y017511D01*
X003873Y017352D02*
X004566Y017352D01*
X004496Y016718D02*
X003943Y016718D01*
X004070Y016560D02*
X004369Y016560D01*
X004308Y016401D02*
X004131Y016401D01*
X004113Y016084D02*
X004326Y016084D01*
X004407Y015926D02*
X004032Y015926D01*
X003865Y015767D02*
X004574Y015767D01*
X004479Y015133D02*
X003847Y015133D01*
X003861Y015126D02*
X003778Y015169D01*
X003689Y015197D01*
X003597Y015212D01*
X003195Y015212D01*
X003195Y014676D01*
X004142Y014676D01*
X004129Y014758D01*
X004100Y014846D01*
X004058Y014930D01*
X004003Y015005D01*
X003937Y015071D01*
X003861Y015126D01*
X004025Y014975D02*
X004329Y014975D01*
X004263Y014816D02*
X004110Y014816D01*
X004235Y014658D02*
X003195Y014658D01*
X003195Y014676D02*
X003195Y014561D01*
X004142Y014561D01*
X004129Y014480D01*
X004100Y014391D01*
X004058Y014308D01*
X004003Y014232D01*
X003937Y014166D01*
X003861Y014111D01*
X003778Y014069D01*
X003689Y014040D01*
X003597Y014025D01*
X003195Y014025D01*
X003195Y014561D01*
X003079Y014561D01*
X002132Y014561D01*
X002145Y014480D01*
X002174Y014391D01*
X002216Y014308D01*
X002271Y014232D01*
X002337Y014166D01*
X002412Y014111D01*
X002496Y014069D01*
X002584Y014040D01*
X002677Y014025D01*
X003079Y014025D01*
X003079Y014561D01*
X003079Y014676D01*
X002132Y014676D01*
X002145Y014758D01*
X002174Y014846D01*
X002216Y014930D01*
X002271Y015005D01*
X002337Y015071D01*
X002412Y015126D01*
X002496Y015169D01*
X002584Y015197D01*
X002677Y015212D01*
X003079Y015212D01*
X003079Y014676D01*
X003195Y014676D01*
X003079Y014658D02*
X002097Y014658D01*
X002097Y014816D02*
X002164Y014816D01*
X002097Y014975D02*
X002249Y014975D01*
X002097Y015133D02*
X002426Y015133D01*
X002097Y015609D02*
X009541Y015609D01*
X009581Y015609D02*
X012197Y015609D01*
X012197Y015767D02*
X010315Y015767D01*
X010341Y015594D02*
X009581Y015594D01*
X009581Y015134D01*
X009898Y015134D01*
X009973Y015146D01*
X010045Y015169D01*
X010112Y015203D01*
X010173Y015248D01*
X010227Y015301D01*
X010271Y015362D01*
X010305Y015430D01*
X010329Y015502D01*
X010341Y015576D01*
X010341Y015594D01*
X010312Y015450D02*
X012197Y015450D01*
X012197Y015292D02*
X010217Y015292D01*
X009581Y015292D02*
X009541Y015292D01*
X009541Y015450D02*
X009581Y015450D01*
X008212Y015078D02*
X007962Y015078D01*
X007917Y015123D01*
X008918Y017035D02*
X002097Y017035D01*
X002097Y017194D02*
X008917Y017194D01*
X009134Y018620D02*
X002097Y018620D01*
X002097Y018462D02*
X002335Y018462D01*
X002177Y018303D02*
X002097Y018303D01*
X002097Y018145D02*
X002107Y018145D01*
X002097Y017669D02*
X002122Y017669D01*
X002097Y017511D02*
X002214Y017511D01*
X002097Y017352D02*
X002400Y017352D01*
X003079Y016718D02*
X003195Y016718D01*
X003195Y016560D02*
X003079Y016560D01*
X003079Y016401D02*
X003195Y016401D01*
X003195Y016084D02*
X003079Y016084D01*
X003079Y015926D02*
X003195Y015926D01*
X003195Y015767D02*
X003079Y015767D01*
X003079Y015133D02*
X003195Y015133D01*
X003195Y014975D02*
X003079Y014975D01*
X003079Y014816D02*
X003195Y014816D01*
X003195Y014499D02*
X003079Y014499D01*
X003079Y014341D02*
X003195Y014341D01*
X003195Y014182D02*
X003079Y014182D01*
X002321Y014182D02*
X002097Y014182D01*
X002097Y014024D02*
X004617Y014024D01*
X004401Y014182D02*
X003953Y014182D01*
X004075Y014341D02*
X004297Y014341D01*
X004235Y014499D02*
X004132Y014499D01*
X005244Y013548D02*
X005360Y013548D01*
X005360Y013390D02*
X005244Y013390D01*
X005244Y013231D02*
X005360Y013231D01*
X005360Y013073D02*
X005244Y013073D01*
X005244Y012756D02*
X005360Y012756D01*
X005360Y012597D02*
X005244Y012597D01*
X005244Y012439D02*
X005360Y012439D01*
X005849Y011963D02*
X008683Y011963D01*
X008728Y012008D02*
X008558Y011838D01*
X008466Y011616D01*
X008466Y011376D01*
X008558Y011154D01*
X008728Y010984D01*
X008950Y010892D01*
X009191Y010892D01*
X009413Y010984D01*
X009583Y011154D01*
X009675Y011376D01*
X009675Y011616D01*
X009583Y011838D01*
X009413Y012008D01*
X009191Y012100D01*
X008950Y012100D01*
X008728Y012008D01*
X008544Y011805D02*
X006146Y011805D01*
X006284Y011646D02*
X008479Y011646D01*
X008466Y011488D02*
X006350Y011488D01*
X006369Y011329D02*
X008485Y011329D01*
X008551Y011171D02*
X006364Y011171D01*
X006299Y011012D02*
X008700Y011012D01*
X008593Y010695D02*
X005935Y010695D01*
X006182Y010854D02*
X012197Y010854D01*
X012197Y011012D02*
X009441Y011012D01*
X009590Y011171D02*
X012197Y011171D01*
X012197Y011329D02*
X009655Y011329D01*
X009675Y011488D02*
X012197Y011488D01*
X012197Y011646D02*
X009662Y011646D01*
X009596Y011805D02*
X012197Y011805D01*
X012197Y011963D02*
X009458Y011963D01*
X009547Y010695D02*
X012197Y010695D01*
X012197Y010537D02*
X009672Y010537D01*
X009675Y010378D02*
X012197Y010378D01*
X012197Y010220D02*
X009675Y010220D01*
X009675Y010061D02*
X012249Y010061D01*
X012375Y009903D02*
X009675Y009903D01*
X009675Y009744D02*
X012533Y009744D01*
X013835Y010537D02*
X015297Y010537D01*
X015297Y010378D02*
X013946Y010378D01*
X014013Y010220D02*
X015297Y010220D01*
X017032Y010061D02*
X017608Y010061D01*
X017059Y010035D02*
X017059Y010035D01*
X012197Y012122D02*
X002097Y012122D01*
X002097Y012280D02*
X012197Y012280D01*
X012197Y013707D02*
X002097Y013707D01*
X002097Y013865D02*
X012197Y013865D01*
X012197Y015926D02*
X012019Y015926D01*
X012197Y017184D02*
X012140Y017241D01*
X011868Y017353D01*
X011627Y017353D01*
X011627Y018061D01*
X011515Y018333D01*
X009897Y019950D01*
X009897Y024047D01*
X012516Y026666D01*
X012516Y026666D01*
X012927Y027077D01*
X012927Y025946D01*
X012479Y025498D01*
X012441Y025590D01*
X012283Y025749D01*
X012075Y025835D01*
X011850Y025835D01*
X011643Y025749D01*
X011484Y025590D01*
X011398Y025383D01*
X011398Y025158D01*
X011484Y024950D01*
X011643Y024791D01*
X011850Y024705D01*
X012075Y024705D01*
X012197Y024756D01*
X012197Y023816D01*
X012075Y023866D01*
X011850Y023866D01*
X011643Y023780D01*
X011484Y023622D01*
X011398Y023414D01*
X011398Y023189D01*
X011484Y022982D01*
X011643Y022823D01*
X011850Y022737D01*
X012075Y022737D01*
X012197Y022788D01*
X012197Y017184D01*
X012197Y017194D02*
X012187Y017194D01*
X012197Y017352D02*
X011871Y017352D01*
X011627Y017511D02*
X012197Y017511D01*
X012197Y017669D02*
X011627Y017669D01*
X011627Y017828D02*
X012197Y017828D01*
X012197Y017986D02*
X011627Y017986D01*
X011592Y018145D02*
X012197Y018145D01*
X012197Y018303D02*
X011527Y018303D01*
X011385Y018462D02*
X012197Y018462D01*
X012197Y018620D02*
X011227Y018620D01*
X011068Y018779D02*
X012197Y018779D01*
X012197Y018937D02*
X010910Y018937D01*
X010751Y019096D02*
X012197Y019096D01*
X012197Y019254D02*
X010593Y019254D01*
X010434Y019413D02*
X012197Y019413D01*
X012197Y019571D02*
X010276Y019571D01*
X010117Y019730D02*
X012197Y019730D01*
X012197Y019888D02*
X009959Y019888D01*
X009897Y020047D02*
X012197Y020047D01*
X012197Y020205D02*
X009897Y020205D01*
X009897Y020364D02*
X012197Y020364D01*
X012197Y020522D02*
X009897Y020522D01*
X009897Y020681D02*
X012197Y020681D01*
X012197Y020839D02*
X009897Y020839D01*
X009897Y020998D02*
X012197Y020998D01*
X012197Y021156D02*
X011055Y021156D01*
X011045Y021152D02*
X011350Y021279D01*
X011584Y021512D01*
X011711Y021818D01*
X011711Y022148D01*
X011584Y022453D01*
X011350Y022687D01*
X011045Y022813D01*
X010715Y022813D01*
X010409Y022687D01*
X010176Y022453D01*
X010049Y022148D01*
X010049Y021818D01*
X010176Y021512D01*
X010409Y021279D01*
X010715Y021152D01*
X011045Y021152D01*
X011387Y021315D02*
X012197Y021315D01*
X012197Y021473D02*
X011545Y021473D01*
X011634Y021632D02*
X012197Y021632D01*
X012197Y021790D02*
X011699Y021790D01*
X011711Y021949D02*
X012197Y021949D01*
X012197Y022107D02*
X011711Y022107D01*
X011662Y022266D02*
X012197Y022266D01*
X012197Y022424D02*
X011596Y022424D01*
X011454Y022583D02*
X012197Y022583D01*
X012197Y022741D02*
X012086Y022741D01*
X011839Y022741D02*
X011219Y022741D01*
X011566Y022900D02*
X009897Y022900D01*
X009897Y023058D02*
X011452Y023058D01*
X011398Y023217D02*
X009897Y023217D01*
X009897Y023375D02*
X011398Y023375D01*
X011447Y023534D02*
X009897Y023534D01*
X009897Y023692D02*
X011555Y023692D01*
X011813Y023851D02*
X009897Y023851D01*
X009897Y024009D02*
X012197Y024009D01*
X012197Y023851D02*
X012113Y023851D01*
X012197Y024168D02*
X010018Y024168D01*
X010177Y024326D02*
X012197Y024326D01*
X012197Y024485D02*
X010335Y024485D01*
X010494Y024643D02*
X012197Y024643D01*
X011632Y024802D02*
X010652Y024802D01*
X010811Y024960D02*
X011480Y024960D01*
X011414Y025119D02*
X010969Y025119D01*
X010867Y024963D02*
X011737Y025833D01*
X012697Y025833D01*
X012997Y026133D01*
X012997Y027873D01*
X012117Y028753D01*
X011888Y028130D02*
X008941Y028130D01*
X008983Y028113D02*
X008732Y028217D01*
X008461Y028217D01*
X008210Y028113D01*
X008018Y027921D01*
X007914Y027670D01*
X007914Y027398D01*
X008018Y027147D01*
X008210Y026955D01*
X008461Y026851D01*
X008732Y026851D01*
X008983Y026955D01*
X009175Y027147D01*
X009279Y027398D01*
X009279Y027670D01*
X009175Y027921D01*
X008983Y028113D01*
X009124Y027972D02*
X011729Y027972D01*
X011571Y027813D02*
X009220Y027813D01*
X009279Y027655D02*
X011412Y027655D01*
X011254Y027496D02*
X009279Y027496D01*
X009254Y027338D02*
X011095Y027338D01*
X010937Y027179D02*
X009189Y027179D01*
X009049Y027021D02*
X010778Y027021D01*
X010620Y026862D02*
X008760Y026862D01*
X008433Y026862D02*
X005448Y026862D01*
X005444Y026832D02*
X005457Y026940D01*
X004414Y026940D01*
X004414Y027100D01*
X005457Y027100D01*
X005444Y027209D01*
X005416Y027332D01*
X005375Y027451D01*
X005320Y027565D01*
X005253Y027672D01*
X005210Y027726D01*
X005359Y027686D01*
X005671Y027686D01*
X005972Y027767D01*
X006242Y027923D01*
X006463Y028143D01*
X006619Y028413D01*
X006700Y028715D01*
X006700Y029027D01*
X006619Y029328D01*
X006463Y029598D01*
X006242Y029819D01*
X005972Y029975D01*
X005671Y030056D01*
X005359Y030056D01*
X005057Y029975D01*
X004787Y029819D01*
X004567Y029598D01*
X004411Y029328D01*
X004330Y029027D01*
X004330Y028715D01*
X004411Y028413D01*
X004567Y028143D01*
X004595Y028114D01*
X004522Y028131D01*
X004414Y028143D01*
X004414Y027100D01*
X004254Y027100D01*
X004254Y028143D01*
X004145Y028131D01*
X004022Y028103D01*
X004011Y028099D01*
X004032Y028120D01*
X004111Y028219D01*
X004178Y028326D01*
X004233Y028440D01*
X004275Y028559D01*
X004303Y028682D01*
X004315Y028791D01*
X003272Y028791D01*
X003272Y027748D01*
X003381Y027760D01*
X003504Y027788D01*
X003514Y027792D01*
X003494Y027771D01*
X003415Y027672D01*
X003348Y027565D01*
X003293Y027451D01*
X003251Y027332D01*
X003223Y027209D01*
X003211Y027100D01*
X004254Y027100D01*
X004254Y026940D01*
X004414Y026940D01*
X004414Y025897D01*
X004522Y025910D01*
X004646Y025938D01*
X004765Y025979D01*
X004879Y026034D01*
X004986Y026101D01*
X005084Y026180D01*
X005174Y026270D01*
X005253Y026368D01*
X005320Y026475D01*
X005375Y026589D01*
X005416Y026708D01*
X005444Y026832D01*
X005415Y026704D02*
X010461Y026704D01*
X010303Y026545D02*
X005353Y026545D01*
X005264Y026387D02*
X010144Y026387D01*
X009986Y026228D02*
X005133Y026228D01*
X004935Y026070D02*
X009827Y026070D01*
X009669Y025911D02*
X004530Y025911D01*
X004414Y025911D02*
X004254Y025911D01*
X004254Y025897D02*
X004254Y026940D01*
X003211Y026940D01*
X003223Y026832D01*
X003251Y026708D01*
X003293Y026589D01*
X003348Y026475D01*
X003415Y026368D01*
X003494Y026270D01*
X003583Y026180D01*
X003682Y026101D01*
X003789Y026034D01*
X003903Y025979D01*
X004022Y025938D01*
X004145Y025910D01*
X004254Y025897D01*
X004137Y025911D02*
X002097Y025911D01*
X002097Y025753D02*
X009510Y025753D01*
X009352Y025594D02*
X002097Y025594D01*
X002097Y025436D02*
X009193Y025436D01*
X008144Y027021D02*
X004414Y027021D01*
X004407Y027013D02*
X004400Y027020D01*
X004334Y027020D01*
X004254Y027021D02*
X002097Y027021D01*
X002097Y027179D02*
X003220Y027179D01*
X003253Y027338D02*
X002097Y027338D01*
X002097Y027496D02*
X003314Y027496D01*
X003404Y027655D02*
X002097Y027655D01*
X002097Y027813D02*
X002808Y027813D01*
X002515Y027972D02*
X002097Y027972D01*
X002097Y028130D02*
X002344Y028130D01*
X002229Y028289D02*
X002097Y028289D01*
X002097Y028447D02*
X002148Y028447D01*
X002097Y028606D02*
X002099Y028606D01*
X002097Y029240D02*
X002129Y029240D01*
X002097Y029398D02*
X002198Y029398D01*
X002097Y029557D02*
X002300Y029557D01*
X002447Y029715D02*
X002097Y029715D01*
X002097Y029874D02*
X002683Y029874D01*
X003112Y029874D02*
X003272Y029874D01*
X003272Y029994D02*
X003272Y028951D01*
X004315Y028951D01*
X004303Y029059D01*
X004275Y029183D01*
X004233Y029302D01*
X004178Y029416D01*
X004111Y029523D01*
X004032Y029621D01*
X003943Y029711D01*
X003844Y029790D01*
X003737Y029857D01*
X003623Y029912D01*
X003504Y029953D01*
X003381Y029981D01*
X003272Y029994D01*
X003272Y029715D02*
X003112Y029715D01*
X003112Y029557D02*
X003272Y029557D01*
X003272Y029398D02*
X003112Y029398D01*
X003112Y029240D02*
X003272Y029240D01*
X003272Y029081D02*
X003112Y029081D01*
X003257Y028943D02*
X003192Y028878D01*
X003192Y028871D01*
X003227Y028835D01*
X003227Y028633D01*
X005197Y030603D01*
X006827Y030603D01*
X006827Y029613D01*
X007277Y029163D01*
X008487Y029163D01*
X011017Y029163D01*
X011947Y030093D01*
X010527Y031513D01*
X010527Y033633D01*
X009998Y033678D02*
X014271Y033678D01*
X014148Y033836D02*
X009998Y033836D01*
X009998Y033995D02*
X014109Y033995D01*
X014133Y034153D02*
X009998Y034153D01*
X009998Y034312D02*
X014235Y034312D01*
X014274Y034470D02*
X014552Y034470D01*
X014455Y034629D02*
X014392Y034629D01*
X014527Y034013D02*
X015307Y034013D01*
X015617Y034323D01*
X015947Y034323D01*
X016797Y033473D01*
X016797Y032623D01*
X018207Y031213D01*
X018707Y031213D01*
X018857Y031363D01*
X018857Y033213D01*
X019597Y033953D01*
X020197Y033953D01*
X020177Y033535D02*
X019446Y032805D01*
X019397Y032687D01*
X019397Y031666D01*
X019177Y031446D01*
X019177Y033081D01*
X019730Y033633D01*
X019926Y033633D01*
X019960Y033599D01*
X020114Y033535D01*
X020177Y033535D01*
X020161Y033519D02*
X019616Y033519D01*
X019457Y033361D02*
X020002Y033361D01*
X020067Y033423D02*
X020157Y033513D01*
X019225Y032581D01*
X019225Y031573D01*
X019177Y031617D02*
X019349Y031617D01*
X019397Y031776D02*
X019177Y031776D01*
X019177Y031934D02*
X019397Y031934D01*
X019397Y032093D02*
X019177Y032093D01*
X019177Y032251D02*
X019397Y032251D01*
X019397Y032410D02*
X019177Y032410D01*
X019177Y032568D02*
X019397Y032568D01*
X019414Y032727D02*
X019177Y032727D01*
X019177Y032885D02*
X019527Y032885D01*
X019685Y033044D02*
X019177Y033044D01*
X019299Y033202D02*
X019844Y033202D01*
X019717Y032623D02*
X020897Y033803D01*
X020897Y034173D01*
X021192Y034470D02*
X022329Y034470D01*
X022349Y034312D02*
X021292Y034312D01*
X021315Y034153D02*
X022427Y034153D01*
X022427Y033995D02*
X021276Y033995D01*
X021217Y033836D02*
X022427Y033836D01*
X022147Y033483D02*
X022327Y033303D01*
X022147Y033483D02*
X020957Y033483D01*
X019957Y032483D01*
X019957Y029639D01*
X019511Y029193D01*
X018727Y029213D02*
X018377Y029213D01*
X016557Y031033D01*
X016557Y033203D01*
X015777Y033983D01*
X015491Y033678D02*
X014783Y033678D01*
X014588Y032885D02*
X014110Y032885D01*
X014269Y032727D02*
X014541Y032727D01*
X014541Y032568D02*
X014340Y032568D01*
X014371Y032410D02*
X014487Y032410D01*
X015080Y031617D02*
X016237Y031617D01*
X016237Y031459D02*
X014922Y031459D01*
X014763Y031300D02*
X016237Y031300D01*
X016237Y031142D02*
X014605Y031142D01*
X014446Y030983D02*
X016237Y030983D01*
X016313Y030825D02*
X014288Y030825D01*
X014129Y030666D02*
X016472Y030666D01*
X016376Y030762D02*
X016376Y030762D01*
X016630Y030508D02*
X013971Y030508D01*
X013907Y030349D02*
X016789Y030349D01*
X016947Y030191D02*
X013907Y030191D01*
X013061Y030983D02*
X002097Y030983D01*
X002097Y030825D02*
X012961Y030825D01*
X012927Y030666D02*
X002097Y030666D01*
X002097Y030508D02*
X012927Y030508D01*
X012927Y030349D02*
X007815Y030349D01*
X007784Y030363D02*
X007559Y030363D01*
X007351Y030277D01*
X007192Y030118D01*
X007106Y029910D01*
X007106Y029685D01*
X007192Y029478D01*
X007351Y029319D01*
X007559Y029233D01*
X007784Y029233D01*
X007991Y029319D01*
X008150Y029478D01*
X008236Y029685D01*
X008236Y029910D01*
X008150Y030118D01*
X007991Y030277D01*
X007784Y030363D01*
X007527Y030349D02*
X002097Y030349D01*
X002097Y030191D02*
X007266Y030191D01*
X007157Y030032D02*
X005757Y030032D01*
X006147Y029874D02*
X007106Y029874D01*
X007106Y029715D02*
X006346Y029715D01*
X006487Y029557D02*
X007160Y029557D01*
X007272Y029398D02*
X006578Y029398D01*
X006643Y029240D02*
X007542Y029240D01*
X007800Y029240D02*
X012927Y029240D01*
X012927Y029398D02*
X008071Y029398D01*
X008183Y029557D02*
X012927Y029557D01*
X012927Y029715D02*
X008236Y029715D01*
X008236Y029874D02*
X012927Y029874D01*
X012927Y030032D02*
X008185Y030032D01*
X008077Y030191D02*
X012927Y030191D01*
X013219Y031142D02*
X002097Y031142D01*
X002097Y031300D02*
X007338Y031300D01*
X007351Y031287D02*
X007559Y031201D01*
X007784Y031201D01*
X007991Y031287D01*
X008150Y031446D01*
X008236Y031654D01*
X008236Y031879D01*
X008196Y031975D01*
X008275Y031930D01*
X008591Y031845D01*
X008917Y031845D01*
X009233Y031930D01*
X009515Y032093D01*
X013229Y032093D01*
X013164Y032251D02*
X009674Y032251D01*
X009750Y032328D02*
X009913Y032610D01*
X009998Y032926D01*
X009998Y034891D01*
X009913Y035206D01*
X009750Y035489D01*
X009519Y035720D01*
X009236Y035883D01*
X008921Y035968D01*
X008595Y035968D01*
X008279Y035883D01*
X007996Y035720D01*
X007766Y035489D01*
X007602Y035206D01*
X007518Y034891D01*
X007518Y033263D01*
X007514Y033248D01*
X007514Y032922D01*
X007598Y032607D01*
X007758Y032331D01*
X007559Y032331D01*
X007351Y032245D01*
X007192Y032086D01*
X007106Y031879D01*
X007106Y031654D01*
X007192Y031446D01*
X007351Y031287D01*
X007187Y031459D02*
X002097Y031459D01*
X002097Y031617D02*
X007122Y031617D01*
X007106Y031776D02*
X002097Y031776D01*
X002097Y031934D02*
X007130Y031934D01*
X007199Y032093D02*
X002097Y032093D01*
X002097Y032251D02*
X007367Y032251D01*
X007712Y032410D02*
X002097Y032410D01*
X002097Y032568D02*
X007621Y032568D01*
X007566Y032727D02*
X002097Y032727D01*
X002097Y032885D02*
X007524Y032885D01*
X007514Y033044D02*
X002097Y033044D01*
X002097Y033202D02*
X007514Y033202D01*
X007518Y033361D02*
X002097Y033361D01*
X002097Y033519D02*
X007518Y033519D01*
X007518Y033678D02*
X002097Y033678D01*
X002097Y033836D02*
X007518Y033836D01*
X007518Y033995D02*
X002097Y033995D01*
X002097Y034153D02*
X007518Y034153D01*
X007518Y034312D02*
X003335Y034312D01*
X003211Y034261D02*
X002865Y034261D01*
X002546Y034393D01*
X002301Y034638D01*
X002168Y034957D01*
X002168Y035304D01*
X002301Y035623D01*
X002546Y035868D01*
X002865Y036000D01*
X003211Y036000D01*
X003531Y035868D01*
X003776Y035623D01*
X003908Y035304D01*
X003908Y034957D01*
X003776Y034638D01*
X003531Y034393D01*
X003211Y034261D01*
X003609Y034470D02*
X007518Y034470D01*
X007518Y034629D02*
X003767Y034629D01*
X003838Y034787D02*
X007518Y034787D01*
X007533Y034946D02*
X003904Y034946D01*
X003908Y035104D02*
X007575Y035104D01*
X007635Y035263D02*
X003908Y035263D01*
X003859Y035421D02*
X007727Y035421D01*
X007856Y035580D02*
X003794Y035580D01*
X003661Y035738D02*
X008028Y035738D01*
X008330Y035897D02*
X003461Y035897D01*
X002615Y035897D02*
X002097Y035897D01*
X002097Y036055D02*
X017237Y036055D01*
X017078Y035897D02*
X015241Y035897D01*
X015411Y035738D02*
X016920Y035738D01*
X016761Y035580D02*
X015478Y035580D01*
X015496Y035421D02*
X016603Y035421D01*
X016327Y035893D02*
X016237Y035983D01*
X014487Y035983D01*
X013956Y035452D01*
X013956Y035130D01*
X013936Y035110D02*
X013936Y034350D01*
X013918Y034350D01*
X013843Y034362D01*
X013771Y034386D01*
X013704Y034420D01*
X013643Y034464D01*
X013590Y034518D01*
X013545Y034579D01*
X013511Y034646D01*
X013488Y034718D01*
X013476Y034793D01*
X013476Y035110D01*
X013936Y035110D01*
X013936Y035104D02*
X013976Y035104D01*
X013976Y034946D02*
X013936Y034946D01*
X013936Y034787D02*
X013976Y034787D01*
X013976Y034629D02*
X013936Y034629D01*
X013936Y034470D02*
X013976Y034470D01*
X013637Y034470D02*
X009998Y034470D01*
X009998Y034629D02*
X013520Y034629D01*
X013477Y034787D02*
X009998Y034787D01*
X009983Y034946D02*
X013476Y034946D01*
X013476Y035104D02*
X009941Y035104D01*
X009881Y035263D02*
X013476Y035263D01*
X013476Y035421D02*
X009789Y035421D01*
X009659Y035580D02*
X013500Y035580D01*
X013586Y035738D02*
X009487Y035738D01*
X009185Y035897D02*
X013838Y035897D01*
X013936Y035897D02*
X013976Y035897D01*
X014074Y035897D02*
X014671Y035897D01*
X014500Y035738D02*
X014325Y035738D01*
X014412Y035580D02*
X014433Y035580D01*
X014956Y035130D02*
X015063Y035023D01*
X016657Y035023D01*
X017617Y035983D01*
X018567Y035983D01*
X018727Y035823D01*
X018727Y035303D01*
X018787Y035223D01*
X018797Y034803D02*
X018347Y034353D01*
X018337Y034353D01*
X018287Y035663D02*
X017777Y035663D01*
X017557Y035443D01*
X017557Y032473D01*
X018457Y031573D01*
X019177Y031459D02*
X019190Y031459D01*
X019157Y030973D02*
X019717Y031533D01*
X019717Y032623D01*
X020227Y032403D02*
X020227Y031337D01*
X020281Y031283D01*
X020573Y030983D02*
X021093Y030983D01*
X021093Y031142D02*
X020675Y031142D01*
X020699Y031300D02*
X021157Y031300D01*
X021191Y031459D02*
X020661Y031459D01*
X020547Y031617D02*
X021191Y031617D01*
X021191Y031776D02*
X020547Y031776D01*
X020547Y031934D02*
X021191Y031934D01*
X021191Y032093D02*
X020547Y032093D01*
X020547Y032251D02*
X021237Y032251D01*
X021391Y032410D02*
X020686Y032410D01*
X020845Y032568D02*
X021550Y032568D01*
X021937Y032503D02*
X021511Y032077D01*
X021511Y031063D01*
X021377Y030666D02*
X020277Y030666D01*
X020277Y030508D02*
X026420Y030508D01*
X026420Y030666D02*
X025535Y030666D01*
X025701Y030825D02*
X026420Y030825D01*
X026420Y030983D02*
X025860Y030983D01*
X025927Y031142D02*
X026420Y031142D01*
X026420Y031300D02*
X025927Y031300D01*
X025967Y031459D02*
X026420Y031459D01*
X026420Y031617D02*
X026025Y031617D01*
X026022Y031776D02*
X026420Y031776D01*
X026420Y031934D02*
X025948Y031934D01*
X025711Y032093D02*
X026420Y032093D01*
X026420Y032251D02*
X022938Y032251D01*
X022737Y032503D02*
X022947Y032713D01*
X022737Y032503D02*
X021937Y032503D01*
X022067Y032883D02*
X021957Y032993D01*
X020817Y032993D01*
X020227Y032403D01*
X019157Y030973D02*
X017877Y030973D01*
X017487Y031363D01*
X016237Y031776D02*
X015570Y031776D01*
X015737Y031934D02*
X016237Y031934D01*
X016237Y032093D02*
X015749Y032093D01*
X015749Y032251D02*
X016237Y032251D01*
X016237Y032410D02*
X015749Y032410D01*
X015749Y032568D02*
X016237Y032568D01*
X016237Y032727D02*
X015749Y032727D01*
X015702Y032885D02*
X016237Y032885D01*
X016237Y033044D02*
X009998Y033044D01*
X009998Y033202D02*
X016106Y033202D01*
X015947Y033361D02*
X009998Y033361D01*
X009998Y033519D02*
X015789Y033519D01*
X013976Y035263D02*
X013936Y035263D01*
X013936Y035421D02*
X013976Y035421D01*
X013976Y035580D02*
X013936Y035580D01*
X013936Y035738D02*
X013976Y035738D01*
X013423Y032885D02*
X009987Y032885D01*
X009945Y032727D02*
X013265Y032727D01*
X013193Y032568D02*
X009889Y032568D01*
X009798Y032410D02*
X013163Y032410D01*
X013353Y031934D02*
X009241Y031934D01*
X009515Y032093D02*
X009750Y032328D01*
X008267Y031934D02*
X008213Y031934D01*
X008236Y031776D02*
X013633Y031776D01*
X013695Y031617D02*
X008221Y031617D01*
X008155Y031459D02*
X013536Y031459D01*
X013378Y031300D02*
X008004Y031300D01*
X006685Y029081D02*
X012927Y029081D01*
X012927Y028923D02*
X006700Y028923D01*
X006700Y028764D02*
X012927Y028764D01*
X012927Y028606D02*
X006670Y028606D01*
X006628Y028447D02*
X012927Y028447D01*
X012927Y028289D02*
X006547Y028289D01*
X006450Y028130D02*
X008252Y028130D01*
X008069Y027972D02*
X006292Y027972D01*
X006053Y027813D02*
X007973Y027813D01*
X007914Y027655D02*
X005263Y027655D01*
X005353Y027496D02*
X007914Y027496D01*
X007939Y027338D02*
X005414Y027338D01*
X005448Y027179D02*
X008004Y027179D01*
X008417Y023692D02*
X002097Y023692D01*
X002097Y024168D02*
X002260Y024168D01*
X002169Y024326D02*
X002097Y024326D01*
X003079Y024326D02*
X003195Y024326D01*
X003195Y024168D02*
X003079Y024168D01*
X003079Y024009D02*
X003195Y024009D01*
X003195Y024643D02*
X003079Y024643D01*
X003079Y024802D02*
X003195Y024802D01*
X003195Y024960D02*
X003079Y024960D01*
X003079Y025119D02*
X003195Y025119D01*
X003688Y025119D02*
X004579Y025119D01*
X004385Y024960D02*
X003969Y024960D01*
X004083Y024802D02*
X004290Y024802D01*
X004235Y024643D02*
X004135Y024643D01*
X004254Y026070D02*
X004414Y026070D01*
X004414Y026228D02*
X004254Y026228D01*
X004254Y026387D02*
X004414Y026387D01*
X004414Y026545D02*
X004254Y026545D01*
X004254Y026704D02*
X004414Y026704D01*
X004414Y026862D02*
X004254Y026862D01*
X004254Y027179D02*
X004414Y027179D01*
X004414Y027338D02*
X004254Y027338D01*
X004254Y027496D02*
X004414Y027496D01*
X004414Y027655D02*
X004254Y027655D01*
X004254Y027813D02*
X004414Y027813D01*
X004414Y027972D02*
X004254Y027972D01*
X004254Y028130D02*
X004414Y028130D01*
X004525Y028130D02*
X004579Y028130D01*
X004482Y028289D02*
X004155Y028289D01*
X004142Y028130D02*
X004040Y028130D01*
X004236Y028447D02*
X004402Y028447D01*
X004359Y028606D02*
X004285Y028606D01*
X004312Y028764D02*
X004330Y028764D01*
X004330Y028923D02*
X003272Y028923D01*
X003272Y028764D02*
X003112Y028764D01*
X003112Y028606D02*
X003272Y028606D01*
X003272Y028447D02*
X003112Y028447D01*
X003112Y028289D02*
X003272Y028289D01*
X003272Y028130D02*
X003112Y028130D01*
X003112Y027972D02*
X003272Y027972D01*
X003272Y027813D02*
X003112Y027813D01*
X003219Y026862D02*
X002097Y026862D01*
X002097Y026704D02*
X003253Y026704D01*
X003314Y026545D02*
X002097Y026545D01*
X002097Y026387D02*
X003403Y026387D01*
X003535Y026228D02*
X002097Y026228D01*
X002097Y026070D02*
X003732Y026070D01*
X005860Y023534D02*
X008417Y023534D01*
X008417Y023375D02*
X006151Y023375D01*
X006286Y023217D02*
X008417Y023217D01*
X008417Y023058D02*
X006352Y023058D01*
X006369Y022900D02*
X008417Y022900D01*
X008417Y022741D02*
X006363Y022741D01*
X006297Y022583D02*
X008417Y022583D01*
X008417Y022424D02*
X006178Y022424D01*
X005925Y022266D02*
X008417Y022266D01*
X008417Y021790D02*
X006077Y021790D01*
X006241Y021632D02*
X008417Y021632D01*
X008417Y021473D02*
X006323Y021473D01*
X006369Y021315D02*
X008417Y021315D01*
X008417Y021156D02*
X006369Y021156D01*
X006325Y020998D02*
X008417Y020998D01*
X008417Y020839D02*
X006246Y020839D01*
X006088Y020681D02*
X008417Y020681D01*
X008417Y020205D02*
X005912Y020205D01*
X006172Y020047D02*
X008417Y020047D01*
X008417Y019888D02*
X006295Y019888D01*
X006360Y019730D02*
X008417Y019730D01*
X008417Y019571D02*
X006369Y019571D01*
X006354Y019413D02*
X008452Y019413D01*
X008517Y019254D02*
X006288Y019254D01*
X006156Y019096D02*
X008658Y019096D01*
X009897Y021156D02*
X010705Y021156D01*
X010373Y021315D02*
X009897Y021315D01*
X009897Y021473D02*
X010215Y021473D01*
X010126Y021632D02*
X009897Y021632D01*
X009897Y021790D02*
X010061Y021790D01*
X010049Y021949D02*
X009897Y021949D01*
X009897Y022107D02*
X010049Y022107D01*
X010098Y022266D02*
X009897Y022266D01*
X009897Y022424D02*
X010164Y022424D01*
X010305Y022583D02*
X009897Y022583D01*
X009897Y022741D02*
X010541Y022741D01*
X010867Y024093D02*
X010867Y024963D01*
X011128Y025277D02*
X011398Y025277D01*
X011420Y025436D02*
X011286Y025436D01*
X011445Y025594D02*
X011488Y025594D01*
X011603Y025753D02*
X011652Y025753D01*
X011762Y025911D02*
X012892Y025911D01*
X012927Y026070D02*
X011920Y026070D01*
X012079Y026228D02*
X012927Y026228D01*
X012927Y026387D02*
X012237Y026387D01*
X012396Y026545D02*
X012927Y026545D01*
X012927Y026704D02*
X012554Y026704D01*
X012713Y026862D02*
X012927Y026862D01*
X012927Y027021D02*
X012871Y027021D01*
X012927Y028130D02*
X012787Y028130D01*
X013907Y028130D02*
X018067Y028130D01*
X017909Y028289D02*
X013907Y028289D01*
X013907Y028447D02*
X017750Y028447D01*
X017592Y028606D02*
X013907Y028606D01*
X013907Y028764D02*
X017433Y028764D01*
X017267Y028733D02*
X018707Y027293D01*
X018777Y027293D01*
X019227Y027743D01*
X018777Y027293D02*
X017787Y026303D01*
X017787Y025903D01*
X016421Y023823D02*
X016201Y023603D01*
X016201Y022903D01*
X016701Y022403D01*
X016701Y020073D01*
X018521Y018253D01*
X019727Y018863D02*
X020291Y018863D01*
X020882Y018193D02*
X020962Y018113D01*
X021787Y018113D01*
X022723Y019730D02*
X017497Y019730D01*
X017339Y019888D02*
X022723Y019888D01*
X022723Y020047D02*
X018063Y020047D01*
X017831Y020403D02*
X021871Y020403D01*
X022031Y020563D01*
X022031Y021832D01*
X022122Y021922D01*
X022535Y021632D02*
X022709Y021632D01*
X022638Y021790D02*
X022606Y021790D01*
X022619Y021949D02*
X022624Y021949D01*
X022681Y022363D02*
X023122Y021922D01*
X023072Y022424D02*
X023927Y022424D01*
X023768Y022583D02*
X022914Y022583D01*
X022726Y022741D02*
X020442Y022741D01*
X020442Y022583D02*
X020608Y022583D01*
X020450Y022424D02*
X020442Y022424D01*
X020691Y022213D02*
X020841Y022363D01*
X022681Y022363D01*
X022568Y022900D02*
X020442Y022900D01*
X020429Y023058D02*
X022409Y023058D01*
X022251Y023217D02*
X020320Y023217D01*
X020162Y023375D02*
X022139Y023375D01*
X021971Y023823D02*
X016421Y023823D01*
X016571Y022983D02*
X016871Y022683D01*
X017441Y022683D01*
X017701Y022423D01*
X017701Y021613D01*
X018211Y021103D01*
X020561Y021103D01*
X021122Y021664D01*
X021122Y021922D01*
X020691Y021683D02*
X020691Y022213D01*
X020691Y021683D02*
X020411Y021403D01*
X018921Y021403D01*
X018711Y021613D01*
X018711Y022513D01*
X018531Y022853D02*
X019371Y022853D01*
X019641Y022583D01*
X020122Y022963D02*
X019891Y023193D01*
X018230Y023193D01*
X017936Y022899D01*
X018122Y022444D02*
X018531Y022853D01*
X018122Y022444D02*
X018122Y021922D01*
X017547Y021315D02*
X017021Y021315D01*
X017021Y021473D02*
X017413Y021473D01*
X017122Y021485D02*
X017122Y021922D01*
X017122Y021922D01*
X017122Y021485D01*
X017122Y021632D02*
X017122Y021632D01*
X017122Y021790D02*
X017122Y021790D01*
X017021Y021156D02*
X017706Y021156D01*
X017864Y020998D02*
X017021Y020998D01*
X017021Y020839D02*
X018023Y020839D01*
X017518Y020681D02*
X017021Y020681D01*
X017021Y020522D02*
X017428Y020522D01*
X017413Y020364D02*
X017021Y020364D01*
X017022Y020205D02*
X017461Y020205D01*
X017599Y020047D02*
X017180Y020047D01*
X020122Y021922D02*
X020122Y022963D01*
X021384Y021473D02*
X021711Y021473D01*
X021711Y021315D02*
X021225Y021315D01*
X021067Y021156D02*
X021711Y021156D01*
X021711Y020998D02*
X020908Y020998D01*
X020750Y020839D02*
X021711Y020839D01*
X022284Y020364D02*
X022723Y020364D01*
X022723Y020522D02*
X022351Y020522D01*
X022351Y020681D02*
X026420Y020681D01*
X026420Y020839D02*
X022351Y020839D01*
X022351Y020998D02*
X026420Y020998D01*
X026420Y021156D02*
X022351Y021156D01*
X022351Y021315D02*
X026420Y021315D01*
X026420Y021473D02*
X025338Y021473D01*
X025535Y021632D02*
X026420Y021632D01*
X026420Y021790D02*
X025606Y021790D01*
X025619Y021949D02*
X026420Y021949D01*
X026420Y022107D02*
X025584Y022107D01*
X025482Y022266D02*
X026420Y022266D01*
X026420Y022424D02*
X025313Y022424D01*
X025154Y022583D02*
X026420Y022583D01*
X026420Y022741D02*
X024996Y022741D01*
X024837Y022900D02*
X026420Y022900D01*
X026420Y023058D02*
X024679Y023058D01*
X024520Y023217D02*
X026420Y023217D01*
X026420Y023375D02*
X024362Y023375D01*
X024203Y023534D02*
X026420Y023534D01*
X026420Y023692D02*
X023161Y023692D01*
X023482Y022266D02*
X023762Y022266D01*
X023660Y022107D02*
X023584Y022107D01*
X023619Y021949D02*
X023624Y021949D01*
X023638Y021790D02*
X023606Y021790D01*
X023535Y021632D02*
X023709Y021632D01*
X023905Y021473D02*
X023338Y021473D01*
X022905Y021473D02*
X022351Y021473D01*
X021709Y021632D02*
X021535Y021632D01*
X021606Y021790D02*
X021638Y021790D01*
X021624Y021949D02*
X021619Y021949D01*
X022126Y020205D02*
X022723Y020205D01*
X022927Y019973D02*
X022927Y019728D01*
X023401Y020903D02*
X023691Y021193D01*
X026127Y021193D01*
X025787Y021533D01*
X025787Y023013D01*
X024709Y021632D02*
X024535Y021632D01*
X024338Y021473D02*
X024905Y021473D01*
X022171Y024023D02*
X021971Y023823D01*
X022171Y024023D02*
X022171Y027033D01*
X020833Y027655D02*
X013907Y027655D01*
X013907Y027813D02*
X020773Y027813D01*
X021646Y030666D02*
X022007Y030666D01*
X021918Y030825D02*
X021864Y030825D01*
X021929Y031142D02*
X021951Y031142D01*
X021866Y031300D02*
X022091Y031300D01*
X021831Y031459D02*
X025248Y031459D01*
X025272Y031300D02*
X022552Y031300D01*
X022547Y031983D02*
X023337Y031983D01*
X025347Y033993D01*
X024717Y033993D01*
X024207Y034503D01*
X024207Y035733D01*
X024724Y035580D02*
X021938Y035580D01*
X021975Y035738D02*
X024857Y035738D01*
X024742Y035623D02*
X024609Y035304D01*
X024609Y034957D01*
X024742Y034638D01*
X024987Y034393D01*
X025306Y034261D01*
X025652Y034261D01*
X025972Y034393D01*
X026217Y034638D01*
X026349Y034957D01*
X026349Y035304D01*
X026217Y035623D01*
X025972Y035868D01*
X025652Y036000D01*
X025306Y036000D01*
X024987Y035868D01*
X024742Y035623D01*
X024658Y035421D02*
X021818Y035421D01*
X021659Y035263D02*
X024609Y035263D01*
X024609Y035104D02*
X021501Y035104D01*
X021342Y034946D02*
X024614Y034946D01*
X024680Y034787D02*
X022995Y034787D01*
X023123Y034629D02*
X024751Y034629D01*
X024909Y034470D02*
X023165Y034470D01*
X023145Y034312D02*
X025182Y034312D01*
X025776Y034312D02*
X026420Y034312D01*
X026420Y034470D02*
X026049Y034470D01*
X026208Y034629D02*
X026420Y034629D01*
X026420Y034787D02*
X026279Y034787D01*
X026344Y034946D02*
X026420Y034946D01*
X026420Y035104D02*
X026349Y035104D01*
X026349Y035263D02*
X026420Y035263D01*
X026420Y035421D02*
X026300Y035421D01*
X026235Y035580D02*
X026420Y035580D01*
X026420Y035738D02*
X026102Y035738D01*
X025902Y035897D02*
X026420Y035897D01*
X026420Y036055D02*
X021847Y036055D01*
X021950Y035897D02*
X025056Y035897D01*
X026420Y034153D02*
X023067Y034153D01*
X023067Y033995D02*
X026420Y033995D01*
X026420Y033836D02*
X023067Y033836D01*
X023067Y033678D02*
X026420Y033678D01*
X026420Y033519D02*
X023067Y033519D01*
X023067Y033361D02*
X026420Y033361D01*
X026420Y033202D02*
X023067Y033202D01*
X023208Y033044D02*
X026420Y033044D01*
X026420Y032885D02*
X023329Y032885D01*
X023365Y032727D02*
X026420Y032727D01*
X026420Y032568D02*
X023340Y032568D01*
X023235Y032410D02*
X026420Y032410D01*
X025503Y032093D02*
X021979Y032093D01*
X021831Y031934D02*
X025267Y031934D01*
X025193Y031776D02*
X021831Y031776D01*
X021831Y031617D02*
X025189Y031617D01*
X022747Y033123D02*
X022507Y032883D01*
X022067Y032883D01*
X022747Y033123D02*
X022747Y034443D01*
X022372Y034629D02*
X021025Y034629D01*
X021184Y034787D02*
X022500Y034787D01*
X021557Y035613D02*
X021557Y035753D01*
X021557Y035613D02*
X020577Y034633D01*
X020277Y030825D02*
X021159Y030825D01*
X018277Y027972D02*
X013907Y027972D01*
X013907Y028923D02*
X017275Y028923D01*
X017267Y028733D02*
X015147Y028733D01*
X012734Y025753D02*
X012273Y025753D01*
X012437Y025594D02*
X012575Y025594D01*
X013177Y021315D02*
X013196Y021315D01*
X013177Y021156D02*
X013307Y021156D01*
X013177Y020998D02*
X013552Y020998D01*
X008469Y010537D02*
X002097Y010537D01*
X002097Y010695D02*
X002504Y010695D01*
X002257Y010854D02*
X002097Y010854D01*
X002097Y011012D02*
X002140Y011012D01*
X002155Y011646D02*
X002097Y011646D01*
X002097Y011805D02*
X002293Y011805D01*
X002097Y011963D02*
X002590Y011963D01*
X002677Y012372D02*
X003079Y012372D01*
X003079Y012907D01*
X002132Y012907D01*
X002145Y012826D01*
X002174Y012737D01*
X002216Y012654D01*
X002271Y012579D01*
X002337Y012513D01*
X002412Y012458D01*
X002496Y012415D01*
X002584Y012386D01*
X002677Y012372D01*
X002449Y012439D02*
X002097Y012439D01*
X002097Y012597D02*
X002257Y012597D01*
X002168Y012756D02*
X002097Y012756D01*
X002097Y012914D02*
X003079Y012914D01*
X003079Y012756D02*
X003195Y012756D01*
X003195Y012597D02*
X003079Y012597D01*
X003079Y012439D02*
X003195Y012439D01*
X002612Y013548D02*
X002097Y013548D01*
X002097Y013390D02*
X002309Y013390D01*
X002193Y013231D02*
X002097Y013231D01*
X002097Y013073D02*
X002140Y013073D01*
X002097Y014341D02*
X002199Y014341D01*
X002142Y014499D02*
X002097Y014499D01*
X002097Y015767D02*
X002409Y015767D01*
X002242Y015926D02*
X002097Y015926D01*
X002097Y016084D02*
X002161Y016084D01*
X005244Y016084D02*
X005360Y016084D01*
X005360Y015926D02*
X005244Y015926D01*
X005244Y015767D02*
X005360Y015767D01*
X005360Y016401D02*
X005244Y016401D01*
X005244Y016560D02*
X005360Y016560D01*
X005360Y016718D02*
X005244Y016718D01*
X005244Y009110D02*
X005360Y009110D01*
X004345Y029081D02*
X004298Y029081D01*
X004254Y029240D02*
X004387Y029240D01*
X004451Y029398D02*
X004186Y029398D01*
X004083Y029557D02*
X004543Y029557D01*
X004684Y029715D02*
X003937Y029715D01*
X003701Y029874D02*
X004883Y029874D01*
X005272Y030032D02*
X002097Y030032D01*
X002097Y034312D02*
X002741Y034312D01*
X002468Y034470D02*
X002097Y034470D01*
X002097Y034629D02*
X002310Y034629D01*
X002239Y034787D02*
X002097Y034787D01*
X002097Y034946D02*
X002173Y034946D01*
X002168Y035104D02*
X002097Y035104D01*
X002097Y035263D02*
X002168Y035263D01*
X002217Y035421D02*
X002097Y035421D01*
X002097Y035580D02*
X002283Y035580D01*
X002416Y035738D02*
X002097Y035738D01*
X025635Y008159D02*
X026420Y008159D01*
X026420Y008001D02*
X025840Y008001D01*
X025929Y007842D02*
X026420Y007842D01*
D30*
X025277Y005023D03*
X024037Y003043D03*
X017727Y003613D03*
X012327Y003543D03*
X011697Y006393D03*
X008437Y003453D03*
X006977Y003663D03*
X003647Y005233D03*
X008177Y008533D03*
X019557Y016223D03*
X021787Y018113D03*
X025787Y023013D03*
X026127Y021193D03*
X026047Y012083D03*
X017787Y025903D03*
X019227Y027743D03*
X015677Y030103D03*
X015147Y028733D03*
X011947Y030093D03*
X010527Y033633D03*
X011567Y035033D03*
X008487Y029163D03*
X006827Y030603D03*
X005967Y034873D03*
X002947Y031723D03*
X002307Y033253D03*
X009257Y026163D03*
X010867Y024093D03*
X016327Y035893D03*
X024207Y035733D03*
X025347Y033993D03*
D31*
X012097Y027293D02*
X012067Y027293D01*
X010757Y025983D01*
M02*
