G75*
%MOIN*%
%OFA0B0*%
%FSLAX24Y24*%
%IPPOS*%
%LPD*%
%AMOC8*
5,1,8,0,0,1.08239X$1,22.5*
%
%ADD10C,0.0000*%
%ADD11C,0.0060*%
%ADD12C,0.0040*%
%ADD13C,0.0030*%
%ADD14C,0.0050*%
%ADD15C,0.0100*%
%ADD16C,0.0080*%
%ADD17C,0.0079*%
%ADD18C,0.0200*%
%ADD19R,0.0300X0.4200*%
%ADD20R,0.0200X0.0750*%
%ADD21R,0.0200X0.0300*%
%ADD22R,0.0040X0.0010*%
%ADD23R,0.0080X0.0010*%
%ADD24R,0.0100X0.0010*%
%ADD25R,0.0130X0.0010*%
%ADD26R,0.0060X0.0010*%
%ADD27R,0.0050X0.0010*%
%ADD28R,0.0030X0.0010*%
%ADD29R,0.0090X0.0010*%
%ADD30R,0.0120X0.0010*%
%ADD31R,0.0150X0.0010*%
%ADD32R,0.0270X0.0010*%
%ADD33R,0.0390X0.0010*%
%ADD34R,0.0490X0.0010*%
%ADD35R,0.0180X0.0010*%
%ADD36R,0.0220X0.0010*%
%ADD37R,0.0160X0.0010*%
%ADD38R,0.0110X0.0010*%
%ADD39R,0.0070X0.0010*%
%ADD40R,0.0170X0.0010*%
%ADD41R,0.0240X0.0010*%
%ADD42R,0.0190X0.0010*%
%ADD43R,0.0250X0.0010*%
%ADD44R,0.0360X0.0010*%
%ADD45R,0.0010X0.0010*%
%ADD46R,0.0020X0.0010*%
%ADD47R,0.0230X0.0010*%
%ADD48R,0.0210X0.0010*%
%ADD49R,0.0140X0.0010*%
%ADD50R,0.0280X0.0010*%
%ADD51R,0.0310X0.0010*%
%ADD52R,0.0470X0.0010*%
%ADD53R,0.0590X0.0010*%
%ADD54R,0.0200X0.0010*%
%ADD55R,0.0400X0.0010*%
%ADD56R,0.0340X0.0010*%
%ADD57R,0.0290X0.0010*%
%ADD58R,0.0510X0.0010*%
%ADD59R,0.0420X0.0010*%
%ADD60R,0.0300X0.0010*%
D10*
X001857Y002453D02*
X001857Y036312D01*
X026660Y036312D01*
X026660Y002453D01*
X001857Y002453D01*
X002408Y003634D02*
X002410Y003684D01*
X002416Y003734D01*
X002426Y003783D01*
X002440Y003831D01*
X002457Y003878D01*
X002478Y003923D01*
X002503Y003967D01*
X002531Y004008D01*
X002563Y004047D01*
X002597Y004084D01*
X002634Y004118D01*
X002674Y004148D01*
X002716Y004175D01*
X002760Y004199D01*
X002806Y004220D01*
X002853Y004236D01*
X002901Y004249D01*
X002951Y004258D01*
X003000Y004263D01*
X003051Y004264D01*
X003101Y004261D01*
X003150Y004254D01*
X003199Y004243D01*
X003247Y004228D01*
X003293Y004210D01*
X003338Y004188D01*
X003381Y004162D01*
X003422Y004133D01*
X003461Y004101D01*
X003497Y004066D01*
X003529Y004028D01*
X003559Y003988D01*
X003586Y003945D01*
X003609Y003901D01*
X003628Y003855D01*
X003644Y003807D01*
X003656Y003758D01*
X003664Y003709D01*
X003668Y003659D01*
X003668Y003609D01*
X003664Y003559D01*
X003656Y003510D01*
X003644Y003461D01*
X003628Y003413D01*
X003609Y003367D01*
X003586Y003323D01*
X003559Y003280D01*
X003529Y003240D01*
X003497Y003202D01*
X003461Y003167D01*
X003422Y003135D01*
X003381Y003106D01*
X003338Y003080D01*
X003293Y003058D01*
X003247Y003040D01*
X003199Y003025D01*
X003150Y003014D01*
X003101Y003007D01*
X003051Y003004D01*
X003000Y003005D01*
X002951Y003010D01*
X002901Y003019D01*
X002853Y003032D01*
X002806Y003048D01*
X002760Y003069D01*
X002716Y003093D01*
X002674Y003120D01*
X002634Y003150D01*
X002597Y003184D01*
X002563Y003221D01*
X002531Y003260D01*
X002503Y003301D01*
X002478Y003345D01*
X002457Y003390D01*
X002440Y003437D01*
X002426Y003485D01*
X002416Y003534D01*
X002410Y003584D01*
X002408Y003634D01*
X024849Y003634D02*
X024851Y003684D01*
X024857Y003734D01*
X024867Y003783D01*
X024881Y003831D01*
X024898Y003878D01*
X024919Y003923D01*
X024944Y003967D01*
X024972Y004008D01*
X025004Y004047D01*
X025038Y004084D01*
X025075Y004118D01*
X025115Y004148D01*
X025157Y004175D01*
X025201Y004199D01*
X025247Y004220D01*
X025294Y004236D01*
X025342Y004249D01*
X025392Y004258D01*
X025441Y004263D01*
X025492Y004264D01*
X025542Y004261D01*
X025591Y004254D01*
X025640Y004243D01*
X025688Y004228D01*
X025734Y004210D01*
X025779Y004188D01*
X025822Y004162D01*
X025863Y004133D01*
X025902Y004101D01*
X025938Y004066D01*
X025970Y004028D01*
X026000Y003988D01*
X026027Y003945D01*
X026050Y003901D01*
X026069Y003855D01*
X026085Y003807D01*
X026097Y003758D01*
X026105Y003709D01*
X026109Y003659D01*
X026109Y003609D01*
X026105Y003559D01*
X026097Y003510D01*
X026085Y003461D01*
X026069Y003413D01*
X026050Y003367D01*
X026027Y003323D01*
X026000Y003280D01*
X025970Y003240D01*
X025938Y003202D01*
X025902Y003167D01*
X025863Y003135D01*
X025822Y003106D01*
X025779Y003080D01*
X025734Y003058D01*
X025688Y003040D01*
X025640Y003025D01*
X025591Y003014D01*
X025542Y003007D01*
X025492Y003004D01*
X025441Y003005D01*
X025392Y003010D01*
X025342Y003019D01*
X025294Y003032D01*
X025247Y003048D01*
X025201Y003069D01*
X025157Y003093D01*
X025115Y003120D01*
X025075Y003150D01*
X025038Y003184D01*
X025004Y003221D01*
X024972Y003260D01*
X024944Y003301D01*
X024919Y003345D01*
X024898Y003390D01*
X024881Y003437D01*
X024867Y003485D01*
X024857Y003534D01*
X024851Y003584D01*
X024849Y003634D01*
X024849Y035130D02*
X024851Y035180D01*
X024857Y035230D01*
X024867Y035279D01*
X024881Y035327D01*
X024898Y035374D01*
X024919Y035419D01*
X024944Y035463D01*
X024972Y035504D01*
X025004Y035543D01*
X025038Y035580D01*
X025075Y035614D01*
X025115Y035644D01*
X025157Y035671D01*
X025201Y035695D01*
X025247Y035716D01*
X025294Y035732D01*
X025342Y035745D01*
X025392Y035754D01*
X025441Y035759D01*
X025492Y035760D01*
X025542Y035757D01*
X025591Y035750D01*
X025640Y035739D01*
X025688Y035724D01*
X025734Y035706D01*
X025779Y035684D01*
X025822Y035658D01*
X025863Y035629D01*
X025902Y035597D01*
X025938Y035562D01*
X025970Y035524D01*
X026000Y035484D01*
X026027Y035441D01*
X026050Y035397D01*
X026069Y035351D01*
X026085Y035303D01*
X026097Y035254D01*
X026105Y035205D01*
X026109Y035155D01*
X026109Y035105D01*
X026105Y035055D01*
X026097Y035006D01*
X026085Y034957D01*
X026069Y034909D01*
X026050Y034863D01*
X026027Y034819D01*
X026000Y034776D01*
X025970Y034736D01*
X025938Y034698D01*
X025902Y034663D01*
X025863Y034631D01*
X025822Y034602D01*
X025779Y034576D01*
X025734Y034554D01*
X025688Y034536D01*
X025640Y034521D01*
X025591Y034510D01*
X025542Y034503D01*
X025492Y034500D01*
X025441Y034501D01*
X025392Y034506D01*
X025342Y034515D01*
X025294Y034528D01*
X025247Y034544D01*
X025201Y034565D01*
X025157Y034589D01*
X025115Y034616D01*
X025075Y034646D01*
X025038Y034680D01*
X025004Y034717D01*
X024972Y034756D01*
X024944Y034797D01*
X024919Y034841D01*
X024898Y034886D01*
X024881Y034933D01*
X024867Y034981D01*
X024857Y035030D01*
X024851Y035080D01*
X024849Y035130D01*
X002408Y035130D02*
X002410Y035180D01*
X002416Y035230D01*
X002426Y035279D01*
X002440Y035327D01*
X002457Y035374D01*
X002478Y035419D01*
X002503Y035463D01*
X002531Y035504D01*
X002563Y035543D01*
X002597Y035580D01*
X002634Y035614D01*
X002674Y035644D01*
X002716Y035671D01*
X002760Y035695D01*
X002806Y035716D01*
X002853Y035732D01*
X002901Y035745D01*
X002951Y035754D01*
X003000Y035759D01*
X003051Y035760D01*
X003101Y035757D01*
X003150Y035750D01*
X003199Y035739D01*
X003247Y035724D01*
X003293Y035706D01*
X003338Y035684D01*
X003381Y035658D01*
X003422Y035629D01*
X003461Y035597D01*
X003497Y035562D01*
X003529Y035524D01*
X003559Y035484D01*
X003586Y035441D01*
X003609Y035397D01*
X003628Y035351D01*
X003644Y035303D01*
X003656Y035254D01*
X003664Y035205D01*
X003668Y035155D01*
X003668Y035105D01*
X003664Y035055D01*
X003656Y035006D01*
X003644Y034957D01*
X003628Y034909D01*
X003609Y034863D01*
X003586Y034819D01*
X003559Y034776D01*
X003529Y034736D01*
X003497Y034698D01*
X003461Y034663D01*
X003422Y034631D01*
X003381Y034602D01*
X003338Y034576D01*
X003293Y034554D01*
X003247Y034536D01*
X003199Y034521D01*
X003150Y034510D01*
X003101Y034503D01*
X003051Y034500D01*
X003000Y034501D01*
X002951Y034506D01*
X002901Y034515D01*
X002853Y034528D01*
X002806Y034544D01*
X002760Y034565D01*
X002716Y034589D01*
X002674Y034616D01*
X002634Y034646D01*
X002597Y034680D01*
X002563Y034717D01*
X002531Y034756D01*
X002503Y034797D01*
X002478Y034841D01*
X002457Y034886D01*
X002440Y034933D01*
X002426Y034981D01*
X002416Y035030D01*
X002410Y035080D01*
X002408Y035130D01*
D11*
X008258Y034978D02*
X008258Y034478D01*
X008508Y034228D01*
X009008Y034228D01*
X009258Y034478D01*
X009258Y034978D01*
X009008Y035228D01*
X008508Y035228D01*
X008258Y034978D01*
X013456Y034880D02*
X013456Y035380D01*
X013706Y035630D01*
X014206Y035630D01*
X014456Y035380D01*
X014706Y035630D01*
X015206Y035630D01*
X015456Y035380D01*
X015456Y034880D01*
X015206Y034630D01*
X014706Y034630D01*
X014456Y034880D01*
X014206Y034630D01*
X013706Y034630D01*
X013456Y034880D01*
X014456Y034880D02*
X014456Y035380D01*
X010243Y023564D02*
X010243Y023457D01*
X010029Y023244D01*
X010029Y022923D01*
X010029Y023244D02*
X009815Y023457D01*
X009815Y023564D01*
X009598Y023350D02*
X009598Y022923D01*
X009598Y023244D02*
X009171Y023244D01*
X009171Y023350D02*
X009384Y023564D01*
X009598Y023350D01*
X009171Y023350D02*
X009171Y022923D01*
X008953Y022923D02*
X008526Y022923D01*
X008526Y023564D01*
X008309Y023564D02*
X007882Y023564D01*
X007882Y022923D01*
X008309Y022923D01*
X008095Y023244D02*
X007882Y023244D01*
X007664Y023244D02*
X007558Y023137D01*
X007237Y023137D01*
X007237Y022923D02*
X007237Y023564D01*
X007558Y023564D01*
X007664Y023457D01*
X007664Y023244D01*
X007451Y023137D02*
X007664Y022923D01*
X008961Y018564D02*
X010111Y018614D01*
X008961Y018564D02*
X008861Y018464D01*
X008861Y014764D01*
X008961Y014664D01*
X010111Y014614D01*
X010824Y012534D02*
X011038Y012534D01*
X011144Y012427D01*
X011144Y012000D01*
X011038Y011893D01*
X010824Y011893D01*
X010717Y012000D01*
X010717Y012427D01*
X010824Y012534D01*
X010931Y012107D02*
X011144Y011893D01*
X011362Y011893D02*
X011789Y012320D01*
X011789Y012427D01*
X011682Y012534D01*
X011469Y012534D01*
X011362Y012427D01*
X011362Y011893D02*
X011789Y011893D01*
X011682Y009854D02*
X011469Y009854D01*
X011362Y009747D01*
X011144Y009747D02*
X011144Y009320D01*
X011038Y009213D01*
X010824Y009213D01*
X010717Y009320D01*
X010717Y009747D01*
X010824Y009854D01*
X011038Y009854D01*
X011144Y009747D01*
X010931Y009427D02*
X011144Y009213D01*
X011362Y009320D02*
X011469Y009213D01*
X011682Y009213D01*
X011789Y009320D01*
X011789Y009427D01*
X011682Y009534D01*
X011575Y009534D01*
X011682Y009534D02*
X011789Y009640D01*
X011789Y009747D01*
X011682Y009854D01*
X010418Y007013D02*
X009818Y007013D01*
X009801Y007011D01*
X009784Y007007D01*
X009768Y007000D01*
X009754Y006990D01*
X009741Y006977D01*
X009731Y006963D01*
X009724Y006947D01*
X009720Y006930D01*
X009718Y006913D01*
X009718Y005813D01*
X009720Y005796D01*
X009724Y005779D01*
X009731Y005763D01*
X009741Y005749D01*
X009754Y005736D01*
X009768Y005726D01*
X009784Y005719D01*
X009801Y005715D01*
X009818Y005713D01*
X010418Y005713D01*
X010435Y005715D01*
X010452Y005719D01*
X010468Y005726D01*
X010482Y005736D01*
X010495Y005749D01*
X010505Y005763D01*
X010512Y005779D01*
X010516Y005796D01*
X010518Y005813D01*
X010518Y006913D01*
X010516Y006930D01*
X010512Y006947D01*
X010505Y006963D01*
X010495Y006977D01*
X010482Y006990D01*
X010468Y007000D01*
X010452Y007007D01*
X010435Y007011D01*
X010418Y007013D01*
X009140Y004624D02*
X009140Y003983D01*
X008713Y004624D01*
X008713Y003983D01*
X008495Y003983D02*
X008495Y004410D01*
X008282Y004624D01*
X008068Y004410D01*
X008068Y003983D01*
X008068Y004304D02*
X008495Y004304D01*
X007851Y004624D02*
X007424Y004624D01*
X007424Y003983D01*
X007424Y004304D02*
X007637Y004304D01*
X012617Y006280D02*
X012724Y006173D01*
X012938Y006173D01*
X013044Y006280D01*
X013262Y006280D02*
X013369Y006173D01*
X013582Y006173D01*
X013689Y006280D01*
X013689Y006387D01*
X013582Y006494D01*
X013475Y006494D01*
X013582Y006494D02*
X013689Y006600D01*
X013689Y006707D01*
X013582Y006814D01*
X013369Y006814D01*
X013262Y006707D01*
X013044Y006707D02*
X012938Y006814D01*
X012724Y006814D01*
X012617Y006707D01*
X012617Y006280D01*
X013717Y004654D02*
X014144Y004654D01*
X013931Y004867D02*
X013931Y004440D01*
X016057Y006683D02*
X016057Y007324D01*
X016378Y007324D01*
X016484Y007217D01*
X016484Y007004D01*
X016378Y006897D01*
X016057Y006897D01*
X016271Y006897D02*
X016484Y006683D01*
X016702Y006683D02*
X017129Y006683D01*
X017346Y006790D02*
X017453Y006683D01*
X017667Y006683D01*
X017773Y006790D01*
X017773Y007004D01*
X017560Y007004D01*
X017773Y007217D02*
X017667Y007324D01*
X017453Y007324D01*
X017346Y007217D01*
X017346Y006790D01*
X017129Y007324D02*
X016702Y007324D01*
X016702Y006683D01*
X016702Y007004D02*
X016915Y007004D01*
X016778Y010013D02*
X016564Y010013D01*
X016457Y010120D01*
X016457Y010547D01*
X016564Y010654D01*
X016778Y010654D01*
X016884Y010547D01*
X017102Y010334D02*
X017529Y010334D01*
X017422Y010654D02*
X017422Y010013D01*
X017102Y010334D02*
X017422Y010654D01*
X016884Y010120D02*
X016778Y010013D01*
X008709Y016323D02*
X008282Y016323D01*
X008495Y016323D02*
X008495Y016964D01*
X008282Y016750D01*
X008064Y016857D02*
X008064Y016430D01*
X007958Y016323D01*
X007744Y016323D01*
X007637Y016430D01*
X007637Y016857D01*
X007744Y016964D01*
X007958Y016964D01*
X008064Y016857D01*
X007851Y016537D02*
X008064Y016323D01*
X013258Y021722D02*
X013258Y022222D01*
X013508Y022472D01*
X014008Y022472D01*
X014258Y022222D01*
X014258Y021722D01*
X014008Y021472D01*
X013508Y021472D01*
X013258Y021722D01*
D12*
X013247Y020684D02*
X013477Y020684D01*
X013554Y020607D01*
X013554Y020454D01*
X013477Y020377D01*
X013247Y020377D01*
X013247Y020223D02*
X013247Y020684D01*
X013401Y020377D02*
X013554Y020223D01*
X013708Y020223D02*
X013708Y020300D01*
X014015Y020607D01*
X014015Y020684D01*
X013708Y020684D01*
X013861Y019984D02*
X013861Y019523D01*
X013708Y019523D02*
X014015Y019523D01*
X014168Y019523D02*
X014475Y019830D01*
X014475Y019907D01*
X014398Y019984D01*
X014245Y019984D01*
X014168Y019907D01*
X013861Y019984D02*
X013708Y019830D01*
X013554Y019754D02*
X013477Y019677D01*
X013247Y019677D01*
X013247Y019523D02*
X013247Y019984D01*
X013477Y019984D01*
X013554Y019907D01*
X013554Y019754D01*
X013401Y019677D02*
X013554Y019523D01*
X013477Y019284D02*
X013554Y019207D01*
X013554Y019054D01*
X013477Y018977D01*
X013247Y018977D01*
X013247Y018823D02*
X013247Y019284D01*
X013477Y019284D01*
X013708Y019130D02*
X013861Y019284D01*
X013861Y018823D01*
X013708Y018823D02*
X014015Y018823D01*
X014168Y019054D02*
X014475Y019054D01*
X014398Y019284D02*
X014398Y018823D01*
X014168Y019054D02*
X014398Y019284D01*
X014475Y019523D02*
X014168Y019523D01*
X013554Y018823D02*
X013401Y018977D01*
X013477Y018384D02*
X013554Y018307D01*
X013554Y018000D01*
X013477Y017923D01*
X013324Y017923D01*
X013247Y018000D01*
X013247Y018307D01*
X013324Y018384D01*
X013477Y018384D01*
X013401Y018077D02*
X013554Y017923D01*
X013708Y018000D02*
X013784Y017923D01*
X013938Y017923D01*
X014015Y018000D01*
X014015Y018077D01*
X013938Y018154D01*
X013708Y018154D01*
X013708Y018000D01*
X013708Y018154D02*
X013861Y018307D01*
X014015Y018384D01*
X013861Y017184D02*
X013708Y017030D01*
X013554Y016954D02*
X013477Y016877D01*
X013247Y016877D01*
X013247Y016723D02*
X013247Y017184D01*
X013477Y017184D01*
X013554Y017107D01*
X013554Y016954D01*
X013401Y016877D02*
X013554Y016723D01*
X013708Y016723D02*
X014015Y016723D01*
X013861Y016723D02*
X013861Y017184D01*
X014168Y017107D02*
X014245Y017184D01*
X014398Y017184D01*
X014475Y017107D01*
X014475Y017030D01*
X014398Y016954D01*
X014475Y016877D01*
X014475Y016800D01*
X014398Y016723D01*
X014245Y016723D01*
X014168Y016800D01*
X014322Y016954D02*
X014398Y016954D01*
X014475Y016104D02*
X014322Y016027D01*
X014168Y015874D01*
X014398Y015874D01*
X014475Y015797D01*
X014475Y015720D01*
X014398Y015643D01*
X014245Y015643D01*
X014168Y015720D01*
X014168Y015874D01*
X014015Y015643D02*
X013708Y015643D01*
X013861Y015643D02*
X013861Y016104D01*
X013708Y015950D01*
X013554Y015874D02*
X013477Y015797D01*
X013247Y015797D01*
X013247Y015643D02*
X013247Y016104D01*
X013477Y016104D01*
X013554Y016027D01*
X013554Y015874D01*
X013401Y015797D02*
X013554Y015643D01*
X013477Y015404D02*
X013554Y015327D01*
X013554Y015174D01*
X013477Y015097D01*
X013247Y015097D01*
X013247Y014943D02*
X013247Y015404D01*
X013477Y015404D01*
X013708Y015250D02*
X013861Y015404D01*
X013861Y014943D01*
X013708Y014943D02*
X014015Y014943D01*
X014168Y015020D02*
X014245Y014943D01*
X014398Y014943D01*
X014475Y015020D01*
X014475Y015174D01*
X014398Y015250D01*
X014322Y015250D01*
X014168Y015174D01*
X014168Y015404D01*
X014475Y015404D01*
X014398Y014784D02*
X014245Y014784D01*
X014168Y014707D01*
X014168Y014630D01*
X014245Y014554D01*
X014398Y014554D01*
X014475Y014477D01*
X014475Y014400D01*
X014398Y014323D01*
X014245Y014323D01*
X014168Y014400D01*
X014168Y014477D01*
X014245Y014554D01*
X014398Y014554D02*
X014475Y014630D01*
X014475Y014707D01*
X014398Y014784D01*
X013861Y014784D02*
X013861Y014323D01*
X013708Y014323D02*
X014015Y014323D01*
X014168Y014054D02*
X014475Y014054D01*
X014475Y013977D01*
X014168Y013670D01*
X014168Y013593D01*
X014015Y013593D02*
X013708Y013593D01*
X013861Y013593D02*
X013861Y014054D01*
X013708Y013900D01*
X013554Y013824D02*
X013477Y013747D01*
X013247Y013747D01*
X013247Y013593D02*
X013247Y014054D01*
X013477Y014054D01*
X013554Y013977D01*
X013554Y013824D01*
X013401Y013747D02*
X013554Y013593D01*
X013477Y013354D02*
X013554Y013277D01*
X013554Y013124D01*
X013477Y013047D01*
X013247Y013047D01*
X013247Y012893D02*
X013247Y013354D01*
X013477Y013354D01*
X013708Y013277D02*
X013708Y013200D01*
X013784Y013124D01*
X013938Y013124D01*
X014015Y013047D01*
X014015Y012970D01*
X013938Y012893D01*
X013784Y012893D01*
X013708Y012970D01*
X013708Y013047D01*
X013784Y013124D01*
X013938Y013124D02*
X014015Y013200D01*
X014015Y013277D01*
X013938Y013354D01*
X013784Y013354D01*
X013708Y013277D01*
X013401Y013047D02*
X013554Y012893D01*
X013477Y012684D02*
X013554Y012607D01*
X013554Y012454D01*
X013477Y012377D01*
X013247Y012377D01*
X013247Y012223D02*
X013247Y012684D01*
X013477Y012684D01*
X013708Y012607D02*
X013784Y012684D01*
X013938Y012684D01*
X014015Y012607D01*
X014015Y012530D01*
X013708Y012223D01*
X014015Y012223D01*
X013861Y011984D02*
X013708Y011830D01*
X013554Y011754D02*
X013477Y011677D01*
X013247Y011677D01*
X013247Y011523D02*
X013247Y011984D01*
X013477Y011984D01*
X013554Y011907D01*
X013554Y011754D01*
X013401Y011677D02*
X013554Y011523D01*
X013708Y011523D02*
X014015Y011523D01*
X013861Y011523D02*
X013861Y011984D01*
X013554Y012223D02*
X013401Y012377D01*
X014582Y010873D02*
X016332Y010873D01*
X016332Y009773D01*
X014582Y009773D01*
X014582Y010873D01*
X015927Y013720D02*
X016234Y014027D01*
X016081Y014027D02*
X016081Y013720D01*
X016234Y013720D02*
X015927Y014027D01*
X015927Y013874D02*
X016234Y013874D01*
X016234Y015030D02*
X015927Y015337D01*
X015927Y015184D02*
X016234Y015184D01*
X016234Y015337D02*
X015927Y015030D01*
X016081Y015030D02*
X016081Y015337D01*
X013861Y014784D02*
X013708Y014630D01*
X013554Y014554D02*
X013477Y014477D01*
X013247Y014477D01*
X013247Y014323D02*
X013247Y014784D01*
X013477Y014784D01*
X013554Y014707D01*
X013554Y014554D01*
X013401Y014477D02*
X013554Y014323D01*
X013554Y014943D02*
X013401Y015097D01*
X015927Y019630D02*
X016234Y019937D01*
X016081Y019937D02*
X016081Y019630D01*
X016234Y019630D02*
X015927Y019937D01*
X015927Y019784D02*
X016234Y019784D01*
X015558Y021293D02*
X015328Y021293D01*
X015328Y021754D01*
X015558Y021754D01*
X015635Y021677D01*
X015635Y021370D01*
X015558Y021293D01*
X015175Y021293D02*
X014868Y021293D01*
X014868Y021754D01*
X015175Y021754D01*
X015021Y021524D02*
X014868Y021524D01*
X014714Y021524D02*
X014637Y021447D01*
X014407Y021447D01*
X014407Y021293D02*
X014407Y021754D01*
X014637Y021754D01*
X014714Y021677D01*
X014714Y021524D01*
X014561Y021447D02*
X014714Y021293D01*
X014868Y022043D02*
X015175Y022043D01*
X015328Y022043D02*
X015328Y022504D01*
X015175Y022504D02*
X014868Y022504D01*
X014868Y022043D01*
X014868Y022274D02*
X015021Y022274D01*
X014714Y022274D02*
X014637Y022197D01*
X014407Y022197D01*
X014407Y022043D02*
X014407Y022504D01*
X014637Y022504D01*
X014714Y022427D01*
X014714Y022274D01*
X015328Y022043D02*
X015635Y022043D01*
X014115Y022843D02*
X013808Y022843D01*
X014115Y023150D01*
X014115Y023227D01*
X014038Y023304D01*
X013884Y023304D01*
X013808Y023227D01*
X013654Y023227D02*
X013577Y023304D01*
X013347Y023304D01*
X013347Y022843D01*
X013577Y022843D01*
X013654Y022920D01*
X013654Y023227D01*
X015057Y023890D02*
X015134Y023813D01*
X015287Y023813D01*
X015364Y023890D01*
X015364Y024197D01*
X015287Y024274D01*
X015134Y024274D01*
X015057Y024197D01*
X015057Y023890D01*
X015211Y023967D02*
X015364Y023813D01*
X015518Y023890D02*
X015594Y023813D01*
X015748Y023813D01*
X015825Y023890D01*
X015825Y024044D01*
X015748Y024120D01*
X015671Y024120D01*
X015518Y024044D01*
X015518Y024274D01*
X015825Y024274D01*
X014475Y026573D02*
X014168Y026573D01*
X014015Y026573D02*
X013708Y026573D01*
X013861Y026573D02*
X013861Y027034D01*
X013708Y026880D01*
X013554Y026804D02*
X013477Y026727D01*
X013247Y026727D01*
X013247Y026573D02*
X013247Y027034D01*
X013477Y027034D01*
X013554Y026957D01*
X013554Y026804D01*
X013401Y026727D02*
X013554Y026573D01*
X013477Y026334D02*
X013554Y026257D01*
X013554Y026104D01*
X013477Y026027D01*
X013247Y026027D01*
X013247Y025873D02*
X013247Y026334D01*
X013477Y026334D01*
X013401Y026027D02*
X013554Y025873D01*
X013708Y025950D02*
X013784Y025873D01*
X013938Y025873D01*
X014015Y025950D01*
X014015Y026027D01*
X013938Y026104D01*
X013708Y026104D01*
X013708Y025950D01*
X013708Y026104D02*
X013861Y026257D01*
X014015Y026334D01*
X014322Y026573D02*
X014322Y027034D01*
X014168Y026880D01*
X013938Y027273D02*
X013784Y027273D01*
X013708Y027350D01*
X013708Y027504D02*
X013861Y027580D01*
X013938Y027580D01*
X014015Y027504D01*
X014015Y027350D01*
X013938Y027273D01*
X013708Y027504D02*
X013708Y027734D01*
X014015Y027734D01*
X013554Y027657D02*
X013554Y027504D01*
X013477Y027427D01*
X013247Y027427D01*
X013247Y027273D02*
X013247Y027734D01*
X013477Y027734D01*
X013554Y027657D01*
X013401Y027427D02*
X013554Y027273D01*
X013585Y029693D02*
X013892Y029693D01*
X014046Y029693D02*
X014046Y030154D01*
X014199Y030000D01*
X014353Y030154D01*
X014353Y029693D01*
X014506Y029693D02*
X014506Y030154D01*
X014736Y030154D01*
X014813Y030077D01*
X014813Y029924D01*
X014736Y029847D01*
X014506Y029847D01*
X014353Y030443D02*
X014353Y030750D01*
X014199Y030904D01*
X014046Y030750D01*
X014046Y030443D01*
X013892Y030443D02*
X013585Y030443D01*
X013585Y030904D01*
X013892Y030904D01*
X013739Y030674D02*
X013585Y030674D01*
X013432Y030674D02*
X013125Y030674D01*
X013125Y030904D02*
X013125Y030443D01*
X013125Y030154D02*
X013432Y030154D01*
X013585Y030154D02*
X013585Y029693D01*
X013585Y029924D02*
X013739Y029924D01*
X013892Y030154D02*
X013585Y030154D01*
X013278Y030154D02*
X013278Y029693D01*
X013432Y030443D02*
X013432Y030904D01*
X014046Y030674D02*
X014353Y030674D01*
X014506Y030904D02*
X014813Y030904D01*
X014660Y030904D02*
X014660Y030443D01*
X014966Y030443D02*
X014966Y030904D01*
X015273Y030904D01*
X015427Y030904D02*
X015657Y030904D01*
X015734Y030827D01*
X015734Y030674D01*
X015657Y030597D01*
X015427Y030597D01*
X015580Y030597D02*
X015734Y030443D01*
X015427Y030443D02*
X015427Y030904D01*
X015120Y030674D02*
X014966Y030674D01*
X014966Y030443D02*
X015273Y030443D01*
X017207Y030770D02*
X017284Y030693D01*
X017437Y030693D01*
X017514Y030770D01*
X017668Y030693D02*
X017668Y031154D01*
X017898Y031154D01*
X017975Y031077D01*
X017975Y030924D01*
X017898Y030847D01*
X017668Y030847D01*
X017514Y031077D02*
X017437Y031154D01*
X017284Y031154D01*
X017207Y031077D01*
X017207Y030770D01*
X018128Y030693D02*
X018435Y030693D01*
X018282Y030693D02*
X018282Y031154D01*
X018128Y031000D01*
X018423Y031803D02*
X018577Y031803D01*
X018653Y031880D01*
X018807Y031803D02*
X019114Y032110D01*
X019114Y032187D01*
X019037Y032264D01*
X018884Y032264D01*
X018807Y032187D01*
X018653Y032187D02*
X018577Y032264D01*
X018423Y032264D01*
X018346Y032187D01*
X018346Y031880D01*
X018423Y031803D01*
X018807Y031803D02*
X019114Y031803D01*
X019307Y032328D02*
X018207Y032328D01*
X018207Y034078D01*
X019307Y034078D01*
X019307Y032328D01*
X020147Y032920D02*
X020147Y033227D01*
X020224Y033304D01*
X020377Y033304D01*
X020454Y033227D01*
X020608Y033150D02*
X020761Y033304D01*
X020761Y032843D01*
X020608Y032843D02*
X020915Y032843D01*
X020454Y032920D02*
X020377Y032843D01*
X020224Y032843D01*
X020147Y032920D01*
X022077Y033613D02*
X022231Y033613D01*
X022154Y033613D02*
X022154Y034074D01*
X022077Y034074D02*
X022231Y034074D01*
X022384Y033997D02*
X022384Y033690D01*
X022461Y033613D01*
X022614Y033613D01*
X022691Y033690D01*
X022845Y033613D02*
X023152Y033920D01*
X023152Y033997D01*
X023075Y034074D01*
X022921Y034074D01*
X022845Y033997D01*
X022691Y033997D02*
X022614Y034074D01*
X022461Y034074D01*
X022384Y033997D01*
X022845Y033613D02*
X023152Y033613D01*
X025417Y032894D02*
X025417Y032433D01*
X025417Y032344D02*
X025647Y032344D01*
X025724Y032267D01*
X025724Y032114D01*
X025647Y032037D01*
X025417Y032037D01*
X025417Y031883D02*
X025417Y032344D01*
X025417Y032587D02*
X025647Y032587D01*
X025724Y032664D01*
X025724Y032817D01*
X025647Y032894D01*
X025417Y032894D01*
X025571Y032587D02*
X025724Y032433D01*
X025878Y032510D02*
X025954Y032433D01*
X026108Y032433D01*
X026185Y032510D01*
X026185Y032587D01*
X026108Y032664D01*
X026031Y032664D01*
X026108Y032664D02*
X026185Y032740D01*
X026185Y032817D01*
X026108Y032894D01*
X025954Y032894D01*
X025878Y032817D01*
X025954Y032344D02*
X025878Y032267D01*
X025878Y032190D01*
X025954Y032114D01*
X026185Y032114D01*
X026185Y032267D02*
X026108Y032344D01*
X025954Y032344D01*
X026185Y032267D02*
X026185Y031960D01*
X026108Y031883D01*
X025954Y031883D01*
X025878Y031960D01*
X025724Y031883D02*
X025571Y032037D01*
X025647Y031434D02*
X025724Y031357D01*
X025724Y031204D01*
X025647Y031127D01*
X025417Y031127D01*
X025417Y030973D02*
X025417Y031434D01*
X025647Y031434D01*
X025571Y031127D02*
X025724Y030973D01*
X025878Y031204D02*
X026185Y031204D01*
X026108Y031434D02*
X026108Y030973D01*
X025878Y031204D02*
X026108Y031434D01*
X025317Y028302D02*
X025317Y027995D01*
X025010Y028302D01*
X024934Y028302D01*
X024857Y028225D01*
X024857Y028072D01*
X024934Y027995D01*
X024857Y027688D02*
X025317Y027688D01*
X025317Y027535D02*
X025317Y027842D01*
X025010Y027535D02*
X024857Y027688D01*
X025087Y027381D02*
X025087Y027075D01*
X025087Y026921D02*
X025164Y026844D01*
X025164Y026614D01*
X025317Y026614D02*
X024857Y026614D01*
X024857Y026844D01*
X024934Y026921D01*
X025087Y026921D01*
X025164Y026461D02*
X025087Y026384D01*
X025087Y026230D01*
X025010Y026154D01*
X024934Y026154D01*
X024857Y026230D01*
X024857Y026384D01*
X024934Y026461D01*
X025164Y026461D02*
X025241Y026461D01*
X025317Y026384D01*
X025317Y026230D01*
X025241Y026154D01*
X025317Y026000D02*
X025317Y025693D01*
X024857Y025693D01*
X024857Y026000D01*
X025087Y025847D02*
X025087Y025693D01*
X025067Y020634D02*
X024914Y020634D01*
X024837Y020557D01*
X024837Y020250D01*
X024914Y020173D01*
X025067Y020173D01*
X025144Y020250D01*
X025298Y020173D02*
X025298Y020634D01*
X025528Y020634D01*
X025605Y020557D01*
X025605Y020404D01*
X025528Y020327D01*
X025298Y020327D01*
X025144Y020557D02*
X025067Y020634D01*
X025758Y020557D02*
X025835Y020634D01*
X025988Y020634D01*
X026065Y020557D01*
X026065Y020480D01*
X025758Y020173D01*
X026065Y020173D01*
X025317Y018935D02*
X025317Y018628D01*
X025010Y018935D01*
X024934Y018935D01*
X024857Y018858D01*
X024857Y018704D01*
X024934Y018628D01*
X024934Y018474D02*
X025241Y018167D01*
X025317Y018244D01*
X025317Y018397D01*
X025241Y018474D01*
X024934Y018474D01*
X024857Y018397D01*
X024857Y018244D01*
X024934Y018167D01*
X025241Y018167D01*
X025087Y018014D02*
X025087Y017707D01*
X024857Y017553D02*
X025317Y017553D01*
X025317Y017246D02*
X024857Y017246D01*
X025010Y017400D01*
X024857Y017553D01*
X024934Y017093D02*
X024857Y017016D01*
X024857Y016863D01*
X024934Y016786D01*
X025241Y016786D01*
X025317Y016863D01*
X025317Y017016D01*
X025241Y017093D01*
X024934Y017093D01*
X024934Y016633D02*
X024857Y016556D01*
X024857Y016402D01*
X024934Y016326D01*
X025241Y016326D01*
X025317Y016402D01*
X025317Y016556D01*
X025241Y016633D01*
X024934Y016633D01*
X024934Y016172D02*
X025087Y016172D01*
X025164Y016095D01*
X025164Y015865D01*
X025317Y015865D02*
X024857Y015865D01*
X024857Y016095D01*
X024934Y016172D01*
X025164Y016019D02*
X025317Y016172D01*
X025317Y015712D02*
X024857Y015712D01*
X024857Y015405D02*
X025317Y015405D01*
X025164Y015558D01*
X025317Y015712D01*
X025087Y015251D02*
X025087Y014945D01*
X025087Y014791D02*
X025164Y014714D01*
X025164Y014484D01*
X025317Y014484D02*
X024857Y014484D01*
X024857Y014714D01*
X024934Y014791D01*
X025087Y014791D01*
X025164Y014331D02*
X025241Y014331D01*
X025317Y014254D01*
X025317Y014100D01*
X025241Y014024D01*
X025317Y013870D02*
X025317Y013563D01*
X024857Y013563D01*
X024857Y013870D01*
X024934Y014024D02*
X025010Y014024D01*
X025087Y014100D01*
X025087Y014254D01*
X025164Y014331D01*
X024934Y014331D02*
X024857Y014254D01*
X024857Y014100D01*
X024934Y014024D01*
X025087Y013717D02*
X025087Y013563D01*
X017397Y003104D02*
X017473Y003027D01*
X017166Y002720D01*
X017243Y002643D01*
X017397Y002643D01*
X017473Y002720D01*
X017473Y003027D01*
X017397Y003104D02*
X017243Y003104D01*
X017166Y003027D01*
X017166Y002720D01*
X017013Y002720D02*
X017013Y002643D01*
X016936Y002643D01*
X016936Y002720D01*
X017013Y002720D01*
X016783Y002643D02*
X016476Y002643D01*
X016783Y002950D01*
X016783Y003027D01*
X016706Y003104D01*
X016552Y003104D01*
X016476Y003027D01*
X016322Y002950D02*
X016246Y002950D01*
X016092Y002797D01*
X016092Y002950D02*
X016092Y002643D01*
X015939Y002797D02*
X015632Y002797D01*
X015632Y002874D02*
X015708Y002950D01*
X015862Y002950D01*
X015939Y002874D01*
X015939Y002797D01*
X015862Y002643D02*
X015708Y002643D01*
X015632Y002720D01*
X015632Y002874D01*
X015478Y002950D02*
X015325Y002643D01*
X015171Y002950D01*
X014557Y002874D02*
X014557Y002643D01*
X014557Y002874D02*
X014481Y002950D01*
X014250Y002950D01*
X014250Y002643D01*
X014097Y002643D02*
X013944Y002643D01*
X014020Y002643D02*
X014020Y002950D01*
X013944Y002950D01*
X014020Y003104D02*
X014020Y003180D01*
X013790Y003104D02*
X013790Y002643D01*
X013483Y003104D01*
X013483Y002643D01*
X013330Y002643D02*
X013330Y002874D01*
X013253Y002950D01*
X013023Y002950D01*
X013023Y002643D01*
X012869Y002643D02*
X012716Y002643D01*
X012793Y002643D02*
X012793Y002950D01*
X012716Y002950D01*
X012793Y003104D02*
X012793Y003180D01*
X012562Y003104D02*
X012562Y002643D01*
X012255Y003104D01*
X012255Y002643D01*
X012102Y002874D02*
X011795Y002874D01*
X011642Y002874D02*
X011335Y002874D01*
X011565Y003104D01*
X011565Y002643D01*
X011181Y002643D02*
X010874Y002950D01*
X010721Y002874D02*
X010414Y002874D01*
X010644Y003104D01*
X010644Y002643D01*
X010874Y002643D02*
X011181Y002950D01*
X010260Y002874D02*
X009953Y002874D01*
X009800Y002950D02*
X009800Y003027D01*
X009723Y003104D01*
X009493Y003104D01*
X009493Y002643D01*
X009723Y002643D01*
X009800Y002720D01*
X009800Y002797D01*
X009723Y002874D01*
X009493Y002874D01*
X009340Y003027D02*
X009263Y003104D01*
X009109Y003104D01*
X009033Y003027D01*
X009033Y002720D01*
X009109Y002643D01*
X009263Y002643D01*
X009340Y002720D01*
X009723Y002874D02*
X009800Y002950D01*
X008879Y002874D02*
X008803Y002797D01*
X008572Y002797D01*
X008419Y002797D02*
X008189Y002797D01*
X008112Y002720D01*
X008189Y002643D01*
X008419Y002643D01*
X008419Y002874D01*
X008342Y002950D01*
X008189Y002950D01*
X007958Y002950D02*
X007958Y002567D01*
X007882Y002490D01*
X007805Y002490D01*
X007652Y002643D02*
X007652Y002874D01*
X007575Y002950D01*
X007345Y002950D01*
X007345Y002643D01*
X007191Y002643D02*
X007038Y002643D01*
X007114Y002643D02*
X007114Y002950D01*
X007038Y002950D01*
X007114Y003104D02*
X007114Y003180D01*
X006884Y003104D02*
X006884Y002643D01*
X006577Y003104D01*
X006577Y002643D01*
X007958Y003104D02*
X007958Y003180D01*
X008572Y003104D02*
X008572Y002643D01*
X008879Y002874D02*
X008879Y003027D01*
X008803Y003104D01*
X008572Y003104D01*
X009974Y004753D02*
X010281Y004753D01*
X010357Y004829D01*
X010357Y004983D01*
X010281Y005059D01*
X009974Y005059D01*
X009897Y004983D01*
X009897Y004829D01*
X009974Y004753D01*
X009897Y005213D02*
X010357Y005520D01*
X009897Y005520D01*
X009897Y005213D02*
X010357Y005213D01*
X009136Y012273D02*
X008982Y012427D01*
X009059Y012427D02*
X008829Y012427D01*
X008829Y012273D02*
X008829Y012734D01*
X009059Y012734D01*
X009136Y012657D01*
X009136Y012504D01*
X009059Y012427D01*
X008675Y012273D02*
X008368Y012273D01*
X008368Y012734D01*
X008675Y012734D01*
X008522Y012504D02*
X008368Y012504D01*
X008215Y012734D02*
X008215Y012273D01*
X008062Y012427D01*
X007908Y012273D01*
X007908Y012734D01*
X007755Y012657D02*
X007755Y012350D01*
X007678Y012273D01*
X007524Y012273D01*
X007448Y012350D01*
X007448Y012657D01*
X007524Y012734D01*
X007678Y012734D01*
X007755Y012657D01*
X007755Y013023D02*
X007448Y013023D01*
X007448Y013484D01*
X007755Y013484D01*
X007908Y013330D02*
X007908Y013023D01*
X007908Y013254D02*
X008215Y013254D01*
X008215Y013330D02*
X008215Y013023D01*
X008522Y013023D02*
X008522Y013484D01*
X008675Y013484D02*
X008368Y013484D01*
X008215Y013330D02*
X008062Y013484D01*
X007908Y013330D01*
X007601Y013254D02*
X007448Y013254D01*
X007294Y013254D02*
X006987Y013254D01*
X006987Y013484D02*
X006987Y013023D01*
X006987Y012734D02*
X007217Y012734D01*
X007294Y012657D01*
X007294Y012504D01*
X007217Y012427D01*
X006987Y012427D01*
X006987Y012273D02*
X006987Y012734D01*
X007294Y013023D02*
X007294Y013484D01*
X008829Y013484D02*
X008829Y013023D01*
X009136Y013023D01*
X009289Y013023D02*
X009289Y013484D01*
X009519Y013484D01*
X009596Y013407D01*
X009596Y013254D01*
X009519Y013177D01*
X009289Y013177D01*
X009443Y013177D02*
X009596Y013023D01*
X009136Y013484D02*
X008829Y013484D01*
X008829Y013254D02*
X008982Y013254D01*
X008947Y019993D02*
X008947Y020454D01*
X008947Y020224D02*
X009254Y020224D01*
X009408Y020224D02*
X009561Y020224D01*
X009408Y020454D02*
X009408Y019993D01*
X009715Y019993D01*
X009868Y019993D02*
X009868Y020300D01*
X010022Y020454D01*
X010175Y020300D01*
X010175Y019993D01*
X010175Y020224D02*
X009868Y020224D01*
X009715Y020454D02*
X009408Y020454D01*
X009254Y020454D02*
X009254Y019993D01*
X010328Y020454D02*
X010635Y020454D01*
X010482Y020454D02*
X010482Y019993D01*
X010789Y020070D02*
X010866Y019993D01*
X011019Y019993D01*
X011096Y020070D01*
X011096Y020147D01*
X011019Y020224D01*
X010866Y020224D01*
X010789Y020300D01*
X010789Y020377D01*
X010866Y020454D01*
X011019Y020454D01*
X011096Y020377D01*
X011249Y020454D02*
X011403Y020454D01*
X011326Y020454D02*
X011326Y019993D01*
X011249Y019993D02*
X011403Y019993D01*
X011556Y019993D02*
X011556Y020454D01*
X011863Y019993D01*
X011863Y020454D01*
X012017Y020454D02*
X012017Y019993D01*
X012017Y020147D02*
X012323Y020454D01*
X012093Y020224D02*
X012323Y019993D01*
X004068Y030803D02*
X004068Y031264D01*
X003838Y031034D01*
X004145Y031034D01*
X003684Y031187D02*
X003684Y030880D01*
X003607Y030803D01*
X003454Y030803D01*
X003377Y030880D01*
X003377Y031187D01*
X003454Y031264D01*
X003607Y031264D01*
X003684Y031187D01*
X003531Y030957D02*
X003684Y030803D01*
X003728Y032473D02*
X003575Y032473D01*
X003498Y032550D01*
X003805Y032857D01*
X003805Y032550D01*
X003728Y032473D01*
X003498Y032550D02*
X003498Y032857D01*
X003575Y032934D01*
X003728Y032934D01*
X003805Y032857D01*
X003345Y032473D02*
X003038Y032473D01*
X003191Y032473D02*
X003191Y032934D01*
X003038Y032780D01*
X002884Y032704D02*
X002884Y032857D01*
X002807Y032934D01*
X002577Y032934D01*
X002577Y032473D01*
X002577Y032627D02*
X002807Y032627D01*
X002884Y032704D01*
X002731Y032627D02*
X002884Y032473D01*
X005337Y033193D02*
X005567Y033193D01*
X005644Y033270D01*
X005644Y033577D01*
X005567Y033654D01*
X005337Y033654D01*
X005337Y033193D01*
X005798Y033193D02*
X006105Y033193D01*
X005951Y033193D02*
X005951Y033654D01*
X005798Y033500D01*
X009667Y034173D02*
X009897Y034173D01*
X009974Y034250D01*
X009974Y034327D01*
X009897Y034404D01*
X009667Y034404D01*
X009667Y034634D02*
X009897Y034634D01*
X009974Y034557D01*
X009974Y034480D01*
X009897Y034404D01*
X009667Y034173D02*
X009667Y034634D01*
X009667Y034923D02*
X009667Y035384D01*
X009897Y035384D01*
X009974Y035307D01*
X009974Y035154D01*
X009897Y035077D01*
X009667Y035077D01*
X010128Y035154D02*
X010281Y035154D01*
X010435Y035384D02*
X010128Y035384D01*
X010128Y034923D01*
X010435Y034923D01*
X010588Y034923D02*
X010588Y035384D01*
X010588Y034923D02*
X010895Y034923D01*
X010895Y034634D02*
X010588Y034327D01*
X010665Y034404D02*
X010895Y034173D01*
X010588Y034173D02*
X010588Y034634D01*
X010435Y034173D02*
X010128Y034173D01*
X010128Y034634D01*
X011927Y035773D02*
X012081Y035927D01*
X012234Y035773D01*
X012234Y036234D01*
X012388Y036234D02*
X012388Y035773D01*
X012695Y035773D01*
X012848Y035773D02*
X013155Y035773D01*
X013308Y035773D02*
X013615Y035773D01*
X013769Y035697D02*
X014076Y035697D01*
X014383Y035773D02*
X014383Y036234D01*
X014536Y036234D02*
X014229Y036234D01*
X014690Y036234D02*
X014690Y035773D01*
X014997Y035773D01*
X015150Y035773D02*
X015150Y036234D01*
X015303Y036080D01*
X015457Y036234D01*
X015457Y035773D01*
X015610Y035773D02*
X015610Y036234D01*
X015841Y036234D01*
X015917Y036157D01*
X015917Y036004D01*
X015841Y035927D01*
X015610Y035927D01*
X014997Y036234D02*
X014690Y036234D01*
X014690Y036004D02*
X014843Y036004D01*
X013308Y036234D02*
X013308Y035773D01*
X012848Y035773D02*
X012848Y036234D01*
X012695Y036234D02*
X012388Y036234D01*
X012388Y036004D02*
X012541Y036004D01*
X011927Y036234D02*
X011927Y035773D01*
X019547Y035894D02*
X019701Y035894D01*
X019624Y035894D02*
X019624Y035433D01*
X019547Y035433D02*
X019701Y035433D01*
X019854Y035510D02*
X019854Y035817D01*
X019931Y035894D01*
X020084Y035894D01*
X020161Y035817D01*
X020315Y035740D02*
X020468Y035894D01*
X020468Y035433D01*
X020315Y035433D02*
X020622Y035433D01*
X020161Y035510D02*
X020084Y035433D01*
X019931Y035433D01*
X019854Y035510D01*
D13*
X016885Y035440D02*
X016885Y035392D01*
X016692Y035198D01*
X016885Y035198D01*
X016885Y035440D02*
X016837Y035489D01*
X016740Y035489D01*
X016692Y035440D01*
X016590Y035198D02*
X016397Y035198D01*
X016397Y035489D01*
X016296Y035440D02*
X016296Y035343D01*
X016247Y035295D01*
X016102Y035295D01*
X016102Y035198D02*
X016102Y035489D01*
X016247Y035489D01*
X016296Y035440D01*
X016199Y035295D02*
X016296Y035198D01*
X016247Y034789D02*
X016296Y034740D01*
X016296Y034643D01*
X016247Y034595D01*
X016102Y034595D01*
X016102Y034498D02*
X016102Y034789D01*
X016247Y034789D01*
X016397Y034789D02*
X016397Y034498D01*
X016296Y034498D02*
X016199Y034595D01*
X016397Y034643D02*
X016590Y034643D01*
X016590Y034498D02*
X016590Y034789D01*
X016542Y034089D02*
X016397Y034089D01*
X016397Y033798D01*
X016542Y033798D01*
X016590Y033847D01*
X016590Y034040D01*
X016542Y034089D01*
X016692Y034040D02*
X016740Y034089D01*
X016837Y034089D01*
X016885Y034040D01*
X016885Y033992D01*
X016692Y033798D01*
X016885Y033798D01*
X016590Y033389D02*
X016397Y033389D01*
X016494Y033389D02*
X016494Y033098D01*
X016296Y033098D02*
X016199Y033195D01*
X016247Y033195D02*
X016102Y033195D01*
X016102Y033098D02*
X016102Y033389D01*
X016247Y033389D01*
X016296Y033340D01*
X016296Y033243D01*
X016247Y033195D01*
X016296Y033798D02*
X016199Y033895D01*
X016247Y033895D02*
X016102Y033895D01*
X016102Y033798D02*
X016102Y034089D01*
X016247Y034089D01*
X016296Y034040D01*
X016296Y033943D01*
X016247Y033895D01*
X016247Y032689D02*
X016296Y032640D01*
X016296Y032543D01*
X016247Y032495D01*
X016102Y032495D01*
X016102Y032398D02*
X016102Y032689D01*
X016247Y032689D01*
X016397Y032689D02*
X016397Y032398D01*
X016590Y032398D01*
X016692Y032398D02*
X016885Y032398D01*
X016788Y032398D02*
X016788Y032689D01*
X016692Y032592D01*
X016296Y032398D02*
X016199Y032495D01*
X016247Y031989D02*
X016296Y031940D01*
X016296Y031843D01*
X016247Y031795D01*
X016102Y031795D01*
X016102Y031698D02*
X016102Y031989D01*
X016247Y031989D01*
X016397Y031989D02*
X016542Y031989D01*
X016590Y031940D01*
X016590Y031747D01*
X016542Y031698D01*
X016397Y031698D01*
X016397Y031989D01*
X016199Y031795D02*
X016296Y031698D01*
X016692Y031698D02*
X016885Y031698D01*
X016788Y031698D02*
X016788Y031989D01*
X016692Y031892D01*
X025932Y007879D02*
X026126Y007879D01*
X026029Y007879D02*
X026029Y007588D01*
X026227Y007588D02*
X026227Y007637D01*
X026420Y007830D01*
X026420Y007879D01*
X026227Y007879D01*
X026227Y005639D02*
X026227Y005493D01*
X026324Y005542D01*
X026372Y005542D01*
X026420Y005493D01*
X026420Y005397D01*
X026372Y005348D01*
X026275Y005348D01*
X026227Y005397D01*
X026029Y005348D02*
X026029Y005639D01*
X025932Y005639D02*
X026126Y005639D01*
X026227Y005639D02*
X026420Y005639D01*
X023520Y003770D02*
X023520Y003722D01*
X023472Y003673D01*
X023520Y003625D01*
X023520Y003577D01*
X023472Y003528D01*
X023375Y003528D01*
X023327Y003577D01*
X023424Y003673D02*
X023472Y003673D01*
X023520Y003770D02*
X023472Y003819D01*
X023375Y003819D01*
X023327Y003770D01*
X023226Y003819D02*
X023032Y003819D01*
X023129Y003819D02*
X023129Y003528D01*
X022520Y003528D02*
X022327Y003528D01*
X022520Y003722D01*
X022520Y003770D01*
X022472Y003819D01*
X022375Y003819D01*
X022327Y003770D01*
X022226Y003819D02*
X022032Y003819D01*
X022129Y003819D02*
X022129Y003528D01*
X021520Y003528D02*
X021327Y003528D01*
X021424Y003528D02*
X021424Y003819D01*
X021327Y003722D01*
X021226Y003819D02*
X021032Y003819D01*
X021129Y003819D02*
X021129Y003528D01*
X020520Y003673D02*
X020327Y003673D01*
X020472Y003819D01*
X020472Y003528D01*
X020129Y003528D02*
X020129Y003819D01*
X020032Y003819D02*
X020226Y003819D01*
X019243Y006318D02*
X019146Y006318D01*
X019098Y006367D01*
X019098Y006463D01*
X019243Y006463D01*
X019291Y006415D01*
X019291Y006367D01*
X019243Y006318D01*
X019098Y006463D02*
X019194Y006560D01*
X019291Y006609D01*
X018996Y006609D02*
X018803Y006609D01*
X018900Y006609D02*
X018900Y006318D01*
D14*
X015632Y010223D02*
X015632Y010423D01*
X015732Y010323D02*
X015532Y010323D01*
X015807Y011493D02*
X014707Y011493D01*
X014707Y011993D01*
X015807Y011993D01*
X015807Y011493D01*
X015807Y012193D02*
X014707Y012193D01*
X014707Y012693D01*
X015807Y012693D01*
X015807Y012193D01*
X015807Y012893D02*
X014707Y012893D01*
X014707Y013393D01*
X015807Y013393D01*
X015807Y012893D01*
X015807Y013593D02*
X015807Y014093D01*
X014707Y014093D01*
X014707Y013593D01*
X015807Y013593D01*
X015807Y014293D02*
X014707Y014293D01*
X014707Y014793D01*
X015807Y014793D01*
X015807Y014293D01*
X015807Y014923D02*
X015807Y015423D01*
X014707Y015423D01*
X014707Y014923D01*
X015807Y014923D01*
X015807Y015623D02*
X014707Y015623D01*
X014707Y016123D01*
X015807Y016123D01*
X015807Y015623D01*
X015807Y016703D02*
X014707Y016703D01*
X014707Y017203D01*
X015807Y017203D01*
X015807Y016703D01*
X015832Y017753D02*
X015532Y017753D01*
X015832Y017753D02*
X015832Y018103D01*
X015807Y018803D02*
X015807Y019303D01*
X014707Y019303D01*
X014707Y018803D01*
X015807Y018803D01*
X015807Y019503D02*
X015807Y020003D01*
X014707Y020003D01*
X014707Y019503D01*
X015807Y019503D01*
X015807Y020203D02*
X014707Y020203D01*
X014707Y020703D01*
X015807Y020703D01*
X015807Y020203D01*
X015332Y018253D02*
X015182Y018253D01*
X014682Y018103D02*
X014682Y017753D01*
X014982Y017753D01*
X012923Y017598D02*
X012332Y017598D01*
X012332Y017205D01*
X011742Y017205D01*
X011694Y017203D01*
X011647Y017197D01*
X011601Y017188D01*
X011555Y017175D01*
X011510Y017158D01*
X011467Y017137D01*
X011426Y017114D01*
X011387Y017086D01*
X011350Y017056D01*
X011316Y017023D01*
X011284Y016988D01*
X011256Y016950D01*
X011230Y016910D01*
X011208Y016867D01*
X011189Y016824D01*
X011174Y016778D01*
X011163Y016732D01*
X011155Y016685D01*
X011151Y016638D01*
X011151Y016590D01*
X011155Y016543D01*
X011163Y016496D01*
X011174Y016450D01*
X011189Y016404D01*
X011208Y016361D01*
X011230Y016318D01*
X011256Y016278D01*
X011284Y016240D01*
X011316Y016205D01*
X011350Y016172D01*
X011387Y016142D01*
X011426Y016114D01*
X011467Y016091D01*
X011510Y016070D01*
X011555Y016053D01*
X011601Y016040D01*
X011647Y016031D01*
X011694Y016025D01*
X011742Y016023D01*
X012332Y016023D01*
X012332Y015630D01*
X012923Y015630D01*
X012923Y015236D01*
X011348Y015236D01*
X011348Y014842D01*
X012923Y014842D01*
X012923Y014449D01*
X011348Y014449D01*
X011348Y014055D01*
X012923Y014055D01*
X012923Y013661D01*
X008592Y013661D01*
X008592Y014055D01*
X010561Y014055D01*
X010561Y019173D01*
X008592Y019173D01*
X008592Y019567D01*
X012923Y019567D01*
X012923Y019173D01*
X011545Y019173D01*
X011545Y018779D01*
X012923Y018779D01*
X012923Y018386D01*
X011545Y018386D01*
X011545Y017992D01*
X012923Y017992D01*
X012923Y017598D01*
X012967Y021038D02*
X006667Y021038D01*
X006667Y034030D01*
X012967Y034030D01*
X012967Y021038D01*
X013216Y023698D02*
X013334Y023698D01*
X013196Y023700D02*
X013196Y025389D01*
X013216Y025391D02*
X013334Y025391D01*
X013728Y024744D02*
X014028Y024394D01*
X013428Y024394D01*
X013728Y024744D01*
X013703Y024715D02*
X013753Y024715D01*
X013795Y024666D02*
X013661Y024666D01*
X013620Y024618D02*
X013836Y024618D01*
X013878Y024569D02*
X013578Y024569D01*
X013537Y024521D02*
X013919Y024521D01*
X013961Y024472D02*
X013495Y024472D01*
X013454Y024424D02*
X014002Y024424D01*
X014122Y023698D02*
X014240Y023698D01*
X014259Y023700D02*
X014259Y025389D01*
X014240Y025391D02*
X014122Y025391D01*
X014682Y025133D02*
X014682Y024783D01*
X014982Y024783D01*
X015182Y025283D02*
X015332Y025283D01*
X015832Y025133D02*
X015832Y024783D01*
X015532Y024783D01*
X015807Y025833D02*
X014707Y025833D01*
X014707Y026333D01*
X015807Y026333D01*
X015807Y025833D01*
X015807Y026533D02*
X015807Y027033D01*
X014707Y027033D01*
X014707Y026533D01*
X015807Y026533D01*
X015807Y027233D02*
X014707Y027233D01*
X014707Y027733D01*
X015807Y027733D01*
X015807Y027233D01*
X016007Y030903D02*
X016007Y031403D01*
X017107Y031403D01*
X017107Y030903D01*
X016007Y030903D01*
X015834Y030997D02*
X015834Y031548D01*
X013078Y031548D01*
X013078Y033201D01*
X015834Y033201D01*
X015834Y031548D01*
X015834Y030997D02*
X013078Y030997D01*
X013078Y031548D01*
X013666Y031335D02*
X013866Y031335D01*
X013766Y031435D01*
X013666Y031335D01*
X013766Y031435D02*
X013766Y031085D01*
X013184Y032375D02*
X013186Y032423D01*
X013192Y032471D01*
X013202Y032518D01*
X013215Y032564D01*
X013233Y032609D01*
X013253Y032653D01*
X013278Y032695D01*
X013306Y032734D01*
X013336Y032771D01*
X013370Y032805D01*
X013407Y032837D01*
X013445Y032866D01*
X013486Y032891D01*
X013529Y032913D01*
X013574Y032931D01*
X013620Y032945D01*
X013667Y032956D01*
X013715Y032963D01*
X013763Y032966D01*
X013811Y032965D01*
X013859Y032960D01*
X013907Y032951D01*
X013953Y032939D01*
X013998Y032922D01*
X014042Y032902D01*
X014084Y032879D01*
X014124Y032852D01*
X014162Y032822D01*
X014197Y032789D01*
X014229Y032753D01*
X014259Y032715D01*
X014285Y032674D01*
X014307Y032631D01*
X014327Y032587D01*
X014342Y032542D01*
X014354Y032495D01*
X014362Y032447D01*
X014366Y032399D01*
X014366Y032351D01*
X014362Y032303D01*
X014354Y032255D01*
X014342Y032208D01*
X014327Y032163D01*
X014307Y032119D01*
X014285Y032076D01*
X014259Y032035D01*
X014229Y031997D01*
X014197Y031961D01*
X014162Y031928D01*
X014124Y031898D01*
X014084Y031871D01*
X014042Y031848D01*
X013998Y031828D01*
X013953Y031811D01*
X013907Y031799D01*
X013859Y031790D01*
X013811Y031785D01*
X013763Y031784D01*
X013715Y031787D01*
X013667Y031794D01*
X013620Y031805D01*
X013574Y031819D01*
X013529Y031837D01*
X013486Y031859D01*
X013445Y031884D01*
X013407Y031913D01*
X013370Y031945D01*
X013336Y031979D01*
X013306Y032016D01*
X013278Y032055D01*
X013253Y032097D01*
X013233Y032141D01*
X013215Y032186D01*
X013202Y032232D01*
X013192Y032279D01*
X013186Y032327D01*
X013184Y032375D01*
X013078Y033201D02*
X013078Y033753D01*
X015834Y033753D01*
X015834Y033201D01*
X014546Y032375D02*
X014548Y032423D01*
X014554Y032471D01*
X014564Y032518D01*
X014577Y032564D01*
X014595Y032609D01*
X014615Y032653D01*
X014640Y032695D01*
X014668Y032734D01*
X014698Y032771D01*
X014732Y032805D01*
X014769Y032837D01*
X014807Y032866D01*
X014848Y032891D01*
X014891Y032913D01*
X014936Y032931D01*
X014982Y032945D01*
X015029Y032956D01*
X015077Y032963D01*
X015125Y032966D01*
X015173Y032965D01*
X015221Y032960D01*
X015269Y032951D01*
X015315Y032939D01*
X015360Y032922D01*
X015404Y032902D01*
X015446Y032879D01*
X015486Y032852D01*
X015524Y032822D01*
X015559Y032789D01*
X015591Y032753D01*
X015621Y032715D01*
X015647Y032674D01*
X015669Y032631D01*
X015689Y032587D01*
X015704Y032542D01*
X015716Y032495D01*
X015724Y032447D01*
X015728Y032399D01*
X015728Y032351D01*
X015724Y032303D01*
X015716Y032255D01*
X015704Y032208D01*
X015689Y032163D01*
X015669Y032119D01*
X015647Y032076D01*
X015621Y032035D01*
X015591Y031997D01*
X015559Y031961D01*
X015524Y031928D01*
X015486Y031898D01*
X015446Y031871D01*
X015404Y031848D01*
X015360Y031828D01*
X015315Y031811D01*
X015269Y031799D01*
X015221Y031790D01*
X015173Y031785D01*
X015125Y031784D01*
X015077Y031787D01*
X015029Y031794D01*
X014982Y031805D01*
X014936Y031819D01*
X014891Y031837D01*
X014848Y031859D01*
X014807Y031884D01*
X014769Y031913D01*
X014732Y031945D01*
X014698Y031979D01*
X014668Y032016D01*
X014640Y032055D01*
X014615Y032097D01*
X014595Y032141D01*
X014577Y032186D01*
X014564Y032232D01*
X014554Y032279D01*
X014548Y032327D01*
X014546Y032375D01*
X015146Y031435D02*
X015246Y031335D01*
X015046Y031335D01*
X015146Y031435D01*
X015146Y031085D01*
X017007Y031603D02*
X017007Y032103D01*
X018107Y032103D01*
X018107Y031603D01*
X017007Y031603D01*
X017007Y032303D02*
X017007Y032803D01*
X018107Y032803D01*
X018107Y032303D01*
X017007Y032303D01*
X017007Y033003D02*
X017007Y033503D01*
X018107Y033503D01*
X018107Y033003D01*
X017007Y033003D01*
X017007Y033703D02*
X017007Y034203D01*
X018107Y034203D01*
X018107Y033703D01*
X017007Y033703D01*
X017007Y034403D02*
X017007Y034903D01*
X018107Y034903D01*
X018107Y034403D01*
X017007Y034403D01*
X017007Y035103D02*
X017007Y035603D01*
X018107Y035603D01*
X018107Y035103D01*
X017007Y035103D01*
X018657Y033378D02*
X018857Y033378D01*
X018757Y033478D02*
X018757Y033278D01*
X019372Y034212D02*
X019372Y035315D01*
X020002Y035315D01*
X020002Y034212D01*
X019372Y034212D01*
X019170Y035433D02*
X019172Y035455D01*
X019177Y035475D01*
X019187Y035495D01*
X019199Y035513D01*
X019214Y035528D01*
X019232Y035540D01*
X019252Y035550D01*
X019272Y035555D01*
X019294Y035557D01*
X019316Y035555D01*
X019336Y035550D01*
X019356Y035540D01*
X019374Y035528D01*
X019389Y035513D01*
X019401Y035495D01*
X019411Y035475D01*
X019416Y035455D01*
X019418Y035433D01*
X019416Y035411D01*
X019411Y035391D01*
X019401Y035371D01*
X019389Y035353D01*
X019374Y035338D01*
X019356Y035326D01*
X019336Y035316D01*
X019316Y035311D01*
X019294Y035309D01*
X019272Y035311D01*
X019252Y035316D01*
X019232Y035326D01*
X019214Y035338D01*
X019199Y035353D01*
X019187Y035371D01*
X019177Y035391D01*
X019172Y035411D01*
X019170Y035433D01*
X020263Y032767D02*
X020763Y032767D01*
X020763Y031667D01*
X020263Y031667D01*
X020263Y032767D01*
X021820Y031545D02*
X021820Y035442D01*
X023355Y035442D01*
X023355Y031545D01*
X021820Y031545D01*
X024141Y031503D02*
X024141Y031003D01*
X025241Y031003D01*
X025241Y031503D01*
X024141Y031503D01*
X024141Y031703D02*
X024141Y032203D01*
X025241Y032203D01*
X025241Y031703D01*
X024141Y031703D01*
X024141Y032403D02*
X024141Y032903D01*
X025241Y032903D01*
X025241Y032403D01*
X024141Y032403D01*
X021947Y034989D02*
X021949Y035025D01*
X021955Y035060D01*
X021965Y035095D01*
X021978Y035128D01*
X021995Y035159D01*
X022016Y035189D01*
X022039Y035216D01*
X022065Y035240D01*
X022094Y035261D01*
X022125Y035279D01*
X022158Y035293D01*
X022192Y035304D01*
X022227Y035311D01*
X022263Y035314D01*
X022299Y035313D01*
X022334Y035308D01*
X022369Y035299D01*
X022403Y035287D01*
X022434Y035270D01*
X022464Y035251D01*
X022492Y035228D01*
X022517Y035202D01*
X022539Y035174D01*
X022558Y035144D01*
X022573Y035111D01*
X022585Y035077D01*
X022593Y035042D01*
X022597Y035007D01*
X022597Y034971D01*
X022593Y034936D01*
X022585Y034901D01*
X022573Y034867D01*
X022558Y034834D01*
X022539Y034804D01*
X022517Y034776D01*
X022492Y034750D01*
X022464Y034727D01*
X022435Y034708D01*
X022403Y034691D01*
X022369Y034679D01*
X022334Y034670D01*
X022299Y034665D01*
X022263Y034664D01*
X022227Y034667D01*
X022192Y034674D01*
X022158Y034685D01*
X022125Y034699D01*
X022094Y034717D01*
X022065Y034738D01*
X022039Y034762D01*
X022016Y034789D01*
X021995Y034819D01*
X021978Y034850D01*
X021965Y034883D01*
X021955Y034918D01*
X021949Y034953D01*
X021947Y034989D01*
X012067Y034784D02*
X012069Y034828D01*
X012075Y034872D01*
X012085Y034915D01*
X012098Y034957D01*
X012115Y034998D01*
X012136Y035037D01*
X012160Y035074D01*
X012187Y035109D01*
X012217Y035141D01*
X012250Y035171D01*
X012286Y035197D01*
X012323Y035221D01*
X012363Y035240D01*
X012404Y035257D01*
X012447Y035269D01*
X012490Y035278D01*
X012534Y035283D01*
X012578Y035284D01*
X012622Y035281D01*
X012666Y035274D01*
X012709Y035263D01*
X012751Y035249D01*
X012791Y035231D01*
X012830Y035209D01*
X012866Y035185D01*
X012900Y035157D01*
X012932Y035126D01*
X012961Y035092D01*
X012987Y035056D01*
X013009Y035018D01*
X013028Y034978D01*
X013043Y034936D01*
X013055Y034894D01*
X013063Y034850D01*
X013067Y034806D01*
X013067Y034762D01*
X013063Y034718D01*
X013055Y034674D01*
X013043Y034632D01*
X013028Y034590D01*
X013009Y034550D01*
X012987Y034512D01*
X012961Y034476D01*
X012932Y034442D01*
X012900Y034411D01*
X012866Y034383D01*
X012830Y034359D01*
X012791Y034337D01*
X012751Y034319D01*
X012709Y034305D01*
X012666Y034294D01*
X012622Y034287D01*
X012578Y034284D01*
X012534Y034285D01*
X012490Y034290D01*
X012447Y034299D01*
X012404Y034311D01*
X012363Y034328D01*
X012323Y034347D01*
X012286Y034371D01*
X012250Y034397D01*
X012217Y034427D01*
X012187Y034459D01*
X012160Y034494D01*
X012136Y034531D01*
X012115Y034570D01*
X012098Y034611D01*
X012085Y034653D01*
X012075Y034696D01*
X012069Y034740D01*
X012067Y034784D01*
X006421Y032701D02*
X006421Y031012D01*
X006402Y031010D02*
X006284Y031010D01*
X005873Y030564D02*
X005873Y027020D01*
X000125Y027020D01*
X000125Y030564D01*
X005873Y030564D01*
X005496Y031010D02*
X005378Y031010D01*
X005358Y031012D02*
X005358Y032701D01*
X005378Y032703D02*
X005496Y032703D01*
X005061Y032460D02*
X003961Y032460D01*
X003961Y032960D01*
X005061Y032960D01*
X005061Y032460D01*
X005590Y032006D02*
X006190Y032006D01*
X005890Y031656D01*
X005590Y032006D01*
X005604Y031990D02*
X006176Y031990D01*
X006134Y031941D02*
X005646Y031941D01*
X005687Y031893D02*
X006093Y031893D01*
X006051Y031844D02*
X005729Y031844D01*
X005770Y031796D02*
X006010Y031796D01*
X005968Y031747D02*
X005812Y031747D01*
X005854Y031699D02*
X005926Y031699D01*
X006284Y032703D02*
X006402Y032703D01*
X005086Y031751D02*
X005086Y031401D01*
X004786Y031401D01*
X004586Y031901D02*
X004436Y031901D01*
X004236Y031401D02*
X003936Y031401D01*
X003936Y031751D01*
X018406Y019895D02*
X018406Y012808D01*
X023996Y012808D01*
X023996Y019895D01*
X018406Y019895D01*
X023602Y020533D02*
X023602Y021033D01*
X024702Y021033D01*
X024702Y020533D01*
X023602Y020533D01*
X023996Y019895D02*
X026280Y019895D01*
X026280Y012808D01*
X023996Y012808D01*
X024781Y021056D02*
X024783Y021089D01*
X024789Y021121D01*
X024798Y021153D01*
X024812Y021183D01*
X024828Y021211D01*
X024848Y021237D01*
X024871Y021261D01*
X024897Y021282D01*
X024925Y021299D01*
X024955Y021314D01*
X024986Y021324D01*
X025018Y021331D01*
X025051Y021334D01*
X025084Y021333D01*
X025116Y021328D01*
X025148Y021319D01*
X025179Y021307D01*
X025207Y021291D01*
X025234Y021272D01*
X025258Y021250D01*
X025280Y021225D01*
X025298Y021197D01*
X025313Y021168D01*
X025325Y021137D01*
X025333Y021105D01*
X025337Y021072D01*
X025337Y021040D01*
X025333Y021007D01*
X025325Y020975D01*
X025313Y020944D01*
X025298Y020915D01*
X025280Y020887D01*
X025258Y020862D01*
X025234Y020840D01*
X025207Y020821D01*
X025179Y020805D01*
X025148Y020793D01*
X025116Y020784D01*
X025084Y020779D01*
X025051Y020778D01*
X025018Y020781D01*
X024986Y020788D01*
X024955Y020798D01*
X024925Y020813D01*
X024897Y020830D01*
X024871Y020851D01*
X024848Y020875D01*
X024828Y020901D01*
X024812Y020929D01*
X024798Y020959D01*
X024789Y020991D01*
X024783Y021023D01*
X024781Y021056D01*
X012497Y011598D02*
X012497Y011448D01*
X012347Y010948D02*
X011997Y010948D01*
X011997Y011248D01*
X011997Y010768D02*
X011997Y010468D01*
X011997Y010768D02*
X012347Y010768D01*
X012497Y010268D02*
X012497Y010118D01*
X012347Y009618D02*
X011997Y009618D01*
X011997Y009918D01*
X010448Y009429D02*
X009897Y009429D01*
X009897Y012185D01*
X010448Y012185D01*
X010448Y009429D01*
X009897Y009429D02*
X008244Y009429D01*
X008244Y012185D01*
X009897Y012185D01*
X008479Y011488D02*
X008481Y011536D01*
X008487Y011584D01*
X008497Y011631D01*
X008510Y011677D01*
X008528Y011722D01*
X008548Y011766D01*
X008573Y011808D01*
X008601Y011847D01*
X008631Y011884D01*
X008665Y011918D01*
X008702Y011950D01*
X008740Y011979D01*
X008781Y012004D01*
X008824Y012026D01*
X008869Y012044D01*
X008915Y012058D01*
X008962Y012069D01*
X009010Y012076D01*
X009058Y012079D01*
X009106Y012078D01*
X009154Y012073D01*
X009202Y012064D01*
X009248Y012052D01*
X009293Y012035D01*
X009337Y012015D01*
X009379Y011992D01*
X009419Y011965D01*
X009457Y011935D01*
X009492Y011902D01*
X009524Y011866D01*
X009554Y011828D01*
X009580Y011787D01*
X009602Y011744D01*
X009622Y011700D01*
X009637Y011655D01*
X009649Y011608D01*
X009657Y011560D01*
X009661Y011512D01*
X009661Y011464D01*
X009657Y011416D01*
X009649Y011368D01*
X009637Y011321D01*
X009622Y011276D01*
X009602Y011232D01*
X009580Y011189D01*
X009554Y011148D01*
X009524Y011110D01*
X009492Y011074D01*
X009457Y011041D01*
X009419Y011011D01*
X009379Y010984D01*
X009337Y010961D01*
X009293Y010941D01*
X009248Y010924D01*
X009202Y010912D01*
X009154Y010903D01*
X009106Y010898D01*
X009058Y010897D01*
X009010Y010900D01*
X008962Y010907D01*
X008915Y010918D01*
X008869Y010932D01*
X008824Y010950D01*
X008781Y010972D01*
X008740Y010997D01*
X008702Y011026D01*
X008665Y011058D01*
X008631Y011092D01*
X008601Y011129D01*
X008573Y011168D01*
X008548Y011210D01*
X008528Y011254D01*
X008510Y011299D01*
X008497Y011345D01*
X008487Y011392D01*
X008481Y011440D01*
X008479Y011488D01*
X008130Y011497D02*
X008030Y011397D01*
X008030Y011597D01*
X008130Y011497D01*
X007780Y011497D01*
X007692Y012185D02*
X008244Y012185D01*
X007692Y012185D02*
X007692Y009429D01*
X008244Y009429D01*
X008030Y010017D02*
X008130Y010117D01*
X008030Y010217D01*
X008030Y010017D01*
X008130Y010117D02*
X007780Y010117D01*
X008479Y010126D02*
X008481Y010174D01*
X008487Y010222D01*
X008497Y010269D01*
X008510Y010315D01*
X008528Y010360D01*
X008548Y010404D01*
X008573Y010446D01*
X008601Y010485D01*
X008631Y010522D01*
X008665Y010556D01*
X008702Y010588D01*
X008740Y010617D01*
X008781Y010642D01*
X008824Y010664D01*
X008869Y010682D01*
X008915Y010696D01*
X008962Y010707D01*
X009010Y010714D01*
X009058Y010717D01*
X009106Y010716D01*
X009154Y010711D01*
X009202Y010702D01*
X009248Y010690D01*
X009293Y010673D01*
X009337Y010653D01*
X009379Y010630D01*
X009419Y010603D01*
X009457Y010573D01*
X009492Y010540D01*
X009524Y010504D01*
X009554Y010466D01*
X009580Y010425D01*
X009602Y010382D01*
X009622Y010338D01*
X009637Y010293D01*
X009649Y010246D01*
X009657Y010198D01*
X009661Y010150D01*
X009661Y010102D01*
X009657Y010054D01*
X009649Y010006D01*
X009637Y009959D01*
X009622Y009914D01*
X009602Y009870D01*
X009580Y009827D01*
X009554Y009786D01*
X009524Y009748D01*
X009492Y009712D01*
X009457Y009679D01*
X009419Y009649D01*
X009379Y009622D01*
X009337Y009599D01*
X009293Y009579D01*
X009248Y009562D01*
X009202Y009550D01*
X009154Y009541D01*
X009106Y009536D01*
X009058Y009535D01*
X009010Y009538D01*
X008962Y009545D01*
X008915Y009556D01*
X008869Y009570D01*
X008824Y009588D01*
X008781Y009610D01*
X008740Y009635D01*
X008702Y009664D01*
X008665Y009696D01*
X008631Y009730D01*
X008601Y009767D01*
X008573Y009806D01*
X008548Y009848D01*
X008528Y009892D01*
X008510Y009937D01*
X008497Y009983D01*
X008487Y010030D01*
X008481Y010078D01*
X008479Y010126D01*
X011997Y011798D02*
X011997Y012098D01*
X012347Y012098D01*
D15*
X012797Y009001D02*
X010632Y009001D01*
X010632Y008608D01*
X012797Y008608D01*
X013585Y008608D02*
X015750Y008608D01*
X015750Y009001D01*
X013585Y009001D01*
X015750Y008608D02*
X015750Y004671D01*
X014963Y003883D01*
X013585Y003883D01*
X012797Y003883D02*
X011419Y003883D01*
X010632Y004671D01*
X010632Y008608D01*
X009520Y007863D02*
X008770Y007863D01*
X008770Y004863D01*
X007020Y004863D01*
X007020Y007863D01*
X008770Y007863D01*
X009520Y007863D02*
X009520Y004863D01*
X008770Y004863D01*
D16*
X016944Y003924D02*
X016944Y006504D01*
X018344Y006504D01*
X018344Y003924D01*
X016944Y003924D01*
X012277Y030812D02*
X011356Y030812D01*
X012277Y031425D01*
X011356Y031425D01*
X011356Y031732D02*
X012277Y031732D01*
X012277Y032346D01*
X012124Y032653D02*
X012277Y032807D01*
X012277Y033114D01*
X012124Y033267D01*
X012124Y032653D02*
X011510Y032653D01*
X011356Y032807D01*
X011356Y033114D01*
X011510Y033267D01*
X011356Y032346D02*
X011356Y031732D01*
X011817Y031732D02*
X011817Y032039D01*
D17*
X016369Y030429D02*
X016369Y029444D01*
X016369Y030429D02*
X016762Y030429D01*
X016369Y024720D02*
X016369Y023736D01*
X016762Y023736D01*
X023062Y023736D02*
X026211Y023736D01*
X026211Y030429D01*
X023062Y030429D01*
D18*
X009101Y018384D03*
D19*
X010411Y016614D03*
D20*
X010161Y018339D03*
X010161Y014889D03*
D21*
X010161Y016114D03*
X010161Y017114D03*
D22*
X006132Y005453D03*
X006142Y005443D03*
X006152Y005433D03*
X006162Y005413D03*
X006172Y005403D03*
X006182Y005383D03*
X006192Y005373D03*
X005692Y005163D03*
X005682Y005153D03*
X005662Y005123D03*
X005652Y005113D03*
X005642Y005093D03*
X005632Y005083D03*
X005622Y005073D03*
X005622Y005063D03*
X005612Y005053D03*
X005602Y005043D03*
X005602Y005033D03*
X005592Y005023D03*
X005582Y005013D03*
X005582Y005003D03*
X005572Y004993D03*
X005572Y004983D03*
X005562Y004973D03*
X005552Y004963D03*
X005552Y004953D03*
X005542Y004943D03*
X005542Y004933D03*
X005532Y004923D03*
X005532Y004913D03*
X005522Y004903D03*
X005512Y004883D03*
X005502Y004873D03*
X005502Y004863D03*
X005492Y004853D03*
X005492Y004843D03*
X005482Y004833D03*
X005482Y004823D03*
X005472Y004813D03*
X005472Y004803D03*
X005462Y004793D03*
X005452Y004773D03*
X005422Y004713D03*
X005392Y004663D03*
X005392Y004653D03*
X005382Y004633D03*
X005382Y004623D03*
X005372Y004613D03*
X005372Y004603D03*
X005362Y004583D03*
X005362Y004573D03*
X005352Y004553D03*
X005352Y004543D03*
X005342Y004513D03*
X005342Y004503D03*
X005332Y004483D03*
X005332Y004473D03*
X005322Y004443D03*
X005322Y004433D03*
X005312Y004403D03*
X005312Y004393D03*
X005312Y004383D03*
X005302Y004343D03*
X005302Y004333D03*
X005302Y004323D03*
X005292Y004273D03*
X005292Y004263D03*
X005292Y004253D03*
X005292Y004243D03*
X005282Y004153D03*
X005282Y004143D03*
X005282Y004133D03*
X005282Y004123D03*
X005282Y004113D03*
X005282Y004103D03*
X005282Y004093D03*
X005282Y004083D03*
X005292Y003993D03*
X005292Y003983D03*
X005292Y003973D03*
X005292Y003963D03*
X005302Y003913D03*
X005302Y003903D03*
X005312Y003873D03*
X005312Y003863D03*
X005322Y003843D03*
X005322Y003833D03*
X005332Y003813D03*
X005332Y003803D03*
X005342Y003783D03*
X005342Y003773D03*
X005352Y003763D03*
X005352Y003753D03*
X005362Y003743D03*
X005362Y003733D03*
X005372Y003723D03*
X005372Y003713D03*
X005382Y003703D03*
X005392Y003683D03*
X005402Y003673D03*
X005412Y003653D03*
X005422Y003643D03*
X005452Y003603D03*
X005462Y003593D03*
X005472Y003583D03*
X005522Y003473D03*
X005522Y003463D03*
X005512Y003453D03*
X005512Y003443D03*
X005502Y003433D03*
X005502Y003423D03*
X005492Y003413D03*
X005482Y003403D03*
X005482Y003393D03*
X005472Y003383D03*
X005452Y003353D03*
X005442Y003343D03*
X005292Y003363D03*
X005282Y003373D03*
X005282Y003383D03*
X005232Y003383D03*
X005232Y003373D03*
X005222Y003353D03*
X005222Y003343D03*
X005212Y003323D03*
X005212Y003313D03*
X005202Y003303D03*
X005202Y003293D03*
X005192Y003283D03*
X005192Y003273D03*
X005182Y003263D03*
X005172Y003253D03*
X005252Y003433D03*
X004922Y003273D03*
X004922Y003263D03*
X004932Y003253D03*
X004932Y003243D03*
X004942Y003233D03*
X004732Y003153D03*
X004722Y003163D03*
X004442Y003353D03*
X004432Y003343D03*
X004422Y003333D03*
X004392Y003293D03*
X004382Y003283D03*
X004372Y003273D03*
X004362Y003253D03*
X004352Y003243D03*
X004352Y003233D03*
X004342Y003223D03*
X004332Y003203D03*
X004332Y003193D03*
X004332Y003183D03*
X004332Y003173D03*
X004502Y003423D03*
X004512Y003433D03*
X004522Y003443D03*
X004532Y003523D03*
X004522Y003533D03*
X004512Y003543D03*
X004512Y003553D03*
X004502Y003563D03*
X004492Y003573D03*
X004492Y003583D03*
X004482Y003593D03*
X004472Y003613D03*
X004462Y003623D03*
X004462Y003633D03*
X004452Y003643D03*
X004452Y003653D03*
X004442Y003663D03*
X004442Y003673D03*
X004432Y003683D03*
X004432Y003693D03*
X004422Y003713D03*
X004422Y003723D03*
X004412Y003743D03*
X004412Y003753D03*
X004412Y003763D03*
X004412Y003773D03*
X004412Y003783D03*
X004412Y003793D03*
X004422Y003803D03*
X004672Y003643D03*
X004672Y003633D03*
X004662Y003623D03*
X004652Y003613D03*
X004642Y003593D03*
X004632Y003583D03*
X004612Y003553D03*
X004602Y003543D03*
X004682Y003653D03*
X004692Y003663D03*
X004692Y003673D03*
X004702Y003683D03*
X004712Y003693D03*
X004712Y003703D03*
X004722Y003713D03*
X004732Y003733D03*
X004762Y003773D03*
X004762Y003783D03*
X004772Y003793D03*
X004772Y003803D03*
X004782Y003813D03*
X004782Y003823D03*
X004792Y003833D03*
X004792Y003843D03*
X004802Y003853D03*
X004802Y003863D03*
X004812Y003873D03*
X004812Y003883D03*
X004822Y003893D03*
X004832Y003903D03*
X004832Y003913D03*
X004842Y003923D03*
X004842Y003933D03*
X004852Y003943D03*
X004862Y003953D03*
X004872Y003973D03*
X004882Y003983D03*
X004892Y003993D03*
X004842Y004323D03*
X004832Y004333D03*
X004822Y004353D03*
X004812Y004363D03*
X004802Y004373D03*
X004802Y004383D03*
X004792Y004393D03*
X004792Y004403D03*
X004782Y004413D03*
X004772Y004423D03*
X004772Y004433D03*
X004762Y004453D03*
X004752Y004473D03*
X004752Y004483D03*
X004742Y004493D03*
X004742Y004503D03*
X004732Y004523D03*
X004732Y004533D03*
X004722Y004553D03*
X004722Y004563D03*
X004722Y004573D03*
X004712Y004593D03*
X004712Y004603D03*
X004712Y004613D03*
X004702Y004653D03*
X004702Y004663D03*
X004702Y004673D03*
X004702Y004683D03*
X004702Y004883D03*
X004702Y004893D03*
X004702Y004903D03*
X004702Y004913D03*
X004702Y004923D03*
X004712Y004963D03*
X004712Y004973D03*
X004712Y004983D03*
X004722Y005013D03*
X004722Y005023D03*
X004722Y005033D03*
X004732Y005063D03*
X004732Y005073D03*
X004742Y005093D03*
X004742Y005103D03*
X004742Y005113D03*
X004752Y005133D03*
X004752Y005143D03*
X004762Y005163D03*
X004762Y005173D03*
X004772Y005193D03*
X004772Y005203D03*
X004782Y005213D03*
X004782Y005223D03*
X004792Y005233D03*
X004792Y005243D03*
X004802Y005263D03*
X004812Y005273D03*
X004812Y005283D03*
X004822Y005293D03*
X004822Y005303D03*
X004832Y005313D03*
X004832Y005323D03*
X004842Y005333D03*
X004852Y005343D03*
X004852Y005353D03*
X004862Y005363D03*
X004882Y005393D03*
X004892Y005403D03*
X005602Y004603D03*
X005602Y004593D03*
X005602Y004583D03*
X005592Y004553D03*
X005592Y004543D03*
X005592Y004533D03*
X005582Y004483D03*
X005582Y004473D03*
X005582Y004463D03*
X005572Y004413D03*
X005572Y004403D03*
X005572Y004393D03*
X005572Y004383D03*
X005562Y004313D03*
X005562Y004303D03*
X005562Y004293D03*
X005562Y004283D03*
X005562Y004273D03*
X005562Y004263D03*
X005562Y004253D03*
X005562Y004243D03*
X005562Y004233D03*
X005562Y004223D03*
X005562Y004123D03*
X005562Y004113D03*
X005562Y004103D03*
X005612Y003993D03*
X005622Y003973D03*
X005622Y003963D03*
X005632Y003953D03*
X005632Y003943D03*
X005642Y003933D03*
X005652Y003923D03*
X005652Y003913D03*
X005662Y003903D03*
X005662Y003893D03*
X005672Y003883D03*
X005682Y003873D03*
X005702Y003843D03*
X005712Y003833D03*
X005722Y003823D03*
X005832Y003843D03*
X005842Y003823D03*
X005842Y003813D03*
X005852Y003793D03*
X005852Y003783D03*
X005862Y003763D03*
X005862Y003753D03*
X005822Y003873D03*
X005822Y003883D03*
X005812Y003903D03*
X005812Y003913D03*
X005802Y003933D03*
X005802Y003943D03*
X005782Y004003D03*
X005782Y004013D03*
X005772Y004043D03*
X005772Y004053D03*
X005762Y004083D03*
X005762Y004093D03*
X005752Y004133D03*
X005752Y004143D03*
X005742Y004183D03*
X005742Y004193D03*
X005742Y004203D03*
X005742Y004213D03*
X005742Y004463D03*
X005742Y004473D03*
X005742Y004483D03*
X005742Y004493D03*
X005742Y004503D03*
X005742Y004513D03*
X005752Y004573D03*
X005752Y004583D03*
X005752Y004593D03*
X005752Y004603D03*
X005942Y004543D03*
X006292Y004503D03*
X006432Y004503D03*
X006432Y004513D03*
X006432Y004523D03*
X006432Y004533D03*
X006432Y004543D03*
X006422Y004603D03*
X006422Y004613D03*
X006422Y004623D03*
X006412Y004663D03*
X006412Y004673D03*
X006412Y004683D03*
X006402Y004713D03*
X006402Y004723D03*
X006432Y004403D03*
X006432Y004393D03*
X006432Y004383D03*
X006432Y004373D03*
X006422Y004333D03*
X006422Y004323D03*
X006382Y004233D03*
X006402Y004163D03*
X006402Y004153D03*
X006412Y004133D03*
X006412Y004123D03*
X006422Y004103D03*
X006422Y004093D03*
X006432Y004083D03*
X006432Y004073D03*
X006442Y004053D03*
X006442Y004043D03*
X006452Y004033D03*
X006452Y004023D03*
X006462Y004013D03*
X006462Y004003D03*
X006472Y003993D03*
X006482Y003973D03*
X006492Y003963D03*
X006502Y003943D03*
X006512Y003933D03*
X006522Y003913D03*
X006532Y003903D03*
X006542Y003893D03*
X006382Y003813D03*
X006382Y003803D03*
X006392Y003793D03*
X006392Y003783D03*
X006402Y003763D03*
X006402Y003753D03*
X006412Y003733D03*
X006412Y003723D03*
X006412Y003713D03*
X006422Y003683D03*
X006422Y003673D03*
X006422Y003663D03*
X006422Y003553D03*
X006422Y003543D03*
X006422Y003533D03*
X006412Y003503D03*
X006412Y003493D03*
X006392Y003443D03*
X006392Y003433D03*
X006382Y003423D03*
X006382Y003413D03*
X006372Y003403D03*
X006372Y003393D03*
X006362Y003383D03*
X006352Y003373D03*
X006352Y003363D03*
X006342Y003353D03*
X006342Y003343D03*
X006332Y003333D03*
X006332Y003323D03*
X006322Y003313D03*
X006312Y003303D03*
X006312Y003293D03*
X006302Y003283D03*
X006292Y003263D03*
X006262Y003223D03*
X006252Y003203D03*
X006242Y003193D03*
X006232Y003183D03*
X006212Y003153D03*
X006202Y003143D03*
X006192Y003133D03*
X006072Y002973D03*
X006082Y002963D03*
X006092Y002953D03*
X006102Y002933D03*
X006112Y002923D03*
X006122Y002903D03*
X006132Y002893D03*
X006142Y002873D03*
X006152Y002863D03*
X006162Y002853D03*
X006162Y002843D03*
X006172Y002833D03*
X006182Y002823D03*
X006182Y002813D03*
X006192Y002803D03*
X006202Y002793D03*
X006202Y002783D03*
X006212Y002773D03*
X006212Y002763D03*
X006222Y002753D03*
X006062Y002693D03*
X006062Y002683D03*
X006062Y002673D03*
X006062Y002663D03*
X006062Y002653D03*
X006032Y002613D03*
X006052Y002713D03*
X006052Y002723D03*
X006052Y002733D03*
X005782Y002833D03*
X005772Y002843D03*
X005722Y003443D03*
X005712Y003463D03*
X005712Y003473D03*
X005702Y003493D03*
X005702Y003503D03*
X005692Y003513D03*
X005692Y003523D03*
X005682Y003543D03*
X005682Y003553D03*
X005672Y003573D03*
X005672Y003583D03*
X005662Y003603D03*
X005662Y003613D03*
X005652Y003633D03*
X005652Y003643D03*
X005642Y003663D03*
X005642Y003673D03*
X005632Y003703D03*
X005632Y003713D03*
X005622Y003733D03*
X005622Y003743D03*
X005612Y003773D03*
X005612Y003783D03*
X005602Y003813D03*
X005602Y003823D03*
X005592Y003853D03*
X005592Y003863D03*
X005592Y003873D03*
X005582Y003903D03*
X005582Y003913D03*
X005582Y003923D03*
X005572Y003963D03*
X005572Y003973D03*
X006302Y003953D03*
X006312Y003933D03*
X006322Y003923D03*
X006332Y003913D03*
X006332Y003903D03*
X006342Y003893D03*
X006342Y003883D03*
X006352Y003873D03*
X006362Y003853D03*
X006372Y003833D03*
X006482Y003353D03*
X006772Y005033D03*
D23*
X006412Y004773D03*
X006392Y004763D03*
X006372Y004753D03*
X006332Y004733D03*
X006312Y004723D03*
X006292Y004643D03*
X006292Y004633D03*
X006292Y004623D03*
X006292Y004613D03*
X006292Y004603D03*
X006292Y004593D03*
X006292Y004583D03*
X006292Y004573D03*
X006292Y004563D03*
X006292Y004553D03*
X006382Y004263D03*
X006372Y004193D03*
X006292Y004213D03*
X006272Y004203D03*
X006252Y004193D03*
X006272Y004013D03*
X006282Y004003D03*
X006292Y003993D03*
X006132Y004013D03*
X006012Y004103D03*
X005922Y003943D03*
X005812Y003983D03*
X005592Y003983D03*
X005722Y003403D03*
X005962Y002943D03*
X005942Y002933D03*
X005922Y002923D03*
X005902Y002913D03*
X006032Y002623D03*
X006522Y003323D03*
X006542Y003313D03*
X006562Y003303D03*
X006442Y003893D03*
X005942Y004303D03*
X005942Y004513D03*
X005942Y004523D03*
X005872Y005323D03*
X006052Y005373D03*
X005912Y005623D03*
X005892Y005633D03*
X005182Y005623D03*
X005162Y005613D03*
X005142Y005603D03*
X005012Y004083D03*
X004722Y003743D03*
X004572Y003803D03*
X004552Y003813D03*
X004482Y003843D03*
X004812Y003253D03*
X004892Y003293D03*
X004972Y002963D03*
X004992Y002953D03*
X005012Y002943D03*
X005032Y002933D03*
D24*
X005082Y002913D03*
X005112Y002903D03*
X004882Y003283D03*
X004712Y003213D03*
X004692Y003203D03*
X004412Y003123D03*
X004622Y003783D03*
X005032Y004093D03*
X005372Y003303D03*
X005702Y003423D03*
X006082Y003993D03*
X006152Y004153D03*
X006182Y004163D03*
X006362Y004243D03*
X006312Y003973D03*
X006322Y003963D03*
X006542Y003853D03*
X005942Y004323D03*
X005942Y004333D03*
X005942Y004493D03*
X005942Y004503D03*
X006262Y004703D03*
X006362Y004743D03*
X006332Y005303D03*
X005852Y002893D03*
X006022Y002633D03*
D25*
X006017Y002643D03*
X005787Y002873D03*
X005377Y003313D03*
X005207Y002873D03*
X005047Y003173D03*
X004597Y003173D03*
X004557Y003163D03*
X004487Y003833D03*
X005807Y005663D03*
X006577Y003253D03*
D26*
X006612Y003263D03*
X006602Y003283D03*
X006492Y003343D03*
X006522Y003393D03*
X006532Y003403D03*
X006542Y003413D03*
X006562Y003423D03*
X006572Y003433D03*
X006292Y003253D03*
X006082Y003023D03*
X006072Y003013D03*
X006012Y002973D03*
X005932Y002683D03*
X005942Y002673D03*
X005962Y002663D03*
X005972Y002653D03*
X006222Y002703D03*
X005802Y003753D03*
X005792Y003763D03*
X005742Y003803D03*
X005582Y004023D03*
X005582Y004033D03*
X005572Y004053D03*
X005572Y004063D03*
X005512Y003543D03*
X005522Y003533D03*
X005582Y003483D03*
X005602Y003473D03*
X005632Y003453D03*
X005432Y003333D03*
X005422Y003323D03*
X005332Y003323D03*
X005252Y003413D03*
X005122Y003203D03*
X005042Y003163D03*
X004972Y003203D03*
X004892Y003303D03*
X004822Y003063D03*
X004832Y003053D03*
X004862Y003033D03*
X004872Y003023D03*
X004892Y003013D03*
X004902Y003003D03*
X004552Y003493D03*
X004942Y004043D03*
X004952Y004053D03*
X004972Y004063D03*
X004992Y004183D03*
X004982Y004193D03*
X004962Y004203D03*
X004952Y004213D03*
X004942Y004223D03*
X005422Y004693D03*
X005942Y004533D03*
X006292Y004523D03*
X006292Y004513D03*
X006292Y004673D03*
X006482Y004813D03*
X006512Y004833D03*
X006532Y004843D03*
X006542Y004853D03*
X006562Y004863D03*
X006572Y004873D03*
X006592Y004883D03*
X006602Y004893D03*
X006612Y004903D03*
X006632Y004913D03*
X006642Y004923D03*
X006672Y004943D03*
X006682Y004953D03*
X006732Y004993D03*
X006742Y005003D03*
X006732Y005073D03*
X006722Y005083D03*
X006712Y005093D03*
X006692Y005103D03*
X006682Y005113D03*
X006662Y005123D03*
X006632Y005143D03*
X006602Y005163D03*
X006552Y005193D03*
X006042Y005543D03*
X006032Y005553D03*
X006002Y005573D03*
X005972Y005593D03*
X005852Y005313D03*
X005822Y005293D03*
X005082Y005573D03*
X005052Y005553D03*
X005042Y005543D03*
X005022Y005533D03*
X005012Y005523D03*
X006322Y004233D03*
X006402Y004293D03*
X006252Y004093D03*
X006242Y004083D03*
X006232Y004073D03*
X006382Y003933D03*
X006392Y003923D03*
D27*
X006367Y003943D03*
X006357Y003953D03*
X006307Y003943D03*
X006267Y004103D03*
X006277Y004113D03*
X006287Y004123D03*
X006297Y004133D03*
X006307Y004143D03*
X006317Y004153D03*
X006327Y004163D03*
X006337Y004173D03*
X006347Y004183D03*
X006377Y004213D03*
X006377Y004223D03*
X006477Y003983D03*
X006497Y003953D03*
X006517Y003923D03*
X006547Y003883D03*
X006587Y003443D03*
X006507Y003383D03*
X006497Y003373D03*
X006487Y003363D03*
X006617Y003273D03*
X006297Y003273D03*
X006257Y003213D03*
X006227Y003173D03*
X006217Y003163D03*
X006187Y003123D03*
X006177Y003113D03*
X006167Y003103D03*
X006157Y003093D03*
X006147Y003083D03*
X006137Y003073D03*
X006127Y003063D03*
X006117Y003053D03*
X006107Y003043D03*
X006097Y003033D03*
X006057Y003003D03*
X006097Y002943D03*
X006117Y002913D03*
X006137Y002883D03*
X006067Y002773D03*
X005917Y002693D03*
X005907Y002703D03*
X005897Y002713D03*
X005887Y002723D03*
X005877Y002733D03*
X005867Y002743D03*
X005857Y002753D03*
X005847Y002763D03*
X005837Y002773D03*
X005827Y002783D03*
X005817Y002793D03*
X005807Y002803D03*
X005797Y002813D03*
X005787Y002823D03*
X005457Y003363D03*
X005467Y003373D03*
X005317Y003333D03*
X005307Y003343D03*
X005297Y003353D03*
X005257Y003423D03*
X005167Y003243D03*
X005157Y003233D03*
X005147Y003223D03*
X005137Y003213D03*
X004957Y003213D03*
X004947Y003223D03*
X004897Y003313D03*
X004717Y003173D03*
X004737Y003143D03*
X004747Y003133D03*
X004757Y003123D03*
X004767Y003113D03*
X004777Y003103D03*
X004787Y003093D03*
X004797Y003083D03*
X004807Y003073D03*
X004847Y003043D03*
X004527Y003453D03*
X004537Y003463D03*
X004547Y003473D03*
X004557Y003483D03*
X004587Y003523D03*
X004597Y003533D03*
X004617Y003563D03*
X004627Y003573D03*
X004647Y003603D03*
X004727Y003723D03*
X004477Y003603D03*
X004497Y003413D03*
X004487Y003403D03*
X004477Y003393D03*
X004467Y003383D03*
X004457Y003373D03*
X004447Y003363D03*
X004417Y003323D03*
X004407Y003313D03*
X004397Y003303D03*
X004367Y003263D03*
X004337Y003163D03*
X004427Y003813D03*
X004867Y003963D03*
X004897Y004003D03*
X004907Y004013D03*
X004917Y004023D03*
X004927Y004033D03*
X004927Y004233D03*
X004917Y004243D03*
X004907Y004253D03*
X004897Y004263D03*
X004887Y004273D03*
X004877Y004283D03*
X004867Y004293D03*
X004857Y004303D03*
X004847Y004313D03*
X004827Y004343D03*
X005417Y004703D03*
X005427Y004723D03*
X005437Y004733D03*
X005437Y004743D03*
X005447Y004753D03*
X005447Y004763D03*
X005457Y004783D03*
X005647Y005103D03*
X005667Y005133D03*
X005677Y005143D03*
X005697Y005173D03*
X005707Y005183D03*
X005717Y005193D03*
X005727Y005203D03*
X005737Y005213D03*
X005747Y005223D03*
X005757Y005233D03*
X005767Y005243D03*
X005777Y005253D03*
X005787Y005263D03*
X005797Y005273D03*
X005807Y005283D03*
X006017Y005563D03*
X006057Y005533D03*
X006067Y005523D03*
X006077Y005513D03*
X006087Y005503D03*
X006097Y005493D03*
X006107Y005483D03*
X006117Y005473D03*
X006127Y005463D03*
X006157Y005423D03*
X006177Y005393D03*
X006747Y005063D03*
X006757Y005053D03*
X006767Y005043D03*
X006767Y005023D03*
X006757Y005013D03*
X006717Y004983D03*
X006707Y004973D03*
X006697Y004963D03*
X006657Y004933D03*
X005937Y004283D03*
X005967Y004133D03*
X005797Y003993D03*
X005687Y003863D03*
X005697Y003853D03*
X005727Y003813D03*
X005757Y003793D03*
X005767Y003783D03*
X005777Y003773D03*
X005877Y003703D03*
X005737Y003393D03*
X005547Y003513D03*
X005537Y003523D03*
X005497Y003553D03*
X005487Y003563D03*
X005477Y003573D03*
X005447Y003613D03*
X005437Y003623D03*
X005427Y003633D03*
X005407Y003663D03*
X005387Y003693D03*
X005567Y004073D03*
X005567Y004083D03*
X005567Y004093D03*
X005837Y004613D03*
X004967Y005483D03*
X004957Y005473D03*
X004947Y005463D03*
X004937Y005453D03*
X004927Y005443D03*
X004917Y005433D03*
X004907Y005423D03*
X004897Y005413D03*
X004877Y005383D03*
X004867Y005373D03*
X004977Y005493D03*
X004987Y005503D03*
X004997Y005513D03*
D28*
X004797Y005253D03*
X004767Y005183D03*
X004757Y005153D03*
X004747Y005123D03*
X004737Y005083D03*
X004727Y005053D03*
X004727Y005043D03*
X004717Y005003D03*
X004717Y004993D03*
X004707Y004953D03*
X004707Y004943D03*
X004707Y004933D03*
X004697Y004873D03*
X004697Y004863D03*
X004697Y004853D03*
X004697Y004843D03*
X004697Y004833D03*
X004697Y004823D03*
X004697Y004813D03*
X004697Y004803D03*
X004697Y004793D03*
X004697Y004783D03*
X004697Y004773D03*
X004697Y004763D03*
X004697Y004753D03*
X004697Y004743D03*
X004697Y004733D03*
X004697Y004723D03*
X004697Y004713D03*
X004697Y004703D03*
X004697Y004693D03*
X004707Y004643D03*
X004707Y004633D03*
X004707Y004623D03*
X004717Y004583D03*
X004727Y004543D03*
X004737Y004513D03*
X004757Y004463D03*
X004767Y004443D03*
X004477Y003853D03*
X004417Y003733D03*
X004427Y003703D03*
X004337Y003213D03*
X005217Y003333D03*
X005227Y003363D03*
X005527Y003483D03*
X005687Y003533D03*
X005677Y003563D03*
X005667Y003593D03*
X005657Y003623D03*
X005647Y003653D03*
X005637Y003683D03*
X005637Y003693D03*
X005627Y003723D03*
X005617Y003753D03*
X005617Y003763D03*
X005607Y003793D03*
X005607Y003803D03*
X005597Y003833D03*
X005597Y003843D03*
X005587Y003883D03*
X005587Y003893D03*
X005577Y003933D03*
X005577Y003943D03*
X005577Y003953D03*
X005567Y003993D03*
X005557Y004133D03*
X005557Y004143D03*
X005557Y004153D03*
X005557Y004163D03*
X005557Y004173D03*
X005557Y004183D03*
X005557Y004193D03*
X005557Y004203D03*
X005557Y004213D03*
X005567Y004323D03*
X005567Y004333D03*
X005567Y004343D03*
X005567Y004353D03*
X005567Y004363D03*
X005567Y004373D03*
X005577Y004423D03*
X005577Y004433D03*
X005577Y004443D03*
X005577Y004453D03*
X005587Y004493D03*
X005587Y004503D03*
X005587Y004513D03*
X005587Y004523D03*
X005597Y004563D03*
X005597Y004573D03*
X005607Y004613D03*
X005607Y004623D03*
X005757Y004613D03*
X005747Y004563D03*
X005747Y004553D03*
X005747Y004543D03*
X005747Y004533D03*
X005747Y004523D03*
X005737Y004453D03*
X005737Y004443D03*
X005737Y004433D03*
X005737Y004423D03*
X005737Y004413D03*
X005737Y004403D03*
X005737Y004393D03*
X005737Y004383D03*
X005737Y004373D03*
X005737Y004363D03*
X005737Y004353D03*
X005737Y004343D03*
X005737Y004333D03*
X005737Y004323D03*
X005737Y004313D03*
X005737Y004303D03*
X005737Y004293D03*
X005737Y004283D03*
X005737Y004273D03*
X005737Y004263D03*
X005737Y004253D03*
X005737Y004243D03*
X005737Y004233D03*
X005737Y004223D03*
X005747Y004173D03*
X005747Y004163D03*
X005747Y004153D03*
X005757Y004123D03*
X005757Y004113D03*
X005757Y004103D03*
X005767Y004073D03*
X005767Y004063D03*
X005777Y004033D03*
X005777Y004023D03*
X005797Y003953D03*
X005807Y003923D03*
X005817Y003893D03*
X005827Y003863D03*
X005827Y003853D03*
X005837Y003833D03*
X005847Y003803D03*
X005857Y003773D03*
X005707Y003483D03*
X005717Y003453D03*
X005747Y003383D03*
X006057Y002703D03*
X006227Y002743D03*
X006417Y003513D03*
X006417Y003523D03*
X006427Y003563D03*
X006427Y003573D03*
X006427Y003583D03*
X006427Y003593D03*
X006427Y003603D03*
X006427Y003613D03*
X006427Y003623D03*
X006427Y003633D03*
X006427Y003643D03*
X006427Y003653D03*
X006417Y003693D03*
X006417Y003703D03*
X006407Y003743D03*
X006397Y003773D03*
X006377Y003823D03*
X006367Y003843D03*
X006357Y003863D03*
X006437Y004063D03*
X006417Y004113D03*
X006407Y004143D03*
X006397Y004173D03*
X006397Y004183D03*
X006417Y004303D03*
X006417Y004313D03*
X006427Y004343D03*
X006427Y004353D03*
X006427Y004363D03*
X006437Y004413D03*
X006437Y004423D03*
X006437Y004433D03*
X006437Y004443D03*
X006437Y004453D03*
X006437Y004463D03*
X006437Y004473D03*
X006437Y004483D03*
X006437Y004493D03*
X006427Y004553D03*
X006427Y004563D03*
X006427Y004573D03*
X006427Y004583D03*
X006427Y004593D03*
X006417Y004633D03*
X006417Y004643D03*
X006417Y004653D03*
X006407Y004693D03*
X006407Y004703D03*
X006397Y004733D03*
X006297Y004493D03*
X005517Y004893D03*
X005387Y004643D03*
X005367Y004593D03*
X005357Y004563D03*
X005347Y004533D03*
X005347Y004523D03*
X005337Y004493D03*
X005327Y004463D03*
X005327Y004453D03*
X005317Y004423D03*
X005317Y004413D03*
X005307Y004373D03*
X005307Y004363D03*
X005307Y004353D03*
X005297Y004313D03*
X005297Y004303D03*
X005297Y004293D03*
X005297Y004283D03*
X005287Y004233D03*
X005287Y004223D03*
X005287Y004213D03*
X005287Y004203D03*
X005287Y004193D03*
X005287Y004183D03*
X005287Y004173D03*
X005287Y004163D03*
X005287Y004073D03*
X005287Y004063D03*
X005287Y004053D03*
X005287Y004043D03*
X005287Y004033D03*
X005287Y004023D03*
X005287Y004013D03*
X005287Y004003D03*
X005297Y003953D03*
X005297Y003943D03*
X005297Y003933D03*
X005297Y003923D03*
X005307Y003893D03*
X005307Y003883D03*
X005317Y003853D03*
X005327Y003823D03*
X005337Y003793D03*
D29*
X005557Y003493D03*
X005707Y003413D03*
X005847Y003733D03*
X005837Y003743D03*
X006107Y004003D03*
X006227Y004063D03*
X006257Y004033D03*
X006267Y004023D03*
X006297Y003983D03*
X006467Y003883D03*
X006367Y004253D03*
X006227Y004183D03*
X006207Y004173D03*
X005937Y004313D03*
X006287Y004713D03*
X006407Y005273D03*
X006387Y005283D03*
X006357Y005293D03*
X005897Y005333D03*
X005867Y005643D03*
X005567Y005713D03*
X005207Y005633D03*
X005077Y004113D03*
X004597Y003793D03*
X004557Y003513D03*
X004737Y003223D03*
X004767Y003233D03*
X004787Y003243D03*
X005057Y002923D03*
X005877Y002903D03*
X006047Y002983D03*
X006077Y002763D03*
X006207Y002713D03*
D30*
X006192Y002723D03*
X006092Y002753D03*
X006422Y003213D03*
X006522Y003863D03*
X006222Y004053D03*
X006092Y004133D03*
X005942Y004353D03*
X005942Y004363D03*
X005942Y004373D03*
X005942Y004383D03*
X005942Y004393D03*
X005942Y004403D03*
X005942Y004413D03*
X005942Y004423D03*
X005942Y004433D03*
X005942Y004443D03*
X005942Y004453D03*
X005942Y004463D03*
X005942Y004473D03*
X006272Y005323D03*
X005272Y005653D03*
X005062Y004103D03*
X004662Y003193D03*
X005172Y002883D03*
D31*
X005247Y002863D03*
X004697Y003763D03*
X006107Y002743D03*
X006177Y002733D03*
X006467Y003483D03*
X006227Y005333D03*
D32*
X005587Y004653D03*
X005487Y002823D03*
D33*
X005497Y002833D03*
X006447Y003243D03*
D34*
X005497Y002843D03*
D35*
X005302Y002853D03*
X006032Y004123D03*
X006232Y004683D03*
X005472Y004673D03*
X005362Y005673D03*
D36*
X006492Y003463D03*
X005682Y002853D03*
D37*
X005742Y002863D03*
X004652Y003183D03*
X004492Y003823D03*
X005762Y005673D03*
D38*
X005837Y005653D03*
X006307Y005313D03*
X005937Y004483D03*
X005937Y004343D03*
X006127Y004143D03*
X006057Y003983D03*
X005687Y003433D03*
X005817Y002883D03*
X005137Y002893D03*
X004707Y003753D03*
X004647Y003773D03*
X005437Y004683D03*
X005237Y005643D03*
D39*
X005117Y005593D03*
X005097Y005583D03*
X005067Y005563D03*
X005837Y005303D03*
X005987Y005583D03*
X005957Y005603D03*
X005937Y005613D03*
X006427Y005263D03*
X006447Y005253D03*
X006467Y005243D03*
X006487Y005233D03*
X006497Y005223D03*
X006517Y005213D03*
X006537Y005203D03*
X006567Y005183D03*
X006587Y005173D03*
X006617Y005153D03*
X006647Y005133D03*
X006497Y004823D03*
X006467Y004803D03*
X006447Y004793D03*
X006427Y004783D03*
X006297Y004663D03*
X006297Y004653D03*
X006297Y004543D03*
X006297Y004533D03*
X006397Y004283D03*
X006387Y004273D03*
X006377Y004203D03*
X006307Y004223D03*
X006167Y004033D03*
X006147Y004023D03*
X006407Y003913D03*
X006427Y003903D03*
X005937Y004293D03*
X005577Y004043D03*
X005587Y004013D03*
X005587Y004003D03*
X005857Y003723D03*
X005867Y003713D03*
X005647Y003443D03*
X005617Y003463D03*
X005557Y003503D03*
X005377Y003293D03*
X005257Y003393D03*
X005257Y003403D03*
X004847Y003273D03*
X004827Y003263D03*
X004917Y002993D03*
X004937Y002983D03*
X004957Y002973D03*
X004357Y003153D03*
X004557Y003503D03*
X004987Y004073D03*
X005037Y004153D03*
X005027Y004163D03*
X005007Y004173D03*
X005057Y004143D03*
X005077Y004133D03*
X005087Y004123D03*
X005977Y002953D03*
X005997Y002963D03*
X006047Y002993D03*
X006507Y003333D03*
X006587Y003293D03*
D40*
X006117Y004663D03*
X005047Y003183D03*
X004507Y003153D03*
X004427Y003133D03*
D41*
X004442Y003143D03*
D42*
X005047Y003193D03*
X005927Y003953D03*
D43*
X006417Y003223D03*
D44*
X006432Y003233D03*
D45*
X005767Y003373D03*
X005907Y003683D03*
X005967Y004143D03*
X004897Y003323D03*
D46*
X005252Y003443D03*
X005892Y003693D03*
X005942Y004273D03*
D47*
X006497Y003453D03*
D48*
X006487Y003473D03*
X006057Y004653D03*
D49*
X006162Y004673D03*
X006252Y004693D03*
X006022Y004113D03*
X006222Y004043D03*
X006512Y003873D03*
X005302Y005663D03*
D50*
X005912Y003963D03*
D51*
X005927Y003973D03*
X005837Y004623D03*
D52*
X005827Y004633D03*
D53*
X005817Y004643D03*
D54*
X005532Y004663D03*
D55*
X006072Y005343D03*
D56*
X006062Y005353D03*
D57*
X006067Y005363D03*
D58*
X005557Y005683D03*
D59*
X005562Y005693D03*
D60*
X005562Y005703D03*
M02*
