G75*
%MOIN*%
%OFA0B0*%
%FSLAX24Y24*%
%IPPOS*%
%LPD*%
%AMOC8*
5,1,8,0,0,1.08239X$1,22.5*
%
%ADD10C,0.0000*%
%ADD11C,0.0040*%
%ADD12C,0.0030*%
%ADD13C,0.0100*%
%ADD14C,0.0050*%
%ADD15C,0.0060*%
%ADD16R,0.0040X0.0010*%
%ADD17R,0.0080X0.0010*%
%ADD18R,0.0100X0.0010*%
%ADD19R,0.0130X0.0010*%
%ADD20R,0.0060X0.0010*%
%ADD21R,0.0050X0.0010*%
%ADD22R,0.0030X0.0010*%
%ADD23R,0.0090X0.0010*%
%ADD24R,0.0120X0.0010*%
%ADD25R,0.0150X0.0010*%
%ADD26R,0.0270X0.0010*%
%ADD27R,0.0390X0.0010*%
%ADD28R,0.0490X0.0010*%
%ADD29R,0.0180X0.0010*%
%ADD30R,0.0220X0.0010*%
%ADD31R,0.0160X0.0010*%
%ADD32R,0.0110X0.0010*%
%ADD33R,0.0070X0.0010*%
%ADD34R,0.0170X0.0010*%
%ADD35R,0.0240X0.0010*%
%ADD36R,0.0190X0.0010*%
%ADD37R,0.0250X0.0010*%
%ADD38R,0.0360X0.0010*%
%ADD39R,0.0010X0.0010*%
%ADD40R,0.0020X0.0010*%
%ADD41R,0.0230X0.0010*%
%ADD42R,0.0210X0.0010*%
%ADD43R,0.0140X0.0010*%
%ADD44R,0.0280X0.0010*%
%ADD45R,0.0310X0.0010*%
%ADD46R,0.0470X0.0010*%
%ADD47R,0.0590X0.0010*%
%ADD48R,0.0200X0.0010*%
%ADD49R,0.0400X0.0010*%
%ADD50R,0.0340X0.0010*%
%ADD51R,0.0290X0.0010*%
%ADD52R,0.0510X0.0010*%
%ADD53R,0.0420X0.0010*%
%ADD54R,0.0300X0.0010*%
D10*
X001857Y002453D02*
X001857Y036312D01*
X026660Y036312D01*
X026660Y002453D01*
X001857Y002453D01*
X002408Y003634D02*
X002410Y003684D01*
X002416Y003734D01*
X002426Y003783D01*
X002440Y003831D01*
X002457Y003878D01*
X002478Y003923D01*
X002503Y003967D01*
X002531Y004008D01*
X002563Y004047D01*
X002597Y004084D01*
X002634Y004118D01*
X002674Y004148D01*
X002716Y004175D01*
X002760Y004199D01*
X002806Y004220D01*
X002853Y004236D01*
X002901Y004249D01*
X002951Y004258D01*
X003000Y004263D01*
X003051Y004264D01*
X003101Y004261D01*
X003150Y004254D01*
X003199Y004243D01*
X003247Y004228D01*
X003293Y004210D01*
X003338Y004188D01*
X003381Y004162D01*
X003422Y004133D01*
X003461Y004101D01*
X003497Y004066D01*
X003529Y004028D01*
X003559Y003988D01*
X003586Y003945D01*
X003609Y003901D01*
X003628Y003855D01*
X003644Y003807D01*
X003656Y003758D01*
X003664Y003709D01*
X003668Y003659D01*
X003668Y003609D01*
X003664Y003559D01*
X003656Y003510D01*
X003644Y003461D01*
X003628Y003413D01*
X003609Y003367D01*
X003586Y003323D01*
X003559Y003280D01*
X003529Y003240D01*
X003497Y003202D01*
X003461Y003167D01*
X003422Y003135D01*
X003381Y003106D01*
X003338Y003080D01*
X003293Y003058D01*
X003247Y003040D01*
X003199Y003025D01*
X003150Y003014D01*
X003101Y003007D01*
X003051Y003004D01*
X003000Y003005D01*
X002951Y003010D01*
X002901Y003019D01*
X002853Y003032D01*
X002806Y003048D01*
X002760Y003069D01*
X002716Y003093D01*
X002674Y003120D01*
X002634Y003150D01*
X002597Y003184D01*
X002563Y003221D01*
X002531Y003260D01*
X002503Y003301D01*
X002478Y003345D01*
X002457Y003390D01*
X002440Y003437D01*
X002426Y003485D01*
X002416Y003534D01*
X002410Y003584D01*
X002408Y003634D01*
X024849Y003634D02*
X024851Y003684D01*
X024857Y003734D01*
X024867Y003783D01*
X024881Y003831D01*
X024898Y003878D01*
X024919Y003923D01*
X024944Y003967D01*
X024972Y004008D01*
X025004Y004047D01*
X025038Y004084D01*
X025075Y004118D01*
X025115Y004148D01*
X025157Y004175D01*
X025201Y004199D01*
X025247Y004220D01*
X025294Y004236D01*
X025342Y004249D01*
X025392Y004258D01*
X025441Y004263D01*
X025492Y004264D01*
X025542Y004261D01*
X025591Y004254D01*
X025640Y004243D01*
X025688Y004228D01*
X025734Y004210D01*
X025779Y004188D01*
X025822Y004162D01*
X025863Y004133D01*
X025902Y004101D01*
X025938Y004066D01*
X025970Y004028D01*
X026000Y003988D01*
X026027Y003945D01*
X026050Y003901D01*
X026069Y003855D01*
X026085Y003807D01*
X026097Y003758D01*
X026105Y003709D01*
X026109Y003659D01*
X026109Y003609D01*
X026105Y003559D01*
X026097Y003510D01*
X026085Y003461D01*
X026069Y003413D01*
X026050Y003367D01*
X026027Y003323D01*
X026000Y003280D01*
X025970Y003240D01*
X025938Y003202D01*
X025902Y003167D01*
X025863Y003135D01*
X025822Y003106D01*
X025779Y003080D01*
X025734Y003058D01*
X025688Y003040D01*
X025640Y003025D01*
X025591Y003014D01*
X025542Y003007D01*
X025492Y003004D01*
X025441Y003005D01*
X025392Y003010D01*
X025342Y003019D01*
X025294Y003032D01*
X025247Y003048D01*
X025201Y003069D01*
X025157Y003093D01*
X025115Y003120D01*
X025075Y003150D01*
X025038Y003184D01*
X025004Y003221D01*
X024972Y003260D01*
X024944Y003301D01*
X024919Y003345D01*
X024898Y003390D01*
X024881Y003437D01*
X024867Y003485D01*
X024857Y003534D01*
X024851Y003584D01*
X024849Y003634D01*
X024849Y035130D02*
X024851Y035180D01*
X024857Y035230D01*
X024867Y035279D01*
X024881Y035327D01*
X024898Y035374D01*
X024919Y035419D01*
X024944Y035463D01*
X024972Y035504D01*
X025004Y035543D01*
X025038Y035580D01*
X025075Y035614D01*
X025115Y035644D01*
X025157Y035671D01*
X025201Y035695D01*
X025247Y035716D01*
X025294Y035732D01*
X025342Y035745D01*
X025392Y035754D01*
X025441Y035759D01*
X025492Y035760D01*
X025542Y035757D01*
X025591Y035750D01*
X025640Y035739D01*
X025688Y035724D01*
X025734Y035706D01*
X025779Y035684D01*
X025822Y035658D01*
X025863Y035629D01*
X025902Y035597D01*
X025938Y035562D01*
X025970Y035524D01*
X026000Y035484D01*
X026027Y035441D01*
X026050Y035397D01*
X026069Y035351D01*
X026085Y035303D01*
X026097Y035254D01*
X026105Y035205D01*
X026109Y035155D01*
X026109Y035105D01*
X026105Y035055D01*
X026097Y035006D01*
X026085Y034957D01*
X026069Y034909D01*
X026050Y034863D01*
X026027Y034819D01*
X026000Y034776D01*
X025970Y034736D01*
X025938Y034698D01*
X025902Y034663D01*
X025863Y034631D01*
X025822Y034602D01*
X025779Y034576D01*
X025734Y034554D01*
X025688Y034536D01*
X025640Y034521D01*
X025591Y034510D01*
X025542Y034503D01*
X025492Y034500D01*
X025441Y034501D01*
X025392Y034506D01*
X025342Y034515D01*
X025294Y034528D01*
X025247Y034544D01*
X025201Y034565D01*
X025157Y034589D01*
X025115Y034616D01*
X025075Y034646D01*
X025038Y034680D01*
X025004Y034717D01*
X024972Y034756D01*
X024944Y034797D01*
X024919Y034841D01*
X024898Y034886D01*
X024881Y034933D01*
X024867Y034981D01*
X024857Y035030D01*
X024851Y035080D01*
X024849Y035130D01*
X002408Y035130D02*
X002410Y035180D01*
X002416Y035230D01*
X002426Y035279D01*
X002440Y035327D01*
X002457Y035374D01*
X002478Y035419D01*
X002503Y035463D01*
X002531Y035504D01*
X002563Y035543D01*
X002597Y035580D01*
X002634Y035614D01*
X002674Y035644D01*
X002716Y035671D01*
X002760Y035695D01*
X002806Y035716D01*
X002853Y035732D01*
X002901Y035745D01*
X002951Y035754D01*
X003000Y035759D01*
X003051Y035760D01*
X003101Y035757D01*
X003150Y035750D01*
X003199Y035739D01*
X003247Y035724D01*
X003293Y035706D01*
X003338Y035684D01*
X003381Y035658D01*
X003422Y035629D01*
X003461Y035597D01*
X003497Y035562D01*
X003529Y035524D01*
X003559Y035484D01*
X003586Y035441D01*
X003609Y035397D01*
X003628Y035351D01*
X003644Y035303D01*
X003656Y035254D01*
X003664Y035205D01*
X003668Y035155D01*
X003668Y035105D01*
X003664Y035055D01*
X003656Y035006D01*
X003644Y034957D01*
X003628Y034909D01*
X003609Y034863D01*
X003586Y034819D01*
X003559Y034776D01*
X003529Y034736D01*
X003497Y034698D01*
X003461Y034663D01*
X003422Y034631D01*
X003381Y034602D01*
X003338Y034576D01*
X003293Y034554D01*
X003247Y034536D01*
X003199Y034521D01*
X003150Y034510D01*
X003101Y034503D01*
X003051Y034500D01*
X003000Y034501D01*
X002951Y034506D01*
X002901Y034515D01*
X002853Y034528D01*
X002806Y034544D01*
X002760Y034565D01*
X002716Y034589D01*
X002674Y034616D01*
X002634Y034646D01*
X002597Y034680D01*
X002563Y034717D01*
X002531Y034756D01*
X002503Y034797D01*
X002478Y034841D01*
X002457Y034886D01*
X002440Y034933D01*
X002426Y034981D01*
X002416Y035030D01*
X002410Y035080D01*
X002408Y035130D01*
D11*
X004271Y005154D02*
X004578Y004693D01*
X004885Y004693D02*
X004885Y005154D01*
X005038Y005154D02*
X004731Y005154D01*
X004578Y005154D02*
X004271Y004693D01*
X005192Y004693D02*
X005192Y005000D01*
X005345Y005154D01*
X005498Y005000D01*
X005498Y004693D01*
X005498Y004924D02*
X005192Y004924D01*
X006841Y003104D02*
X006765Y003027D01*
X006765Y002874D01*
X006841Y002797D01*
X007072Y002797D01*
X007072Y002643D02*
X007072Y003104D01*
X006841Y003104D01*
X006918Y002797D02*
X006765Y002643D01*
X007225Y002720D02*
X007302Y002643D01*
X007455Y002643D01*
X007532Y002720D01*
X007532Y003027D01*
X007455Y003104D01*
X007302Y003104D01*
X007225Y003027D01*
X007686Y003027D02*
X007686Y002874D01*
X007762Y002797D01*
X007992Y002797D01*
X007992Y002643D02*
X007992Y003104D01*
X007762Y003104D01*
X007686Y003027D01*
X008146Y002874D02*
X008146Y002643D01*
X008376Y002643D01*
X008453Y002720D01*
X008376Y002797D01*
X008146Y002797D01*
X008146Y002874D02*
X008223Y002950D01*
X008376Y002950D01*
X008606Y002950D02*
X008606Y002567D01*
X008683Y002490D01*
X008760Y002490D01*
X008913Y002643D02*
X008913Y002874D01*
X008990Y002950D01*
X009220Y002950D01*
X009220Y002643D01*
X009374Y002643D02*
X009527Y002643D01*
X009450Y002643D02*
X009450Y002950D01*
X009527Y002950D01*
X009450Y003104D02*
X009450Y003180D01*
X009681Y003104D02*
X009681Y002643D01*
X009987Y003104D01*
X009987Y002643D01*
X010448Y002643D02*
X010141Y003104D01*
X010601Y002874D02*
X010601Y002643D01*
X010601Y002874D02*
X010678Y002950D01*
X010908Y002950D01*
X010908Y002643D01*
X011062Y002643D02*
X011215Y002643D01*
X011138Y002643D02*
X011138Y002950D01*
X011215Y002950D01*
X011369Y002874D02*
X011369Y002643D01*
X011369Y002874D02*
X011445Y002950D01*
X011599Y002950D01*
X011676Y002874D01*
X011829Y002950D02*
X012059Y002950D01*
X012136Y002874D01*
X012059Y002797D01*
X011906Y002797D01*
X011829Y002720D01*
X011906Y002643D01*
X012136Y002643D01*
X012289Y002643D02*
X012520Y002643D01*
X012596Y002720D01*
X012520Y002797D01*
X012289Y002797D01*
X012289Y002874D02*
X012289Y002643D01*
X012289Y002874D02*
X012366Y002950D01*
X012520Y002950D01*
X012750Y002950D02*
X012980Y002950D01*
X013057Y002874D01*
X012980Y002797D01*
X012827Y002797D01*
X012750Y002720D01*
X012827Y002643D01*
X013057Y002643D01*
X013210Y002643D02*
X013364Y002643D01*
X013287Y002643D02*
X013287Y002950D01*
X013364Y002950D01*
X013517Y002874D02*
X013517Y002643D01*
X013517Y002874D02*
X013594Y002950D01*
X013747Y002950D01*
X013824Y002874D01*
X013824Y003104D02*
X013824Y002643D01*
X014284Y002643D02*
X013978Y003104D01*
X014438Y002874D02*
X014438Y002643D01*
X014591Y002643D02*
X014591Y002874D01*
X014515Y002950D01*
X014438Y002874D01*
X014591Y002874D02*
X014668Y002950D01*
X014745Y002950D01*
X014745Y002643D01*
X014898Y002720D02*
X014898Y002874D01*
X014975Y002950D01*
X015129Y002950D01*
X015205Y002874D01*
X015205Y002720D01*
X015129Y002643D01*
X014975Y002643D01*
X014898Y002720D01*
X015359Y002643D02*
X015589Y002643D01*
X015666Y002720D01*
X015666Y002874D01*
X015589Y002950D01*
X015359Y002950D01*
X015819Y002720D02*
X015819Y002643D01*
X015896Y002643D01*
X015896Y002720D01*
X015819Y002720D01*
X016049Y002720D02*
X016049Y002874D01*
X016126Y002950D01*
X016356Y002950D01*
X016510Y002950D02*
X016510Y002643D01*
X016740Y002643D01*
X016817Y002720D01*
X016817Y002950D01*
X016970Y002874D02*
X016970Y002643D01*
X016970Y002874D02*
X017047Y002950D01*
X017200Y002950D01*
X017277Y002874D01*
X017430Y002950D02*
X017584Y002950D01*
X017507Y003027D02*
X017507Y002720D01*
X017430Y002643D01*
X017277Y002643D02*
X017277Y003104D01*
X017737Y002643D02*
X017891Y002643D01*
X017814Y002643D02*
X017814Y002950D01*
X017891Y002950D01*
X018044Y002950D02*
X018275Y002950D01*
X018351Y002874D01*
X018351Y002720D01*
X018275Y002643D01*
X018044Y002643D01*
X018044Y002567D02*
X018044Y002950D01*
X017814Y003104D02*
X017814Y003180D01*
X018044Y002567D02*
X018121Y002490D01*
X018198Y002490D01*
X018812Y002643D02*
X018505Y003104D01*
X018965Y003104D02*
X019272Y002643D01*
X019426Y002643D02*
X019502Y002643D01*
X019502Y002720D01*
X019426Y002720D01*
X019426Y002643D01*
X019426Y002874D02*
X019502Y002874D01*
X019502Y002950D01*
X019426Y002950D01*
X019426Y002874D01*
X019656Y002950D02*
X019886Y002950D01*
X019963Y002874D01*
X019886Y002797D01*
X019732Y002797D01*
X019656Y002720D01*
X019732Y002643D01*
X019963Y002643D01*
X020116Y002720D02*
X020193Y002643D01*
X020423Y002643D01*
X020423Y002490D02*
X020423Y002950D01*
X020193Y002950D01*
X020116Y002874D01*
X020116Y002720D01*
X020576Y002643D02*
X020653Y002720D01*
X020653Y003027D01*
X020730Y002950D02*
X020576Y002950D01*
X020883Y002950D02*
X021037Y002950D01*
X020960Y003027D02*
X020960Y002720D01*
X020883Y002643D01*
X021190Y002643D02*
X021190Y002874D01*
X021267Y002950D01*
X021421Y002950D01*
X021497Y002874D01*
X021497Y003104D02*
X021497Y002643D01*
X019367Y004183D02*
X019367Y004644D01*
X019060Y004183D01*
X019060Y004644D01*
X018907Y004490D02*
X018830Y004490D01*
X018830Y004183D01*
X018907Y004183D02*
X018753Y004183D01*
X018600Y004183D02*
X018600Y004490D01*
X018370Y004490D01*
X018293Y004414D01*
X018293Y004183D01*
X018140Y004030D02*
X018063Y004030D01*
X017986Y004107D01*
X017986Y004490D01*
X017986Y004644D02*
X017986Y004720D01*
X017756Y004490D02*
X017602Y004490D01*
X017526Y004414D01*
X017526Y004183D01*
X017756Y004183D01*
X017833Y004260D01*
X017756Y004337D01*
X017526Y004337D01*
X017372Y004337D02*
X017142Y004337D01*
X017065Y004414D01*
X017065Y004567D01*
X017142Y004644D01*
X017372Y004644D01*
X017372Y004183D01*
X016912Y004260D02*
X016835Y004183D01*
X016682Y004183D01*
X016605Y004260D01*
X016451Y004183D02*
X016221Y004183D01*
X016145Y004260D01*
X016145Y004337D01*
X016221Y004414D01*
X016451Y004414D01*
X016605Y004567D02*
X016682Y004644D01*
X016835Y004644D01*
X016912Y004567D01*
X016912Y004260D01*
X016451Y004183D02*
X016451Y004644D01*
X016221Y004644D01*
X016145Y004567D01*
X016145Y004490D01*
X016221Y004414D01*
X015991Y004414D02*
X015684Y004414D01*
X015531Y004414D02*
X015224Y004414D01*
X015070Y004490D02*
X014763Y004183D01*
X014610Y004414D02*
X014303Y004414D01*
X014150Y004414D02*
X013843Y004414D01*
X013689Y004644D02*
X013382Y004183D01*
X013382Y004644D01*
X013229Y004490D02*
X013152Y004490D01*
X013152Y004183D01*
X013229Y004183D02*
X013075Y004183D01*
X012922Y004183D02*
X012922Y004490D01*
X012692Y004490D01*
X012615Y004414D01*
X012615Y004183D01*
X012461Y004183D02*
X012461Y004644D01*
X012154Y004183D01*
X012154Y004644D01*
X012001Y004490D02*
X011924Y004490D01*
X011924Y004183D01*
X011848Y004183D02*
X012001Y004183D01*
X011694Y004183D02*
X011694Y004490D01*
X011464Y004490D01*
X011387Y004414D01*
X011387Y004183D01*
X010773Y004490D02*
X010620Y004183D01*
X010466Y004490D01*
X010313Y004414D02*
X010236Y004490D01*
X010083Y004490D01*
X010006Y004414D01*
X010006Y004337D01*
X010313Y004337D01*
X010313Y004260D02*
X010313Y004414D01*
X010313Y004260D02*
X010236Y004183D01*
X010083Y004183D01*
X009853Y004183D02*
X009853Y004490D01*
X009853Y004337D02*
X009699Y004490D01*
X009622Y004490D01*
X009469Y004567D02*
X009392Y004644D01*
X009239Y004644D01*
X009162Y004567D01*
X009162Y004490D01*
X009469Y004183D01*
X009162Y004183D01*
X009008Y004183D02*
X008932Y004183D01*
X008932Y004260D01*
X009008Y004260D01*
X009008Y004183D01*
X008778Y004260D02*
X008471Y004567D01*
X008471Y004260D01*
X008548Y004183D01*
X008702Y004183D01*
X008778Y004260D01*
X008778Y004567D01*
X008702Y004644D01*
X008548Y004644D01*
X008471Y004567D01*
X008606Y003180D02*
X008606Y003104D01*
X011138Y003104D02*
X011138Y003180D01*
X011676Y003104D02*
X011676Y002643D01*
X011924Y004644D02*
X011924Y004720D01*
X013152Y004720D02*
X013152Y004644D01*
X013689Y004644D02*
X013689Y004183D01*
X014380Y004183D02*
X014380Y004644D01*
X014610Y004414D01*
X014763Y004490D02*
X015070Y004183D01*
X015300Y004183D02*
X015300Y004644D01*
X015531Y004414D01*
X016356Y003104D02*
X016356Y002643D01*
X016126Y002643D01*
X016049Y002720D01*
X013287Y003104D02*
X013287Y003180D01*
X018830Y004644D02*
X018830Y004720D01*
D12*
X019563Y005377D02*
X019563Y005425D01*
X019612Y005473D01*
X019757Y005473D01*
X019757Y005377D01*
X019709Y005328D01*
X019612Y005328D01*
X019563Y005377D01*
X019660Y005570D02*
X019757Y005473D01*
X019660Y005570D02*
X019563Y005619D01*
X019858Y005328D02*
X020052Y005328D01*
X020052Y005619D01*
X020153Y005522D02*
X020153Y005328D01*
X020153Y005473D02*
X020346Y005473D01*
X020346Y005522D02*
X020249Y005619D01*
X020153Y005522D01*
X020346Y005522D02*
X020346Y005328D01*
X020446Y005328D02*
X020543Y005328D01*
X020494Y005328D02*
X020494Y005619D01*
X020446Y005619D02*
X020543Y005619D01*
X020644Y005570D02*
X020644Y005473D01*
X020692Y005425D01*
X020837Y005425D01*
X020741Y005425D02*
X020644Y005328D01*
X020837Y005328D02*
X020837Y005619D01*
X020692Y005619D01*
X020644Y005570D01*
X020938Y005619D02*
X021132Y005619D01*
X021132Y005328D01*
X020938Y005328D01*
X021035Y005473D02*
X021132Y005473D01*
X021233Y005425D02*
X021233Y005377D01*
X021282Y005328D01*
X021378Y005328D01*
X021427Y005377D01*
X021378Y005473D02*
X021282Y005473D01*
X021233Y005425D01*
X021233Y005570D02*
X021282Y005619D01*
X021378Y005619D01*
X021427Y005570D01*
X021427Y005522D01*
X021378Y005473D01*
X021283Y007018D02*
X021477Y007018D01*
X021477Y007309D01*
X021283Y007309D01*
X021380Y007163D02*
X021477Y007163D01*
X021578Y007067D02*
X021578Y007260D01*
X021626Y007309D01*
X021772Y007309D01*
X021772Y007018D01*
X021626Y007018D01*
X021578Y007067D01*
X021873Y007067D02*
X021873Y007260D01*
X021921Y007309D01*
X022018Y007309D01*
X022066Y007260D01*
X022066Y007067D01*
X022018Y007018D01*
X021921Y007018D01*
X021873Y007067D01*
X022167Y007018D02*
X022167Y007309D01*
X022264Y007212D01*
X022361Y007309D01*
X022361Y007018D01*
X024243Y007067D02*
X024292Y007018D01*
X024389Y007018D01*
X024437Y007067D01*
X024243Y007260D01*
X024243Y007067D01*
X024243Y007260D02*
X024292Y007309D01*
X024389Y007309D01*
X024437Y007260D01*
X024437Y007067D01*
X024538Y007067D02*
X024538Y007260D01*
X024586Y007309D01*
X024683Y007309D01*
X024732Y007260D01*
X024732Y007067D01*
X024683Y007018D01*
X024586Y007018D01*
X024538Y007067D01*
X024831Y007018D02*
X024928Y007018D01*
X024880Y007018D02*
X024880Y007309D01*
X024928Y007309D02*
X024831Y007309D01*
X021378Y003789D02*
X021427Y003740D01*
X021427Y003692D01*
X021378Y003643D01*
X021282Y003643D01*
X021233Y003595D01*
X021233Y003547D01*
X021282Y003498D01*
X021378Y003498D01*
X021427Y003547D01*
X021378Y003789D02*
X021282Y003789D01*
X021233Y003740D01*
X021132Y003789D02*
X021132Y003498D01*
X020938Y003498D01*
X020837Y003498D02*
X020837Y003789D01*
X020692Y003789D01*
X020644Y003740D01*
X020644Y003643D01*
X020692Y003595D01*
X020837Y003595D01*
X020741Y003595D02*
X020644Y003498D01*
X020543Y003498D02*
X020446Y003498D01*
X020494Y003498D02*
X020494Y003789D01*
X020446Y003789D02*
X020543Y003789D01*
X020346Y003692D02*
X020249Y003789D01*
X020153Y003692D01*
X020153Y003498D01*
X020052Y003498D02*
X019858Y003498D01*
X019757Y003643D02*
X019563Y003643D01*
X019612Y003498D02*
X019612Y003789D01*
X019757Y003643D01*
X020052Y003498D02*
X020052Y003789D01*
X020153Y003643D02*
X020346Y003643D01*
X020346Y003692D02*
X020346Y003498D01*
X020938Y003789D02*
X021132Y003789D01*
X021132Y003643D02*
X021035Y003643D01*
X019426Y007018D02*
X019426Y007309D01*
X019281Y007309D01*
X019233Y007260D01*
X019233Y007163D01*
X019281Y007115D01*
X019426Y007115D01*
X019329Y007115D02*
X019233Y007018D01*
X019132Y007067D02*
X019083Y007018D01*
X018986Y007018D01*
X018938Y007067D01*
X018938Y007115D01*
X018986Y007163D01*
X019083Y007163D01*
X019132Y007212D01*
X019132Y007260D01*
X019083Y007309D01*
X018986Y007309D01*
X018938Y007260D01*
X018837Y007309D02*
X018643Y007309D01*
X018740Y007309D02*
X018740Y007018D01*
D13*
X006109Y005327D02*
X006109Y025564D01*
X002330Y025564D01*
X002330Y005327D01*
X006109Y005327D01*
X002408Y014776D02*
X001818Y014776D01*
X001818Y016115D01*
X002408Y016115D01*
D14*
X017824Y010323D02*
X017824Y007882D01*
X020265Y007882D01*
X020265Y010323D01*
X017824Y010323D01*
X020580Y010323D02*
X020580Y007882D01*
X023021Y007882D01*
X023021Y010323D01*
X020580Y010323D01*
X023336Y010323D02*
X023336Y007882D01*
X025777Y007882D01*
X025777Y010323D01*
X023336Y010323D01*
D15*
X023257Y006753D02*
X022757Y006753D01*
X022507Y006503D01*
X022257Y006753D01*
X021757Y006753D01*
X021507Y006503D01*
X021257Y006753D01*
X020757Y006753D01*
X020507Y006503D01*
X020257Y006753D01*
X019757Y006753D01*
X019507Y006503D01*
X019507Y006003D01*
X019757Y005753D01*
X020257Y005753D01*
X020507Y006003D01*
X020757Y005753D01*
X021257Y005753D01*
X021507Y006003D01*
X021757Y005753D01*
X022257Y005753D01*
X022507Y006003D01*
X022757Y005753D01*
X023257Y005753D01*
X023507Y006003D01*
X023757Y005753D01*
X024257Y005753D01*
X024507Y006003D01*
X024757Y005753D01*
X025257Y005753D01*
X025507Y006003D01*
X025507Y006503D01*
X025257Y006753D01*
X024757Y006753D01*
X024507Y006503D01*
X024257Y006753D01*
X023757Y006753D01*
X023507Y006503D01*
X023507Y006003D01*
X023507Y006503D02*
X023257Y006753D01*
X022507Y006503D02*
X022507Y006003D01*
X022257Y004953D02*
X021757Y004953D01*
X021507Y004703D01*
X021507Y004203D01*
X021757Y003953D01*
X022257Y003953D01*
X022507Y004203D01*
X022757Y003953D01*
X023257Y003953D01*
X023507Y004203D01*
X023507Y004703D01*
X023257Y004953D01*
X022757Y004953D01*
X022507Y004703D01*
X022257Y004953D01*
X022507Y004703D02*
X022507Y004203D01*
X021507Y004203D02*
X021257Y003953D01*
X020757Y003953D01*
X020507Y004203D01*
X020257Y003953D01*
X019757Y003953D01*
X019507Y004203D01*
X019507Y004703D01*
X019757Y004953D01*
X020257Y004953D01*
X020507Y004703D01*
X020507Y004203D01*
X020507Y004703D02*
X020757Y004953D01*
X021257Y004953D01*
X021507Y004703D01*
X021507Y006003D02*
X021507Y006503D01*
X020507Y006503D02*
X020507Y006003D01*
X024507Y006003D02*
X024507Y006503D01*
D16*
X014832Y005813D03*
X014832Y005803D03*
X014832Y005793D03*
X014832Y005783D03*
X014822Y005833D03*
X014812Y005843D03*
X014812Y005853D03*
X014802Y005863D03*
X014792Y005883D03*
X014782Y005893D03*
X014772Y005903D03*
X014742Y005943D03*
X014732Y005953D03*
X014722Y005963D03*
X014662Y006033D03*
X014652Y006043D03*
X014642Y006053D03*
X014632Y006133D03*
X014642Y006143D03*
X014652Y006153D03*
X014652Y006163D03*
X014662Y006173D03*
X014672Y006183D03*
X014672Y006193D03*
X014682Y006203D03*
X014692Y006223D03*
X014702Y006233D03*
X014702Y006243D03*
X014712Y006253D03*
X014712Y006263D03*
X014722Y006273D03*
X014722Y006283D03*
X014732Y006293D03*
X014732Y006303D03*
X014742Y006323D03*
X014742Y006333D03*
X014752Y006353D03*
X014752Y006363D03*
X014752Y006373D03*
X014752Y006383D03*
X014752Y006393D03*
X014752Y006403D03*
X014742Y006413D03*
X014492Y006253D03*
X014492Y006243D03*
X014502Y006233D03*
X014512Y006223D03*
X014522Y006203D03*
X014532Y006193D03*
X014552Y006163D03*
X014562Y006153D03*
X014482Y006263D03*
X014472Y006273D03*
X014472Y006283D03*
X014462Y006293D03*
X014452Y006303D03*
X014452Y006313D03*
X014442Y006323D03*
X014432Y006343D03*
X014402Y006383D03*
X014402Y006393D03*
X014392Y006403D03*
X014392Y006413D03*
X014382Y006423D03*
X014382Y006433D03*
X014372Y006443D03*
X014372Y006453D03*
X014362Y006463D03*
X014362Y006473D03*
X014352Y006483D03*
X014352Y006493D03*
X014342Y006503D03*
X014332Y006513D03*
X014332Y006523D03*
X014322Y006533D03*
X014322Y006543D03*
X014312Y006553D03*
X014302Y006563D03*
X014292Y006583D03*
X014282Y006593D03*
X014272Y006603D03*
X014322Y006933D03*
X014332Y006943D03*
X014342Y006963D03*
X014352Y006973D03*
X014362Y006983D03*
X014362Y006993D03*
X014372Y007003D03*
X014372Y007013D03*
X014382Y007023D03*
X014392Y007033D03*
X014392Y007043D03*
X014402Y007063D03*
X014412Y007083D03*
X014412Y007093D03*
X014422Y007103D03*
X014422Y007113D03*
X014432Y007133D03*
X014432Y007143D03*
X014442Y007163D03*
X014442Y007173D03*
X014442Y007183D03*
X014452Y007203D03*
X014452Y007213D03*
X014452Y007223D03*
X014462Y007263D03*
X014462Y007273D03*
X014462Y007283D03*
X014462Y007293D03*
X014462Y007493D03*
X014462Y007503D03*
X014462Y007513D03*
X014462Y007523D03*
X014462Y007533D03*
X014452Y007573D03*
X014452Y007583D03*
X014452Y007593D03*
X014442Y007623D03*
X014442Y007633D03*
X014442Y007643D03*
X014432Y007673D03*
X014432Y007683D03*
X014422Y007703D03*
X014422Y007713D03*
X014422Y007723D03*
X014412Y007743D03*
X014412Y007753D03*
X014402Y007773D03*
X014402Y007783D03*
X014392Y007803D03*
X014392Y007813D03*
X014382Y007823D03*
X014382Y007833D03*
X014372Y007843D03*
X014372Y007853D03*
X014362Y007873D03*
X014352Y007883D03*
X014352Y007893D03*
X014342Y007903D03*
X014342Y007913D03*
X014332Y007923D03*
X014332Y007933D03*
X014322Y007943D03*
X014312Y007953D03*
X014312Y007963D03*
X014302Y007973D03*
X014282Y008003D03*
X014272Y008013D03*
X013582Y007623D03*
X013582Y007613D03*
X013592Y007603D03*
X013592Y007593D03*
X013602Y007583D03*
X013612Y007573D03*
X013612Y007563D03*
X013622Y007553D03*
X013622Y007543D03*
X013632Y007533D03*
X013632Y007523D03*
X013642Y007513D03*
X013652Y007493D03*
X013662Y007483D03*
X013662Y007473D03*
X013672Y007463D03*
X013672Y007453D03*
X013682Y007443D03*
X013682Y007433D03*
X013692Y007423D03*
X013692Y007413D03*
X013702Y007403D03*
X013712Y007383D03*
X013742Y007323D03*
X013772Y007273D03*
X013772Y007263D03*
X013782Y007243D03*
X013782Y007233D03*
X013792Y007223D03*
X013792Y007213D03*
X013802Y007193D03*
X013802Y007183D03*
X013812Y007163D03*
X013812Y007153D03*
X013822Y007123D03*
X013822Y007113D03*
X013832Y007093D03*
X013832Y007083D03*
X013842Y007053D03*
X013842Y007043D03*
X013852Y007013D03*
X013852Y007003D03*
X013852Y006993D03*
X013862Y006953D03*
X013862Y006943D03*
X013862Y006933D03*
X013872Y006883D03*
X013872Y006873D03*
X013872Y006863D03*
X013872Y006853D03*
X013882Y006763D03*
X013882Y006753D03*
X013882Y006743D03*
X013882Y006733D03*
X013882Y006723D03*
X013882Y006713D03*
X013882Y006703D03*
X013882Y006693D03*
X013872Y006603D03*
X013872Y006593D03*
X013872Y006583D03*
X013872Y006573D03*
X013862Y006523D03*
X013862Y006513D03*
X013852Y006483D03*
X013852Y006473D03*
X013842Y006453D03*
X013842Y006443D03*
X013832Y006423D03*
X013832Y006413D03*
X013822Y006393D03*
X013822Y006383D03*
X013812Y006373D03*
X013812Y006363D03*
X013802Y006353D03*
X013802Y006343D03*
X013792Y006333D03*
X013792Y006323D03*
X013782Y006313D03*
X013772Y006293D03*
X013762Y006283D03*
X013752Y006263D03*
X013742Y006253D03*
X013712Y006213D03*
X013702Y006203D03*
X013692Y006193D03*
X013642Y006083D03*
X013642Y006073D03*
X013652Y006063D03*
X013652Y006053D03*
X013662Y006043D03*
X013662Y006033D03*
X013672Y006023D03*
X013682Y006013D03*
X013682Y006003D03*
X013692Y005993D03*
X013712Y005963D03*
X013722Y005953D03*
X013872Y005973D03*
X013882Y005983D03*
X013882Y005993D03*
X013932Y005993D03*
X013932Y005983D03*
X013942Y005963D03*
X013942Y005953D03*
X013952Y005933D03*
X013952Y005923D03*
X013962Y005913D03*
X013962Y005903D03*
X013972Y005893D03*
X013972Y005883D03*
X013982Y005873D03*
X013992Y005863D03*
X013912Y006043D03*
X014242Y005883D03*
X014242Y005873D03*
X014232Y005863D03*
X014232Y005853D03*
X014222Y005843D03*
X014432Y005763D03*
X014442Y005773D03*
X013552Y006383D03*
X013552Y006393D03*
X013562Y006423D03*
X013562Y006433D03*
X013572Y006463D03*
X013572Y006473D03*
X013572Y006483D03*
X013582Y006513D03*
X013582Y006523D03*
X013582Y006533D03*
X013592Y006573D03*
X013592Y006583D03*
X013552Y006603D03*
X013542Y006583D03*
X013542Y006573D03*
X013532Y006563D03*
X013532Y006553D03*
X013522Y006543D03*
X013512Y006533D03*
X013512Y006523D03*
X013502Y006513D03*
X013502Y006503D03*
X013492Y006493D03*
X013482Y006483D03*
X013462Y006453D03*
X013452Y006443D03*
X013442Y006433D03*
X013332Y006453D03*
X013322Y006433D03*
X013322Y006423D03*
X013312Y006403D03*
X013312Y006393D03*
X013302Y006373D03*
X013302Y006363D03*
X013342Y006483D03*
X013342Y006493D03*
X013352Y006513D03*
X013352Y006523D03*
X013362Y006543D03*
X013362Y006553D03*
X013382Y006613D03*
X013382Y006623D03*
X013392Y006653D03*
X013392Y006663D03*
X013402Y006693D03*
X013402Y006703D03*
X013412Y006743D03*
X013412Y006753D03*
X013422Y006793D03*
X013422Y006803D03*
X013422Y006813D03*
X013422Y006823D03*
X013602Y006833D03*
X013602Y006843D03*
X013602Y006853D03*
X013602Y006863D03*
X013602Y006873D03*
X013602Y006883D03*
X013602Y006893D03*
X013602Y006903D03*
X013602Y006913D03*
X013602Y006923D03*
X013592Y006993D03*
X013592Y007003D03*
X013592Y007013D03*
X013592Y007023D03*
X013582Y007073D03*
X013582Y007083D03*
X013582Y007093D03*
X013572Y007143D03*
X013572Y007153D03*
X013572Y007163D03*
X013562Y007193D03*
X013562Y007203D03*
X013562Y007213D03*
X013412Y007213D03*
X013412Y007203D03*
X013412Y007193D03*
X013412Y007183D03*
X013422Y007123D03*
X013422Y007113D03*
X013422Y007103D03*
X013422Y007093D03*
X013422Y007083D03*
X013422Y007073D03*
X013222Y007153D03*
X012872Y007113D03*
X012732Y007113D03*
X012732Y007123D03*
X012732Y007133D03*
X012732Y007143D03*
X012732Y007153D03*
X012742Y007213D03*
X012742Y007223D03*
X012742Y007233D03*
X012752Y007273D03*
X012752Y007283D03*
X012752Y007293D03*
X012762Y007323D03*
X012762Y007333D03*
X012732Y007013D03*
X012732Y007003D03*
X012732Y006993D03*
X012732Y006983D03*
X012742Y006943D03*
X012742Y006933D03*
X012782Y006843D03*
X012762Y006773D03*
X012762Y006763D03*
X012752Y006743D03*
X012752Y006733D03*
X012742Y006713D03*
X012742Y006703D03*
X012732Y006693D03*
X012732Y006683D03*
X012722Y006663D03*
X012722Y006653D03*
X012712Y006643D03*
X012712Y006633D03*
X012702Y006623D03*
X012702Y006613D03*
X012692Y006603D03*
X012682Y006583D03*
X012672Y006573D03*
X012662Y006553D03*
X012652Y006543D03*
X012642Y006523D03*
X012632Y006513D03*
X012622Y006503D03*
X012782Y006423D03*
X012782Y006413D03*
X012772Y006403D03*
X012772Y006393D03*
X012762Y006373D03*
X012762Y006363D03*
X012752Y006343D03*
X012752Y006333D03*
X012752Y006323D03*
X012742Y006293D03*
X012742Y006283D03*
X012742Y006273D03*
X012742Y006163D03*
X012742Y006153D03*
X012742Y006143D03*
X012752Y006113D03*
X012752Y006103D03*
X012772Y006053D03*
X012772Y006043D03*
X012782Y006033D03*
X012782Y006023D03*
X012792Y006013D03*
X012792Y006003D03*
X012802Y005993D03*
X012812Y005983D03*
X012812Y005973D03*
X012822Y005963D03*
X012822Y005953D03*
X012832Y005943D03*
X012832Y005933D03*
X012842Y005923D03*
X012852Y005913D03*
X012852Y005903D03*
X012862Y005893D03*
X012872Y005873D03*
X012902Y005833D03*
X012912Y005813D03*
X012922Y005803D03*
X012932Y005793D03*
X012952Y005763D03*
X012962Y005753D03*
X012972Y005743D03*
X013092Y005583D03*
X013082Y005573D03*
X013072Y005563D03*
X013062Y005543D03*
X013052Y005533D03*
X013042Y005513D03*
X013032Y005503D03*
X013022Y005483D03*
X013012Y005473D03*
X013002Y005463D03*
X013002Y005453D03*
X012992Y005443D03*
X012982Y005433D03*
X012982Y005423D03*
X012972Y005413D03*
X012962Y005403D03*
X012962Y005393D03*
X012952Y005383D03*
X012952Y005373D03*
X012942Y005363D03*
X013102Y005303D03*
X013102Y005293D03*
X013102Y005283D03*
X013102Y005273D03*
X013102Y005263D03*
X013132Y005223D03*
X013112Y005323D03*
X013112Y005333D03*
X013112Y005343D03*
X013382Y005443D03*
X013392Y005453D03*
X013442Y006053D03*
X013452Y006073D03*
X013452Y006083D03*
X013462Y006103D03*
X013462Y006113D03*
X013472Y006123D03*
X013472Y006133D03*
X013482Y006153D03*
X013482Y006163D03*
X013492Y006183D03*
X013492Y006193D03*
X013502Y006213D03*
X013502Y006223D03*
X013512Y006243D03*
X013512Y006253D03*
X013522Y006273D03*
X013522Y006283D03*
X013532Y006313D03*
X013532Y006323D03*
X013542Y006343D03*
X013542Y006353D03*
X013602Y006713D03*
X013602Y006723D03*
X013602Y006733D03*
X012862Y006563D03*
X012852Y006543D03*
X012842Y006533D03*
X012832Y006523D03*
X012832Y006513D03*
X012822Y006503D03*
X012822Y006493D03*
X012812Y006483D03*
X012802Y006463D03*
X012792Y006443D03*
X012682Y005963D03*
X012392Y007643D03*
X012972Y007983D03*
X012982Y007993D03*
X012992Y008013D03*
X013002Y008023D03*
X013012Y008043D03*
X013022Y008053D03*
X013032Y008063D03*
X013472Y007773D03*
X013482Y007763D03*
X013502Y007733D03*
X013512Y007723D03*
X013522Y007703D03*
X013532Y007693D03*
X013542Y007683D03*
X013542Y007673D03*
X013552Y007663D03*
X013562Y007653D03*
X013562Y007643D03*
X013572Y007633D03*
D17*
X013292Y007933D03*
X013112Y007983D03*
X013252Y008233D03*
X013272Y008243D03*
X013982Y008233D03*
X014002Y008223D03*
X014022Y008213D03*
X013222Y007133D03*
X013222Y007123D03*
X013222Y006913D03*
X013152Y006713D03*
X013032Y006623D03*
X012892Y006623D03*
X012882Y006613D03*
X012872Y006603D03*
X012722Y006503D03*
X012792Y006803D03*
X012782Y006873D03*
X012872Y006823D03*
X012892Y006813D03*
X012912Y006803D03*
X012872Y007163D03*
X012872Y007173D03*
X012872Y007183D03*
X012872Y007193D03*
X012872Y007203D03*
X012872Y007213D03*
X012872Y007223D03*
X012872Y007233D03*
X012872Y007243D03*
X012872Y007253D03*
X012852Y007333D03*
X012832Y007343D03*
X012792Y007363D03*
X012772Y007373D03*
X012752Y007383D03*
X013242Y006553D03*
X013352Y006593D03*
X013572Y006593D03*
X014152Y006693D03*
X014442Y006353D03*
X014592Y006413D03*
X014612Y006423D03*
X014682Y006453D03*
X014352Y005863D03*
X014272Y005903D03*
X014192Y005573D03*
X014172Y005563D03*
X014152Y005553D03*
X014132Y005543D03*
X013442Y006013D03*
X013202Y005553D03*
X013222Y005543D03*
X013242Y005533D03*
X013262Y005523D03*
X013132Y005233D03*
X012642Y005933D03*
X012622Y005923D03*
X012602Y005913D03*
D18*
X012622Y006463D03*
X012842Y006573D03*
X012852Y006583D03*
X012982Y006773D03*
X013012Y006763D03*
X013082Y006603D03*
X013222Y006933D03*
X013222Y006943D03*
X013222Y007103D03*
X013222Y007113D03*
X012902Y007313D03*
X012802Y007353D03*
X012802Y006853D03*
X013462Y006033D03*
X013792Y005913D03*
X014052Y005513D03*
X014082Y005523D03*
X014282Y005893D03*
X014452Y005823D03*
X014472Y005813D03*
X014752Y005733D03*
X014542Y006393D03*
X014132Y006703D03*
X013312Y005503D03*
X013142Y005243D03*
X012832Y007913D03*
D19*
X013357Y008273D03*
X014677Y006443D03*
X014567Y005783D03*
X014607Y005773D03*
X014117Y005783D03*
X013957Y005483D03*
X013787Y005923D03*
X013377Y005483D03*
X013147Y005253D03*
X012587Y005863D03*
D20*
X012552Y005873D03*
X012562Y005893D03*
X012672Y005953D03*
X012642Y006003D03*
X012632Y006013D03*
X012622Y006023D03*
X012602Y006033D03*
X012592Y006043D03*
X012872Y005863D03*
X013082Y005633D03*
X013092Y005623D03*
X013152Y005583D03*
X013232Y005293D03*
X013222Y005283D03*
X013202Y005273D03*
X013192Y005263D03*
X012942Y005313D03*
X013532Y006063D03*
X013562Y006083D03*
X013582Y006093D03*
X013642Y006143D03*
X013652Y006153D03*
X013732Y005943D03*
X013742Y005933D03*
X013832Y005933D03*
X013912Y006023D03*
X014042Y005813D03*
X014122Y005773D03*
X014192Y005813D03*
X014272Y005913D03*
X014342Y005673D03*
X014332Y005663D03*
X014302Y005643D03*
X014292Y005633D03*
X014272Y005623D03*
X014262Y005613D03*
X014612Y006103D03*
X014222Y006653D03*
X014212Y006663D03*
X014192Y006673D03*
X014172Y006793D03*
X014182Y006803D03*
X014202Y006813D03*
X014212Y006823D03*
X014222Y006833D03*
X013592Y006673D03*
X013592Y006663D03*
X013582Y006643D03*
X013582Y006633D03*
X013422Y006413D03*
X013372Y006373D03*
X013362Y006363D03*
X012932Y006683D03*
X012922Y006693D03*
X012912Y006703D03*
X012842Y006843D03*
X012762Y006903D03*
X012872Y007123D03*
X012872Y007133D03*
X012872Y007283D03*
X012682Y007423D03*
X012652Y007443D03*
X012632Y007453D03*
X012622Y007463D03*
X012602Y007473D03*
X012592Y007483D03*
X012572Y007493D03*
X012562Y007503D03*
X012552Y007513D03*
X012532Y007523D03*
X012522Y007533D03*
X012492Y007553D03*
X012482Y007563D03*
X012432Y007603D03*
X012422Y007613D03*
X012432Y007683D03*
X012442Y007693D03*
X012452Y007703D03*
X012472Y007713D03*
X012482Y007723D03*
X012502Y007733D03*
X012532Y007753D03*
X012562Y007773D03*
X012612Y007803D03*
X013122Y008153D03*
X013132Y008163D03*
X013162Y008183D03*
X013192Y008203D03*
X013312Y007923D03*
X013342Y007903D03*
X013742Y007303D03*
X013222Y007143D03*
X012782Y006543D03*
X012772Y006533D03*
X014082Y008183D03*
X014112Y008163D03*
X014122Y008153D03*
X014142Y008143D03*
X014152Y008133D03*
D21*
X014167Y008123D03*
X014177Y008113D03*
X014187Y008103D03*
X014197Y008093D03*
X014207Y008083D03*
X014217Y008073D03*
X014227Y008063D03*
X014237Y008053D03*
X014247Y008043D03*
X014257Y008033D03*
X014267Y008023D03*
X014287Y007993D03*
X014297Y007983D03*
X013707Y007393D03*
X013717Y007373D03*
X013717Y007363D03*
X013727Y007353D03*
X013727Y007343D03*
X013737Y007333D03*
X013747Y007313D03*
X013327Y007223D03*
X013227Y006893D03*
X013197Y006743D03*
X013367Y006603D03*
X013477Y006473D03*
X013467Y006463D03*
X013437Y006423D03*
X013407Y006403D03*
X013397Y006393D03*
X013387Y006383D03*
X013287Y006313D03*
X013427Y006003D03*
X013617Y006123D03*
X013627Y006133D03*
X013667Y006163D03*
X013677Y006173D03*
X013687Y006183D03*
X013717Y006223D03*
X013727Y006233D03*
X013737Y006243D03*
X013757Y006273D03*
X013777Y006303D03*
X013907Y006033D03*
X013867Y005963D03*
X013857Y005953D03*
X013847Y005943D03*
X013707Y005973D03*
X013697Y005983D03*
X013997Y005853D03*
X014007Y005843D03*
X014017Y005833D03*
X014027Y005823D03*
X014207Y005823D03*
X014217Y005833D03*
X014267Y005923D03*
X014447Y005783D03*
X014427Y005753D03*
X014417Y005743D03*
X014407Y005733D03*
X014397Y005723D03*
X014387Y005713D03*
X014377Y005703D03*
X014367Y005693D03*
X014357Y005683D03*
X014317Y005653D03*
X014667Y006023D03*
X014677Y006013D03*
X014687Y006003D03*
X014697Y005993D03*
X014707Y005983D03*
X014717Y005973D03*
X014747Y005933D03*
X014757Y005923D03*
X014767Y005913D03*
X014797Y005873D03*
X014827Y005773D03*
X014637Y006063D03*
X014627Y006073D03*
X014617Y006083D03*
X014607Y006093D03*
X014577Y006133D03*
X014567Y006143D03*
X014547Y006173D03*
X014537Y006183D03*
X014517Y006213D03*
X014437Y006333D03*
X014687Y006213D03*
X014737Y006423D03*
X014297Y006573D03*
X014267Y006613D03*
X014257Y006623D03*
X014247Y006633D03*
X014237Y006643D03*
X014237Y006843D03*
X014247Y006853D03*
X014257Y006863D03*
X014267Y006873D03*
X014277Y006883D03*
X014287Y006893D03*
X014297Y006903D03*
X014307Y006913D03*
X014317Y006923D03*
X014337Y006953D03*
X013597Y006703D03*
X013597Y006693D03*
X013597Y006683D03*
X012987Y005723D03*
X012997Y005713D03*
X013007Y005703D03*
X013017Y005693D03*
X013027Y005683D03*
X013037Y005673D03*
X013047Y005663D03*
X013057Y005653D03*
X013067Y005643D03*
X013107Y005613D03*
X013067Y005553D03*
X013047Y005523D03*
X013027Y005493D03*
X013097Y005383D03*
X013247Y005303D03*
X013257Y005313D03*
X013267Y005323D03*
X013277Y005333D03*
X013287Y005343D03*
X013297Y005353D03*
X013307Y005363D03*
X013317Y005373D03*
X013327Y005383D03*
X013337Y005393D03*
X013347Y005403D03*
X013357Y005413D03*
X013367Y005423D03*
X013377Y005433D03*
X012977Y005733D03*
X012947Y005773D03*
X012937Y005783D03*
X012907Y005823D03*
X012867Y005883D03*
X012677Y005973D03*
X012667Y005983D03*
X012657Y005993D03*
X012577Y006053D03*
X012547Y005883D03*
X012617Y006493D03*
X012647Y006533D03*
X012667Y006563D03*
X012687Y006593D03*
X012797Y006553D03*
X012807Y006563D03*
X012857Y006553D03*
X012897Y006713D03*
X012887Y006723D03*
X012877Y006733D03*
X012867Y006743D03*
X012857Y006753D03*
X012847Y006763D03*
X012837Y006773D03*
X012827Y006783D03*
X012817Y006793D03*
X012787Y006823D03*
X012787Y006833D03*
X012507Y007543D03*
X012467Y007573D03*
X012457Y007583D03*
X012447Y007593D03*
X012407Y007623D03*
X012397Y007633D03*
X012397Y007653D03*
X012407Y007663D03*
X012417Y007673D03*
X012987Y008003D03*
X013007Y008033D03*
X013037Y008073D03*
X013047Y008083D03*
X013057Y008093D03*
X013067Y008103D03*
X013077Y008113D03*
X013087Y008123D03*
X013097Y008133D03*
X013107Y008143D03*
X013147Y008173D03*
X013357Y007893D03*
X013367Y007883D03*
X013377Y007873D03*
X013387Y007863D03*
X013397Y007853D03*
X013407Y007843D03*
X013417Y007833D03*
X013427Y007823D03*
X013437Y007813D03*
X013447Y007803D03*
X013457Y007793D03*
X013467Y007783D03*
X013487Y007753D03*
X013497Y007743D03*
X013517Y007713D03*
D22*
X013647Y007503D03*
X013777Y007253D03*
X013797Y007203D03*
X013807Y007173D03*
X013817Y007143D03*
X013817Y007133D03*
X013827Y007103D03*
X013837Y007073D03*
X013837Y007063D03*
X013847Y007033D03*
X013847Y007023D03*
X013857Y006983D03*
X013857Y006973D03*
X013857Y006963D03*
X013867Y006923D03*
X013867Y006913D03*
X013867Y006903D03*
X013867Y006893D03*
X013877Y006843D03*
X013877Y006833D03*
X013877Y006823D03*
X013877Y006813D03*
X013877Y006803D03*
X013877Y006793D03*
X013877Y006783D03*
X013877Y006773D03*
X013877Y006683D03*
X013877Y006673D03*
X013877Y006663D03*
X013877Y006653D03*
X013877Y006643D03*
X013877Y006633D03*
X013877Y006623D03*
X013877Y006613D03*
X013867Y006563D03*
X013867Y006553D03*
X013867Y006543D03*
X013867Y006533D03*
X013857Y006503D03*
X013857Y006493D03*
X013847Y006463D03*
X013837Y006433D03*
X013827Y006403D03*
X013567Y006443D03*
X013567Y006453D03*
X013557Y006413D03*
X013557Y006403D03*
X013547Y006373D03*
X013547Y006363D03*
X013537Y006333D03*
X013527Y006303D03*
X013527Y006293D03*
X013517Y006263D03*
X013507Y006233D03*
X013497Y006203D03*
X013487Y006173D03*
X013477Y006143D03*
X013457Y006093D03*
X013447Y006063D03*
X013417Y005993D03*
X013637Y006093D03*
X013937Y005973D03*
X013947Y005943D03*
X013577Y006493D03*
X013577Y006503D03*
X013587Y006543D03*
X013587Y006553D03*
X013587Y006563D03*
X013597Y006603D03*
X013607Y006743D03*
X013607Y006753D03*
X013607Y006763D03*
X013607Y006773D03*
X013607Y006783D03*
X013607Y006793D03*
X013607Y006803D03*
X013607Y006813D03*
X013607Y006823D03*
X013597Y006933D03*
X013597Y006943D03*
X013597Y006953D03*
X013597Y006963D03*
X013597Y006973D03*
X013597Y006983D03*
X013587Y007033D03*
X013587Y007043D03*
X013587Y007053D03*
X013587Y007063D03*
X013577Y007103D03*
X013577Y007113D03*
X013577Y007123D03*
X013577Y007133D03*
X013567Y007173D03*
X013567Y007183D03*
X013557Y007223D03*
X013557Y007233D03*
X013407Y007223D03*
X013417Y007173D03*
X013417Y007163D03*
X013417Y007153D03*
X013417Y007143D03*
X013417Y007133D03*
X013427Y007063D03*
X013427Y007053D03*
X013427Y007043D03*
X013427Y007033D03*
X013427Y007023D03*
X013427Y007013D03*
X013427Y007003D03*
X013427Y006993D03*
X013427Y006983D03*
X013427Y006973D03*
X013427Y006963D03*
X013427Y006953D03*
X013427Y006943D03*
X013427Y006933D03*
X013427Y006923D03*
X013427Y006913D03*
X013427Y006903D03*
X013427Y006893D03*
X013427Y006883D03*
X013427Y006873D03*
X013427Y006863D03*
X013427Y006853D03*
X013427Y006843D03*
X013427Y006833D03*
X013417Y006783D03*
X013417Y006773D03*
X013417Y006763D03*
X013407Y006733D03*
X013407Y006723D03*
X013407Y006713D03*
X013397Y006683D03*
X013397Y006673D03*
X013387Y006643D03*
X013387Y006633D03*
X013367Y006563D03*
X013357Y006533D03*
X013347Y006503D03*
X013337Y006473D03*
X013337Y006463D03*
X013327Y006443D03*
X013317Y006413D03*
X013307Y006383D03*
X012807Y006473D03*
X012797Y006453D03*
X012787Y006433D03*
X012767Y006383D03*
X012757Y006353D03*
X012747Y006313D03*
X012747Y006303D03*
X012737Y006263D03*
X012737Y006253D03*
X012737Y006243D03*
X012737Y006233D03*
X012737Y006223D03*
X012737Y006213D03*
X012737Y006203D03*
X012737Y006193D03*
X012737Y006183D03*
X012737Y006173D03*
X012747Y006133D03*
X012747Y006123D03*
X012727Y006673D03*
X012747Y006723D03*
X012757Y006753D03*
X012767Y006783D03*
X012767Y006793D03*
X012747Y006913D03*
X012747Y006923D03*
X012737Y006953D03*
X012737Y006963D03*
X012737Y006973D03*
X012727Y007023D03*
X012727Y007033D03*
X012727Y007043D03*
X012727Y007053D03*
X012727Y007063D03*
X012727Y007073D03*
X012727Y007083D03*
X012727Y007093D03*
X012727Y007103D03*
X012737Y007163D03*
X012737Y007173D03*
X012737Y007183D03*
X012737Y007193D03*
X012737Y007203D03*
X012747Y007243D03*
X012747Y007253D03*
X012747Y007263D03*
X012757Y007303D03*
X012757Y007313D03*
X012767Y007343D03*
X012867Y007103D03*
X012937Y005353D03*
X013107Y005313D03*
X014397Y007053D03*
X014407Y007073D03*
X014427Y007123D03*
X014437Y007153D03*
X014447Y007193D03*
X014457Y007233D03*
X014457Y007243D03*
X014457Y007253D03*
X014467Y007303D03*
X014467Y007313D03*
X014467Y007323D03*
X014467Y007333D03*
X014467Y007343D03*
X014467Y007353D03*
X014467Y007363D03*
X014467Y007373D03*
X014467Y007383D03*
X014467Y007393D03*
X014467Y007403D03*
X014467Y007413D03*
X014467Y007423D03*
X014467Y007433D03*
X014467Y007443D03*
X014467Y007453D03*
X014467Y007463D03*
X014467Y007473D03*
X014467Y007483D03*
X014457Y007543D03*
X014457Y007553D03*
X014457Y007563D03*
X014447Y007603D03*
X014447Y007613D03*
X014437Y007653D03*
X014437Y007663D03*
X014427Y007693D03*
X014417Y007733D03*
X014407Y007763D03*
X014397Y007793D03*
X014367Y007863D03*
X014687Y006463D03*
X014747Y006343D03*
X014737Y006313D03*
X014827Y005823D03*
D23*
X014607Y006123D03*
X014567Y006403D03*
X014377Y005853D03*
X014397Y005843D03*
X014427Y005833D03*
X014107Y005533D03*
X013607Y006103D03*
X013457Y006023D03*
X013317Y006343D03*
X013327Y006353D03*
X013057Y006613D03*
X012937Y006673D03*
X012907Y006643D03*
X012897Y006633D03*
X012867Y006593D03*
X012697Y006493D03*
X012797Y006863D03*
X012937Y006793D03*
X012957Y006783D03*
X013227Y006923D03*
X012877Y007323D03*
X012757Y007883D03*
X012777Y007893D03*
X012807Y007903D03*
X013267Y007943D03*
X013297Y008253D03*
X013597Y008323D03*
X013957Y008243D03*
X014087Y006723D03*
X013287Y005513D03*
X013117Y005593D03*
X013087Y005373D03*
X012957Y005323D03*
D24*
X012972Y005333D03*
X013072Y005363D03*
X012742Y005823D03*
X012642Y006473D03*
X012942Y006663D03*
X013072Y006743D03*
X013222Y006963D03*
X013222Y006973D03*
X013222Y006983D03*
X013222Y006993D03*
X013222Y007003D03*
X013222Y007013D03*
X013222Y007023D03*
X013222Y007033D03*
X013222Y007043D03*
X013222Y007053D03*
X013222Y007063D03*
X013222Y007073D03*
X013222Y007083D03*
X012892Y007933D03*
X013892Y008263D03*
X014102Y006713D03*
X014502Y005803D03*
X013992Y005493D03*
D25*
X013917Y005473D03*
X014467Y006373D03*
X013057Y005353D03*
X012987Y005343D03*
X012697Y006093D03*
X012937Y007943D03*
D26*
X013577Y007263D03*
X013677Y005433D03*
D27*
X013667Y005443D03*
X012717Y005853D03*
D28*
X013667Y005453D03*
D29*
X013862Y005463D03*
X013132Y006733D03*
X012932Y007293D03*
X013692Y007283D03*
X013802Y008283D03*
D30*
X012672Y006073D03*
X013482Y005463D03*
D31*
X013422Y005473D03*
X014512Y005793D03*
X014672Y006433D03*
X013402Y008283D03*
D32*
X013327Y008263D03*
X012857Y007923D03*
X013227Y007093D03*
X013227Y006953D03*
X013037Y006753D03*
X013107Y006593D03*
X013477Y006043D03*
X013347Y005493D03*
X014027Y005503D03*
X014457Y006363D03*
X014517Y006383D03*
X013727Y007293D03*
X013927Y008253D03*
D33*
X014047Y008203D03*
X014067Y008193D03*
X014097Y008173D03*
X013327Y007913D03*
X013177Y008193D03*
X013207Y008213D03*
X013227Y008223D03*
X012737Y007873D03*
X012717Y007863D03*
X012697Y007853D03*
X012677Y007843D03*
X012667Y007833D03*
X012647Y007823D03*
X012627Y007813D03*
X012597Y007793D03*
X012577Y007783D03*
X012547Y007763D03*
X012517Y007743D03*
X012667Y007433D03*
X012697Y007413D03*
X012717Y007403D03*
X012737Y007393D03*
X012867Y007273D03*
X012867Y007263D03*
X012867Y007153D03*
X012867Y007143D03*
X012767Y006893D03*
X012777Y006883D03*
X012787Y006813D03*
X012857Y006833D03*
X012997Y006643D03*
X013017Y006633D03*
X012757Y006523D03*
X012737Y006513D03*
X013227Y006903D03*
X013587Y006653D03*
X013577Y006623D03*
X013577Y006613D03*
X013307Y006333D03*
X013297Y006323D03*
X013517Y006053D03*
X013547Y006073D03*
X013607Y006113D03*
X013787Y005903D03*
X013907Y006003D03*
X013907Y006013D03*
X014317Y005883D03*
X014337Y005873D03*
X014247Y005603D03*
X014227Y005593D03*
X014207Y005583D03*
X014807Y005763D03*
X014607Y006113D03*
X014177Y006683D03*
X014127Y006763D03*
X014137Y006773D03*
X014157Y006783D03*
X014107Y006753D03*
X014087Y006743D03*
X014077Y006733D03*
X013187Y005563D03*
X013167Y005573D03*
X013117Y005603D03*
X012657Y005943D03*
X012577Y005903D03*
D34*
X013047Y007273D03*
X014117Y005793D03*
X014657Y005763D03*
X014737Y005743D03*
D35*
X014722Y005753D03*
D36*
X014117Y005803D03*
X013237Y006563D03*
D37*
X012747Y005833D03*
D38*
X012732Y005843D03*
D39*
X013257Y006293D03*
X013397Y005983D03*
X013197Y006753D03*
X014267Y005933D03*
D40*
X013912Y006053D03*
X013272Y006303D03*
X013222Y006883D03*
D41*
X012667Y006063D03*
D42*
X012677Y006083D03*
X013107Y007263D03*
D43*
X013002Y007283D03*
X012912Y007303D03*
X013142Y006723D03*
X012942Y006653D03*
X012652Y006483D03*
X013862Y008273D03*
D44*
X013252Y006573D03*
D45*
X013237Y006583D03*
X013327Y007233D03*
D46*
X013337Y007243D03*
D47*
X013347Y007253D03*
D48*
X013632Y007273D03*
D49*
X013092Y007953D03*
D50*
X013102Y007963D03*
D51*
X013097Y007973D03*
D52*
X013607Y008293D03*
D53*
X013602Y008303D03*
D54*
X013602Y008313D03*
M02*
