G75*
%MOIN*%
%OFA0B0*%
%FSLAX24Y24*%
%IPPOS*%
%LPD*%
%AMOC8*
5,1,8,0,0,1.08239X$1,22.5*
%
%ADD10C,0.0000*%
%ADD11R,0.0728X0.0728*%
%ADD12C,0.0728*%
%ADD13C,0.0594*%
%ADD14C,0.0827*%
%ADD15R,0.0900X0.0500*%
%ADD16R,0.0850X0.1400*%
%ADD17R,0.0450X0.0900*%
%ADD18R,0.0394X0.1850*%
%ADD19R,0.0472X0.0236*%
%ADD20C,0.0088*%
%ADD21R,0.0394X0.0197*%
%ADD22R,0.0750X0.0750*%
%ADD23C,0.0750*%
%ADD24C,0.0600*%
%ADD25C,0.1890*%
%ADD26C,0.0886*%
%ADD27C,0.0650*%
%ADD28C,0.1181*%
%ADD29R,0.0697X0.0709*%
%ADD30R,0.0472X0.0787*%
%ADD31R,0.0787X0.0472*%
%ADD32C,0.0768*%
%ADD33R,0.0900X0.0450*%
%ADD34R,0.0433X0.0728*%
%ADD35R,0.1693X0.1693*%
%ADD36C,0.0394*%
%ADD37C,0.0787*%
%ADD38R,0.0400X0.0450*%
%ADD39R,0.0450X0.0400*%
%ADD40R,0.0630X0.0460*%
%ADD41C,0.0515*%
%ADD42C,0.0060*%
%ADD43OC8,0.0356*%
%ADD44C,0.1000*%
%ADD45C,0.0160*%
%ADD46C,0.0356*%
%ADD47C,0.0500*%
%ADD48C,0.2000*%
%ADD49R,0.0356X0.0356*%
%ADD50C,0.0080*%
%ADD51C,0.0150*%
%ADD52C,0.0320*%
D10*
X001857Y002453D02*
X001857Y036312D01*
X026660Y036312D01*
X026660Y002453D01*
X001857Y002453D01*
X002408Y003634D02*
X002410Y003684D01*
X002416Y003734D01*
X002426Y003783D01*
X002440Y003831D01*
X002457Y003878D01*
X002478Y003923D01*
X002503Y003967D01*
X002531Y004008D01*
X002563Y004047D01*
X002597Y004084D01*
X002634Y004118D01*
X002674Y004148D01*
X002716Y004175D01*
X002760Y004199D01*
X002806Y004220D01*
X002853Y004236D01*
X002901Y004249D01*
X002951Y004258D01*
X003000Y004263D01*
X003051Y004264D01*
X003101Y004261D01*
X003150Y004254D01*
X003199Y004243D01*
X003247Y004228D01*
X003293Y004210D01*
X003338Y004188D01*
X003381Y004162D01*
X003422Y004133D01*
X003461Y004101D01*
X003497Y004066D01*
X003529Y004028D01*
X003559Y003988D01*
X003586Y003945D01*
X003609Y003901D01*
X003628Y003855D01*
X003644Y003807D01*
X003656Y003758D01*
X003664Y003709D01*
X003668Y003659D01*
X003668Y003609D01*
X003664Y003559D01*
X003656Y003510D01*
X003644Y003461D01*
X003628Y003413D01*
X003609Y003367D01*
X003586Y003323D01*
X003559Y003280D01*
X003529Y003240D01*
X003497Y003202D01*
X003461Y003167D01*
X003422Y003135D01*
X003381Y003106D01*
X003338Y003080D01*
X003293Y003058D01*
X003247Y003040D01*
X003199Y003025D01*
X003150Y003014D01*
X003101Y003007D01*
X003051Y003004D01*
X003000Y003005D01*
X002951Y003010D01*
X002901Y003019D01*
X002853Y003032D01*
X002806Y003048D01*
X002760Y003069D01*
X002716Y003093D01*
X002674Y003120D01*
X002634Y003150D01*
X002597Y003184D01*
X002563Y003221D01*
X002531Y003260D01*
X002503Y003301D01*
X002478Y003345D01*
X002457Y003390D01*
X002440Y003437D01*
X002426Y003485D01*
X002416Y003534D01*
X002410Y003584D01*
X002408Y003634D01*
X024849Y003634D02*
X024851Y003684D01*
X024857Y003734D01*
X024867Y003783D01*
X024881Y003831D01*
X024898Y003878D01*
X024919Y003923D01*
X024944Y003967D01*
X024972Y004008D01*
X025004Y004047D01*
X025038Y004084D01*
X025075Y004118D01*
X025115Y004148D01*
X025157Y004175D01*
X025201Y004199D01*
X025247Y004220D01*
X025294Y004236D01*
X025342Y004249D01*
X025392Y004258D01*
X025441Y004263D01*
X025492Y004264D01*
X025542Y004261D01*
X025591Y004254D01*
X025640Y004243D01*
X025688Y004228D01*
X025734Y004210D01*
X025779Y004188D01*
X025822Y004162D01*
X025863Y004133D01*
X025902Y004101D01*
X025938Y004066D01*
X025970Y004028D01*
X026000Y003988D01*
X026027Y003945D01*
X026050Y003901D01*
X026069Y003855D01*
X026085Y003807D01*
X026097Y003758D01*
X026105Y003709D01*
X026109Y003659D01*
X026109Y003609D01*
X026105Y003559D01*
X026097Y003510D01*
X026085Y003461D01*
X026069Y003413D01*
X026050Y003367D01*
X026027Y003323D01*
X026000Y003280D01*
X025970Y003240D01*
X025938Y003202D01*
X025902Y003167D01*
X025863Y003135D01*
X025822Y003106D01*
X025779Y003080D01*
X025734Y003058D01*
X025688Y003040D01*
X025640Y003025D01*
X025591Y003014D01*
X025542Y003007D01*
X025492Y003004D01*
X025441Y003005D01*
X025392Y003010D01*
X025342Y003019D01*
X025294Y003032D01*
X025247Y003048D01*
X025201Y003069D01*
X025157Y003093D01*
X025115Y003120D01*
X025075Y003150D01*
X025038Y003184D01*
X025004Y003221D01*
X024972Y003260D01*
X024944Y003301D01*
X024919Y003345D01*
X024898Y003390D01*
X024881Y003437D01*
X024867Y003485D01*
X024857Y003534D01*
X024851Y003584D01*
X024849Y003634D01*
X024849Y035130D02*
X024851Y035180D01*
X024857Y035230D01*
X024867Y035279D01*
X024881Y035327D01*
X024898Y035374D01*
X024919Y035419D01*
X024944Y035463D01*
X024972Y035504D01*
X025004Y035543D01*
X025038Y035580D01*
X025075Y035614D01*
X025115Y035644D01*
X025157Y035671D01*
X025201Y035695D01*
X025247Y035716D01*
X025294Y035732D01*
X025342Y035745D01*
X025392Y035754D01*
X025441Y035759D01*
X025492Y035760D01*
X025542Y035757D01*
X025591Y035750D01*
X025640Y035739D01*
X025688Y035724D01*
X025734Y035706D01*
X025779Y035684D01*
X025822Y035658D01*
X025863Y035629D01*
X025902Y035597D01*
X025938Y035562D01*
X025970Y035524D01*
X026000Y035484D01*
X026027Y035441D01*
X026050Y035397D01*
X026069Y035351D01*
X026085Y035303D01*
X026097Y035254D01*
X026105Y035205D01*
X026109Y035155D01*
X026109Y035105D01*
X026105Y035055D01*
X026097Y035006D01*
X026085Y034957D01*
X026069Y034909D01*
X026050Y034863D01*
X026027Y034819D01*
X026000Y034776D01*
X025970Y034736D01*
X025938Y034698D01*
X025902Y034663D01*
X025863Y034631D01*
X025822Y034602D01*
X025779Y034576D01*
X025734Y034554D01*
X025688Y034536D01*
X025640Y034521D01*
X025591Y034510D01*
X025542Y034503D01*
X025492Y034500D01*
X025441Y034501D01*
X025392Y034506D01*
X025342Y034515D01*
X025294Y034528D01*
X025247Y034544D01*
X025201Y034565D01*
X025157Y034589D01*
X025115Y034616D01*
X025075Y034646D01*
X025038Y034680D01*
X025004Y034717D01*
X024972Y034756D01*
X024944Y034797D01*
X024919Y034841D01*
X024898Y034886D01*
X024881Y034933D01*
X024867Y034981D01*
X024857Y035030D01*
X024851Y035080D01*
X024849Y035130D01*
X002408Y035130D02*
X002410Y035180D01*
X002416Y035230D01*
X002426Y035279D01*
X002440Y035327D01*
X002457Y035374D01*
X002478Y035419D01*
X002503Y035463D01*
X002531Y035504D01*
X002563Y035543D01*
X002597Y035580D01*
X002634Y035614D01*
X002674Y035644D01*
X002716Y035671D01*
X002760Y035695D01*
X002806Y035716D01*
X002853Y035732D01*
X002901Y035745D01*
X002951Y035754D01*
X003000Y035759D01*
X003051Y035760D01*
X003101Y035757D01*
X003150Y035750D01*
X003199Y035739D01*
X003247Y035724D01*
X003293Y035706D01*
X003338Y035684D01*
X003381Y035658D01*
X003422Y035629D01*
X003461Y035597D01*
X003497Y035562D01*
X003529Y035524D01*
X003559Y035484D01*
X003586Y035441D01*
X003609Y035397D01*
X003628Y035351D01*
X003644Y035303D01*
X003656Y035254D01*
X003664Y035205D01*
X003668Y035155D01*
X003668Y035105D01*
X003664Y035055D01*
X003656Y035006D01*
X003644Y034957D01*
X003628Y034909D01*
X003609Y034863D01*
X003586Y034819D01*
X003559Y034776D01*
X003529Y034736D01*
X003497Y034698D01*
X003461Y034663D01*
X003422Y034631D01*
X003381Y034602D01*
X003338Y034576D01*
X003293Y034554D01*
X003247Y034536D01*
X003199Y034521D01*
X003150Y034510D01*
X003101Y034503D01*
X003051Y034500D01*
X003000Y034501D01*
X002951Y034506D01*
X002901Y034515D01*
X002853Y034528D01*
X002806Y034544D01*
X002760Y034565D01*
X002716Y034589D01*
X002674Y034616D01*
X002634Y034646D01*
X002597Y034680D01*
X002563Y034717D01*
X002531Y034756D01*
X002503Y034797D01*
X002478Y034841D01*
X002457Y034886D01*
X002440Y034933D01*
X002426Y034981D01*
X002416Y035030D01*
X002410Y035080D01*
X002408Y035130D01*
D11*
X015145Y032375D03*
X009070Y010118D03*
D12*
X009070Y011496D03*
X013767Y032375D03*
D13*
X008567Y007363D02*
X007974Y007363D01*
X007974Y006363D02*
X008567Y006363D01*
X008567Y005363D02*
X007974Y005363D01*
D14*
X005716Y006351D02*
X004889Y006351D01*
X003550Y006351D02*
X002723Y006351D01*
X002723Y008005D02*
X003550Y008005D01*
X003550Y009658D02*
X002723Y009658D01*
X002723Y011312D02*
X003550Y011312D01*
X003550Y012965D02*
X002723Y012965D01*
X002723Y014619D02*
X003550Y014619D01*
X004889Y014619D02*
X005716Y014619D01*
X005716Y012965D02*
X004889Y012965D01*
X004889Y011312D02*
X005716Y011312D01*
X005716Y009658D02*
X004889Y009658D01*
X004889Y008005D02*
X005716Y008005D01*
X005716Y016272D02*
X004889Y016272D01*
X004889Y017926D02*
X005716Y017926D01*
X005716Y019579D02*
X004889Y019579D01*
X003550Y019579D02*
X002723Y019579D01*
X002723Y017926D02*
X003550Y017926D01*
X003550Y016272D02*
X002723Y016272D01*
X002723Y021233D02*
X003550Y021233D01*
X003550Y022886D02*
X002723Y022886D01*
X002723Y024540D02*
X003550Y024540D01*
X004889Y024540D02*
X005716Y024540D01*
X005716Y022886D02*
X004889Y022886D01*
X004889Y021233D02*
X005716Y021233D01*
D15*
X016394Y006114D03*
X016394Y005214D03*
X016394Y004314D03*
D16*
X018894Y005214D03*
D17*
X016032Y010323D03*
X014882Y010323D03*
D18*
X013191Y008234D03*
X013191Y004651D03*
D19*
X021564Y031743D03*
X021564Y032243D03*
X021564Y032743D03*
X021564Y033243D03*
X021564Y033743D03*
X021564Y034243D03*
X021564Y034743D03*
X021564Y035243D03*
X023611Y035243D03*
X023611Y034743D03*
X023611Y034243D03*
X023611Y033743D03*
X023611Y033243D03*
X023611Y032743D03*
X023611Y032243D03*
X023611Y031743D03*
D20*
X024260Y031822D02*
X024522Y031822D01*
X024260Y031822D02*
X024260Y032084D01*
X024522Y032084D01*
X024522Y031822D01*
X024522Y031909D02*
X024260Y031909D01*
X024260Y031996D02*
X024522Y031996D01*
X024522Y032083D02*
X024260Y032083D01*
X024260Y032522D02*
X024522Y032522D01*
X024260Y032522D02*
X024260Y032784D01*
X024522Y032784D01*
X024522Y032522D01*
X024522Y032609D02*
X024260Y032609D01*
X024260Y032696D02*
X024522Y032696D01*
X024522Y032783D02*
X024260Y032783D01*
X024860Y032522D02*
X025122Y032522D01*
X024860Y032522D02*
X024860Y032784D01*
X025122Y032784D01*
X025122Y032522D01*
X025122Y032609D02*
X024860Y032609D01*
X024860Y032696D02*
X025122Y032696D01*
X025122Y032783D02*
X024860Y032783D01*
X024860Y031822D02*
X025122Y031822D01*
X024860Y031822D02*
X024860Y032084D01*
X025122Y032084D01*
X025122Y031822D01*
X025122Y031909D02*
X024860Y031909D01*
X024860Y031996D02*
X025122Y031996D01*
X025122Y032083D02*
X024860Y032083D01*
X024860Y031384D02*
X025122Y031384D01*
X025122Y031122D01*
X024860Y031122D01*
X024860Y031384D01*
X024860Y031209D02*
X025122Y031209D01*
X025122Y031296D02*
X024860Y031296D01*
X024860Y031383D02*
X025122Y031383D01*
X024522Y031384D02*
X024260Y031384D01*
X024522Y031384D02*
X024522Y031122D01*
X024260Y031122D01*
X024260Y031384D01*
X024260Y031209D02*
X024522Y031209D01*
X024522Y031296D02*
X024260Y031296D01*
X024260Y031383D02*
X024522Y031383D01*
X020644Y031786D02*
X020644Y032048D01*
X020644Y031786D02*
X020382Y031786D01*
X020382Y032048D01*
X020644Y032048D01*
X020644Y031873D02*
X020382Y031873D01*
X020382Y031960D02*
X020644Y031960D01*
X020644Y032047D02*
X020382Y032047D01*
X020644Y032386D02*
X020644Y032648D01*
X020644Y032386D02*
X020382Y032386D01*
X020382Y032648D01*
X020644Y032648D01*
X020644Y032473D02*
X020382Y032473D01*
X020382Y032560D02*
X020644Y032560D01*
X020644Y032647D02*
X020382Y032647D01*
X017988Y032422D02*
X017726Y032422D01*
X017726Y032684D01*
X017988Y032684D01*
X017988Y032422D01*
X017988Y032509D02*
X017726Y032509D01*
X017726Y032596D02*
X017988Y032596D01*
X017988Y032683D02*
X017726Y032683D01*
X017388Y032422D02*
X017126Y032422D01*
X017126Y032684D01*
X017388Y032684D01*
X017388Y032422D01*
X017388Y032509D02*
X017126Y032509D01*
X017126Y032596D02*
X017388Y032596D01*
X017388Y032683D02*
X017126Y032683D01*
X017126Y033122D02*
X017388Y033122D01*
X017126Y033122D02*
X017126Y033384D01*
X017388Y033384D01*
X017388Y033122D01*
X017388Y033209D02*
X017126Y033209D01*
X017126Y033296D02*
X017388Y033296D01*
X017388Y033383D02*
X017126Y033383D01*
X017126Y034084D02*
X017388Y034084D01*
X017388Y033822D01*
X017126Y033822D01*
X017126Y034084D01*
X017126Y033909D02*
X017388Y033909D01*
X017388Y033996D02*
X017126Y033996D01*
X017126Y034083D02*
X017388Y034083D01*
X017388Y034784D02*
X017126Y034784D01*
X017388Y034784D02*
X017388Y034522D01*
X017126Y034522D01*
X017126Y034784D01*
X017126Y034609D02*
X017388Y034609D01*
X017388Y034696D02*
X017126Y034696D01*
X017126Y034783D02*
X017388Y034783D01*
X017388Y035484D02*
X017126Y035484D01*
X017388Y035484D02*
X017388Y035222D01*
X017126Y035222D01*
X017126Y035484D01*
X017126Y035309D02*
X017388Y035309D01*
X017388Y035396D02*
X017126Y035396D01*
X017126Y035483D02*
X017388Y035483D01*
X017726Y035484D02*
X017988Y035484D01*
X017988Y035222D01*
X017726Y035222D01*
X017726Y035484D01*
X017726Y035309D02*
X017988Y035309D01*
X017988Y035396D02*
X017726Y035396D01*
X017726Y035483D02*
X017988Y035483D01*
X017988Y034784D02*
X017726Y034784D01*
X017988Y034784D02*
X017988Y034522D01*
X017726Y034522D01*
X017726Y034784D01*
X017726Y034609D02*
X017988Y034609D01*
X017988Y034696D02*
X017726Y034696D01*
X017726Y034783D02*
X017988Y034783D01*
X017988Y034084D02*
X017726Y034084D01*
X017988Y034084D02*
X017988Y033822D01*
X017726Y033822D01*
X017726Y034084D01*
X017726Y033909D02*
X017988Y033909D01*
X017988Y033996D02*
X017726Y033996D01*
X017726Y034083D02*
X017988Y034083D01*
X017988Y033122D02*
X017726Y033122D01*
X017726Y033384D01*
X017988Y033384D01*
X017988Y033122D01*
X017988Y033209D02*
X017726Y033209D01*
X017726Y033296D02*
X017988Y033296D01*
X017988Y033383D02*
X017726Y033383D01*
X017726Y031984D02*
X017988Y031984D01*
X017988Y031722D01*
X017726Y031722D01*
X017726Y031984D01*
X017726Y031809D02*
X017988Y031809D01*
X017988Y031896D02*
X017726Y031896D01*
X017726Y031983D02*
X017988Y031983D01*
X017388Y031984D02*
X017126Y031984D01*
X017388Y031984D02*
X017388Y031722D01*
X017126Y031722D01*
X017126Y031984D01*
X017126Y031809D02*
X017388Y031809D01*
X017388Y031896D02*
X017126Y031896D01*
X017126Y031983D02*
X017388Y031983D01*
X016988Y031284D02*
X016726Y031284D01*
X016988Y031284D02*
X016988Y031022D01*
X016726Y031022D01*
X016726Y031284D01*
X016726Y031109D02*
X016988Y031109D01*
X016988Y031196D02*
X016726Y031196D01*
X016726Y031283D02*
X016988Y031283D01*
X016388Y031284D02*
X016126Y031284D01*
X016388Y031284D02*
X016388Y031022D01*
X016126Y031022D01*
X016126Y031284D01*
X016126Y031109D02*
X016388Y031109D01*
X016388Y031196D02*
X016126Y031196D01*
X016126Y031283D02*
X016388Y031283D01*
X015688Y027352D02*
X015426Y027352D01*
X015426Y027614D01*
X015688Y027614D01*
X015688Y027352D01*
X015688Y027439D02*
X015426Y027439D01*
X015426Y027526D02*
X015688Y027526D01*
X015688Y027613D02*
X015426Y027613D01*
X015088Y027352D02*
X014826Y027352D01*
X014826Y027614D01*
X015088Y027614D01*
X015088Y027352D01*
X015088Y027439D02*
X014826Y027439D01*
X014826Y027526D02*
X015088Y027526D01*
X015088Y027613D02*
X014826Y027613D01*
X014826Y026914D02*
X015088Y026914D01*
X015088Y026652D01*
X014826Y026652D01*
X014826Y026914D01*
X014826Y026739D02*
X015088Y026739D01*
X015088Y026826D02*
X014826Y026826D01*
X014826Y026913D02*
X015088Y026913D01*
X015426Y026914D02*
X015688Y026914D01*
X015688Y026652D01*
X015426Y026652D01*
X015426Y026914D01*
X015426Y026739D02*
X015688Y026739D01*
X015688Y026826D02*
X015426Y026826D01*
X015426Y026913D02*
X015688Y026913D01*
X015688Y026214D02*
X015426Y026214D01*
X015688Y026214D02*
X015688Y025952D01*
X015426Y025952D01*
X015426Y026214D01*
X015426Y026039D02*
X015688Y026039D01*
X015688Y026126D02*
X015426Y026126D01*
X015426Y026213D02*
X015688Y026213D01*
X015088Y026214D02*
X014826Y026214D01*
X015088Y026214D02*
X015088Y025952D01*
X014826Y025952D01*
X014826Y026214D01*
X014826Y026039D02*
X015088Y026039D01*
X015088Y026126D02*
X014826Y026126D01*
X014826Y026213D02*
X015088Y026213D01*
X015088Y020322D02*
X014826Y020322D01*
X014826Y020584D01*
X015088Y020584D01*
X015088Y020322D01*
X015088Y020409D02*
X014826Y020409D01*
X014826Y020496D02*
X015088Y020496D01*
X015088Y020583D02*
X014826Y020583D01*
X014826Y019884D02*
X015088Y019884D01*
X015088Y019622D01*
X014826Y019622D01*
X014826Y019884D01*
X014826Y019709D02*
X015088Y019709D01*
X015088Y019796D02*
X014826Y019796D01*
X014826Y019883D02*
X015088Y019883D01*
X015426Y019884D02*
X015688Y019884D01*
X015688Y019622D01*
X015426Y019622D01*
X015426Y019884D01*
X015426Y019709D02*
X015688Y019709D01*
X015688Y019796D02*
X015426Y019796D01*
X015426Y019883D02*
X015688Y019883D01*
X015688Y020322D02*
X015426Y020322D01*
X015426Y020584D01*
X015688Y020584D01*
X015688Y020322D01*
X015688Y020409D02*
X015426Y020409D01*
X015426Y020496D02*
X015688Y020496D01*
X015688Y020583D02*
X015426Y020583D01*
X015426Y019184D02*
X015688Y019184D01*
X015688Y018922D01*
X015426Y018922D01*
X015426Y019184D01*
X015426Y019009D02*
X015688Y019009D01*
X015688Y019096D02*
X015426Y019096D01*
X015426Y019183D02*
X015688Y019183D01*
X015088Y019184D02*
X014826Y019184D01*
X015088Y019184D02*
X015088Y018922D01*
X014826Y018922D01*
X014826Y019184D01*
X014826Y019009D02*
X015088Y019009D01*
X015088Y019096D02*
X014826Y019096D01*
X014826Y019183D02*
X015088Y019183D01*
X015088Y016822D02*
X014826Y016822D01*
X014826Y017084D01*
X015088Y017084D01*
X015088Y016822D01*
X015088Y016909D02*
X014826Y016909D01*
X014826Y016996D02*
X015088Y016996D01*
X015088Y017083D02*
X014826Y017083D01*
X015426Y016822D02*
X015688Y016822D01*
X015426Y016822D02*
X015426Y017084D01*
X015688Y017084D01*
X015688Y016822D01*
X015688Y016909D02*
X015426Y016909D01*
X015426Y016996D02*
X015688Y016996D01*
X015688Y017083D02*
X015426Y017083D01*
X015426Y015742D02*
X015688Y015742D01*
X015426Y015742D02*
X015426Y016004D01*
X015688Y016004D01*
X015688Y015742D01*
X015688Y015829D02*
X015426Y015829D01*
X015426Y015916D02*
X015688Y015916D01*
X015688Y016003D02*
X015426Y016003D01*
X015088Y015742D02*
X014826Y015742D01*
X014826Y016004D01*
X015088Y016004D01*
X015088Y015742D01*
X015088Y015829D02*
X014826Y015829D01*
X014826Y015916D02*
X015088Y015916D01*
X015088Y016003D02*
X014826Y016003D01*
X014826Y015304D02*
X015088Y015304D01*
X015088Y015042D01*
X014826Y015042D01*
X014826Y015304D01*
X014826Y015129D02*
X015088Y015129D01*
X015088Y015216D02*
X014826Y015216D01*
X014826Y015303D02*
X015088Y015303D01*
X015426Y015304D02*
X015688Y015304D01*
X015688Y015042D01*
X015426Y015042D01*
X015426Y015304D01*
X015426Y015129D02*
X015688Y015129D01*
X015688Y015216D02*
X015426Y015216D01*
X015426Y015303D02*
X015688Y015303D01*
X015688Y014412D02*
X015426Y014412D01*
X015426Y014674D01*
X015688Y014674D01*
X015688Y014412D01*
X015688Y014499D02*
X015426Y014499D01*
X015426Y014586D02*
X015688Y014586D01*
X015688Y014673D02*
X015426Y014673D01*
X015088Y014412D02*
X014826Y014412D01*
X014826Y014674D01*
X015088Y014674D01*
X015088Y014412D01*
X015088Y014499D02*
X014826Y014499D01*
X014826Y014586D02*
X015088Y014586D01*
X015088Y014673D02*
X014826Y014673D01*
X014826Y013974D02*
X015088Y013974D01*
X015088Y013712D01*
X014826Y013712D01*
X014826Y013974D01*
X014826Y013799D02*
X015088Y013799D01*
X015088Y013886D02*
X014826Y013886D01*
X014826Y013973D02*
X015088Y013973D01*
X015426Y013974D02*
X015688Y013974D01*
X015688Y013712D01*
X015426Y013712D01*
X015426Y013974D01*
X015426Y013799D02*
X015688Y013799D01*
X015688Y013886D02*
X015426Y013886D01*
X015426Y013973D02*
X015688Y013973D01*
X015688Y013012D02*
X015426Y013012D01*
X015426Y013274D01*
X015688Y013274D01*
X015688Y013012D01*
X015688Y013099D02*
X015426Y013099D01*
X015426Y013186D02*
X015688Y013186D01*
X015688Y013273D02*
X015426Y013273D01*
X015088Y013012D02*
X014826Y013012D01*
X014826Y013274D01*
X015088Y013274D01*
X015088Y013012D01*
X015088Y013099D02*
X014826Y013099D01*
X014826Y013186D02*
X015088Y013186D01*
X015088Y013273D02*
X014826Y013273D01*
X014826Y012312D02*
X015088Y012312D01*
X014826Y012312D02*
X014826Y012574D01*
X015088Y012574D01*
X015088Y012312D01*
X015088Y012399D02*
X014826Y012399D01*
X014826Y012486D02*
X015088Y012486D01*
X015088Y012573D02*
X014826Y012573D01*
X014826Y011874D02*
X015088Y011874D01*
X015088Y011612D01*
X014826Y011612D01*
X014826Y011874D01*
X014826Y011699D02*
X015088Y011699D01*
X015088Y011786D02*
X014826Y011786D01*
X014826Y011873D02*
X015088Y011873D01*
X015426Y011874D02*
X015688Y011874D01*
X015688Y011612D01*
X015426Y011612D01*
X015426Y011874D01*
X015426Y011699D02*
X015688Y011699D01*
X015688Y011786D02*
X015426Y011786D01*
X015426Y011873D02*
X015688Y011873D01*
X015688Y012312D02*
X015426Y012312D01*
X015426Y012574D01*
X015688Y012574D01*
X015688Y012312D01*
X015688Y012399D02*
X015426Y012399D01*
X015426Y012486D02*
X015688Y012486D01*
X015688Y012573D02*
X015426Y012573D01*
X023721Y020652D02*
X023983Y020652D01*
X023721Y020652D02*
X023721Y020914D01*
X023983Y020914D01*
X023983Y020652D01*
X023983Y020739D02*
X023721Y020739D01*
X023721Y020826D02*
X023983Y020826D01*
X023983Y020913D02*
X023721Y020913D01*
X024321Y020652D02*
X024583Y020652D01*
X024321Y020652D02*
X024321Y020914D01*
X024583Y020914D01*
X024583Y020652D01*
X024583Y020739D02*
X024321Y020739D01*
X024321Y020826D02*
X024583Y020826D01*
X024583Y020913D02*
X024321Y020913D01*
X004942Y032579D02*
X004680Y032579D01*
X004680Y032841D01*
X004942Y032841D01*
X004942Y032579D01*
X004942Y032666D02*
X004680Y032666D01*
X004680Y032753D02*
X004942Y032753D01*
X004942Y032840D02*
X004680Y032840D01*
X004342Y032579D02*
X004080Y032579D01*
X004080Y032841D01*
X004342Y032841D01*
X004342Y032579D01*
X004342Y032666D02*
X004080Y032666D01*
X004080Y032753D02*
X004342Y032753D01*
X004342Y032840D02*
X004080Y032840D01*
D21*
X019254Y034389D03*
X019254Y034763D03*
X019254Y035137D03*
X020120Y035137D03*
X020120Y034763D03*
X020120Y034389D03*
D22*
X020951Y010553D03*
X023707Y010553D03*
X018195Y010553D03*
D23*
X019895Y010553D03*
X019895Y007653D03*
X020951Y007653D03*
X022651Y007653D03*
X023707Y007653D03*
X025407Y007653D03*
X025407Y010553D03*
X022651Y010553D03*
X018195Y007653D03*
D24*
X020007Y006553D02*
X020007Y005953D01*
X020007Y004753D02*
X020007Y004153D01*
X021007Y004153D02*
X021007Y004753D01*
X022007Y004753D02*
X022007Y004153D01*
X023007Y004153D02*
X023007Y004753D01*
X023007Y005953D02*
X023007Y006553D01*
X022007Y006553D02*
X022007Y005953D01*
X021007Y005953D02*
X021007Y006553D01*
X024007Y006553D02*
X024007Y005953D01*
X025007Y005953D02*
X025007Y006553D01*
X010117Y005773D02*
X010117Y005663D01*
X009817Y005363D01*
X009357Y005363D01*
X008270Y005363D01*
X009261Y015614D02*
X009861Y015614D01*
X009861Y016614D02*
X009261Y016614D01*
X009261Y017614D02*
X009861Y017614D01*
X013956Y034830D02*
X013956Y035430D01*
X014956Y035430D02*
X014956Y034830D01*
D25*
X005515Y028871D03*
X004334Y027020D03*
X003192Y028871D03*
D26*
X008596Y027534D03*
X012337Y027534D03*
X011742Y016614D03*
D27*
X011963Y023302D03*
X011963Y025270D03*
X007671Y029798D03*
X007671Y031766D03*
D28*
X008754Y033085D03*
X010880Y021983D03*
D29*
X013728Y023740D03*
X013728Y025348D03*
X005890Y031053D03*
X005890Y032660D03*
D30*
X017148Y030232D03*
X017936Y030232D03*
X018723Y030232D03*
X019510Y030232D03*
X020298Y030232D03*
X021085Y030232D03*
X021873Y030232D03*
X022660Y030232D03*
X022660Y023933D03*
X021873Y023933D03*
X021085Y023933D03*
X020298Y023933D03*
X019510Y023933D03*
X018723Y023933D03*
X017936Y023933D03*
X017148Y023933D03*
D31*
X016566Y025114D03*
X016566Y025901D03*
X016566Y026689D03*
X016566Y027476D03*
X016566Y028263D03*
X016566Y029051D03*
D32*
X013758Y022355D02*
X013758Y021588D01*
X009142Y034728D02*
X008374Y034728D01*
D33*
X018757Y033778D03*
X018757Y032628D03*
D34*
X018760Y019728D03*
X019351Y019728D03*
X019941Y019728D03*
X020532Y019728D03*
X021122Y019728D03*
X021713Y019728D03*
X022304Y019728D03*
X022894Y019728D03*
X023485Y019728D03*
X023485Y012976D03*
X022894Y012976D03*
X022304Y012976D03*
X021713Y012976D03*
X021122Y012976D03*
X020532Y012976D03*
X019941Y012976D03*
X019351Y012976D03*
X018760Y012976D03*
D35*
X020898Y016352D03*
D36*
X026267Y004422D03*
X026267Y034343D03*
X002251Y034343D03*
X002251Y004422D03*
D37*
X019045Y007117D03*
X019857Y003153D03*
X020857Y003153D03*
X021857Y003153D03*
X022857Y003153D03*
X026157Y006133D03*
X026157Y007133D03*
D38*
X015607Y018403D03*
X015257Y017603D03*
X014907Y018403D03*
X015257Y024633D03*
X014907Y025433D03*
X015607Y025433D03*
X004861Y032051D03*
X004161Y032051D03*
X004511Y031251D03*
D39*
X012647Y011873D03*
X012647Y011173D03*
X012647Y010543D03*
X012647Y009843D03*
X011847Y010193D03*
X011847Y011523D03*
D40*
X010118Y006663D03*
X010118Y006063D03*
D41*
X017122Y011922D03*
X018122Y011922D03*
X019122Y011922D03*
X020122Y011922D03*
X021122Y011922D03*
X022122Y011922D03*
X023122Y011922D03*
X024122Y011922D03*
X025122Y011922D03*
X025122Y021922D03*
X024122Y021922D03*
X023122Y021922D03*
X022122Y021922D03*
X021122Y021922D03*
X020122Y021922D03*
X019122Y021922D03*
X018122Y021922D03*
X017122Y021922D03*
D42*
X011742Y016614D02*
X011058Y016614D01*
X011057Y016613D01*
X010637Y016613D01*
X010627Y016623D01*
X010887Y017633D02*
X010887Y017863D01*
X010807Y017943D01*
X009197Y019673D02*
X009157Y019673D01*
X009197Y019673D02*
X009207Y019683D01*
X009107Y019783D01*
X009107Y021883D01*
X009157Y024355D02*
X009301Y024498D01*
X009302Y024498D01*
X010757Y025953D01*
X010757Y025983D01*
X010127Y006753D02*
X010127Y006673D01*
X010118Y006663D01*
X010118Y006063D02*
X010118Y005774D01*
X010117Y005773D01*
D43*
X010027Y008653D03*
X010627Y016623D03*
X010807Y017943D03*
X009207Y019683D03*
X009107Y021883D03*
X009167Y024343D03*
X010757Y025983D03*
D44*
X012337Y027534D02*
X009157Y024355D01*
X009157Y019673D01*
X009157Y019643D01*
X010887Y017913D01*
X010887Y017633D01*
X010887Y016613D01*
X010888Y016614D01*
X011742Y016614D01*
X009561Y016614D01*
X009070Y010118D02*
X007722Y010118D01*
X007697Y010143D01*
X007387Y010143D01*
X007357Y010113D01*
X006847Y010113D01*
X006847Y006323D01*
X006887Y006363D01*
X008270Y006363D01*
X006847Y006323D02*
X006847Y005043D01*
X007487Y004403D01*
X010407Y004403D01*
X010655Y004651D01*
X013191Y004651D01*
X015050Y004651D01*
X015387Y004314D01*
X016394Y004314D01*
X016394Y006114D02*
X013857Y006114D01*
X013191Y006779D01*
X013191Y008234D01*
X013191Y008632D01*
X014882Y010323D01*
X013191Y008234D02*
X011697Y008234D01*
X011407Y008234D01*
X010447Y008234D01*
X010027Y008653D01*
D45*
X009597Y008635D02*
X012814Y008635D01*
X012814Y008793D02*
X009597Y008793D01*
X009597Y008882D02*
X010019Y009303D01*
X010855Y009303D01*
X010998Y009363D01*
X011108Y009472D01*
X011108Y009472D01*
X011439Y009803D01*
X011925Y009803D01*
X012046Y009853D01*
X012130Y009853D01*
X012212Y009935D01*
X012212Y010055D01*
X012237Y010116D01*
X012237Y010271D01*
X012212Y010331D01*
X012212Y010451D01*
X012130Y010533D01*
X012046Y010533D01*
X011925Y010583D01*
X011200Y010583D01*
X011056Y010524D01*
X010616Y010083D01*
X009780Y010083D01*
X009710Y010055D01*
X009710Y010245D01*
X009613Y010481D01*
X009587Y010507D01*
X009596Y010503D01*
X010235Y010503D01*
X010378Y010563D01*
X010488Y010672D01*
X010949Y011133D01*
X011925Y011133D01*
X012046Y011183D01*
X012130Y011183D01*
X012212Y011265D01*
X012212Y011385D01*
X012237Y011446D01*
X012237Y011601D01*
X012212Y011661D01*
X012212Y011781D01*
X012130Y011863D01*
X012046Y011863D01*
X011925Y011913D01*
X010710Y011913D01*
X010566Y011854D01*
X009996Y011283D01*
X009835Y011283D01*
X009575Y011543D01*
X009575Y011596D01*
X009498Y011782D01*
X009356Y011924D01*
X009171Y012000D01*
X008970Y012000D01*
X008785Y011924D01*
X008643Y011782D01*
X008566Y011596D01*
X008566Y011396D01*
X008643Y011210D01*
X008785Y011069D01*
X008970Y010992D01*
X009023Y010992D01*
X009299Y010716D01*
X009198Y010758D01*
X008497Y010758D01*
X008497Y014503D01*
X012238Y014503D01*
X014105Y016370D01*
X015160Y016370D01*
X015247Y016367D01*
X015251Y016370D01*
X015256Y016370D01*
X015317Y016431D01*
X015541Y016638D01*
X015765Y016638D01*
X015872Y016746D01*
X015872Y017161D01*
X015765Y017268D01*
X015545Y017268D01*
X015597Y017320D01*
X015597Y017886D01*
X015515Y017968D01*
X014999Y017968D01*
X014917Y017886D01*
X014917Y017320D01*
X014957Y017281D01*
X014945Y017268D01*
X014750Y017268D01*
X014667Y017186D01*
X014667Y018003D01*
X014684Y017998D01*
X014887Y017998D01*
X014887Y018383D01*
X014927Y018383D01*
X014927Y017998D01*
X015131Y017998D01*
X015177Y018011D01*
X015218Y018034D01*
X015251Y018068D01*
X015275Y018109D01*
X015276Y018112D01*
X015349Y018038D01*
X015865Y018038D01*
X015947Y018120D01*
X015947Y018183D01*
X016228Y018183D01*
X016357Y018312D01*
X016467Y018422D01*
X016467Y019052D01*
X016781Y018738D01*
X016781Y017383D01*
X016732Y017334D01*
X016683Y017217D01*
X016683Y017090D01*
X016687Y017080D01*
X016530Y016923D01*
X016401Y016794D01*
X016401Y015040D01*
X016177Y015264D01*
X016177Y015264D01*
X016048Y015393D01*
X015860Y015393D01*
X015765Y015488D01*
X015583Y015488D01*
X015653Y015558D01*
X015765Y015558D01*
X015872Y015666D01*
X015872Y016081D01*
X015765Y016188D01*
X015350Y016188D01*
X015281Y016119D01*
X015268Y016142D01*
X015226Y016184D01*
X015175Y016213D01*
X015118Y016228D01*
X014965Y016228D01*
X014965Y015881D01*
X014950Y015881D01*
X014950Y016228D01*
X014797Y016228D01*
X014740Y016213D01*
X014689Y016184D01*
X014647Y016142D01*
X014618Y016091D01*
X014602Y016034D01*
X014602Y015881D01*
X014950Y015881D01*
X014950Y015866D01*
X014965Y015866D01*
X014965Y015518D01*
X014991Y015518D01*
X014961Y015488D01*
X014750Y015488D01*
X014655Y015393D01*
X013286Y015393D01*
X013157Y015264D01*
X012857Y014964D01*
X012857Y012253D01*
X012667Y012253D01*
X012667Y011893D01*
X012627Y011893D01*
X012627Y011853D01*
X012242Y011853D01*
X012242Y011650D01*
X012255Y011604D01*
X012278Y011563D01*
X012312Y011529D01*
X012353Y011506D01*
X012356Y011505D01*
X012282Y011431D01*
X012282Y010915D01*
X012311Y010887D01*
X012278Y010854D01*
X010669Y010854D01*
X010511Y010695D02*
X012242Y010695D01*
X012242Y010767D02*
X012242Y010563D01*
X012627Y010563D01*
X012627Y010523D01*
X012242Y010523D01*
X012242Y010320D01*
X012255Y010274D01*
X012278Y010233D01*
X012312Y010199D01*
X012353Y010176D01*
X012356Y010175D01*
X012282Y010101D01*
X012282Y009585D01*
X012364Y009503D01*
X012930Y009503D01*
X013012Y009585D01*
X013012Y009897D01*
X013250Y010135D01*
X013288Y010043D01*
X013377Y009954D01*
X013494Y009905D01*
X013621Y009905D01*
X013737Y009954D01*
X013827Y010043D01*
X013875Y010160D01*
X013875Y010230D01*
X014017Y010372D01*
X014017Y013222D01*
X014068Y013273D01*
X014602Y013273D01*
X014602Y013151D01*
X014950Y013151D01*
X014950Y013136D01*
X014965Y013136D01*
X014965Y012788D01*
X015118Y012788D01*
X015175Y012804D01*
X015226Y012833D01*
X015268Y012875D01*
X015281Y012898D01*
X015350Y012828D01*
X015765Y012828D01*
X015848Y012912D01*
X015967Y012792D01*
X015967Y012264D01*
X015872Y012359D01*
X015872Y012651D01*
X015765Y012758D01*
X015350Y012758D01*
X015257Y012666D01*
X015165Y012758D01*
X014750Y012758D01*
X014642Y012651D01*
X014642Y012432D01*
X014372Y012162D01*
X014372Y011314D01*
X014498Y011188D01*
X014733Y010953D01*
X014634Y010953D01*
X014588Y010941D01*
X014547Y010917D01*
X014513Y010884D01*
X014490Y010843D01*
X014477Y010797D01*
X014477Y010356D01*
X014850Y010356D01*
X014850Y010291D01*
X014915Y010291D01*
X014915Y010356D01*
X015287Y010356D01*
X015287Y010797D01*
X015275Y010843D01*
X015266Y010858D01*
X015694Y010858D01*
X015667Y010831D01*
X015667Y010461D01*
X015642Y010401D01*
X015642Y010250D01*
X015287Y009895D01*
X015287Y010291D01*
X014915Y010291D01*
X014915Y009693D01*
X015086Y009693D01*
X014777Y009384D01*
X014717Y009241D01*
X014717Y007166D01*
X014777Y007022D01*
X014886Y006913D01*
X015156Y006643D01*
X015300Y006583D01*
X017516Y006583D01*
X017877Y006222D01*
X017877Y005604D01*
X015886Y005604D01*
X015804Y005522D01*
X015804Y004954D01*
X015652Y004954D01*
X015412Y005193D01*
X015177Y005291D01*
X013528Y005291D01*
X013528Y005634D01*
X013446Y005716D01*
X012936Y005716D01*
X012854Y005634D01*
X012854Y005291D01*
X010528Y005291D01*
X010292Y005193D01*
X010142Y005043D01*
X010120Y005043D01*
X010367Y005290D01*
X010490Y005414D01*
X010557Y005576D01*
X010557Y005760D01*
X010573Y005775D01*
X010573Y006318D01*
X010577Y006322D01*
X010600Y006364D01*
X010613Y006409D01*
X010613Y006628D01*
X010153Y006628D01*
X010153Y006698D01*
X010613Y006698D01*
X010613Y006917D01*
X010600Y006962D01*
X010577Y007004D01*
X010543Y007037D01*
X010502Y007061D01*
X010456Y007073D01*
X010153Y007073D01*
X010153Y006698D01*
X010083Y006698D01*
X010083Y007073D01*
X009779Y007073D01*
X009733Y007061D01*
X009692Y007037D01*
X009659Y007004D01*
X009635Y006962D01*
X009623Y006917D01*
X009623Y006698D01*
X010083Y006698D01*
X010083Y006628D01*
X009623Y006628D01*
X009623Y006409D01*
X009635Y006364D01*
X009659Y006322D01*
X009663Y006318D01*
X009663Y005831D01*
X009635Y005803D01*
X009597Y005803D01*
X009597Y008882D01*
X009667Y008952D02*
X012814Y008952D01*
X012814Y009110D02*
X009826Y009110D01*
X009984Y009269D02*
X012850Y009269D01*
X012827Y009228D01*
X012814Y009182D01*
X012814Y008252D01*
X013173Y008252D01*
X013173Y009339D01*
X012971Y009339D01*
X012925Y009326D01*
X012884Y009303D01*
X012850Y009269D01*
X013173Y009269D02*
X013210Y009269D01*
X013210Y009339D02*
X013210Y008252D01*
X013568Y008252D01*
X013568Y009182D01*
X013556Y009228D01*
X013532Y009269D01*
X013499Y009303D01*
X013457Y009326D01*
X013412Y009339D01*
X013210Y009339D01*
X013210Y009110D02*
X013173Y009110D01*
X013173Y008952D02*
X013210Y008952D01*
X013210Y008793D02*
X013173Y008793D01*
X013173Y008635D02*
X013210Y008635D01*
X013210Y008476D02*
X013173Y008476D01*
X013173Y008318D02*
X013210Y008318D01*
X013237Y008280D02*
X013191Y008234D01*
X013173Y008252D02*
X013173Y008215D01*
X013210Y008215D01*
X013210Y008252D01*
X013173Y008252D01*
X013173Y008215D02*
X012814Y008215D01*
X012814Y007285D01*
X012827Y007239D01*
X012850Y007198D01*
X012884Y007164D01*
X012925Y007141D01*
X012971Y007128D01*
X013173Y007128D01*
X013173Y008215D01*
X013210Y008215D02*
X013210Y007128D01*
X013412Y007128D01*
X013457Y007141D01*
X013499Y007164D01*
X013532Y007198D01*
X013556Y007239D01*
X013568Y007285D01*
X013568Y008215D01*
X013210Y008215D01*
X013210Y008159D02*
X013173Y008159D01*
X013173Y008001D02*
X013210Y008001D01*
X013210Y007842D02*
X013173Y007842D01*
X013173Y007684D02*
X013210Y007684D01*
X013210Y007525D02*
X013173Y007525D01*
X013173Y007367D02*
X013210Y007367D01*
X013210Y007208D02*
X013173Y007208D01*
X012844Y007208D02*
X009597Y007208D01*
X009597Y007050D02*
X009714Y007050D01*
X009623Y006891D02*
X009597Y006891D01*
X009597Y006733D02*
X009623Y006733D01*
X009623Y006574D02*
X009597Y006574D01*
X009597Y006416D02*
X009623Y006416D01*
X009597Y006257D02*
X009663Y006257D01*
X009663Y006099D02*
X009597Y006099D01*
X009597Y005940D02*
X009663Y005940D01*
X009917Y006203D02*
X010058Y006063D01*
X010118Y006063D01*
X010083Y006733D02*
X010153Y006733D01*
X010153Y006891D02*
X010083Y006891D01*
X010083Y007050D02*
X010153Y007050D01*
X009597Y007367D02*
X012814Y007367D01*
X012814Y007525D02*
X009597Y007525D01*
X009597Y007684D02*
X012814Y007684D01*
X012814Y007842D02*
X009597Y007842D01*
X009597Y008001D02*
X012814Y008001D01*
X012814Y008159D02*
X009597Y008159D01*
X009597Y008318D02*
X012814Y008318D01*
X012814Y008476D02*
X009597Y008476D01*
X008817Y008476D02*
X007487Y008476D01*
X007487Y008318D02*
X008817Y008318D01*
X008817Y008159D02*
X007487Y008159D01*
X007487Y008001D02*
X008817Y008001D01*
X008817Y007842D02*
X007487Y007842D01*
X007487Y007684D02*
X007677Y007684D01*
X007726Y007733D02*
X007603Y007610D01*
X007537Y007450D01*
X007537Y007276D01*
X007603Y007116D01*
X007716Y007003D01*
X007487Y007003D01*
X007487Y008973D01*
X007507Y008973D01*
X007797Y009051D01*
X008057Y009201D01*
X008270Y009413D01*
X008307Y009478D01*
X009091Y009478D01*
X008986Y009374D01*
X008877Y009264D01*
X008817Y009121D01*
X008817Y007731D01*
X008815Y007733D01*
X008654Y007800D01*
X007887Y007800D01*
X007726Y007733D01*
X007568Y007525D02*
X007487Y007525D01*
X007487Y007367D02*
X007537Y007367D01*
X007565Y007208D02*
X007487Y007208D01*
X007487Y007050D02*
X007669Y007050D01*
X007487Y008635D02*
X008817Y008635D01*
X008817Y008793D02*
X007487Y008793D01*
X007487Y008952D02*
X008817Y008952D01*
X008817Y009110D02*
X007900Y009110D01*
X008125Y009269D02*
X008881Y009269D01*
X009040Y009427D02*
X008278Y009427D01*
X008497Y010854D02*
X009161Y010854D01*
X008921Y011012D02*
X008497Y011012D01*
X008497Y011171D02*
X008683Y011171D01*
X008594Y011329D02*
X008497Y011329D01*
X008497Y011488D02*
X008566Y011488D01*
X008587Y011646D02*
X008497Y011646D01*
X008497Y011805D02*
X008666Y011805D01*
X008497Y011963D02*
X008881Y011963D01*
X009260Y011963D02*
X012242Y011963D01*
X012242Y011893D02*
X012627Y011893D01*
X012627Y012253D01*
X012399Y012253D01*
X012353Y012241D01*
X012312Y012217D01*
X012278Y012184D01*
X012255Y012143D01*
X012242Y012097D01*
X012242Y011893D01*
X012242Y011805D02*
X012189Y011805D01*
X012218Y011646D02*
X012243Y011646D01*
X012237Y011488D02*
X012339Y011488D01*
X012282Y011329D02*
X012212Y011329D01*
X012282Y011171D02*
X012015Y011171D01*
X012282Y011012D02*
X010828Y011012D01*
X011087Y010537D02*
X010316Y010537D01*
X010752Y010220D02*
X009710Y010220D01*
X009710Y010061D02*
X009727Y010061D01*
X009655Y010378D02*
X010911Y010378D01*
X011380Y009744D02*
X012282Y009744D01*
X012282Y009586D02*
X011221Y009586D01*
X011063Y009427D02*
X014820Y009427D01*
X014729Y009269D02*
X013532Y009269D01*
X013568Y009110D02*
X014717Y009110D01*
X014717Y008952D02*
X013568Y008952D01*
X013568Y008793D02*
X014717Y008793D01*
X014717Y008635D02*
X013568Y008635D01*
X013568Y008476D02*
X014717Y008476D01*
X014717Y008318D02*
X013568Y008318D01*
X013568Y008159D02*
X014717Y008159D01*
X014717Y008001D02*
X013568Y008001D01*
X013568Y007842D02*
X014717Y007842D01*
X014717Y007684D02*
X013568Y007684D01*
X013568Y007525D02*
X014717Y007525D01*
X014717Y007367D02*
X013568Y007367D01*
X013538Y007208D02*
X014717Y007208D01*
X014765Y007050D02*
X010521Y007050D01*
X010613Y006891D02*
X014908Y006891D01*
X015066Y006733D02*
X010613Y006733D01*
X010613Y006574D02*
X017525Y006574D01*
X017683Y006416D02*
X017016Y006416D01*
X017012Y006433D02*
X016988Y006474D01*
X016954Y006508D01*
X016913Y006532D01*
X016868Y006544D01*
X016439Y006544D01*
X016439Y006159D01*
X016349Y006159D01*
X016349Y006544D01*
X015920Y006544D01*
X015874Y006532D01*
X015833Y006508D01*
X015800Y006474D01*
X015776Y006433D01*
X015764Y006388D01*
X015764Y006159D01*
X016349Y006159D01*
X016349Y006069D01*
X016439Y006069D01*
X016439Y006159D01*
X017024Y006159D01*
X017024Y006388D01*
X017012Y006433D01*
X017024Y006257D02*
X017842Y006257D01*
X017877Y006099D02*
X016439Y006099D01*
X016439Y006069D02*
X017024Y006069D01*
X017024Y005840D01*
X017012Y005794D01*
X016988Y005753D01*
X016954Y005720D01*
X016913Y005696D01*
X016868Y005684D01*
X016439Y005684D01*
X016439Y006069D01*
X016349Y006069D02*
X016349Y005684D01*
X015920Y005684D01*
X015874Y005696D01*
X015833Y005720D01*
X015800Y005753D01*
X015776Y005794D01*
X015764Y005840D01*
X015764Y006069D01*
X016349Y006069D01*
X016349Y006099D02*
X010573Y006099D01*
X010573Y006257D02*
X015764Y006257D01*
X015771Y006416D02*
X010613Y006416D01*
X010573Y005940D02*
X015764Y005940D01*
X015783Y005782D02*
X010573Y005782D01*
X010557Y005623D02*
X012854Y005623D01*
X012854Y005465D02*
X010511Y005465D01*
X010383Y005306D02*
X012854Y005306D01*
X013528Y005306D02*
X015804Y005306D01*
X015804Y005148D02*
X015458Y005148D01*
X015616Y004989D02*
X015804Y004989D01*
X015804Y005465D02*
X013528Y005465D01*
X013528Y005623D02*
X017877Y005623D01*
X017877Y005782D02*
X017004Y005782D01*
X017024Y005940D02*
X017877Y005940D01*
X018657Y006461D02*
X018598Y006604D01*
X018488Y006714D01*
X018045Y007157D01*
X018092Y007138D01*
X018297Y007138D01*
X018487Y007216D01*
X018524Y007253D01*
X018511Y007223D01*
X018511Y007010D01*
X018592Y006814D01*
X018743Y006664D01*
X018939Y006583D01*
X019151Y006583D01*
X019347Y006664D01*
X019497Y006814D01*
X019579Y007010D01*
X019579Y007196D01*
X019604Y007178D01*
X019682Y007138D01*
X019765Y007111D01*
X019851Y007098D01*
X019862Y007098D01*
X019862Y007620D01*
X019340Y007620D01*
X019340Y007609D01*
X019346Y007570D01*
X019151Y007650D01*
X018939Y007650D01*
X018856Y007616D01*
X018704Y007768D01*
X018632Y007944D01*
X018487Y008089D01*
X018297Y008168D01*
X018092Y008168D01*
X017903Y008089D01*
X017758Y007944D01*
X017729Y007873D01*
X016899Y007873D01*
X016707Y008064D01*
X016707Y008363D01*
X016767Y008304D01*
X016884Y008255D01*
X017011Y008255D01*
X017127Y008304D01*
X017217Y008393D01*
X017265Y008510D01*
X017265Y008580D01*
X017507Y008822D01*
X017507Y009203D01*
X022016Y009203D01*
X023273Y007947D01*
X023270Y007944D01*
X023192Y007755D01*
X023192Y007550D01*
X023270Y007361D01*
X023415Y007216D01*
X023604Y007138D01*
X023809Y007138D01*
X023881Y007167D01*
X024055Y006993D01*
X023920Y006993D01*
X023758Y006926D01*
X023634Y006803D01*
X023567Y006641D01*
X023567Y006124D01*
X023447Y006004D01*
X023447Y006641D01*
X023380Y006803D01*
X023257Y006926D01*
X023095Y006993D01*
X022920Y006993D01*
X022758Y006926D01*
X022634Y006803D01*
X022567Y006641D01*
X022567Y005866D01*
X022634Y005704D01*
X022758Y005580D01*
X022775Y005573D01*
X022240Y005573D01*
X022257Y005580D01*
X022380Y005704D01*
X022447Y005866D01*
X022447Y006641D01*
X022380Y006803D01*
X022257Y006926D01*
X022095Y006993D01*
X021920Y006993D01*
X021758Y006926D01*
X021702Y006870D01*
X021299Y007273D01*
X021387Y007361D01*
X021466Y007550D01*
X021466Y007755D01*
X021387Y007944D01*
X021243Y008089D01*
X021053Y008168D01*
X020848Y008168D01*
X020659Y008089D01*
X020514Y007944D01*
X020439Y007763D01*
X020436Y007783D01*
X020409Y007866D01*
X020370Y007943D01*
X020318Y008014D01*
X020256Y008076D01*
X020186Y008127D01*
X020108Y008167D01*
X020025Y008194D01*
X019939Y008208D01*
X019927Y008208D01*
X019927Y007685D01*
X019862Y007685D01*
X019862Y007620D01*
X019927Y007620D01*
X019927Y007098D01*
X019939Y007098D01*
X020025Y007111D01*
X020108Y007138D01*
X020186Y007178D01*
X020256Y007229D01*
X020318Y007291D01*
X020370Y007362D01*
X020409Y007439D01*
X020436Y007523D01*
X020439Y007542D01*
X020514Y007361D01*
X020659Y007216D01*
X020786Y007163D01*
X020956Y006993D01*
X020920Y006993D01*
X020758Y006926D01*
X020634Y006803D01*
X020567Y006641D01*
X020567Y005866D01*
X020634Y005704D01*
X020758Y005580D01*
X020920Y005513D01*
X020956Y005513D01*
X020877Y005434D01*
X019459Y005434D01*
X019459Y005972D01*
X019377Y006054D01*
X018657Y006054D01*
X018657Y006461D01*
X018657Y006416D02*
X019527Y006416D01*
X019527Y006273D02*
X019527Y006591D01*
X019539Y006666D01*
X019562Y006738D01*
X019597Y006805D01*
X019641Y006866D01*
X019695Y006919D01*
X019756Y006964D01*
X019823Y006998D01*
X019895Y007022D01*
X019970Y007033D01*
X019987Y007033D01*
X019987Y006273D01*
X019987Y006233D01*
X020027Y006233D01*
X020027Y005473D01*
X020045Y005473D01*
X020120Y005485D01*
X020192Y005508D01*
X020259Y005543D01*
X020320Y005587D01*
X020373Y005641D01*
X020418Y005702D01*
X020452Y005769D01*
X020475Y005841D01*
X020487Y005916D01*
X020487Y006233D01*
X020027Y006233D01*
X020027Y006273D01*
X020487Y006273D01*
X020487Y006591D01*
X020475Y006666D01*
X020452Y006738D01*
X020418Y006805D01*
X020373Y006866D01*
X020320Y006919D01*
X020259Y006964D01*
X020192Y006998D01*
X020120Y007022D01*
X020045Y007033D01*
X020027Y007033D01*
X020027Y006273D01*
X019987Y006273D01*
X019527Y006273D01*
X019527Y006233D02*
X019527Y005916D01*
X019539Y005841D01*
X019562Y005769D01*
X019597Y005702D01*
X019641Y005641D01*
X019695Y005587D01*
X019756Y005543D01*
X019823Y005508D01*
X019895Y005485D01*
X019970Y005473D01*
X019987Y005473D01*
X019987Y006233D01*
X019527Y006233D01*
X019527Y006099D02*
X018657Y006099D01*
X018657Y006257D02*
X019987Y006257D01*
X020027Y006257D02*
X020567Y006257D01*
X020567Y006099D02*
X020487Y006099D01*
X020487Y005940D02*
X020567Y005940D01*
X020602Y005782D02*
X020456Y005782D01*
X020356Y005623D02*
X020715Y005623D01*
X020908Y005465D02*
X019459Y005465D01*
X019459Y005623D02*
X019658Y005623D01*
X019558Y005782D02*
X019459Y005782D01*
X019459Y005940D02*
X019527Y005940D01*
X019987Y005940D02*
X020027Y005940D01*
X020027Y005782D02*
X019987Y005782D01*
X019987Y005623D02*
X020027Y005623D01*
X019591Y004994D02*
X019562Y004938D01*
X019539Y004866D01*
X019527Y004791D01*
X019527Y004473D01*
X019987Y004473D01*
X019987Y004433D01*
X019527Y004433D01*
X019527Y004116D01*
X019539Y004041D01*
X019562Y003969D01*
X019597Y003902D01*
X019641Y003841D01*
X019695Y003787D01*
X019756Y003743D01*
X019823Y003708D01*
X019895Y003685D01*
X019937Y003678D01*
X019937Y003233D01*
X019777Y003233D01*
X019777Y003073D01*
X019289Y003073D01*
X019298Y003019D01*
X019326Y002933D01*
X019367Y002853D01*
X019420Y002780D01*
X019484Y002716D01*
X019557Y002663D01*
X019614Y002633D01*
X002037Y002633D01*
X002037Y003971D01*
X002040Y003972D01*
X002042Y003971D01*
X002047Y003962D01*
X002080Y003953D01*
X002111Y003938D01*
X002121Y003942D01*
X002123Y003941D01*
X002130Y003933D01*
X002164Y003930D01*
X002197Y003921D01*
X002206Y003927D01*
X002209Y003926D01*
X002217Y003920D01*
X002251Y003923D01*
X002280Y003920D01*
X002228Y003796D01*
X002228Y003473D01*
X002352Y003176D01*
X002580Y002948D01*
X002877Y002825D01*
X003199Y002825D01*
X003497Y002948D01*
X003725Y003176D01*
X003848Y003473D01*
X003848Y003796D01*
X003725Y004093D01*
X003497Y004321D01*
X003199Y004444D01*
X002877Y004444D01*
X002753Y004393D01*
X002750Y004422D01*
X002753Y004456D01*
X002746Y004464D01*
X002746Y004466D01*
X002751Y004475D01*
X002743Y004509D01*
X002740Y004543D01*
X002732Y004549D01*
X002731Y004552D01*
X002734Y004561D01*
X002720Y004593D01*
X002711Y004626D01*
X002702Y004631D01*
X002701Y004633D01*
X002703Y004643D01*
X002683Y004671D01*
X002669Y004702D01*
X002659Y004706D01*
X002658Y004708D01*
X002658Y004718D01*
X002633Y004743D01*
X002614Y004771D01*
X002603Y004773D01*
X002602Y004774D01*
X002600Y004784D01*
X002572Y004804D01*
X002548Y004828D01*
X002537Y004828D01*
X002535Y004830D01*
X002532Y004840D01*
X002501Y004854D01*
X002472Y004874D01*
X002462Y004872D01*
X002460Y004873D01*
X002455Y004882D01*
X002422Y004891D01*
X002391Y004905D01*
X002381Y004902D01*
X002379Y004902D01*
X002372Y004910D01*
X002338Y004913D01*
X002305Y004922D01*
X002296Y004917D01*
X002293Y004917D01*
X002285Y004924D01*
X002251Y004921D01*
X002217Y004924D01*
X002209Y004917D01*
X002206Y004917D01*
X002197Y004922D01*
X002164Y004913D01*
X002130Y004910D01*
X002123Y004902D01*
X002121Y004902D01*
X002111Y004905D01*
X002080Y004891D01*
X002047Y004882D01*
X002042Y004873D01*
X002040Y004872D01*
X002037Y004872D01*
X002037Y033893D01*
X002040Y033893D01*
X002042Y033892D01*
X002047Y033883D01*
X002080Y033874D01*
X002111Y033860D01*
X002121Y033863D01*
X002123Y033863D01*
X002130Y033855D01*
X002164Y033852D01*
X002197Y033843D01*
X002206Y033848D01*
X002209Y033848D01*
X002217Y033841D01*
X002251Y033844D01*
X002285Y033841D01*
X002293Y033848D01*
X002296Y033848D01*
X002305Y033843D01*
X002338Y033852D01*
X002372Y033855D01*
X002379Y033863D01*
X002381Y033863D01*
X002391Y033860D01*
X002422Y033874D01*
X002455Y033883D01*
X002460Y033892D01*
X002462Y033893D01*
X002472Y033891D01*
X002501Y033911D01*
X002532Y033925D01*
X002535Y033935D01*
X002537Y033937D01*
X002548Y033937D01*
X002572Y033961D01*
X002600Y033980D01*
X002602Y033991D01*
X002603Y033992D01*
X002614Y033994D01*
X002633Y034022D01*
X002658Y034047D01*
X002658Y034057D01*
X002659Y034059D01*
X002669Y034062D01*
X002683Y034094D01*
X002703Y034122D01*
X002701Y034132D01*
X002702Y034134D01*
X002711Y034139D01*
X002720Y034172D01*
X002734Y034203D01*
X002731Y034213D01*
X002732Y034216D01*
X002740Y034222D01*
X002743Y034256D01*
X002751Y034290D01*
X002746Y034299D01*
X002746Y034301D01*
X002753Y034309D01*
X002750Y034343D01*
X002753Y034372D01*
X002877Y034321D01*
X003199Y034321D01*
X003497Y034444D01*
X003725Y034672D01*
X003848Y034969D01*
X003848Y035292D01*
X003725Y035589D01*
X003497Y035817D01*
X003199Y035940D01*
X002877Y035940D01*
X002580Y035817D01*
X002352Y035589D01*
X002228Y035292D01*
X002228Y034969D01*
X002280Y034845D01*
X002251Y034842D01*
X002217Y034845D01*
X002209Y034839D01*
X002206Y034838D01*
X002197Y034843D01*
X002164Y034835D01*
X002130Y034832D01*
X002123Y034824D01*
X002121Y034823D01*
X002111Y034827D01*
X002080Y034812D01*
X002047Y034803D01*
X002042Y034794D01*
X002040Y034793D01*
X002037Y034794D01*
X002037Y036132D01*
X026480Y036132D01*
X026480Y034794D01*
X026478Y034793D01*
X026476Y034794D01*
X026471Y034803D01*
X026437Y034812D01*
X026406Y034827D01*
X026397Y034823D01*
X026394Y034824D01*
X026388Y034832D01*
X026353Y034835D01*
X026320Y034843D01*
X026311Y034838D01*
X026309Y034839D01*
X026301Y034845D01*
X026267Y034842D01*
X026238Y034845D01*
X026289Y034969D01*
X026289Y035292D01*
X026166Y035589D01*
X025938Y035817D01*
X025640Y035940D01*
X025318Y035940D01*
X025021Y035817D01*
X024793Y035589D01*
X024669Y035292D01*
X024669Y034969D01*
X024793Y034672D01*
X025021Y034444D01*
X025318Y034321D01*
X025640Y034321D01*
X025765Y034372D01*
X025768Y034343D01*
X025765Y034309D01*
X025771Y034301D01*
X025772Y034299D01*
X025766Y034290D01*
X025775Y034256D01*
X025778Y034222D01*
X025786Y034216D01*
X025787Y034213D01*
X025783Y034203D01*
X025798Y034172D01*
X025807Y034139D01*
X025816Y034134D01*
X025817Y034132D01*
X025815Y034122D01*
X025834Y034094D01*
X025849Y034062D01*
X025859Y034059D01*
X025860Y034057D01*
X025860Y034047D01*
X025884Y034022D01*
X025904Y033994D01*
X025914Y033992D01*
X025916Y033991D01*
X025918Y033980D01*
X025946Y033961D01*
X025970Y033937D01*
X025981Y033937D01*
X025983Y033935D01*
X025986Y033925D01*
X026017Y033911D01*
X026045Y033891D01*
X026056Y033893D01*
X026058Y033892D01*
X026063Y033883D01*
X026096Y033874D01*
X026127Y033860D01*
X026137Y033863D01*
X026139Y033863D01*
X026146Y033855D01*
X026180Y033852D01*
X026213Y033843D01*
X026222Y033848D01*
X026225Y033848D01*
X026233Y033841D01*
X026267Y033844D01*
X026301Y033841D01*
X026309Y033848D01*
X026311Y033848D01*
X026320Y033843D01*
X026353Y033852D01*
X026388Y033855D01*
X026394Y033863D01*
X026397Y033863D01*
X026406Y033860D01*
X026437Y033874D01*
X026471Y033883D01*
X026476Y033892D01*
X026478Y033893D01*
X026480Y033893D01*
X026480Y030406D01*
X023036Y030406D01*
X023036Y030684D01*
X022954Y030766D01*
X022592Y030766D01*
X022639Y030880D01*
X022639Y031007D01*
X022591Y031124D01*
X022502Y031213D01*
X022477Y031223D01*
X024076Y031223D01*
X024076Y031046D01*
X024184Y030938D01*
X024598Y030938D01*
X024691Y031031D01*
X024784Y030938D01*
X025198Y030938D01*
X025293Y031033D01*
X025928Y031033D01*
X026048Y031153D01*
X026177Y031282D01*
X026177Y032104D01*
X025887Y032394D01*
X025887Y032394D01*
X025758Y032523D01*
X025667Y032523D01*
X025667Y032944D01*
X024267Y034344D01*
X024267Y034554D01*
X023987Y034834D01*
X023987Y034835D01*
X023987Y034919D01*
X023913Y034993D01*
X023987Y035067D01*
X023987Y035419D01*
X023905Y035501D01*
X023317Y035501D01*
X023279Y035463D01*
X021896Y035463D01*
X021858Y035501D01*
X021784Y035501D01*
X021784Y035530D01*
X021827Y035573D01*
X021875Y035690D01*
X021875Y035817D01*
X021827Y035934D01*
X021737Y036023D01*
X021621Y036071D01*
X021494Y036071D01*
X021377Y036023D01*
X021288Y035934D01*
X021239Y035817D01*
X021239Y035813D01*
X021238Y035813D01*
X021088Y035963D01*
X018766Y035963D01*
X018583Y035780D01*
X018557Y035844D01*
X018467Y035933D01*
X018351Y035981D01*
X018224Y035981D01*
X018107Y035933D01*
X018018Y035844D01*
X018004Y035812D01*
X017947Y035754D01*
X017861Y035668D01*
X017650Y035668D01*
X017557Y035576D01*
X017465Y035668D01*
X017050Y035668D01*
X016942Y035561D01*
X016942Y035243D01*
X015396Y035243D01*
X015396Y035518D01*
X015329Y035680D01*
X015205Y035804D01*
X015043Y035870D01*
X014868Y035870D01*
X014706Y035804D01*
X014583Y035680D01*
X014516Y035518D01*
X014516Y034743D01*
X014583Y034581D01*
X014706Y034457D01*
X014868Y034390D01*
X015043Y034390D01*
X015205Y034457D01*
X015329Y034581D01*
X015396Y034743D01*
X015396Y034803D01*
X016942Y034803D01*
X016942Y034446D01*
X017050Y034338D01*
X017465Y034338D01*
X017557Y034431D01*
X017650Y034338D01*
X017901Y034338D01*
X017971Y034268D01*
X017650Y034268D01*
X017581Y034199D01*
X017568Y034222D01*
X017526Y034264D01*
X017475Y034293D01*
X017418Y034308D01*
X017265Y034308D01*
X017265Y033961D01*
X017250Y033961D01*
X017250Y034308D01*
X017097Y034308D01*
X017040Y034293D01*
X016989Y034264D01*
X016947Y034222D01*
X016918Y034171D01*
X016902Y034114D01*
X016902Y033961D01*
X017250Y033961D01*
X017250Y033946D01*
X017265Y033946D01*
X017265Y033598D01*
X017418Y033598D01*
X017475Y033614D01*
X017526Y033643D01*
X017568Y033685D01*
X017581Y033708D01*
X017650Y033638D01*
X017861Y033638D01*
X017891Y033608D01*
X017865Y033608D01*
X017865Y033261D01*
X018212Y033261D01*
X018212Y033414D01*
X018199Y033464D01*
X018249Y033413D01*
X019265Y033413D01*
X019347Y033495D01*
X019347Y034061D01*
X019298Y034111D01*
X019377Y034111D01*
X019377Y032914D01*
X019375Y032923D01*
X019351Y032964D01*
X019318Y032997D01*
X019277Y033021D01*
X019231Y033033D01*
X018790Y033033D01*
X018790Y032661D01*
X018725Y032661D01*
X018725Y033033D01*
X018284Y033033D01*
X018238Y033021D01*
X018197Y032997D01*
X018163Y032964D01*
X018140Y032923D01*
X018127Y032877D01*
X018127Y032806D01*
X018065Y032868D01*
X017650Y032868D01*
X017557Y032776D01*
X017465Y032868D01*
X017050Y032868D01*
X016942Y032761D01*
X016942Y032346D01*
X017037Y032251D01*
X017037Y032156D01*
X016942Y032061D01*
X016942Y032000D01*
X016237Y032705D01*
X016094Y032765D01*
X015649Y032765D01*
X015649Y032797D01*
X015567Y032879D01*
X014964Y032879D01*
X015750Y033665D01*
X015841Y033665D01*
X015957Y033714D01*
X016047Y033803D01*
X016079Y033880D01*
X016797Y033162D01*
X016926Y033033D01*
X016955Y033033D01*
X017050Y032938D01*
X017465Y032938D01*
X017534Y033008D01*
X017547Y032985D01*
X017589Y032943D01*
X017640Y032914D01*
X017697Y032898D01*
X017850Y032898D01*
X017850Y033246D01*
X017865Y033246D01*
X017865Y033261D01*
X017850Y033261D01*
X017850Y033608D01*
X017697Y033608D01*
X017640Y033593D01*
X017589Y033564D01*
X017547Y033522D01*
X017534Y033499D01*
X017465Y033568D01*
X017050Y033568D01*
X017032Y033550D01*
X016038Y034543D01*
X015526Y034543D01*
X015397Y034414D01*
X015216Y034233D01*
X014757Y034233D01*
X014707Y034283D01*
X014591Y034331D01*
X014464Y034331D01*
X014347Y034283D01*
X014258Y034194D01*
X014209Y034077D01*
X014209Y033950D01*
X014258Y033833D01*
X014307Y033783D01*
X014307Y033226D01*
X013933Y032852D01*
X013867Y032879D01*
X013666Y032879D01*
X013481Y032802D01*
X013339Y032660D01*
X013263Y032475D01*
X013263Y032274D01*
X013287Y032214D01*
X013138Y032363D01*
X008920Y032363D01*
X009168Y032466D01*
X009373Y032671D01*
X009485Y032940D01*
X009485Y033230D01*
X009373Y033499D01*
X009168Y033704D01*
X008899Y033816D01*
X008609Y033816D01*
X008340Y033704D01*
X008135Y033499D01*
X008023Y033230D01*
X008023Y033028D01*
X007618Y033433D01*
X004623Y033433D01*
X004215Y033025D01*
X004003Y033025D01*
X003896Y032917D01*
X003896Y032502D01*
X003942Y032456D01*
X003937Y032456D01*
X003891Y032443D01*
X003850Y032420D01*
X003817Y032386D01*
X003793Y032345D01*
X003781Y032299D01*
X003781Y032071D01*
X004141Y032071D01*
X004141Y032031D01*
X004181Y032031D01*
X004181Y031646D01*
X004384Y031646D01*
X004430Y031658D01*
X004471Y031682D01*
X004505Y031715D01*
X004528Y031756D01*
X004529Y031759D01*
X004603Y031686D01*
X005119Y031686D01*
X005201Y031768D01*
X005201Y032334D01*
X005119Y032416D01*
X005081Y032416D01*
X005081Y032457D01*
X005126Y032502D01*
X005126Y032917D01*
X005050Y032993D01*
X005402Y032993D01*
X005402Y032248D01*
X005484Y032166D01*
X005487Y032166D01*
X005487Y031984D01*
X004974Y031471D01*
X004851Y031471D01*
X004851Y031534D01*
X004769Y031616D01*
X004253Y031616D01*
X004171Y031534D01*
X004171Y030968D01*
X004253Y030886D01*
X004769Y030886D01*
X004851Y030968D01*
X004851Y031031D01*
X005156Y031031D01*
X005402Y031276D01*
X005402Y030640D01*
X005484Y030558D01*
X005590Y030558D01*
X005590Y030011D01*
X005365Y030011D01*
X005075Y029933D01*
X004815Y029783D01*
X004603Y029571D01*
X004452Y029311D01*
X004375Y029021D01*
X004375Y028721D01*
X004452Y028431D01*
X004603Y028171D01*
X004684Y028090D01*
X004646Y028103D01*
X004522Y028131D01*
X004414Y028143D01*
X004414Y027100D01*
X005457Y027100D01*
X005444Y027209D01*
X005416Y027332D01*
X005403Y027370D01*
X006151Y026622D01*
X006217Y026556D01*
X006217Y024775D01*
X006185Y024853D01*
X006029Y025009D01*
X005826Y025093D01*
X004779Y025093D01*
X004575Y025009D01*
X004420Y024853D01*
X004335Y024650D01*
X004335Y024430D01*
X004420Y024226D01*
X004575Y024071D01*
X004779Y023987D01*
X005003Y023987D01*
X004862Y023949D01*
X004602Y023799D01*
X004390Y023586D01*
X004240Y023326D01*
X004238Y023318D01*
X004235Y023313D01*
X004157Y023023D01*
X004157Y022723D01*
X004162Y022705D01*
X004162Y021083D01*
X004240Y020793D01*
X004390Y020533D01*
X004602Y020321D01*
X004862Y020171D01*
X005003Y020133D01*
X004779Y020133D01*
X004575Y020048D01*
X004420Y019893D01*
X004335Y019689D01*
X004335Y019469D01*
X004420Y019266D01*
X004575Y019110D01*
X004779Y019026D01*
X005826Y019026D01*
X006029Y019110D01*
X006185Y019266D01*
X006217Y019345D01*
X006217Y018161D01*
X006185Y018239D01*
X006029Y018395D01*
X005826Y018479D01*
X004779Y018479D01*
X004575Y018395D01*
X004420Y018239D01*
X004335Y018036D01*
X004335Y017816D01*
X004420Y017612D01*
X004575Y017457D01*
X004779Y017372D01*
X005826Y017372D01*
X006029Y017457D01*
X006185Y017612D01*
X006217Y017691D01*
X006217Y016591D01*
X006168Y016659D01*
X006102Y016725D01*
X006027Y016780D01*
X005943Y016822D01*
X005855Y016851D01*
X005762Y016866D01*
X005360Y016866D01*
X005360Y016330D01*
X005244Y016330D01*
X005244Y016214D01*
X005360Y016214D01*
X005360Y015679D01*
X005762Y015679D01*
X005855Y015693D01*
X005943Y015722D01*
X006027Y015765D01*
X006102Y015820D01*
X006168Y015886D01*
X006217Y015953D01*
X006217Y014853D01*
X006185Y014932D01*
X006029Y015088D01*
X005826Y015172D01*
X004779Y015172D01*
X004575Y015088D01*
X004420Y014932D01*
X004335Y014729D01*
X004335Y014509D01*
X004420Y014305D01*
X004575Y014150D01*
X004779Y014065D01*
X005826Y014065D01*
X006029Y014150D01*
X006185Y014305D01*
X006217Y014384D01*
X006217Y013284D01*
X006168Y013352D01*
X006102Y013418D01*
X006027Y013473D01*
X005943Y013515D01*
X005855Y013544D01*
X005762Y013559D01*
X005360Y013559D01*
X005360Y013023D01*
X005244Y013023D01*
X005244Y012907D01*
X005360Y012907D01*
X005360Y012372D01*
X005762Y012372D01*
X005855Y012386D01*
X005943Y012415D01*
X006027Y012458D01*
X006102Y012513D01*
X006168Y012579D01*
X006217Y012646D01*
X006217Y011546D01*
X006185Y011625D01*
X006029Y011781D01*
X005826Y011865D01*
X004779Y011865D01*
X004575Y011781D01*
X004420Y011625D01*
X004335Y011422D01*
X004335Y011202D01*
X004420Y010998D01*
X004575Y010842D01*
X004779Y010758D01*
X005826Y010758D01*
X006029Y010842D01*
X006185Y010998D01*
X006217Y011077D01*
X006217Y010265D01*
X006207Y010241D01*
X006207Y009991D01*
X006168Y010045D01*
X006102Y010111D01*
X006027Y010166D01*
X005943Y010208D01*
X005855Y010237D01*
X005762Y010251D01*
X005360Y010251D01*
X005360Y009716D01*
X005244Y009716D01*
X005244Y009600D01*
X004297Y009600D01*
X004310Y009519D01*
X004339Y009430D01*
X004381Y009347D01*
X004436Y009271D01*
X004502Y009205D01*
X004578Y009151D01*
X004661Y009108D01*
X004750Y009079D01*
X004842Y009065D01*
X005244Y009065D01*
X005244Y009600D01*
X005360Y009600D01*
X005360Y009065D01*
X005762Y009065D01*
X005855Y009079D01*
X005943Y009108D01*
X006027Y009151D01*
X006102Y009205D01*
X006168Y009271D01*
X006207Y009325D01*
X006207Y008263D01*
X006185Y008318D01*
X006207Y008318D01*
X006185Y008318D02*
X006029Y008474D01*
X005826Y008558D01*
X004779Y008558D01*
X004575Y008474D01*
X004420Y008318D01*
X004335Y008115D01*
X004335Y007894D01*
X004420Y007691D01*
X004575Y007535D01*
X004779Y007451D01*
X005826Y007451D01*
X006029Y007535D01*
X006185Y007691D01*
X006207Y007746D01*
X006207Y006610D01*
X006185Y006664D01*
X006029Y006820D01*
X005826Y006904D01*
X004779Y006904D01*
X004575Y006820D01*
X004420Y006664D01*
X004335Y006461D01*
X004335Y006241D01*
X004420Y006038D01*
X004575Y005882D01*
X004779Y005798D01*
X005826Y005798D01*
X006029Y005882D01*
X006185Y006038D01*
X006207Y006092D01*
X006207Y004916D01*
X006305Y004681D01*
X007125Y003861D01*
X007360Y003763D01*
X010535Y003763D01*
X010770Y003861D01*
X010920Y004011D01*
X012854Y004011D01*
X012854Y003668D01*
X012936Y003586D01*
X013446Y003586D01*
X013528Y003668D01*
X013528Y004011D01*
X014785Y004011D01*
X014844Y003951D01*
X015024Y003771D01*
X015260Y003674D01*
X016521Y003674D01*
X016756Y003771D01*
X016936Y003951D01*
X016941Y003963D01*
X016984Y004006D01*
X016984Y004066D01*
X017034Y004187D01*
X017034Y004441D01*
X016984Y004562D01*
X016984Y004622D01*
X016941Y004664D01*
X016936Y004676D01*
X016789Y004824D01*
X018329Y004824D01*
X018329Y004456D01*
X018411Y004374D01*
X019377Y004374D01*
X019459Y004456D01*
X019459Y004994D01*
X019591Y004994D01*
X019589Y004989D02*
X019459Y004989D01*
X019459Y004831D02*
X019534Y004831D01*
X019527Y004672D02*
X019459Y004672D01*
X019459Y004514D02*
X019527Y004514D01*
X019527Y004355D02*
X017034Y004355D01*
X017034Y004197D02*
X019527Y004197D01*
X019540Y004038D02*
X016984Y004038D01*
X016865Y003880D02*
X019613Y003880D01*
X019637Y003685D02*
X019557Y003644D01*
X019484Y003591D01*
X019420Y003527D01*
X019367Y003454D01*
X019326Y003374D01*
X019298Y003288D01*
X019289Y003233D01*
X019777Y003233D01*
X019777Y003722D01*
X019723Y003713D01*
X019637Y003685D01*
X019776Y003721D02*
X016636Y003721D01*
X017004Y004514D02*
X018329Y004514D01*
X018329Y004672D02*
X016938Y004672D01*
X016439Y005782D02*
X016349Y005782D01*
X016349Y005940D02*
X016439Y005940D01*
X016439Y006257D02*
X016349Y006257D01*
X016349Y006416D02*
X016439Y006416D01*
X016808Y007653D02*
X016487Y007973D01*
X016487Y008713D01*
X017047Y009273D01*
X017047Y010253D01*
X015937Y011363D01*
X015337Y011363D01*
X015287Y011413D01*
X015557Y011743D02*
X015557Y011843D01*
X014957Y012443D01*
X014950Y012788D02*
X014950Y013136D01*
X014602Y013136D01*
X014602Y012983D01*
X014618Y012926D01*
X014647Y012875D01*
X014689Y012833D01*
X014740Y012804D01*
X014797Y012788D01*
X014950Y012788D01*
X014950Y012914D02*
X014965Y012914D01*
X014950Y013073D02*
X014965Y013073D01*
X014957Y013143D02*
X014207Y013143D01*
X014037Y012973D01*
X014037Y011168D01*
X014882Y010323D01*
X014850Y010291D02*
X014850Y009693D01*
X014634Y009693D01*
X014588Y009706D01*
X014547Y009729D01*
X014513Y009763D01*
X014490Y009804D01*
X014477Y009850D01*
X014477Y010291D01*
X014850Y010291D01*
X014850Y010220D02*
X014915Y010220D01*
X014915Y010061D02*
X014850Y010061D01*
X014850Y009903D02*
X014915Y009903D01*
X014915Y009744D02*
X014850Y009744D01*
X014978Y009586D02*
X013012Y009586D01*
X013012Y009744D02*
X014532Y009744D01*
X014477Y009903D02*
X013018Y009903D01*
X013176Y010061D02*
X013280Y010061D01*
X013557Y010223D02*
X013797Y010463D01*
X013797Y013313D01*
X013977Y013493D01*
X015247Y013493D01*
X015577Y013823D01*
X015557Y013843D01*
X015872Y013865D02*
X016744Y013865D01*
X016903Y013707D02*
X015872Y013707D01*
X015872Y013636D02*
X015872Y014051D01*
X015765Y014158D01*
X015483Y014158D01*
X015553Y014228D01*
X015765Y014228D01*
X015872Y014336D01*
X015872Y014751D01*
X015765Y014858D01*
X015350Y014858D01*
X015281Y014789D01*
X015268Y014812D01*
X015226Y014854D01*
X015184Y014878D01*
X015257Y014951D01*
X015350Y014858D01*
X015765Y014858D01*
X015860Y014953D01*
X015866Y014953D01*
X016157Y014662D01*
X016157Y014452D01*
X016941Y013668D01*
X016941Y012913D01*
X016892Y012864D01*
X016843Y012747D01*
X016843Y012620D01*
X016892Y012503D01*
X016981Y012414D01*
X017098Y012365D01*
X017225Y012365D01*
X017274Y012386D01*
X017206Y012318D01*
X017201Y012320D01*
X017043Y012320D01*
X016897Y012259D01*
X016785Y012147D01*
X016724Y012001D01*
X016724Y011843D01*
X016785Y011697D01*
X016897Y011585D01*
X017043Y011525D01*
X017201Y011525D01*
X017347Y011585D01*
X017459Y011697D01*
X017519Y011843D01*
X017519Y012001D01*
X017517Y012006D01*
X018193Y012683D01*
X018266Y012756D01*
X018404Y012756D01*
X018404Y012554D01*
X018414Y012543D01*
X018300Y012543D01*
X018077Y012320D01*
X018043Y012320D01*
X017897Y012259D01*
X017785Y012147D01*
X017724Y012001D01*
X017724Y011843D01*
X017785Y011697D01*
X017897Y011585D01*
X018043Y011525D01*
X018201Y011525D01*
X018347Y011585D01*
X018459Y011697D01*
X018519Y011843D01*
X018519Y012001D01*
X018479Y012099D01*
X018483Y012103D01*
X018767Y012103D01*
X018724Y012001D01*
X018724Y011843D01*
X018785Y011697D01*
X018897Y011585D01*
X019043Y011525D01*
X019201Y011525D01*
X019347Y011585D01*
X019459Y011697D01*
X019461Y011702D01*
X019531Y011702D01*
X019660Y011831D01*
X019660Y011831D01*
X019689Y011860D01*
X019695Y011820D01*
X019716Y011754D01*
X019748Y011693D01*
X019788Y011637D01*
X019837Y011589D01*
X019892Y011548D01*
X019954Y011517D01*
X020019Y011496D01*
X020087Y011485D01*
X020122Y011485D01*
X020156Y011485D01*
X020224Y011496D01*
X020290Y011517D01*
X020351Y011548D01*
X020407Y011589D01*
X020455Y011637D01*
X020496Y011693D01*
X020527Y011754D01*
X020548Y011820D01*
X020559Y011888D01*
X020559Y011922D01*
X020122Y011922D01*
X020122Y011922D01*
X020122Y011485D01*
X020122Y011922D01*
X020122Y011922D01*
X020559Y011922D01*
X020559Y011957D01*
X020548Y012025D01*
X020527Y012090D01*
X020496Y012152D01*
X020455Y012207D01*
X020407Y012256D01*
X020351Y012296D01*
X020290Y012328D01*
X020224Y012349D01*
X020161Y012359D01*
X020161Y012472D01*
X020201Y012472D01*
X020205Y012467D01*
X020246Y012444D01*
X020292Y012432D01*
X020504Y012432D01*
X020504Y012947D01*
X020560Y012947D01*
X020560Y012432D01*
X020772Y012432D01*
X020818Y012444D01*
X020859Y012467D01*
X020863Y012472D01*
X020902Y012472D01*
X020902Y012262D01*
X020897Y012259D01*
X020785Y012147D01*
X020724Y012001D01*
X020724Y011843D01*
X020785Y011697D01*
X020897Y011585D01*
X021043Y011525D01*
X021201Y011525D01*
X021347Y011585D01*
X021459Y011697D01*
X021519Y011843D01*
X021519Y012001D01*
X021459Y012147D01*
X021347Y012259D01*
X021342Y012261D01*
X021342Y012472D01*
X021397Y012472D01*
X021418Y012492D01*
X021438Y012472D01*
X021493Y012472D01*
X021493Y012240D01*
X021726Y012006D01*
X021724Y012001D01*
X021724Y011843D01*
X021726Y011838D01*
X021697Y011809D01*
X021697Y010514D01*
X021466Y010283D01*
X021466Y010986D01*
X021384Y011068D01*
X020518Y011068D01*
X020436Y010986D01*
X020436Y010684D01*
X020409Y010766D01*
X020370Y010843D01*
X020318Y010914D01*
X020256Y010976D01*
X020186Y011027D01*
X020108Y011067D01*
X020025Y011094D01*
X019939Y011108D01*
X019927Y011108D01*
X019927Y010585D01*
X019862Y010585D01*
X019862Y010520D01*
X019340Y010520D01*
X019340Y010509D01*
X019354Y010423D01*
X019381Y010339D01*
X019420Y010262D01*
X019472Y010191D01*
X019533Y010129D01*
X019541Y010123D01*
X018935Y010123D01*
X018710Y010349D01*
X018710Y010986D01*
X018628Y011068D01*
X017762Y011068D01*
X017680Y010986D01*
X017680Y010722D01*
X017618Y010783D01*
X016407Y011994D01*
X016407Y012974D01*
X016018Y013363D01*
X015860Y013363D01*
X015765Y013458D01*
X015523Y013458D01*
X015593Y013528D01*
X015765Y013528D01*
X015872Y013636D01*
X015785Y013548D02*
X016941Y013548D01*
X016941Y013390D02*
X015833Y013390D01*
X015927Y013143D02*
X015557Y013143D01*
X015927Y013143D02*
X016187Y012883D01*
X016187Y011903D01*
X017527Y010563D01*
X017527Y010113D01*
X017977Y009663D01*
X021587Y009663D01*
X022476Y010553D01*
X022651Y010553D01*
X022627Y010529D01*
X022627Y009283D01*
X023657Y008253D01*
X025837Y008253D01*
X026157Y007933D01*
X026157Y007133D01*
X026377Y007620D02*
X026377Y008024D01*
X026057Y008344D01*
X026057Y008344D01*
X025928Y008473D01*
X023748Y008473D01*
X022847Y009374D01*
X022847Y010076D01*
X022943Y010116D01*
X023087Y010261D01*
X023166Y010450D01*
X023166Y010655D01*
X023136Y010727D01*
X023192Y010782D01*
X023192Y010120D01*
X023274Y010038D01*
X024140Y010038D01*
X024222Y010120D01*
X024222Y010986D01*
X024140Y011068D01*
X023477Y011068D01*
X023966Y011557D01*
X024043Y011525D01*
X024201Y011525D01*
X024347Y011585D01*
X024459Y011697D01*
X024519Y011843D01*
X024519Y012001D01*
X024459Y012147D01*
X024347Y012259D01*
X024201Y012320D01*
X024043Y012320D01*
X024038Y012318D01*
X023901Y012454D01*
X023848Y012507D01*
X023869Y012542D01*
X023881Y012588D01*
X023881Y012690D01*
X026480Y012690D01*
X026480Y007565D01*
X026460Y007586D01*
X026377Y007620D01*
X026377Y007684D02*
X026480Y007684D01*
X026480Y007842D02*
X026377Y007842D01*
X026377Y008001D02*
X026480Y008001D01*
X026480Y008159D02*
X026242Y008159D01*
X026084Y008318D02*
X026480Y008318D01*
X026480Y008476D02*
X023745Y008476D01*
X023587Y008635D02*
X026480Y008635D01*
X026480Y008793D02*
X023428Y008793D01*
X023270Y008952D02*
X026480Y008952D01*
X026480Y009110D02*
X023111Y009110D01*
X022953Y009269D02*
X026480Y009269D01*
X026480Y009427D02*
X022847Y009427D01*
X022847Y009586D02*
X026480Y009586D01*
X026480Y009744D02*
X022847Y009744D01*
X022847Y009903D02*
X026480Y009903D01*
X026480Y010061D02*
X025665Y010061D01*
X025698Y010078D02*
X025620Y010038D01*
X025537Y010011D01*
X025450Y009998D01*
X025439Y009998D01*
X025439Y010520D01*
X025374Y010520D01*
X024852Y010520D01*
X024852Y010509D01*
X024865Y010423D01*
X024892Y010339D01*
X024932Y010262D01*
X024983Y010191D01*
X025045Y010129D01*
X025116Y010078D01*
X025194Y010038D01*
X025277Y010011D01*
X025363Y009998D01*
X025374Y009998D01*
X025374Y010520D01*
X025374Y010585D01*
X024852Y010585D01*
X024852Y010596D01*
X024865Y010683D01*
X024892Y010766D01*
X024932Y010843D01*
X024983Y010914D01*
X025045Y010976D01*
X025116Y011027D01*
X025194Y011067D01*
X025277Y011094D01*
X025363Y011108D01*
X025374Y011108D01*
X025374Y010585D01*
X025439Y010585D01*
X025439Y011108D01*
X025450Y011108D01*
X025537Y011094D01*
X025620Y011067D01*
X025698Y011027D01*
X025768Y010976D01*
X025830Y010914D01*
X025881Y010843D01*
X025921Y010766D01*
X025948Y010683D01*
X025962Y010596D01*
X025962Y010585D01*
X025439Y010585D01*
X025439Y010520D01*
X025962Y010520D01*
X025962Y010509D01*
X025948Y010423D01*
X025921Y010339D01*
X025881Y010262D01*
X025830Y010191D01*
X025768Y010129D01*
X025698Y010078D01*
X025851Y010220D02*
X026480Y010220D01*
X026480Y010378D02*
X025934Y010378D01*
X025944Y010695D02*
X026480Y010695D01*
X026480Y010537D02*
X025439Y010537D01*
X025374Y010537D02*
X024222Y010537D01*
X024222Y010695D02*
X024870Y010695D01*
X024940Y010854D02*
X024222Y010854D01*
X024195Y011012D02*
X025095Y011012D01*
X025374Y011012D02*
X025439Y011012D01*
X025439Y010854D02*
X025374Y010854D01*
X025374Y010695D02*
X025439Y010695D01*
X025439Y010378D02*
X025374Y010378D01*
X025374Y010220D02*
X025439Y010220D01*
X025439Y010061D02*
X025374Y010061D01*
X025148Y010061D02*
X024164Y010061D01*
X024222Y010220D02*
X024962Y010220D01*
X024880Y010378D02*
X024222Y010378D01*
X023580Y011171D02*
X026480Y011171D01*
X026480Y011329D02*
X023739Y011329D01*
X023897Y011488D02*
X025068Y011488D01*
X025087Y011485D02*
X025019Y011496D01*
X024954Y011517D01*
X024892Y011548D01*
X024837Y011589D01*
X024788Y011637D01*
X024748Y011693D01*
X024716Y011754D01*
X024695Y011820D01*
X024684Y011888D01*
X024684Y011922D01*
X025122Y011922D01*
X025122Y011922D01*
X025559Y011922D01*
X025559Y011888D01*
X025548Y011820D01*
X025527Y011754D01*
X025496Y011693D01*
X025455Y011637D01*
X025407Y011589D01*
X025351Y011548D01*
X025290Y011517D01*
X025224Y011496D01*
X025156Y011485D01*
X025122Y011485D01*
X025122Y011922D01*
X025122Y011922D01*
X025559Y011922D01*
X025559Y011957D01*
X025548Y012025D01*
X025527Y012090D01*
X025496Y012152D01*
X025455Y012207D01*
X025407Y012256D01*
X025351Y012296D01*
X025290Y012328D01*
X025224Y012349D01*
X025156Y012360D01*
X025122Y012360D01*
X025122Y011922D01*
X025122Y011485D01*
X025087Y011485D01*
X025122Y011488D02*
X025122Y011488D01*
X025176Y011488D02*
X026480Y011488D01*
X026480Y011646D02*
X025462Y011646D01*
X025544Y011805D02*
X026480Y011805D01*
X026480Y011963D02*
X025558Y011963D01*
X025511Y012122D02*
X026480Y012122D01*
X026480Y012280D02*
X025373Y012280D01*
X025283Y012083D02*
X025122Y011922D01*
X024068Y012976D01*
X023485Y012976D01*
X023881Y012597D02*
X026480Y012597D01*
X026480Y012439D02*
X023916Y012439D01*
X023681Y012363D02*
X023251Y012363D01*
X022981Y012633D01*
X022981Y012888D01*
X022894Y012976D01*
X022894Y014411D01*
X022511Y014793D01*
X018891Y014793D01*
X018521Y015163D01*
X018839Y015156D02*
X018839Y015227D01*
X018791Y015344D01*
X018702Y015433D01*
X018585Y015481D01*
X018458Y015481D01*
X018429Y015470D01*
X018429Y015537D01*
X018381Y015654D01*
X018292Y015743D01*
X018191Y015785D01*
X018209Y015830D01*
X018209Y015957D01*
X018161Y016074D01*
X018072Y016163D01*
X017955Y016211D01*
X017828Y016211D01*
X017711Y016163D01*
X017686Y016138D01*
X017622Y016203D01*
X017621Y016203D01*
X017701Y016283D01*
X017749Y016400D01*
X017749Y016527D01*
X017701Y016644D01*
X017612Y016733D01*
X017495Y016781D01*
X017368Y016781D01*
X017287Y016748D01*
X017202Y016833D01*
X017130Y016862D01*
X017182Y016884D01*
X017271Y016973D01*
X017319Y017090D01*
X017319Y017217D01*
X017271Y017334D01*
X017221Y017383D01*
X017221Y018920D01*
X016168Y019973D01*
X015860Y019973D01*
X015765Y020068D01*
X015350Y020068D01*
X015257Y019976D01*
X015165Y020068D01*
X014750Y020068D01*
X014642Y019961D01*
X014642Y019546D01*
X014750Y019438D01*
X014971Y019438D01*
X015041Y019368D01*
X014750Y019368D01*
X014655Y019273D01*
X014586Y019273D01*
X014356Y019043D01*
X014227Y018914D01*
X014227Y017190D01*
X014066Y017190D01*
X014056Y017180D01*
X013913Y017180D01*
X013784Y017051D01*
X011946Y015213D01*
X010126Y015213D01*
X010173Y015248D01*
X010227Y015301D01*
X010271Y015362D01*
X010305Y015430D01*
X010329Y015502D01*
X010341Y015576D01*
X010341Y015594D01*
X009581Y015594D01*
X009581Y015634D01*
X010341Y015634D01*
X010341Y015652D01*
X010329Y015726D01*
X010305Y015798D01*
X010271Y015866D01*
X010227Y015927D01*
X010179Y015974D01*
X010758Y015974D01*
X010760Y015973D01*
X011015Y015973D01*
X011016Y015974D01*
X011869Y015974D01*
X012104Y016071D01*
X012284Y016251D01*
X012382Y016487D01*
X012382Y016741D01*
X012284Y016976D01*
X012104Y017157D01*
X011869Y017254D01*
X011527Y017254D01*
X011527Y018041D01*
X011430Y018276D01*
X011250Y018456D01*
X009797Y019908D01*
X009797Y021619D01*
X009818Y021543D01*
X009968Y021283D01*
X010577Y020673D01*
X010789Y020461D01*
X011049Y020311D01*
X011339Y020233D01*
X013310Y020233D01*
X013600Y020311D01*
X013860Y020461D01*
X014671Y021272D01*
X014821Y021531D01*
X014898Y021821D01*
X014898Y022122D01*
X014821Y022412D01*
X014671Y022671D01*
X014458Y022884D01*
X014198Y023034D01*
X013908Y023112D01*
X013608Y023112D01*
X013318Y023034D01*
X013058Y022884D01*
X012688Y022513D01*
X011962Y022513D01*
X011580Y022895D01*
X011320Y023045D01*
X011030Y023123D01*
X010730Y023123D01*
X010440Y023045D01*
X010180Y022895D01*
X009968Y022683D01*
X009818Y022423D01*
X009797Y022347D01*
X009797Y024089D01*
X011663Y025955D01*
X011663Y025628D01*
X011569Y025533D01*
X011498Y025363D01*
X011498Y025178D01*
X011569Y025007D01*
X011699Y024876D01*
X011870Y024805D01*
X012055Y024805D01*
X012226Y024876D01*
X012320Y024970D01*
X013240Y024970D01*
X013240Y024936D01*
X013322Y024854D01*
X014134Y024854D01*
X014216Y024936D01*
X014216Y025760D01*
X014134Y025842D01*
X013322Y025842D01*
X013240Y025760D01*
X013240Y025570D01*
X012320Y025570D01*
X012263Y025628D01*
X012263Y025834D01*
X013327Y026899D01*
X013327Y026899D01*
X013412Y026983D01*
X013457Y027094D01*
X013457Y027913D01*
X013412Y028023D01*
X012892Y028543D01*
X012892Y028543D01*
X012807Y028628D01*
X012697Y028673D01*
X011808Y028673D01*
X011697Y028628D01*
X010904Y027834D01*
X009696Y027834D01*
X009659Y027974D01*
X009509Y028234D01*
X009296Y028446D01*
X009037Y028596D01*
X008747Y028674D01*
X007324Y028674D01*
X006215Y029783D01*
X006190Y029797D01*
X006190Y030558D01*
X006296Y030558D01*
X006378Y030640D01*
X006378Y031117D01*
X006728Y031466D01*
X007314Y031466D01*
X007408Y031372D01*
X007579Y031301D01*
X007591Y031301D01*
X007417Y031127D01*
X007371Y031017D01*
X007371Y030155D01*
X007277Y030061D01*
X007206Y029890D01*
X007206Y029705D01*
X007277Y029534D01*
X007408Y029404D01*
X007579Y029333D01*
X007764Y029333D01*
X007935Y029404D01*
X008065Y029534D01*
X008136Y029705D01*
X008136Y029890D01*
X008065Y030061D01*
X007971Y030155D01*
X007971Y030833D01*
X008482Y031343D01*
X008527Y031454D01*
X008527Y031923D01*
X012956Y031923D01*
X013227Y031652D01*
X013356Y031523D01*
X014057Y031523D01*
X014057Y028152D01*
X014327Y027882D01*
X014456Y027753D01*
X014648Y027753D01*
X014647Y027752D01*
X014618Y027701D01*
X014602Y027644D01*
X014602Y027491D01*
X014950Y027491D01*
X014950Y027476D01*
X014965Y027476D01*
X014965Y027128D01*
X014991Y027128D01*
X014961Y027098D01*
X014750Y027098D01*
X014642Y026991D01*
X014642Y026576D01*
X014737Y026481D01*
X014737Y026386D01*
X014642Y026291D01*
X014642Y025876D01*
X014681Y025838D01*
X014638Y025826D01*
X014597Y025802D01*
X014563Y025769D01*
X014540Y025728D01*
X014527Y025682D01*
X014527Y025453D01*
X014887Y025453D01*
X014887Y025413D01*
X014927Y025413D01*
X014927Y025028D01*
X015131Y025028D01*
X015177Y025041D01*
X015218Y025064D01*
X015251Y025098D01*
X015275Y025139D01*
X015276Y025142D01*
X015349Y025068D01*
X015865Y025068D01*
X015947Y025150D01*
X015947Y025462D01*
X016018Y025533D01*
X016062Y025577D01*
X016114Y025525D01*
X017017Y025525D01*
X017099Y025607D01*
X017099Y026195D01*
X017017Y026277D01*
X016147Y026277D01*
X016147Y026312D01*
X017017Y026312D01*
X017099Y026394D01*
X017099Y026983D01*
X017017Y027065D01*
X016114Y027065D01*
X016032Y026983D01*
X016032Y026620D01*
X016018Y026633D01*
X015872Y026779D01*
X015872Y026913D01*
X015958Y026913D01*
X016068Y027023D01*
X016145Y027100D01*
X017017Y027100D01*
X017099Y027182D01*
X017099Y027770D01*
X017017Y027852D01*
X016197Y027852D01*
X016197Y027887D01*
X017017Y027887D01*
X017099Y027969D01*
X017099Y028558D01*
X017017Y028640D01*
X016197Y028640D01*
X016197Y028675D01*
X017017Y028675D01*
X017099Y028757D01*
X017099Y029333D01*
X017815Y029333D01*
X018785Y028363D01*
X019836Y028363D01*
X020087Y028112D01*
X020087Y028044D01*
X019357Y027314D01*
X019357Y026674D01*
X017926Y025243D01*
X017480Y025243D01*
X017351Y025114D01*
X017099Y024862D01*
X017099Y025408D01*
X017017Y025490D01*
X016114Y025490D01*
X016032Y025408D01*
X016032Y024820D01*
X016114Y024738D01*
X016574Y024738D01*
X016490Y024653D01*
X016361Y024524D01*
X016361Y023234D01*
X016351Y023224D01*
X016351Y023213D01*
X016302Y023164D01*
X016253Y023047D01*
X016253Y022920D01*
X016302Y022803D01*
X016391Y022714D01*
X016508Y022665D01*
X016635Y022665D01*
X016752Y022714D01*
X016841Y022803D01*
X016889Y022920D01*
X016889Y023047D01*
X016841Y023164D01*
X016801Y023203D01*
X016801Y023395D01*
X016801Y023395D01*
X016843Y023371D01*
X016888Y023359D01*
X017110Y023359D01*
X017110Y023895D01*
X017186Y023895D01*
X017186Y023359D01*
X017321Y023359D01*
X017321Y022312D01*
X017290Y022328D01*
X017224Y022349D01*
X017156Y022360D01*
X017122Y022360D01*
X017122Y021922D01*
X017122Y021485D01*
X017156Y021485D01*
X017224Y021496D01*
X017290Y021517D01*
X017321Y021533D01*
X017321Y020602D01*
X017450Y020473D01*
X017450Y020473D01*
X017513Y020410D01*
X017513Y020340D01*
X017562Y020223D01*
X017651Y020134D01*
X017768Y020085D01*
X017895Y020085D01*
X018012Y020134D01*
X018101Y020223D01*
X018149Y020340D01*
X018149Y020467D01*
X018101Y020584D01*
X018012Y020673D01*
X017895Y020721D01*
X017824Y020721D01*
X017761Y020784D01*
X017761Y021754D01*
X017785Y021697D01*
X017897Y021585D01*
X018043Y021525D01*
X018201Y021525D01*
X018206Y021527D01*
X019131Y020602D01*
X019131Y020232D01*
X019091Y020232D01*
X019087Y020236D01*
X019046Y020260D01*
X019000Y020272D01*
X018788Y020272D01*
X018788Y019756D01*
X018732Y019756D01*
X018732Y020272D01*
X018520Y020272D01*
X018474Y020260D01*
X018433Y020236D01*
X018400Y020202D01*
X018376Y020161D01*
X018364Y020116D01*
X018364Y019756D01*
X018732Y019756D01*
X018732Y019699D01*
X018788Y019699D01*
X018788Y019183D01*
X019000Y019183D01*
X019046Y019196D01*
X019087Y019219D01*
X019091Y019223D01*
X019102Y019223D01*
X019082Y019204D01*
X019033Y019087D01*
X019033Y018960D01*
X019057Y018903D01*
X017998Y018903D01*
X016228Y020673D01*
X015860Y020673D01*
X015765Y020768D01*
X015350Y020768D01*
X015281Y020699D01*
X015268Y020722D01*
X015226Y020764D01*
X015175Y020793D01*
X015118Y020808D01*
X014965Y020808D01*
X014965Y020461D01*
X014950Y020461D01*
X014950Y020808D01*
X014797Y020808D01*
X014740Y020793D01*
X014689Y020764D01*
X014647Y020722D01*
X014618Y020671D01*
X014602Y020614D01*
X014602Y020461D01*
X014950Y020461D01*
X014950Y020446D01*
X014965Y020446D01*
X014965Y020098D01*
X015118Y020098D01*
X015175Y020114D01*
X015226Y020143D01*
X015268Y020185D01*
X015281Y020208D01*
X015350Y020138D01*
X015765Y020138D01*
X015860Y020233D01*
X016046Y020233D01*
X017816Y018463D01*
X020203Y018463D01*
X020284Y018545D01*
X020355Y018545D01*
X020472Y018594D01*
X020561Y018683D01*
X020609Y018800D01*
X020609Y018870D01*
X020751Y019012D01*
X020751Y019223D01*
X020806Y019223D01*
X020827Y019244D01*
X020848Y019223D01*
X021397Y019223D01*
X021418Y019244D01*
X021438Y019223D01*
X021987Y019223D01*
X022008Y019244D01*
X022029Y019223D01*
X022578Y019223D01*
X022599Y019244D01*
X022620Y019223D01*
X022723Y019223D01*
X022723Y014892D01*
X022603Y015013D01*
X018983Y015013D01*
X018839Y015156D01*
X018862Y015133D02*
X022723Y015133D01*
X022723Y014975D02*
X022641Y014975D01*
X022723Y015292D02*
X018812Y015292D01*
X018660Y015450D02*
X019880Y015450D01*
X019884Y015436D02*
X019872Y015482D01*
X019872Y016272D01*
X020818Y016272D01*
X020818Y016432D01*
X020818Y017378D01*
X020028Y017378D01*
X019982Y017366D01*
X019941Y017342D01*
X019907Y017309D01*
X019884Y017268D01*
X019872Y017222D01*
X019872Y016432D01*
X020818Y016432D01*
X020978Y016432D01*
X020978Y017378D01*
X021768Y017378D01*
X021814Y017366D01*
X021855Y017342D01*
X021888Y017309D01*
X021912Y017268D01*
X021924Y017222D01*
X021924Y016432D01*
X020978Y016432D01*
X020978Y016272D01*
X021924Y016272D01*
X021924Y015482D01*
X021912Y015436D01*
X021888Y015395D01*
X021855Y015361D01*
X021814Y015337D01*
X021768Y015325D01*
X020978Y015325D01*
X020978Y016272D01*
X020818Y016272D01*
X020818Y015325D01*
X020028Y015325D01*
X019982Y015337D01*
X019941Y015361D01*
X019907Y015395D01*
X019884Y015436D01*
X019872Y015609D02*
X018400Y015609D01*
X018233Y015767D02*
X019872Y015767D01*
X019872Y015926D02*
X018209Y015926D01*
X018150Y016084D02*
X019872Y016084D01*
X019795Y015986D02*
X020532Y015986D01*
X020898Y016352D01*
X020910Y016363D01*
X020978Y016401D02*
X022723Y016401D01*
X022723Y016243D02*
X021924Y016243D01*
X021924Y016084D02*
X022723Y016084D01*
X022723Y015926D02*
X021924Y015926D01*
X021924Y015767D02*
X022723Y015767D01*
X022723Y015609D02*
X021924Y015609D01*
X021916Y015450D02*
X022723Y015450D01*
X022723Y016560D02*
X021924Y016560D01*
X021924Y016718D02*
X022723Y016718D01*
X022723Y016877D02*
X021924Y016877D01*
X021924Y017035D02*
X022723Y017035D01*
X022723Y017194D02*
X021924Y017194D01*
X021837Y017352D02*
X022723Y017352D01*
X022723Y017511D02*
X017221Y017511D01*
X017221Y017669D02*
X022723Y017669D01*
X022723Y017828D02*
X017221Y017828D01*
X017221Y017986D02*
X022723Y017986D01*
X022723Y018145D02*
X017221Y018145D01*
X017221Y018303D02*
X022723Y018303D01*
X022723Y018462D02*
X017221Y018462D01*
X017221Y018620D02*
X017659Y018620D01*
X017501Y018779D02*
X017221Y018779D01*
X017204Y018937D02*
X017342Y018937D01*
X017184Y019096D02*
X017046Y019096D01*
X017025Y019254D02*
X016887Y019254D01*
X016867Y019413D02*
X016729Y019413D01*
X016708Y019571D02*
X016570Y019571D01*
X016550Y019730D02*
X016412Y019730D01*
X016391Y019888D02*
X016253Y019888D01*
X016233Y020047D02*
X015786Y020047D01*
X015832Y020205D02*
X016074Y020205D01*
X016137Y020453D02*
X015557Y020453D01*
X015283Y020205D02*
X015280Y020205D01*
X015328Y020047D02*
X015186Y020047D01*
X014950Y020098D02*
X014950Y020446D01*
X014602Y020446D01*
X014602Y020293D01*
X014618Y020236D01*
X014647Y020185D01*
X014689Y020143D01*
X014740Y020114D01*
X014797Y020098D01*
X014950Y020098D01*
X014950Y020205D02*
X014965Y020205D01*
X014950Y020364D02*
X014965Y020364D01*
X014957Y020453D02*
X015417Y020913D01*
X017122Y020913D01*
X017321Y020839D02*
X014238Y020839D01*
X014080Y020681D02*
X014623Y020681D01*
X014602Y020522D02*
X013921Y020522D01*
X013692Y020364D02*
X014602Y020364D01*
X014635Y020205D02*
X009797Y020205D01*
X009797Y020047D02*
X014728Y020047D01*
X014642Y019888D02*
X009817Y019888D01*
X009976Y019730D02*
X014642Y019730D01*
X014642Y019571D02*
X010134Y019571D01*
X010293Y019413D02*
X014997Y019413D01*
X015307Y019413D02*
X014967Y019753D01*
X014957Y019753D01*
X015307Y019413D02*
X016007Y019413D01*
X016247Y019173D01*
X016247Y018513D01*
X016137Y018403D01*
X015607Y018403D01*
X015947Y018623D02*
X015947Y018686D01*
X015865Y018768D01*
X015851Y018768D01*
X015868Y018785D01*
X015897Y018836D01*
X015912Y018893D01*
X015912Y019046D01*
X015565Y019046D01*
X015565Y019061D01*
X015912Y019061D01*
X015912Y019193D01*
X015916Y019193D01*
X016027Y019082D01*
X016027Y018623D01*
X015947Y018623D01*
X016027Y018779D02*
X015862Y018779D01*
X015912Y018937D02*
X016027Y018937D01*
X016014Y019096D02*
X015912Y019096D01*
X015557Y019053D02*
X014907Y018403D01*
X015285Y018010D01*
X015485Y018010D01*
X015915Y017580D01*
X015915Y016450D01*
X015805Y016340D01*
X015424Y016340D01*
X014957Y015873D01*
X013667Y015873D01*
X012837Y015043D01*
X012837Y012413D01*
X012472Y012048D01*
X012627Y012122D02*
X012667Y012122D01*
X012667Y011963D02*
X012627Y011963D01*
X012857Y012280D02*
X008497Y012280D01*
X008497Y012122D02*
X012249Y012122D01*
X012857Y012439D02*
X008497Y012439D01*
X008497Y012597D02*
X012857Y012597D01*
X012857Y012756D02*
X008497Y012756D01*
X008497Y012914D02*
X012857Y012914D01*
X012857Y013073D02*
X008497Y013073D01*
X008497Y013231D02*
X012857Y013231D01*
X012857Y013390D02*
X008497Y013390D01*
X008497Y013548D02*
X012857Y013548D01*
X012857Y013707D02*
X008497Y013707D01*
X008497Y013865D02*
X012857Y013865D01*
X012857Y014024D02*
X008497Y014024D01*
X008497Y014182D02*
X012857Y014182D01*
X012857Y014341D02*
X008497Y014341D01*
X008497Y014499D02*
X012857Y014499D01*
X012857Y014658D02*
X012393Y014658D01*
X012551Y014816D02*
X012857Y014816D01*
X012868Y014975D02*
X012710Y014975D01*
X012868Y015133D02*
X013026Y015133D01*
X013027Y015292D02*
X013185Y015292D01*
X013185Y015450D02*
X014712Y015450D01*
X014740Y015534D02*
X014797Y015518D01*
X014950Y015518D01*
X014950Y015866D01*
X014602Y015866D01*
X014602Y015713D01*
X014618Y015656D01*
X014647Y015605D01*
X014689Y015563D01*
X014740Y015534D01*
X014645Y015609D02*
X013344Y015609D01*
X013502Y015767D02*
X014602Y015767D01*
X014602Y015926D02*
X013661Y015926D01*
X013819Y016084D02*
X014616Y016084D01*
X014950Y016084D02*
X014965Y016084D01*
X014950Y015926D02*
X014965Y015926D01*
X014950Y015767D02*
X014965Y015767D01*
X014950Y015609D02*
X014965Y015609D01*
X014957Y015173D02*
X013377Y015173D01*
X013077Y014873D01*
X013077Y011603D01*
X012647Y011173D01*
X012278Y010854D02*
X012255Y010813D01*
X012242Y010767D01*
X012037Y010537D02*
X012627Y010537D01*
X012647Y010543D02*
X012707Y010543D01*
X012827Y010663D01*
X013007Y010663D01*
X013317Y010973D01*
X013317Y014273D01*
X013587Y014543D01*
X014957Y014543D01*
X014950Y014536D02*
X014965Y014536D01*
X014965Y014188D01*
X014991Y014188D01*
X014961Y014158D01*
X014750Y014158D01*
X014655Y014063D01*
X013656Y014063D01*
X013527Y013934D01*
X013337Y013744D01*
X013337Y010844D01*
X013016Y010523D01*
X012667Y010523D01*
X012667Y010563D01*
X013052Y010563D01*
X013052Y010767D01*
X013040Y010813D01*
X013016Y010854D01*
X012984Y010887D01*
X013012Y010915D01*
X013012Y011227D01*
X013168Y011383D01*
X013297Y011512D01*
X013297Y014782D01*
X013468Y014953D01*
X014655Y014953D01*
X014730Y014878D01*
X014689Y014854D01*
X014647Y014812D01*
X014618Y014761D01*
X014602Y014704D01*
X014602Y014551D01*
X014950Y014551D01*
X014950Y014536D01*
X014950Y014188D01*
X014797Y014188D01*
X014740Y014204D01*
X014689Y014233D01*
X014647Y014275D01*
X014618Y014326D01*
X014602Y014383D01*
X014602Y014536D01*
X014950Y014536D01*
X014950Y014499D02*
X014965Y014499D01*
X014950Y014341D02*
X014965Y014341D01*
X014985Y014182D02*
X013297Y014182D01*
X013297Y014024D02*
X013617Y014024D01*
X013747Y013843D02*
X014957Y013843D01*
X015247Y014133D01*
X015247Y014233D01*
X015557Y014543D01*
X015872Y014499D02*
X016157Y014499D01*
X016157Y014658D02*
X015872Y014658D01*
X015807Y014816D02*
X016003Y014816D01*
X015957Y015173D02*
X015557Y015173D01*
X015803Y015450D02*
X016401Y015450D01*
X016401Y015292D02*
X016150Y015292D01*
X016308Y015133D02*
X016401Y015133D01*
X016377Y014753D02*
X016377Y014543D01*
X017161Y013759D01*
X017161Y012683D01*
X016956Y012439D02*
X016407Y012439D01*
X016407Y012597D02*
X016853Y012597D01*
X016847Y012756D02*
X016407Y012756D01*
X016407Y012914D02*
X016941Y012914D01*
X016941Y013073D02*
X016309Y013073D01*
X016150Y013231D02*
X016941Y013231D01*
X016586Y014024D02*
X015872Y014024D01*
X015872Y014341D02*
X016269Y014341D01*
X016427Y014182D02*
X015507Y014182D01*
X015308Y014816D02*
X015263Y014816D01*
X014957Y015173D02*
X015557Y015773D01*
X015557Y015873D01*
X015872Y015926D02*
X016401Y015926D01*
X016401Y016084D02*
X015869Y016084D01*
X015872Y015767D02*
X016401Y015767D01*
X016401Y015609D02*
X015815Y015609D01*
X015957Y015173D02*
X016377Y014753D01*
X016621Y014673D02*
X018102Y013193D01*
X018102Y012903D01*
X018175Y012976D01*
X018760Y012976D01*
X018404Y012597D02*
X018108Y012597D01*
X018196Y012439D02*
X017950Y012439D01*
X017948Y012280D02*
X017791Y012280D01*
X017774Y012122D02*
X017633Y012122D01*
X017724Y011963D02*
X017519Y011963D01*
X017503Y011805D02*
X017740Y011805D01*
X017836Y011646D02*
X017408Y011646D01*
X017122Y011922D02*
X018102Y012903D01*
X018391Y012323D02*
X018122Y012054D01*
X018122Y011922D01*
X018408Y011646D02*
X018836Y011646D01*
X018740Y011805D02*
X018503Y011805D01*
X018519Y011963D02*
X018724Y011963D01*
X019122Y011922D02*
X019440Y011922D01*
X019941Y012423D01*
X019941Y012976D01*
X019941Y013703D01*
X019951Y013713D01*
X019831Y013833D01*
X018221Y013833D01*
X017101Y014953D01*
X017101Y016133D01*
X017431Y016463D01*
X017661Y016243D02*
X019872Y016243D01*
X019707Y016073D02*
X019795Y015986D01*
X019707Y016073D02*
X019557Y016223D01*
X019872Y016560D02*
X017736Y016560D01*
X017749Y016401D02*
X020818Y016401D01*
X020818Y016243D02*
X020978Y016243D01*
X020978Y016084D02*
X020818Y016084D01*
X020818Y015926D02*
X020978Y015926D01*
X020978Y015767D02*
X020818Y015767D01*
X020818Y015609D02*
X020978Y015609D01*
X020978Y015450D02*
X020818Y015450D01*
X020818Y016560D02*
X020978Y016560D01*
X020978Y016718D02*
X020818Y016718D01*
X020818Y016877D02*
X020978Y016877D01*
X020978Y017035D02*
X020818Y017035D01*
X020818Y017194D02*
X020978Y017194D01*
X020978Y017352D02*
X020818Y017352D01*
X019959Y017352D02*
X017252Y017352D01*
X017319Y017194D02*
X019872Y017194D01*
X019872Y017035D02*
X017297Y017035D01*
X017165Y016877D02*
X019872Y016877D01*
X019872Y016718D02*
X017626Y016718D01*
X017021Y016563D02*
X016861Y016403D01*
X016861Y014823D01*
X018091Y013593D01*
X019201Y013593D01*
X019351Y013443D01*
X019351Y012976D01*
X019351Y012976D01*
X019351Y012703D01*
X018971Y012323D01*
X018391Y012323D01*
X019408Y011646D02*
X019781Y011646D01*
X019895Y011695D02*
X020122Y011922D01*
X020122Y011805D02*
X020122Y011805D01*
X020122Y011646D02*
X020122Y011646D01*
X020122Y011488D02*
X020122Y011488D01*
X020176Y011488D02*
X021697Y011488D01*
X021697Y011646D02*
X021408Y011646D01*
X021503Y011805D02*
X021697Y011805D01*
X021724Y011963D02*
X021519Y011963D01*
X021469Y012122D02*
X021611Y012122D01*
X021493Y012280D02*
X021342Y012280D01*
X021342Y012439D02*
X021493Y012439D01*
X021713Y012331D02*
X022122Y011922D01*
X021917Y011718D01*
X021917Y010423D01*
X021397Y009903D01*
X018844Y009903D01*
X018195Y010553D01*
X018710Y010537D02*
X019862Y010537D01*
X019895Y010553D02*
X019895Y011695D01*
X019700Y011805D02*
X019634Y011805D01*
X020068Y011488D02*
X016914Y011488D01*
X016836Y011646D02*
X016755Y011646D01*
X016740Y011805D02*
X016597Y011805D01*
X016724Y011963D02*
X016438Y011963D01*
X016407Y012122D02*
X016774Y012122D01*
X016948Y012280D02*
X016407Y012280D01*
X015967Y012280D02*
X015951Y012280D01*
X015967Y012439D02*
X015872Y012439D01*
X015872Y012597D02*
X015967Y012597D01*
X015967Y012756D02*
X015767Y012756D01*
X015557Y012443D02*
X015557Y012363D01*
X015887Y012033D01*
X015887Y011833D01*
X017287Y010433D01*
X017287Y009433D01*
X017297Y009423D01*
X022107Y009423D01*
X023707Y007824D01*
X023707Y007653D01*
X024296Y007063D01*
X025267Y007063D01*
X026157Y006173D01*
X026157Y006133D01*
X025754Y005782D02*
X025412Y005782D01*
X025380Y005704D02*
X025447Y005866D01*
X025447Y006572D01*
X025669Y006350D01*
X025624Y006239D01*
X025624Y006027D01*
X025705Y005831D01*
X025855Y005681D01*
X026051Y005600D01*
X026263Y005600D01*
X026460Y005681D01*
X026480Y005702D01*
X026480Y004872D01*
X026478Y004872D01*
X026476Y004873D01*
X026471Y004882D01*
X026437Y004891D01*
X026406Y004905D01*
X026397Y004902D01*
X026394Y004902D01*
X026388Y004910D01*
X026353Y004913D01*
X026320Y004922D01*
X026311Y004917D01*
X026309Y004917D01*
X026301Y004924D01*
X026267Y004921D01*
X026233Y004924D01*
X026225Y004917D01*
X026222Y004917D01*
X026213Y004922D01*
X026180Y004913D01*
X026146Y004910D01*
X026139Y004902D01*
X026137Y004902D01*
X026127Y004905D01*
X026096Y004891D01*
X026063Y004882D01*
X026058Y004873D01*
X026056Y004872D01*
X026045Y004874D01*
X026017Y004854D01*
X025986Y004840D01*
X025983Y004830D01*
X025981Y004828D01*
X025970Y004828D01*
X025946Y004804D01*
X025918Y004784D01*
X025916Y004774D01*
X025914Y004773D01*
X025904Y004771D01*
X025884Y004743D01*
X025860Y004718D01*
X025860Y004708D01*
X025859Y004706D01*
X025849Y004702D01*
X025834Y004671D01*
X025815Y004643D01*
X025817Y004633D01*
X025816Y004631D01*
X025807Y004626D01*
X025798Y004593D01*
X025783Y004561D01*
X025787Y004552D01*
X025786Y004549D01*
X025778Y004543D01*
X025775Y004509D01*
X025766Y004475D01*
X025772Y004466D01*
X025771Y004464D01*
X025765Y004456D01*
X025768Y004422D01*
X025765Y004393D01*
X025640Y004444D01*
X025318Y004444D01*
X025021Y004321D01*
X024793Y004093D01*
X024669Y003796D01*
X024669Y003473D01*
X024793Y003176D01*
X025021Y002948D01*
X025318Y002825D01*
X025640Y002825D01*
X025938Y002948D01*
X026166Y003176D01*
X026289Y003473D01*
X026289Y003796D01*
X026238Y003920D01*
X026267Y003923D01*
X026301Y003920D01*
X026309Y003926D01*
X026311Y003927D01*
X026320Y003921D01*
X026353Y003930D01*
X026388Y003933D01*
X026394Y003941D01*
X026397Y003942D01*
X026406Y003938D01*
X026437Y003953D01*
X026471Y003962D01*
X026476Y003971D01*
X026478Y003972D01*
X026480Y003971D01*
X026480Y002633D01*
X022997Y002633D01*
X023160Y002701D01*
X023310Y002851D01*
X023391Y003047D01*
X023391Y003259D01*
X023310Y003456D01*
X023160Y003606D01*
X023077Y003640D01*
X023077Y003713D01*
X023095Y003713D01*
X023257Y003780D01*
X023380Y003904D01*
X023447Y004066D01*
X023447Y004841D01*
X023380Y005003D01*
X023257Y005126D01*
X023210Y005145D01*
X023702Y005637D01*
X023758Y005580D01*
X023920Y005513D01*
X024095Y005513D01*
X024257Y005580D01*
X024380Y005704D01*
X024447Y005866D01*
X024447Y006641D01*
X024380Y006803D01*
X024340Y006843D01*
X024675Y006843D01*
X024634Y006803D01*
X024567Y006641D01*
X024567Y005866D01*
X024634Y005704D01*
X024758Y005580D01*
X024920Y005513D01*
X025095Y005513D01*
X025257Y005580D01*
X025380Y005704D01*
X025300Y005623D02*
X025994Y005623D01*
X026321Y005623D02*
X026480Y005623D01*
X026480Y005465D02*
X023530Y005465D01*
X023688Y005623D02*
X023715Y005623D01*
X023371Y005306D02*
X026480Y005306D01*
X026480Y005148D02*
X023213Y005148D01*
X023107Y005353D02*
X024007Y006253D01*
X024447Y006257D02*
X024567Y006257D01*
X024567Y006099D02*
X024447Y006099D01*
X024447Y005940D02*
X024567Y005940D01*
X024602Y005782D02*
X024412Y005782D01*
X024300Y005623D02*
X024715Y005623D01*
X025277Y005023D02*
X024037Y003783D01*
X024037Y003043D01*
X023391Y003246D02*
X024764Y003246D01*
X024698Y003404D02*
X023331Y003404D01*
X023203Y003563D02*
X024669Y003563D01*
X024669Y003721D02*
X023114Y003721D01*
X023356Y003880D02*
X024704Y003880D01*
X024770Y004038D02*
X023436Y004038D01*
X023447Y004197D02*
X024896Y004197D01*
X025103Y004355D02*
X023447Y004355D01*
X023447Y004514D02*
X025776Y004514D01*
X025835Y004672D02*
X023447Y004672D01*
X023447Y004831D02*
X025983Y004831D01*
X026480Y004989D02*
X023386Y004989D01*
X023107Y005353D02*
X021767Y005353D01*
X021007Y004593D01*
X021007Y004453D01*
X020857Y004303D01*
X020857Y003153D01*
X020637Y003640D02*
X020555Y003606D01*
X020405Y003456D01*
X020379Y003393D01*
X020348Y003454D01*
X020295Y003527D01*
X020231Y003591D01*
X020158Y003644D01*
X020087Y003680D01*
X020120Y003685D01*
X020192Y003708D01*
X020259Y003743D01*
X020320Y003787D01*
X020373Y003841D01*
X020418Y003902D01*
X020452Y003969D01*
X020475Y004041D01*
X020487Y004116D01*
X020487Y004433D01*
X020027Y004433D01*
X020027Y004473D01*
X020487Y004473D01*
X020487Y004791D01*
X020475Y004866D01*
X020452Y004938D01*
X020423Y004994D01*
X020631Y004994D01*
X020567Y004841D01*
X020567Y004066D01*
X020634Y003904D01*
X020637Y003901D01*
X020637Y003640D01*
X020637Y003721D02*
X020217Y003721D01*
X020259Y003563D02*
X020512Y003563D01*
X020384Y003404D02*
X020373Y003404D01*
X020402Y003880D02*
X020637Y003880D01*
X020579Y004038D02*
X020475Y004038D01*
X020487Y004197D02*
X020567Y004197D01*
X020567Y004355D02*
X020487Y004355D01*
X020487Y004514D02*
X020567Y004514D01*
X020567Y004672D02*
X020487Y004672D01*
X020481Y004831D02*
X020567Y004831D01*
X020629Y004989D02*
X020426Y004989D01*
X020968Y005214D02*
X022007Y006253D01*
X020951Y007310D01*
X020951Y007653D01*
X021430Y007842D02*
X022172Y007842D01*
X022136Y007755D02*
X022136Y007550D01*
X022214Y007361D01*
X022359Y007216D01*
X022548Y007138D01*
X022753Y007138D01*
X022943Y007216D01*
X023087Y007361D01*
X023166Y007550D01*
X023166Y007755D01*
X023087Y007944D01*
X022943Y008089D01*
X022753Y008168D01*
X022548Y008168D01*
X022359Y008089D01*
X022214Y007944D01*
X022136Y007755D01*
X022136Y007684D02*
X021466Y007684D01*
X021456Y007525D02*
X022146Y007525D01*
X022212Y007367D02*
X021390Y007367D01*
X021363Y007208D02*
X022377Y007208D01*
X022292Y006891D02*
X022723Y006891D01*
X022605Y006733D02*
X022409Y006733D01*
X022447Y006574D02*
X022567Y006574D01*
X022567Y006416D02*
X022447Y006416D01*
X022447Y006257D02*
X022567Y006257D01*
X022567Y006099D02*
X022447Y006099D01*
X022447Y005940D02*
X022567Y005940D01*
X022602Y005782D02*
X022412Y005782D01*
X022300Y005623D02*
X022715Y005623D01*
X023447Y006099D02*
X023542Y006099D01*
X023567Y006257D02*
X023447Y006257D01*
X023447Y006416D02*
X023567Y006416D01*
X023567Y006574D02*
X023447Y006574D01*
X023409Y006733D02*
X023605Y006733D01*
X023723Y006891D02*
X023292Y006891D01*
X023433Y007208D02*
X022924Y007208D01*
X023090Y007367D02*
X023268Y007367D01*
X023202Y007525D02*
X023156Y007525D01*
X023166Y007684D02*
X023192Y007684D01*
X023228Y007842D02*
X023130Y007842D01*
X023219Y008001D02*
X023031Y008001D01*
X023060Y008159D02*
X022773Y008159D01*
X022902Y008318D02*
X017142Y008318D01*
X017251Y008476D02*
X022743Y008476D01*
X022585Y008635D02*
X017320Y008635D01*
X017478Y008793D02*
X022426Y008793D01*
X022268Y008952D02*
X017507Y008952D01*
X017507Y009110D02*
X022109Y009110D01*
X022847Y010061D02*
X023250Y010061D01*
X023192Y010220D02*
X023046Y010220D01*
X023136Y010378D02*
X023192Y010378D01*
X023192Y010537D02*
X023166Y010537D01*
X023149Y010695D02*
X023192Y010695D01*
X022651Y010553D02*
X024021Y011922D01*
X024122Y011922D01*
X023681Y012363D01*
X023122Y011922D02*
X022932Y011922D01*
X022304Y012551D01*
X022304Y012976D01*
X022304Y014381D01*
X022131Y014553D01*
X018621Y014553D01*
X018111Y015063D01*
X018111Y015473D01*
X017771Y015773D02*
X017891Y015893D01*
X017771Y015773D02*
X017771Y015023D01*
X018481Y014313D01*
X021521Y014313D01*
X021713Y014122D01*
X021713Y012976D01*
X021713Y012331D01*
X021122Y011923D02*
X021122Y012976D01*
X021122Y013912D01*
X020961Y014073D01*
X018341Y014073D01*
X017441Y014973D01*
X017441Y015933D01*
X016401Y016243D02*
X013978Y016243D01*
X014014Y016590D02*
X015165Y016590D01*
X015557Y016953D01*
X015872Y016877D02*
X016484Y016877D01*
X016401Y016718D02*
X015845Y016718D01*
X015872Y017035D02*
X016642Y017035D01*
X016683Y017194D02*
X015839Y017194D01*
X015597Y017352D02*
X016751Y017352D01*
X016781Y017511D02*
X015597Y017511D01*
X015597Y017669D02*
X016781Y017669D01*
X016781Y017828D02*
X015597Y017828D01*
X015257Y017603D02*
X015235Y017260D01*
X014957Y016953D01*
X014915Y016940D01*
X014895Y016960D01*
X014447Y016960D01*
X014447Y018823D01*
X014677Y019053D01*
X014957Y019053D01*
X014567Y019254D02*
X010451Y019254D01*
X010610Y019096D02*
X014409Y019096D01*
X014356Y019043D02*
X014356Y019043D01*
X014250Y018937D02*
X010768Y018937D01*
X010927Y018779D02*
X014227Y018779D01*
X014227Y018620D02*
X011085Y018620D01*
X011244Y018462D02*
X014227Y018462D01*
X014227Y018303D02*
X011402Y018303D01*
X011484Y018145D02*
X014227Y018145D01*
X014227Y017986D02*
X011527Y017986D01*
X011527Y017828D02*
X014227Y017828D01*
X014227Y017669D02*
X011527Y017669D01*
X011527Y017511D02*
X014227Y017511D01*
X014227Y017352D02*
X011527Y017352D01*
X012014Y017194D02*
X014227Y017194D01*
X014157Y016970D02*
X014167Y016960D01*
X014004Y016960D01*
X012037Y014993D01*
X008917Y014993D01*
X008527Y015383D01*
X008527Y017233D01*
X008908Y017614D01*
X009561Y017614D01*
X009842Y018054D02*
X009173Y018054D01*
X009011Y017987D01*
X008887Y017863D01*
X008875Y017834D01*
X008817Y017834D01*
X008688Y017705D01*
X008497Y017514D01*
X008497Y021083D01*
X008497Y026394D01*
X008747Y026394D01*
X009037Y026472D01*
X009296Y026622D01*
X009509Y026834D01*
X009659Y027094D01*
X009696Y027234D01*
X011088Y027234D01*
X011163Y027265D01*
X008795Y024897D01*
X008615Y024717D01*
X008517Y024482D01*
X008517Y019516D01*
X008615Y019281D01*
X009842Y018054D01*
X009751Y018145D02*
X008497Y018145D01*
X008497Y018303D02*
X009592Y018303D01*
X009434Y018462D02*
X008497Y018462D01*
X008497Y018620D02*
X009275Y018620D01*
X009117Y018779D02*
X008497Y018779D01*
X008497Y018937D02*
X008958Y018937D01*
X008800Y019096D02*
X008497Y019096D01*
X008497Y019254D02*
X008641Y019254D01*
X008560Y019413D02*
X008497Y019413D01*
X008497Y019571D02*
X008517Y019571D01*
X008517Y019730D02*
X008497Y019730D01*
X008497Y019888D02*
X008517Y019888D01*
X008517Y020047D02*
X008497Y020047D01*
X008497Y020205D02*
X008517Y020205D01*
X008517Y020364D02*
X008497Y020364D01*
X008497Y020522D02*
X008517Y020522D01*
X008517Y020681D02*
X008497Y020681D01*
X008497Y020839D02*
X008517Y020839D01*
X008517Y020998D02*
X008497Y020998D01*
X008497Y021156D02*
X008517Y021156D01*
X008517Y021315D02*
X008497Y021315D01*
X008497Y021473D02*
X008517Y021473D01*
X008517Y021632D02*
X008497Y021632D01*
X008497Y021790D02*
X008517Y021790D01*
X008517Y021949D02*
X008497Y021949D01*
X008497Y022107D02*
X008517Y022107D01*
X008517Y022266D02*
X008497Y022266D01*
X008497Y022424D02*
X008517Y022424D01*
X008517Y022583D02*
X008497Y022583D01*
X008497Y022741D02*
X008517Y022741D01*
X008517Y022900D02*
X008497Y022900D01*
X008497Y023058D02*
X008517Y023058D01*
X008517Y023217D02*
X008497Y023217D01*
X008497Y023375D02*
X008517Y023375D01*
X008517Y023534D02*
X008497Y023534D01*
X008497Y023692D02*
X008517Y023692D01*
X008517Y023851D02*
X008497Y023851D01*
X008497Y024009D02*
X008517Y024009D01*
X008517Y024168D02*
X008497Y024168D01*
X008497Y024326D02*
X008517Y024326D01*
X008519Y024485D02*
X008497Y024485D01*
X008497Y024643D02*
X008584Y024643D01*
X008497Y024802D02*
X008699Y024802D01*
X008858Y024960D02*
X008497Y024960D01*
X008497Y025119D02*
X009016Y025119D01*
X009175Y025277D02*
X008497Y025277D01*
X008497Y025436D02*
X009333Y025436D01*
X009492Y025594D02*
X008497Y025594D01*
X008497Y025753D02*
X009650Y025753D01*
X009809Y025911D02*
X008497Y025911D01*
X008497Y026070D02*
X009967Y026070D01*
X010126Y026228D02*
X008497Y026228D01*
X008497Y026387D02*
X010284Y026387D01*
X010443Y026545D02*
X009164Y026545D01*
X009379Y026704D02*
X010601Y026704D01*
X010760Y026862D02*
X009525Y026862D01*
X009617Y027021D02*
X010918Y027021D01*
X011077Y027179D02*
X009682Y027179D01*
X009659Y027972D02*
X011042Y027972D01*
X011200Y028130D02*
X009569Y028130D01*
X009454Y028289D02*
X011359Y028289D01*
X011517Y028447D02*
X009294Y028447D01*
X009001Y028606D02*
X011676Y028606D01*
X012829Y028606D02*
X014057Y028606D01*
X014057Y028764D02*
X007233Y028764D01*
X007075Y028923D02*
X014057Y028923D01*
X014057Y029081D02*
X006916Y029081D01*
X006758Y029240D02*
X014057Y029240D01*
X014057Y029398D02*
X007922Y029398D01*
X008075Y029557D02*
X014057Y029557D01*
X014057Y029715D02*
X008136Y029715D01*
X008136Y029874D02*
X014057Y029874D01*
X014057Y030032D02*
X008077Y030032D01*
X007971Y030191D02*
X014057Y030191D01*
X014057Y030349D02*
X007971Y030349D01*
X007971Y030508D02*
X014057Y030508D01*
X014057Y030666D02*
X007971Y030666D01*
X007971Y030825D02*
X014057Y030825D01*
X014057Y030983D02*
X008122Y030983D01*
X008280Y031142D02*
X014057Y031142D01*
X014057Y031300D02*
X008439Y031300D01*
X008527Y031459D02*
X014057Y031459D01*
X014277Y031743D02*
X014277Y028243D01*
X014547Y027973D01*
X015067Y027973D01*
X015557Y027483D01*
X015553Y027798D02*
X015757Y027798D01*
X015757Y029444D01*
X016086Y029773D01*
X016779Y029773D01*
X016772Y029780D01*
X016772Y030121D01*
X016758Y030154D01*
X016758Y030701D01*
X016636Y030823D01*
X016570Y030889D01*
X016568Y030885D01*
X016526Y030843D01*
X016475Y030814D01*
X016418Y030798D01*
X016265Y030798D01*
X016265Y031146D01*
X016250Y031146D01*
X016250Y030798D01*
X016097Y030798D01*
X016040Y030814D01*
X015989Y030843D01*
X015947Y030885D01*
X015918Y030936D01*
X015902Y030993D01*
X015902Y031146D01*
X016250Y031146D01*
X016250Y031161D01*
X016250Y031508D01*
X016097Y031508D01*
X016040Y031493D01*
X015989Y031464D01*
X015947Y031422D01*
X015918Y031371D01*
X015902Y031314D01*
X015902Y031161D01*
X016250Y031161D01*
X016265Y031161D01*
X016265Y031508D01*
X016331Y031508D01*
X015854Y031985D01*
X015649Y031985D01*
X015649Y031952D01*
X015567Y031870D01*
X014723Y031870D01*
X014641Y031952D01*
X014641Y032555D01*
X014497Y032412D01*
X014497Y028334D01*
X014638Y028193D01*
X015158Y028193D01*
X015553Y027798D01*
X015538Y027813D02*
X015757Y027813D01*
X015757Y027972D02*
X015380Y027972D01*
X015221Y028130D02*
X015757Y028130D01*
X015757Y028289D02*
X014543Y028289D01*
X014497Y028447D02*
X015757Y028447D01*
X015757Y028606D02*
X014497Y028606D01*
X014497Y028764D02*
X015757Y028764D01*
X015757Y028923D02*
X014497Y028923D01*
X014497Y029081D02*
X015757Y029081D01*
X015757Y029240D02*
X014497Y029240D01*
X014497Y029398D02*
X015757Y029398D01*
X015870Y029557D02*
X014497Y029557D01*
X014497Y029715D02*
X016028Y029715D01*
X016177Y029553D02*
X015977Y029353D01*
X015977Y027243D01*
X015867Y027133D01*
X015307Y027133D01*
X014957Y026783D01*
X014957Y026083D01*
X015234Y026329D02*
X015177Y026386D01*
X015177Y026481D01*
X015257Y026561D01*
X015350Y026468D01*
X015561Y026468D01*
X015591Y026438D01*
X015565Y026438D01*
X015565Y026091D01*
X015550Y026091D01*
X015550Y026438D01*
X015397Y026438D01*
X015340Y026423D01*
X015289Y026394D01*
X015247Y026352D01*
X015234Y026329D01*
X015282Y026387D02*
X015177Y026387D01*
X015242Y026545D02*
X015273Y026545D01*
X015550Y026387D02*
X015565Y026387D01*
X015550Y026228D02*
X015565Y026228D01*
X015557Y026083D02*
X014907Y025433D01*
X014497Y025433D01*
X014307Y025623D01*
X014307Y026343D01*
X013757Y026893D01*
X012697Y025833D01*
X012498Y026070D02*
X014642Y026070D01*
X014642Y026228D02*
X012657Y026228D01*
X012815Y026387D02*
X014737Y026387D01*
X014673Y026545D02*
X012974Y026545D01*
X013132Y026704D02*
X014642Y026704D01*
X014642Y026862D02*
X013291Y026862D01*
X013427Y027021D02*
X014672Y027021D01*
X014740Y027144D02*
X014797Y027128D01*
X014950Y027128D01*
X014950Y027476D01*
X014602Y027476D01*
X014602Y027323D01*
X014618Y027266D01*
X014647Y027215D01*
X014689Y027173D01*
X014740Y027144D01*
X014682Y027179D02*
X013457Y027179D01*
X013457Y027338D02*
X014602Y027338D01*
X014602Y027496D02*
X013457Y027496D01*
X013457Y027655D02*
X014605Y027655D01*
X014396Y027813D02*
X013457Y027813D01*
X013433Y027972D02*
X014238Y027972D01*
X014079Y028130D02*
X013305Y028130D01*
X013146Y028289D02*
X014057Y028289D01*
X014057Y028447D02*
X012988Y028447D01*
X014347Y027483D02*
X013757Y026893D01*
X014347Y027483D02*
X014957Y027483D01*
X014950Y027338D02*
X014965Y027338D01*
X014950Y027179D02*
X014965Y027179D01*
X015557Y026783D02*
X015927Y026413D01*
X015927Y025753D01*
X015607Y025433D01*
X015947Y025436D02*
X016060Y025436D01*
X016032Y025277D02*
X015947Y025277D01*
X015916Y025119D02*
X016032Y025119D01*
X016032Y024960D02*
X015553Y024960D01*
X015515Y024998D02*
X015597Y024916D01*
X015597Y024350D01*
X015515Y024268D01*
X015203Y024268D01*
X014455Y023520D01*
X014216Y023520D01*
X014216Y023328D01*
X014134Y023246D01*
X013322Y023246D01*
X013240Y023328D01*
X013240Y023440D01*
X012525Y023440D01*
X012427Y023342D01*
X012427Y023209D01*
X012357Y023038D01*
X012226Y022908D01*
X012055Y022837D01*
X011870Y022837D01*
X011699Y022908D01*
X011569Y023038D01*
X011498Y023209D01*
X011498Y023394D01*
X011569Y023565D01*
X011699Y023696D01*
X011870Y023766D01*
X012003Y023766D01*
X012147Y023910D01*
X012231Y023995D01*
X012341Y024040D01*
X013240Y024040D01*
X013240Y024153D01*
X013322Y024235D01*
X014134Y024235D01*
X014216Y024153D01*
X014216Y023960D01*
X014273Y023960D01*
X014917Y024604D01*
X014917Y024916D01*
X014999Y024998D01*
X015515Y024998D01*
X015597Y024802D02*
X016049Y024802D01*
X016361Y024485D02*
X015597Y024485D01*
X015597Y024643D02*
X016480Y024643D01*
X016581Y024433D02*
X016581Y023143D01*
X016571Y023133D01*
X016571Y022983D01*
X016581Y022993D01*
X016581Y023143D01*
X016801Y023217D02*
X017321Y023217D01*
X017321Y023058D02*
X016885Y023058D01*
X016881Y022900D02*
X017321Y022900D01*
X017321Y022741D02*
X016779Y022741D01*
X016954Y022328D02*
X016892Y022296D01*
X016837Y022256D01*
X016788Y022207D01*
X016748Y022152D01*
X016716Y022090D01*
X016695Y022025D01*
X016684Y021957D01*
X016684Y021922D01*
X016684Y021888D01*
X016695Y021820D01*
X016716Y021754D01*
X016748Y021693D01*
X016788Y021637D01*
X016837Y021589D01*
X016892Y021548D01*
X016954Y021517D01*
X017019Y021496D01*
X017087Y021485D01*
X017122Y021485D01*
X017122Y021922D01*
X017122Y021922D01*
X016684Y021922D01*
X017122Y021922D01*
X017122Y021922D01*
X017122Y021922D01*
X017122Y022360D01*
X017087Y022360D01*
X017019Y022349D01*
X016954Y022328D01*
X016850Y022266D02*
X014860Y022266D01*
X014898Y022107D02*
X016725Y022107D01*
X016684Y021949D02*
X014898Y021949D01*
X014890Y021790D02*
X016705Y021790D01*
X016793Y021632D02*
X014848Y021632D01*
X014787Y021473D02*
X017321Y021473D01*
X017321Y021315D02*
X014696Y021315D01*
X014555Y021156D02*
X017321Y021156D01*
X017321Y020998D02*
X014397Y020998D01*
X014950Y020681D02*
X014965Y020681D01*
X014950Y020522D02*
X014965Y020522D01*
X015617Y019753D02*
X016077Y019753D01*
X017001Y018829D01*
X017001Y017153D01*
X017001Y017083D01*
X016621Y016703D01*
X016621Y014673D01*
X016401Y016401D02*
X015287Y016401D01*
X015456Y016560D02*
X016401Y016560D01*
X016781Y017986D02*
X014667Y017986D01*
X014667Y017828D02*
X014917Y017828D01*
X014917Y017669D02*
X014667Y017669D01*
X014667Y017511D02*
X014917Y017511D01*
X014917Y017352D02*
X014667Y017352D01*
X014667Y017194D02*
X014675Y017194D01*
X014447Y016960D02*
X014167Y016960D01*
X014014Y016590D02*
X012147Y014723D01*
X008107Y014723D01*
X008087Y014743D01*
X007367Y014743D01*
X007357Y014733D01*
X006217Y014975D02*
X006142Y014975D01*
X006217Y015133D02*
X005919Y015133D01*
X006030Y015767D02*
X006217Y015767D01*
X006217Y015609D02*
X002037Y015609D01*
X002037Y015767D02*
X002409Y015767D01*
X002412Y015765D02*
X002496Y015722D01*
X002584Y015693D01*
X002677Y015679D01*
X003079Y015679D01*
X003079Y016214D01*
X003195Y016214D01*
X003195Y016330D01*
X004142Y016330D01*
X004129Y016411D01*
X004100Y016500D01*
X004058Y016583D01*
X004003Y016659D01*
X003937Y016725D01*
X003861Y016780D01*
X003778Y016822D01*
X003689Y016851D01*
X003597Y016866D01*
X003195Y016866D01*
X003195Y016330D01*
X003079Y016330D01*
X003079Y016214D01*
X002132Y016214D01*
X002145Y016133D01*
X002174Y016044D01*
X002216Y015961D01*
X002271Y015886D01*
X002337Y015820D01*
X002412Y015765D01*
X002242Y015926D02*
X002037Y015926D01*
X002037Y016084D02*
X002161Y016084D01*
X002037Y016243D02*
X003079Y016243D01*
X003079Y016330D02*
X002132Y016330D01*
X002145Y016411D01*
X002174Y016500D01*
X002216Y016583D01*
X002271Y016659D01*
X002337Y016725D01*
X002412Y016780D01*
X002496Y016822D01*
X002584Y016851D01*
X002677Y016866D01*
X003079Y016866D01*
X003079Y016330D01*
X003079Y016401D02*
X003195Y016401D01*
X003195Y016243D02*
X005244Y016243D01*
X005244Y016214D02*
X004297Y016214D01*
X004310Y016133D01*
X004339Y016044D01*
X004381Y015961D01*
X004436Y015886D01*
X004502Y015820D01*
X004578Y015765D01*
X004661Y015722D01*
X004750Y015693D01*
X004842Y015679D01*
X005244Y015679D01*
X005244Y016214D01*
X005244Y016330D02*
X004297Y016330D01*
X004310Y016411D01*
X004339Y016500D01*
X004381Y016583D01*
X004436Y016659D01*
X004502Y016725D01*
X004578Y016780D01*
X004661Y016822D01*
X004750Y016851D01*
X004842Y016866D01*
X005244Y016866D01*
X005244Y016330D01*
X005244Y016401D02*
X005360Y016401D01*
X005360Y016560D02*
X005244Y016560D01*
X005244Y016718D02*
X005360Y016718D01*
X005360Y016084D02*
X005244Y016084D01*
X005244Y015926D02*
X005360Y015926D01*
X005360Y015767D02*
X005244Y015767D01*
X004574Y015767D02*
X003865Y015767D01*
X003861Y015765D02*
X003937Y015820D01*
X004003Y015886D01*
X004058Y015961D01*
X004100Y016044D01*
X004129Y016133D01*
X004142Y016214D01*
X003195Y016214D01*
X003195Y015679D01*
X003597Y015679D01*
X003689Y015693D01*
X003778Y015722D01*
X003861Y015765D01*
X004032Y015926D02*
X004407Y015926D01*
X004326Y016084D02*
X004113Y016084D01*
X004131Y016401D02*
X004308Y016401D01*
X004369Y016560D02*
X004070Y016560D01*
X003943Y016718D02*
X004496Y016718D01*
X004521Y017511D02*
X003918Y017511D01*
X003864Y017457D02*
X004019Y017612D01*
X004104Y017816D01*
X004104Y018036D01*
X004019Y018239D01*
X003864Y018395D01*
X003660Y018479D01*
X002613Y018479D01*
X002410Y018395D01*
X002254Y018239D01*
X002170Y018036D01*
X002170Y017816D01*
X002254Y017612D01*
X002410Y017457D01*
X002613Y017372D01*
X003660Y017372D01*
X003864Y017457D01*
X004043Y017669D02*
X004396Y017669D01*
X004335Y017828D02*
X004104Y017828D01*
X004104Y017986D02*
X004335Y017986D01*
X004381Y018145D02*
X004058Y018145D01*
X003955Y018303D02*
X004484Y018303D01*
X004737Y018462D02*
X003702Y018462D01*
X003660Y019026D02*
X003864Y019110D01*
X004019Y019266D01*
X004104Y019469D01*
X004104Y019689D01*
X004019Y019893D01*
X003864Y020048D01*
X003660Y020133D01*
X002613Y020133D01*
X002410Y020048D01*
X002254Y019893D01*
X002170Y019689D01*
X002170Y019469D01*
X002254Y019266D01*
X002410Y019110D01*
X002613Y019026D01*
X003660Y019026D01*
X003829Y019096D02*
X004610Y019096D01*
X004431Y019254D02*
X004008Y019254D01*
X004080Y019413D02*
X004359Y019413D01*
X004335Y019571D02*
X004104Y019571D01*
X004087Y019730D02*
X004352Y019730D01*
X004418Y019888D02*
X004021Y019888D01*
X003865Y020047D02*
X004574Y020047D01*
X004802Y020205D02*
X002037Y020205D01*
X002037Y020047D02*
X002408Y020047D01*
X002252Y019888D02*
X002037Y019888D01*
X002037Y019730D02*
X002187Y019730D01*
X002170Y019571D02*
X002037Y019571D01*
X002037Y019413D02*
X002193Y019413D01*
X002266Y019254D02*
X002037Y019254D01*
X002037Y019096D02*
X002445Y019096D01*
X002037Y018937D02*
X006217Y018937D01*
X006217Y018779D02*
X002037Y018779D01*
X002037Y018620D02*
X006217Y018620D01*
X006217Y018462D02*
X005867Y018462D01*
X006121Y018303D02*
X006217Y018303D01*
X006208Y017669D02*
X006217Y017669D01*
X006217Y017511D02*
X006083Y017511D01*
X006217Y017352D02*
X002037Y017352D01*
X002037Y017194D02*
X006217Y017194D01*
X006217Y017035D02*
X002037Y017035D01*
X002037Y016877D02*
X006217Y016877D01*
X006217Y016718D02*
X006109Y016718D01*
X006197Y015926D02*
X006217Y015926D01*
X006217Y015450D02*
X002037Y015450D01*
X002037Y015292D02*
X006217Y015292D01*
X006199Y014341D02*
X006217Y014341D01*
X006217Y014182D02*
X006062Y014182D01*
X006217Y014024D02*
X002037Y014024D01*
X002037Y014182D02*
X002321Y014182D01*
X002337Y014166D02*
X002412Y014111D01*
X002496Y014069D01*
X002584Y014040D01*
X002677Y014025D01*
X003079Y014025D01*
X003079Y014561D01*
X002132Y014561D01*
X002145Y014480D01*
X002174Y014391D01*
X002216Y014308D01*
X002271Y014232D01*
X002337Y014166D01*
X002199Y014341D02*
X002037Y014341D01*
X002037Y014499D02*
X002142Y014499D01*
X002132Y014676D02*
X003079Y014676D01*
X003079Y014561D01*
X003195Y014561D01*
X003195Y014676D01*
X004142Y014676D01*
X004129Y014758D01*
X004100Y014846D01*
X004058Y014930D01*
X004003Y015005D01*
X003937Y015071D01*
X003861Y015126D01*
X003778Y015169D01*
X003689Y015197D01*
X003597Y015212D01*
X003195Y015212D01*
X003195Y014676D01*
X003079Y014676D01*
X003079Y015212D01*
X002677Y015212D01*
X002584Y015197D01*
X002496Y015169D01*
X002412Y015126D01*
X002337Y015071D01*
X002271Y015005D01*
X002216Y014930D01*
X002174Y014846D01*
X002145Y014758D01*
X002132Y014676D01*
X002037Y014658D02*
X003079Y014658D01*
X003195Y014658D02*
X004335Y014658D01*
X004339Y014499D02*
X004132Y014499D01*
X004129Y014480D02*
X004142Y014561D01*
X003195Y014561D01*
X003195Y014025D01*
X003597Y014025D01*
X003689Y014040D01*
X003778Y014069D01*
X003861Y014111D01*
X003937Y014166D01*
X004003Y014232D01*
X004058Y014308D01*
X004100Y014391D01*
X004129Y014480D01*
X004075Y014341D02*
X004405Y014341D01*
X004543Y014182D02*
X003953Y014182D01*
X004110Y014816D02*
X004372Y014816D01*
X004462Y014975D02*
X004025Y014975D01*
X003847Y015133D02*
X004685Y015133D01*
X003195Y015133D02*
X003079Y015133D01*
X003079Y014975D02*
X003195Y014975D01*
X003195Y014816D02*
X003079Y014816D01*
X003079Y014499D02*
X003195Y014499D01*
X003195Y014341D02*
X003079Y014341D01*
X003079Y014182D02*
X003195Y014182D01*
X003195Y013559D02*
X003195Y013023D01*
X004142Y013023D01*
X004129Y013104D01*
X004100Y013193D01*
X004058Y013276D01*
X004003Y013352D01*
X003937Y013418D01*
X003861Y013473D01*
X003778Y013515D01*
X003689Y013544D01*
X003597Y013559D01*
X003195Y013559D01*
X003195Y013548D02*
X003079Y013548D01*
X003079Y013559D02*
X002677Y013559D01*
X002584Y013544D01*
X002496Y013515D01*
X002412Y013473D01*
X002337Y013418D01*
X002271Y013352D01*
X002216Y013276D01*
X002174Y013193D01*
X002145Y013104D01*
X002132Y013023D01*
X003079Y013023D01*
X003079Y013559D01*
X003079Y013390D02*
X003195Y013390D01*
X003195Y013231D02*
X003079Y013231D01*
X003079Y013073D02*
X003195Y013073D01*
X003195Y013023D02*
X003079Y013023D01*
X003079Y012907D01*
X003195Y012907D01*
X003195Y013023D01*
X003137Y012983D02*
X003137Y012983D01*
X003137Y012965D01*
X003195Y012914D02*
X005244Y012914D01*
X005244Y012907D02*
X004297Y012907D01*
X004310Y012826D01*
X004339Y012737D01*
X004381Y012654D01*
X004436Y012579D01*
X004502Y012513D01*
X004578Y012458D01*
X004661Y012415D01*
X004750Y012386D01*
X004842Y012372D01*
X005244Y012372D01*
X005244Y012907D01*
X005244Y013023D02*
X004297Y013023D01*
X004310Y013104D01*
X004339Y013193D01*
X004381Y013276D01*
X004436Y013352D01*
X004502Y013418D01*
X004578Y013473D01*
X004661Y013515D01*
X004750Y013544D01*
X004842Y013559D01*
X005244Y013559D01*
X005244Y013023D01*
X005244Y013073D02*
X005360Y013073D01*
X005360Y013231D02*
X005244Y013231D01*
X005244Y013390D02*
X005360Y013390D01*
X005360Y013548D02*
X005244Y013548D01*
X004778Y013548D02*
X003661Y013548D01*
X003195Y012907D02*
X004142Y012907D01*
X004129Y012826D01*
X004100Y012737D01*
X004058Y012654D01*
X004003Y012579D01*
X003937Y012513D01*
X003861Y012458D01*
X003778Y012415D01*
X003689Y012386D01*
X003597Y012372D01*
X003195Y012372D01*
X003195Y012907D01*
X003079Y012907D02*
X003079Y012372D01*
X002677Y012372D01*
X002584Y012386D01*
X002496Y012415D01*
X002412Y012458D01*
X002337Y012513D01*
X002271Y012579D01*
X002216Y012654D01*
X002174Y012737D01*
X002145Y012826D01*
X002132Y012907D01*
X003079Y012907D01*
X003079Y012914D02*
X002037Y012914D01*
X002037Y012756D02*
X002168Y012756D01*
X002257Y012597D02*
X002037Y012597D01*
X002037Y012439D02*
X002449Y012439D01*
X002037Y012280D02*
X006217Y012280D01*
X006217Y012122D02*
X002037Y012122D01*
X002037Y011963D02*
X006217Y011963D01*
X006217Y011805D02*
X005971Y011805D01*
X006163Y011646D02*
X006217Y011646D01*
X006191Y011012D02*
X006217Y011012D01*
X006217Y010854D02*
X006040Y010854D01*
X006217Y010695D02*
X002037Y010695D01*
X002037Y010537D02*
X006217Y010537D01*
X006217Y010378D02*
X002037Y010378D01*
X002037Y010220D02*
X002532Y010220D01*
X002496Y010208D02*
X002412Y010166D01*
X002337Y010111D01*
X002271Y010045D01*
X002216Y009969D01*
X002174Y009886D01*
X002145Y009797D01*
X002132Y009716D01*
X003079Y009716D01*
X003079Y010251D01*
X002677Y010251D01*
X002584Y010237D01*
X002496Y010208D01*
X002288Y010061D02*
X002037Y010061D01*
X002037Y009903D02*
X002182Y009903D01*
X002136Y009744D02*
X002037Y009744D01*
X002037Y009586D02*
X002134Y009586D01*
X002132Y009600D02*
X002145Y009519D01*
X002174Y009430D01*
X002216Y009347D01*
X002271Y009271D01*
X002337Y009205D01*
X002412Y009151D01*
X002496Y009108D01*
X002584Y009079D01*
X002677Y009065D01*
X003079Y009065D01*
X003079Y009600D01*
X003195Y009600D01*
X003195Y009716D01*
X004142Y009716D01*
X004129Y009797D01*
X004100Y009886D01*
X004058Y009969D01*
X004003Y010045D01*
X003937Y010111D01*
X003861Y010166D01*
X003778Y010208D01*
X003689Y010237D01*
X003597Y010251D01*
X003195Y010251D01*
X003195Y009716D01*
X003079Y009716D01*
X003079Y009600D01*
X002132Y009600D01*
X002175Y009427D02*
X002037Y009427D01*
X002037Y009269D02*
X002273Y009269D01*
X002491Y009110D02*
X002037Y009110D01*
X002037Y008952D02*
X006207Y008952D01*
X006207Y009110D02*
X005948Y009110D01*
X006166Y009269D02*
X006207Y009269D01*
X006207Y008793D02*
X002037Y008793D01*
X002037Y008635D02*
X006207Y008635D01*
X006207Y008476D02*
X006023Y008476D01*
X006177Y007684D02*
X006207Y007684D01*
X006207Y007525D02*
X006005Y007525D01*
X006207Y007367D02*
X002037Y007367D01*
X002037Y007525D02*
X002434Y007525D01*
X002410Y007535D02*
X002254Y007691D01*
X002170Y007894D01*
X002170Y008115D01*
X002254Y008318D01*
X002037Y008318D01*
X002037Y008476D02*
X002416Y008476D01*
X002410Y008474D02*
X002254Y008318D01*
X002189Y008159D02*
X002037Y008159D01*
X002037Y008001D02*
X002170Y008001D01*
X002192Y007842D02*
X002037Y007842D01*
X002037Y007684D02*
X002261Y007684D01*
X002410Y007535D02*
X002613Y007451D01*
X003660Y007451D01*
X003864Y007535D01*
X004019Y007691D01*
X004104Y007894D01*
X004104Y008115D01*
X004019Y008318D01*
X003864Y008474D01*
X003660Y008558D01*
X002613Y008558D01*
X002410Y008474D01*
X003079Y009110D02*
X003195Y009110D01*
X003195Y009065D02*
X003597Y009065D01*
X003689Y009079D01*
X003778Y009108D01*
X003861Y009151D01*
X003937Y009205D01*
X004003Y009271D01*
X004058Y009347D01*
X004100Y009430D01*
X004129Y009519D01*
X004142Y009600D01*
X003195Y009600D01*
X003195Y009065D01*
X003195Y009269D02*
X003079Y009269D01*
X003079Y009427D02*
X003195Y009427D01*
X003195Y009586D02*
X003079Y009586D01*
X003137Y009658D02*
X003137Y009663D01*
X003137Y009663D01*
X003079Y009744D02*
X003195Y009744D01*
X003195Y009903D02*
X003079Y009903D01*
X003079Y010061D02*
X003195Y010061D01*
X003195Y010220D02*
X003079Y010220D01*
X002613Y010758D02*
X002410Y010842D01*
X002254Y010998D01*
X002170Y011202D01*
X002170Y011422D01*
X002254Y011625D01*
X002410Y011781D01*
X002613Y011865D01*
X003660Y011865D01*
X003864Y011781D01*
X004019Y011625D01*
X004104Y011422D01*
X004104Y011202D01*
X004019Y010998D01*
X003864Y010842D01*
X003660Y010758D01*
X002613Y010758D01*
X002399Y010854D02*
X002037Y010854D01*
X002037Y011012D02*
X002248Y011012D01*
X002183Y011171D02*
X002037Y011171D01*
X002037Y011329D02*
X002170Y011329D01*
X002197Y011488D02*
X002037Y011488D01*
X002037Y011646D02*
X002276Y011646D01*
X002468Y011805D02*
X002037Y011805D01*
X003079Y012439D02*
X003195Y012439D01*
X003195Y012597D02*
X003079Y012597D01*
X003079Y012756D02*
X003195Y012756D01*
X003824Y012439D02*
X004615Y012439D01*
X004423Y012597D02*
X004016Y012597D01*
X004106Y012756D02*
X004333Y012756D01*
X004305Y013073D02*
X004134Y013073D01*
X004081Y013231D02*
X004358Y013231D01*
X004474Y013390D02*
X003965Y013390D01*
X005244Y012756D02*
X005360Y012756D01*
X005360Y012597D02*
X005244Y012597D01*
X005244Y012439D02*
X005360Y012439D01*
X004634Y011805D02*
X003805Y011805D01*
X003998Y011646D02*
X004441Y011646D01*
X004363Y011488D02*
X004076Y011488D01*
X004104Y011329D02*
X004335Y011329D01*
X004348Y011171D02*
X004091Y011171D01*
X004025Y011012D02*
X004414Y011012D01*
X004564Y010854D02*
X003875Y010854D01*
X003741Y010220D02*
X004698Y010220D01*
X004661Y010208D02*
X004578Y010166D01*
X004502Y010111D01*
X004436Y010045D01*
X004381Y009969D01*
X004339Y009886D01*
X004310Y009797D01*
X004297Y009716D01*
X005244Y009716D01*
X005244Y010251D01*
X004842Y010251D01*
X004750Y010237D01*
X004661Y010208D01*
X004453Y010061D02*
X003986Y010061D01*
X004091Y009903D02*
X004348Y009903D01*
X004302Y009744D02*
X004137Y009744D01*
X004140Y009586D02*
X004299Y009586D01*
X004340Y009427D02*
X004099Y009427D01*
X004000Y009269D02*
X004439Y009269D01*
X004657Y009110D02*
X003782Y009110D01*
X003857Y008476D02*
X004582Y008476D01*
X004420Y008318D02*
X004019Y008318D01*
X004085Y008159D02*
X004354Y008159D01*
X004335Y008001D02*
X004104Y008001D01*
X004082Y007842D02*
X004357Y007842D01*
X004427Y007684D02*
X004012Y007684D01*
X003839Y007525D02*
X004600Y007525D01*
X004747Y006891D02*
X003692Y006891D01*
X003660Y006904D02*
X003864Y006820D01*
X004019Y006664D01*
X004104Y006461D01*
X004104Y006241D01*
X004019Y006038D01*
X003864Y005882D01*
X003660Y005798D01*
X002613Y005798D01*
X002410Y005882D01*
X002254Y006038D01*
X002170Y006241D01*
X002170Y006461D01*
X002254Y006664D01*
X002410Y006820D01*
X002613Y006904D01*
X003660Y006904D01*
X003951Y006733D02*
X004488Y006733D01*
X004382Y006574D02*
X004057Y006574D01*
X004104Y006416D02*
X004335Y006416D01*
X004335Y006257D02*
X004104Y006257D01*
X004045Y006099D02*
X004394Y006099D01*
X004517Y005940D02*
X003922Y005940D01*
X003647Y005233D02*
X005407Y005233D01*
X006977Y003663D01*
X008227Y003663D01*
X008437Y003453D01*
X012237Y003453D01*
X012327Y003543D01*
X017657Y003543D01*
X017727Y003613D01*
X017877Y003153D01*
X019857Y003153D01*
X019857Y004303D01*
X020007Y004453D01*
X019798Y003721D02*
X019777Y003721D01*
X019777Y003563D02*
X019937Y003563D01*
X019937Y003404D02*
X019777Y003404D01*
X019777Y003246D02*
X019937Y003246D01*
X019777Y003087D02*
X003637Y003087D01*
X003754Y003246D02*
X019291Y003246D01*
X019341Y003404D02*
X003820Y003404D01*
X003848Y003563D02*
X019455Y003563D01*
X019328Y002929D02*
X003451Y002929D01*
X003848Y003721D02*
X012854Y003721D01*
X012854Y003880D02*
X010789Y003880D01*
X010247Y005148D02*
X010224Y005148D01*
X011697Y006393D02*
X011697Y008234D01*
X011447Y008274D02*
X011407Y008234D01*
X012180Y009903D02*
X012282Y009903D01*
X012282Y010061D02*
X012215Y010061D01*
X012237Y010220D02*
X012291Y010220D01*
X012242Y010378D02*
X012212Y010378D01*
X012667Y010537D02*
X013030Y010537D01*
X013052Y010695D02*
X013188Y010695D01*
X013337Y010854D02*
X013016Y010854D01*
X013012Y011012D02*
X013337Y011012D01*
X013337Y011171D02*
X013012Y011171D01*
X013114Y011329D02*
X013337Y011329D01*
X013337Y011488D02*
X013273Y011488D01*
X013297Y011646D02*
X013337Y011646D01*
X013337Y011805D02*
X013297Y011805D01*
X013297Y011963D02*
X013337Y011963D01*
X013337Y012122D02*
X013297Y012122D01*
X013297Y012280D02*
X013337Y012280D01*
X013337Y012439D02*
X013297Y012439D01*
X013297Y012597D02*
X013337Y012597D01*
X013337Y012756D02*
X013297Y012756D01*
X013297Y012914D02*
X013337Y012914D01*
X013337Y013073D02*
X013297Y013073D01*
X013297Y013231D02*
X013337Y013231D01*
X013337Y013390D02*
X013297Y013390D01*
X013297Y013548D02*
X013337Y013548D01*
X013337Y013707D02*
X013297Y013707D01*
X013297Y013865D02*
X013458Y013865D01*
X013557Y013653D02*
X013747Y013843D01*
X013557Y013653D02*
X013557Y010753D01*
X012647Y009843D01*
X013835Y010061D02*
X014477Y010061D01*
X014477Y010220D02*
X013875Y010220D01*
X014017Y010378D02*
X014477Y010378D01*
X014477Y010537D02*
X014017Y010537D01*
X014017Y010695D02*
X014477Y010695D01*
X014496Y010854D02*
X014017Y010854D01*
X014017Y011012D02*
X014674Y011012D01*
X014516Y011171D02*
X014017Y011171D01*
X014017Y011329D02*
X014372Y011329D01*
X014372Y011488D02*
X014017Y011488D01*
X014017Y011646D02*
X014372Y011646D01*
X014372Y011805D02*
X014017Y011805D01*
X014017Y011963D02*
X014372Y011963D01*
X014372Y012122D02*
X014017Y012122D01*
X014017Y012280D02*
X014490Y012280D01*
X014642Y012439D02*
X014017Y012439D01*
X014017Y012597D02*
X014642Y012597D01*
X014747Y012756D02*
X014017Y012756D01*
X014017Y012914D02*
X014624Y012914D01*
X014602Y013073D02*
X014017Y013073D01*
X014026Y013231D02*
X014602Y013231D01*
X015167Y012756D02*
X015347Y012756D01*
X014613Y014341D02*
X013297Y014341D01*
X013297Y014499D02*
X014602Y014499D01*
X014602Y014658D02*
X013297Y014658D01*
X013331Y014816D02*
X014651Y014816D01*
X013293Y016560D02*
X012382Y016560D01*
X012382Y016718D02*
X013451Y016718D01*
X013610Y016877D02*
X012325Y016877D01*
X012225Y017035D02*
X013768Y017035D01*
X013134Y016401D02*
X012346Y016401D01*
X012276Y016243D02*
X012976Y016243D01*
X012817Y016084D02*
X012117Y016084D01*
X012342Y015609D02*
X009581Y015609D01*
X009541Y015609D02*
X008747Y015609D01*
X008781Y015594D02*
X008781Y015576D01*
X008792Y015502D01*
X008816Y015430D01*
X008840Y015381D01*
X008747Y015474D01*
X008747Y017142D01*
X008929Y017324D01*
X009011Y017241D01*
X009173Y017174D01*
X009240Y017174D01*
X009198Y017157D01*
X009041Y016999D01*
X009011Y016987D01*
X008887Y016863D01*
X008821Y016701D01*
X008821Y016526D01*
X008887Y016365D01*
X009011Y016241D01*
X009041Y016229D01*
X009182Y016087D01*
X009148Y016082D01*
X009076Y016059D01*
X009009Y016024D01*
X008948Y015980D01*
X008894Y015927D01*
X008850Y015866D01*
X008816Y015798D01*
X008792Y015726D01*
X008781Y015652D01*
X008781Y015634D01*
X009541Y015634D01*
X009541Y015594D01*
X008781Y015594D01*
X008771Y015450D02*
X008809Y015450D01*
X008806Y015767D02*
X008747Y015767D01*
X008747Y015926D02*
X008894Y015926D01*
X008747Y016084D02*
X009162Y016084D01*
X009009Y016243D02*
X008747Y016243D01*
X008747Y016401D02*
X008872Y016401D01*
X008821Y016560D02*
X008747Y016560D01*
X008747Y016718D02*
X008828Y016718D01*
X008901Y016877D02*
X008747Y016877D01*
X008747Y017035D02*
X009077Y017035D01*
X009125Y017194D02*
X008799Y017194D01*
X008652Y017669D02*
X008497Y017669D01*
X008497Y017828D02*
X008811Y017828D01*
X009011Y017986D02*
X008497Y017986D01*
X010227Y015926D02*
X012659Y015926D01*
X012500Y015767D02*
X010315Y015767D01*
X010312Y015450D02*
X012183Y015450D01*
X012025Y015292D02*
X010217Y015292D01*
X007974Y012590D02*
X007877Y012493D01*
X007657Y012713D01*
X007357Y012713D01*
X007657Y012713D02*
X007747Y012713D01*
X008117Y012343D01*
X009475Y011805D02*
X010517Y011805D01*
X010359Y011646D02*
X009554Y011646D01*
X009630Y011488D02*
X010200Y011488D01*
X010042Y011329D02*
X009789Y011329D01*
X006217Y012439D02*
X005990Y012439D01*
X006182Y012597D02*
X006217Y012597D01*
X006217Y013390D02*
X006130Y013390D01*
X006217Y013548D02*
X005827Y013548D01*
X006217Y013707D02*
X002037Y013707D01*
X002037Y013865D02*
X006217Y013865D01*
X006207Y010220D02*
X005907Y010220D01*
X006151Y010061D02*
X006207Y010061D01*
X005360Y010061D02*
X005244Y010061D01*
X005244Y009903D02*
X005360Y009903D01*
X005360Y009744D02*
X005244Y009744D01*
X005244Y009586D02*
X005360Y009586D01*
X005360Y009427D02*
X005244Y009427D01*
X005244Y009269D02*
X005360Y009269D01*
X005360Y009110D02*
X005244Y009110D01*
X005244Y010220D02*
X005360Y010220D01*
X006207Y007208D02*
X002037Y007208D01*
X002037Y007050D02*
X006207Y007050D01*
X006207Y006891D02*
X005857Y006891D01*
X006116Y006733D02*
X006207Y006733D01*
X006207Y005940D02*
X006088Y005940D01*
X006207Y005782D02*
X002037Y005782D01*
X002037Y005940D02*
X002351Y005940D01*
X002229Y006099D02*
X002037Y006099D01*
X002037Y006257D02*
X002170Y006257D01*
X002170Y006416D02*
X002037Y006416D01*
X002037Y006574D02*
X002217Y006574D01*
X002323Y006733D02*
X002037Y006733D01*
X002037Y006891D02*
X002582Y006891D01*
X002037Y005623D02*
X006207Y005623D01*
X006207Y005465D02*
X002037Y005465D01*
X002037Y005306D02*
X006207Y005306D01*
X006207Y005148D02*
X002037Y005148D01*
X002037Y004989D02*
X006207Y004989D01*
X006243Y004831D02*
X002535Y004831D01*
X002683Y004672D02*
X006313Y004672D01*
X006472Y004514D02*
X002742Y004514D01*
X002263Y003880D02*
X002037Y003880D01*
X002037Y003721D02*
X002228Y003721D01*
X002228Y003563D02*
X002037Y003563D01*
X002037Y003404D02*
X002257Y003404D01*
X002323Y003246D02*
X002037Y003246D01*
X002037Y003087D02*
X002440Y003087D01*
X002625Y002929D02*
X002037Y002929D01*
X002037Y002770D02*
X019429Y002770D01*
X018894Y005214D02*
X020968Y005214D01*
X021857Y004303D02*
X021857Y003153D01*
X021857Y004303D02*
X022007Y004453D01*
X022857Y004303D02*
X022857Y003153D01*
X023229Y002770D02*
X026480Y002770D01*
X026480Y002929D02*
X025892Y002929D01*
X026078Y003087D02*
X026480Y003087D01*
X026480Y003246D02*
X026195Y003246D01*
X026261Y003404D02*
X026480Y003404D01*
X026480Y003563D02*
X026289Y003563D01*
X026289Y003721D02*
X026480Y003721D01*
X026480Y003880D02*
X026254Y003880D01*
X025066Y002929D02*
X023342Y002929D01*
X023391Y003087D02*
X024881Y003087D01*
X023007Y004453D02*
X022857Y004303D01*
X024447Y006416D02*
X024567Y006416D01*
X024567Y006574D02*
X024447Y006574D01*
X024409Y006733D02*
X024605Y006733D01*
X024387Y007283D02*
X024192Y007478D01*
X024222Y007550D01*
X024222Y007755D01*
X024143Y007944D01*
X024054Y008033D01*
X025003Y008033D01*
X024983Y008014D01*
X024932Y007943D01*
X024892Y007866D01*
X024865Y007783D01*
X024852Y007696D01*
X024852Y007685D01*
X025374Y007685D01*
X025374Y007620D01*
X024852Y007620D01*
X024852Y007609D01*
X024865Y007523D01*
X024892Y007439D01*
X024932Y007362D01*
X024983Y007291D01*
X024991Y007283D01*
X024387Y007283D01*
X024304Y007367D02*
X024929Y007367D01*
X024865Y007525D02*
X024211Y007525D01*
X024222Y007684D02*
X025374Y007684D01*
X024974Y008001D02*
X024087Y008001D01*
X024186Y007842D02*
X024885Y007842D01*
X023998Y007050D02*
X021522Y007050D01*
X021680Y006891D02*
X021723Y006891D01*
X020900Y007050D02*
X019579Y007050D01*
X019529Y006891D02*
X019666Y006891D01*
X019561Y006733D02*
X019416Y006733D01*
X019527Y006574D02*
X018610Y006574D01*
X018674Y006733D02*
X018469Y006733D01*
X018488Y006714D02*
X018488Y006714D01*
X018561Y006891D02*
X018311Y006891D01*
X018152Y007050D02*
X018511Y007050D01*
X018511Y007208D02*
X018468Y007208D01*
X018509Y007653D02*
X018195Y007653D01*
X016808Y007653D01*
X016771Y008001D02*
X017815Y008001D01*
X018073Y008159D02*
X016707Y008159D01*
X016707Y008318D02*
X016753Y008318D01*
X016947Y008573D02*
X017287Y008913D01*
X017287Y009433D01*
X017618Y010783D02*
X017618Y010783D01*
X017680Y010854D02*
X017548Y010854D01*
X017389Y011012D02*
X017707Y011012D01*
X017231Y011171D02*
X021697Y011171D01*
X021697Y011329D02*
X017072Y011329D01*
X015690Y010854D02*
X015269Y010854D01*
X015287Y010695D02*
X015667Y010695D01*
X015667Y010537D02*
X015287Y010537D01*
X015287Y010378D02*
X015642Y010378D01*
X015612Y010220D02*
X015287Y010220D01*
X015287Y010061D02*
X015454Y010061D01*
X015295Y009903D02*
X015287Y009903D01*
X018317Y008159D02*
X019667Y008159D01*
X019682Y008167D02*
X019604Y008127D01*
X019533Y008076D01*
X019472Y008014D01*
X019420Y007943D01*
X019381Y007866D01*
X019354Y007783D01*
X019340Y007696D01*
X019340Y007685D01*
X019862Y007685D01*
X019862Y008208D01*
X019851Y008208D01*
X019765Y008194D01*
X019682Y008167D01*
X019862Y008159D02*
X019927Y008159D01*
X019927Y008001D02*
X019862Y008001D01*
X019862Y007842D02*
X019927Y007842D01*
X019862Y007684D02*
X018789Y007684D01*
X018674Y007842D02*
X019373Y007842D01*
X019462Y008001D02*
X018575Y008001D01*
X018509Y007653D02*
X019045Y007117D01*
X019862Y007208D02*
X019927Y007208D01*
X019927Y007367D02*
X019862Y007367D01*
X019862Y007525D02*
X019927Y007525D01*
X020228Y007208D02*
X020677Y007208D01*
X020512Y007367D02*
X020372Y007367D01*
X020437Y007525D02*
X020446Y007525D01*
X020417Y007842D02*
X020472Y007842D01*
X020571Y008001D02*
X020328Y008001D01*
X020123Y008159D02*
X020829Y008159D01*
X021073Y008159D02*
X022529Y008159D01*
X022271Y008001D02*
X021331Y008001D01*
X020723Y006891D02*
X020348Y006891D01*
X020454Y006733D02*
X020605Y006733D01*
X020567Y006574D02*
X020487Y006574D01*
X020487Y006416D02*
X020567Y006416D01*
X020027Y006416D02*
X019987Y006416D01*
X019987Y006574D02*
X020027Y006574D01*
X020027Y006733D02*
X019987Y006733D01*
X019987Y006891D02*
X020027Y006891D01*
X020027Y006099D02*
X019987Y006099D01*
X019451Y010220D02*
X018839Y010220D01*
X018710Y010378D02*
X019368Y010378D01*
X019340Y010585D02*
X019862Y010585D01*
X019862Y011108D01*
X019851Y011108D01*
X019765Y011094D01*
X019682Y011067D01*
X019604Y011027D01*
X019533Y010976D01*
X019472Y010914D01*
X019420Y010843D01*
X019381Y010766D01*
X019354Y010683D01*
X019340Y010596D01*
X019340Y010585D01*
X019358Y010695D02*
X018710Y010695D01*
X018710Y010854D02*
X019428Y010854D01*
X019584Y011012D02*
X018683Y011012D01*
X019862Y011012D02*
X019927Y011012D01*
X019927Y010854D02*
X019862Y010854D01*
X019862Y010695D02*
X019927Y010695D01*
X020206Y011012D02*
X020463Y011012D01*
X020436Y010854D02*
X020362Y010854D01*
X020432Y010695D02*
X020436Y010695D01*
X020462Y011646D02*
X020836Y011646D01*
X020740Y011805D02*
X020544Y011805D01*
X020558Y011963D02*
X020724Y011963D01*
X020774Y012122D02*
X020511Y012122D01*
X020373Y012280D02*
X020902Y012280D01*
X020902Y012439D02*
X020799Y012439D01*
X020560Y012439D02*
X020504Y012439D01*
X020504Y012597D02*
X020560Y012597D01*
X020560Y012756D02*
X020504Y012756D01*
X020504Y012914D02*
X020560Y012914D01*
X020560Y013004D02*
X020504Y013004D01*
X020504Y013520D01*
X020292Y013520D01*
X020246Y013508D01*
X020205Y013484D01*
X020201Y013480D01*
X020161Y013480D01*
X020161Y013612D01*
X020171Y013622D01*
X020171Y013804D01*
X020123Y013853D01*
X020870Y013853D01*
X020902Y013821D01*
X020902Y013480D01*
X020863Y013480D01*
X020859Y013484D01*
X020818Y013508D01*
X020772Y013520D01*
X020560Y013520D01*
X020560Y013004D01*
X020560Y013073D02*
X020504Y013073D01*
X020504Y013231D02*
X020560Y013231D01*
X020560Y013390D02*
X020504Y013390D01*
X020161Y013548D02*
X020902Y013548D01*
X020902Y013707D02*
X020171Y013707D01*
X020161Y012439D02*
X020264Y012439D01*
X021122Y011923D02*
X021122Y011922D01*
X021439Y011012D02*
X021697Y011012D01*
X021697Y010854D02*
X021466Y010854D01*
X021466Y010695D02*
X021697Y010695D01*
X021697Y010537D02*
X021466Y010537D01*
X021466Y010378D02*
X021561Y010378D01*
X024408Y011646D02*
X024781Y011646D01*
X024700Y011805D02*
X024503Y011805D01*
X024519Y011963D02*
X024685Y011963D01*
X024684Y011957D02*
X024684Y011922D01*
X025122Y011922D01*
X025122Y011922D01*
X025122Y011922D01*
X025122Y012360D01*
X025087Y012360D01*
X025019Y012349D01*
X024954Y012328D01*
X024892Y012296D01*
X024837Y012256D01*
X024788Y012207D01*
X024748Y012152D01*
X024716Y012090D01*
X024695Y012025D01*
X024684Y011957D01*
X024732Y012122D02*
X024469Y012122D01*
X024296Y012280D02*
X024870Y012280D01*
X025122Y012280D02*
X025122Y012280D01*
X025122Y012122D02*
X025122Y012122D01*
X025122Y011963D02*
X025122Y011963D01*
X025122Y011805D02*
X025122Y011805D01*
X025122Y011646D02*
X025122Y011646D01*
X025283Y012083D02*
X026047Y012083D01*
X025718Y011012D02*
X026480Y011012D01*
X026480Y010854D02*
X025874Y010854D01*
X025604Y006416D02*
X025447Y006416D01*
X025447Y006257D02*
X025631Y006257D01*
X025624Y006099D02*
X025447Y006099D01*
X025447Y005940D02*
X025660Y005940D01*
X016781Y018145D02*
X015947Y018145D01*
X016348Y018303D02*
X016781Y018303D01*
X016781Y018462D02*
X016467Y018462D01*
X016467Y018620D02*
X016781Y018620D01*
X016741Y018779D02*
X016467Y018779D01*
X016467Y018937D02*
X016582Y018937D01*
X017172Y019730D02*
X018732Y019730D01*
X018732Y019699D02*
X018364Y019699D01*
X018364Y019340D01*
X018376Y019294D01*
X018400Y019253D01*
X018433Y019219D01*
X018474Y019196D01*
X018520Y019183D01*
X018732Y019183D01*
X018732Y019699D01*
X018732Y019571D02*
X018788Y019571D01*
X018788Y019413D02*
X018732Y019413D01*
X018732Y019254D02*
X018788Y019254D01*
X019037Y019096D02*
X017806Y019096D01*
X017647Y019254D02*
X018399Y019254D01*
X018364Y019413D02*
X017489Y019413D01*
X017330Y019571D02*
X018364Y019571D01*
X018364Y019888D02*
X017013Y019888D01*
X016855Y020047D02*
X018364Y020047D01*
X018403Y020205D02*
X018083Y020205D01*
X018149Y020364D02*
X019131Y020364D01*
X019131Y020522D02*
X018126Y020522D01*
X017993Y020681D02*
X019052Y020681D01*
X018894Y020839D02*
X017761Y020839D01*
X017761Y020998D02*
X018735Y020998D01*
X018577Y021156D02*
X017761Y021156D01*
X017761Y021315D02*
X018418Y021315D01*
X018260Y021473D02*
X017761Y021473D01*
X017761Y021632D02*
X017850Y021632D01*
X018122Y021922D02*
X019351Y020693D01*
X019351Y019728D01*
X019351Y019024D01*
X019351Y019023D01*
X019043Y018937D02*
X017964Y018937D01*
X017907Y018683D02*
X016137Y020453D01*
X016379Y020522D02*
X017401Y020522D01*
X017321Y020681D02*
X015852Y020681D01*
X016538Y020364D02*
X017513Y020364D01*
X017579Y020205D02*
X016696Y020205D01*
X017541Y020693D02*
X017541Y024557D01*
X017767Y024783D01*
X018177Y024783D01*
X019817Y026423D01*
X019817Y027103D01*
X020647Y027933D01*
X020647Y028243D01*
X020067Y028823D01*
X019177Y028823D01*
X018787Y029213D01*
X018727Y029213D01*
X018723Y029218D01*
X018723Y030232D01*
X019317Y030813D02*
X019597Y031093D01*
X019597Y035097D01*
X019637Y035137D01*
X020120Y035137D01*
X020443Y035137D01*
X020577Y035003D01*
X020577Y034633D01*
X020120Y034389D02*
X019837Y034106D01*
X019837Y031267D01*
X020298Y030807D01*
X020298Y030232D01*
X020298Y029467D01*
X021191Y028573D01*
X021191Y027883D01*
X021531Y027643D02*
X021111Y027223D01*
X020671Y027223D01*
X020301Y026853D01*
X020301Y026083D01*
X019651Y025433D01*
X019651Y024933D01*
X019371Y024653D01*
X018841Y024653D01*
X018723Y024535D01*
X018723Y023933D01*
X018723Y023222D01*
X019122Y022823D01*
X019122Y021922D01*
X019941Y021103D01*
X019941Y019728D01*
X020531Y019727D02*
X020531Y019103D01*
X020291Y018863D01*
X020111Y018683D01*
X017907Y018683D01*
X018732Y019888D02*
X018788Y019888D01*
X018788Y020047D02*
X018732Y020047D01*
X018732Y020205D02*
X018788Y020205D01*
X017831Y020403D02*
X017541Y020693D01*
X017122Y021632D02*
X017122Y021632D01*
X017122Y021790D02*
X017122Y021790D01*
X017122Y021949D02*
X017122Y021949D01*
X017122Y022107D02*
X017122Y022107D01*
X017122Y022266D02*
X017122Y022266D01*
X017321Y022424D02*
X014813Y022424D01*
X014722Y022583D02*
X017321Y022583D01*
X017936Y022899D02*
X017936Y023933D01*
X018331Y024537D02*
X020057Y026263D01*
X020057Y026983D01*
X020867Y027793D01*
X020867Y028433D01*
X020107Y029193D01*
X019511Y029193D01*
X019511Y030231D01*
X019510Y030232D01*
X019511Y030233D01*
X019317Y030813D02*
X017148Y030813D01*
X017500Y031033D02*
X017495Y031045D01*
X017551Y031045D01*
X017667Y031094D01*
X017757Y031183D01*
X017805Y031300D01*
X017805Y031350D01*
X017993Y031538D01*
X018065Y031538D01*
X018123Y031597D01*
X018139Y031580D01*
X018139Y031510D01*
X018188Y031393D01*
X018277Y031304D01*
X018394Y031255D01*
X018521Y031255D01*
X018637Y031304D01*
X018727Y031393D01*
X018775Y031510D01*
X018775Y031637D01*
X018727Y031754D01*
X018637Y031843D01*
X018521Y031891D01*
X018450Y031891D01*
X018437Y031904D01*
X018437Y032223D01*
X018725Y032223D01*
X018725Y032596D01*
X018790Y032596D01*
X018790Y032223D01*
X019231Y032223D01*
X019277Y032236D01*
X019318Y032259D01*
X019351Y032293D01*
X019375Y032334D01*
X019377Y032342D01*
X019377Y031184D01*
X019226Y031033D01*
X017500Y031033D01*
X017716Y031142D02*
X019335Y031142D01*
X019377Y031300D02*
X018630Y031300D01*
X018754Y031459D02*
X019377Y031459D01*
X019377Y031617D02*
X018775Y031617D01*
X018705Y031776D02*
X019377Y031776D01*
X019377Y031934D02*
X018437Y031934D01*
X018437Y032093D02*
X019377Y032093D01*
X019377Y032251D02*
X019304Y032251D01*
X019225Y032356D02*
X019117Y032463D01*
X018922Y032463D01*
X018757Y032628D01*
X018942Y032813D01*
X019167Y032813D01*
X019357Y033003D01*
X019357Y034286D01*
X019254Y034389D01*
X019235Y034370D01*
X019347Y033995D02*
X019377Y033995D01*
X019377Y033836D02*
X019347Y033836D01*
X019347Y033678D02*
X019377Y033678D01*
X019377Y033519D02*
X019347Y033519D01*
X019377Y033361D02*
X018212Y033361D01*
X018212Y033246D02*
X017865Y033246D01*
X017865Y032898D01*
X018018Y032898D01*
X018075Y032914D01*
X018126Y032943D01*
X018168Y032985D01*
X018197Y033036D01*
X018212Y033093D01*
X018212Y033246D01*
X018212Y033202D02*
X019377Y033202D01*
X019377Y033044D02*
X018199Y033044D01*
X018130Y032885D02*
X014970Y032885D01*
X015129Y033044D02*
X016916Y033044D01*
X016757Y033202D02*
X015287Y033202D01*
X015446Y033361D02*
X016599Y033361D01*
X016440Y033519D02*
X015604Y033519D01*
X015871Y033678D02*
X016282Y033678D01*
X016123Y033836D02*
X016061Y033836D01*
X015777Y033983D02*
X015757Y033983D01*
X014277Y032503D01*
X014277Y031743D01*
X013447Y031743D01*
X013357Y031833D02*
X013047Y032143D01*
X008597Y032143D01*
X007527Y033213D01*
X004714Y033213D01*
X004211Y032710D01*
X003896Y032727D02*
X002037Y032727D01*
X002037Y032885D02*
X003896Y032885D01*
X003896Y032568D02*
X002037Y032568D01*
X002037Y032410D02*
X003840Y032410D01*
X003781Y032251D02*
X002037Y032251D01*
X002037Y032093D02*
X003781Y032093D01*
X003781Y032031D02*
X003781Y031802D01*
X003793Y031756D01*
X003817Y031715D01*
X003850Y031682D01*
X003891Y031658D01*
X003937Y031646D01*
X004141Y031646D01*
X004141Y032031D01*
X003781Y032031D01*
X003781Y031934D02*
X002037Y031934D01*
X002037Y031776D02*
X003788Y031776D01*
X004141Y031776D02*
X004181Y031776D01*
X004181Y031934D02*
X004141Y031934D01*
X004161Y032051D02*
X003275Y032051D01*
X002947Y031723D01*
X002307Y032363D01*
X002307Y033253D01*
X004347Y033253D01*
X005967Y034873D01*
X005402Y032885D02*
X005126Y032885D01*
X005126Y032727D02*
X005402Y032727D01*
X005402Y032568D02*
X005126Y032568D01*
X005125Y032410D02*
X005402Y032410D01*
X005402Y032251D02*
X005201Y032251D01*
X005201Y032093D02*
X005487Y032093D01*
X005437Y031934D02*
X005201Y031934D01*
X005201Y031776D02*
X005279Y031776D01*
X005120Y031617D02*
X002037Y031617D01*
X002037Y031459D02*
X004171Y031459D01*
X004171Y031300D02*
X002037Y031300D01*
X002037Y031142D02*
X004171Y031142D01*
X004171Y030983D02*
X002037Y030983D01*
X002037Y030825D02*
X005402Y030825D01*
X005402Y030983D02*
X004851Y030983D01*
X005065Y031251D02*
X005707Y031893D01*
X005707Y032478D01*
X005890Y032660D01*
X004861Y032660D02*
X004861Y032051D01*
X004861Y032660D02*
X004811Y032710D01*
X004392Y033202D02*
X002037Y033202D01*
X002037Y033044D02*
X004234Y033044D01*
X004551Y033361D02*
X002037Y033361D01*
X002037Y033519D02*
X008155Y033519D01*
X008077Y033361D02*
X007691Y033361D01*
X007849Y033202D02*
X008023Y033202D01*
X008008Y033044D02*
X008023Y033044D01*
X008314Y033678D02*
X002037Y033678D01*
X002037Y033836D02*
X014256Y033836D01*
X014209Y033995D02*
X002614Y033995D01*
X002715Y034153D02*
X014241Y034153D01*
X014417Y034312D02*
X009467Y034312D01*
X009438Y034284D02*
X009586Y034431D01*
X009666Y034623D01*
X009666Y034832D01*
X009586Y035024D01*
X009438Y035172D01*
X009246Y035252D01*
X008270Y035252D01*
X008077Y035172D01*
X007930Y035024D01*
X007850Y034832D01*
X007850Y034623D01*
X007930Y034431D01*
X008077Y034284D01*
X008270Y034204D01*
X009246Y034204D01*
X009438Y034284D01*
X009602Y034470D02*
X013637Y034470D01*
X013643Y034464D02*
X013704Y034420D01*
X013771Y034386D01*
X013843Y034362D01*
X013918Y034350D01*
X013936Y034350D01*
X013936Y035110D01*
X013976Y035110D01*
X013976Y034350D01*
X013993Y034350D01*
X014068Y034362D01*
X014140Y034386D01*
X014207Y034420D01*
X014268Y034464D01*
X014322Y034518D01*
X014366Y034579D01*
X014401Y034646D01*
X014424Y034718D01*
X014436Y034793D01*
X014436Y035110D01*
X013976Y035110D01*
X013976Y035150D01*
X014436Y035150D01*
X014436Y035468D01*
X014424Y035543D01*
X014401Y035615D01*
X014366Y035682D01*
X014322Y035743D01*
X014268Y035797D01*
X014207Y035841D01*
X014140Y035875D01*
X014068Y035899D01*
X013993Y035910D01*
X013976Y035910D01*
X013976Y035151D01*
X013936Y035151D01*
X013936Y035910D01*
X013918Y035910D01*
X013843Y035899D01*
X013771Y035875D01*
X013704Y035841D01*
X013643Y035797D01*
X013590Y035743D01*
X013545Y035682D01*
X013511Y035615D01*
X013488Y035543D01*
X013476Y035468D01*
X013476Y035150D01*
X013936Y035150D01*
X013936Y035110D01*
X013476Y035110D01*
X013476Y034793D01*
X013488Y034718D01*
X013511Y034646D01*
X013545Y034579D01*
X013590Y034518D01*
X013643Y034464D01*
X013520Y034629D02*
X009666Y034629D01*
X009666Y034787D02*
X013477Y034787D01*
X013476Y034946D02*
X009618Y034946D01*
X009506Y035104D02*
X013476Y035104D01*
X013476Y035263D02*
X003848Y035263D01*
X003848Y035104D02*
X008010Y035104D01*
X007897Y034946D02*
X003839Y034946D01*
X003773Y034787D02*
X007850Y034787D01*
X007850Y034629D02*
X003682Y034629D01*
X003524Y034470D02*
X007914Y034470D01*
X008049Y034312D02*
X002753Y034312D01*
X002238Y034946D02*
X002037Y034946D01*
X002037Y035104D02*
X002228Y035104D01*
X002228Y035263D02*
X002037Y035263D01*
X002037Y035421D02*
X002282Y035421D01*
X002348Y035580D02*
X002037Y035580D01*
X002037Y035738D02*
X002501Y035738D01*
X002772Y035897D02*
X002037Y035897D01*
X002037Y036055D02*
X021455Y036055D01*
X021659Y036055D02*
X026480Y036055D01*
X026480Y035897D02*
X025746Y035897D01*
X026017Y035738D02*
X026480Y035738D01*
X026480Y035580D02*
X026170Y035580D01*
X026235Y035421D02*
X026480Y035421D01*
X026480Y035263D02*
X026289Y035263D01*
X026289Y035104D02*
X026480Y035104D01*
X026480Y034946D02*
X026280Y034946D01*
X025765Y034312D02*
X024300Y034312D01*
X024267Y034470D02*
X024994Y034470D01*
X024836Y034629D02*
X024193Y034629D01*
X024047Y034463D02*
X023767Y034743D01*
X023611Y034743D01*
X023611Y035243D01*
X021564Y035243D01*
X021564Y035747D01*
X021557Y035753D01*
X021875Y035738D02*
X024942Y035738D01*
X024789Y035580D02*
X021830Y035580D01*
X021842Y035897D02*
X025213Y035897D01*
X024723Y035421D02*
X023985Y035421D01*
X023987Y035263D02*
X024669Y035263D01*
X024669Y035104D02*
X023987Y035104D01*
X023961Y034946D02*
X024679Y034946D01*
X024745Y034787D02*
X024034Y034787D01*
X024047Y034463D02*
X024047Y034253D01*
X025447Y032853D01*
X025447Y032303D01*
X025667Y032303D01*
X025957Y032013D01*
X025957Y031373D01*
X025837Y031253D01*
X024991Y031253D01*
X025243Y030983D02*
X026480Y030983D01*
X026480Y030825D02*
X022617Y030825D01*
X022639Y030983D02*
X024138Y030983D01*
X024076Y031142D02*
X022573Y031142D01*
X022321Y030943D02*
X021997Y030943D01*
X021873Y030819D01*
X021873Y030232D01*
X021873Y029462D01*
X022251Y029083D01*
X022251Y027093D01*
X021841Y026683D01*
X021591Y026313D02*
X022361Y026313D01*
X022660Y026612D01*
X022660Y030232D01*
X023036Y030508D02*
X026480Y030508D01*
X026480Y030666D02*
X023036Y030666D01*
X023195Y031663D02*
X021980Y031663D01*
X021980Y031743D01*
X021564Y031743D01*
X021564Y031743D01*
X021980Y031743D01*
X021980Y031885D01*
X021968Y031931D01*
X021944Y031972D01*
X021923Y031993D01*
X021944Y032015D01*
X021968Y032056D01*
X021980Y032102D01*
X021980Y032243D01*
X021564Y032243D01*
X021564Y032243D01*
X021564Y031743D01*
X022307Y031743D01*
X022547Y031983D01*
X022787Y031743D01*
X023611Y031743D01*
X023611Y031743D01*
X024027Y031743D01*
X024027Y031663D01*
X024102Y031663D01*
X024081Y031685D01*
X024051Y031736D01*
X024036Y031793D01*
X024036Y031946D01*
X024383Y031946D01*
X024383Y031961D01*
X024036Y031961D01*
X024036Y032114D01*
X024051Y032171D01*
X024081Y032222D01*
X024122Y032264D01*
X024173Y032293D01*
X024230Y032308D01*
X024383Y032308D01*
X024383Y031961D01*
X024398Y031961D01*
X024398Y032308D01*
X024425Y032308D01*
X024395Y032338D01*
X024184Y032338D01*
X024076Y032446D01*
X024076Y032861D01*
X024184Y032968D01*
X024365Y032968D01*
X023987Y033346D01*
X023987Y033067D01*
X023913Y032993D01*
X023987Y032919D01*
X023987Y032567D01*
X023913Y032493D01*
X023987Y032419D01*
X023987Y032067D01*
X023937Y032017D01*
X023958Y032005D01*
X023991Y031972D01*
X024015Y031931D01*
X024027Y031885D01*
X024027Y031743D01*
X023611Y031743D01*
X023195Y031743D01*
X023195Y031663D01*
X023195Y031743D02*
X023611Y031743D01*
X023611Y031743D01*
X024181Y031743D01*
X024391Y031953D01*
X024383Y032093D02*
X024398Y032093D01*
X024383Y032251D02*
X024398Y032251D01*
X024110Y032251D02*
X023987Y032251D01*
X023987Y032093D02*
X024036Y032093D01*
X024036Y031934D02*
X024013Y031934D01*
X024027Y031776D02*
X024040Y031776D01*
X024297Y031443D02*
X021207Y031443D01*
X021087Y031323D01*
X021087Y030234D01*
X021085Y030232D01*
X021085Y029459D01*
X021771Y028773D01*
X021771Y027503D01*
X021251Y026983D01*
X020771Y026983D01*
X020541Y026753D01*
X020541Y025993D01*
X019901Y025353D01*
X019901Y023413D01*
X020551Y022763D01*
X023761Y022763D01*
X024122Y022403D01*
X024122Y021922D01*
X023553Y021353D01*
X023141Y021353D01*
X022894Y021106D01*
X022894Y019728D01*
X022304Y019728D02*
X022304Y021104D01*
X023122Y021922D01*
X023233Y021133D02*
X023644Y021133D01*
X024038Y021527D01*
X024043Y021525D01*
X024173Y021525D01*
X024122Y021474D01*
X024062Y021330D01*
X024062Y021125D01*
X024013Y021138D01*
X023860Y021138D01*
X023860Y020791D01*
X023845Y020791D01*
X023845Y021138D01*
X023692Y021138D01*
X023635Y021123D01*
X023584Y021094D01*
X023542Y021052D01*
X023513Y021001D01*
X023497Y020944D01*
X023497Y020791D01*
X023845Y020791D01*
X023845Y020776D01*
X023497Y020776D01*
X023497Y020623D01*
X023513Y020566D01*
X023514Y020564D01*
X023114Y020564D01*
X023114Y021015D01*
X023233Y021133D01*
X023114Y020998D02*
X023512Y020998D01*
X023497Y020839D02*
X023114Y020839D01*
X023114Y020681D02*
X023497Y020681D01*
X023845Y020839D02*
X023860Y020839D01*
X023845Y020998D02*
X023860Y020998D01*
X023667Y021156D02*
X024062Y021156D01*
X024062Y021315D02*
X023826Y021315D01*
X023984Y021473D02*
X024122Y021473D01*
X024519Y021871D02*
X024519Y022001D01*
X024459Y022147D01*
X024347Y022259D01*
X024342Y022261D01*
X024342Y022494D01*
X024213Y022623D01*
X023853Y022983D01*
X023670Y022983D01*
X020643Y022983D01*
X020227Y023399D01*
X020592Y023399D01*
X020674Y023481D01*
X020674Y024384D01*
X020592Y024466D01*
X020521Y024466D01*
X020521Y025050D01*
X020602Y025084D01*
X020691Y025173D01*
X020738Y025286D01*
X020861Y025162D01*
X020861Y024466D01*
X020791Y024466D01*
X020709Y024384D01*
X020709Y023481D01*
X020791Y023399D01*
X021379Y023399D01*
X021461Y023481D01*
X021461Y024384D01*
X021379Y024466D01*
X021301Y024466D01*
X021301Y024935D01*
X021425Y024935D01*
X021542Y024984D01*
X021631Y025073D01*
X021653Y025125D01*
X021653Y024466D01*
X021578Y024466D01*
X021496Y024384D01*
X021496Y023481D01*
X021578Y023399D01*
X022167Y023399D01*
X022249Y023481D01*
X022249Y024384D01*
X022167Y024466D01*
X022093Y024466D01*
X022093Y025533D01*
X021951Y025674D01*
X021923Y025703D01*
X022230Y025703D01*
X022440Y025494D01*
X022440Y024466D01*
X022366Y024466D01*
X022284Y024384D01*
X022284Y023481D01*
X022366Y023399D01*
X022954Y023399D01*
X023036Y023481D01*
X023036Y023713D01*
X026480Y023713D01*
X026480Y020564D01*
X024842Y020564D01*
X024842Y021091D01*
X025329Y021578D01*
X025347Y021585D01*
X025459Y021697D01*
X025519Y021843D01*
X025519Y022001D01*
X025459Y022147D01*
X025347Y022259D01*
X025201Y022320D01*
X025043Y022320D01*
X024897Y022259D01*
X024785Y022147D01*
X024777Y022129D01*
X024519Y021871D01*
X024519Y021949D02*
X024597Y021949D01*
X024475Y022107D02*
X024755Y022107D01*
X024913Y022266D02*
X024342Y022266D01*
X024342Y022424D02*
X026480Y022424D01*
X026480Y022266D02*
X025331Y022266D01*
X025475Y022107D02*
X026480Y022107D01*
X026480Y021949D02*
X025519Y021949D01*
X025497Y021790D02*
X026480Y021790D01*
X026480Y021632D02*
X025394Y021632D01*
X025224Y021473D02*
X026480Y021473D01*
X026480Y021315D02*
X025066Y021315D01*
X024907Y021156D02*
X026480Y021156D01*
X026480Y020998D02*
X024842Y020998D01*
X024842Y020839D02*
X026480Y020839D01*
X026480Y020681D02*
X024842Y020681D01*
X023490Y019733D02*
X023485Y019728D01*
X022723Y019096D02*
X020751Y019096D01*
X020677Y018937D02*
X022723Y018937D01*
X022723Y018779D02*
X020601Y018779D01*
X020498Y018620D02*
X022723Y018620D01*
X021713Y019728D02*
X021713Y021513D01*
X022122Y021922D01*
X021122Y021922D02*
X021122Y021922D01*
X021122Y019728D01*
X020532Y019728D02*
X020531Y019727D01*
X020532Y019728D02*
X020532Y021512D01*
X020122Y021922D01*
X019641Y022583D02*
X019510Y022714D01*
X019510Y023933D01*
X020298Y023933D02*
X020301Y023936D01*
X020301Y025233D01*
X020421Y025353D01*
X020637Y025119D02*
X020861Y025119D01*
X020861Y024960D02*
X020521Y024960D01*
X020521Y024802D02*
X020861Y024802D01*
X020861Y024643D02*
X020521Y024643D01*
X020521Y024485D02*
X020861Y024485D01*
X020709Y024326D02*
X020674Y024326D01*
X020674Y024168D02*
X020709Y024168D01*
X020709Y024009D02*
X020674Y024009D01*
X020674Y023851D02*
X020709Y023851D01*
X020709Y023692D02*
X020674Y023692D01*
X020674Y023534D02*
X020709Y023534D01*
X020409Y023217D02*
X026480Y023217D01*
X026480Y023375D02*
X020250Y023375D01*
X020567Y023058D02*
X026480Y023058D01*
X026480Y022900D02*
X023936Y022900D01*
X024094Y022741D02*
X026480Y022741D01*
X026480Y022583D02*
X024253Y022583D01*
X023036Y023534D02*
X026480Y023534D01*
X026480Y023692D02*
X023036Y023692D01*
X022660Y023933D02*
X022660Y025585D01*
X022321Y025923D01*
X021361Y025923D01*
X021181Y025583D02*
X021001Y025763D01*
X021001Y026283D01*
X021101Y026383D01*
X020781Y026593D02*
X020901Y026713D01*
X021371Y026713D01*
X022011Y027353D01*
X022011Y028923D01*
X021481Y029453D01*
X021481Y031033D01*
X021511Y031063D01*
X021564Y031743D02*
X021147Y031743D01*
X021147Y031663D01*
X021116Y031663D01*
X020996Y031543D01*
X020867Y031414D01*
X020867Y031009D01*
X020599Y031276D01*
X020599Y031347D01*
X020551Y031464D01*
X020462Y031553D01*
X020440Y031562D01*
X020506Y031562D01*
X020506Y031909D01*
X020521Y031909D01*
X020521Y031924D01*
X020868Y031924D01*
X020868Y032078D01*
X020853Y032135D01*
X020823Y032186D01*
X020782Y032227D01*
X020759Y032240D01*
X020828Y032310D01*
X020828Y032521D01*
X020831Y032523D01*
X021231Y032523D01*
X021237Y032517D01*
X021217Y032505D01*
X021183Y032472D01*
X021160Y032431D01*
X021147Y032385D01*
X021147Y032243D01*
X021147Y032102D01*
X021160Y032056D01*
X021183Y032015D01*
X021205Y031993D01*
X021183Y031972D01*
X021160Y031931D01*
X021147Y031885D01*
X021147Y031743D01*
X021564Y031743D01*
X021564Y032243D01*
X021564Y032243D01*
X021980Y032243D01*
X021980Y032385D01*
X021968Y032431D01*
X021944Y032472D01*
X021910Y032505D01*
X021890Y032517D01*
X021940Y032567D01*
X021940Y032919D01*
X021866Y032993D01*
X021940Y033067D01*
X021940Y033419D01*
X021866Y033493D01*
X021886Y033513D01*
X022087Y033513D01*
X022058Y033484D01*
X022009Y033367D01*
X022009Y033240D01*
X022058Y033123D01*
X022147Y033034D01*
X022264Y032985D01*
X022391Y032985D01*
X022507Y033034D01*
X022597Y033123D01*
X022645Y033240D01*
X022645Y033310D01*
X022858Y033523D01*
X023279Y033523D01*
X023309Y033493D01*
X023279Y033463D01*
X023136Y033463D01*
X022856Y033183D01*
X022727Y033054D01*
X022727Y032943D01*
X022678Y032894D01*
X022629Y032777D01*
X022629Y032650D01*
X022678Y032533D01*
X022767Y032444D01*
X022884Y032395D01*
X023011Y032395D01*
X023127Y032444D01*
X023217Y032533D01*
X023235Y032576D01*
X023235Y032567D01*
X023309Y032493D01*
X023235Y032419D01*
X023235Y032067D01*
X023285Y032017D01*
X023264Y032005D01*
X023231Y031972D01*
X023207Y031931D01*
X023195Y031885D01*
X023195Y031743D01*
X023195Y031776D02*
X021980Y031776D01*
X021966Y031934D02*
X023209Y031934D01*
X023235Y032093D02*
X021978Y032093D01*
X021980Y032251D02*
X023235Y032251D01*
X023235Y032410D02*
X023046Y032410D01*
X022849Y032410D02*
X021973Y032410D01*
X021940Y032568D02*
X022663Y032568D01*
X022629Y032727D02*
X021940Y032727D01*
X021940Y032885D02*
X022674Y032885D01*
X022727Y033044D02*
X022518Y033044D01*
X022630Y033202D02*
X022875Y033202D01*
X023034Y033361D02*
X022696Y033361D01*
X022854Y033519D02*
X023283Y033519D01*
X023227Y033243D02*
X022947Y032963D01*
X022947Y032713D01*
X023232Y032568D02*
X023235Y032568D01*
X023227Y033243D02*
X023611Y033243D01*
X023964Y033044D02*
X024289Y033044D01*
X024131Y033202D02*
X023987Y033202D01*
X023987Y032885D02*
X024101Y032885D01*
X024076Y032727D02*
X023987Y032727D01*
X023987Y032568D02*
X024076Y032568D01*
X024112Y032410D02*
X023987Y032410D01*
X024391Y032653D02*
X024741Y032303D01*
X025447Y032303D01*
X025667Y032568D02*
X026480Y032568D01*
X026480Y032410D02*
X025872Y032410D01*
X026030Y032251D02*
X026480Y032251D01*
X026480Y032093D02*
X026177Y032093D01*
X026177Y031934D02*
X026480Y031934D01*
X026480Y031776D02*
X026177Y031776D01*
X026177Y031617D02*
X026480Y031617D01*
X026480Y031459D02*
X026177Y031459D01*
X026177Y031300D02*
X026480Y031300D01*
X026480Y031142D02*
X026037Y031142D01*
X025607Y031683D02*
X025337Y031953D01*
X024991Y031953D01*
X024991Y032653D02*
X024037Y033607D01*
X024037Y033913D01*
X023707Y034243D01*
X023611Y034243D01*
X023397Y034243D01*
X023407Y034233D01*
X023397Y034243D02*
X022947Y034243D01*
X022747Y034443D01*
X022247Y034593D02*
X022247Y033853D01*
X022127Y033733D01*
X021668Y033733D01*
X021564Y033743D01*
X020957Y033743D01*
X020897Y033803D01*
X020897Y034173D01*
X021407Y034243D02*
X021564Y034243D01*
X021407Y034243D02*
X020907Y034743D01*
X020907Y035263D01*
X020667Y035503D01*
X019067Y035503D01*
X018787Y035223D01*
X018407Y035293D02*
X018407Y034733D01*
X018707Y034433D01*
X018707Y033828D01*
X018757Y033778D01*
X018032Y033778D01*
X017857Y033953D01*
X017928Y034312D02*
X016270Y034312D01*
X016428Y034153D02*
X016913Y034153D01*
X016902Y033995D02*
X016587Y033995D01*
X016745Y033836D02*
X016902Y033836D01*
X016902Y033793D02*
X016918Y033736D01*
X016947Y033685D01*
X016989Y033643D01*
X017040Y033614D01*
X017097Y033598D01*
X017250Y033598D01*
X017250Y033946D01*
X016902Y033946D01*
X016902Y033793D01*
X016904Y033678D02*
X016954Y033678D01*
X017250Y033678D02*
X017265Y033678D01*
X017250Y033836D02*
X017265Y033836D01*
X017257Y033853D02*
X017857Y033253D01*
X017897Y033253D01*
X018377Y032773D01*
X018612Y032773D01*
X018757Y032628D01*
X018725Y032568D02*
X018790Y032568D01*
X018790Y032410D02*
X018725Y032410D01*
X018725Y032251D02*
X018790Y032251D01*
X018790Y032727D02*
X018725Y032727D01*
X018725Y032885D02*
X018790Y032885D01*
X019225Y032356D02*
X019225Y031573D01*
X018457Y031573D02*
X018217Y031813D01*
X018217Y032163D01*
X018187Y032193D01*
X017947Y032193D01*
X017857Y032283D01*
X017857Y032553D01*
X017850Y033044D02*
X017865Y033044D01*
X017850Y033202D02*
X017865Y033202D01*
X017850Y033361D02*
X017865Y033361D01*
X017850Y033519D02*
X017865Y033519D01*
X017610Y033678D02*
X017561Y033678D01*
X017545Y033519D02*
X017514Y033519D01*
X017257Y033253D02*
X017017Y033253D01*
X015947Y034323D01*
X015617Y034323D01*
X015307Y034013D01*
X014527Y034013D01*
X014527Y033135D01*
X013767Y032375D01*
X013406Y032727D02*
X009396Y032727D01*
X009462Y032885D02*
X013966Y032885D01*
X014125Y033044D02*
X009485Y033044D01*
X009485Y033202D02*
X014283Y033202D01*
X014307Y033361D02*
X009431Y033361D01*
X009353Y033519D02*
X014307Y033519D01*
X014307Y033678D02*
X009194Y033678D01*
X009270Y032568D02*
X013301Y032568D01*
X013263Y032410D02*
X009033Y032410D01*
X008527Y031776D02*
X013104Y031776D01*
X013227Y031652D02*
X013227Y031652D01*
X013262Y031617D02*
X008527Y031617D01*
X007590Y031300D02*
X006562Y031300D01*
X006404Y031142D02*
X007432Y031142D01*
X007371Y030983D02*
X006378Y030983D01*
X006378Y030825D02*
X007371Y030825D01*
X007371Y030666D02*
X006378Y030666D01*
X006190Y030508D02*
X007371Y030508D01*
X007371Y030349D02*
X006190Y030349D01*
X006190Y030191D02*
X007371Y030191D01*
X007265Y030032D02*
X006190Y030032D01*
X006190Y029874D02*
X007206Y029874D01*
X007206Y029715D02*
X006282Y029715D01*
X006441Y029557D02*
X007268Y029557D01*
X007421Y029398D02*
X006599Y029398D01*
X005590Y030032D02*
X002037Y030032D01*
X002037Y029874D02*
X002683Y029874D01*
X002647Y029857D02*
X002540Y029790D01*
X002441Y029711D01*
X002352Y029621D01*
X002273Y029523D01*
X002206Y029416D01*
X002151Y029302D01*
X002109Y029183D01*
X002081Y029059D01*
X002069Y028951D01*
X003112Y028951D01*
X003112Y029994D01*
X003003Y029981D01*
X002880Y029953D01*
X002761Y029912D01*
X002647Y029857D01*
X002447Y029715D02*
X002037Y029715D01*
X002037Y029557D02*
X002300Y029557D01*
X002198Y029398D02*
X002037Y029398D01*
X002037Y029240D02*
X002129Y029240D01*
X002086Y029081D02*
X002037Y029081D01*
X002037Y028923D02*
X003112Y028923D01*
X003112Y028951D02*
X003112Y028791D01*
X002069Y028791D01*
X002081Y028682D01*
X002109Y028559D01*
X002151Y028440D01*
X002206Y028326D01*
X002273Y028219D01*
X002352Y028120D01*
X002441Y028031D01*
X002540Y027952D01*
X002647Y027885D01*
X002761Y027830D01*
X002880Y027788D01*
X003003Y027760D01*
X003112Y027748D01*
X003112Y028791D01*
X003272Y028791D01*
X003272Y028951D01*
X003112Y028951D01*
X003192Y028871D02*
X003215Y028893D01*
X003227Y028893D01*
X003192Y028871D02*
X004161Y029839D01*
X004161Y032051D01*
X004511Y031251D02*
X005065Y031251D01*
X005267Y031142D02*
X005402Y031142D01*
X005402Y030666D02*
X002037Y030666D01*
X002037Y030508D02*
X005590Y030508D01*
X005590Y030349D02*
X002037Y030349D01*
X002037Y030191D02*
X005590Y030191D01*
X004972Y029874D02*
X003701Y029874D01*
X003737Y029857D02*
X003623Y029912D01*
X003504Y029953D01*
X003381Y029981D01*
X003272Y029994D01*
X003272Y028951D01*
X004315Y028951D01*
X004303Y029059D01*
X004275Y029183D01*
X004233Y029302D01*
X004178Y029416D01*
X004111Y029523D01*
X004032Y029621D01*
X003943Y029711D01*
X003844Y029790D01*
X003737Y029857D01*
X003937Y029715D02*
X004747Y029715D01*
X004595Y029557D02*
X004083Y029557D01*
X004186Y029398D02*
X004503Y029398D01*
X004433Y029240D02*
X004254Y029240D01*
X004298Y029081D02*
X004391Y029081D01*
X004375Y028923D02*
X003272Y028923D01*
X003272Y028791D02*
X004315Y028791D01*
X004303Y028682D01*
X004275Y028559D01*
X004233Y028440D01*
X004178Y028326D01*
X004111Y028219D01*
X004032Y028120D01*
X004011Y028099D01*
X004022Y028103D01*
X004145Y028131D01*
X004254Y028143D01*
X004254Y027100D01*
X004254Y026940D01*
X004414Y026940D01*
X004414Y027100D01*
X004254Y027100D01*
X003211Y027100D01*
X003223Y027209D01*
X003251Y027332D01*
X003293Y027451D01*
X003348Y027565D01*
X003415Y027672D01*
X003494Y027771D01*
X003514Y027792D01*
X003504Y027788D01*
X003381Y027760D01*
X003272Y027748D01*
X003272Y028791D01*
X003272Y028764D02*
X003112Y028764D01*
X003112Y028606D02*
X003272Y028606D01*
X003272Y028447D02*
X003112Y028447D01*
X003112Y028289D02*
X003272Y028289D01*
X003272Y028130D02*
X003112Y028130D01*
X003112Y027972D02*
X003272Y027972D01*
X003272Y027813D02*
X003112Y027813D01*
X003404Y027655D02*
X002037Y027655D01*
X002037Y027813D02*
X002808Y027813D01*
X002515Y027972D02*
X002037Y027972D01*
X002037Y028130D02*
X002344Y028130D01*
X002229Y028289D02*
X002037Y028289D01*
X002037Y028447D02*
X002148Y028447D01*
X002099Y028606D02*
X002037Y028606D01*
X002037Y028764D02*
X002072Y028764D01*
X003112Y029081D02*
X003272Y029081D01*
X003272Y029240D02*
X003112Y029240D01*
X003112Y029398D02*
X003272Y029398D01*
X003272Y029557D02*
X003112Y029557D01*
X003112Y029715D02*
X003272Y029715D01*
X003272Y029874D02*
X003112Y029874D01*
X004312Y028764D02*
X004375Y028764D01*
X004405Y028606D02*
X004285Y028606D01*
X004236Y028447D02*
X004448Y028447D01*
X004534Y028289D02*
X004155Y028289D01*
X004142Y028130D02*
X004040Y028130D01*
X004254Y028130D02*
X004414Y028130D01*
X004525Y028130D02*
X004643Y028130D01*
X004414Y027972D02*
X004254Y027972D01*
X004254Y027813D02*
X004414Y027813D01*
X004414Y027655D02*
X004254Y027655D01*
X004254Y027496D02*
X004414Y027496D01*
X004414Y027338D02*
X004254Y027338D01*
X004254Y027179D02*
X004414Y027179D01*
X004414Y027021D02*
X005752Y027021D01*
X005594Y027179D02*
X005448Y027179D01*
X005435Y027338D02*
X005414Y027338D01*
X005457Y026940D02*
X004414Y026940D01*
X004414Y025897D01*
X004522Y025910D01*
X004646Y025938D01*
X004765Y025979D01*
X004879Y026034D01*
X004986Y026101D01*
X005084Y026180D01*
X005174Y026270D01*
X005253Y026368D01*
X005320Y026475D01*
X005375Y026589D01*
X005416Y026708D01*
X005444Y026832D01*
X005457Y026940D01*
X005448Y026862D02*
X005911Y026862D01*
X006069Y026704D02*
X005415Y026704D01*
X005353Y026545D02*
X006217Y026545D01*
X006217Y026387D02*
X005264Y026387D01*
X005133Y026228D02*
X006217Y026228D01*
X006217Y026070D02*
X004935Y026070D01*
X004530Y025911D02*
X006217Y025911D01*
X006217Y025753D02*
X002037Y025753D01*
X002037Y025911D02*
X004137Y025911D01*
X004145Y025910D02*
X004254Y025897D01*
X004254Y026940D01*
X003211Y026940D01*
X003223Y026832D01*
X003251Y026708D01*
X003293Y026589D01*
X003348Y026475D01*
X003415Y026368D01*
X003494Y026270D01*
X003583Y026180D01*
X003682Y026101D01*
X003789Y026034D01*
X003903Y025979D01*
X004022Y025938D01*
X004145Y025910D01*
X004254Y025911D02*
X004414Y025911D01*
X004414Y026070D02*
X004254Y026070D01*
X004254Y026228D02*
X004414Y026228D01*
X004414Y026387D02*
X004254Y026387D01*
X004254Y026545D02*
X004414Y026545D01*
X004414Y026704D02*
X004254Y026704D01*
X004254Y026862D02*
X004414Y026862D01*
X004254Y027021D02*
X002037Y027021D01*
X002037Y027179D02*
X003220Y027179D01*
X003253Y027338D02*
X002037Y027338D01*
X002037Y027496D02*
X003314Y027496D01*
X003219Y026862D02*
X002037Y026862D01*
X002037Y026704D02*
X003253Y026704D01*
X003314Y026545D02*
X002037Y026545D01*
X002037Y026387D02*
X003403Y026387D01*
X003535Y026228D02*
X002037Y026228D01*
X002037Y026070D02*
X003732Y026070D01*
X003597Y025133D02*
X003195Y025133D01*
X003195Y024598D01*
X004142Y024598D01*
X004129Y024679D01*
X004100Y024768D01*
X004058Y024851D01*
X004003Y024927D01*
X003937Y024993D01*
X003861Y025047D01*
X003778Y025090D01*
X003689Y025119D01*
X003597Y025133D01*
X003688Y025119D02*
X006217Y025119D01*
X006217Y025277D02*
X002037Y025277D01*
X002037Y025119D02*
X002585Y025119D01*
X002584Y025119D02*
X002496Y025090D01*
X002412Y025047D01*
X002337Y024993D01*
X002271Y024927D01*
X002216Y024851D01*
X002174Y024768D01*
X002145Y024679D01*
X002132Y024598D01*
X003079Y024598D01*
X003079Y025133D01*
X002677Y025133D01*
X002584Y025119D01*
X002305Y024960D02*
X002037Y024960D01*
X002037Y024802D02*
X002191Y024802D01*
X002139Y024643D02*
X002037Y024643D01*
X002037Y024485D02*
X003079Y024485D01*
X003079Y024482D02*
X002132Y024482D01*
X002145Y024401D01*
X002174Y024312D01*
X002216Y024229D01*
X002271Y024153D01*
X002337Y024087D01*
X002412Y024032D01*
X002496Y023990D01*
X002584Y023961D01*
X002677Y023947D01*
X003079Y023947D01*
X003079Y024482D01*
X003195Y024482D01*
X003195Y024598D01*
X003079Y024598D01*
X003079Y024482D01*
X003137Y024534D02*
X003137Y024540D01*
X003137Y024534D02*
X003137Y024533D01*
X003195Y024485D02*
X004335Y024485D01*
X004335Y024643D02*
X004135Y024643D01*
X004142Y024482D02*
X003195Y024482D01*
X003195Y023947D01*
X003597Y023947D01*
X003689Y023961D01*
X003778Y023990D01*
X003861Y024032D01*
X003937Y024087D01*
X004003Y024153D01*
X004058Y024229D01*
X004100Y024312D01*
X004129Y024401D01*
X004142Y024482D01*
X004105Y024326D02*
X004378Y024326D01*
X004478Y024168D02*
X004013Y024168D01*
X003816Y024009D02*
X004724Y024009D01*
X004693Y023851D02*
X002037Y023851D01*
X002037Y024009D02*
X002458Y024009D01*
X002260Y024168D02*
X002037Y024168D01*
X002037Y024326D02*
X002169Y024326D01*
X002037Y023692D02*
X004496Y023692D01*
X004360Y023534D02*
X002037Y023534D01*
X002037Y023375D02*
X002458Y023375D01*
X002410Y023356D02*
X002254Y023200D01*
X002170Y022996D01*
X002170Y022776D01*
X002254Y022573D01*
X002410Y022417D01*
X002613Y022333D01*
X003660Y022333D01*
X003864Y022417D01*
X004019Y022573D01*
X004104Y022776D01*
X004104Y022996D01*
X004019Y023200D01*
X003864Y023356D01*
X003660Y023440D01*
X002613Y023440D01*
X002410Y023356D01*
X002271Y023217D02*
X002037Y023217D01*
X002037Y023058D02*
X002196Y023058D01*
X002170Y022900D02*
X002037Y022900D01*
X002037Y022741D02*
X002185Y022741D01*
X002250Y022583D02*
X002037Y022583D01*
X002037Y022424D02*
X002403Y022424D01*
X002037Y022266D02*
X004162Y022266D01*
X004162Y022424D02*
X003871Y022424D01*
X004023Y022583D02*
X004162Y022583D01*
X004157Y022741D02*
X004089Y022741D01*
X004104Y022900D02*
X004157Y022900D01*
X004167Y023058D02*
X004078Y023058D01*
X004002Y023217D02*
X004209Y023217D01*
X004268Y023375D02*
X003816Y023375D01*
X003195Y024009D02*
X003079Y024009D01*
X003079Y024168D02*
X003195Y024168D01*
X003195Y024326D02*
X003079Y024326D01*
X003079Y024643D02*
X003195Y024643D01*
X003195Y024802D02*
X003079Y024802D01*
X003079Y024960D02*
X003195Y024960D01*
X003195Y025119D02*
X003079Y025119D01*
X002037Y025436D02*
X006217Y025436D01*
X006217Y025594D02*
X002037Y025594D01*
X003969Y024960D02*
X004527Y024960D01*
X004398Y024802D02*
X004083Y024802D01*
X005302Y022886D02*
X005297Y022882D01*
X005297Y022873D01*
X004162Y022107D02*
X002037Y022107D01*
X002037Y021949D02*
X004162Y021949D01*
X004162Y021790D02*
X002037Y021790D01*
X002037Y021632D02*
X002340Y021632D01*
X002410Y021702D02*
X002254Y021546D01*
X002170Y021343D01*
X002170Y021123D01*
X002254Y020919D01*
X002410Y020764D01*
X002613Y020679D01*
X003660Y020679D01*
X003864Y020764D01*
X004019Y020919D01*
X004104Y021123D01*
X004104Y021343D01*
X004019Y021546D01*
X003864Y021702D01*
X003660Y021786D01*
X002613Y021786D01*
X002410Y021702D01*
X002224Y021473D02*
X002037Y021473D01*
X002037Y021315D02*
X002170Y021315D01*
X002170Y021156D02*
X002037Y021156D01*
X002037Y020998D02*
X002222Y020998D01*
X002334Y020839D02*
X002037Y020839D01*
X002037Y020681D02*
X002610Y020681D01*
X002037Y020522D02*
X004400Y020522D01*
X004305Y020681D02*
X003664Y020681D01*
X003939Y020839D02*
X004227Y020839D01*
X004185Y020998D02*
X004052Y020998D01*
X004104Y021156D02*
X004162Y021156D01*
X004162Y021315D02*
X004104Y021315D01*
X004050Y021473D02*
X004162Y021473D01*
X004162Y021632D02*
X003934Y021632D01*
X004559Y020364D02*
X002037Y020364D01*
X002037Y018462D02*
X002572Y018462D01*
X002318Y018303D02*
X002037Y018303D01*
X002037Y018145D02*
X002215Y018145D01*
X002170Y017986D02*
X002037Y017986D01*
X002037Y017828D02*
X002170Y017828D01*
X002231Y017669D02*
X002037Y017669D01*
X002037Y017511D02*
X002356Y017511D01*
X002330Y016718D02*
X002037Y016718D01*
X002037Y016560D02*
X002204Y016560D01*
X002143Y016401D02*
X002037Y016401D01*
X003079Y016560D02*
X003195Y016560D01*
X003195Y016718D02*
X003079Y016718D01*
X003079Y016084D02*
X003195Y016084D01*
X003195Y015926D02*
X003079Y015926D01*
X003079Y015767D02*
X003195Y015767D01*
X002426Y015133D02*
X002037Y015133D01*
X002037Y014975D02*
X002249Y014975D01*
X002164Y014816D02*
X002037Y014816D01*
X002037Y013548D02*
X002612Y013548D01*
X002309Y013390D02*
X002037Y013390D01*
X002037Y013231D02*
X002193Y013231D01*
X002140Y013073D02*
X002037Y013073D01*
X005994Y019096D02*
X006217Y019096D01*
X006217Y019254D02*
X006173Y019254D01*
X009797Y020364D02*
X010958Y020364D01*
X010728Y020522D02*
X009797Y020522D01*
X009797Y020681D02*
X010570Y020681D01*
X010411Y020839D02*
X009797Y020839D01*
X009797Y020998D02*
X010253Y020998D01*
X010094Y021156D02*
X009797Y021156D01*
X009797Y021315D02*
X009949Y021315D01*
X009858Y021473D02*
X009797Y021473D01*
X009797Y022424D02*
X009819Y022424D01*
X009797Y022583D02*
X009910Y022583D01*
X009797Y022741D02*
X010026Y022741D01*
X010188Y022900D02*
X009797Y022900D01*
X009797Y023058D02*
X010489Y023058D01*
X011270Y023058D02*
X011560Y023058D01*
X011572Y022900D02*
X011718Y022900D01*
X011734Y022741D02*
X012916Y022741D01*
X012758Y022583D02*
X011892Y022583D01*
X012207Y022900D02*
X013086Y022900D01*
X013410Y023058D02*
X012365Y023058D01*
X012427Y023217D02*
X016351Y023217D01*
X016361Y023375D02*
X014216Y023375D01*
X014469Y023534D02*
X016361Y023534D01*
X016361Y023692D02*
X014627Y023692D01*
X014786Y023851D02*
X016361Y023851D01*
X016361Y024009D02*
X014944Y024009D01*
X015103Y024168D02*
X016361Y024168D01*
X016361Y024326D02*
X015573Y024326D01*
X015257Y024633D02*
X014364Y023740D01*
X013728Y023740D01*
X014216Y024009D02*
X014322Y024009D01*
X014201Y024168D02*
X014481Y024168D01*
X014639Y024326D02*
X010034Y024326D01*
X009876Y024168D02*
X013255Y024168D01*
X013240Y024960D02*
X012310Y024960D01*
X012296Y025594D02*
X013240Y025594D01*
X013240Y025753D02*
X012263Y025753D01*
X012340Y025911D02*
X014642Y025911D01*
X014554Y025753D02*
X014216Y025753D01*
X014216Y025594D02*
X014527Y025594D01*
X014527Y025413D02*
X014527Y025185D01*
X014540Y025139D01*
X014563Y025098D01*
X014597Y025064D01*
X014638Y025041D01*
X014684Y025028D01*
X014887Y025028D01*
X014887Y025413D01*
X014527Y025413D01*
X014527Y025277D02*
X014216Y025277D01*
X014216Y025119D02*
X014551Y025119D01*
X014887Y025119D02*
X014927Y025119D01*
X014927Y025277D02*
X014887Y025277D01*
X014887Y025436D02*
X014216Y025436D01*
X014216Y024960D02*
X014961Y024960D01*
X014917Y024802D02*
X010510Y024802D01*
X010668Y024960D02*
X011615Y024960D01*
X011522Y025119D02*
X010827Y025119D01*
X010985Y025277D02*
X011498Y025277D01*
X011528Y025436D02*
X011144Y025436D01*
X011302Y025594D02*
X011629Y025594D01*
X011663Y025753D02*
X011461Y025753D01*
X011619Y025911D02*
X011663Y025911D01*
X010351Y024643D02*
X014917Y024643D01*
X014798Y024485D02*
X010193Y024485D01*
X009797Y024009D02*
X012267Y024009D01*
X012088Y023851D02*
X009797Y023851D01*
X009797Y023692D02*
X011696Y023692D01*
X011556Y023534D02*
X009797Y023534D01*
X009797Y023375D02*
X011498Y023375D01*
X011498Y023217D02*
X009797Y023217D01*
X009167Y024343D02*
X009167Y024345D01*
X009157Y024355D01*
X006217Y024802D02*
X006206Y024802D01*
X006217Y024960D02*
X006078Y024960D01*
X006721Y031459D02*
X007321Y031459D01*
X010527Y033633D02*
X010527Y033993D01*
X011567Y035033D01*
X013476Y035421D02*
X003795Y035421D01*
X003729Y035580D02*
X013500Y035580D01*
X013586Y035738D02*
X003576Y035738D01*
X003305Y035897D02*
X013838Y035897D01*
X013936Y035897D02*
X013976Y035897D01*
X014074Y035897D02*
X018071Y035897D01*
X017931Y035738D02*
X015270Y035738D01*
X015370Y035580D02*
X016961Y035580D01*
X016942Y035421D02*
X015396Y035421D01*
X015396Y035263D02*
X016942Y035263D01*
X017257Y035353D02*
X017257Y035023D01*
X015063Y035023D01*
X014956Y035130D01*
X015396Y034787D02*
X016942Y034787D01*
X016942Y034629D02*
X015348Y034629D01*
X015527Y034663D02*
X016547Y034663D01*
X017257Y033953D01*
X017257Y033853D01*
X017250Y033995D02*
X017265Y033995D01*
X017250Y034153D02*
X017265Y034153D01*
X016942Y034470D02*
X016111Y034470D01*
X015527Y034663D02*
X015187Y034323D01*
X014763Y034323D01*
X013956Y035130D01*
X013936Y035104D02*
X013976Y035104D01*
X013976Y034946D02*
X013936Y034946D01*
X013936Y034787D02*
X013976Y034787D01*
X013976Y034629D02*
X013936Y034629D01*
X013936Y034470D02*
X013976Y034470D01*
X014274Y034470D02*
X014694Y034470D01*
X014638Y034312D02*
X015295Y034312D01*
X015218Y034470D02*
X015453Y034470D01*
X014563Y034629D02*
X014392Y034629D01*
X014435Y034787D02*
X014516Y034787D01*
X014516Y034946D02*
X014436Y034946D01*
X014436Y035104D02*
X014516Y035104D01*
X014516Y035263D02*
X014436Y035263D01*
X014436Y035421D02*
X014516Y035421D01*
X014541Y035580D02*
X014412Y035580D01*
X014325Y035738D02*
X014641Y035738D01*
X013976Y035738D02*
X013936Y035738D01*
X013936Y035580D02*
X013976Y035580D01*
X013976Y035421D02*
X013936Y035421D01*
X013936Y035263D02*
X013976Y035263D01*
X014497Y032410D02*
X014641Y032410D01*
X014641Y032251D02*
X014497Y032251D01*
X014497Y032093D02*
X014641Y032093D01*
X014659Y031934D02*
X014497Y031934D01*
X014497Y031776D02*
X016063Y031776D01*
X015905Y031934D02*
X015631Y031934D01*
X015984Y031459D02*
X014497Y031459D01*
X014497Y031617D02*
X016222Y031617D01*
X016250Y031459D02*
X016265Y031459D01*
X016250Y031300D02*
X016265Y031300D01*
X016250Y031142D02*
X016265Y031142D01*
X016250Y030983D02*
X016265Y030983D01*
X016250Y030825D02*
X016265Y030825D01*
X016257Y030693D02*
X016257Y030683D01*
X015677Y030103D01*
X015147Y029573D01*
X015147Y028733D01*
X014497Y029874D02*
X016772Y029874D01*
X016772Y030032D02*
X014497Y030032D01*
X014497Y030191D02*
X016758Y030191D01*
X016758Y030349D02*
X014497Y030349D01*
X014497Y030508D02*
X016758Y030508D01*
X016758Y030666D02*
X014497Y030666D01*
X014497Y030825D02*
X016020Y030825D01*
X015905Y030983D02*
X014497Y030983D01*
X014497Y031142D02*
X015902Y031142D01*
X015902Y031300D02*
X014497Y031300D01*
X013272Y032251D02*
X013250Y032251D01*
X016185Y032727D02*
X016942Y032727D01*
X016942Y032568D02*
X016374Y032568D01*
X016532Y032410D02*
X016942Y032410D01*
X017037Y032251D02*
X016691Y032251D01*
X016849Y032093D02*
X016974Y032093D01*
X017217Y031853D02*
X017257Y031893D01*
X017257Y032553D01*
X017257Y031893D02*
X017257Y031853D01*
X017257Y031823D01*
X016967Y031533D01*
X016857Y031533D01*
X017487Y031363D02*
X017507Y031363D01*
X017927Y031783D01*
X017857Y031853D01*
X017914Y031459D02*
X018160Y031459D01*
X018285Y031300D02*
X017805Y031300D01*
X017936Y030232D02*
X017936Y029523D01*
X018876Y028583D01*
X019927Y028583D01*
X020307Y028203D01*
X020307Y027953D01*
X019577Y027223D01*
X019577Y026583D01*
X018017Y025023D01*
X017571Y025023D01*
X017161Y024613D01*
X016761Y024613D01*
X016581Y024433D01*
X017101Y023979D02*
X017148Y023933D01*
X017110Y023851D02*
X017186Y023851D01*
X017186Y023692D02*
X017110Y023692D01*
X017110Y023534D02*
X017186Y023534D01*
X017186Y023375D02*
X017110Y023375D01*
X016835Y023375D02*
X016801Y023375D01*
X016258Y023058D02*
X014107Y023058D01*
X014430Y022900D02*
X016262Y022900D01*
X016363Y022741D02*
X014601Y022741D01*
X013240Y023375D02*
X012461Y023375D01*
X015263Y025119D02*
X015299Y025119D01*
X016018Y026633D02*
X016018Y026633D01*
X016032Y026704D02*
X015948Y026704D01*
X015872Y026862D02*
X016032Y026862D01*
X016066Y027021D02*
X016070Y027021D01*
X017061Y027021D02*
X019357Y027021D01*
X019357Y027179D02*
X017097Y027179D01*
X017099Y027338D02*
X019381Y027338D01*
X019539Y027496D02*
X017099Y027496D01*
X017099Y027655D02*
X019698Y027655D01*
X019856Y027813D02*
X017056Y027813D01*
X017099Y027972D02*
X020015Y027972D01*
X020069Y028130D02*
X017099Y028130D01*
X017099Y028289D02*
X019911Y028289D01*
X020701Y029443D02*
X020701Y030863D01*
X020281Y031283D01*
X020057Y031509D02*
X020057Y033667D01*
X020134Y033635D01*
X020204Y033635D01*
X020816Y033023D01*
X021231Y033023D01*
X021261Y032993D01*
X021231Y032963D01*
X020648Y032963D01*
X020517Y032832D01*
X020306Y032832D01*
X020198Y032724D01*
X020198Y032310D01*
X020267Y032240D01*
X020244Y032227D01*
X020203Y032186D01*
X020173Y032135D01*
X020158Y032078D01*
X020158Y031924D01*
X020506Y031924D01*
X020506Y031909D01*
X020158Y031909D01*
X020158Y031756D01*
X020173Y031699D01*
X020203Y031648D01*
X020244Y031607D01*
X020254Y031601D01*
X020218Y031601D01*
X020101Y031553D01*
X020057Y031509D01*
X020057Y031617D02*
X020234Y031617D01*
X020158Y031776D02*
X020057Y031776D01*
X020057Y031934D02*
X020158Y031934D01*
X020224Y031917D02*
X020513Y031917D01*
X020839Y032243D01*
X021564Y032243D01*
X021564Y032041D01*
X021564Y031743D01*
X021564Y031743D01*
X021564Y031743D01*
X021564Y031776D02*
X021564Y031776D01*
X021564Y031934D02*
X021564Y031934D01*
X021564Y032093D02*
X021564Y032093D01*
X021564Y032243D02*
X021147Y032243D01*
X021564Y032243D01*
X021564Y032243D01*
X021564Y032743D02*
X020739Y032743D01*
X020513Y032517D01*
X020198Y032568D02*
X020057Y032568D01*
X020057Y032410D02*
X020198Y032410D01*
X020256Y032251D02*
X020057Y032251D01*
X020057Y032093D02*
X020162Y032093D01*
X020067Y032073D02*
X020224Y031917D01*
X020067Y032073D02*
X020067Y033423D01*
X020157Y033513D01*
X020057Y033519D02*
X020320Y033519D01*
X020479Y033361D02*
X020057Y033361D01*
X020057Y033202D02*
X020637Y033202D01*
X020796Y033044D02*
X020057Y033044D01*
X020057Y032885D02*
X020570Y032885D01*
X020201Y032727D02*
X020057Y032727D01*
X020828Y032410D02*
X021154Y032410D01*
X021147Y032251D02*
X020770Y032251D01*
X020864Y032093D02*
X021150Y032093D01*
X021162Y031934D02*
X020868Y031934D01*
X020868Y031909D02*
X020521Y031909D01*
X020521Y031562D01*
X020674Y031562D01*
X020731Y031577D01*
X020782Y031607D01*
X020823Y031648D01*
X020853Y031699D01*
X020868Y031756D01*
X020868Y031909D01*
X020868Y031776D02*
X021147Y031776D01*
X021070Y031617D02*
X020792Y031617D01*
X020912Y031459D02*
X020553Y031459D01*
X020521Y031617D02*
X020506Y031617D01*
X020506Y031776D02*
X020521Y031776D01*
X020599Y031300D02*
X020867Y031300D01*
X020867Y031142D02*
X020734Y031142D01*
X020298Y030407D02*
X020298Y030232D01*
X020701Y029443D02*
X021531Y028613D01*
X021531Y027643D01*
X020781Y026593D02*
X020781Y025553D01*
X021081Y025253D01*
X021081Y023936D01*
X021085Y023933D01*
X021071Y023919D01*
X021301Y024485D02*
X021653Y024485D01*
X021653Y024643D02*
X021301Y024643D01*
X021301Y024802D02*
X021653Y024802D01*
X021653Y024960D02*
X021485Y024960D01*
X021650Y025119D02*
X021653Y025119D01*
X021361Y025253D02*
X021081Y025253D01*
X020746Y025277D02*
X020734Y025277D01*
X021181Y025583D02*
X021731Y025583D01*
X021873Y025442D01*
X021873Y023933D01*
X022249Y024009D02*
X022284Y024009D01*
X022284Y023851D02*
X022249Y023851D01*
X022249Y023692D02*
X022284Y023692D01*
X022284Y023534D02*
X022249Y023534D01*
X022249Y024168D02*
X022284Y024168D01*
X022284Y024326D02*
X022249Y024326D01*
X022093Y024485D02*
X022440Y024485D01*
X022440Y024643D02*
X022093Y024643D01*
X022093Y024802D02*
X022440Y024802D01*
X022440Y024960D02*
X022093Y024960D01*
X022093Y025119D02*
X022440Y025119D01*
X022440Y025277D02*
X022093Y025277D01*
X022093Y025436D02*
X022440Y025436D01*
X022339Y025594D02*
X022031Y025594D01*
X021496Y024326D02*
X021461Y024326D01*
X021461Y024168D02*
X021496Y024168D01*
X021496Y024009D02*
X021461Y024009D01*
X021461Y023851D02*
X021496Y023851D01*
X021496Y023692D02*
X021461Y023692D01*
X021461Y023534D02*
X021496Y023534D01*
X019228Y026545D02*
X017099Y026545D01*
X017092Y026387D02*
X019070Y026387D01*
X018911Y026228D02*
X017066Y026228D01*
X017099Y026070D02*
X018753Y026070D01*
X018594Y025911D02*
X017099Y025911D01*
X017099Y025753D02*
X018436Y025753D01*
X018277Y025594D02*
X017087Y025594D01*
X017071Y025436D02*
X018119Y025436D01*
X017960Y025277D02*
X017099Y025277D01*
X017099Y025119D02*
X017356Y025119D01*
X017197Y024960D02*
X017099Y024960D01*
X018331Y024537D02*
X018331Y022893D01*
X018711Y022513D01*
X019357Y026704D02*
X017099Y026704D01*
X017099Y026862D02*
X019357Y026862D01*
X018700Y028447D02*
X017099Y028447D01*
X017051Y028606D02*
X018542Y028606D01*
X018383Y028764D02*
X017099Y028764D01*
X017099Y028923D02*
X018225Y028923D01*
X018066Y029081D02*
X017099Y029081D01*
X017099Y029240D02*
X017908Y029240D01*
X017936Y029523D02*
X017906Y029553D01*
X016177Y029553D01*
X017148Y030232D02*
X017148Y030281D01*
X017119Y030310D01*
X016634Y030825D02*
X016494Y030825D01*
X017936Y030232D02*
X017936Y029998D01*
X020907Y033243D02*
X020197Y033953D01*
X020907Y033243D02*
X021564Y033243D01*
X021940Y033202D02*
X022025Y033202D01*
X022009Y033361D02*
X021940Y033361D01*
X021917Y033044D02*
X022137Y033044D01*
X022327Y033303D02*
X022767Y033743D01*
X023611Y033743D01*
X024458Y034153D02*
X025803Y034153D01*
X025904Y033995D02*
X024617Y033995D01*
X024775Y033836D02*
X026480Y033836D01*
X026480Y033678D02*
X024934Y033678D01*
X025092Y033519D02*
X026480Y033519D01*
X026480Y033361D02*
X025251Y033361D01*
X025409Y033202D02*
X026480Y033202D01*
X026480Y033044D02*
X025568Y033044D01*
X025667Y032885D02*
X026480Y032885D01*
X026480Y032727D02*
X025667Y032727D01*
X024391Y031350D02*
X024297Y031443D01*
X024391Y031350D02*
X024391Y031253D01*
X024643Y030983D02*
X024738Y030983D01*
X022247Y034593D02*
X022104Y034737D01*
X021564Y034743D01*
X021407Y034743D01*
X021147Y035003D01*
X021147Y035593D01*
X020997Y035743D01*
X018857Y035743D01*
X018407Y035293D01*
X018287Y035663D02*
X018167Y035663D01*
X017857Y035353D01*
X017917Y035293D01*
X017561Y035580D02*
X017553Y035580D01*
X017257Y035023D02*
X017257Y034653D01*
X017857Y034653D02*
X017902Y034608D01*
X017942Y034608D01*
X018197Y034353D01*
X018337Y034353D01*
X018797Y034803D02*
X018837Y034763D01*
X019254Y034763D01*
X019254Y035137D02*
X019637Y035137D01*
X018700Y035897D02*
X018504Y035897D01*
X021155Y035897D02*
X021272Y035897D01*
X014927Y018303D02*
X014887Y018303D01*
X014887Y018145D02*
X014927Y018145D01*
X006630Y004355D02*
X003414Y004355D01*
X003621Y004197D02*
X006789Y004197D01*
X006947Y004038D02*
X003748Y004038D01*
X003813Y003880D02*
X007106Y003880D01*
X013528Y003880D02*
X014916Y003880D01*
X015145Y003721D02*
X013528Y003721D01*
D46*
X016947Y008573D03*
X016627Y009443D03*
X017161Y012683D03*
X018521Y015163D03*
X018111Y015473D03*
X017891Y015893D03*
X017441Y015933D03*
X017431Y016463D03*
X017021Y016563D03*
X017001Y017153D03*
X019351Y019023D03*
X020291Y018863D03*
X017831Y020403D03*
X018711Y022513D03*
X017936Y022899D03*
X016571Y022983D03*
X019641Y022583D03*
X020421Y025353D03*
X021361Y025253D03*
X021361Y025923D03*
X021591Y026313D03*
X021841Y026683D03*
X021101Y026383D03*
X021191Y027883D03*
X019511Y029193D03*
X018727Y029213D03*
X018457Y031573D03*
X019225Y031573D03*
X020281Y031283D03*
X021511Y031063D03*
X022321Y030943D03*
X022547Y031983D03*
X022947Y032713D03*
X022327Y033303D03*
X022747Y034443D03*
X021557Y035753D03*
X020577Y034633D03*
X020197Y033953D03*
X020157Y033513D03*
X020897Y034173D03*
X018797Y034803D03*
X018787Y035223D03*
X018287Y035663D03*
X018337Y034353D03*
X017487Y031363D03*
X016407Y030443D03*
X015777Y033983D03*
X014527Y034013D03*
X012697Y025833D03*
X020831Y015263D03*
X023401Y020903D03*
X025607Y031683D03*
X009937Y011693D03*
X010547Y010413D03*
X013557Y010223D03*
D47*
X012647Y010543D02*
X012387Y010543D01*
X012147Y010783D01*
X010917Y010783D01*
X010547Y010413D01*
X010157Y010893D02*
X009673Y010893D01*
X009070Y011496D01*
X009937Y011693D02*
X010407Y012163D01*
X012357Y012163D01*
X012472Y012048D01*
X012647Y011873D01*
X011847Y011523D02*
X010787Y011523D01*
X010157Y010893D01*
X009857Y009693D02*
X010777Y009693D01*
X011277Y010193D01*
X011847Y010193D01*
X010127Y008553D02*
X010027Y008653D01*
X010127Y008553D02*
X010127Y006753D01*
X009207Y005533D02*
X009257Y005483D01*
X009247Y005473D01*
X009357Y005363D01*
X009207Y005533D02*
X009207Y009043D01*
X009857Y009693D01*
X015107Y009163D02*
X015107Y007243D01*
X015377Y006973D01*
X017677Y006973D01*
X018267Y006383D01*
X018267Y005304D01*
X018177Y005214D01*
X018894Y005214D01*
X018177Y005214D02*
X016394Y005214D01*
X015107Y009163D02*
X016032Y010088D01*
X016032Y010323D01*
X016112Y010243D01*
X016467Y010243D01*
X016627Y010083D01*
X016627Y009443D01*
X020122Y011922D02*
X020532Y012332D01*
X020532Y012976D01*
X020831Y015263D02*
X020831Y016285D01*
X020898Y016352D01*
X020067Y017113D02*
X020067Y015503D01*
X021757Y015503D01*
X021757Y017233D01*
X019997Y017233D01*
X018760Y019728D02*
X017617Y019728D01*
X017122Y020223D01*
X017122Y020913D01*
X017122Y021922D01*
X017148Y021949D01*
X017148Y023933D01*
X017148Y030232D02*
X017148Y030813D01*
X017148Y030862D01*
X016857Y031153D01*
X016857Y031533D01*
X016016Y032375D01*
X015145Y032375D01*
X016257Y031153D02*
X016257Y030693D01*
X016257Y030593D01*
X016407Y030443D01*
X023401Y020903D02*
X023732Y020903D01*
X023852Y020783D01*
X024452Y020783D02*
X024452Y019994D01*
X024191Y019733D01*
X023490Y019733D01*
X023485Y019728D01*
X024452Y020783D02*
X024452Y021253D01*
X025122Y021922D01*
D48*
X013758Y021972D02*
X013160Y021373D01*
X011489Y021373D01*
X010880Y021983D01*
X007357Y021233D02*
X007357Y027028D01*
X005515Y028871D01*
X006851Y027534D01*
X008596Y027534D01*
X006857Y022873D02*
X005297Y022873D01*
X005302Y022886D02*
X005302Y021233D01*
X007357Y021233D01*
X007357Y014733D01*
X007357Y012713D01*
X007357Y010113D01*
X005267Y009673D02*
X005257Y009663D01*
X003137Y009663D01*
X003137Y012983D02*
X003077Y013043D01*
X003077Y016243D01*
X003097Y016263D01*
X005277Y016263D01*
X005267Y016273D01*
X005237Y016273D01*
X005247Y012983D02*
X003137Y012983D01*
X005247Y012983D02*
X005297Y012933D01*
X006857Y022853D02*
X006857Y022873D01*
X004427Y026813D02*
X004427Y026993D01*
X004017Y027403D01*
X004427Y026813D02*
X003227Y028013D01*
X003227Y028893D01*
X003227Y029003D01*
X003277Y029003D01*
X003277Y028923D01*
X003047Y028923D01*
X003047Y028863D01*
X003197Y028863D01*
X003137Y024633D02*
X003137Y024533D01*
D49*
X006827Y030603D03*
X008487Y029163D03*
X009257Y026163D03*
X010867Y024093D03*
X015147Y028733D03*
X015677Y030103D03*
X017787Y025903D03*
X019227Y027743D03*
X025347Y033993D03*
X024207Y035733D03*
X016327Y035893D03*
X011947Y030093D03*
X010527Y033633D03*
X011567Y035033D03*
X005967Y034873D03*
X002947Y031723D03*
X002307Y033253D03*
X019557Y016223D03*
X021787Y018113D03*
X025787Y023013D03*
X026127Y021193D03*
X026047Y012083D03*
X025277Y005023D03*
X024037Y003043D03*
X017727Y003613D03*
X012327Y003543D03*
X011697Y006393D03*
X008437Y003453D03*
X006977Y003663D03*
X003647Y005233D03*
X008177Y008533D03*
D50*
X019707Y015503D02*
X019707Y016073D01*
X019707Y015503D02*
X020067Y015503D01*
D51*
X015847Y011073D02*
X016032Y010888D01*
X016032Y010323D01*
X015847Y011073D02*
X014917Y011073D01*
X014587Y011403D01*
X014587Y012073D01*
X014957Y012443D01*
X014957Y011743D02*
X015287Y011413D01*
X015557Y019753D02*
X015617Y019753D01*
X013447Y031743D02*
X013357Y031833D01*
D52*
X012637Y028373D02*
X011867Y028373D01*
X011028Y027534D01*
X008596Y027534D01*
X007671Y029798D02*
X007671Y030957D01*
X008227Y031513D01*
X008227Y032013D01*
X007897Y032343D01*
X006207Y032343D01*
X005890Y032660D01*
X006604Y031766D02*
X005890Y031053D01*
X005890Y029246D01*
X005515Y028871D01*
X006604Y031766D02*
X007671Y031766D01*
X013157Y027153D02*
X011963Y025959D01*
X011963Y025270D01*
X013650Y025270D01*
X013728Y025348D01*
X013728Y023740D02*
X012401Y023740D01*
X011963Y023302D01*
X013157Y027153D02*
X013157Y027853D01*
X012637Y028373D01*
M02*
