%
M48
M72
T01C0.0236
T02C0.0315
T03C0.0394
T04C0.0400
T05C0.0433
T06C0.0450
T07C0.0512
T08C0.0551
T09C0.0591
T10C0.0787
T11C0.1181
T12C0.1260
%
T01
X2307Y33253
X2947Y31723
X5967Y34873
X6827Y30603
X8487Y29163
X9257Y26163
X9167Y24343
X10867Y24093
X10757Y25983
X12697Y25833
X15147Y28733
X15677Y30103
X16407Y30443
X17487Y31363
X18457Y31573
X19225Y31573
X20281Y31283
X21511Y31063
X22321Y30943
X22547Y31983
X22947Y32713
X22327Y33303
X22747Y34443
X21557Y35753
X20577Y34633
X20197Y33953
X20157Y33513
X20897Y34173
X18797Y34803
X18787Y35223
X18287Y35663
X18337Y34353
X16327Y35893
X15777Y33983
X14527Y34013
X11567Y35033
X10527Y33633
X11947Y30093
X16571Y22983
X17936Y22899
X18711Y22513
X19641Y22583
X17831Y20403
X19351Y19023
X20291Y18863
X21787Y18113
X23401Y20903
X25787Y23013
X26127Y21193
X21841Y26683
X21591Y26313
X21361Y25923
X21361Y25253
X20421Y25353
X21101Y26383
X21191Y27883
X19511Y29193
X18727Y29213
X19227Y27743
X17787Y25903
X17001Y17153
X17021Y16563
X17431Y16463
X17441Y15933
X17891Y15893
X18111Y15473
X18521Y15163
X19557Y16223
X20831Y15263
X17161Y12683
X16627Y9443
X16947Y8573
X13557Y10223
X10547Y10413
X9937Y11693
X10027Y8653
X11697Y6393
X12327Y3543
X8437Y3453
X6977Y3663
X3647Y5233
X8177Y8533
X10627Y16623
X10807Y17943
X9207Y19683
X9107Y21883
X17727Y3613
X24037Y3043
X25277Y5023
X26047Y12083
X25607Y31683
X25347Y33993
X24207Y35733
T02
X17122Y21922
X18122Y21922
X19122Y21922
X20122Y21922
X21122Y21922
X22122Y21922
X23122Y21922
X24122Y21922
X25122Y21922
X25122Y11922
X24122Y11922
X23122Y11922
X22122Y11922
X21122Y11922
X20122Y11922
X19122Y11922
X18122Y11922
X17122Y11922
T03
X13767Y32375
X15145Y32375
X9070Y11496
X9070Y10118
X8270Y7363
X8270Y6363
X8270Y5363
T04
X9561Y15614
X9561Y16614
X9561Y17614
X20007Y6253
X21007Y6253
X22007Y6253
X23007Y6253
X24007Y6253
X25007Y6253
X23007Y4453
X22007Y4453
X21007Y4453
X20007Y4453
X14956Y35130
X13956Y35130
T05
X7671Y31766
X7671Y29798
X11963Y25270
X11963Y23302
T06
X18195Y7653
X19895Y7653
X20951Y7653
X22651Y7653
X23707Y7653
X25407Y7653
X25407Y10553
X23707Y10553
X22651Y10553
X20951Y10553
X19895Y10553
X18195Y10553
T07
X8758Y34728
X13758Y21972
T08
X3137Y6351
X3137Y8005
X3137Y9658
X3137Y11312
X3137Y12965
X3137Y14619
X3137Y16272
X3137Y17926
X3137Y19579
X3137Y21233
X3137Y22886
X3137Y24540
X5302Y24540
X5302Y22886
X5302Y21233
X5302Y19579
X5302Y17926
X5302Y16272
X5302Y14619
X5302Y12965
X5302Y11312
X5302Y9658
X5302Y8005
X5302Y6351
T09
X8596Y27534
X12337Y27534
X11742Y16614
T10
X8754Y33085
X10880Y21983
T11
X3192Y28871
X4334Y27020
X5515Y28871
T12
X3038Y35130
X25479Y35130
X25479Y3634
X3038Y3634
M30
