0
SECTION
2
HEADER
9
$INSUNITS
70
4
9
$ACADVER
1
AC1014
9
$HANDSEED
5
FFFF
0
ENDSEC
0
SECTION
2
TABLES
0
TABLE
2
VPORT
5
8
100
AcDbSymbolTable
0
ENDTAB
0
TABLE
2
LTYPE
5
5
100
AcDbSymbolTable
0
LTYPE
5
14
100
AcDbSymbolTableRecord
100
AcDbLinetypeTableRecord
2
BYBLOCK
70
0
0
LTYPE
5
15
100
AcDbSymbolTableRecord
100
AcDbLinetypeTableRecord
2
BYLAYER
70
0
0
ENDTAB
0
TABLE
2
LAYER
5
2
100
AcDbSymbolTable
70
2
0
LAYER
5
50
100
AcDbSymbolTableRecord
100
AcDbLayerTableRecord
2
0
70
0
6
CONTINUOUS
0
ENDTAB
0
TABLE
2
STYLE
5
3
100
AcDbSymbolTable
70
1
0
STYLE
5
11
100
AcDbSymbolTableRecord
100
AcDbTextStyleTableRecord
2
STANDARD
70
0
0
ENDTAB
0
TABLE
2
VIEW
5
6
100
AcDbSymbolTable
70
0
0
ENDTAB
0
TABLE
2
UCS
5
7
100
AcDbSymbolTable
70
0
0
ENDTAB
0
TABLE
2
APPID
5
9
100
AcDbSymbolTable
70
2
0
APPID
5
12
100
AcDbSymbolTableRecord
100
AcDbRegAppTableRecord
2
ACAD
70
0
0
ENDTAB
0
TABLE
2
DIMSTYLE
5
A
100
AcDbSymbolTable
70
1
0
ENDTAB
0
TABLE
2
BLOCK_RECORD
5
1
100
AcDbSymbolTable
70
1
0
BLOCK_RECORD
5
1F
100
AcDbSymbolTableRecord
100
AcDbBlockTableRecord
2
*MODEL_SPACE
0
BLOCK_RECORD
5
1B
100
AcDbSymbolTableRecord
100
AcDbBlockTableRecord
2
*PAPER_SPACE
0
ENDTAB
0
ENDSEC
0
SECTION
2
BLOCKS
0
BLOCK
5
20
100
AcDbEntity
100
AcDbBlockBegin
2
*MODEL_SPACE
0
ENDBLK
5
21
100
AcDbEntity
100
AcDbBlockEnd
0
BLOCK
5
1C
100
AcDbEntity
100
AcDbBlockBegin
2
*PAPER_SPACE
0
ENDBLK
5
1D
100
AcDbEntity
100
AcDbBlockEnd
0
ENDSEC
0
SECTION
2
ENTITIES
0
LWPOLYLINE
5
100
100
AcDbEntity
8
0
100
AcDbPolyline
90
24
70
1
43
0.0
10
-27
20
6.9999999132156532
10
-47.000000000000036
20
6.9999999132156363
10
-46.999999999999972
20
16.999999913215635
10
-41.999999999999972
20
16.999999913215635
10
-41.999999999999972
20
26.999999913215635
10
-46.999999999999986
20
26.999999913215635
10
-46.999999999999993
20
36.999999913215639
10
-27.000000000000028
20
36.999999913215674
10
-27.000000000000028
20
41.999999913215674
10
-9.0000000000000249
20
41.999999913215674
10
-9.0000000000000249
20
36.999999913215682
10
8.9999999999999716
20
36.999999913215674
10
8.9999999999999716
20
41.999999913215674
10
26.999999999999975
20
41.999999913215674
10
26.999999999999975
20
36.999999913215682
10
46.999999999999943
20
36.999999913215717
10
46.999999999999957
20
26.999999913215721
10
41.999999999999957
20
26.999999913215721
10
41.999999999999957
20
16.999999913215721
10
46.999999999999964
20
16.999999913215721
10
46.999999999999986
20
6.9999999132157154
10
26.999999999999996
20
6.999999913215702
10
27
20
1.9999999132156683
10
-27
20
1.9999999132156669
0
LWPOLYLINE
5
101
100
AcDbEntity
8
0
100
AcDbPolyline
90
4
70
1
43
0.0
10
2.5005742670530839
20
27.99999985962204
10
2.5005742670530862
20
32.999999859622037
10
-2.4994257329469129
20
32.999999859622044
10
-2.4994257329469161
20
27.999999859622044
0
LWPOLYLINE
5
102
100
AcDbEntity
8
0
100
AcDbPolyline
90
4
70
1
43
0.0
10
7.5005742670530946
20
27.999999859622008
10
12.500574267053095
20
27.999999859622005
10
12.500574267053096
20
32.999999859622008
10
7.5005742670530982
20
32.999999859622008
0
LWPOLYLINE
5
103
100
AcDbEntity
8
0
100
AcDbPolyline
90
4
70
1
43
0.0
10
-7.4994257329469436
20
32.999999859622008
10
-12.499425732946944
20
32.999999859622008
10
-12.499425732946946
20
27.999999859622008
10
-7.4994257329469463
20
27.999999859622005
0
ENDSEC
0
SECTION
2
OBJECTS
0
DICTIONARY
5
C
100
AcDbDictionary
3
ACAD_GROUP
350
D
3
ACAD_MLINESTYLE
350
17
0
DICTIONARY
5
D
100
AcDbDictionary
0
DICTIONARY
5
1A
330
C
100
AcDbDictionary
0
DICTIONARY
5
17
100
AcDbDictionary
0
ENDSEC
0
EOF
