0
SECTION
2
HEADER
9
$INSUNITS
70
4
9
$ACADVER
1
AC1014
9
$HANDSEED
5
FFFF
0
ENDSEC
0
SECTION
2
TABLES
0
TABLE
2
VPORT
5
8
100
AcDbSymbolTable
0
ENDTAB
0
TABLE
2
LTYPE
5
5
100
AcDbSymbolTable
0
LTYPE
5
14
100
AcDbSymbolTableRecord
100
AcDbLinetypeTableRecord
2
BYBLOCK
70
0
0
LTYPE
5
15
100
AcDbSymbolTableRecord
100
AcDbLinetypeTableRecord
2
BYLAYER
70
0
0
ENDTAB
0
TABLE
2
LAYER
5
2
100
AcDbSymbolTable
70
2
0
LAYER
5
50
100
AcDbSymbolTableRecord
100
AcDbLayerTableRecord
2
0
70
0
6
CONTINUOUS
0
ENDTAB
0
TABLE
2
STYLE
5
3
100
AcDbSymbolTable
70
1
0
STYLE
5
11
100
AcDbSymbolTableRecord
100
AcDbTextStyleTableRecord
2
STANDARD
70
0
0
ENDTAB
0
TABLE
2
VIEW
5
6
100
AcDbSymbolTable
70
0
0
ENDTAB
0
TABLE
2
UCS
5
7
100
AcDbSymbolTable
70
0
0
ENDTAB
0
TABLE
2
APPID
5
9
100
AcDbSymbolTable
70
2
0
APPID
5
12
100
AcDbSymbolTableRecord
100
AcDbRegAppTableRecord
2
ACAD
70
0
0
ENDTAB
0
TABLE
2
DIMSTYLE
5
A
100
AcDbSymbolTable
70
1
0
ENDTAB
0
TABLE
2
BLOCK_RECORD
5
1
100
AcDbSymbolTable
70
1
0
BLOCK_RECORD
5
1F
100
AcDbSymbolTableRecord
100
AcDbBlockTableRecord
2
*MODEL_SPACE
0
BLOCK_RECORD
5
1B
100
AcDbSymbolTableRecord
100
AcDbBlockTableRecord
2
*PAPER_SPACE
0
ENDTAB
0
ENDSEC
0
SECTION
2
BLOCKS
0
BLOCK
5
20
100
AcDbEntity
100
AcDbBlockBegin
2
*MODEL_SPACE
0
ENDBLK
5
21
100
AcDbEntity
100
AcDbBlockEnd
0
BLOCK
5
1C
100
AcDbEntity
100
AcDbBlockBegin
2
*PAPER_SPACE
0
ENDBLK
5
1D
100
AcDbEntity
100
AcDbBlockEnd
0
ENDSEC
0
SECTION
2
ENTITIES
0
LWPOLYLINE
5
100
100
AcDbEntity
8
0
100
AcDbPolyline
90
32
70
1
43
0.0
10
25.500000000000107
20
44.999999999999993
10
39.999999999999993
20
44.999999999999993
42
-0.41421356237309603
10
44.999999999999993
20
39.999999999999993
10
45
20
-39.999999999999993
42
-0.41421356237309603
10
39.999999999999993
20
-45
10
25.50000000000011
20
-44.999999999999993
42
-0.41421356237309298
10
23.00000000000011
20
-42.500000000000007
42
0.41421356237309509
10
20.50000000000011
20
-40.000000000000007
10
15.50000000000011
20
-40.000000000000007
42
-0.41421356237309603
10
13.000000000000112
20
-37.5
42
0.41421356237309509
10
10.500000000000112
20
-35.000000000000007
10
-10.500000000000121
20
-35
42
0.41421356237309603
10
-13.000000000000115
20
-37.500000000000007
42
-0.41421356237309426
10
-15.500000000000117
20
-40.000000000000007
10
-20.500000000000114
20
-40.000000000000007
42
0.41421356237309298
10
-23.000000000000099
20
-42.499999999999986
42
-0.41421356237309448
10
-25.500000000000107
20
-45
10
-40
20
-45
42
-0.41421356237309342
10
-44.999999999999993
20
-40
10
-44.999999999999993
20
39.999999999999979
42
-0.41421356237309476
10
-39.999999999999993
20
44.999999999999986
10
-25.50000000000011
20
44.999999999999986
42
-0.41421356237309404
10
-23.00000000000011
20
42.499999999999993
42
0.41421356237309509
10
-20.50000000000011
20
39.999999999999993
10
-15.50000000000011
20
39.999999999999993
42
-0.41421356237309603
10
-13.000000000000112
20
37.499999999999986
42
0.41421356237309526
10
-10.50000000000011
20
34.999999999999986
10
10.500000000000114
20
34.999999999999986
42
0.41421356237309637
10
13.000000000000112
20
37.499999999999993
42
-0.41421356237309426
10
15.500000000000114
20
39.999999999999993
10
20.50000000000011
20
39.999999999999993
42
0.41421356237309404
10
23.000000000000099
20
42.499999999999986
42
-0.41421356237309448
0
CIRCLE
5
101
100
AcDbEntity
8
0
100
AcDbCircle
10
37.499708380248713
20
37.500291617483327
30
0
40
2.4999999999999996
0
CIRCLE
5
102
100
AcDbEntity
8
0
100
AcDbCircle
10
-37.499708380248762
20
-37.500291617483484
30
0
40
2.4999999999999996
0
CIRCLE
5
103
100
AcDbEntity
8
0
100
AcDbCircle
10
-37.500291617483427
20
37.499708380248684
30
0
40
2.4999999999999996
0
CIRCLE
5
104
100
AcDbEntity
8
0
100
AcDbCircle
10
37.50029161748337
20
-37.499708380248848
30
0
40
2.4999999999999996
0
CIRCLE
5
105
100
AcDbEntity
8
0
100
AcDbCircle
10
-39.999999999999972
20
2.6652291625535118e-14
30
0
40
1.6000000000000012
0
CIRCLE
5
106
100
AcDbEntity
8
0
100
AcDbCircle
10
40.000000000000007
20
-4.8842874048975505e-14
30
0
40
1.5999999999999968
0
LWPOLYLINE
5
107
100
AcDbEntity
8
0
100
AcDbPolyline
90
40
70
1
43
0.0
10
16.999999999999989
20
29.999999999999993
10
16.999999999999989
20
22.499999992928519
10
3.1748802868762267
20
22.499999992928522
10
3.1748438739651008
20
23.999999992928519
10
1.5871306336936462
20
26.749999992928505
10
-1.5882958468492967
20
26.749999992928508
10
-3.1760090871207596
20
23.999999992928519
10
-3.175972674209635
20
22.499999992928522
10
-17.000000000000046
20
22.499999992928508
10
-17.000000000000046
20
30.000000000000028
10
-20.00000000000005
20
30.000000000000036
10
-20.000000000000053
20
22.354101959178188
42
0.33167926656827196
10
-22.499999999999993
20
18.999999992928519
10
-22.499999999999996
20
3.1748802827935081
10
-23.999999999999989
20
3.1748438698823929
10
-26.749999992928526
20
1.5871306336936373
10
-26.749999992928529
20
-1.5882958468493034
10
-23.999999999999989
20
-3.1760090830380672
10
-22.499999999999993
20
-3.1759726701269542
10
-22.499999999999993
20
-18.999999992928526
42
0.41421357702955425
10
-18.99999982485901
20
-22.499999992928529
10
-3.1748802868762245
20
-22.499999992928537
10
-3.1748438739650968
20
-23.999999992928526
10
-1.5871306336936353
20
-26.749999992928515
10
1.588295846849304
20
-26.749999992928512
10
3.1760090871207733
20
-23.999999992928522
10
3.1759726742096461
20
-22.499999992928537
10
17.000000000000057
20
-22.500000004242882
10
17.000000000000053
20
-22.49952920382027
10
18.938702326439348
20
-22.499463179649606
42
0.41935279928821939
10
22.499999999999993
20
-18.999999992928526
10
22.499999999999996
20
-3.1748802827934948
10
23.999999999999989
20
-3.1748438698823782
10
26.749999992928501
20
-1.5871306336936388
10
26.749999992928508
20
1.5882958468493067
10
23.999999999999989
20
3.1760090830380614
10
22.499999999999993
20
3.1759726701269497
10
22.499999999999993
20
18.999999992928519
42
0.33167926656827723
10
20
20
22.354101959178188
10
19.999999999999993
20
29.999999999999982
0
ENDSEC
0
SECTION
2
OBJECTS
0
DICTIONARY
5
C
100
AcDbDictionary
3
ACAD_GROUP
350
D
3
ACAD_MLINESTYLE
350
17
0
DICTIONARY
5
D
100
AcDbDictionary
0
DICTIONARY
5
1A
330
C
100
AcDbDictionary
0
DICTIONARY
5
17
100
AcDbDictionary
0
ENDSEC
0
EOF
