0
SECTION
2
HEADER
9
$INSUNITS
70
4
9
$ACADVER
1
AC1014
9
$HANDSEED
5
FFFF
0
ENDSEC
0
SECTION
2
TABLES
0
TABLE
2
VPORT
5
8
100
AcDbSymbolTable
0
ENDTAB
0
TABLE
2
LTYPE
5
5
100
AcDbSymbolTable
0
LTYPE
5
14
100
AcDbSymbolTableRecord
100
AcDbLinetypeTableRecord
2
BYBLOCK
70
0
0
LTYPE
5
15
100
AcDbSymbolTableRecord
100
AcDbLinetypeTableRecord
2
BYLAYER
70
0
0
ENDTAB
0
TABLE
2
LAYER
5
2
100
AcDbSymbolTable
70
2
0
LAYER
5
50
100
AcDbSymbolTableRecord
100
AcDbLayerTableRecord
2
0
70
0
6
CONTINUOUS
0
ENDTAB
0
TABLE
2
STYLE
5
3
100
AcDbSymbolTable
70
1
0
STYLE
5
11
100
AcDbSymbolTableRecord
100
AcDbTextStyleTableRecord
2
STANDARD
70
0
0
ENDTAB
0
TABLE
2
VIEW
5
6
100
AcDbSymbolTable
70
0
0
ENDTAB
0
TABLE
2
UCS
5
7
100
AcDbSymbolTable
70
0
0
ENDTAB
0
TABLE
2
APPID
5
9
100
AcDbSymbolTable
70
2
0
APPID
5
12
100
AcDbSymbolTableRecord
100
AcDbRegAppTableRecord
2
ACAD
70
0
0
ENDTAB
0
TABLE
2
DIMSTYLE
5
A
100
AcDbSymbolTable
70
1
0
ENDTAB
0
TABLE
2
BLOCK_RECORD
5
1
100
AcDbSymbolTable
70
1
0
BLOCK_RECORD
5
1F
100
AcDbSymbolTableRecord
100
AcDbBlockTableRecord
2
*MODEL_SPACE
0
BLOCK_RECORD
5
1B
100
AcDbSymbolTableRecord
100
AcDbBlockTableRecord
2
*PAPER_SPACE
0
ENDTAB
0
ENDSEC
0
SECTION
2
BLOCKS
0
BLOCK
5
20
100
AcDbEntity
100
AcDbBlockBegin
2
*MODEL_SPACE
0
ENDBLK
5
21
100
AcDbEntity
100
AcDbBlockEnd
0
BLOCK
5
1C
100
AcDbEntity
100
AcDbBlockBegin
2
*PAPER_SPACE
0
ENDBLK
5
1D
100
AcDbEntity
100
AcDbBlockEnd
0
ENDSEC
0
SECTION
2
ENTITIES
0
LWPOLYLINE
5
100
100
AcDbEntity
8
0
100
AcDbPolyline
90
23
70
1
43
0.0
10
18.462832979153923
20
-71.040775827670018
42
-0.41421356237309409
10
16.462832979153934
20
-69.040775827670018
10
16.462832979153934
20
-66.680775827670033
42
0.41421356237309509
10
14.462832979153934
20
-64.680775827670033
10
-2.8075540409364526
20
-64.680775827670061
42
-0.0024436214492207509
10
-2.7846409453789334
20
-64.712455804905346
42
0.063053477919698259
10
-3.7895015266037446
20
-64.712455804905346
10
-8.9121670208460451
20
-64.71245580490536
42
0.4142135623730937
10
-10.912167020846042
20
-66.71245580490536
10
-10.912167020846116
20
-81.040775827669904
42
0.4142135623730977
10
-8.9121670208461108
20
-83.040775827669933
10
9.0878329791538626
20
-83.040775827669989
42
-0.41421356237308415
10
11.087832979153859
20
-85.040775827670018
10
11.087832979153852
20
-85.390775827669984
42
0.41421356237309637
10
13.087832979153838
20
-87.390775827670012
10
19.087832979153838
20
-87.390775827670026
42
0.41421356237309698
10
21.087832979153855
20
-85.390775827670041
10
21.087832979153845
20
-85.040775827670032
42
-0.41421356237308071
10
23.087832979153848
20
-83.040775827670046
10
41.087832979153838
20
-83.040775827670103
42
0.4142135623730977
10
43.087832979153845
20
-81.040775827670117
10
43.087832979153895
20
-73.040775827670117
42
0.41421356237309509
10
41.087832979153887
20
-71.040775827670103
0
CIRCLE
5
101
100
AcDbEntity
8
0
100
AcDbCircle
10
49.997032979153829
20
-79.863375827669955
30
0
40
1.6000000000000014
0
CIRCLE
5
102
100
AcDbEntity
8
0
100
AcDbCircle
10
-15.002967020846022
20
-72.363375827670055
30
0
40
2.5
0
CIRCLE
5
103
100
AcDbEntity
8
0
100
AcDbCircle
10
-23.00296702084621
20
-12.863375827669966
30
0
40
1.6000000000000014
0
CIRCLE
5
104
100
AcDbEntity
8
0
100
AcDbCircle
10
-22.002967020845972
20
-72.363375827670069
30
0
40
2.5
0
CIRCLE
5
105
100
AcDbEntity
8
0
100
AcDbCircle
10
-23.002967020846221
20
-79.863375827669955
30
0
40
1.6000000000000014
0
CIRCLE
5
106
100
AcDbEntity
8
0
100
AcDbCircle
10
49.997032979153893
20
-12.863375827670501
30
0
40
1.6000000000000014
0
LWPOLYLINE
5
107
100
AcDbEntity
8
0
100
AcDbPolyline
90
28
70
1
43
0.0
10
10.997032979154028
20
2.1366241723299844
10
32.997032979154028
20
2.1366241723299844
10
32.997032979154028
20
-2.8633758276700139
10
54.997032979154028
20
-2.8633758276700139
10
54.997032979154028
20
-42.863375827670524
10
59.997032979154028
20
-42.863375827670524
10
59.997032979154028
20
-72.863375827670524
10
54.997032979154028
20
-72.863375827670524
10
54.997032979154028
20
-92.863375827670012
10
32.997032979154028
20
-92.863375827670026
10
32.997032979154028
20
-97.863375827670026
10
10.997032979154026
20
-97.863375827670026
10
10.997032979154026
20
-92.863375827670026
10
-11.00296702084597
20
-92.863375827670026
10
-11.002967020845972
20
-97.863375827670026
10
-33.002967020845986
20
-97.863375827670026
10
-33.002967020845979
20
-92.863375827670026
10
-55.002967020845972
20
-92.863375827670012
10
-55.002967020845986
20
-62.863375827670012
10
-60.002967020845979
20
-62.863375827670012
10
-60.002967020845979
20
-32.863375827670012
10
-55.002967020845986
20
-32.863375827670012
10
-55.002967020845972
20
-2.8633758276700227
10
-33.002967020845979
20
-2.8633758276700223
10
-33.002967020845979
20
2.1366241723299844
10
-11.002967020845968
20
2.1366241723299839
10
-11.002967020845968
20
-2.8633758276700227
10
10.997032979154028
20
-2.8633758276700223
0
ENDSEC
0
SECTION
2
OBJECTS
0
DICTIONARY
5
C
100
AcDbDictionary
3
ACAD_GROUP
350
D
3
ACAD_MLINESTYLE
350
17
0
DICTIONARY
5
D
100
AcDbDictionary
0
DICTIONARY
5
1A
330
C
100
AcDbDictionary
0
DICTIONARY
5
17
100
AcDbDictionary
0
ENDSEC
0
EOF
