0
SECTION
2
HEADER
9
$INSUNITS
70
4
9
$ACADVER
1
AC1014
9
$HANDSEED
5
FFFF
0
ENDSEC
0
SECTION
2
TABLES
0
TABLE
2
VPORT
5
8
100
AcDbSymbolTable
0
ENDTAB
0
TABLE
2
LTYPE
5
5
100
AcDbSymbolTable
0
LTYPE
5
14
100
AcDbSymbolTableRecord
100
AcDbLinetypeTableRecord
2
BYBLOCK
70
0
0
LTYPE
5
15
100
AcDbSymbolTableRecord
100
AcDbLinetypeTableRecord
2
BYLAYER
70
0
0
ENDTAB
0
TABLE
2
LAYER
5
2
100
AcDbSymbolTable
70
2
0
LAYER
5
50
100
AcDbSymbolTableRecord
100
AcDbLayerTableRecord
2
0
70
0
6
CONTINUOUS
0
ENDTAB
0
TABLE
2
STYLE
5
3
100
AcDbSymbolTable
70
1
0
STYLE
5
11
100
AcDbSymbolTableRecord
100
AcDbTextStyleTableRecord
2
STANDARD
70
0
0
ENDTAB
0
TABLE
2
VIEW
5
6
100
AcDbSymbolTable
70
0
0
ENDTAB
0
TABLE
2
UCS
5
7
100
AcDbSymbolTable
70
0
0
ENDTAB
0
TABLE
2
APPID
5
9
100
AcDbSymbolTable
70
2
0
APPID
5
12
100
AcDbSymbolTableRecord
100
AcDbRegAppTableRecord
2
ACAD
70
0
0
ENDTAB
0
TABLE
2
DIMSTYLE
5
A
100
AcDbSymbolTable
70
1
0
ENDTAB
0
TABLE
2
BLOCK_RECORD
5
1
100
AcDbSymbolTable
70
1
0
BLOCK_RECORD
5
1F
100
AcDbSymbolTableRecord
100
AcDbBlockTableRecord
2
*MODEL_SPACE
0
BLOCK_RECORD
5
1B
100
AcDbSymbolTableRecord
100
AcDbBlockTableRecord
2
*PAPER_SPACE
0
ENDTAB
0
ENDSEC
0
SECTION
2
BLOCKS
0
BLOCK
5
20
100
AcDbEntity
100
AcDbBlockBegin
2
*MODEL_SPACE
0
ENDBLK
5
21
100
AcDbEntity
100
AcDbBlockEnd
0
BLOCK
5
1C
100
AcDbEntity
100
AcDbBlockBegin
2
*PAPER_SPACE
0
ENDBLK
5
1D
100
AcDbEntity
100
AcDbBlockEnd
0
ENDSEC
0
SECTION
2
ENTITIES
0
LWPOLYLINE
5
100
100
AcDbEntity
8
0
100
AcDbPolyline
90
22
70
1
43
0.0
10
43.090799999999817
20
-81.177399992549439
42
-0.4142135623730977
10
41.09079999999981
20
-83.177399992549425
10
23.09079999999982
20
-83.177399992549368
42
0.41421356237307289
10
21.090799999999817
20
-85.177399992549354
10
21.090799999999817
20
-85.527399992549363
42
-0.41421356237309698
10
19.090799999999813
20
-87.527399992549348
10
13.090799999999811
20
-87.527399992549306
42
-0.41421356237309637
10
11.090799999999826
20
-85.527399992549306
10
11.090799999999835
20
-85.177399992549354
42
0.41421356237308676
10
9.0907999999998363
20
-83.177399992549311
10
-8.909200000000137
20
-83.177399992549269
42
-0.4142135623730977
10
-10.909200000000141
20
-81.17739999254924
10
-10.909200000000103
20
-73.17739999254924
42
-0.41421356237309637
10
-8.9092000000000926
20
-71.17739999254924
10
-6.0342000000001095
20
-71.17739999254924
42
0.35495603545283355
10
-2.1191521075727375
20
-67.997399992549305
42
-0.35495603545283394
10
1.7958957848546242
20
-64.817399992549355
10
13.965799999999909
20
-64.817399992549355
42
-0.35495603545283771
10
17.88084789242728
20
-67.997399992549362
42
0.35495603545283777
10
21.795895784854636
20
-71.177399992549354
10
41.090799999999859
20
-71.177399992549425
42
-0.41421356237309509
10
43.090799999999867
20
-73.177399992549439
0
CIRCLE
5
101
100
AcDbEntity
8
0
100
AcDbCircle
10
49.999999999999801
20
-79.999999992549277
30
0
40
1.6000000000000014
0
CIRCLE
5
102
100
AcDbEntity
8
0
100
AcDbCircle
10
-15.000000000000046
20
-72.499999992549377
30
0
40
2.5
0
CIRCLE
5
103
100
AcDbEntity
8
0
100
AcDbCircle
10
-23.000000000000238
20
-12.999999992549288
30
0
40
1.6000000000000014
0
CIRCLE
5
104
100
AcDbEntity
8
0
100
AcDbCircle
10
-22
20
-72.499999992549391
30
0
40
2.5
0
CIRCLE
5
105
100
AcDbEntity
8
0
100
AcDbCircle
10
-23.000000000000249
20
-79.999999992549277
30
0
40
1.6000000000000014
0
CIRCLE
5
106
100
AcDbEntity
8
0
100
AcDbCircle
10
49.999999999999865
20
-12.999999992549823
30
0
40
1.6000000000000014
0
LWPOLYLINE
5
107
100
AcDbEntity
8
0
100
AcDbPolyline
90
28
70
1
43
0.0
10
11
20
2.0000000074506623
10
33
20
2.0000000074506623
10
33
20
-2.9999999925493359
10
55
20
-2.9999999925493359
10
55
20
-42.999999992549846
10
60
20
-42.999999992549846
10
60
20
-72.999999992549846
10
55
20
-72.999999992549846
10
55
20
-92.999999992549348
10
33
20
-92.999999992549363
10
33
20
-97.999999992549363
10
11
20
-97.999999992549363
10
11
20
-92.999999992549363
10
-10.999999999999996
20
-92.999999992549363
10
-10.999999999999996
20
-97.999999992549363
10
-33.000000000000007
20
-97.999999992549363
10
-33.000000000000007
20
-92.999999992549348
10
-55
20
-92.999999992549334
10
-55.000000000000014
20
-62.999999992549334
10
-60.000000000000007
20
-62.999999992549334
10
-60.000000000000007
20
-32.999999992549334
10
-55.000000000000014
20
-32.999999992549334
10
-55
20
-2.9999999925493448
10
-33.000000000000007
20
-2.9999999925493444
10
-33.000000000000007
20
2.0000000074506623
10
-10.999999999999996
20
2.0000000074506619
10
-10.999999999999996
20
-2.9999999925493448
10
11
20
-2.9999999925493444
0
ENDSEC
0
SECTION
2
OBJECTS
0
DICTIONARY
5
C
100
AcDbDictionary
3
ACAD_GROUP
350
D
3
ACAD_MLINESTYLE
350
17
0
DICTIONARY
5
D
100
AcDbDictionary
0
DICTIONARY
5
1A
330
C
100
AcDbDictionary
0
DICTIONARY
5
17
100
AcDbDictionary
0
ENDSEC
0
EOF
