0
SECTION
2
HEADER
9
$INSUNITS
70
4
9
$ACADVER
1
AC1014
9
$HANDSEED
5
FFFF
0
ENDSEC
0
SECTION
2
TABLES
0
TABLE
2
VPORT
5
8
100
AcDbSymbolTable
0
ENDTAB
0
TABLE
2
LTYPE
5
5
100
AcDbSymbolTable
0
LTYPE
5
14
100
AcDbSymbolTableRecord
100
AcDbLinetypeTableRecord
2
BYBLOCK
70
0
0
LTYPE
5
15
100
AcDbSymbolTableRecord
100
AcDbLinetypeTableRecord
2
BYLAYER
70
0
0
ENDTAB
0
TABLE
2
LAYER
5
2
100
AcDbSymbolTable
70
2
0
LAYER
5
50
100
AcDbSymbolTableRecord
100
AcDbLayerTableRecord
2
0
70
0
6
CONTINUOUS
0
ENDTAB
0
TABLE
2
STYLE
5
3
100
AcDbSymbolTable
70
1
0
STYLE
5
11
100
AcDbSymbolTableRecord
100
AcDbTextStyleTableRecord
2
STANDARD
70
0
0
ENDTAB
0
TABLE
2
VIEW
5
6
100
AcDbSymbolTable
70
0
0
ENDTAB
0
TABLE
2
UCS
5
7
100
AcDbSymbolTable
70
0
0
ENDTAB
0
TABLE
2
APPID
5
9
100
AcDbSymbolTable
70
2
0
APPID
5
12
100
AcDbSymbolTableRecord
100
AcDbRegAppTableRecord
2
ACAD
70
0
0
ENDTAB
0
TABLE
2
DIMSTYLE
5
A
100
AcDbSymbolTable
70
1
0
ENDTAB
0
TABLE
2
BLOCK_RECORD
5
1
100
AcDbSymbolTable
70
1
0
BLOCK_RECORD
5
1F
100
AcDbSymbolTableRecord
100
AcDbBlockTableRecord
2
*MODEL_SPACE
0
BLOCK_RECORD
5
1B
100
AcDbSymbolTableRecord
100
AcDbBlockTableRecord
2
*PAPER_SPACE
0
ENDTAB
0
ENDSEC
0
SECTION
2
BLOCKS
0
BLOCK
5
20
100
AcDbEntity
100
AcDbBlockBegin
2
*MODEL_SPACE
0
ENDBLK
5
21
100
AcDbEntity
100
AcDbBlockEnd
0
BLOCK
5
1C
100
AcDbEntity
100
AcDbBlockBegin
2
*PAPER_SPACE
0
ENDBLK
5
1D
100
AcDbEntity
100
AcDbBlockEnd
0
ENDSEC
0
SECTION
2
ENTITIES
0
LWPOLYLINE
5
100
100
AcDbEntity
8
0
100
AcDbPolyline
90
41
70
1
43
0.0
10
23.000000000000014
20
22.708203932499416
10
23.000000000000014
20
26.499999999999964
10
27.000000000000014
20
26.499999999999964
10
27.000000000000011
20
31.999999999999964
10
23.000000000000014
20
31.99999999999995
10
23.000000000000014
20
37.499804401395231
10
25.152681480296177
20
37.499804401395231
10
27.663316374414212
20
37.499784877451859
42
-0.26150191380186899
10
32.785644125856784
20
34.624089664215518
42
0.23741251607985522
10
37.000000000000057
20
32.000000000000007
10
47.000000000000028
20
31.999999999999972
42
-0.41421356237309392
10
53.000000000000014
20
25.999999999999972
10
52.999999999999964
20
-26.000000000000021
42
-0.41421356237309681
10
47.000000000000085
20
-31.999999999999922
10
27.000000000000011
20
-32.000000000000057
10
27.000000000000011
20
-26.500000000000057
10
9.0000000000000053
20
-26.500000000000057
10
9.0000000000000071
20
-32.000000000000057
10
-8.9999999999999964
20
-32.000000000000057
10
-8.9999999999999947
20
-26.500000000000057
10
-26.999999999999993
20
-26.500000000000057
10
-26.999999999999993
20
-32.000000000000057
10
-46.999999999999943
20
-32.000000000000043
42
-0.41421356237309453
10
-52.999999999999943
20
-26.00000000000005
10
-53.000000000000036
20
25.999999999999961
42
-0.4142135623730952
10
-47.000000000000021
20
31.999999999999979
10
-36.99999999999995
20
31.999999999999972
42
0.23744609092781349
10
-32.784574433853095
20
34.624456397899955
42
-0.26150937924683243
10
-27.662114631609111
20
37.500215115470354
10
-23.662114631609114
20
37.500184009484492
10
-23.662114631609114
20
31.999999999999883
10
-26.999999999999989
20
31.999999999999964
10
-26.999999999999989
20
26.499999999999964
10
-23.662114631609114
20
26.499999999999964
10
-23.662114631609114
20
22.474036274857639
42
0.30405012914746871
10
-28.000000000000025
20
15.999999999999968
10
-27.999999999999993
20
-16.00000000000006
42
0.41421356237309542
10
-20.999999999999979
20
-23.000000000000057
10
21.000000000000103
20
-23
42
0.41421356237309503
10
28.000000000000092
20
-15.999999999999986
10
28.000000000000057
20
16.000000000000043
42
0.33167926656827867
0
CIRCLE
5
101
100
AcDbEntity
8
0
100
AcDbCircle
10
-31.999999999999986
20
16.999999999999979
30
0
40
1.599999999999997
0
CIRCLE
5
102
100
AcDbEntity
8
0
100
AcDbCircle
10
32.000000000000014
20
17.000000000000071
30
0
40
1.6000000000000014
0
CIRCLE
5
103
100
AcDbEntity
8
0
100
AcDbCircle
10
32.000000000000057
20
-16.999999999999936
30
0
40
1.6000000000000014
0
CIRCLE
5
104
100
AcDbEntity
8
0
100
AcDbCircle
10
-31.999999999999929
20
-17.000000000000032
30
0
40
1.6000000000000014
0
LWPOLYLINE
5
105
100
AcDbEntity
8
0
100
AcDbPolyline
90
4
70
1
43
0.0
10
-46.999999999999964
20
9.9999999999999556
10
-46.999999999999964
20
-10.000000000000044
10
-41.499999999999972
20
-10.000000000000044
10
-41.499999999999972
20
9.9999999999999556
0
LWPOLYLINE
5
106
100
AcDbEntity
8
0
100
AcDbPolyline
90
4
70
1
43
0.0
10
41.499999999999979
20
-10.000000000000044
10
46.999999999999972
20
-10.000000000000044
10
46.999999999999972
20
9.9999999999999538
10
41.499999999999979
20
9.9999999999999556
0
ENDSEC
0
SECTION
2
OBJECTS
0
DICTIONARY
5
C
100
AcDbDictionary
3
ACAD_GROUP
350
D
3
ACAD_MLINESTYLE
350
17
0
DICTIONARY
5
D
100
AcDbDictionary
0
DICTIONARY
5
1A
330
C
100
AcDbDictionary
0
DICTIONARY
5
17
100
AcDbDictionary
0
ENDSEC
0
EOF
