0
SECTION
2
HEADER
9
$INSUNITS
70
4
9
$ACADVER
1
AC1014
9
$HANDSEED
5
FFFF
0
ENDSEC
0
SECTION
2
TABLES
0
TABLE
2
VPORT
5
8
100
AcDbSymbolTable
0
ENDTAB
0
TABLE
2
LTYPE
5
5
100
AcDbSymbolTable
0
LTYPE
5
14
100
AcDbSymbolTableRecord
100
AcDbLinetypeTableRecord
2
BYBLOCK
70
0
0
LTYPE
5
15
100
AcDbSymbolTableRecord
100
AcDbLinetypeTableRecord
2
BYLAYER
70
0
0
ENDTAB
0
TABLE
2
LAYER
5
2
100
AcDbSymbolTable
70
2
0
LAYER
5
50
100
AcDbSymbolTableRecord
100
AcDbLayerTableRecord
2
0
70
0
6
CONTINUOUS
0
ENDTAB
0
TABLE
2
STYLE
5
3
100
AcDbSymbolTable
70
1
0
STYLE
5
11
100
AcDbSymbolTableRecord
100
AcDbTextStyleTableRecord
2
STANDARD
70
0
0
ENDTAB
0
TABLE
2
VIEW
5
6
100
AcDbSymbolTable
70
0
0
ENDTAB
0
TABLE
2
UCS
5
7
100
AcDbSymbolTable
70
0
0
ENDTAB
0
TABLE
2
APPID
5
9
100
AcDbSymbolTable
70
2
0
APPID
5
12
100
AcDbSymbolTableRecord
100
AcDbRegAppTableRecord
2
ACAD
70
0
0
ENDTAB
0
TABLE
2
DIMSTYLE
5
A
100
AcDbSymbolTable
70
1
0
ENDTAB
0
TABLE
2
BLOCK_RECORD
5
1
100
AcDbSymbolTable
70
1
0
BLOCK_RECORD
5
1F
100
AcDbSymbolTableRecord
100
AcDbBlockTableRecord
2
*MODEL_SPACE
0
BLOCK_RECORD
5
1B
100
AcDbSymbolTableRecord
100
AcDbBlockTableRecord
2
*PAPER_SPACE
0
ENDTAB
0
ENDSEC
0
SECTION
2
BLOCKS
0
BLOCK
5
20
100
AcDbEntity
100
AcDbBlockBegin
2
*MODEL_SPACE
0
ENDBLK
5
21
100
AcDbEntity
100
AcDbBlockEnd
0
BLOCK
5
1C
100
AcDbEntity
100
AcDbBlockBegin
2
*PAPER_SPACE
0
ENDBLK
5
1D
100
AcDbEntity
100
AcDbBlockEnd
0
ENDSEC
0
SECTION
2
ENTITIES
0
CIRCLE
5
100
100
AcDbEntity
8
0
100
AcDbCircle
10
31.499999999999979
20
-48.000000000000007
30
0
40
3.0000000000000071
0
LWPOLYLINE
5
101
100
AcDbEntity
8
0
100
AcDbPolyline
90
4
70
1
43
0.0
10
-8.25
20
-50.000000000000007
10
-2.7499999999999991
20
-50.000000000000007
10
-2.7499999999999991
20
-42.000000053593631
10
-8.25
20
-42.000000053593631
0
LWPOLYLINE
5
102
100
AcDbEntity
8
0
100
AcDbPolyline
90
4
70
1
43
0.0
10
2.7500000000000013
20
-50.000000000000007
10
8.2500000000000018
20
-50.000000000000007
10
8.2500000000000018
20
-42.000000053593631
10
2.7500000000000013
20
-42.000000053593631
0
LWPOLYLINE
5
103
100
AcDbEntity
8
0
100
AcDbPolyline
90
4
70
1
43
0.0
10
55
20
31.704988841958546
10
55
20
6.7049888419585457
10
60.500000000000007
20
6.7049888419585457
10
60.500000000000007
20
31.704988841958546
0
LWPOLYLINE
5
104
100
AcDbEntity
8
0
100
AcDbPolyline
90
4
70
1
43
0.0
10
60.500000000000007
20
-13.295011158041454
10
55
20
-13.295011158041454
10
55
20
-33.295011158041454
10
60.500000000000007
20
-33.295011158041454
0
LWPOLYLINE
5
105
100
AcDbEntity
8
0
100
AcDbPolyline
90
4
70
1
43
0.0
10
-60.500000000000007
20
31.704988841958546
10
-60.500000000000007
20
6.7049888419585457
10
-55
20
6.7049888419585457
10
-55
20
31.704988841958546
0
LWPOLYLINE
5
106
100
AcDbEntity
8
0
100
AcDbPolyline
90
4
70
1
43
0.0
10
-55
20
-13.295011158041454
10
-60.500000000000007
20
-13.295011158041454
10
-60.500000000000007
20
-33.295011158041454
10
-55
20
-33.295011158041454
0
LWPOLYLINE
5
107
100
AcDbEntity
8
0
100
AcDbPolyline
90
4
70
1
43
0.0
10
-33
20
73.099999999999994
10
-11
20
73.099999999999994
10
-11
20
78.59999999999998
10
-33
20
78.59999999999998
0
LWPOLYLINE
5
108
100
AcDbEntity
8
0
100
AcDbPolyline
90
4
70
1
43
0.0
10
11
20
78.59999999999998
10
11
20
73.099999999999994
10
33
20
73.099999999999994
10
33
20
78.59999999999998
0
LWPOLYLINE
5
109
100
AcDbEntity
8
0
100
AcDbPolyline
90
4
70
1
43
0.0
10
-33
20
-60.5
10
-11
20
-60.5
10
-11
20
-55.000000000000007
10
-33
20
-55.000000000000007
0
LWPOLYLINE
5
110
100
AcDbEntity
8
0
100
AcDbPolyline
90
4
70
1
43
0.0
10
11
20
-55.000000000000007
10
11
20
-60.5
10
33
20
-60.5
10
33
20
-55.000000000000007
0
CIRCLE
5
111
100
AcDbEntity
8
0
100
AcDbCircle
10
50
20
-50
30
0
40
1.6000000000000014
0
CIRCLE
5
112
100
AcDbEntity
8
0
100
AcDbCircle
10
-50
20
48.409977683917091
30
0
40
1.6000000000000014
0
CIRCLE
5
113
100
AcDbEntity
8
0
100
AcDbCircle
10
-50.000000000000036
20
-49.999999999999929
30
0
40
1.6000000000000014
0
CIRCLE
5
114
100
AcDbEntity
8
0
100
AcDbCircle
10
50
20
48.409977683917091
30
0
40
1.6000000000000014
0
LWPOLYLINE
5
115
100
AcDbEntity
8
0
100
AcDbPolyline
90
8
70
1
43
0.0
10
-60.500000000000007
20
-66.500000000000028
42
-0.41421356237309509
10
-66.5
20
-60.500000000000028
10
-66.5
20
78.600000000000009
42
-0.41421356237309809
10
-60.500000000000007
20
84.600000000000009
10
60.500000000000007
20
84.600000000000009
42
-0.4142135623730942
10
66.5
20
78.600000000000009
10
66.5
20
-60.500000000000007
42
-0.41421356237309509
10
60.500000000000007
20
-66.5
0
CIRCLE
5
116
100
AcDbEntity
8
0
100
AcDbCircle
10
-0.00057426705310265145
20
48.10000000659565
30
0
40
5.0000000000000018
0
LWPOLYLINE
5
117
100
AcDbEntity
8
0
100
AcDbPolyline
90
4
70
1
43
0.0
10
27
20
26.499999999999964
10
27
20
33.499999999999964
10
-27
20
33.499999999999964
10
-27
20
26.499999999999964
0
CIRCLE
5
118
100
AcDbEntity
8
0
100
AcDbCircle
10
-37.499708380248777
20
-37.500291617483498
30
0
40
2.5
0
CIRCLE
5
119
100
AcDbEntity
8
0
100
AcDbCircle
10
-37.500291617483434
20
37.499708380248691
30
0
40
2.5
0
CIRCLE
5
120
100
AcDbEntity
8
0
100
AcDbCircle
10
37.500291617483377
20
-37.499708380248855
30
0
40
2.5
0
CIRCLE
5
121
100
AcDbEntity
8
0
100
AcDbCircle
10
37.49970838024872
20
37.500291617483335
30
0
40
2.5
0
LWPOLYLINE
5
122
100
AcDbEntity
8
0
100
AcDbPolyline
90
8
70
1
43
0.0
10
18.999999999999989
20
23.999999992928522
10
-18.999999999999993
20
23.999999992928522
42
0.41421356237309465
10
-23.999999999999993
20
18.999999992928526
10
-23.999999999999993
20
-18.999999992928529
42
0.41421356237309448
10
-18.999999999999993
20
-23.999999992928529
10
18.999999999999993
20
-23.999999992928526
42
0.41421356237309448
10
24
20
-18.999999992928529
10
23.999999999999993
20
18.999999992928526
42
0.41421356237309492
0
ENDSEC
0
SECTION
2
OBJECTS
0
DICTIONARY
5
C
100
AcDbDictionary
3
ACAD_GROUP
350
D
3
ACAD_MLINESTYLE
350
17
0
DICTIONARY
5
D
100
AcDbDictionary
0
DICTIONARY
5
1A
330
C
100
AcDbDictionary
0
DICTIONARY
5
17
100
AcDbDictionary
0
ENDSEC
0
EOF
