0
SECTION
2
HEADER
9
$INSUNITS
70
4
9
$ACADVER
1
AC1014
9
$HANDSEED
5
FFFF
0
ENDSEC
0
SECTION
2
TABLES
0
TABLE
2
VPORT
5
8
100
AcDbSymbolTable
0
ENDTAB
0
TABLE
2
LTYPE
5
5
100
AcDbSymbolTable
0
LTYPE
5
14
100
AcDbSymbolTableRecord
100
AcDbLinetypeTableRecord
2
BYBLOCK
70
0
0
LTYPE
5
15
100
AcDbSymbolTableRecord
100
AcDbLinetypeTableRecord
2
BYLAYER
70
0
0
ENDTAB
0
TABLE
2
LAYER
5
2
100
AcDbSymbolTable
70
2
0
LAYER
5
50
100
AcDbSymbolTableRecord
100
AcDbLayerTableRecord
2
0
70
0
6
CONTINUOUS
0
ENDTAB
0
TABLE
2
STYLE
5
3
100
AcDbSymbolTable
70
1
0
STYLE
5
11
100
AcDbSymbolTableRecord
100
AcDbTextStyleTableRecord
2
STANDARD
70
0
0
ENDTAB
0
TABLE
2
VIEW
5
6
100
AcDbSymbolTable
70
0
0
ENDTAB
0
TABLE
2
UCS
5
7
100
AcDbSymbolTable
70
0
0
ENDTAB
0
TABLE
2
APPID
5
9
100
AcDbSymbolTable
70
2
0
APPID
5
12
100
AcDbSymbolTableRecord
100
AcDbRegAppTableRecord
2
ACAD
70
0
0
ENDTAB
0
TABLE
2
DIMSTYLE
5
A
100
AcDbSymbolTable
70
1
0
ENDTAB
0
TABLE
2
BLOCK_RECORD
5
1
100
AcDbSymbolTable
70
1
0
BLOCK_RECORD
5
1F
100
AcDbSymbolTableRecord
100
AcDbBlockTableRecord
2
*MODEL_SPACE
0
BLOCK_RECORD
5
1B
100
AcDbSymbolTableRecord
100
AcDbBlockTableRecord
2
*PAPER_SPACE
0
ENDTAB
0
ENDSEC
0
SECTION
2
BLOCKS
0
BLOCK
5
20
100
AcDbEntity
100
AcDbBlockBegin
2
*MODEL_SPACE
0
ENDBLK
5
21
100
AcDbEntity
100
AcDbBlockEnd
0
BLOCK
5
1C
100
AcDbEntity
100
AcDbBlockBegin
2
*PAPER_SPACE
0
ENDBLK
5
1D
100
AcDbEntity
100
AcDbBlockEnd
0
ENDSEC
0
SECTION
2
ENTITIES
0
LWPOLYLINE
5
100
100
AcDbEntity
8
0
100
AcDbPolyline
90
34
70
1
43
0.0
10
18.999999906985053
20
22.499999992928522
42
-0.41421357015693677
10
22.499999999999996
20
18.999999992928526
10
22.499999999999996
20
3.1748802827935085
10
23.999999999999993
20
3.1748438698823929
10
26.749999992928529
20
1.5871306336936368
10
26.749999992928537
20
-1.588295846849304
10
23.999999999999993
20
-3.1760090830380685
10
22.499999999999996
20
-3.1759726701269519
10
22.499999999999996
20
-18.999999992928529
42
-0.41421357702955319
10
18.999999824859021
20
-22.499999992928522
10
3.1748802868762227
20
-22.499999992928533
10
3.1748438739650977
20
-23.999999992928529
10
1.5871306336936359
20
-26.749999992928515
10
-1.588295846849304
20
-26.749999992928515
10
-3.1760090871207747
20
-23.999999992928529
10
-3.1759726742096483
20
-22.499999992928544
10
-17.00000000000006
20
-22.500000004242885
10
-17.00000000000006
20
-22.499510242179955
10
-18.938702326439358
20
-22.499463179649606
42
-0.41935279928821956
10
-22.499999999999996
20
-18.999999992928544
10
-22.5
20
-3.1748802827934952
10
-23.999999999999993
20
-3.1748438698823795
10
-26.749999992928505
20
-1.5871306336936395
10
-26.749999992928512
20
1.5882958468493067
10
-23.999999999999993
20
3.176009083038065
10
-22.5
20
3.1759726701269497
10
-22.5
20
18.999999992928526
42
-0.41421356237309509
10
-18.999999999999993
20
22.499999992928529
10
-3.1748802868762271
20
22.499999992928522
10
-3.1748438739651013
20
23.999999992928522
10
-1.5871306336936462
20
26.749999992928508
10
1.5882958468492971
20
26.749999992928508
10
3.17600908712076
20
23.999999992928522
10
3.175972674209635
20
22.499999992928537
0
CIRCLE
5
101
100
AcDbEntity
8
0
100
AcDbCircle
10
46.5
20
38.5
30
0
40
2.5
0
CIRCLE
5
102
100
AcDbEntity
8
0
100
AcDbCircle
10
-46.499999999999993
20
-38.499999999999993
30
0
40
2.5
0
CIRCLE
5
103
100
AcDbEntity
8
0
100
AcDbCircle
10
-46.500000000000014
20
38.5
30
0
40
2.5
0
CIRCLE
5
104
100
AcDbEntity
8
0
100
AcDbCircle
10
46.5
20
-38.500000000000021
30
0
40
2.5
0
CIRCLE
5
105
100
AcDbEntity
8
0
100
AcDbCircle
10
39.999999999999986
20
2.6645352591003757e-14
30
0
40
1.6000000000000014
0
CIRCLE
5
106
100
AcDbEntity
8
0
100
AcDbCircle
10
-40.000000000000014
20
-4.8849813083506888e-14
30
0
40
1.599999999999997
0
LWPOLYLINE
5
107
100
AcDbEntity
8
0
100
AcDbPolyline
90
6
70
1
43
0.0
10
36.125000000000007
20
32.78410346561914
10
38.974999999999994
20
34.429551732809571
10
38.974999999999994
20
37.720448267190434
10
36.124999999999993
20
39.365896534380866
10
33.275000000000006
20
37.720448267190434
10
33.275000000000013
20
34.429551732809564
0
LWPOLYLINE
5
108
100
AcDbEntity
8
0
100
AcDbPolyline
90
6
70
1
43
0.0
10
36.125000000000014
20
-39.365896534380866
10
38.974999999999994
20
-37.720448267190449
10
38.974999999999994
20
-34.429551732809571
10
36.124999999999993
20
-32.78410346561914
10
33.275000000000006
20
-34.429551732809571
10
33.275000000000013
20
-37.720448267190442
0
LWPOLYLINE
5
109
100
AcDbEntity
8
0
100
AcDbPolyline
90
6
70
1
43
0.0
10
-36.124999999999993
20
32.784103465619133
10
-33.275000000000013
20
34.429551732809571
10
-33.275000000000013
20
37.720448267190434
10
-36.125000000000007
20
39.365896534380866
10
-38.974999999999994
20
37.720448267190434
10
-38.974999999999994
20
34.429551732809571
0
LWPOLYLINE
5
110
100
AcDbEntity
8
0
100
AcDbPolyline
90
6
70
1
43
0.0
10
-36.124999999999986
20
-39.365896534380873
10
-33.275000000000013
20
-37.720448267190449
10
-33.275000000000013
20
-34.429551732809571
10
-36.125000000000007
20
-32.78410346561914
10
-38.974999999999994
20
-34.429551732809578
10
-38.974999999999994
20
-37.720448267190434
0
LWPOLYLINE
5
111
100
AcDbEntity
8
0
100
AcDbPolyline
90
44
70
1
43
0.0
10
18.00000000000005
20
30.000000000000039
10
19.000000000000053
20
30.000000000000039
42
0.4142135623730937
10
20.000000000000053
20
31.000000000000036
10
20.000000000000053
20
40
10
20.500000000000114
20
40
42
0.41421356237309509
10
23.00000000000011
20
42.5
42
-0.41421356237309448
10
25.500000000000114
20
44.999999999999993
10
48
20
45
42
-0.41421356237309509
10
53
20
39.999999999999993
10
53
20
29.499999999999993
42
-0.3819660112501066
10
48.999999999999986
20
25.027864045000413
42
0.38196601125010532
10
44.999999999999986
20
20.555728090000827
10
44.999999999999993
20
-20.500000000000007
42
0.38196601125010571
10
49
20
-24.972135954999573
42
-0.38196601125010338
10
53
20
-29.444271909999166
10
53.000000000000007
20
-40.000000000000014
42
-0.41421356237309509
10
48.000000000000007
20
-45.000000000000014
10
25.500000000000114
20
-45
42
-0.41421356237309448
10
23.000000000000117
20
-42.5
42
0.41421356237309342
10
20.500000000000114
20
-40.000000000000014
10
-20.500000000000114
20
-40.000000000000014
42
0.41421356237309509
10
-23.000000000000099
20
-42.500000000000014
42
-0.41421356237309137
10
-25.500000000000114
20
-45.000000000000007
10
-48
20
-44.999999999999993
42
-0.41421356237309553
10
-53
20
-40
10
-53.000000000000007
20
-29.444271909999159
42
-0.38196601125010338
10
-49
20
-24.972135954999576
42
0.38196601125010526
10
-45
20
-20.5
10
-45
20
20.5
42
0.38196601125010526
10
-49
20
24.972135954999576
42
-0.3819660112501036
10
-53
20
29.444271909999156
10
-53.000000000000014
20
40
42
-0.41421356237309509
10
-48
20
45
10
-25.500000000000114
20
44.999999999999986
42
-0.41421356237309342
10
-23.000000000000114
20
42.499999999999993
42
0.41421356237309404
10
-20.500000000000114
20
40
10
-19.999999999999996
20
40
10
-19.999999999999996
20
30.999999999999996
42
0.41421356237309243
10
-18.999999999999993
20
29.999999999999996
10
-17.999999999999993
20
29.999999999999986
42
0.41421356237309243
10
-16.999999999999993
20
30.999999999999986
10
-16.999999999999993
20
40
10
17.00000000000005
20
40
10
17.00000000000005
20
31.000000000000043
42
0.41421356237309243
0
ENDSEC
0
SECTION
2
OBJECTS
0
DICTIONARY
5
C
100
AcDbDictionary
3
ACAD_GROUP
350
D
3
ACAD_MLINESTYLE
350
17
0
DICTIONARY
5
D
100
AcDbDictionary
0
DICTIONARY
5
1A
330
C
100
AcDbDictionary
0
DICTIONARY
5
17
100
AcDbDictionary
0
ENDSEC
0
EOF
