0
SECTION
2
HEADER
9
$INSUNITS
70
4
9
$ACADVER
1
AC1014
9
$HANDSEED
5
FFFF
0
ENDSEC
0
SECTION
2
TABLES
0
TABLE
2
VPORT
5
8
100
AcDbSymbolTable
0
ENDTAB
0
TABLE
2
LTYPE
5
5
100
AcDbSymbolTable
0
LTYPE
5
14
100
AcDbSymbolTableRecord
100
AcDbLinetypeTableRecord
2
BYBLOCK
70
0
0
LTYPE
5
15
100
AcDbSymbolTableRecord
100
AcDbLinetypeTableRecord
2
BYLAYER
70
0
0
ENDTAB
0
TABLE
2
LAYER
5
2
100
AcDbSymbolTable
70
2
0
LAYER
5
50
100
AcDbSymbolTableRecord
100
AcDbLayerTableRecord
2
0
70
0
6
CONTINUOUS
0
ENDTAB
0
TABLE
2
STYLE
5
3
100
AcDbSymbolTable
70
1
0
STYLE
5
11
100
AcDbSymbolTableRecord
100
AcDbTextStyleTableRecord
2
STANDARD
70
0
0
ENDTAB
0
TABLE
2
VIEW
5
6
100
AcDbSymbolTable
70
0
0
ENDTAB
0
TABLE
2
UCS
5
7
100
AcDbSymbolTable
70
0
0
ENDTAB
0
TABLE
2
APPID
5
9
100
AcDbSymbolTable
70
2
0
APPID
5
12
100
AcDbSymbolTableRecord
100
AcDbRegAppTableRecord
2
ACAD
70
0
0
ENDTAB
0
TABLE
2
DIMSTYLE
5
A
100
AcDbSymbolTable
70
1
0
ENDTAB
0
TABLE
2
BLOCK_RECORD
5
1
100
AcDbSymbolTable
70
1
0
BLOCK_RECORD
5
1F
100
AcDbSymbolTableRecord
100
AcDbBlockTableRecord
2
*MODEL_SPACE
0
BLOCK_RECORD
5
1B
100
AcDbSymbolTableRecord
100
AcDbBlockTableRecord
2
*PAPER_SPACE
0
ENDTAB
0
ENDSEC
0
SECTION
2
BLOCKS
0
BLOCK
5
20
100
AcDbEntity
100
AcDbBlockBegin
2
*MODEL_SPACE
0
ENDBLK
5
21
100
AcDbEntity
100
AcDbBlockEnd
0
BLOCK
5
1C
100
AcDbEntity
100
AcDbBlockBegin
2
*PAPER_SPACE
0
ENDBLK
5
1D
100
AcDbEntity
100
AcDbBlockEnd
0
ENDSEC
0
SECTION
2
ENTITIES
0
LWPOLYLINE
5
100
100
AcDbEntity
8
0
100
AcDbPolyline
90
8
70
1
43
0.0
10
-40
20
-54.499999999999922
10
-40
20
-58.499999999999915
42
0.4142135623730957
10
-37.999999999999993
20
-60.499999999999915
10
38
20
-60.499999999999908
42
0.41421356237309437
10
40
20
-58.499999999999908
10
40
20
-54.499999999999915
42
0.41421356237309509
10
38
20
-52.499999999999915
10
-38
20
-52.499999999999922
42
0.41421356237309509
0
LWPOLYLINE
5
101
100
AcDbEntity
8
0
100
AcDbPolyline
90
8
70
1
43
0.0
10
-40
20
-38.499999999999929
10
-40
20
-42.499999999999922
42
0.41421356237309509
10
-38
20
-44.499999999999922
10
38
20
-44.499999999999915
42
0.41421356237309509
10
40
20
-42.499999999999915
10
40
20
-38.499999999999922
42
0.41421356237309509
10
38
20
-36.499999999999922
10
-38
20
-36.499999999999929
42
0.41421356237309509
0
LWPOLYLINE
5
102
100
AcDbEntity
8
0
100
AcDbPolyline
90
8
70
1
43
0.0
10
-40
20
-70.499999999999915
10
-40
20
-74.499999999999915
42
0.4142135623730957
10
-37.999999999999993
20
-76.499999999999915
10
38
20
-76.499999999999901
42
0.41421356237309437
10
40
20
-74.499999999999901
10
40
20
-70.499999999999915
42
0.41421356237309509
10
38
20
-68.499999999999915
10
-38
20
-68.499999999999915
42
0.41421356237309509
0
LWPOLYLINE
5
103
100
AcDbEntity
8
0
100
AcDbPolyline
90
8
70
1
43
0.0
10
-40
20
-22.499999999999929
10
-40
20
-26.499999999999929
42
0.41421356237309509
10
-38
20
-28.499999999999929
10
38
20
-28.499999999999915
42
0.41421356237309509
10
40
20
-26.499999999999915
10
40
20
-22.499999999999922
42
0.41421356237309509
10
38
20
-20.499999999999918
10
-38
20
-20.499999999999929
42
0.41421356237309509
0
LWPOLYLINE
5
104
100
AcDbEntity
8
0
100
AcDbPolyline
90
28
70
1
43
0.0
10
33
20
-3.4999999999999165
10
55
20
-3.4999999999999165
10
55.000000000000007
20
-33.499999999999915
10
60.500000000000007
20
-33.499999999999915
10
60.500000000000007
20
-63.499999999999915
10
55.000000000000007
20
-63.499999999999915
10
55
20
-93.499999999999915
10
33
20
-93.499999999999929
10
33
20
-98.999999999999915
10
11
20
-98.999999999999915
10
11
20
-93.499999999999929
10
-11
20
-93.499999999999929
10
-11
20
-98.999999999999929
10
-33
20
-98.999999999999929
10
-33
20
-93.499999999999929
10
-55
20
-93.499999999999915
10
-55
20
-63.499999999999915
10
-60.5
20
-63.499999999999915
10
-60.5
20
-33.499999999999915
10
-55
20
-33.499999999999915
10
-55
20
-3.4999999999999254
10
-33
20
-3.4999999999999205
10
-33
20
2.0000000000000799
10
-11
20
2.0000000000000795
10
-11
20
-3.499999999999921
10
11
20
-3.4999999999999165
10
11
20
2.0000000000000835
10
33
20
2.0000000000000839
0
ENDSEC
0
SECTION
2
OBJECTS
0
DICTIONARY
5
C
100
AcDbDictionary
3
ACAD_GROUP
350
D
3
ACAD_MLINESTYLE
350
17
0
DICTIONARY
5
D
100
AcDbDictionary
0
DICTIONARY
5
1A
330
C
100
AcDbDictionary
0
DICTIONARY
5
17
100
AcDbDictionary
0
ENDSEC
0
EOF
