                                                                        S      1
,,5Ha1003,5Ha1003,7Hunknown,7Hunknown,32,38,7,99,15,,1.,2,2HMM,1,0.08,  G      1
15H20180820.143403,0.01,10000.,12Hhisashin0829,7Hunknown,11,0,15H2018052G      2
0.041505;                                                               G      3
     408       1                                                00000001D      1
     408       0               1       0                               0D      2
     308       2                                                00010200D      3
     308       0               1       0                               0D      4
     186       3                                                00010000D      5
     186            -157       1       0                               0D      6
     514       4                                                00010000D      7
     514                       1       1                               0D      8
     510       5                                                00010000D      9
     510            -157       1       1                               0D     10
     510       6                                                00010000D     11
     510            -157       1       1                               0D     12
     510       7                                                00010000D     13
     510            -157       1       1                               0D     14
     510       8                                                00010000D     15
     510            -157       1       1                               0D     16
     510       9                                                00010000D     17
     510            -157       1       1                               0D     18
     510      10                                                00010000D     19
     510            -157       1       1                               0D     20
     510      11                                                00010000D     21
     510            -157       1       1                               0D     22
     510      12                                                00010000D     23
     510            -157       1       1                               0D     24
     510      13                                                00010000D     25
     510            -157       1       1                               0D     26
     510      14                                                00010000D     27
     510            -157       1       1                               0D     28
     508      15                                                00010000D     29
     508                       2       1                               0D     30
     508      17                                                00010000D     31
     508                       2       1                               0D     32
     508      19                                                00010000D     33
     508                       2       1                               0D     34
     508      21                                                00010000D     35
     508                       2       1                               0D     36
     508      23                                                00010000D     37
     508                       1       1                               0D     38
     508      24                                                00010000D     39
     508                       1       1                               0D     40
     508      25                                                00010000D     41
     508                       1       1                               0D     42
     508      26                                                00010000D     43
     508                       1       1                               0D     44
     508      27                                                00010000D     45
     508                       1       1                               0D     46
     508      28                                                00010000D     47
     508                       1       1                               0D     48
     508      29                                                00010000D     49
     508                       1       1                               0D     50
     508      30                                                00010000D     51
     508                       1       1                               0D     52
     508      31                                                00010000D     53
     508                       1       1                               0D     54
     508      32                                                00010000D     55
     508                       1       1                               0D     56
     508      33                                                00010000D     57
     508                       1       1                               0D     58
     508      34                                                00010000D     59
     508                       1       1                               0D     60
     508      35                                                00010000D     61
     508                       1       1                               0D     62
     508      36                                                00010000D     63
     508                       1       1                               0D     64
     126      37                                                00010000D     65
     126       0              10       0                               0D     66
     126      47                                                00010000D     67
     126       0              10       0                               0D     68
     126      57                                                00010000D     69
     126       0               5       0                               0D     70
     126      62                                                00010000D     71
     126       0              10       0                               0D     72
     126      72                                                00010000D     73
     126       0              10       0                               0D     74
     126      82                                                00010000D     75
     126       0              10       0                               0D     76
     126      92                                                00010000D     77
     126       0              10       0                               0D     78
     126     102                                                00010000D     79
     126       0               5       0                               0D     80
     126     107                                                00010000D     81
     126       0              10       0                               0D     82
     126     117                                                00010000D     83
     126       0               9       0                               0D     84
     126     126                                                00010000D     85
     126       0              10       0                               0D     86
     126     136                                                00010000D     87
     126       0               9       0                               0D     88
     126     145                                                00010000D     89
     126       0               5       0                               0D     90
     126     150                                                00010000D     91
     126       0              10       0                               0D     92
     126     160                                                00010000D     93
     126       0              10       0                               0D     94
     126     170                                                00010000D     95
     126       0              10       0                               0D     96
     126     180                                                00010000D     97
     126       0               9       0                               0D     98
     126     189                                                00010000D     99
     126       0               5       0                               0D    100
     126     194                                                00010000D    101
     126       0              10       0                               0D    102
     126     204                                                00010000D    103
     126       0              10       0                               0D    104
     126     214                                                00010000D    105
     126       0               4       0                               0D    106
     126     218                                                00010000D    107
     126       0               5       0                               0D    108
     126     223                                                00010000D    109
     126       0               3       0                               0D    110
     126     226                                                00010000D    111
     126       0               4       0                               0D    112
     126     230                                                00010000D    113
     126       0               5       0                               0D    114
     126     235                                                00010000D    115
     126       0               5       0                               0D    116
     126     240                                                00010000D    117
     126       0               4       0                               0D    118
     126     244                                                00010000D    119
     126       0               4       0                               0D    120
     126     248                                                00010000D    121
     126       0               4       0                               0D    122
     126     252                                                00010000D    123
     126       0               4       0                               0D    124
     126     256                                                00010000D    125
     126       0               3       0                               0D    126
     126     259                                                00010000D    127
     126       0               3       0                               0D    128
     128     262                                                00010000D    129
     128       0    -157      27       0                               0D    130
     128     289                                                00010000D    131
     128       0    -157      27       0                               0D    132
     128     316                                                00010000D    133
     128       0    -157      27       0                               0D    134
     128     343                                                00010000D    135
     128       0    -157      27       0                               0D    136
     128     370                                                00010000D    137
     128       0    -157       9       0                               0D    138
     128     379                                                00010000D    139
     128       0    -157       9       0                               0D    140
     128     388                                                00010000D    141
     128       0    -157       8       0                               0D    142
     128     396                                                00010000D    143
     128       0    -157       8       0                               0D    144
     128     404                                                00010000D    145
     128       0    -157       8       0                               0D    146
     128     412                                                00010000D    147
     128       0    -157       8       0                               0D    148
     502     420                                                00010000D    149
     502                      24       1                               0D    150
     504     444                                                00010001D    151
     504                       9       1                               0D    152
     406     453                                                00000000D    153
     406                       1      15                               0D    154
     406     454                                                00000000D    155
     406                       1      15                               0D    156
     314     455                                                00000200D    157
     314                       2       0                               0D    158
     314     457                                                00000200D    159
     314                       2       0                               0D    160
408,3,0.,0.,0.,1.,0,1,155;                                             1P      1
308,0,3Hnew,1,5;                                                       3P      2
186,7,1,0,0,1,153;                                                     5P      3
514,10,9,1,11,1,13,1,15,1,17,1,19,1,21,1,23,1,25,1,27,1;               7P      4
510,129,1,1,29;                                                        9P      5
510,131,1,1,31;                                                       11P      6
510,133,1,1,33;                                                       13P      7
510,135,1,1,35;                                                       15P      8
510,137,1,1,37;                                                       17P      9
510,139,1,1,39;                                                       19P     10
510,141,5,1,41,43,45,47,49;                                           21P     11
510,143,5,1,51,53,55,57,59;                                           23P     12
510,145,1,1,61;                                                       25P     13
510,147,1,1,63;                                                       27P     14
508,6,0,151,1,0,0,0,151,2,0,0,0,151,3,1,0,0,151,4,0,0,0,151,5,0,      29P     15
0,0,151,3,0,0;                                                        29P     16
508,6,0,151,6,0,0,0,151,7,0,0,0,151,8,1,0,0,151,9,0,0,0,151,10,       31P     17
0,0,0,151,8,0,0;                                                      31P     18
508,6,0,151,11,0,0,0,151,12,0,0,0,151,13,1,0,0,151,14,0,0,0,151,      33P     19
15,0,0,0,151,13,0,0;                                                  33P     20
508,6,0,151,16,0,0,0,151,17,0,0,0,151,18,1,0,0,151,19,0,0,0,151,      35P     21
20,0,0,0,151,18,0,0;                                                  35P     22
508,4,0,151,21,1,0,0,151,22,1,0,0,151,23,1,0,0,151,24,1,0;            37P     23
508,4,0,151,25,1,0,0,151,26,1,0,0,151,27,1,0,0,151,28,1,0;            39P     24
508,4,0,151,29,0,0,0,151,21,0,0,0,151,30,0,0,0,151,25,0,0;            41P     25
508,2,0,151,1,1,0,0,151,2,1,0;                                        43P     26
508,2,0,151,6,1,0,0,151,7,1,0;                                        45P     27
508,2,0,151,11,1,0,0,151,12,1,0;                                      47P     28
508,2,0,151,16,1,0,0,151,17,1,0;                                      49P     29
508,4,0,151,31,0,0,0,151,27,0,0,0,151,32,0,0,0,151,23,0,0;            51P     30
508,2,0,151,4,1,0,0,151,5,1,0;                                        53P     31
508,2,0,151,9,1,0,0,151,10,1,0;                                       55P     32
508,2,0,151,14,1,0,0,151,15,1,0;                                      57P     33
508,2,0,151,19,1,0,0,151,20,1,0;                                      59P     34
508,4,0,151,31,1,0,0,151,22,0,0,0,151,29,1,0,0,151,28,0,0;            61P     35
508,4,0,151,32,1,0,0,151,26,0,0,0,151,30,1,0,0,151,24,0,0;            63P     36
126,4,2,0,0,0,0,0.620090213644913,0.620090213644913,                  65P     37
0.620090213644913,2.19088654043981,2.19088654043981,                  65P     38
3.76168286723471,3.76168286723471,3.76168286723471,1.,                65P     39
0.707106781186546,1.,0.707106781186549,1.,7.94494528075798,           65P     40
186.854974628016,-11.4465604911839,7.94494528075798,                  65P     41
186.854974628016,-9.7465604911839,6.24494533145946,                   65P     42
186.855389820766,-9.7465604911839,4.54494538216093,                   65P     43
186.855805013517,-9.74656049118389,4.54494538216093,                  65P     44
186.855805013517,-11.4465604911839,0.620090213644913,                 65P     45
3.76168286723471,0.,0.,0.;                                            65P     46
126,4,2,0,0,0,0,3.76168286723471,3.76168286723471,                    67P     47
3.76168286723471,5.33247919402961,5.33247919402961,                   67P     48
6.9032755208245,6.9032755208245,6.9032755208245,1.,                   67P     49
0.707106781186548,1.,0.707106781186547,1.,4.54494538216093,           67P     50
186.855805013517,-11.4465604911839,4.54494538216094,                  67P     51
186.855805013517,-13.1465604911839,6.24494533145946,                  67P     52
186.855389820767,-13.1465604911839,7.94494528075798,                  67P     53
186.854974628016,-13.1465604911839,7.94494528075798,                  67P     54
186.854974628016,-11.4465604911839,3.76168286723471,                  67P     55
6.9032755208245,0.,0.,0.;                                             67P     56
126,1,1,0,0,1,0,-0.441029411764941,-0.441029411764941,                69P     57
0.441029411764882,0.441029411764882,1.,1.,4.54494538216094,           69P     58
186.855805013518,-11.4465604911839,4.54457915773159,                  69P     59
185.356305058239,-11.4465604911839,-0.441029411764941,                69P     60
0.441029411764882,0.,0.,0.;                                           69P     61
126,4,2,0,0,0,0,0.620090213644917,0.620090213644917,                  71P     62
0.620090213644917,2.19088654043981,2.19088654043981,                  71P     63
3.76168286723471,3.76168286723471,3.76168286723471,1.,                71P     64
0.707106781186549,1.,0.707106781186548,1.,7.94457905632863,           71P     65
185.355474672738,-11.4465604911839,7.94457905632863,                  71P     66
185.355474672738,-13.1465604911839,6.24457910703011,                  71P     67
185.355889865489,-13.1465604911839,4.54457915773159,                  71P     68
185.356305058239,-13.1465604911839,4.54457915773158,                  71P     69
185.356305058239,-11.4465604911839,0.620090213644917,                 71P     70
3.76168286723471,0.,0.,0.;                                            71P     71
126,4,2,0,0,0,0,3.76168286723471,3.76168286723471,                    73P     72
3.76168286723471,5.33247919402961,5.33247919402961,                   73P     73
6.9032755208245,6.9032755208245,6.9032755208245,1.,                   73P     74
0.707106781186547,1.,0.707106781186548,1.,4.54457915773158,           73P     75
185.356305058239,-11.4465604911839,4.54457915773158,                  73P     76
185.356305058239,-9.7465604911839,6.24457910703011,                   73P     77
185.355889865488,-9.7465604911839,7.94457905632863,                   73P     78
185.355474672738,-9.7465604911839,7.94457905632863,                   73P     79
185.355474672738,-11.4465604911839,3.76168286723471,                  73P     80
6.9032755208245,0.,0.,0.;                                             73P     81
126,4,2,0,0,0,0,0.620090213644922,0.620090213644922,                  75P     82
0.620090213644922,2.19088654043983,2.19088654043983,                  75P     83
3.76168286723474,3.76168286723474,3.76168286723474,1.,                75P     84
0.707106781186539,1.,0.707106781186537,1.,41.9449442667284,           75P     85
186.846670772999,34.5534395088162,41.9449442667284,                   75P     86
186.846670772999,36.2534395088162,40.2449443174299,                   75P     87
186.84708596575,36.2534395088162,38.5449443681313,                    75P     88
186.847501158501,36.2534395088162,38.5449443681313,                   75P     89
186.847501158501,34.5534395088162,0.620090213644922,                  75P     90
3.76168286723474,0.,0.,0.;                                            75P     91
126,4,2,0,0,0,0,3.76168286723474,3.76168286723474,                    77P     92
3.76168286723474,5.33247919402963,5.33247919402963,                   77P     93
6.90327552082451,6.90327552082451,6.90327552082451,1.,                77P     94
0.707106781186548,1.,0.707106781186558,1.,38.5449443681313,           77P     95
186.847501158501,34.5534395088162,38.5449443681314,                   77P     96
186.847501158501,32.8534395088162,40.2449443174299,                   77P     97
186.84708596575,32.8534395088162,41.9449442667284,                    77P     98
186.846670772999,32.8534395088162,41.9449442667284,                   77P     99
186.846670772999,34.5534395088162,3.76168286723474,                   77P    100
6.90327552082451,0.,0.,0.;                                            77P    101
126,1,1,0,0,1,0,-0.441029411764727,-0.441029411764727,                79P    102
0.441029411765203,0.441029411765203,1.,1.,38.5449443681315,           79P    103
186.847501158501,34.5534395088162,38.5445781437021,                   79P    104
185.348001203222,34.5534395088162,-0.441029411764727,                 79P    105
0.441029411765203,0.,0.,0.;                                           79P    106
126,4,2,0,0,0,0,0.620090213644918,0.620090213644918,                  81P    107
0.620090213644918,2.19088654043981,2.19088654043981,                  81P    108
3.7616828672347,3.7616828672347,3.7616828672347,1.,                   81P    109
0.707106781186549,1.,0.707106781186548,1.,41.944578042299,            81P    110
185.347170817721,34.5534395088162,41.944578042299,                    81P    111
185.347170817721,32.8534395088162,40.2445780930005,                   81P    112
185.347586010472,32.8534395088162,38.544578143702,                    81P    113
185.348001203222,32.8534395088162,38.544578143702,                    81P    114
185.348001203222,34.5534395088162,0.620090213644918,                  81P    115
3.7616828672347,0.,0.,0.;                                             81P    116
126,4,2,0,0,0,0,3.7616828672347,3.7616828672347,3.7616828672347,      83P    117
5.3324791940296,5.3324791940296,6.9032755208245,6.9032755208245,      83P    118
6.9032755208245,1.,0.707106781186547,1.,0.707106781186553,1.,         83P    119
38.544578143702,185.348001203222,34.5534395088162,                    83P    120
38.544578143702,185.348001203222,36.2534395088162,                    83P    121
40.2445780930005,185.347586010471,36.2534395088162,                   83P    122
41.944578042299,185.347170817721,36.2534395088162,                    83P    123
41.944578042299,185.347170817721,34.5534395088162,                    83P    124
3.7616828672347,6.9032755208245,0.,0.,0.;                             83P    125
126,4,2,0,0,0,0,0.620090213644916,0.620090213644916,                  85P    126
0.620090213644916,2.19088654043981,2.19088654043981,                  85P    127
3.7616828672347,3.7616828672347,3.7616828672347,1.,                   85P    128
0.707106781186551,1.,0.707106781186551,1.,7.94494528075791,           85P    129
186.854974628016,34.5534395088161,7.9449452807579,                    85P    130
186.854974628016,36.2534395088161,6.24494533145939,                   85P    131
186.855389820766,36.2534395088161,4.54494538216086,                   85P    132
186.855805013517,36.2534395088161,4.54494538216086,                   85P    133
186.855805013517,34.5534395088161,0.620090213644916,                  85P    134
3.7616828672347,0.,0.,0.;                                             85P    135
126,4,2,0,0,0,0,3.7616828672347,3.7616828672347,3.7616828672347,      87P    136
5.3324791940296,5.3324791940296,6.9032755208245,6.9032755208245,      87P    137
6.9032755208245,1.,0.707106781186547,1.,0.707106781186549,1.,         87P    138
4.54494538216086,186.855805013517,34.5534395088161,                   87P    139
4.54494538216086,186.855805013517,32.8534395088161,                   87P    140
6.24494533145938,186.855389820767,32.8534395088161,                   87P    141
7.94494528075791,186.854974628016,32.8534395088161,                   87P    142
7.94494528075791,186.854974628016,34.5534395088161,                   87P    143
3.7616828672347,6.9032755208245,0.,0.,0.;                             87P    144
126,1,1,0,0,1,0,-0.441029411764647,-0.441029411764647,                89P    145
0.44102941176514,0.44102941176514,1.,1.,4.54494538216086,             89P    146
186.855805013518,34.5534395088161,4.54457915773151,                   89P    147
185.356305058239,34.5534395088161,-0.441029411764647,                 89P    148
0.44102941176514,0.,0.,0.;                                            89P    149
126,4,2,0,0,0,0,0.620090213644912,0.620090213644912,                  91P    150
0.620090213644912,2.19088654043982,2.19088654043982,                  91P    151
3.76168286723473,3.76168286723473,3.76168286723473,1.,                91P    152
0.707106781186544,1.,0.707106781186543,1.,7.94457905632856,           91P    153
185.355474672738,34.5534395088161,7.94457905632858,                   91P    154
185.355474672738,32.8534395088161,6.24457910703004,                   91P    155
185.355889865489,32.8534395088161,4.54457915773151,                   91P    156
185.356305058239,32.8534395088161,4.54457915773152,                   91P    157
185.356305058239,34.5534395088161,0.620090213644912,                  91P    158
3.76168286723473,0.,0.,0.;                                            91P    159
126,4,2,0,0,0,0,3.76168286723473,3.76168286723473,                    93P    160
3.76168286723473,5.33247919402961,5.33247919402961,                   93P    161
6.9032755208245,6.9032755208245,6.9032755208245,1.,                   93P    162
0.707106781186551,1.,0.707106781186552,1.,4.54457915773152,           93P    163
185.356305058239,34.5534395088161,4.54457915773154,                   93P    164
185.356305058239,36.2534395088161,6.24457910703004,                   93P    165
185.355889865488,36.2534395088161,7.94457905632854,                   93P    166
185.355474672738,36.2534395088161,7.94457905632856,                   93P    167
185.355474672738,34.5534395088161,3.76168286723473,                   93P    168
6.9032755208245,0.,0.,0.;                                             93P    169
126,4,2,0,0,0,0,0.620090213644924,0.620090213644924,                  95P    170
0.620090213644924,2.19088654043981,2.19088654043981,                  95P    171
3.7616828672347,3.7616828672347,3.7616828672347,1.,                   95P    172
0.707106781186549,1.,0.707106781186552,1.,41.9449442667284,           95P    173
186.846670772999,-11.4465604911838,41.9449442667284,                  95P    174
186.846670772999,-9.74656049118384,40.2449443174299,                  95P    175
186.84708596575,-9.74656049118383,38.5449443681314,                   95P    176
186.847501158501,-9.74656049118382,38.5449443681314,                  95P    177
186.847501158501,-11.4465604911838,0.620090213644924,                 95P    178
3.7616828672347,0.,0.,0.;                                             95P    179
126,4,2,0,0,0,0,3.7616828672347,3.7616828672347,3.7616828672347,      97P    180
5.3324791940296,5.3324791940296,6.90327552082451,                     97P    181
6.90327552082451,6.90327552082451,1.,0.707106781186544,1.,            97P    182
0.707106781186545,1.,38.5449443681314,186.847501158501,               97P    183
-11.4465604911838,38.5449443681314,186.847501158501,                  97P    184
-13.1465604911838,40.2449443174299,186.84708596575,                   97P    185
-13.1465604911838,41.9449442667284,186.846670772999,                  97P    186
-13.1465604911838,41.9449442667284,186.846670772999,                  97P    187
-11.4465604911838,3.7616828672347,6.90327552082451,0.,0.,0.;          97P    188
126,1,1,0,0,1,0,-0.441029411764869,-0.441029411764869,                99P    189
0.441029411765033,0.441029411765033,1.,1.,38.5449443681313,           99P    190
186.847501158501,-11.4465604911838,38.544578143702,                   99P    191
185.348001203222,-11.4465604911838,-0.441029411764869,                99P    192
0.441029411765033,0.,0.,0.;                                           99P    193
126,4,2,0,0,0,0,0.620090213644891,0.620090213644891,                 101P    194
0.620090213644891,2.19088654043981,2.19088654043981,                 101P    195
3.76168286723472,3.76168286723472,3.76168286723472,1.,               101P    196
0.707106781186537,1.,0.707106781186545,1.,41.9445780422991,          101P    197
185.347170817721,-11.4465604911838,41.9445780422991,                 101P    198
185.347170817721,-13.1465604911838,40.2445780930006,                 101P    199
185.347586010472,-13.1465604911839,38.544578143702,                  101P    200
185.348001203222,-13.1465604911839,38.544578143702,                  101P    201
185.348001203222,-11.4465604911838,0.620090213644891,                101P    202
3.76168286723472,0.,0.,0.;                                           101P    203
126,4,2,0,0,0,0,3.76168286723472,3.76168286723472,                   103P    204
3.76168286723472,5.3324791940296,5.3324791940296,                    103P    205
6.90327552082448,6.90327552082448,6.90327552082448,1.,               103P    206
0.707106781186559,1.,0.707106781186548,1.,38.544578143702,           103P    207
185.348001203222,-11.4465604911838,38.5445781437021,                 103P    208
185.348001203222,-9.74656049118382,40.2445780930006,                 103P    209
185.347586010471,-9.74656049118382,41.9445780422991,                 103P    210
185.347170817721,-9.74656049118381,41.9445780422991,                 103P    211
185.347170817721,-11.4465604911838,3.76168286723472,                 103P    212
6.90327552082448,0.,0.,0.;                                           103P    213
126,1,1,0,0,1,0,-1.83553101586259D-16,-1.83553101586259D-16,4.,      105P    214
4.,1.,1.,3.24494542093265,186.856122513856,-14.4465604911839,        105P    215
43.2449442279567,186.84635327266,-14.4465604911838,                  105P    216
-1.83553101586259D-16,4.,0.,0.,0.;                                   105P    217
126,1,1,0,0,1,0,7.9590093334755D-8,7.9590093334755D-8,               107P    218
0.149950079643973,0.149950079643973,1.,1.,43.2449442279568,          107P    219
186.846353273199,-14.4465604911838,43.2445780035274,                 107P    220
185.346853317382,-14.4465604911838,7.9590093334755D-8,               107P    221
0.149950079643973,0.,0.,0.;                                          107P    222
126,1,1,0,0,1,0,0.,0.,4.,4.,1.,1.,43.2445780035274,                  109P    223
185.346853317382,-14.4465604911838,3.24457919650329,                 109P    224
185.356622558578,-14.4465604911839,0.,4.,0.,0.,0.;                   109P    225
126,1,1,0,0,1,0,0.,0.,0.149950000053908,0.149950000053908,1.,1.,     111P    226
3.2445791965033,185.356622558578,-14.4465604911839,                  111P    227
3.24494542093278,186.856122514395,-14.4465604911839,0.,              111P    228
0.149950000053908,0.,0.,0.;                                          111P    229
126,1,1,0,0,1,0,2.5080799203987D-15,2.5080799203987D-15,             113P    230
4.00000000000001,4.00000000000001,1.,1.,43.2449442279567,            113P    231
186.84635327266,37.5534395088162,3.24494542093255,                   113P    232
186.856122513856,37.5534395088161,2.5080799203987D-15,               113P    233
4.00000000000001,0.,0.,0.;                                           113P    234
126,1,1,0,0,1,0,7.95900613615395D-8,7.95900613615395D-8,             115P    235
0.149950079643969,0.149950079643969,1.,1.,3.2449454209327,           115P    236
186.856122514395,37.5534395088161,3.24457919650322,                  115P    237
185.356622558578,37.5534395088161,7.95900613615395D-8,               115P    238
0.149950079643969,0.,0.,0.;                                          115P    239
126,1,1,0,0,1,0,9.99200692362081D-16,9.99200692362081D-16,4.,4.,     117P    240
1.,1.,3.24457919650322,185.356622558578,37.5534395088161,            117P    241
43.2445780035273,185.346853317382,37.5534395088162,                  117P    242
9.99200692362081D-16,4.,0.,0.,0.;                                    117P    243
126,1,1,0,0,1,0,0.,0.,0.149950000053879,0.149950000053879,1.,1.,     119P    244
43.2445780035273,185.346853317382,37.5534395088162,                  119P    245
43.2449442279568,186.846353273199,37.5534395088162,0.,               119P    246
0.149950000053879,0.,0.,0.;                                          119P    247
126,1,1,0,0,1,0,-1.8356186448412D-29,-1.8356186448412D-29,5.2,       121P    248
5.2,1.,1.,43.2449442279568,186.84635327266,-14.4465604911838,        121P    249
43.2449442279567,186.84635327266,37.5534395088162,                   121P    250
-1.8356186448412D-29,5.2,0.,0.,0.;                                   121P    251
126,1,1,0,0,1,0,-3.10862446895042D-15,-3.10862446895042D-15,5.2,     123P    252
5.2,1.,1.,3.24494542093257,186.856122513857,37.5534395088161,        123P    253
3.24494542093265,186.856122513857,-14.4465604911839,                 123P    254
-3.10862446895042D-15,5.2,0.,0.,0.;                                  123P    255
126,1,1,0,0,1,0,0.,0.,5.2,5.2,1.,1.,43.2445780035273,                125P    256
185.346853317382,37.5534395088162,43.2445780035274,                  125P    257
185.346853317382,-14.4465604911838,0.,5.2,0.,0.,0.;                  125P    258
126,1,1,0,0,1,0,0.,0.,5.2,5.2,1.,1.,3.24457919650322,                127P    259
185.356622558578,-14.4465604911839,3.24457919650322,                 127P    260
185.356622558578,37.5534395088161,0.,5.2,0.,0.,0.;                   127P    261
128,1,8,1,2,0,1,0,0,1,-0.441029411764882,-0.441029411764882,         129P    262
0.441029411764941,0.441029411764941,-3.14159265358979,               129P    263
-3.14159265358979,-3.14159265358979,-1.5707963267949,                129P    264
-1.5707963267949,0.,0.,1.5707963267949,1.5707963267949,              129P    265
3.14159265358979,3.14159265358979,3.14159265358979,1.,1.,            129P    266
0.707106781186548,0.707106781186548,1.,1.,0.707106781186548,         129P    267
0.707106781186548,1.,1.,0.707106781186548,0.707106781186548,1.,      129P    268
1.,0.707106781186548,0.707106781186548,1.,1.,4.54457915773159,       129P    269
185.356305058239,-11.4465604911839,4.54494538216094,                 129P    270
186.855805013518,-11.4465604911839,4.54457915773159,                 129P    271
185.356305058239,-9.7465604911839,4.54494538216094,                  129P    272
186.855805013518,-9.7465604911839,6.24457910703011,                  129P    273
185.355889865488,-9.7465604911839,6.24494533145946,                  129P    274
186.855389820767,-9.7465604911839,7.94457905632863,                  129P    275
185.355474672737,-9.7465604911839,7.94494528075798,                  129P    276
186.854974628016,-9.7465604911839,7.94457905632863,                  129P    277
185.355474672737,-11.4465604911839,7.94494528075798,                 129P    278
186.854974628016,-11.4465604911839,7.94457905632863,                 129P    279
185.355474672737,-13.1465604911839,7.94494528075798,                 129P    280
186.854974628016,-13.1465604911839,6.24457910703011,                 129P    281
185.355889865488,-13.1465604911839,6.24494533145946,                 129P    282
186.855389820767,-13.1465604911839,4.54457915773159,                 129P    283
185.356305058239,-13.1465604911839,4.54494538216094,                 129P    284
186.855805013518,-13.1465604911839,4.54457915773159,                 129P    285
185.356305058239,-11.4465604911839,4.54494538216094,                 129P    286
186.855805013518,-11.4465604911839,-0.441029411764882,               129P    287
0.441029411764941,-3.14159265358979,3.14159265358979;                129P    288
128,1,8,1,2,0,1,0,0,1,-0.441029411765203,-0.441029411765203,         131P    289
0.441029411764727,0.441029411764727,-3.14159265358979,               131P    290
-3.14159265358979,-3.14159265358979,-1.5707963267949,                131P    291
-1.5707963267949,0.,0.,1.5707963267949,1.5707963267949,              131P    292
3.14159265358979,3.14159265358979,3.14159265358979,1.,1.,            131P    293
0.707106781186548,0.707106781186548,1.,1.,0.707106781186548,         131P    294
0.707106781186548,1.,1.,0.707106781186548,0.707106781186548,1.,      131P    295
1.,0.707106781186548,0.707106781186548,1.,1.,38.5445781437021,       131P    296
185.348001203222,34.5534395088162,38.5449443681315,                  131P    297
186.847501158501,34.5534395088162,38.5445781437021,                  131P    298
185.348001203222,36.2534395088162,38.5449443681315,                  131P    299
186.847501158501,36.2534395088161,40.2445780930005,                  131P    300
185.347586010471,36.2534395088162,40.2449443174299,                  131P    301
186.84708596575,36.2534395088161,41.944578042299,                    131P    302
185.34717081772,36.2534395088162,41.9449442667284,                   131P    303
186.846670772999,36.2534395088161,41.944578042299,                   131P    304
185.34717081772,34.5534395088162,41.9449442667284,                   131P    305
186.846670772999,34.5534395088162,41.944578042299,                   131P    306
185.34717081772,32.8534395088163,41.9449442667284,                   131P    307
186.846670772999,32.8534395088162,40.2445780930005,                  131P    308
185.347586010471,32.8534395088163,40.2449443174299,                  131P    309
186.84708596575,32.8534395088162,38.5445781437021,                   131P    310
185.348001203222,32.8534395088163,38.5449443681315,                  131P    311
186.847501158501,32.8534395088162,38.5445781437021,                  131P    312
185.348001203222,34.5534395088162,38.5449443681315,                  131P    313
186.847501158501,34.5534395088162,-0.441029411765203,                131P    314
0.441029411764727,-3.14159265358979,3.14159265358979;                131P    315
128,1,8,1,2,0,1,0,0,1,-0.44102941176514,-0.44102941176514,           133P    316
0.441029411764647,0.441029411764647,-3.14159265358979,               133P    317
-3.14159265358979,-3.14159265358979,-1.5707963267949,                133P    318
-1.5707963267949,0.,0.,1.5707963267949,1.5707963267949,              133P    319
3.14159265358979,3.14159265358979,3.14159265358979,1.,1.,            133P    320
0.707106781186548,0.707106781186548,1.,1.,0.707106781186548,         133P    321
0.707106781186548,1.,1.,0.707106781186548,0.707106781186548,1.,      133P    322
1.,0.707106781186548,0.707106781186548,1.,1.,4.54457915773151,       133P    323
185.356305058239,34.5534395088161,4.54494538216086,                  133P    324
186.855805013518,34.5534395088161,4.54457915773151,                  133P    325
185.356305058239,36.2534395088161,4.54494538216086,                  133P    326
186.855805013518,36.2534395088161,6.24457910703004,                  133P    327
185.355889865488,36.2534395088161,6.24494533145939,                  133P    328
186.855389820767,36.2534395088161,7.94457905632856,                  133P    329
185.355474672737,36.2534395088161,7.94494528075791,                  133P    330
186.854974628016,36.2534395088161,7.94457905632856,                  133P    331
185.355474672737,34.5534395088161,7.94494528075791,                  133P    332
186.854974628016,34.5534395088161,7.94457905632856,                  133P    333
185.355474672737,32.8534395088161,7.94494528075791,                  133P    334
186.854974628016,32.8534395088161,6.24457910703004,                  133P    335
185.355889865488,32.8534395088161,6.24494533145939,                  133P    336
186.855389820767,32.8534395088161,4.54457915773151,                  133P    337
185.356305058239,32.8534395088161,4.54494538216086,                  133P    338
186.855805013518,32.8534395088161,4.54457915773151,                  133P    339
185.356305058239,34.5534395088161,4.54494538216086,                  133P    340
186.855805013518,34.5534395088161,-0.44102941176514,                 133P    341
0.441029411764647,-3.14159265358979,3.14159265358979;                133P    342
128,1,8,1,2,0,1,0,0,1,-0.441029411765033,-0.441029411765033,         135P    343
0.441029411764869,0.441029411764869,-3.14159265358979,               135P    344
-3.14159265358979,-3.14159265358979,-1.5707963267949,                135P    345
-1.5707963267949,0.,0.,1.5707963267949,1.5707963267949,              135P    346
3.14159265358979,3.14159265358979,3.14159265358979,1.,1.,            135P    347
0.707106781186548,0.707106781186548,1.,1.,0.707106781186548,         135P    348
0.707106781186548,1.,1.,0.707106781186548,0.707106781186548,1.,      135P    349
1.,0.707106781186548,0.707106781186548,1.,1.,38.544578143702,        135P    350
185.348001203222,-11.4465604911838,38.5449443681313,                 135P    351
186.847501158501,-11.4465604911838,38.544578143702,                  135P    352
185.348001203222,-9.74656049118379,38.5449443681313,                 135P    353
186.847501158501,-9.74656049118377,40.2445780930006,                 135P    354
185.347586010471,-9.74656049118379,40.2449443174299,                 135P    355
186.84708596575,-9.74656049118377,41.9445780422991,                  135P    356
185.34717081772,-9.74656049118379,41.9449442667284,                  135P    357
186.846670772999,-9.74656049118377,41.9445780422991,                 135P    358
185.34717081772,-11.4465604911838,41.9449442667284,                  135P    359
186.846670772999,-11.4465604911838,41.9445780422991,                 135P    360
185.34717081772,-13.1465604911838,41.9449442667284,                  135P    361
186.846670773,-13.1465604911838,40.2445780930006,                    135P    362
185.347586010471,-13.1465604911838,40.2449443174299,                 135P    363
186.84708596575,-13.1465604911838,38.544578143702,                   135P    364
185.348001203222,-13.1465604911838,38.5449443681313,                 135P    365
186.847501158501,-13.1465604911838,38.544578143702,                  135P    366
185.348001203222,-11.4465604911838,38.5449443681313,                 135P    367
186.847501158501,-11.4465604911838,-0.441029411765033,               135P    368
0.441029411764869,-3.14159265358979,3.14159265358979;                135P    369
128,1,1,1,1,0,0,1,0,0,-2.00101825157268,-2.00101825157268,           137P    370
2.00101825157268,2.00101825157268,-2.33060098997484D-15,             137P    371
-2.33060098997484D-15,0.152926919701339,0.152926919701339,1.,1.,     137P    372
1.,1.,43.2549442279568,185.336853317382,-14.4465604911838,           137P    373
3.23457919650329,185.336853317382,-14.4465604911839,                 137P    374
43.2549442279568,186.866122514395,-14.4465604911838,                 137P    375
3.23457919650329,186.866122514395,-14.4465604911839,                 137P    376
-2.00101825157268,2.00101825157268,-2.33060098997484D-15,            137P    377
0.152926919701339;                                                   137P    378
128,1,1,1,1,0,0,1,0,0,-2.0010182515824,-2.0010182515824,             139P    379
2.00101825156296,2.00101825156296,7.96440010617308D-8,               139P    380
7.96440010617308D-8,0.152926999345342,0.152926999345342,1.,1.,       139P    381
1.,1.,3.23457919650322,185.336853317382,37.5534395088162,            139P    382
43.2549442279568,185.336853317382,37.5534395088162,                  139P    383
3.23457919650322,186.866122514395,37.5534395088162,                  139P    384
43.2549442279568,186.866122514395,37.5534395088162,                  139P    385
-2.0010182515824,2.00101825156296,7.96440010617308D-8,               139P    386
0.152926999345342;                                                   139P    387
128,1,1,1,1,0,0,1,0,0,-5.43922545892528D-15,                         141P    388
-5.43922545892528D-15,5.20200000000001,5.20200000000001,             141P    389
-2.00100000000001,-2.00100000000001,2.001,2.001,1.,1.,1.,1.,         141P    390
3.23494542123079,186.856124956167,-14.4565604911839,                 141P    391
3.23494542123079,186.856124956167,37.5634395088162,                  141P    392
43.2549442276585,186.84635083035,-14.4565604911839,                  141P    393
43.2549442276585,186.84635083035,37.5634395088162,                   141P    394
-5.43922545892528D-15,5.20200000000001,-2.00100000000001,2.001;      141P    395
128,1,1,1,1,0,0,1,0,0,-2.601,-2.601,2.601,2.601,                     143P    396
2.55871712706579D-16,2.55871712706579D-16,4.00200000000001,          143P    397
4.00200000000001,1.,1.,1.,1.,3.23457919680146,185.356625000888,      143P    398
37.5634395088162,3.23457919680146,185.356625000888,                  143P    399
-14.4565604911839,43.2545780032292,185.346850875071,                 143P    400
37.5634395088162,43.2545780032292,185.346850875071,                  143P    401
-14.4565604911839,-2.601,2.601,2.55871712706579D-16,                 143P    402
4.00200000000001;                                                    143P    403
128,1,1,1,1,0,0,1,0,0,-2.601,-2.601,2.601,2.601,                     145P    404
7.96440259307266D-8,7.96440259307266D-8,0.151950079697907,           145P    405
0.151950079697907,1.,1.,1.,1.,43.244575561217,185.33685331768,       145P    406
37.5634395088162,43.2445755612171,185.33685331768,                   145P    407
-14.4565604911838,43.2449466702671,186.856353272901,                 145P    408
37.5634395088162,43.2449466702672,186.856353272901,                  145P    409
-14.4565604911838,-2.601,2.601,7.96440259307266D-8,                  145P    410
0.151950079697907;                                                   145P    411
128,1,1,1,1,0,0,1,0,0,-2.601,-2.601,2.601,2.601,                     147P    412
7.96440276728226D-8,7.96440276728226D-8,0.151950079697935,           147P    413
0.151950079697935,1.,1.,1.,1.,3.244576754193,185.346622558876,       147P    414
-14.4565604911839,3.24457675419292,185.346622558876,                 147P    415
37.5634395088161,3.24494786324308,186.866122514097,                  147P    416
-14.4565604911839,3.244947863243,186.866122514097,                   147P    417
37.5634395088161,-2.601,2.601,7.96440276728226D-8,                   147P    418
0.151950079697935;                                                   147P    419
502,24,7.94494528075798,186.854974628016,-11.4465604911839,          149P    420
4.54494538216094,186.855805013518,-11.4465604911839,                 149P    421
4.54457915773159,185.356305058239,-11.4465604911839,                 149P    422
7.94457905632863,185.355474672738,-11.4465604911839,                 149P    423
41.9449442667284,186.846670772999,34.5534395088162,                  149P    424
38.5449443681315,186.847501158501,34.5534395088162,                  149P    425
38.5445781437021,185.348001203222,34.5534395088162,                  149P    426
41.944578042299,185.347170817721,34.5534395088162,                   149P    427
7.94494528075791,186.854974628016,34.5534395088161,                  149P    428
4.54494538216086,186.855805013518,34.5534395088161,                  149P    429
4.54457915773151,185.356305058239,34.5534395088161,                  149P    430
7.94457905632856,185.355474672738,34.5534395088161,                  149P    431
41.9449442667284,186.846670772999,-11.4465604911838,                 149P    432
38.5449443681313,186.847501158501,-11.4465604911838,                 149P    433
38.544578143702,185.348001203222,-11.4465604911838,                  149P    434
41.9445780422991,185.347170817721,-11.4465604911838,                 149P    435
3.24494542093278,186.856122514395,-14.4465604911839,                 149P    436
43.2449442279569,186.846353273199,-14.4465604911838,                 149P    437
43.2445780035274,185.346853317382,-14.4465604911838,                 149P    438
3.2445791965033,185.356622558578,-14.4465604911839,                  149P    439
43.2449442279568,186.846353273199,37.5534395088162,                  149P    440
3.2449454209327,186.856122514395,37.5534395088161,                   149P    441
3.24457919650322,185.356622558578,37.5534395088161,                  149P    442
43.2445780035273,185.346853317382,37.5534395088162;                  149P    443
504,32,65,149,1,149,2,67,149,2,149,1,69,149,2,149,3,71,149,4,        151P    444
149,3,73,149,3,149,4,75,149,5,149,6,77,149,6,149,5,79,149,6,149,     151P    445
7,81,149,8,149,7,83,149,7,149,8,85,149,9,149,10,87,149,10,149,9,     151P    446
89,149,10,149,11,91,149,12,149,11,93,149,11,149,12,95,149,13,        151P    447
149,14,97,149,14,149,13,99,149,14,149,15,101,149,16,149,15,103,      151P    448
149,15,149,16,105,149,17,149,18,107,149,18,149,19,109,149,19,        151P    449
149,20,111,149,20,149,17,113,149,21,149,22,115,149,22,149,23,        151P    450
117,149,23,149,24,119,149,24,149,21,121,149,18,149,21,123,149,       151P    451
22,149,17,125,149,24,149,19,127,149,20,149,23;                       151P    452
406,1,5HBody1;                                                       153P    453
406,1,5Hnew:1;                                                       155P    454
314,69.8039215686274,69.8039215686274,69.8039215686274,19HOpaque     157P    455
(178,178,178);                                                       157P    456
314,62.7450980392157,62.7450980392157,62.7450980392157,13HSteel      159P    457
- Satin;                                                             159P    458
S      1G      3D    160P    458                                        T      1
