                                                                        S      1
,,5Ha1002,5Ha1002,7Hunknown,7Hunknown,32,38,7,99,15,,1.,2,2HMM,1,0.08,  G      1
15H20180820.143310,0.01,10000.,12Hhisashin0829,7Hunknown,11,0,15H2018052G      2
0.041505;                                                               G      3
     408       1                                                00000001D      1
     408       0               1       0                               0D      2
     308       2                                                00010200D      3
     308       0               1       0                               0D      4
     186       3                                                00010000D      5
     186             -77       1       0                               0D      6
     514       4                                                00010000D      7
     514                       1       1                               0D      8
     510       5                                                00010000D      9
     510             -77       1       1                               0D     10
     510       6                                                00010000D     11
     510             -77       1       1                               0D     12
     510       7                                                00010000D     13
     510             -77       1       1                               0D     14
     510       8                                                00010000D     15
     510             -77       1       1                               0D     16
     510       9                                                00010000D     17
     510             -77       1       1                               0D     18
     510      10                                                00010000D     19
     510             -77       1       1                               0D     20
     508      11                                                00010000D     21
     508                       1       1                               0D     22
     508      12                                                00010000D     23
     508                       1       1                               0D     24
     508      13                                                00010000D     25
     508                       1       1                               0D     26
     508      14                                                00010000D     27
     508                       1       1                               0D     28
     508      15                                                00010000D     29
     508                       1       1                               0D     30
     508      16                                                00010000D     31
     508                       1       1                               0D     32
     126      17                                                00010000D     33
     126       0               4       0                               0D     34
     126      21                                                00010000D     35
     126       0               3       0                               0D     36
     126      24                                                00010000D     37
     126       0               4       0                               0D     38
     126      28                                                00010000D     39
     126       0               4       0                               0D     40
     126      32                                                00010000D     41
     126       0               4       0                               0D     42
     126      36                                                00010000D     43
     126       0               3       0                               0D     44
     126      39                                                00010000D     45
     126       0               4       0                               0D     46
     126      43                                                00010000D     47
     126       0               4       0                               0D     48
     126      47                                                00010000D     49
     126       0               3       0                               0D     50
     126      50                                                00010000D     51
     126       0               4       0                               0D     52
     126      54                                                00010000D     53
     126       0               3       0                               0D     54
     126      57                                                00010000D     55
     126       0               3       0                               0D     56
     128      60                                                00010000D     57
     128       0     -77       9       0                               0D     58
     128      69                                                00010000D     59
     128       0     -77       8       0                               0D     60
     128      77                                                00010000D     61
     128       0     -77       8       0                               0D     62
     128      85                                                00010000D     63
     128       0     -77       8       0                               0D     64
     128      93                                                00010000D     65
     128       0     -77       8       0                               0D     66
     128     101                                                00010000D     67
     128       0     -77       9       0                               0D     68
     502     110                                                00010000D     69
     502                       8       1                               0D     70
     504     118                                                00010001D     71
     504                       3       1                               0D     72
     406     121                                                00000000D     73
     406                       1      15                               0D     74
     406     122                                                00000000D     75
     406                       1      15                               0D     76
     314     123                                                00000200D     77
     314                       2       0                               0D     78
     314     125                                                00000200D     79
     314                       2       0                               0D     80
408,3,0.,0.,0.,1.,0,1,75;                                              1P      1
308,0,15Hn502 コピー1,1,5;                                          3P      2
186,7,1,0,0,1,73;                                                      5P      3
514,6,9,1,11,1,13,1,15,1,17,1,19,1;                                    7P      4
510,57,1,1,21;                                                         9P      5
510,59,1,1,23;                                                        11P      6
510,61,1,1,25;                                                        13P      7
510,63,1,1,27;                                                        15P      8
510,65,1,1,29;                                                        17P      9
510,67,1,1,31;                                                        19P     10
508,4,0,71,1,0,0,0,71,2,0,0,0,71,3,0,0,0,71,4,0,0;                    21P     11
508,4,0,71,1,1,0,0,71,5,0,0,0,71,6,0,0,0,71,7,1,0;                    23P     12
508,4,0,71,4,1,0,0,71,8,0,0,0,71,9,0,0,0,71,5,1,0;                    25P     13
508,4,0,71,3,1,0,0,71,10,0,0,0,71,11,0,0,0,71,8,1,0;                  27P     14
508,4,0,71,2,1,0,0,71,7,0,0,0,71,12,0,0,0,71,10,1,0;                  29P     15
508,4,0,71,9,1,0,0,71,11,1,0,0,71,12,1,0,0,71,6,1,0;                  31P     16
126,1,1,0,0,1,0,-2.69509682071236D-20,-2.69509682071236D-20,4.,       33P     17
4.,1.,1.,43.9253946301756,157.964140677444,-8.44653042068285,         33P     18
3.92539464196139,157.964140677444,-8.44555940971985,                  33P     19
-2.69509682071236D-20,4.,0.,0.,0.;                                    33P     20
126,1,1,0,0,1,0,0.,0.,4.,4.,1.,1.,43.9263656411386,                   35P     21
157.964140677444,31.5534695675314,43.9253946301756,                   35P     22
157.964140677444,-8.44653042068287,0.,4.,0.,0.,0.;                    35P     23
126,1,1,0,0,1,0,9.4368957065333D-16,9.4368957065333D-16,4.,4.,        37P     24
1.,1.,3.92636565292442,157.964140677444,31.5544405784944,             37P     25
43.9263656411386,157.964140677444,31.5534695675314,                   37P     26
9.4368957065333D-16,4.,0.,0.,0.;                                      37P     27
126,1,1,0,0,1,0,8.88178419438428D-16,8.88178419438428D-16,4.,4.,      39P     28
1.,1.,3.92539464196139,157.964140677444,-8.44555940971985,            39P     29
3.92636565292441,157.964140677444,31.5544405784944,                   39P     30
8.88178419438428D-16,4.,0.,0.,0.;                                     39P     31
126,1,1,0,0,1,0,0.,0.,0.149999999999999,0.149999999999999,1.,1.,      41P     32
3.92539464196139,159.464140677444,-8.44555940971985,                  41P     33
3.92539464196139,157.964140677444,-8.44555940971985,0.,               41P     34
0.149999999999999,0.,0.,0.;                                           41P     35
126,1,1,0,0,1,0,0.,0.,4.,4.,1.,1.,43.9253946301756,                   43P     36
159.464140677444,-8.44653042068286,3.92539464196139,                  43P     37
159.464140677444,-8.44555940971986,0.,4.,0.,0.,0.;                    43P     38
126,1,1,0,0,1,0,0.,0.,0.149999999999999,0.149999999999999,1.,1.,      45P     39
43.9253946301756,159.464140677444,-8.44653042068286,                  45P     40
43.9253946301756,157.964140677444,-8.44653042068286,0.,               45P     41
0.149999999999999,0.,0.,0.;                                           45P     42
126,1,1,0,0,1,0,0.,0.,0.149999999999999,0.149999999999999,1.,1.,      47P     43
3.92636565292442,159.464140677444,31.5544405784944,                   47P     44
3.92636565292442,157.964140677444,31.5544405784944,0.,                47P     45
0.149999999999999,0.,0.,0.;                                           47P     46
126,1,1,0,0,1,0,0.,0.,4.,4.,1.,1.,3.92539464196139,                   49P     47
159.464140677444,-8.44555940971985,3.92636565292442,                  49P     48
159.464140677444,31.5544405784944,0.,4.,0.,0.,0.;                     49P     49
126,1,1,0,0,1,0,0.,0.,0.149999999999999,0.149999999999999,1.,1.,      51P     50
43.9263656411386,159.464140677444,31.5534695675314,                   51P     51
43.9263656411386,157.964140677444,31.5534695675314,0.,                51P     52
0.149999999999999,0.,0.,0.;                                           51P     53
126,1,1,0,0,1,0,0.,0.,4.,4.,1.,1.,3.92636565292442,                   53P     54
159.464140677444,31.5544405784944,43.9263656411386,                   53P     55
159.464140677444,31.5534695675314,0.,4.,0.,0.,0.;                     53P     56
126,1,1,0,0,1,0,0.,0.,4.,4.,1.,1.,43.9263656411386,                   55P     57
159.464140677444,31.5534695675314,43.9253946301756,                   55P     58
159.464140677444,-8.44653042068287,0.,4.,0.,0.,0.;                    55P     59
128,1,1,1,1,0,0,1,0,0,-2.00104854995886,-2.00104854995886,            57P     60
2.00104854995886,2.00104854995886,-3.87710696880816D-16,              57P     61
-3.87710696880816D-16,4.00209709991772,4.00209709991772,1.,1.,        57P     62
1.,1.,3.91539464196139,157.964140677444,31.5644405784944,             57P     63
3.91539464196139,157.964140677444,-8.45653042068287,                  57P     64
43.9363656411386,157.964140677444,31.5644405784944,                   57P     65
43.9363656411386,157.964140677444,-8.45653042068287,                  57P     66
-2.00104854995886,2.00104854995886,-3.87710696880816D-16,             57P     67
4.00209709991772;                                                     57P     68
128,1,1,1,1,0,0,1,0,0,-2.001,-2.001,2.001,2.001,                      59P     69
-5.5424415057459D-16,-5.5424415057459D-16,0.151999999999998,          59P     70
0.151999999999998,1.,1.,1.,1.,43.9353946301727,157.954140677444,      59P     71
-8.4465306634356,3.91539464196433,157.954140677444,                   59P     72
-8.44555916696711,43.9353946301727,159.474140677444,                  59P     73
-8.4465306634356,3.91539464196433,159.474140677444,                   59P     74
-8.44555916696711,-2.001,2.001,-5.5424415057459D-16,                  59P     75
0.151999999999998;                                                    59P     76
128,1,1,1,1,0,0,1,0,0,-2.001,-2.001,2.001,2.001,                      61P     77
-5.5424415057459D-16,-5.5424415057459D-16,0.151999999999998,          61P     78
0.151999999999998,1.,1.,1.,1.,3.92539439920865,157.954140677444,      61P     79
-8.45555940971691,3.92636589567715,157.954140677444,                  61P     80
31.5644405784915,3.92539439920865,159.474140677444,                   61P     81
-8.45555940971691,3.92636589567715,159.474140677444,                  61P     82
31.5644405784915,-2.001,2.001,-5.5424415057459D-16,                   61P     83
0.151999999999998;                                                    61P     84
128,1,1,1,1,0,0,1,0,0,-2.001,-2.001,2.001,2.001,                      63P     85
-5.5424415057459D-16,-5.5424415057459D-16,0.151999999999998,          63P     86
0.151999999999998,1.,1.,1.,1.,3.91636565292736,157.954140677444,      63P     87
31.5544408212471,43.9363656411357,157.954140677444,                   63P     88
31.5534693247786,3.91636565292736,159.474140677444,                   63P     89
31.5544408212471,43.9363656411357,159.474140677444,                   63P     90
31.5534693247786,-2.001,2.001,-5.5424415057459D-16,                   63P     91
0.151999999999998;                                                    63P     92
128,1,1,1,1,0,0,1,0,0,-2.001,-2.001,2.00100000000001,                 65P     93
2.00100000000001,-5.5424415057459D-16,-5.5424415057459D-16,           65P     94
0.151999999999998,0.151999999999998,1.,1.,1.,1.,                      65P     95
43.9263658838914,157.954140677444,31.5634695675285,                   65P     96
43.9253943874229,157.954140677444,-8.45653042067992,                  65P     97
43.9263658838914,159.474140677444,31.5634695675285,                   65P     98
43.9253943874229,159.474140677444,-8.45653042067992,-2.001,           65P     99
2.00100000000001,-5.5424415057459D-16,0.151999999999998;              65P    100
128,1,1,1,1,0,0,1,0,0,-2.00109712478229,-2.00109712478229,            67P    101
2.00099997513544,2.00099997513544,-4.85505484444362D-5,               67P    102
-4.85505484444362D-5,4.00204854936928,4.00204854936928,1.,1.,1.,      67P    103
1.,3.91539464196139,159.464140677444,-8.45653042068287,               67P    104
3.91539464196139,159.464140677444,31.5644405784944,                   67P    105
43.9363656411386,159.464140677444,-8.45653042068287,                  67P    106
43.9363656411386,159.464140677444,31.5644405784944,                   67P    107
-2.00109712478229,2.00099997513544,-4.85505484444362D-5,              67P    108
4.00204854936928;                                                     67P    109
502,8,43.9253946301756,157.964140677444,-8.44653042068286,            69P    110
3.92539464196139,157.964140677444,-8.44555940971985,                  69P    111
43.9263656411386,157.964140677444,31.5534695675314,                   69P    112
3.92636565292442,157.964140677444,31.5544405784944,                   69P    113
3.92539464196139,159.464140677444,-8.44555940971985,                  69P    114
43.9253946301756,159.464140677444,-8.44653042068286,                  69P    115
3.92636565292442,159.464140677444,31.5544405784944,                   69P    116
43.9263656411386,159.464140677444,31.5534695675314;                   69P    117
504,12,33,69,1,69,2,35,69,3,69,1,37,69,4,69,3,39,69,2,69,4,41,        71P    118
69,5,69,2,43,69,6,69,5,45,69,6,69,1,47,69,7,69,4,49,69,5,69,7,        71P    119
51,69,8,69,3,53,69,7,69,8,55,69,8,69,6;                               71P    120
406,1,5HBody1;                                                        73P    121
406,1,17Hn502 コピー1:1;                                           75P    122
314,69.8039215686274,69.8039215686274,69.8039215686274,19HOpaque      77P    123
(178,178,178);                                                        77P    124
314,62.7450980392157,62.7450980392157,62.7450980392157,13HSteel       79P    125
- Satin;                                                              79P    126
S      1G      3D     80P    126                                        T      1
