0
SECTION
2
HEADER
9
$INSUNITS
70
4
9
$ACADVER
1
AC1014
9
$HANDSEED
5
FFFF
0
ENDSEC
0
SECTION
2
TABLES
0
TABLE
2
VPORT
5
8
100
AcDbSymbolTable
0
ENDTAB
0
TABLE
2
LTYPE
5
5
100
AcDbSymbolTable
0
LTYPE
5
14
100
AcDbSymbolTableRecord
100
AcDbLinetypeTableRecord
2
BYBLOCK
70
0
0
LTYPE
5
15
100
AcDbSymbolTableRecord
100
AcDbLinetypeTableRecord
2
BYLAYER
70
0
0
ENDTAB
0
TABLE
2
LAYER
5
2
100
AcDbSymbolTable
70
2
0
LAYER
5
50
100
AcDbSymbolTableRecord
100
AcDbLayerTableRecord
2
0
70
0
6
CONTINUOUS
0
ENDTAB
0
TABLE
2
STYLE
5
3
100
AcDbSymbolTable
70
1
0
STYLE
5
11
100
AcDbSymbolTableRecord
100
AcDbTextStyleTableRecord
2
STANDARD
70
0
0
ENDTAB
0
TABLE
2
VIEW
5
6
100
AcDbSymbolTable
70
0
0
ENDTAB
0
TABLE
2
UCS
5
7
100
AcDbSymbolTable
70
0
0
ENDTAB
0
TABLE
2
APPID
5
9
100
AcDbSymbolTable
70
2
0
APPID
5
12
100
AcDbSymbolTableRecord
100
AcDbRegAppTableRecord
2
ACAD
70
0
0
ENDTAB
0
TABLE
2
DIMSTYLE
5
A
100
AcDbSymbolTable
70
1
0
ENDTAB
0
TABLE
2
BLOCK_RECORD
5
1
100
AcDbSymbolTable
70
1
0
BLOCK_RECORD
5
1F
100
AcDbSymbolTableRecord
100
AcDbBlockTableRecord
2
*MODEL_SPACE
0
BLOCK_RECORD
5
1B
100
AcDbSymbolTableRecord
100
AcDbBlockTableRecord
2
*PAPER_SPACE
0
ENDTAB
0
ENDSEC
0
SECTION
2
BLOCKS
0
BLOCK
5
20
100
AcDbEntity
100
AcDbBlockBegin
2
*MODEL_SPACE
0
ENDBLK
5
21
100
AcDbEntity
100
AcDbBlockEnd
0
BLOCK
5
1C
100
AcDbEntity
100
AcDbBlockBegin
2
*PAPER_SPACE
0
ENDBLK
5
1D
100
AcDbEntity
100
AcDbBlockEnd
0
ENDSEC
0
SECTION
2
ENTITIES
0
LWPOLYLINE
5
100
100
AcDbEntity
8
0
100
AcDbPolyline
90
16
70
1
43
0.0
10
55
20
-63.499999999999915
10
55.349999999999618
20
-63.500000000000412
42
0.41421356237309892
10
57.349999999999639
20
-61.500000000000419
10
57.349999999999675
20
-55.500000000000412
42
0.4142135623730937
10
55.349999999999689
20
-53.500000000000405
10
54.999999999999709
20
-53.500000000000405
42
-0.41421356237308982
10
52.999999999999716
20
-51.500000000000398
10
52.999999999999815
20
-33.500000000000398
42
0.41421356237309243
10
50.999999999999829
20
-31.500000000000394
10
42.999999999999829
20
-31.500000000000348
42
0.41421356237309309
10
40.999999999999815
20
-33.500000000000334
10
40.999999999999517
20
-83.500000000000341
42
0.41421356237309243
10
42.999999999999517
20
-85.500000000000341
10
50.99999999999951
20
-85.500000000000398
42
0.4142135623730977
10
52.999999999999517
20
-83.500000000000398
10
52.999999999999147
20
-65.500000000000398
42
-0.41421356237314444
0
CIRCLE
5
101
100
AcDbEntity
8
0
100
AcDbCircle
10
-4.6566000000002026
20
-74.611000000000359
30
0
40
2.5
0
CIRCLE
5
102
100
AcDbEntity
8
0
100
AcDbCircle
10
2.3433999999998254
20
-74.611000000000374
30
0
40
2.5000000000000009
0
CIRCLE
5
103
100
AcDbEntity
8
0
100
AcDbCircle
10
9.3433999999998179
20
-74.611000000000388
30
0
40
2.4999999999999991
0
CIRCLE
5
104
100
AcDbEntity
8
0
100
AcDbCircle
10
49.999999999999886
20
-88.500000000000384
30
0
40
1.6000000000000014
0
CIRCLE
5
105
100
AcDbEntity
8
0
100
AcDbCircle
10
49.999999999999893
20
-8.500000000000405
30
0
40
1.6000000000000014
0
CIRCLE
5
106
100
AcDbEntity
8
0
100
AcDbCircle
10
-6.9999999999999227
20
-88.500000000001194
30
0
40
1.5000000000000002
0
CIRCLE
5
107
100
AcDbEntity
8
0
100
AcDbCircle
10
-6.9999999999999583
20
-8.5000000000012079
30
0
40
1.5000000000000002
0
LWPOLYLINE
5
108
100
AcDbEntity
8
0
100
AcDbPolyline
90
12
70
1
43
0.0
10
-4.2610000000001822
20
-84.388000000000375
42
-0.41421356237309681
10
-3.2610000000001826
20
-85.388000000000375
10
-3.261000000000184
20
-87.960000000000377
42
0.4142135623730952
10
-2.2610000000001831
20
-88.960000000000377
10
8.4389999999997691
20
-88.960000000000377
42
0.41421356237309509
10
9.4389999999997691
20
-87.960000000000377
10
9.4389999999997691
20
-79.308000000000391
42
0.41421356237309537
10
8.4389999999997691
20
-78.308000000000405
10
-7.3410000000002249
20
-78.308000000000391
42
0.41421356237309509
10
-8.3410000000002249
20
-79.308000000000391
10
-8.3410000000002249
20
-83.388000000000375
42
0.41421356237309509
10
-7.3410000000002249
20
-84.388000000000375
0
LWPOLYLINE
5
109
100
AcDbEntity
8
0
100
AcDbPolyline
90
28
70
1
43
0.0
10
55
20
-43.500000000000426
10
60.5
20
-43.500000000000426
10
60.5
20
-73.500000000000426
10
55
20
-73.500000000000426
10
55
20
-93.499999999999915
10
33
20
-93.499999999999929
10
33
20
-98.999999999999929
10
11
20
-98.999999999999929
10
11
20
-93.499999999999929
10
-11
20
-93.499999999999929
10
-11
20
-98.999999999999929
10
-33
20
-98.999999999999929
10
-33
20
-93.499999999999929
10
-55
20
-93.499999999999915
10
-55.000000000000007
20
-63.499999999999915
10
-60.500000000000007
20
-63.499999999999915
10
-60.500000000000007
20
-33.499999999999915
10
-55.000000000000007
20
-33.499999999999915
10
-55
20
-3.4999999999999254
10
-33
20
-3.499999999999921
10
-33
20
2.000000000000079
10
-11
20
2.0000000000000795
10
-11
20
-3.499999999999921
10
11
20
-3.499999999999921
10
11
20
2.0000000000000799
10
33
20
2.0000000000000808
10
33
20
-3.4999999999999201
10
55
20
-3.4999999999999165
0
ENDSEC
0
SECTION
2
OBJECTS
0
DICTIONARY
5
C
100
AcDbDictionary
3
ACAD_GROUP
350
D
3
ACAD_MLINESTYLE
350
17
0
DICTIONARY
5
D
100
AcDbDictionary
0
DICTIONARY
5
1A
330
C
100
AcDbDictionary
0
DICTIONARY
5
17
100
AcDbDictionary
0
ENDSEC
0
EOF
